<svg xmlns:dc="http://purl.org/dc/elements/1.1/" xmlns:cc="http://creativecommons.org/ns#" xmlns:rdf="http://www.w3.org/1999/02/22-rdf-syntax-ns#" xmlns:svg="http://www.w3.org/2000/svg" xmlns="http://www.w3.org/2000/svg" xmlns:sodipodi="http://sodipodi.sourceforge.net/DTD/sodipodi-0.dtd" xmlns:inkscape="http://www.inkscape.org/namespaces/inkscape" version="1.1" id="svg2184" width="395.776" height="657.55597" viewBox="0 0 395.776 657.55597" sodipodi:docname="exp_kolba.svg" inkscape:version="1.0.2 (e86c870879, 2021-01-15, custom)">
  <metadata id="metadata2190">
    <rdf:RDF>
      <cc:Work rdf:about="">
        <dc:format>image/svg+xml</dc:format>
        <dc:type rdf:resource="http://purl.org/dc/dcmitype/StillImage"/>
        <dc:title/>
      </cc:Work>
    </rdf:RDF>
  </metadata>
  <defs id="defs2188"/>
  <sodipodi:namedview pagecolor="#ffffff" bordercolor="#666666" borderopacity="1" objecttolerance="10" gridtolerance="10" guidetolerance="10" inkscape:pageopacity="0" inkscape:pageshadow="2" inkscape:window-width="1849" inkscape:window-height="1057" id="namedview2186" showgrid="false" inkscape:zoom="0.86327165" inkscape:cx="-5.3434751" inkscape:cy="190.911" inkscape:window-x="63" inkscape:window-y="-8" inkscape:window-maximized="1" inkscape:current-layer="layer4" fit-margin-top="0" fit-margin-left="0" fit-margin-right="0" fit-margin-bottom="0"/>
  <g inkscape:groupmode="layer" id="layer4" inkscape:label="vector" transform="translate(-106.96263,-31.653897)">
    <path style="fill:none;stroke:#000000;stroke-width:1px;stroke-linecap:butt;stroke-linejoin:miter;stroke-opacity:1" d="m 233.03427,33.378371  C 233.03427,33.37837 233.03401,33.37876 233.03348,33.37954 C 233.0324,33.38114 233.03022,33.38437 233.02698,33.38919 C 233.02255,33.39577 233.01614,33.40532 233.00783,33.41774 C 232.99686,33.43413 232.98258,33.45552 232.96518,33.48169 C 232.9445,33.51279 232.91942,33.55064 232.89028,33.59487 C 232.85663,33.64594 232.81755,33.70551 232.77355,33.77301 C 232.72498,33.84752 232.67042,33.93169 232.61055,34.02475 C 232.54664,34.12408 232.47668,34.23354 232.4015,34.35218 C 232.32206,34.47754 232.23679,34.61315 232.14668,34.75791 C 232.04973,34.91364 231.94717,35.07995 231.84023,35.25546 C 230.43023,37.56947 228.25731,41.48204 228.11966,43.82191 m 0,0 C 228.11823,43.84628 228.11682,43.87078 228.11543,43.89541 C 228.11355,43.9286 228.11171,43.96202 228.10991,43.99567 C 228.10691,44.0518 228.10402,44.10857 228.10125,44.16595 C 228.09818,44.22947 228.09526,44.29374 228.0925,44.35872 C 228.08881,44.44557 228.0854,44.5337 228.0823,44.62303 C 228.07854,44.73152 228.07523,44.84178 228.07243,44.95367 C 228.06919,45.08349 228.06663,45.2155 228.06484,45.34949 C 228.06271,45.50866 228.06166,45.67062 228.06182,45.83501 C 228.062,46.01468 228.06363,46.19725 228.06688,46.38225 C 228.07051,46.58839 228.07615,46.79754 228.08405,47.00905 C 228.20671,50.29351 228.87361,54.14645 230.98652,56.10843 m 0,0 C 231.00515,56.12573 231.0238,56.14298 231.04247,56.16018 C 231.08812,56.20225 231.13387,56.24402 231.1797,56.28552 C 231.24312,56.34295 231.3067,56.39987 231.37039,56.45636 C 231.44787,56.52508 231.52552,56.59317 231.60326,56.66078 C 231.69502,56.74057 231.78691,56.81969 231.87881,56.89838 C 231.98064,56.98558 232.08248,57.07225 232.18417,57.15873 C 232.30319,57.25995 232.422,57.3609 232.54033,57.46213 C 232.67558,57.57783 232.8102,57.69389 232.9438,57.8111 C 233.08415,57.93423 233.22337,58.05863 233.36099,58.18523 C 233.50002,58.31313 233.63742,58.44327 233.77272,58.57661 C 235.6126,60.38984 237.06335,62.79438 236.925,68.19017 m 0,0 C 236.92367,68.24208 236.92242,68.29653 236.92124,68.3535 C 236.91863,68.47975 236.9164,68.61834 236.91454,68.76891 C 236.91163,69.00428 236.90962,69.26893 236.90847,69.56152 C 236.90688,69.96545 236.90692,70.42263 236.90849,70.92952 C 236.91029,71.51047 236.9141,72.15671 236.91976,72.86292 C 236.92627,73.67422 236.93522,74.56467 236.94638,75.52618 C 236.95853,76.57308 236.9733,77.70423 236.99038,78.90921 C 237.00825,80.17053 237.02865,81.51275 237.05123,82.92391 C 237.07488,84.40219 237.10092,85.95612 237.12894,87.57196 C 237.158,89.24763 237.18919,90.98988 237.22205,92.78338 C 237.64882,116.07379 238.35843,148.00671 238.35843,155.01489 m 0,0 C 238.35843,155.11072 238.35846,155.20926 238.35852,155.31045 C 238.35865,155.51659 238.35891,155.73375 238.35928,155.96152 C 238.35977,156.25758 238.36045,156.57157 238.36128,156.9026 C 238.36234,157.32438 238.36365,157.77382 238.36514,158.24907 C 238.36688,158.80256 238.36886,159.39107 238.37096,160.01168 C 238.37335,160.71689 238.37589,161.46354 238.37842,162.24736 C 238.38118,163.1024 238.38392,164.00167 238.38642,164.93962 C 238.38916,165.96559 238.39161,167.03784 238.39348,168.1491 C 238.39543,169.30685 238.39675,170.50694 238.3971,171.74115 C 238.39746,172.98858 238.39684,174.27087 238.39489,175.57953 C 238.36973,192.44674 238.12425,213.6953 236.925,221.1573 m 0,0 C 236.9121,221.23757 236.89817,221.32069 236.88322,221.40662 C 236.86307,221.52242 236.84107,221.64332 236.81725,221.76923 C 236.77751,221.97927 236.73271,222.20322 236.68301,222.44062 C 236.61882,222.74723 236.54646,223.07628 236.46627,223.42676 C 236.36533,223.86791 236.25198,224.34302 236.1269,224.85009 C 235.96462,225.50793 235.7826,226.21957 235.58231,226.98064 C 235.35705,227.83659 235.10869,228.75506 234.83934,229.72984 C 234.5383,230.81932 234.21103,231.97914 233.86048,233.20063 C 233.48289,234.51637 233.07829,235.90367 232.65036,237.35169 C 232.1952,238.89184 231.71364,240.50069 231.21012,242.1652 C 223.65728,267.13292 211.16185,304.62472 208.66601,310.6441 m 0,0 C 208.63468,310.71966 208.6002,310.80383 208.56262,310.89646 C 208.48607,311.08515 208.39668,311.30892 208.29492,311.56649 C 208.15995,311.90812 208.00322,312.30921 207.82583,312.76675 C 207.63904,313.24854 207.42935,313.79293 207.19805,314.3964 C 206.91881,315.12493 206.60808,315.93956 206.26813,316.83412 C 205.87582,317.86647 205.44459,319.00526 204.97795,320.24099 C 204.43478,321.67937 203.84362,323.2491 203.20998,324.93519 C 202.48898,326.85375 201.71298,328.92297 200.89011,331.12077 C 200.02809,333.42312 199.11463,335.86657 198.15907,338.42575 C 197.18891,341.02401 196.17535,343.74156 195.12817,346.55185 C 181.21558,383.88853 161.3671,437.59344 158.49607,445.38624 m 0,0 C 158.46597,445.46795 158.43476,445.55278 158.40247,445.64068 C 158.3475,445.79032 158.28937,445.94888 158.22816,446.11616 C 158.13492,446.37095 158.03453,446.64596 157.92724,446.94046 C 157.77925,447.3467 157.61814,447.79002 157.44458,448.26852 C 157.23328,448.85109 157.00353,449.48581 156.75655,450.16922 C 156.48083,450.93214 156.18364,451.75574 155.86667,452.63522 C 155.50871,453.62844 155.12552,454.69293 154.71955,455.82177 C 154.30939,456.96226 153.87597,458.16844 153.42181,459.43318 C 152.92824,460.80768 152.41017,462.25134 151.87084,463.75501 C 151.30227,465.34019 150.71007,466.99206 150.09802,468.69989 C 140.33638,495.93837 125.52583,537.41341 121.02219,549.61685 m 0,0 C 120.96506,549.77166 120.90789,549.92665 120.8507,550.08182 C 120.73419,550.39791 120.61757,550.71474 120.50087,551.03226 C 120.34918,551.44498 120.19736,551.85888 120.04551,552.27386 C 119.84901,552.81086 119.65245,553.34967 119.45602,553.89009 C 119.22797,554.51752 119.00011,555.14713 118.77274,555.77861 C 118.51502,556.49438 118.25794,557.21255 118.00194,557.93267 C 117.72321,558.71674 117.44577,559.50311 117.1702,560.29121 C 116.86931,561.15172 116.57066,562.01429 116.275,562.87815 C 115.96968,563.77024 115.66755,564.66371 115.36945,565.55773 C 115.0556,566.49898 114.74621,567.44083 114.44226,568.38232 C 110.69354,579.99398 107.77196,591.54978 107.50702,601.22023 m 0,0 C 107.50415,601.32487 107.50141,601.42956 107.49881,601.5343 C 107.49364,601.74231 107.48899,601.95051 107.48489,602.15889 C 107.47911,602.45241 107.47441,602.74629 107.47083,603.04049 C 107.46601,603.43692 107.46324,603.83393 107.46265,604.23143 C 107.4619,604.73749 107.46468,605.24435 107.47125,605.75183 C 107.47926,606.37013 107.4929,606.98936 107.51265,607.60919 C 107.53419,608.28533 107.563,608.96218 107.5997,609.63933 C 107.63951,610.37385 107.6886,611.10872 107.74776,611.8434 C 107.80948,612.60985 107.88216,613.3761 107.9667,614.14154 C 108.05643,614.95394 108.15952,615.76543 108.27705,616.57528 C 109.72655,626.5634 113.37178,636.30176 121.22697,644.42781 m 0,0 C 121.30417,644.50767 121.38144,644.58757 121.45878,644.6675 C 121.62428,644.83854 121.79011,645.00973 121.95631,645.18104 C 122.19627,645.42838 122.43699,645.67598 122.67858,645.92378 C 123.01911,646.27306 123.36136,646.62274 123.70562,646.97264 C 124.136,647.41006 124.56952,647.84782 125.00675,648.28556 C 125.53252,648.81194 126.06365,649.3383 126.60112,649.86402 C 127.17773,650.42802 127.76163,650.99128 128.35404,651.55305 C 128.97764,652.1444 129.61066,652.73409 130.25451,653.32124 C 130.9262,653.93378 131.60968,654.54355 132.30655,655.14955 C 133.00673,655.75843 133.72043,656.3635 134.44927,656.96374 C 143.98576,664.81761 156.11401,671.84458 174.46854,675.75843 m 0,0 C 174.64956,675.79703 174.83324,675.83574 175.01954,675.87456 C 175.41819,675.95763 175.82885,676.0412 176.25119,676.12523 C 176.86095,676.24656 177.49505,676.36885 178.15249,676.492 C 178.96923,676.64499 179.82199,676.79931 180.70887,676.95475 C 181.78864,677.144 182.91898,677.33491 184.09644,677.52712 C 185.41089,677.74169 186.78406,677.95788 188.21115,678.17518 C 189.82281,678.42058 191.50324,678.66739 193.24554,678.91488 C 195.00581,679.16492 196.82923,679.41565 198.70867,679.66631 C 200.82829,679.949 203.01916,680.2316 205.27106,680.51302 C 207.76668,680.8249 210.33726,681.13534 212.96888,681.44285 C 251.1375,685.90291 302.14671,689.74701 323.54494,688.4545 m 0,0 C 323.75852,688.4416 323.9737,688.42885 324.19045,688.41624 C 324.68241,688.38763 325.18247,688.35977 325.69036,688.33259 C 326.39315,688.29498 327.11093,688.25867 327.84299,688.2235 C 328.63809,688.1853 329.45004,688.14844 330.27792,688.11269 C 331.35955,688.06599 332.46837,688.02119 333.60234,687.97781 C 335.00913,687.92399 336.45463,687.87235 337.93495,687.82195 C 339.56577,687.76643 341.23885,687.71241 342.94898,687.65865 C 344.64013,687.60548 346.36752,687.55256 348.12611,687.49868 C 349.98847,687.44162 351.88582,687.38347 353.81218,687.3228 C 355.89617,687.25716 358.01411,687.18857 360.15844,687.11521 C 390.50395,686.07698 426.1334,684.0822 445.59101,675.9632 m 0,0 C 445.79026,675.88006 445.98864,675.79713 446.18617,675.71441 C 446.59247,675.54425 446.99514,675.37496 447.39424,675.20649 C 447.96386,674.96603 448.5262,674.72723 449.08141,674.48994 C 449.75437,674.20233 450.41685,673.91694 451.06912,673.6335 C 451.86326,673.28841 452.64226,672.94622 453.4066,672.60645 C 454.20298,672.25243 454.98345,671.90104 455.74855,671.55173 C 456.62399,671.15204 457.4793,670.75508 458.3153,670.36003 C 459.29038,669.89926 460.23919,669.44109 461.16302,668.98423 C 462.14441,668.49891 463.09761,668.01507 464.02416,667.53116 C 465.02988,667.0059 466.0042,666.48057 466.94911,665.95318 C 480.54123,658.3669 488.0465,650.35535 495.35141,636.03202 m 0,0 C 495.41929,635.89892 495.48663,635.76547 495.55342,635.63168 C 495.67083,635.39651 495.78656,635.16027 495.90062,634.92298 C 496.09671,634.51505 496.28786,634.104 496.47414,633.68989 C 496.68864,633.21304 496.89667,632.73213 497.09831,632.24724 C 497.36643,631.60248 497.62324,630.95068 497.86894,630.29202 C 498.17738,629.46516 498.4683,628.62749 498.74207,627.77938 C 499.04558,626.83914 499.328,625.88607 499.58983,624.92066 C 499.85208,623.95372 500.09367,622.97441 500.3151,621.98322 C 500.55241,620.92095 500.76657,619.84503 500.95819,618.75608 C 501.14523,617.69317 501.3108,616.61784 501.45546,615.53066 C 503.76274,598.19113 500.75256,577.83818 494.73708,556.78399 m 0,0 C 494.67688,556.57328 494.6149,556.3581 494.55117,556.13852 C 494.46529,555.84261 494.37623,555.53872 494.28405,555.22701 C 494.11106,554.64201 493.9271,554.02948 493.7326,553.39053 C 493.50977,552.6585 493.2731,551.89179 493.02323,551.09207 C 492.70871,550.08546 492.37327,549.02655 492.01819,547.91867 C 491.57033,546.5213 491.09122,545.04603 490.5834,543.49953 C 490.00235,541.73 489.38372,539.86722 488.73134,537.9212 C 488.00056,535.74132 487.22742,533.45699 486.41729,531.08227 C 485.54315,528.5199 484.62594,525.8523 483.67242,523.09714 C 482.64027,520.1148 481.56557,517.02986 480.45688,513.86474 C 463.96728,466.78987 439.95778,401.9778 436.5809,393.16854 m 0,0 C 436.55029,393.08868 436.51853,393.00579 436.48565,392.91991 C 436.41026,392.72301 436.32895,392.5104 436.2419,392.28256 C 436.11899,391.96088 435.98464,391.60883 435.83937,391.22773 C 435.65094,390.73341 435.44412,390.19023 435.22005,389.60108 C 434.95653,388.90822 434.66914,388.15179 434.35971,387.33651 C 433.99601,386.37824 433.60185,385.33866 433.18021,384.22543 C 432.69453,382.94312 432.17238,381.56309 431.6183,380.09705 C 431.05573,378.60857 430.46025,377.03143 429.8366,375.37789 C 429.15376,373.56741 428.43715,371.66534 427.693,369.68776 C 426.88931,367.55197 426.0535,365.32811 425.19342,363.03644 C 414.10795,333.49939 398.99048,292.6979 396.64972,284.02331 m 0,0 C 396.62535,283.933 396.60046,283.84224 396.57506,283.75103 C 396.52641,283.57636 396.47588,283.40004 396.42352,283.22208 C 396.34699,282.96199 396.26656,282.69839 396.18239,282.43131 C 396.07929,282.10413 395.97059,281.77172 395.85661,281.43413 C 395.71658,281.01941 395.56858,280.59687 395.4132,280.1666 C 395.246,279.70358 395.07026,279.23161 394.88671,278.75081 C 394.67669,278.20067 394.45646,277.63896 394.22712,277.06584 C 393.97022,276.42385 393.70189,275.76755 393.42369,275.09717 C 393.11259,274.34752 392.78914,273.58027 392.45552,272.79574 C 392.08848,271.93263 391.70913,271.04861 391.32037,270.14412 C 385.86316,257.44726 378.55137,240.71634 377.40084,221.1573 m 0,0 C 377.38937,220.96235 377.37808,220.7661 377.36697,220.56857 C 377.35279,220.31638 377.3389,220.0621 377.32529,219.80579 C 377.30282,219.38245 377.28113,218.95355 377.2602,218.51933 C 377.2279,217.84925 377.19741,217.16649 377.16866,216.47188 C 377.13043,215.54826 377.09527,214.60369 377.06301,213.64014 C 377.02251,212.43053 376.98657,211.19101 376.95484,209.92547 C 376.91966,208.52246 376.88966,207.08748 376.86436,205.62584 C 376.83877,204.14739 376.81798,202.64166 376.80151,201.11414 C 376.78389,199.47977 376.77121,197.82046 376.76287,196.14294 C 376.75405,194.3694 376.75009,192.5755 376.75026,190.76919 C 376.75278,164.57062 377.62582,135.76155 377.19607,128.59888 m 0,0 C 377.19208,128.53233 377.18811,128.46421 377.18417,128.39455 C 377.17544,128.24016 377.16683,128.07819 377.15835,127.90889 C 377.14654,127.67301 377.13497,127.42289 377.12365,127.15921 C 377.10824,126.80015 377.09328,126.41594 377.07878,126.00827 C 377.06148,125.52189 377.04484,125.00212 377.02885,124.45184 C 377.00945,123.78427 376.99101,123.07179 376.97354,122.31954 C 376.95437,121.49415 376.93635,120.62088 376.91949,119.70651 C 376.90158,118.73516 376.88498,117.71743 376.86968,116.66145 C 376.85359,115.55052 376.83894,114.39725 376.82574,113.21111 C 376.812,111.97621 376.79982,110.70569 376.78921,109.41023 C 376.64824,92.19905 376.78386,70.58541 377.19607,69.6236 m 0,0 C 377.2016,69.6107 377.20706,69.59737 377.21246,69.58361 C 377.22346,69.55559 377.23419,69.52581 377.24468,69.49432 C 377.25859,69.45255 377.27207,69.40778 377.28518,69.36015 C 377.30051,69.30442 377.31533,69.24477 377.32971,69.1814 C 377.34668,69.10662 377.36304,69.02667 377.37892,68.9419 C 377.39527,68.85463 377.41112,68.76224 377.42661,68.66513 C 377.44473,68.55146 377.46236,68.43131 377.47972,68.30529 C 377.49957,68.16125 377.51907,68.00955 377.53857,67.85109 C 377.55905,67.68462 377.57953,67.5107 377.6004,67.33038 C 377.62057,67.15619 377.6411,66.97603 377.66236,66.79085 C 377.96575,64.14886 378.41766,60.48522 380.06292,58.56573 m 0,0 C 380.07889,58.5471 380.09487,58.52831 380.11086,58.50937 C 380.14752,58.46594 380.18422,58.4217 380.22095,58.37667 C 380.27281,58.31309 380.32473,58.24794 380.37668,58.18127 C 380.44525,58.09328 380.51387,58.00265 380.58248,57.90951 C 380.66404,57.7988 380.74559,57.68454 380.82701,57.56696 C 380.92103,57.43119 381.01489,57.29098 381.10841,57.14668 C 381.2106,56.98901 381.31239,56.82645 381.41356,56.65945 C 381.5267,56.4727 381.63906,56.28039 381.75034,56.08315 C 381.87092,55.86941 381.99023,55.64988 382.10787,55.42534 C 382.23375,55.18508 382.35772,54.93908 382.47929,54.68832 C 383.9787,51.5956 385.1139,47.77813 384.97753,45.05056 m 0,0 C 384.9762,45.02394 384.97479,44.99731 384.9733,44.97067 C 384.97012,44.91367 384.96659,44.85663 384.96271,44.79956 C 384.9571,44.71716 384.95076,44.63469 384.94371,44.55216 C 384.93613,44.46344 384.92773,44.37465 384.91852,44.2858 C 384.90612,44.16614 384.89226,44.04638 384.87698,43.92656 C 384.85764,43.77488 384.83603,43.6231 384.81224,43.47129 C 384.78575,43.30225 384.75656,43.13317 384.7248,42.96415 C 384.68874,42.77223 384.64936,42.58039 384.60685,42.38878 C 384.56242,42.18852 384.51457,41.98851 384.46351,41.78891 C 384.4106,41.58205 384.35424,41.37564 384.29467,41.16985 C 383.48459,38.37143 382.08092,35.68865 380.67725,33.58314 m 0,0 C 380.66292,33.56164 380.64482,33.54043 380.62301,33.51951 C 380.59517,33.4928 380.56128,33.46656 380.52145,33.44078 C 380.45347,33.39678 380.36818,33.35413 380.26612,33.3128 C 380.13323,33.25898 379.9719,33.20739 379.78332,33.15796 C 379.54003,33.09419 379.25138,33.03402 378.91991,32.97729 C 378.5078,32.90676 378.02949,32.84156 377.48986,32.78139 C 376.84048,32.70899 376.10229,32.64388 375.28379,32.58555 C 374.32743,32.51739 373.26142,32.45849 372.0993,32.40804 C 370.86187,32.35432 369.51547,32.31018 368.07645,32.27464 C 366.5502,32.23695 364.91977,32.20894 363.20466,32.18944 C 339.12861,31.91567 298.36614,33.319 294.8764,33.17359 m 0,0 C 294.842,33.17216 294.80539,33.17081 294.7666,33.16954 C 294.68957,33.16701 294.60395,33.16479 294.50998,33.16287 C 294.37762,33.16017 294.22869,33.15806 294.06385,33.15652 C 293.84173,33.15444 293.59072,33.15338 293.31245,33.15327 C 292.97786,33.15314 292.60385,33.15439 292.19324,33.15688 C 291.71492,33.15978 291.18693,33.16436 290.61371,33.17042 C 289.97684,33.17716 289.28414,33.18572 288.5417,33.19583 C 287.71543,33.20708 286.82756,33.22024 285.88649,33.23492 C 284.90155,33.25028 283.85834,33.26731 282.76649,33.28555 C 281.61683,33.30476 280.41324,33.32532 279.16696,33.3467 C 262.35128,33.63522 237.76519,34.07409 233.03427,33.37836 m 0,0 Z " id="path2758"/>
    <path style="fill:none;stroke:#000000;stroke-width:1px;stroke-linecap:butt;stroke-linejoin:miter;stroke-opacity:1" d="m 252.59031,53.753511  C 252.59031,53.75351 252.59173,53.75338 252.59455,53.75312 C 252.59935,53.75268 252.60822,53.75187 252.62106,53.75069 C 252.64062,53.74889 252.6694,53.74625 252.7071,53.74279 C 252.7481,53.73903 252.79964,53.73431 252.86132,53.72866 C 252.9409,53.72137 253.03736,53.71254 253.14985,53.70225 C 253.26943,53.69131 253.40713,53.67872 253.56191,53.66458 C 258.65403,53.1995 282.23775,51.05785 287.70927,50.78427 m 0,0 C 293.85253,50.47711 330.60969,51.50098 336.54817,52.01292 m 0,0 C 342.48666,52.52486 356.82093,53.34396 360.30211,54.16306 " id="path2760"/>
    <path style="fill:none;stroke:#000000;stroke-width:1px;stroke-linecap:butt;stroke-linejoin:miter;stroke-opacity:1" d="m 368.69789,34.607023  C 368.69789,34.60702 372.17907,41.36461 372.28146,44.84579 m 0,0 C 372.38385,48.32697 368.69789,54.36784 367.57163,55.69888 " id="path2762"/>
    <path style="fill:none;stroke:#000000;stroke-width:1px;stroke-linecap:butt;stroke-linejoin:miter;stroke-opacity:1" d="m 243.98975,37.473876  C 243.98975,37.47388 240.50857,41.05744 240.91812,44.7434 m 0,0 C 241.32767,48.42936 241.22528,51.60337 243.78497,53.34396 " id="path2764"/>
    <path style="fill:none;stroke:#000000;stroke-width:1px;stroke-linecap:butt;stroke-linejoin:miter;stroke-opacity:1" d="m 251.66882,62.354073  C 251.66882,62.35407 243.37542,60.92065 243.47781,63.27556 m 0,0 C 243.5802,65.63048 244.60407,87.84859 245.2184,96.75632 m 0,0 C 245.83273,105.66405 246.65183,148.97402 246.44705,154.0934 m 0,0 C 246.24228,159.21278 248.08525,206.3111 246.75421,214.19494 m 0,0 C 245.42317,222.07879 237.23216,259.04073 232.82949,268.05084 m 0,0 C 228.42683,277.06096 204.26334,341.87233 202.01081,348.22037 m 0,0 C 199.75829,354.5684 189.00758,385.1823 185.62879,393.37332 m 0,0 C 182.25,401.56433 170.6802,436.27374 167.09663,446.20534 m 0,0 C 163.51306,456.13694 146.31194,505.18062 142.11405,514.49789 m 0,0 C 137.91615,523.81517 127.47261,558.83174 125.83441,567.02275 m 0,0 C 124.19621,575.21376 119.99831,596.91994 123.47949,607.46587 m 0,0 C 126.96067,618.0118 131.56812,630.50309 149.69073,638.59171 m 0,0 C 167.81334,646.68034 199.6559,655.17851 218.7,655.99761 m 0,0 C 237.7441,656.81671 295.08118,659.06924 300.40534,658.96685 m 0,0 C 305.72949,658.86447 379.14143,657.43104 388.66348,653.94986 m 0,0 C 398.18553,650.46868 433.71405,653.23315 449.27697,648.31854 m 0,0 C 464.83989,643.40393 481.63146,631.11742 488.59382,620.4691 m 0,0 C 495.55618,609.82079 495.71592,597.5813 495.28152,589.97941 m 0,0 C 494.84713,582.37752 491.66158,555.37269 489.41721,549.14638 m 0,0 C 487.17284,542.92006 479.35375,517.87001 477.54377,513.88807 m 0,0 C 475.7338,509.90612 461.90559,475.08221 460.892,471.89665 m 0,0 C 459.87842,468.71109 444.96422,429.83283 443.66104,426.14048 m 0,0 C 442.35786,422.44814 415.42543,353.74149 413.54306,348.96316 m 0,0 C 411.66069,344.18482 381.9771,269.03467 381.39791,266.13871 m 0,0 C 380.81871,263.24275 370.82765,236.74471 369.66927,219.65855 m 0,0 C 368.51088,202.57239 368.94528,139.87486 369.23487,133.79334 m 0,0 C 369.52447,127.71183 368.22129,72.54379 368.36609,67.33106 " id="path2766"/>
    <path style="display:inline;fill:none;stroke:#000000;stroke-width:1px;stroke-linecap:butt;stroke-linejoin:miter;stroke-opacity:1" d="m 160.94058,671.98289  C 160.94058,671.98289 155.01489,668.59129 156.85787,665.72444 m 0,0 C 158.70084,662.85758 167.53822,662.01051 169.02443,661.89368 m 0,0 C 171.47144,661.70133 186.46546,660.46452 190.97051,660.25975 m 0,0 C 195.47557,660.05497 210.68076,660.43152 213.34284,660.43152 m 0,0 C 216.00491,660.43152 269.29192,661.81525 272.7731,661.81525 m 0,0 C 276.25428,661.81525 309.825,662.2972 316.99214,661.88765 m 0,0 C 324.15927,661.4781 397.89895,661.57321 403.42789,661.98275 m 0,0 C 408.95682,662.3923 435.80083,664.11532 439.69156,664.93442 m 0,0 C 443.58229,665.75352 450.26961,666.6326 449.96972,670.01867 m 0,0 C 449.7181,672.85974 447.84354,674.73453 445.18146,676.16796 " id="path2768" sodipodi:nodetypes="csssssssssc"/>
    <path style="display:inline;fill:none;stroke:#000000;stroke-width:1px;stroke-linecap:butt;stroke-linejoin:miter;stroke-opacity:1" d="m 258.03002,682.28813  C 258.03002,682.28813 318.42556,685.99719 338.28876,684.35899 m 0,0 C 358.15197,682.72079 413.3547,681.68236 422.16004,679.42983 m 0,0 C 430.96538,677.1773 441.60264,675.31668 440.57953,671.58413 m 0,0 C 439.51293,667.69297 421.61172,665.77589 415.67324,665.77589 m 0,0 C 409.73475,665.77589 369.4643,663.85236 365.98312,664.05713 " id="path2771" sodipodi:nodetypes="cssssc"/>
  </g>
</svg>