<svg xmlns:dc="http://purl.org/dc/elements/1.1/" xmlns:cc="http://creativecommons.org/ns#" xmlns:rdf="http://www.w3.org/1999/02/22-rdf-syntax-ns#" xmlns:svg="http://www.w3.org/2000/svg" xmlns="http://www.w3.org/2000/svg" xmlns:sodipodi="http://sodipodi.sourceforge.net/DTD/sodipodi-0.dtd" xmlns:inkscape="http://www.inkscape.org/namespaces/inkscape" version="1.1" id="svg2184" width="395.776" height="657.55597" viewBox="0 0 395.776 657.55597" sodipodi:docname="exp_kolba.svg" inkscape:version="1.0.2 (e86c870879, 2021-01-15, custom)">
  <metadata id="metadata2190">
    <rdf:RDF>
      <cc:Work rdf:about="">
        <dc:format>image/svg+xml</dc:format>
        <dc:type rdf:resource="http://purl.org/dc/dcmitype/StillImage"/>
        <dc:title/>
      </cc:Work>
    </rdf:RDF>
  </metadata>
  <defs id="defs2188"/>
  <sodipodi:namedview pagecolor="#ffffff" bordercolor="#666666" borderopacity="1" objecttolerance="10" gridtolerance="10" guidetolerance="10" inkscape:pageopacity="0" inkscape:pageshadow="2" inkscape:window-width="1849" inkscape:window-height="1057" id="namedview2186" showgrid="false" inkscape:zoom="0.86327165" inkscape:cx="-5.3434751" inkscape:cy="190.911" inkscape:window-x="63" inkscape:window-y="-8" inkscape:window-maximized="1" inkscape:current-layer="layer4" fit-margin-top="0" fit-margin-left="0" fit-margin-right="0" fit-margin-bottom="0"/>
  <g inkscape:groupmode="layer" id="layer4" inkscape:label="vector" transform="translate(-106.96263,-31.653897)">
    <path style="fill:none;stroke:#000000;stroke-width:1px;stroke-linecap:butt;stroke-linejoin:miter;stroke-opacity:1" d="m 233.03427,33.378371  C 233.03427,33.378371 233.034005,33.378763 233.033479,33.379542 C 233.0324,33.38114 233.030223,33.384367 233.026981,33.389185 C 233.022554,33.395764 233.016141,33.405311 233.007828,33.417728 C 232.996857,33.434116 232.982576,33.455505 232.965181,33.481671 C 232.944505,33.512773 232.91943,33.550625 232.890286,33.594853 C 232.856634,33.645923 232.817556,33.705494 232.773561,33.772991 C 232.724993,33.847504 232.670432,33.931676 232.610562,34.024732 C 232.546653,34.124065 232.476694,34.233522 232.401517,34.352161 C 232.322078,34.477524 232.236812,34.613139 232.146699,34.757895 C 232.049752,34.91363 231.947195,35.079945 231.840249,35.255456 C 231.731678,35.433635 231.618583,35.621292 231.502243,35.816979 C 231.391374,36.003462 231.277558,36.197238 231.161899,36.397053 C 231.046731,36.596021 230.929736,36.800978 230.812006,37.010686 C 230.701899,37.206817 230.591149,37.407104 230.480649,37.610535 C 230.372429,37.809768 230.264449,38.012016 230.157548,38.216329 C 229.133218,40.17406 228.207929,42.32138 228.11966,43.82191 m 0,0 C 228.118329,43.844538 228.117015,43.867278 228.115719,43.890129 C 228.113243,43.933787 228.110833,43.97785 228.108492,44.022305 C 228.104609,44.096057 228.100918,44.170889 228.097439,44.246748 C 228.092978,44.344001 228.088865,44.442942 228.085142,44.543458 C 228.080336,44.673201 228.076178,44.805568 228.072758,44.940315 C 228.068922,45.091485 228.066014,45.24565 228.064161,45.402467 C 228.06199,45.586183 228.061267,45.773539 228.062195,45.963981 C 228.063184,46.167088 228.066051,46.373706 228.071041,46.583164 C 228.07618,46.79891 228.083572,47.017669 228.093485,47.238709 C 228.103633,47.464999 228.116423,47.693679 228.132144,47.923964 C 228.147809,48.153426 228.166384,48.384481 228.188153,48.616351 C 228.210572,48.855139 228.236379,49.094791 228.265886,49.334459 C 228.296006,49.579105 228.329981,49.823767 228.368142,50.067541 C 228.405173,50.304097 228.446146,50.539817 228.491364,50.773876 C 228.534129,50.995237 228.580691,51.215112 228.631306,51.432802 C 229.065042,53.298273 229.796396,55.003313 230.98652,56.108427 m 0,0 C 231.005155,56.125731 231.023807,56.142983 231.042475,56.160185 C 231.083848,56.198309 231.125301,56.236188 231.166822,56.273846 C 231.231728,56.332714 231.296801,56.391041 231.361996,56.448916 C 231.452,56.528815 231.542237,56.607853 231.63259,56.686264 C 231.736144,56.776132 231.83985,56.865177 231.943532,56.95375 C 232.062643,57.055503 232.181722,57.156634 232.300502,57.257676 C 232.429831,57.367691 232.558805,57.4776 232.687081,57.588093 C 232.821355,57.703753 232.954864,57.820052 233.087213,57.93778 C 233.225857,58.061109 233.363228,58.186006 233.498871,58.31338 C 233.639537,58.445471 233.778345,58.580225 233.914788,58.718656 C 234.056536,58.86247 234.195733,59.010252 234.33181,59.163138 C 234.471867,59.320496 234.608619,59.483261 234.741447,59.652672 C 234.870495,59.817261 234.995839,59.988122 235.116911,60.166392 C 235.235021,60.3403 235.349065,60.521258 235.458517,60.710321 C 235.562891,60.890613 235.663089,61.078275 235.758654,61.274221 C 236.535826,62.867734 237.006566,65.009135 236.925,68.190169 m 0,0 C 236.923464,68.250066 236.922032,68.313349 236.920702,68.379969 C 236.918238,68.503394 236.916125,68.638272 236.914353,68.784287 C 236.911608,69.010527 236.909682,69.263505 236.908541,69.542045 C 236.907096,69.894943 236.906911,70.288873 236.907915,70.721446 C 236.909079,71.22279 236.911841,71.776041 236.91609,72.377478 C 236.92098,73.069537 236.927839,73.825398 236.936501,74.639393 C 236.945325,75.468633 236.956019,76.358204 236.968406,77.302115 C 236.982053,78.341987 236.997754,79.447808 237.015273,80.611567 C 237.033607,81.829453 237.053932,83.110792 237.075977,84.446401 C 237.099115,85.848245 237.124148,87.309876 237.150761,88.820675 C 237.179483,90.451221 237.210046,92.139039 237.242056,93.870782 C 237.274412,95.621281 237.308246,97.416661 237.34315,99.243137 C 237.378411,101.08827 237.414764,102.965137 237.451789,104.859526 C 237.488436,106.734569 237.525742,108.626777 237.563298,110.522368 C 237.600203,112.385074 237.63735,114.251047 237.674353,116.10721 C 238.022794,133.586078 238.35843,150.19507 238.35843,155.01489 m 0,0 C 238.35843,155.110725 238.358463,155.209263 238.358527,155.310457 C 238.358658,155.516595 238.358919,155.733752 238.359293,155.961523 C 238.359789,156.263627 238.360484,156.584402 238.36134,156.9229 C 238.362241,157.279338 238.363321,157.655427 238.364535,158.050061 C 238.366,158.526479 238.36766,159.029924 238.369436,159.558448 C 238.371486,160.168381 238.37369,160.811714 238.375928,161.485454 C 238.378533,162.269687 238.381184,163.095119 238.383691,163.957028 C 238.386543,164.937774 238.389208,165.965749 238.391405,167.033999 C 238.393706,168.153064 238.395494,169.316326 238.396445,170.51579 C 238.397411,171.733571 238.397514,172.988668 238.396417,174.272713 C 238.395302,175.577761 238.392947,176.912712 238.388998,178.26878 C 238.385113,179.602961 238.379685,180.957583 238.372376,182.32428 C 238.365127,183.679709 238.356028,185.047014 238.344749,186.418035 C 238.333586,187.774972 238.320288,189.135548 238.304535,190.491852 C 238.289317,191.802127 238.271808,193.108414 238.25172,194.40358 C 238.074869,205.806122 237.698138,216.346669 236.925,221.1573 m 0,0 C 236.914864,221.220371 236.90409,221.285201 236.892684,221.35177 C 236.867936,221.496213 236.840216,221.648846 236.809592,221.809465 C 236.773032,222.001217 236.732335,222.204351 236.687617,222.418522 C 236.623792,222.724204 236.551777,223.052369 236.471912,223.402014 C 236.371385,223.842117 236.258422,224.316252 236.133703,224.822417 C 235.974148,225.469961 235.795352,226.169926 235.598738,226.918122 C 235.358357,227.83287 235.091343,228.819711 234.800297,229.870984 C 234.485289,231.008812 234.142129,232.222119 233.774116,233.501193 C 233.370088,234.905441 232.936104,236.388958 232.47653,237.938892 C 231.996427,239.558061 231.488396,241.249714 230.957413,242.999198 C 230.40818,244.808812 229.83439,246.680302 229.24155,248.597452 C 228.642393,250.53503 228.023778,252.519246 227.39139,254.533361 C 226.749981,256.576209 226.094403,258.649815 225.430588,260.736714 C 224.782728,262.773455 224.127022,264.822858 223.468985,266.868686 C 222.817595,268.893846 222.163921,270.915503 221.513311,272.917907 C 215.753969,290.643624 210.23475,306.860668 208.66601,310.6441 m 0,0 C 208.641642,310.702871 208.615367,310.766849 208.587212,310.835963 C 208.531297,310.973223 208.467966,311.13074 208.397427,311.307952 C 208.298068,311.557568 208.184407,311.846259 208.057022,312.172454 C 207.88537,312.612002 207.688799,313.119648 207.468724,313.691547 C 207.188548,314.419626 206.870277,315.251844 206.516829,316.180268 C 206.086192,317.311449 205.603336,318.585445 205.07354,319.987906 C 204.495609,321.517791 203.861821,323.200546 203.179029,325.017545 C 202.438383,326.988499 201.640077,329.11741 200.792857,331.380505 C 199.909,333.741465 198.971908,336.248464 197.991511,338.87451 C 196.950953,341.6617 195.861612,344.582996 194.735362,347.606124 C 193.610238,350.626229 192.448278,353.747963 191.26132,356.93915 C 190.069505,360.143397 188.852487,363.417667 187.62225,366.729386 C 186.418529,369.969726 185.202153,373.245918 183.984347,376.527451 C 182.777821,379.778587 181.569892,383.034965 180.371476,386.266914 C 179.209934,389.399418 178.057328,392.508973 176.923598,395.568563 C 167.979731,419.705327 160.210598,440.732521 158.49607,445.38624 m 0,0 C 158.453067,445.502962 158.407812,445.626052 158.360347,445.755389 C 158.285163,445.960259 158.204435,446.180802 158.118334,446.416534 C 158.001839,446.73548 157.875509,447.082231 157.739766,447.455588 C 157.567786,447.928614 157.380697,448.444347 157.179361,449.000347 C 156.949447,449.635265 156.700954,450.322693 156.435164,451.058999 C 156.132268,451.898097 155.806908,452.800673 155.460981,453.761351 C 155.065631,454.859284 154.643417,456.033107 154.197172,457.274796 C 153.713086,458.621778 153.200721,460.048624 152.663691,461.54509 C 152.103137,463.107107 151.515711,464.744976 150.905525,466.447048 C 150.268082,468.22515 149.6058,470.073319 148.923366,471.978273 C 148.236949,473.894344 147.530145,475.867864 146.807724,477.885318 C 146.074323,479.933434 145.324826,482.026829 144.564225,484.151362 C 143.839397,486.175973 143.104484,488.228861 142.363807,490.297788 C 141.609117,492.405856 140.848442,494.530575 140.086351,496.659 C 139.316293,498.809676 138.544789,500.964135 137.776554,503.109021 C 130.665456,522.962965 123.834412,541.996634 121.02219,549.61685 m 0,0 C 120.977754,549.737258 120.933298,549.857776 120.888824,549.978402 C 120.787881,550.252189 120.686846,550.526533 120.585747,550.801407 C 120.445851,551.181763 120.305832,551.563133 120.165761,551.945445 C 120.013629,552.360679 119.861436,552.777024 119.709275,553.194389 C 119.510476,553.739676 119.311731,554.286703 119.113244,554.835265 C 118.867005,555.515801 118.621164,556.198699 118.376113,556.883568 C 118.10615,557.638063 117.837146,558.394949 117.569624,559.153703 C 117.30507,559.904038 117.041966,560.656199 116.780819,561.409681 C 116.504263,562.207622 116.229901,563.007043 115.958334,563.807343 C 115.664546,564.673128 115.37403,565.539942 115.087547,566.407023 C 114.79362,567.296635 114.503939,568.186528 114.219326,569.075879 C 113.92804,569.986084 113.642062,570.895721 113.362275,571.803909 C 113.083957,572.707329 112.811765,573.609315 112.546567,574.508999 C 112.290306,575.378366 112.040575,576.245584 111.798158,577.109869 C 111.562277,577.950852 111.333321,578.789058 111.112011,579.623766 C 109.075054,587.306482 107.685853,594.692841 107.50702,601.22023 m 0,0 C 107.505791,601.265076 107.504586,601.309931 107.503405,601.354795 C 107.499678,601.496438 107.496192,601.638172 107.492952,601.779993 C 107.486703,602.053546 107.481371,602.327421 107.476999,602.60159 C 107.471316,602.957961 107.467255,603.314828 107.464909,603.672127 C 107.461827,604.141597 107.461706,604.611814 107.464758,605.082635 C 107.468245,605.620697 107.475876,606.159548 107.487966,606.698974 C 107.501074,607.283823 107.519423,607.869348 107.543416,608.455277 C 107.570785,609.123635 107.605498,609.792519 107.648151,610.461524 C 107.691259,611.137665 107.742479,611.813931 107.802426,612.489904 C 107.867606,613.22488 107.943103,613.95951 108.02971,614.693258 C 108.122664,615.48078 108.228416,616.267286 108.347946,617.052113 C 108.468353,617.842699 108.602741,618.631581 108.752111,619.418083 C 108.893722,620.163731 109.048799,620.907239 109.218195,621.648029 C 109.385696,622.380532 109.567197,623.110379 109.763524,623.837011 C 109.946274,624.513394 110.14187,625.186991 110.350978,625.857353 C 112.427201,632.513347 115.835433,638.85036 121.22697,644.42781 m 0,0 C 121.310109,644.513816 121.393328,644.599862 121.476632,644.685945 C 121.588896,644.801954 121.701313,644.918031 121.813895,645.034169 C 122.025181,645.25213 122.237046,645.470307 122.44956,645.688655 C 122.69303,645.938809 122.937353,646.189188 123.182634,646.439725 C 123.491373,646.75508 123.80163,647.070686 124.113616,647.386409 C 124.507123,647.78463 124.903381,648.183038 125.302815,648.581366 C 125.759853,649.037139 126.221048,649.492808 126.687035,649.947974 C 127.209022,650.457839 127.737022,650.967072 128.271928,651.475112 C 128.849102,652.023298 129.434317,652.570094 130.028694,653.114796 C 130.67208,653.704411 131.326201,654.291571 131.992479,654.875382 C 132.676239,655.474512 133.372803,656.070114 134.083708,656.661222 C 134.827093,657.279337 135.586159,657.892538 136.362664,658.499719 C 137.139069,659.106822 137.932908,659.707907 138.745939,660.301868 C 139.552737,660.891275 140.378433,661.473668 141.224745,662.047966 C 142.044765,662.604423 142.88414,663.15328 143.744431,663.693555 C 151.75312,668.723128 161.574471,673.008957 174.46854,675.75843 m 0,0 C 174.691336,675.805938 174.918155,675.853616 175.148934,675.901458 C 175.621109,675.999342 176.109862,676.097912 176.614654,676.197109 C 177.216428,676.315364 177.840996,676.434511 178.487443,676.554453 C 179.390207,676.721952 180.335641,676.891 181.321254,677.061333 C 182.597952,677.281971 183.942067,677.504764 185.348187,677.729136 C 186.932256,677.981903 188.595016,678.236673 190.328731,678.492623 C 192.227265,678.772906 194.210886,679.054604 196.269432,679.336634 C 198.471975,679.638393 200.760292,679.940532 203.121936,680.241727 C 205.541338,680.550288 208.037698,680.857858 210.597634,681.163012 C 213.247168,681.478846 215.964806,681.792092 218.735712,682.101169 C 221.446281,682.403516 224.207823,682.701874 227.00645,682.994765 C 229.834897,683.290777 232.701223,683.581204 235.591091,683.864519 C 238.488494,684.148573 241.409563,684.425478 244.339847,684.693696 C 247.28284,684.963077 250.235129,685.223695 253.182075,685.473991 C 256.118792,685.723418 259.050203,685.962595 261.961822,686.189979 C 287.046541,688.14898 310.662173,689.23265 323.54494,688.4545 m 0,0 C 323.758521,688.441599 323.973697,688.428849 324.190445,688.416244 C 324.467171,688.400151 324.74646,688.384294 325.028264,688.368662 C 325.49371,688.342842 325.966017,688.317635 326.444969,688.29299 C 327.184071,688.254958 327.938997,688.218262 328.708954,688.182711 C 329.732767,688.135439 330.783155,688.090191 331.858252,688.046518 C 333.207901,687.991692 334.59649,687.939347 336.020327,687.888595 C 337.59883,687.83233 339.220654,687.778022 340.880768,687.724459 C 342.559973,687.67028 344.278354,687.616864 346.030704,687.562957 C 347.905632,687.505279 349.819448,687.447038 351.765773,687.386699 C 353.823504,687.322906 355.917573,687.256767 358.040443,687.186467 C 360.211127,687.114584 362.411924,687.03835 364.634777,686.955825 C 366.935375,686.870413 369.259598,686.778262 371.598513,686.677221 C 373.918561,686.576995 376.253065,686.468021 378.593307,686.3482 C 380.938638,686.228118 383.289732,686.097141 385.637814,685.953156 C 387.918436,685.813308 390.196216,685.661188 392.463114,685.49486 C 413.094174,683.981103 432.823862,681.290502 445.59101,675.9632 m 0,0 C 445.861416,675.850369 446.130232,675.737926 446.397474,675.625856 C 446.84329,675.4389 447.284724,675.252983 447.721844,675.068037 C 448.313267,674.817805 448.896794,674.569349 449.472594,674.322501 C 450.202106,674.009755 450.919215,673.699589 451.624266,673.391658 C 452.477459,673.019026 453.312994,672.649667 454.131482,672.282969 C 455.109933,671.844605 456.064023,671.410044 456.994797,670.978243 C 458.076737,670.476313 459.127172,669.978112 460.147741,669.481999 C 461.231071,668.955378 462.280749,668.43111 463.298737,667.907234 C 464.335388,667.373754 465.339176,666.840681 466.312172,666.305943 C 467.312899,665.755965 468.281054,665.204226 469.21889,664.648473 C 470.120118,664.114414 470.993348,663.576648 471.84058,663.033176 C 472.715233,662.472114 473.562178,661.904971 474.383615,661.329546 C 475.224069,660.740799 476.03782,660.143382 476.827225,659.534938 C 477.594647,658.943438 478.33906,658.341517 479.062629,657.727011 C 479.728171,657.161785 480.376078,656.585911 481.008035,655.997704 C 486.664205,650.733104 491.042664,644.480541 495.35141,636.03202 m 0,0 C 495.419293,635.898916 495.486631,635.765466 495.553426,635.631672 C 495.706566,635.324923 495.85685,635.016365 496.004301,634.70602 C 496.212478,634.267864 496.415008,633.826146 496.611954,633.380929 C 496.871891,632.793316 497.122101,632.199607 497.362728,631.599948 C 497.648747,630.887171 497.921227,630.165986 498.180412,629.436637 C 498.479688,628.59447 498.761238,627.741418 499.025435,626.877855 C 499.314117,625.93426 499.582081,624.978116 499.829815,624.00991 C 500.106845,622.927206 500.358578,621.829419 500.585696,620.717232 C 500.831806,619.512041 501.049012,618.28994 501.238183,617.051798 C 501.440603,615.726939 501.610923,614.383713 501.750207,613.023185 C 501.889352,611.664017 501.997523,610.287581 502.075781,608.894938 C 502.154359,607.496595 502.202778,606.081912 502.222113,604.651963 C 502.241031,603.252834 502.232105,601.83909 502.19634,600.411737 C 502.163291,599.092788 502.107326,597.762218 502.029238,596.420821 C 501.952546,595.103396 501.854514,593.775528 501.735895,592.437968 C 500.730163,581.097238 498.244455,569.059809 494.73708,556.78399 m 0,0 C 494.651074,556.48297 494.561444,556.172838 494.468266,555.853793 C 494.316059,555.332634 494.154385,554.787693 493.983576,554.219843 C 493.723954,553.356737 493.443229,552.440705 493.142569,551.474809 C 492.780637,550.312068 492.389817,549.077068 491.972149,547.775151 C 491.484167,546.254057 490.959537,544.641618 490.401511,542.946353 C 489.772865,541.036548 489.101835,539.021627 488.393071,536.91377 C 487.68541,534.809193 486.940133,532.611969 486.161868,530.334221 C 485.316062,527.858799 484.431294,525.28827 483.513505,522.638196 C 482.562364,519.89182 481.575758,517.060012 480.560301,514.160093 C 479.496539,511.122228 478.401115,508.009618 477.281631,504.842174 C 476.112578,501.534479 474.917287,498.166987 473.704415,494.762373 C 472.445993,491.229897 471.168644,487.657459 469.882039,484.070386 C 468.559393,480.382831 467.226964,476.67981 465.895257,472.988839 C 464.595881,469.387476 463.297193,465.797585 462.008951,462.244726 C 460.754564,458.785236 459.510081,455.360857 458.284512,451.995187 C 447.725763,422.998641 438.570861,398.359747 436.5809,393.16854 m 0,0 C 436.547931,393.082534 436.513638,392.993016 436.478039,392.900036 C 436.40734,392.715377 436.331492,392.517059 436.250643,392.305466 C 436.136761,392.007423 436.012957,391.683041 435.879647,391.333392 C 435.700012,390.86224 435.503115,390.345209 435.289972,389.784922 C 435.033697,389.111253 434.753935,388.375049 434.452453,387.580869 C 434.101262,386.655742 433.720597,385.651943 433.313249,384.576677 C 432.860671,383.382018 432.375155,382.09914 431.860529,380.737924 C 431.287791,379.222998 430.678998,377.611043 430.039426,375.91568 C 429.370045,374.141299 428.666949,372.275553 427.936187,370.334058 C 427.166731,368.289759 426.366601,366.161476 425.54286,363.967439 C 424.703712,361.732367 423.840061,359.429059 422.959373,357.076785 C 422.091256,354.75809 421.206584,352.391818 420.312508,349.996426 C 419.424024,347.616017 418.526252,345.206852 417.62621,342.787044 C 416.785581,340.526972 415.942971,338.257616 415.104097,335.993734 C 414.284069,333.780713 413.467612,331.572924 412.660065,329.384152 C 405.011624,308.653845 398.162485,289.629441 396.64972,284.02331 m 0,0 C 396.639276,283.984607 396.628737,283.945822 396.618102,283.906954 C 393.083876,270.989724 379.034135,248.923192 377.40084,221.1573 m 0,0 C 375.76264,193.30787 377.81039,138.83764 377.19607,128.59888 m 0,0 C 376.58174,118.36011 376.58174,71.057023 377.19607,69.623596 m 0,0 C 377.81039,68.190169 377.60562,61.432584 380.06292,58.56573 m 0,0 C 382.52023,55.698876 385.1823,49.146067 384.97753,45.050562 m 0,0 C 384.77275,40.955056 382.725,36.654775 380.67725,33.583146 m 0,0 C 378.62949,30.511517 299.79101,33.378371 294.8764,33.173596 m 0,0 C 289.9618,32.96882 239.99663,34.402247 233.03427,33.378371 m 0,0 Z " id="path2758"/>
    <path style="fill:none;stroke:#000000;stroke-width:1px;stroke-linecap:butt;stroke-linejoin:miter;stroke-opacity:1" d="m 252.59031,53.753511  C 252.59031,53.753511 281.56601,51.091433 287.70927,50.78427 m 0,0 C 293.85253,50.477107 330.60969,51.500983 336.54817,52.012921 m 0,0 C 342.48666,52.52486 356.82093,53.343961 360.30211,54.163062 " id="path2760"/>
    <path style="fill:none;stroke:#000000;stroke-width:1px;stroke-linecap:butt;stroke-linejoin:miter;stroke-opacity:1" d="m 368.69789,34.607023  C 368.69789,34.607023 372.17907,41.364607 372.28146,44.845787 m 0,0 C 372.38385,48.326966 368.69789,54.367837 367.57163,55.698876 " id="path2762"/>
    <path style="fill:none;stroke:#000000;stroke-width:1px;stroke-linecap:butt;stroke-linejoin:miter;stroke-opacity:1" d="m 243.98975,37.473876  C 243.98975,37.473876 240.50857,41.057444 240.91812,44.743399 m 0,0 C 241.32767,48.429354 241.22528,51.603371 243.78497,53.343961 " id="path2764"/>
    <path style="fill:none;stroke:#000000;stroke-width:1px;stroke-linecap:butt;stroke-linejoin:miter;stroke-opacity:1" d="m 251.66882,62.354073  C 251.66882,62.354073 243.37542,60.920646 243.47781,63.275562 m 0,0 C 243.5802,65.630478 244.60407,87.848596 245.2184,96.75632 m 0,0 C 245.83273,105.66405 246.65183,148.97402 246.44705,154.0934 m 0,0 C 246.24228,159.21278 248.08525,206.3111 246.75421,214.19494 m 0,0 C 245.42317,222.07879 237.23216,259.04073 232.82949,268.05084 m 0,0 C 228.42683,277.06096 204.26334,341.87233 202.01081,348.22037 m 0,0 C 199.75829,354.5684 189.00758,385.1823 185.62879,393.37332 m 0,0 C 182.25,401.56433 170.6802,436.27374 167.09663,446.20534 m 0,0 C 163.51306,456.13694 146.31194,505.18062 142.11405,514.49789 m 0,0 C 137.91615,523.81517 127.47261,558.83174 125.83441,567.02275 m 0,0 C 124.19621,575.21376 119.99831,596.91994 123.47949,607.46587 m 0,0 C 126.96067,618.0118 131.56812,630.50309 149.69073,638.59171 m 0,0 C 167.81334,646.68034 199.6559,655.17851 218.7,655.99761 m 0,0 C 237.7441,656.81671 295.08118,659.06924 300.40534,658.96685 m 0,0 C 305.72949,658.86447 379.14143,657.43104 388.66348,653.94986 m 0,0 C 398.18553,650.46868 433.71405,653.23315 449.27697,648.31854 m 0,0 C 464.83989,643.40393 481.63146,631.11742 488.59382,620.4691 m 0,0 C 495.55618,609.82079 495.71592,597.5813 495.28152,589.97941 m 0,0 C 494.84713,582.37752 491.66158,555.37269 489.41721,549.14638 m 0,0 C 487.17284,542.92006 479.35375,517.87001 477.54377,513.88807 m 0,0 C 475.7338,509.90612 461.90559,475.08221 460.892,471.89665 m 0,0 C 459.87842,468.71109 444.96422,429.83283 443.66104,426.14048 m 0,0 C 442.35786,422.44814 415.42543,353.74149 413.54306,348.96316 m 0,0 C 411.66069,344.18482 381.9771,269.03467 381.39791,266.13871 m 0,0 C 380.81871,263.24275 370.82765,236.74471 369.66927,219.65855 m 0,0 C 368.51088,202.57239 368.94528,139.87486 369.23487,133.79334 m 0,0 C 369.52447,127.71183 368.22129,72.543793 368.36609,67.331065 " id="path2766"/>
    <path style="display:inline;fill:none;stroke:#000000;stroke-width:1px;stroke-linecap:butt;stroke-linejoin:miter;stroke-opacity:1" d="m 160.94058,671.98289  C 160.94058,671.98289 155.01489,668.59129 156.85787,665.72444 m 0,0 C 158.70084,662.85758 167.53822,662.01051 169.02443,661.89368 m 0,0 C 171.47144,661.70133 186.46546,660.46452 190.97051,660.25975 m 0,0 C 195.47557,660.05497 210.68076,660.43152 213.34284,660.43152 m 0,0 C 216.00491,660.43152 269.29192,661.81525 272.7731,661.81525 m 0,0 C 276.25428,661.81525 309.825,662.2972 316.99214,661.88765 m 0,0 C 324.15927,661.4781 397.89895,661.57321 403.42789,661.98275 m 0,0 C 408.95682,662.3923 435.80083,664.11532 439.69156,664.93442 m 0,0 C 443.58229,665.75352 450.26961,666.6326 449.96972,670.01867 m 0,0 C 449.7181,672.85974 447.84354,674.73453 445.18146,676.16796 " id="path2768" sodipodi:nodetypes="csssssssssc"/>
    <path style="display:inline;fill:none;stroke:#000000;stroke-width:1px;stroke-linecap:butt;stroke-linejoin:miter;stroke-opacity:1" d="m 258.03002,682.28813  C 258.03002,682.28813 318.42556,685.99719 338.28876,684.35899 m 0,0 C 358.15197,682.72079 413.3547,681.68236 422.16004,679.42983 m 0,0 C 430.96538,677.1773 441.60264,675.31668 440.57953,671.58413 m 0,0 C 439.51293,667.69297 421.61172,665.77589 415.67324,665.77589 m 0,0 C 409.73475,665.77589 369.4643,663.85236 365.98312,664.05713 " id="path2771" sodipodi:nodetypes="cssssc"/>
  </g>
</svg>