<svg xmlns:dc="http://purl.org/dc/elements/1.1/" xmlns:cc="http://creativecommons.org/ns#" xmlns:rdf="http://www.w3.org/1999/02/22-rdf-syntax-ns#" xmlns:svg="http://www.w3.org/2000/svg" xmlns="http://www.w3.org/2000/svg" xmlns:sodipodi="http://sodipodi.sourceforge.net/DTD/sodipodi-0.dtd" xmlns:inkscape="http://www.inkscape.org/namespaces/inkscape" version="1.1" id="svg833" width="220.28174" height="271.98315" viewBox="0 0 220.28174 271.98315" sodipodi:docname="appleWithoutBackground.svg" inkscape:version="1.0.2 (e86c870879, 2021-01-15, custom)">
  <metadata id="metadata839">
    <rdf:RDF>
      <cc:Work rdf:about="">
        <dc:format>image/svg+xml</dc:format>
        <dc:type rdf:resource="http://purl.org/dc/dcmitype/StillImage"/>
        <dc:title/>
      </cc:Work>
    </rdf:RDF>
  </metadata>
  <defs id="defs837"/>
  <sodipodi:namedview pagecolor="#ffffff" bordercolor="#666666" borderopacity="1" objecttolerance="10" gridtolerance="10" guidetolerance="10" inkscape:pageopacity="0" inkscape:pageshadow="2" inkscape:window-width="1849" inkscape:window-height="1057" id="namedview835" showgrid="false" inkscape:zoom="0.74069435" inkscape:cx="-166.91494" inkscape:cy="88.863331" inkscape:window-x="63" inkscape:window-y="-8" inkscape:window-maximized="1" inkscape:current-layer="layer2" fit-margin-top="0" fit-margin-left="0" fit-margin-right="0" fit-margin-bottom="0"/>
  <g inkscape:groupmode="layer" id="layer1" inkscape:label="vectorApple" style="display:inline" transform="translate(-188.14544,-11.900563)">
    <path style="fill:none;fill-opacity:1;stroke:#b42d2d;stroke-width:1px;stroke-linecap:butt;stroke-linejoin:miter;stroke-opacity:1" d="m 270.37027,75.596556  C 269.81883,75.67513 267.99178,75.94226 267.99178,75.94226 m 0,0 C 267.99178,75.94226 267.99029,75.94248 267.98733,75.94291 C 267.98126,75.9438 267.969,75.9456 267.95073,75.94829 C 267.92578,75.95196 267.88961,75.95728 267.84267,75.9642 C 267.78071,75.97333 267.69998,75.98525 267.6015,75.99983 C 267.48444,76.01715 267.34229,76.03823 267.17674,76.06286 C 266.98559,76.0913 266.76325,76.12446 266.51233,76.16202 C 266.23533,76.20349 265.92351,76.25032 265.58038,76.30208 C 265.2141,76.35733 264.81215,76.41819 264.3788,76.48413 C 263.92089,76.55381 263.42792,76.62916 262.90494,76.70955 C 262.3423,76.79604 261.74492,76.88837 261.11909,76.98575 C 252.86783,78.26971 239.67052,80.43238 235.92727,81.68012 m 0,0 C 235.88829,81.69311 235.84887,81.70651 235.80902,81.72031 C 235.75531,81.73891 235.70082,81.75823 235.64556,81.77827 C 235.55338,81.8117 235.45906,81.84711 235.36268,81.88445 C 235.25599,81.92578 235.14678,81.96947 235.03515,82.01544 C 234.88595,82.07688 234.73243,82.14239 234.57484,82.21178 C 234.38346,82.29605 234.18608,82.38604 233.98315,82.4814 C 233.7477,82.59203 233.50477,82.70989 233.25506,82.83444 C 232.95844,82.98239 232.65225,83.13977 232.33766,83.30568 C 231.99384,83.48701 231.63998,83.67852 231.27762,83.87903 C 230.87385,84.10245 230.45952,84.33704 230.03674,84.58116 C 223.47147,88.3721 214.86836,94.46099 212.13203,96.69981 m 0,0 C 212.1079,96.71955 212.08359,96.73964 212.0591,96.76007 C 211.99922,96.81002 211.93828,96.862 211.87633,96.91596 C 211.7906,96.99063 211.70293,97.0691 211.61341,97.15124 C 211.50451,97.25116 211.39287,97.35651 211.27865,97.46708 C 211.14384,97.59758 211.00545,97.73535 210.86375,97.88002 C 210.70674,98.04032 210.54566,98.2091 210.3809,98.38586 C 210.18805,98.59275 209.99015,98.81058 209.78781,99.03856 C 209.55653,99.29914 209.31944,99.57298 209.07744,99.8589 C 208.82321,100.15927 208.56356,100.47297 208.29954,100.79864 C 208.03281,101.12765 207.76162,101.46887 207.48704,101.8209 C 203.75318,106.60801 199.39277,113.39371 197.11234,118.63868 m 0,0 C 197.0904,118.68914 197.0684,118.74018 197.04633,118.79179 C 196.99743,118.90616 196.94822,119.02333 196.89872,119.1432 C 196.82134,119.33058 196.74326,119.52457 196.66455,119.72481 C 196.55588,120.00125 196.44601,120.2896 196.33512,120.58894 C 196.20803,120.93202 196.0796,121.28953 195.95011,121.66008 C 195.80136,122.08577 195.65121,122.52866 195.5001,122.98664 C 195.33557,123.48529 195.1699,124.00183 195.00364,124.53352 C 194.8296,125.09007 194.65492,125.66322 194.48022,126.24983 C 194.29721,126.86435 194.11419,127.49365 193.93188,128.13412 C 193.74282,128.7983 193.55453,129.4745 193.36782,130.15869 C 190.94324,139.04359 188.78539,149.27654 188.67432,152.05327 m 0,0 C 188.6728,152.09124 188.67134,152.13137 188.66993,152.17363 C 188.66706,152.25971 188.66443,152.35462 188.66207,152.45809 C 188.659,152.59258 188.65638,152.74152 188.65426,152.90431 C 188.65156,153.11173 188.64967,153.34164 188.6487,153.59279 C 188.64758,153.88529 188.64771,154.2066 188.64928,154.55477 C 188.65106,154.9504 188.6547,155.3807 188.66045,155.8428 C 188.66673,156.34688 188.67553,156.8888 188.68719,157.46482 C 188.69994,158.09489 188.71611,158.76576 188.73615,159.47254 C 188.75703,160.20889 188.78211,160.98421 188.81189,161.79297 C 188.84199,162.61039 188.8769,163.46197 188.91714,164.342 C 189.43572,175.68457 190.83914,191.75323 194.24341,200.31879 m 0,0 C 194.28003,200.41093 194.31705,200.50375 194.35446,200.59724 C 194.40487,200.72323 194.456,200.85043 194.50782,200.97881 C 194.59427,201.19297 194.68266,201.41041 194.77293,201.631 C 194.88951,201.91589 195.00922,202.20603 195.13193,202.50112 C 195.28638,202.87255 195.44558,203.25183 195.60925,203.63836 C 195.82159,204.13982 196.04146,204.65349 196.26826,205.17808 C 196.52334,205.76807 196.78719,206.37188 197.05897,206.98767 C 197.36273,207.67591 197.6764,208.37912 197.99881,209.09473 C 198.34609,209.86555 198.7035,210.65076 199.06957,211.44716 C 199.45894,212.29423 199.85811,213.15396 200.26531,214.0225 C 206.37323,227.05054 214.28786,242.06013 218.03865,246.05291 m 0,0 C 218.08573,246.10303 218.13372,246.15422 218.18259,246.20645 C 218.28215,246.31285 218.3854,246.4236 218.49222,246.53852 C 218.6339,246.69094 218.78186,246.85071 218.93584,247.01742 C 219.09798,247.19297 219.26679,247.37622 219.44195,247.56672 C 219.65341,247.7967 219.87413,248.03724 220.10356,248.28753 C 220.36833,248.57637 220.64469,248.8782 220.9318,249.19178 C 221.26599,249.55679 221.61474,249.93771 221.97671,250.33259 C 222.38859,250.78192 222.81758,251.24932 223.26171,251.73191 C 223.72697,252.23745 224.20884,252.75966 224.70505,253.29523 C 225.20884,253.83897 225.72741,254.39648 226.25838,254.96428 C 233.31273,262.50797 242.55667,271.86885 248.41556,274.91097 m 0,0 C 248.47699,274.94287 248.53823,274.9745 248.59928,275.00587 C 248.7032,275.05927 248.80657,275.11191 248.90939,275.1638 C 249.06601,275.24283 249.22136,275.32012 249.37544,275.3957 C 249.58798,275.49995 249.79811,275.60095 250.00585,275.69879 C 250.25877,275.81791 250.50814,275.93234 250.75399,276.04225 C 251.02844,276.16495 251.29851,276.28201 251.56423,276.39366 C 251.86432,276.51975 252.15887,276.63893 252.44793,276.75154 C 252.73997,276.86531 253.02641,276.97236 253.30731,277.07304 C 253.61259,277.18245 253.91133,277.28433 254.2036,277.37911 C 254.51172,277.47903 254.81265,277.57106 255.10648,277.6557 C 259.79282,279.00566 262.67355,278.4766 264.11029,278.11742 m 0,0 C 264.12852,278.11286 264.14669,278.1082 264.1648,278.10344 C 264.20169,278.09373 264.23834,278.0836 264.27477,278.07306 C 264.32212,278.05936 264.36908,278.04497 264.41567,278.02993 C 264.47596,278.01046 264.53563,277.98991 264.59473,277.96836 C 264.66334,277.94334 264.73117,277.91697 264.79829,277.8894 C 264.87437,277.85815 264.94953,277.82535 265.02386,277.79121 C 265.1048,277.75404 265.18476,277.71527 265.26386,277.67518 C 265.35022,277.6314 265.43556,277.58604 265.52003,277.53944 C 265.60726,277.49131 265.69356,277.44186 265.7791,277.39146 C 265.86916,277.3384 265.95838,277.28429 266.04696,277.22958 C 267.13947,276.55478 268.1345,275.78754 269.40515,275.75477 m 0,0 C 269.42745,275.75419 269.44966,275.75366 269.47178,275.75318 C 269.5157,275.75223 269.55927,275.75148 269.6025,275.75093 C 269.66339,275.75015 269.7236,275.74976 269.78317,275.74977 C 269.86344,275.74978 269.94254,275.75051 270.02057,275.75197 C 270.11992,275.75383 270.21753,275.75687 270.31361,275.76112 C 270.43067,275.76629 270.54544,275.77325 270.65828,275.78204 C 270.78137,275.79163 270.90217,275.8034 271.02112,275.8174 C 271.15015,275.83259 271.27702,275.8504 271.4023,275.87091 C 271.533,275.8923 271.66197,275.91663 271.78988,275.94396 C 271.92564,275.97297 272.0602,276.00537 272.19435,276.04125 C 273.84888,276.48378 275.44135,277.45577 278.45494,279.12998 m 0,0 C 278.48456,279.14643 278.51399,279.16286 278.54324,279.17927 C 278.60583,279.21439 278.66758,279.24941 278.72852,279.28432 C 278.8165,279.33472 278.90278,279.3849 278.98744,279.43485 C 279.10676,279.50526 279.22285,279.5752 279.33591,279.64463 C 279.47725,279.73143 279.61385,279.81744 279.74611,279.90257 C 279.90515,280.00494 280.0579,280.10604 280.20503,280.20573 C 280.36288,280.31268 280.51427,280.41801 280.66003,280.52154 C 280.81347,280.63052 280.96067,280.73751 281.10261,280.8423 C 281.25069,280.95162 281.39305,281.05854 281.53079,281.16284 C 281.66918,281.26763 281.80291,281.36977 281.9331,281.46902 C 283.63658,282.76765 284.73373,283.57146 287.73677,283.34899 m 0,0 C 287.76639,283.3468 287.79593,283.34466 287.82539,283.34258 C 287.88843,283.33813 287.95112,283.33393 288.01346,283.32997 C 288.10347,283.32425 288.19276,283.31902 288.28135,283.31424 C 288.3914,283.30831 288.50038,283.30307 288.60833,283.29843 C 288.73976,283.29278 288.86968,283.28802 288.99817,283.28398 C 289.14161,283.27947 289.28326,283.27586 289.42326,283.27292 C 289.58136,283.2696 289.73735,283.26714 289.89141,283.2652 C 290.04706,283.26324 290.20074,283.26182 290.35263,283.26059 C 290.52393,283.2592 290.69296,283.25806 290.85999,283.25668 C 291.04509,283.25515 291.22773,283.25332 291.40827,283.25052 C 294.02674,283.20986 296.20322,282.96551 299.04373,280.48006 m 0,0 C 299.07208,280.45525 299.10059,280.43035 299.12925,280.40536 C 299.19431,280.34865 299.26016,280.29148 299.32678,280.23388 C 299.41896,280.15418 299.5126,280.07366 299.60761,279.9924 C 299.7108,279.90415 299.81562,279.81502 299.92195,279.72512 C 300.06086,279.60767 300.20235,279.4889 300.34618,279.36902 C 300.52461,279.2203 300.70663,279.06989 300.89177,278.91821 C 301.09573,278.75111 301.30348,278.58246 301.51439,278.41283 C 301.72296,278.24508 301.93462,278.07637 302.14876,277.90724 C 302.37553,277.72813 302.60509,277.54855 302.83671,277.36915 C 303.08728,277.17507 303.34027,276.9812 303.59476,276.78836 C 307.19618,274.05932 311.09826,271.53575 312.71333,271.53575 m 0,0 C 312.72987,271.53575 312.74642,271.53573 312.76298,271.5357 C 312.79703,271.53563 312.83112,271.5355 312.86525,271.53531 C 312.91396,271.53503 312.96274,271.53463 313.0116,271.53413 C 313.07083,271.53352 313.13017,271.53276 313.18964,271.53188 C 313.26205,271.53081 313.33464,271.52956 313.40743,271.5282 C 313.48327,271.52678 313.55933,271.52524 313.63563,271.52364 C 313.72293,271.52181 313.81053,271.51991 313.89846,271.51804 C 314.00102,271.51586 314.10403,271.51373 314.20753,271.5118 C 314.31748,271.50975 314.42798,271.50794 314.53907,271.50656 C 314.65965,271.50506 314.78093,271.50407 314.90297,271.50384 C 316.65852,271.50056 318.57104,271.65469 320.81384,272.71708 m 0,0 C 320.83468,272.72695 320.85542,272.73688 320.87605,272.74687 C 320.91231,272.76442 320.94825,272.78215 320.98387,272.80004 C 321.04511,272.8308 321.10542,272.86206 321.16486,272.89379 C 321.2333,272.93033 321.30058,272.96749 321.36678,273.00524 C 321.4548,273.05544 321.54091,273.10667 321.62529,273.15885 C 321.73122,273.22436 321.83444,273.29136 321.93531,273.35966 C 322.04714,273.43538 322.15608,273.51271 322.26265,273.5914 C 322.36939,273.67022 322.47374,273.7504 322.57622,273.8317 C 322.68605,273.91883 322.79373,274.00724 322.89988,274.09663 C 323.00349,274.18388 323.10565,274.27206 323.20694,274.36089 C 324.8225,275.7776 326.21706,277.35846 329.75815,277.94866 m 0,0 C 329.79359,277.95457 329.82936,277.96021 329.86546,277.96559 C 329.91411,277.97284 329.96335,277.97961 330.01317,277.98591 C 330.10667,277.99774 330.20221,278.0079 330.29973,278.01644 C 330.41145,278.02622 330.52576,278.03386 330.64255,278.03942 C 330.78956,278.04642 330.94049,278.05011 331.09513,278.0506 C 331.29018,278.05122 331.49112,278.04674 331.69751,278.03737 C 331.93366,278.02664 332.17695,278.00951 332.42671,277.98627 C 332.70648,277.96024 332.99437,277.92656 333.28943,277.88564 C 333.60781,277.84149 333.93455,277.78892 334.26847,277.72847 C 334.62992,277.66304 334.99978,277.58837 335.37656,277.50515 C 340.98044,276.2674 348.11483,273.13739 351.86579,270.35443 m 0,0 C 351.8998,270.3292 351.93418,270.30361 351.96894,270.27767 C 352.04862,270.2182 352.13026,270.15688 352.2138,270.09376 C 352.33174,270.00465 352.45346,269.91195 352.57877,269.81582 C 352.74131,269.69113 352.9099,269.56065 353.08414,269.42471 C 353.28905,269.26484 353.50178,269.09742 353.72169,268.92297 C 353.98016,268.71793 354.24855,268.50318 354.52582,268.27957 C 354.8452,268.022 355.17635,267.75268 355.51768,267.47291 C 355.86424,267.18885 356.22129,266.89402 356.58717,266.58978 C 356.98778,266.25667 357.39897,265.91227 357.81856,265.55838 C 358.27172,265.17618 358.73467,264.7829 359.20466,264.3808 C 365.26237,259.1982 372.48953,252.55015 374.98598,249.25936 m 0,0 C 375.01197,249.2251 375.0386,249.18997 375.06585,249.15397 C 375.11804,249.08502 375.17254,249.01289 375.22928,248.93765 C 375.3122,248.82768 375.3999,248.71106 375.49219,248.58799 C 375.60525,248.43723 375.72519,248.27678 375.85166,248.10702 C 376.00703,247.89848 376.17225,247.67589 376.34665,247.43994 C 376.53433,247.18603 376.73264,246.91665 376.94076,246.63267 C 377.17889,246.30774 377.42986,245.96369 377.69242,245.60181 C 377.98653,245.19644 378.29519,244.7687 378.61665,244.3204 C 378.97613,243.81909 379.35162,243.29207 379.74067,242.74189 C 380.16869,242.1366 380.61312,241.50327 381.07072,240.84528 C 387.49425,231.60868 396.51125,217.51336 399.11874,207.91302 m 0,0 C 399.14473,207.81733 399.17081,207.72126 399.19698,207.62482 C 399.23039,207.50169 399.26394,207.37795 399.29763,207.25362 C 399.35328,207.04827 399.4093,206.8413 399.46568,206.63277 C 399.55268,206.31098 399.64051,205.98549 399.72909,205.65654 C 399.84687,205.21914 399.96597,204.77563 400.08616,204.32658 C 400.23704,203.76285 400.38965,203.19039 400.54354,202.61033 C 400.71415,201.96726 400.88634,201.31486 401.05952,200.65466 C 401.23469,199.98687 401.41087,199.3111 401.58745,198.62895 C 401.77638,197.89908 401.96576,197.16191 402.15484,196.41939 C 402.35475,195.63437 402.55432,194.84337 402.75267,194.0487 C 405.62944,182.52283 408.24848,170.22503 407.89429,164.20403 m 0,0 C 407.891,164.14809 407.8877,164.09164 407.88439,164.03469 C 407.87706,163.90847 407.86969,163.7798 407.86228,163.64874 C 407.85195,163.46613 407.84153,163.27888 407.83099,163.08718 C 407.81664,162.82613 407.80207,162.55681 407.78721,162.27969 C 407.76949,161.94906 407.75137,161.60732 407.73274,161.25525 C 407.71014,160.82814 407.6868,160.38582 407.66252,159.92969 C 407.63588,159.42921 407.60812,158.91209 407.57899,158.38018 C 407.54805,157.81512 407.51556,157.23336 407.48123,156.6371 C 407.44511,156.00981 407.40695,155.36647 407.3664,154.70964 C 407.32418,154.02581 407.27938,153.32736 407.2316,152.61719 C 406.59674,143.18201 405.43592,131.67701 402.83148,124.88282 m 0,0 C 402.79655,124.79169 402.76099,124.70012 402.72481,124.60813 C 402.65111,124.42073 402.57484,124.23156 402.49607,124.04072 C 402.3916,123.7876 402.28275,123.53153 402.1697,123.27273 C 402.03743,122.96993 401.89941,122.6634 401.75594,122.35348 C 401.58662,121.98772 401.40971,121.61725 401.22569,121.24263 C 401.03624,120.85696 400.83926,120.46691 400.63527,120.07309 C 400.39651,119.61215 400.14816,119.14605 399.89106,118.67581 C 399.5972,118.13832 399.29191,117.59541 398.97647,117.04858 C 398.64508,116.47412 398.30249,115.89534 397.95016,115.31397 C 397.60981,114.75237 397.26037,114.18836 396.90317,113.62351 C 391.80688,105.56476 385.13057,97.33511 380.72384,93.49336 m 0,0 C 380.68106,93.45606 380.63779,93.41857 380.59404,93.38089 C 380.49374,93.29451 380.39091,93.20713 380.28559,93.1188 C 380.1369,92.9941 379.98324,92.8675 379.82473,92.73913 C 379.61552,92.5697 379.39786,92.39719 379.17201,92.22187 C 378.90355,92.01347 378.62352,91.8011 378.33235,91.58523 C 377.99615,91.33597 377.6451,91.08204 377.27987,90.82416 C 376.88079,90.54238 376.46479,90.25588 376.03274,89.9656 C 375.5496,89.64099 375.04639,89.31166 374.52434,88.97891 C 373.95864,88.61834 373.37082,88.25376 372.76244,87.88684 C 372.11145,87.49423 371.43692,87.09894 370.74076,86.70302 C 362.15475,81.81998 350.2789,76.84107 338.70246,75.60474 m 0,0 C 338.58947,75.59267 338.47634,75.58063 338.36308,75.56862 C 338.12071,75.54291 337.87771,75.51732 337.63411,75.49185 C 337.2824,75.45508 336.92943,75.41857 336.57528,75.38233 C 336.19455,75.34337 335.81246,75.30473 335.42912,75.26642 C 334.91284,75.21482 334.39429,75.16382 333.87372,75.11347 C 333.2147,75.04972 332.55244,74.98701 331.88745,74.92542 C 331.14699,74.85684 330.40315,74.78964 329.65665,74.72395 C 328.809,74.64936 327.95792,74.57671 327.10444,74.50618 C 326.21243,74.43246 325.31781,74.36106 324.42176,74.29217 C 323.49315,74.22077 322.56301,74.15207 321.63266,74.08629 C 308.98124,73.19176 296.29138,72.83704 286.89297,73.57961 m 0,0 C 284.16177,73.79541 281.59215,73.99445 281.27642,73.98279 " id="path846" sodipodi:nodetypes="ccsssssssssssssssssssssssc"/>
    <path style="fill:none;stroke:#b42d2d;stroke-width:1px;stroke-linecap:butt;stroke-linejoin:miter;stroke-opacity:1" d="m 252.50597,86.27685  C 252.50597,86.27685 252.50655,86.27729 252.50772,86.27817 C 252.50921,86.2793 252.51165,86.28114 252.51503,86.28368 C 252.5208,86.28802 252.52932,86.2944 252.54055,86.30275 C 252.55518,86.31362 252.57441,86.32784 252.59819,86.34526 C 252.62887,86.36773 252.66711,86.39553 252.71277,86.42834 C 252.76954,86.46913 252.83779,86.51767 252.91725,86.57335 C 253.01288,86.64035 253.12475,86.71769 253.2524,86.80431 C 253.40155,86.90552 253.57225,87.01941 253.76377,87.14429 C 253.9677,87.27726 254.19524,87.42269 254.4455,87.57855 C 254.71093,87.74386 255.00193,87.9209 255.31744,88.10725 C 259.74644,90.72317 269.00599,95.17307 280.19093,94.7494 m 0,0 C 280.30119,94.74522 280.41154,94.74101 280.52197,94.73677 C 280.74129,94.72836 280.96094,94.71983 281.18088,94.71118 C 281.49069,94.699 281.80108,94.68658 282.11196,94.67391 C 282.53086,94.65684 282.95065,94.63932 283.37108,94.62133 C 283.87659,94.5997 284.38304,94.57739 284.89001,94.55436 C 285.48057,94.52753 286.07184,94.49973 286.66317,94.47089 C 287.32016,94.43885 287.97722,94.40553 288.63346,94.37085 C 289.36381,94.33225 290.09314,94.29197 290.82022,94.24989 C 291.58119,94.20584 292.3397,94.15982 293.09434,94.1117 C 293.88894,94.06103 294.67925,94.00803 295.46363,93.95255 C 306.04704,93.20394 315.54976,92.00328 319.9284,89.97613 m 0,0 C 319.97351,89.95525 320.01855,89.9343 320.06352,89.91328 C 320.14007,89.87749 320.21641,89.84151 320.29254,89.80534 C 320.4085,89.75024 320.52398,89.6947 320.63897,89.63874 C 320.76403,89.57788 320.88851,89.51653 321.0124,89.45472 C 321.17222,89.37499 321.33105,89.2945 321.48886,89.21333 C 321.65663,89.12704 321.82325,89.03998 321.98869,88.95224 C 327.43128,86.06577 331.59302,82.44707 333.29356,81.38424 " id="path848" sodipodi:nodetypes="cssc"/>
  </g>
  <g inkscape:groupmode="layer" id="layer2" inkscape:label="vectorVetka" style="display:inline" transform="translate(-188.14544,-11.900563)">
    <path style="fill:none;fill-opacity:1;stroke:#5e3a2a;stroke-width:1px;stroke-linecap:butt;stroke-linejoin:miter;stroke-opacity:1" d="m 286.55544,94.463728  C 284.69881,88.08928 282.68565,83.87972 277.12691,75.81782 m 0,0 C 268.4014,63.07588 260.15001,54.14951 259.72251,52.65329 m 0,0 C 259.04746,50.29065 257.46055,47.53275 256.3473,47.92799 m 0,0 C 254.33066,48.64398 246.21494,50.87706 248.40883,54.92731 m 0,0 C 250.60272,58.97756 254.98874,57.22854 254.98874,57.22854 m 0,0 C 254.98874,57.22854 273.72964,74.97187 280.48006,94.71686 " id="path851" sodipodi:nodetypes="ccssscc"/>
  </g>
  <g inkscape:groupmode="layer" id="layer3" inkscape:label="vectorListok" style="display:inline" transform="translate(-188.14544,-11.900563)">
    <path style="fill:none;fill-opacity:1;stroke:#2f7029;stroke-width:1px;stroke-linecap:butt;stroke-linejoin:miter;stroke-opacity:1" d="m 275.92482,74.194511  C 275.50716,74.16468 274.46301,75.11933 275.23866,76.43198 m 0,0 C 276.01432,77.74463 276.61098,78.52029 277.77446,77.89379 m 0,0 C 278.93795,77.2673 287.17467,66.30223 288.3272,66.32311 m 0,0 C 289.60853,66.34632 298.26969,67.95942 307.21957,67.3031 m 0,0 C 316.16945,66.64678 328.46062,64.8568 333.65155,62.17184 m 0,0 C 338.84248,59.48688 351.43198,53.10263 355.60859,49.04535 m 0,0 C 359.7852,44.98807 372.91169,30.31027 374.10501,27.68497 m 0,0 C 375.29833,25.05967 376.99881,21.24106 376.87948,20.40573 m 0,0 C 376.76015,19.57041 374.70167,18.0191 372.43437,17.18377 m 0,0 C 370.16706,16.34845 359.66587,12.17184 351.43198,12.4105 m 0,0 C 343.19809,12.64916 336.39618,13.12649 329.95227,15.27446 m 0,0 C 323.50835,17.42243 312.64917,22.1957 305.13127,29.23627 m 0,0 C 297.61337,36.27684 293.43675,39.97613 290.69212,44.98806 m 0,0 C 287.94749,49.99999 286.39618,57.75656 286.03819,60.62052 m 0,0 C 285.68019,63.48448 286.92294,63.76534 285.25229,65.19732 m 0,0 C 283.58165,66.6293 277.14797,73.80668 275.92482,74.19451 m 0,0 Z " id="path853"/>
    <path style="fill:none;stroke:#2f7029;stroke-width:1px;stroke-linecap:butt;stroke-linejoin:miter;stroke-opacity:1" d="m 288.18616,63.245823  C 288.18616,63.24582 311.69451,47.01671 319.80907,44.27208 m 0,0 C 327.92363,41.52745 366.22912,22.31504 368.49642,21.59905 " id="path881"/>
  </g>
</svg>