<svg xmlns:dc="http://purl.org/dc/elements/1.1/" xmlns:cc="http://creativecommons.org/ns#" xmlns:rdf="http://www.w3.org/1999/02/22-rdf-syntax-ns#" xmlns:svg="http://www.w3.org/2000/svg" xmlns="http://www.w3.org/2000/svg" xmlns:sodipodi="http://sodipodi.sourceforge.net/DTD/sodipodi-0.dtd" xmlns:inkscape="http://www.inkscape.org/namespaces/inkscape" version="1.1" id="svg833" width="220.28174" height="271.98315" viewBox="0 0 220.28174 271.98315" sodipodi:docname="appleWithoutBackground.svg" inkscape:version="1.0.2 (e86c870879, 2021-01-15, custom)">
  <metadata id="metadata839">
    <rdf:RDF>
      <cc:Work rdf:about="">
        <dc:format>image/svg+xml</dc:format>
        <dc:type rdf:resource="http://purl.org/dc/dcmitype/StillImage"/>
        <dc:title/>
      </cc:Work>
    </rdf:RDF>
  </metadata>
  <defs id="defs837"/>
  <sodipodi:namedview pagecolor="#ffffff" bordercolor="#666666" borderopacity="1" objecttolerance="10" gridtolerance="10" guidetolerance="10" inkscape:pageopacity="0" inkscape:pageshadow="2" inkscape:window-width="1849" inkscape:window-height="1057" id="namedview835" showgrid="false" inkscape:zoom="0.74069435" inkscape:cx="-166.91494" inkscape:cy="88.863331" inkscape:window-x="63" inkscape:window-y="-8" inkscape:window-maximized="1" inkscape:current-layer="layer2" fit-margin-top="0" fit-margin-left="0" fit-margin-right="0" fit-margin-bottom="0"/>
  <g inkscape:groupmode="layer" id="layer1" inkscape:label="vectorApple" style="display:inline" transform="translate(-188.14544,-11.900563)">
    <path style="fill:none;fill-opacity:1;stroke:#b42d2d;stroke-width:1px;stroke-linecap:butt;stroke-linejoin:miter;stroke-opacity:1" d="m 270.37027,75.596556  C 269.81883,75.67513 267.99178,75.94226 267.99178,75.94226 m 0,0 C 267.99178,75.94226 267.99029,75.94248 267.98733,75.94291 C 267.98126,75.9438 267.969,75.9456 267.95073,75.94829 C 267.92578,75.95196 267.88961,75.95728 267.84267,75.9642 C 267.78071,75.97333 267.69998,75.98525 267.6015,75.99983 C 267.48444,76.01715 267.34229,76.03823 267.17674,76.06286 C 266.98559,76.0913 266.76325,76.12446 266.51233,76.16202 C 266.23533,76.20349 265.92351,76.25032 265.58038,76.30208 C 265.2141,76.35733 264.81215,76.41819 264.3788,76.48413 C 263.92089,76.55381 263.42792,76.62916 262.90494,76.70955 C 262.3423,76.79604 261.74492,76.88837 261.11909,76.98575 C 260.48374,77.08461 259.81907,77.18869 259.13165,77.29716 C 258.47656,77.40052 257.80081,77.50787 257.11008,77.6185 C 256.42228,77.72866 255.71964,77.84207 255.00777,77.95804 C 254.34199,78.0665 253.66814,78.17719 252.99081,78.28954 C 252.32746,78.39957 251.66078,78.51119 250.99508,78.62387 C 244.61632,79.70353 238.32779,80.87997 235.92727,81.68012 m 0,0 C 235.89107,81.69219 235.85449,81.70461 235.81754,81.71737 C 235.74695,81.74175 235.675,81.76739 235.60172,81.79426 C 235.48015,81.83884 235.35495,81.88681 235.22628,81.93803 C 235.06132,82.00369 234.89067,82.0747 234.71469,82.15077 C 234.48753,82.24896 234.25149,82.35559 234.00735,82.47004 C 233.73345,82.59844 233.44936,82.73669 233.15618,82.88393 C 232.81271,83.05643 232.45676,83.24127 232.09011,83.43707 C 231.69908,83.64589 231.29588,83.86717 230.88266,84.09924 C 230.45704,84.33828 230.02079,84.58876 229.57627,84.84886 C 229.12119,85.11513 228.65744,85.39148 228.18755,85.67594 C 227.71934,85.95938 227.24503,86.25088 226.76712,86.54849 C 226.27495,86.85497 225.77897,87.16793 225.2819,87.48525 C 224.77451,87.80916 224.26598,88.13761 223.75922,88.46833 C 223.26747,88.78926 222.77739,89.11234 222.29163,89.4355 C 221.83222,89.74113 221.37668,90.04683 220.92725,90.35086 C 217.0759,92.95623 213.67329,95.43878 212.13203,96.69981 m 0,0 C 212.1079,96.71955 212.08359,96.73964 212.0591,96.76007 C 212.00483,96.80534 211.9497,96.85228 211.89373,96.90085 C 211.80624,96.97677 211.7167,97.05668 211.62521,97.14044 C 211.49891,97.25608 211.3689,97.37906 211.23544,97.50905 C 211.08248,97.65803 210.925,97.81621 210.76339,97.98307 C 210.57773,98.17476 210.38662,98.3779 210.19066,98.59171 C 209.9773,98.82451 209.75819,99.06995 209.53411,99.32702 C 209.29956,99.59612 209.05956,99.87796 208.81501,100.17138 C 208.55882,100.47876 208.29763,100.79884 208.03247,101.13029 C 207.75749,101.47401 207.47824,101.82996 207.19586,102.19664 C 206.9025,102.57757 206.60576,102.97008 206.30692,103.3725 C 205.99934,103.78669 205.68953,104.21137 205.3789,104.64472 C 205.07711,105.06574 204.77454,105.49494 204.47247,105.93065 C 204.17779,106.3557 203.88358,106.78694 203.59104,107.22282 C 203.31207,107.63847 203.03462,108.05834 202.75971,108.48108 C 200.52405,111.91897 198.45675,115.54657 197.11234,118.63868 m 0,0 C 197.08703,118.6969 197.06163,118.75589 197.03615,118.81564 C 196.98894,118.92633 196.94145,119.03962 196.89369,119.15542 C 196.81969,119.33484 196.74504,119.52029 196.66981,119.71146 C 196.5745,119.95367 196.47826,120.20506 196.38122,120.46501 C 196.26875,120.76628 196.1552,121.07905 196.04077,121.40234 C 195.9091,121.77434 195.77626,122.16027 195.64255,122.55864 C 195.50633,122.96447 195.36921,123.38321 195.23151,123.81329 C 195.07981,124.28709 194.9274,124.77466 194.77471,125.27389 C 194.61492,125.79633 194.45482,126.33155 194.2949,126.87713 C 194.12705,127.44976 193.95939,128.03381 193.79249,128.62649 C 193.61236,129.26615 193.43312,129.91586 193.25547,130.57212 C 193.07589,131.23549 192.89794,131.90556 192.72235,132.57871 C 192.54496,133.25873 192.36998,133.9419 192.19816,134.62448 C 192.02809,135.30009 191.86111,135.97513 191.69796,136.64598 C 191.53764,137.30519 191.38102,137.96036 191.22878,138.60806 C 189.79521,144.70719 188.75071,150.14359 188.67432,152.05327 m 0,0 C 188.6728,152.09124 188.67134,152.13137 188.66993,152.17363 C 188.66706,152.25971 188.66443,152.35462 188.66207,152.45809 C 188.65894,152.59532 188.65627,152.7476 188.65412,152.91429 C 188.65186,153.08982 188.65018,153.28133 188.64915,153.48807 C 188.6479,153.73765 188.6476,154.00944 188.64836,154.30212 C 188.64924,154.63988 188.65154,155.00546 188.65544,155.39685 C 188.65998,155.85243 188.66668,156.34297 188.67584,156.8653 C 188.68627,157.45965 188.69988,158.09516 188.7171,158.76715 C 188.73514,159.4711 188.75714,160.21508 188.78359,160.99371 C 188.81045,161.78424 188.8419,162.61048 188.87845,163.4668 C 188.9156,164.33713 188.95802,165.23854 189.00625,166.16511 C 189.05371,167.07672 189.10679,168.01269 189.16601,168.96738 C 189.22474,169.9142 189.28951,170.87944 189.36082,171.8576 C 189.4314,172.82571 189.50839,173.80648 189.59227,174.79458 C 189.6733,175.74915 189.76077,176.71057 189.85511,177.67403 C 190.68565,186.15623 192.04874,194.79672 194.24341,200.31879 m 0,0 C 194.27218,200.39119 194.3012,200.46401 194.33046,200.53724 C 194.39395,200.69614 194.45858,200.85698 194.52433,201.0197 C 194.60282,201.21396 194.6829,201.41091 194.76452,201.61044 C 194.88101,201.89522 195.00064,202.18526 195.12327,202.48027 C 195.27762,202.8516 195.43673,203.23079 195.60032,203.61725 C 195.8096,204.11166 196.02622,204.61797 196.24961,205.13495 C 196.52273,205.76701 196.80597,206.41501 197.09828,207.07669 C 197.41466,207.79285 197.74167,208.52503 198.078,209.27036 C 198.44725,210.08863 198.82772,210.92275 199.21768,211.76893 C 199.62506,212.65291 200.04279,213.55005 200.46888,214.45602 C 200.90962,215.39312 201.3593,216.33967 201.81573,217.29088 C 202.27703,218.25222 202.74522,219.21832 203.21803,220.18423 C 203.69758,221.16392 204.18188,222.14341 204.66857,223.11754 C 205.14356,224.06826 205.62082,225.01388 206.09814,225.9496 C 206.57064,226.87587 207.04321,227.79244 207.51371,228.69466 C 211.67863,236.6813 215.68113,243.54328 218.03865,246.05291 m 0,0 C 218.07527,246.09189 218.11244,246.13152 218.15015,246.17178 C 218.22503,246.25175 218.30204,246.33422 218.38113,246.41913 C 218.49253,246.53873 218.60805,246.66315 218.72755,246.7922 C 218.88858,246.96609 219.05684,247.14838 219.23198,247.33856 C 219.45495,247.58067 219.68908,247.83557 219.93365,248.10223 C 220.23163,248.42713 220.54512,248.76947 220.87283,249.12739 C 221.23031,249.51783 221.60472,249.9268 221.99438,250.35188 C 222.41706,250.81297 222.85769,251.29301 223.31414,251.78889 C 223.79033,252.30621 224.28374,252.84077 224.79196,253.38904 C 225.33137,253.97096 225.88745,254.56832 226.45732,255.17692 C 227.02662,255.78491 227.60968,256.40411 228.20362,257.03031 C 228.79999,257.65907 229.40734,258.2949 230.02274,258.93354 C 230.62488,259.55841 231.23473,260.18597 231.84956,260.81223 C 232.45869,261.43269 233.07271,262.05188 233.68896,262.66592 C 234.28625,263.26106 234.88564,263.85136 235.48471,264.4333 C 240.21071,269.02414 244.91673,273.09428 248.41556,274.91097 m 0,0 C 248.50332,274.95654 248.59069,275.00157 248.67767,275.04606 C 248.81545,275.11653 248.95226,275.18566 249.0881,275.25348 C 249.27189,275.34523 249.45391,275.43457 249.63417,275.52156 C 249.86255,275.63177 250.0881,275.7382 250.31084,275.84096 C 250.5652,275.9583 250.8159,276.07086 251.06297,276.17881 C 251.34453,276.30183 251.62138,276.41887 251.89356,276.53017 C 252.20463,276.65737 252.5096,276.77708 252.80854,276.88968 C 253.13283,277.01183 253.45003,277.12561 253.76021,277.2315 C 254.08398,277.34203 254.40011,277.44397 254.7087,277.53786 C 255.03107,277.63595 255.34521,277.72526 255.65123,277.80642 C 255.95903,277.88805 256.25862,277.96143 256.5501,278.0272 C 256.84601,278.09397 257.13357,278.15289 257.4129,278.20463 C 257.67909,278.25394 257.9378,278.29673 258.18913,278.33357 C 258.44522,278.37111 258.69365,278.40248 258.93453,278.42829 C 259.17793,278.45437 259.41361,278.47477 259.6417,278.49012 C 261.75296,278.63222 263.21314,278.3417 264.11029,278.11742 m 0,0 C 264.12447,278.11388 264.13861,278.11027 264.15272,278.1066 C 264.18474,278.09827 264.21658,278.08962 264.24824,278.08066 C 264.29205,278.06826 264.33553,278.05526 264.37869,278.0417 C 264.42557,278.02697 264.47208,278.01158 264.51823,277.99557 C 264.57852,277.97465 264.63821,277.95267 264.69733,277.92972 C 264.77067,277.90125 264.84314,277.87129 264.91482,277.84002 C 264.99379,277.80557 265.0718,277.76953 265.14895,277.73214 C 265.22525,277.69516 265.30071,277.65686 265.37544,277.61746 C 265.45458,277.57573 265.5329,277.53277 265.61052,277.48886 C 265.69449,277.44135 265.77764,277.39272 265.86013,277.34332 C 265.94477,277.29263 266.02871,277.24112 266.11212,277.18917 C 266.19749,277.136 266.2823,277.08236 266.36674,277.02865 C 266.45074,276.97523 266.53437,276.92174 266.6178,276.86857 C 266.69842,276.81719 266.77886,276.76612 266.85928,276.7157 C 266.93753,276.66664 267.01577,276.61821 267.09413,276.57072 C 267.81539,276.13365 268.54748,275.7769 269.40515,275.75477 m 0,0 C 269.41471,275.75452 269.42425,275.75428 269.43377,275.75405 C 269.46384,275.75333 269.49374,275.7527 269.52348,275.75216 C 269.58084,275.75112 269.63759,275.75042 269.69377,275.75006 C 269.76679,275.74959 269.83884,275.7497 269.90999,275.7504 C 270.00348,275.75132 270.09541,275.75325 270.18594,275.75621 C 270.2894,275.7596 270.39103,275.76433 270.49106,275.77044 C 270.59952,275.77706 270.7061,275.7853 270.8111,275.79519 C 270.93087,275.80647 271.04858,275.81989 271.16467,275.83551 C 271.282,275.8513 271.39768,275.86933 271.51216,275.88966 C 271.63664,275.91177 271.7597,275.93659 271.88193,275.9642 C 272.01311,275.99383 272.14334,276.02667 272.27333,276.0628 C 272.40427,276.09919 272.53497,276.13892 272.66617,276.18208 C 272.79055,276.223 272.91538,276.267 273.04128,276.31415 C 273.16577,276.36077 273.29131,276.41047 273.41851,276.46333 C 273.53692,276.51253 273.65676,276.56446 273.77853,276.61918 C 274.98755,277.16254 276.38649,277.98084 278.45494,279.12998 m 0,0 C 278.48684,279.1477 278.51852,279.1654 278.54999,279.18307 C 278.5924,279.20688 278.63442,279.23065 278.67607,279.25437 C 278.75423,279.29888 278.83106,279.34322 278.90661,279.38739 C 278.99316,279.43799 279.07803,279.48836 279.16129,279.53848 C 279.26609,279.60156 279.36834,279.66425 279.46819,279.72651 C 279.59413,279.80504 279.71625,279.88289 279.83484,279.96 C 279.97053,280.04823 280.1016,280.13549 280.22849,280.22168 C 280.37063,280.31823 280.50752,280.41345 280.63978,280.5072 C 280.78249,280.60836 280.91981,280.70782 281.05252,280.80541 C 281.19617,280.91105 281.33441,281.0145 281.46822,281.11555 C 281.60555,281.21925 281.73821,281.32042 281.86728,281.41885 C 282.00224,281.52177 282.13327,281.62169 282.26158,281.71834 C 282.38987,281.81498 282.51545,281.90836 282.63952,281.99821 C 282.76264,282.08738 282.88428,282.17308 283.00563,282.25506 C 283.12321,282.3345 283.24051,282.41045 283.35861,282.48268 C 284.45806,283.15507 285.62713,283.50526 287.73677,283.34899 m 0,0 C 287.77322,283.34629 287.80955,283.34368 287.84577,283.34115 C 287.91987,283.33597 287.99348,283.33114 288.06661,283.32664 C 288.15379,283.32127 288.24029,283.31636 288.32614,283.31186 C 288.44603,283.30558 288.56465,283.30011 288.68206,283.29533 C 288.83414,283.28914 288.98419,283.28411 289.13236,283.27998 C 289.29928,283.27533 289.4638,283.27182 289.62613,283.26908 C 289.80389,283.26607 289.97902,283.26399 290.15178,283.26234 C 290.33663,283.26058 290.51877,283.25932 290.69852,283.25796 C 290.88267,283.25656 291.06432,283.25506 291.24381,283.25281 C 291.42959,283.25048 291.61306,283.24735 291.79461,283.24271 C 291.9722,283.23817 292.14796,283.23219 292.32224,283.22409 C 292.49838,283.21591 292.67301,283.20557 292.8465,283.19238 C 293.02045,283.17916 293.19326,283.16307 293.3653,283.14343 C 293.53809,283.1237 293.71011,283.10039 293.88174,283.07279 C 294.05277,283.04529 294.22342,283.01353 294.39406,282.97681 C 295.86416,282.66048 297.3336,281.97642 299.04373,280.48006 m 0,0 C 299.07208,280.45525 299.10059,280.43035 299.12925,280.40536 C 299.16584,280.37346 299.20269,280.34141 299.23978,280.30923 C 299.30104,280.25607 299.36297,280.20253 299.42555,280.14864 C 299.52212,280.06547 299.62022,279.98146 299.71976,279.89668 C 299.85212,279.78395 299.98703,279.66988 300.12426,279.55466 C 300.29653,279.41002 300.47246,279.26357 300.6516,279.11571 C 300.85019,278.95179 301.05273,278.78615 301.25861,278.61932 C 301.46685,278.45057 301.67851,278.28061 301.89296,278.11 C 302.12241,277.92746 302.35505,277.74417 302.59011,277.56083 C 302.83862,277.36699 303.08984,277.17309 303.34286,276.97995 C 303.60158,276.78246 303.86218,276.58575 304.12368,276.3907 C 304.39433,276.18883 304.66595,275.98874 304.93747,275.79139 C 305.2068,275.59563 305.47603,275.40257 305.7441,275.21314 C 306.01275,275.0233 306.28024,274.83712 306.54552,274.65554 C 306.80317,274.47918 307.05873,274.30716 307.31123,274.14035 C 309.60923,272.62223 311.6536,271.53575 312.71333,271.53575 m 0,0 C 312.73578,271.53575 312.75824,271.53572 312.78072,271.53566 C 312.81821,271.53556 312.85575,271.53538 312.89333,271.53513 C 312.94418,271.53479 312.99511,271.53432 313.04613,271.53375 C 313.11077,271.53302 313.17556,271.53212 313.2405,271.53109 C 313.31908,271.52984 313.39789,271.5284 313.47694,271.52685 C 313.57144,271.525 313.66628,271.52299 313.76149,271.52096 C 313.87217,271.51859 313.98335,271.51619 314.09509,271.51396 C 314.2137,271.5116 314.33294,271.50943 314.45286,271.50771 C 314.57498,271.50596 314.69781,271.50467 314.8214,271.50411 C 314.94852,271.50353 315.07645,271.50372 315.20526,271.50496 C 315.32904,271.50616 315.45363,271.50833 315.5791,271.51173 C 315.70863,271.51524 315.83908,271.52006 315.97053,271.52647 C 316.10502,271.53303 316.24055,271.54126 316.37719,271.55146 C 316.51003,271.56137 316.64392,271.57314 316.77892,271.58705 C 316.90309,271.59984 317.0282,271.61444 317.1543,271.63106 C 318.28295,271.77979 319.49095,272.09044 320.81384,272.71708 m 0,0 C 320.83468,272.72695 320.85542,272.73688 320.87605,272.74687 C 320.92335,272.76976 320.9701,272.79295 321.01632,272.81642 C 321.08157,272.84956 321.14576,272.88327 321.20896,272.91751 C 321.29238,272.9627 321.37407,273.00882 321.45419,273.0558 C 321.54942,273.11164 321.64242,273.16869 321.73344,273.22684 C 321.83854,273.29398 321.941,273.36258 322.0412,273.43244 C 322.15069,273.50878 322.25749,273.58663 322.36209,273.66575 C 322.47906,273.75423 322.59329,273.8443 322.70547,273.93562 C 322.82703,274.03457 322.94619,274.13499 323.06384,274.23644 C 323.18973,274.34499 323.31389,274.45472 323.4374,274.5651 C 323.56079,274.67537 323.68354,274.78629 323.80674,274.89733 C 323.93044,275.00882 324.05459,275.12043 324.18029,275.23163 C 324.30328,275.34043 324.42775,275.44883 324.55473,275.55633 C 324.67207,275.65566 324.79155,275.75423 324.91399,275.85163 C 325.03424,275.94729 325.15734,276.04182 325.28407,276.13485 C 326.35855,276.92364 327.69348,277.60454 329.75815,277.94866 m 0,0 C 329.80878,277.9571 329.86008,277.965 329.91204,277.97236 C 329.99692,277.98439 330.08357,277.99499 330.17193,278.0042 C 330.30623,278.01819 330.44447,278.02895 330.58646,278.03658 C 330.75738,278.04576 330.93372,278.05039 331.11513,278.05064 C 331.32708,278.05093 331.54594,278.04524 331.77115,278.03382 C 332.02486,278.02095 332.28662,278.00082 332.55562,277.97379 C 332.82421,277.9468 333.10001,277.91294 333.38223,277.87257 C 333.68894,277.82869 334.00322,277.77713 334.32404,277.71835 C 334.65652,277.65744 334.99602,277.58878 335.34138,277.5129 C 335.70317,277.43341 336.0714,277.346 336.44474,277.25127 C 336.83461,277.15234 337.23005,277.04543 337.62955,276.93122 C 338.04406,276.81272 338.46294,276.68637 338.8845,276.55294 C 339.31787,276.41577 339.75408,276.27112 340.19129,276.11982 C 340.61789,275.97219 341.04545,275.81823 341.47226,275.65871 C 341.88785,275.50338 342.30273,275.34279 342.71533,275.17765 C 346.27003,273.75489 349.65539,271.99441 351.86579,270.35443 m 0,0 C 351.90241,270.32726 351.93947,270.29968 351.97696,270.27169 C 352.05142,270.2161 352.12758,270.1589 352.20539,270.10013 C 352.31499,270.01735 352.42786,269.93146 352.54386,269.84258 C 352.70017,269.72282 352.86216,269.59763 353.02948,269.4673 C 353.23066,269.3106 353.43953,269.14648 353.65548,268.97544 C 353.90704,268.77619 354.1682,268.56756 354.43798,268.35034 C 354.73772,268.109 355.04811,267.85706 355.3678,267.59561 C 355.72359,267.30464 356.0909,267.0019 356.46787,266.6889 C 356.86241,266.36132 357.26755,266.0225 357.68115,265.67418 C 358.11665,265.30742 358.56154,264.93013 359.01334,264.54433 C 359.47359,264.15132 359.94101,263.74948 360.41298,263.34095 C 360.87821,262.93826 361.34786,262.52907 361.81942,262.11544 C 362.28803,261.70439 362.75853,261.28895 363.22845,260.87114 C 363.66735,260.48091 364.10575,260.08861 364.54164,259.69588 C 364.96774,259.31197 365.39144,258.92765 365.81087,258.54445 C 369.78335,254.91504 373.37258,251.38609 374.98598,249.25936 m 0,0 C 374.99712,249.24468 375.00838,249.22984 375.01975,249.21484 C 378.79884,244.22868 395.41715,221.54162 399.11874,207.91302 m 0,0 C 402.83148,194.24341 408.40058,172.81082 407.89429,164.20403 m 0,0 C 407.38801,155.59724 406.71297,135.00845 402.83148,124.88282 m 0,0 C 398.94998,114.75719 387.3055,99.23121 380.72384,93.49336 m 0,0 C 374.14218,87.7555 356.0848,77.46111 338.70246,75.60474 m 0,0 C 321.32012,73.74837 300.60396,72.49629 286.89297,73.57961 m 0,0 C 284.16177,73.79541 281.59215,73.99445 281.27642,73.98279 " id="path846" sodipodi:nodetypes="ccsssssssssssssssssssssssc"/>
    <path style="fill:none;stroke:#b42d2d;stroke-width:1px;stroke-linecap:butt;stroke-linejoin:miter;stroke-opacity:1" d="m 252.50597,86.27685  C 252.50597,86.27685 264.43914,95.34606 280.19093,94.7494 m 0,0 C 295.94272,94.15274 313.48449,92.95943 319.9284,89.97613 m 0,0 C 326.37232,86.99284 331.38425,82.57756 333.29356,81.38424 " id="path848" sodipodi:nodetypes="cssc"/>
  </g>
  <g inkscape:groupmode="layer" id="layer2" inkscape:label="vectorVetka" style="display:inline" transform="translate(-188.14544,-11.900563)">
    <path style="fill:none;fill-opacity:1;stroke:#5e3a2a;stroke-width:1px;stroke-linecap:butt;stroke-linejoin:miter;stroke-opacity:1" d="m 286.55544,94.463728  C 284.69881,88.08928 282.68565,83.87972 277.12691,75.81782 m 0,0 C 268.4014,63.07588 260.15001,54.14951 259.72251,52.65329 m 0,0 C 259.04746,50.29065 257.46055,47.53275 256.3473,47.92799 m 0,0 C 254.33066,48.64398 246.21494,50.87706 248.40883,54.92731 m 0,0 C 250.60272,58.97756 254.98874,57.22854 254.98874,57.22854 m 0,0 C 254.98874,57.22854 273.72964,74.97187 280.48006,94.71686 " id="path851" sodipodi:nodetypes="ccssscc"/>
  </g>
  <g inkscape:groupmode="layer" id="layer3" inkscape:label="vectorListok" style="display:inline" transform="translate(-188.14544,-11.900563)">
    <path style="fill:none;fill-opacity:1;stroke:#2f7029;stroke-width:1px;stroke-linecap:butt;stroke-linejoin:miter;stroke-opacity:1" d="m 275.92482,74.194511  C 275.50716,74.16468 274.46301,75.11933 275.23866,76.43198 m 0,0 C 276.01432,77.74463 276.61098,78.52029 277.77446,77.89379 m 0,0 C 278.93795,77.2673 287.17467,66.30223 288.3272,66.32311 m 0,0 C 289.60853,66.34632 298.26969,67.95942 307.21957,67.3031 m 0,0 C 316.16945,66.64678 328.46062,64.8568 333.65155,62.17184 m 0,0 C 338.84248,59.48688 351.43198,53.10263 355.60859,49.04535 m 0,0 C 359.7852,44.98807 372.91169,30.31027 374.10501,27.68497 m 0,0 C 375.29833,25.05967 376.99881,21.24106 376.87948,20.40573 m 0,0 C 376.76015,19.57041 374.70167,18.0191 372.43437,17.18377 m 0,0 C 370.16706,16.34845 359.66587,12.17184 351.43198,12.4105 m 0,0 C 343.19809,12.64916 336.39618,13.12649 329.95227,15.27446 m 0,0 C 323.50835,17.42243 312.64917,22.1957 305.13127,29.23627 m 0,0 C 297.61337,36.27684 293.43675,39.97613 290.69212,44.98806 m 0,0 C 287.94749,49.99999 286.39618,57.75656 286.03819,60.62052 m 0,0 C 285.68019,63.48448 286.92294,63.76534 285.25229,65.19732 m 0,0 C 283.58165,66.6293 277.14797,73.80668 275.92482,74.19451 m 0,0 Z " id="path853"/>
    <path style="fill:none;stroke:#2f7029;stroke-width:1px;stroke-linecap:butt;stroke-linejoin:miter;stroke-opacity:1" d="m 288.18616,63.245823  C 288.18616,63.24582 311.69451,47.01671 319.80907,44.27208 m 0,0 C 327.92363,41.52745 366.22912,22.31504 368.49642,21.59905 " id="path881"/>
  </g>
</svg>