<svg xmlns:dc="http://purl.org/dc/elements/1.1/" xmlns:cc="http://creativecommons.org/ns#" xmlns:rdf="http://www.w3.org/1999/02/22-rdf-syntax-ns#" xmlns:svg="http://www.w3.org/2000/svg" xmlns="http://www.w3.org/2000/svg" xmlns:sodipodi="http://sodipodi.sourceforge.net/DTD/sodipodi-0.dtd" xmlns:inkscape="http://www.inkscape.org/namespaces/inkscape" version="1.1" id="svg833" width="220.28174" height="271.98315" viewBox="0 0 220.28174 271.98315" sodipodi:docname="appleWithoutBackground.svg" inkscape:version="1.0.2 (e86c870879, 2021-01-15, custom)">
  <metadata id="metadata839">
    <rdf:RDF>
      <cc:Work rdf:about="">
        <dc:format>image/svg+xml</dc:format>
        <dc:type rdf:resource="http://purl.org/dc/dcmitype/StillImage"/>
        <dc:title/>
      </cc:Work>
    </rdf:RDF>
  </metadata>
  <defs id="defs837"/>
  <sodipodi:namedview pagecolor="#ffffff" bordercolor="#666666" borderopacity="1" objecttolerance="10" gridtolerance="10" guidetolerance="10" inkscape:pageopacity="0" inkscape:pageshadow="2" inkscape:window-width="1849" inkscape:window-height="1057" id="namedview835" showgrid="false" inkscape:zoom="0.74069435" inkscape:cx="-166.91494" inkscape:cy="88.863331" inkscape:window-x="63" inkscape:window-y="-8" inkscape:window-maximized="1" inkscape:current-layer="layer2" fit-margin-top="0" fit-margin-left="0" fit-margin-right="0" fit-margin-bottom="0"/>
  <g inkscape:groupmode="layer" id="layer1" inkscape:label="vectorApple" style="display:inline" transform="translate(-188.14544,-11.900563)">
    <path style="fill:none;fill-opacity:1;stroke:#b42d2d;stroke-width:1px;stroke-linecap:butt;stroke-linejoin:miter;stroke-opacity:1" d="m 270.37027,75.596556  C 269.81883,75.675126 267.99178,75.942256 267.99178,75.942256 m 0,0 C 267.99178,75.942256 267.99029,75.942474 267.987329,75.942908 C 267.981256,75.943799 267.968997,75.945598 267.950724,75.948283 C 267.925771,75.95195 267.889603,75.95727 267.842661,75.964189 C 267.780705,75.973321 267.699979,75.985238 267.601495,75.999814 C 267.484433,76.017139 267.342281,76.038221 267.176736,76.062848 C 266.985584,76.091284 266.763243,76.124447 266.512326,76.162011 C 266.235329,76.203479 265.923507,76.250311 265.580376,76.302069 C 265.214101,76.357318 264.812152,76.418179 264.378805,76.48412 C 263.920895,76.553799 263.427927,76.62915 262.904947,76.709545 C 262.342304,76.796037 261.744923,76.888367 261.119089,76.985752 C 260.483743,77.084617 259.819072,77.188692 259.131649,77.297157 C 258.476558,77.400521 257.800805,77.507873 257.11008,77.618504 C 256.422283,77.728666 255.719641,77.842079 255.007771,77.958044 C 254.341991,78.0665 253.668139,78.177188 252.990811,78.289536 C 252.327461,78.399565 251.660776,78.511186 250.995074,78.623861 C 250.354009,78.732366 249.713855,78.841849 249.078467,78.951829 C 248.472814,79.056662 247.871492,79.161947 247.277839,79.267268 C 246.705076,79.368883 246.139452,79.470532 245.583966,79.571841 C 245.064574,79.666567 244.554045,79.760995 244.054831,79.854821 C 243.583785,79.943353 243.122813,80.031348 242.673974,80.11855 C 239.683431,80.699563 237.231498,81.245373 235.92727,81.680115 m 0,0 C 235.891071,81.692181 235.854494,81.704597 235.817545,81.717358 C 235.727184,81.748565 235.634595,81.781837 235.539858,81.817111 C 235.408765,81.865922 235.273559,81.918567 235.134449,81.974883 C 234.96523,82.043389 234.790235,82.117327 234.609842,82.196403 C 234.396927,82.289735 234.176492,82.390225 233.949159,82.497389 C 233.697261,82.616132 233.436894,82.74307 233.168904,82.877544 C 232.855236,83.034939 232.531125,83.202658 232.197928,83.379646 C 231.817084,83.581943 231.424369,83.796349 231.02181,84.021289 C 230.598907,84.257596 230.16514,84.505529 229.722856,84.76326 C 229.276043,85.02363 228.820539,85.294 228.358766,85.572487 C 227.890947,85.85462 227.416694,86.145083 226.938524,86.441918 C 226.448456,86.746139 225.954273,87.057053 225.458687,87.372551 C 224.957139,87.691845 224.454154,88.015835 223.952541,88.342335 C 223.448974,88.670107 222.94679,89.000409 222.448832,89.331029 C 221.974178,89.646177 221.503363,89.961615 221.03885,90.275427 C 220.594579,90.575564 220.156073,90.874214 219.725485,91.169703 C 219.322232,91.446433 218.925924,91.72039 218.53833,91.990198 C 218.181882,92.238325 217.832803,92.482942 217.49247,92.72298 C 217.179675,92.943596 216.874268,93.160343 216.577317,93.372391 C 216.306103,93.566061 216.041943,93.755811 215.785651,93.941007 C 214.204721,95.083384 212.923167,96.052514 212.13203,96.699806 m 0,0 C 212.098615,96.727145 212.064859,96.75514 212.030767,96.783783 C 211.96132,96.842131 211.890482,96.903167 211.818306,96.96682 C 211.72449,97.049558 211.628415,97.136718 211.530199,97.228144 C 211.40506,97.344632 211.276445,97.468047 211.1446,97.598067 C 210.99105,97.749492 210.833119,97.909876 210.671195,98.078712 C 210.487198,98.270563 210.298045,98.473327 210.104306,98.68626 C 209.892964,98.918539 209.676165,99.162918 209.454647,99.418431 C 209.212341,99.697923 208.964389,99.990737 208.711758,100.295608 C 208.448559,100.613232 208.180281,100.943943 207.908019,101.28631 C 207.632842,101.632343 207.353594,101.990283 207.071405,102.358654 C 206.785893,102.731363 206.49737,103.11475 206.207006,103.507285 C 205.930914,103.880526 205.653158,104.262038 205.374743,104.650506 C 205.098347,105.036156 204.821302,105.428662 204.544591,105.826737 C 204.277664,106.210737 204.011048,106.599919 203.745626,106.993129 C 203.489132,107.373113 203.233753,107.756858 202.980286,108.143322 C 202.730907,108.523552 202.483379,108.906414 202.238461,109.290916 C 202.007671,109.653237 201.779199,110.017014 201.553679,110.381416 C 201.341426,110.724382 201.131788,111.067901 200.925295,111.411282 C 200.733888,111.729576 200.545184,112.047751 200.359603,112.365255 C 200.188661,112.657714 200.02037,112.949604 199.855059,113.240494 C 198.786703,115.120427 197.842811,116.958598 197.11234,118.63868 m 0,0 C 197.081963,118.708547 197.051463,118.779521 197.020845,118.85158 C 196.958474,118.998368 196.895611,119.149657 196.832295,119.305257 C 196.748316,119.511637 196.663539,119.725601 196.578055,119.946705 C 196.48804,120.179527 196.397241,120.420265 196.305762,120.668402 C 196.195325,120.967963 196.083898,121.278306 195.971665,121.598518 C 195.842145,121.968053 195.711552,122.350732 195.580169,122.745154 C 195.427239,123.204261 195.273239,123.679278 195.118615,124.167994 C 194.942673,124.724092 194.765924,125.297927 194.589026,125.886241 C 194.403714,126.502541 194.218239,127.13473 194.033359,127.779064 C 193.845655,128.433238 193.658564,129.09993 193.472878,129.775221 C 193.284155,130.461558 193.096884,131.156777 192.911896,131.856765 C 192.729894,132.545454 192.550103,133.238759 192.373314,133.932761 C 192.197983,134.621041 192.025605,135.310006 191.856954,135.995834 C 191.690035,136.674616 191.526766,137.350326 191.367896,138.019257 C 191.214418,138.665486 191.065046,139.305389 190.920455,139.935624 C 190.784247,140.529318 190.652282,141.114433 190.525125,141.688176 C 190.404676,142.231652 190.288541,142.764924 190.1772,143.285618 C 190.076322,143.757381 189.979379,144.218819 189.886728,144.668166 C 189.800235,145.087647 189.717482,145.496591 189.638761,145.893562 C 189.566299,146.258966 189.497253,146.614225 189.431849,146.958219 C 188.98827,149.29122 188.712208,151.106065 188.67432,152.05327 m 0,0 C 188.672801,152.091241 188.671337,152.131372 188.66993,152.17363 C 188.667065,152.259713 188.664439,152.354624 188.662077,152.458089 C 188.659007,152.592576 188.656383,152.741516 188.65426,152.904308 C 188.651513,153.114966 188.649605,153.348821 188.648654,153.604571 C 188.64755,153.901496 188.647737,154.227934 188.649401,154.581848 C 188.651287,154.983005 188.655071,155.419462 188.661023,155.888254 C 188.667504,156.398676 188.676555,156.947431 188.688526,157.530689 C 188.701596,158.167538 188.718147,158.845522 188.738634,159.559658 C 188.75979,160.297127 188.785143,161.073148 188.815194,161.882233 C 188.846833,162.734054 188.883679,163.622524 188.926317,164.541237 C 188.969175,165.464697 189.017885,166.418714 189.07304,167.396784 C 189.128051,168.3723 189.189474,169.371743 189.257898,170.388659 C 189.324494,171.37842 189.397722,172.384733 189.478125,173.401648 C 189.556708,174.395545 189.642145,175.399569 189.734943,176.408165 C 189.82522,177.38936 189.922463,178.374882 190.027139,179.359615 C 190.128253,180.31084 190.236303,181.261329 190.351709,182.206472 C 190.458767,183.083249 190.572156,183.955425 190.692212,184.81932 C 190.803298,185.618672 190.920092,186.410933 191.04286,187.193188 C 191.154334,187.903481 191.270733,188.605525 191.392257,189.297136 C 191.503397,189.929653 191.618823,190.553444 191.738688,191.16684 C 192.420595,194.656424 193.24615,197.809552 194.24341,200.31879 m 0,0 C 194.277415,200.404352 194.311763,200.490498 194.346448,200.577219 C 194.420669,200.762789 194.496437,200.950992 194.573708,201.141733 C 194.685271,201.417122 194.799967,201.697801 194.917666,201.983485 C 195.083565,202.386164 195.255429,202.798786 195.43289,203.220551 C 195.65474,203.747814 195.885337,204.289367 196.123964,204.843646 C 196.410913,205.510167 196.709473,206.195091 197.018395,206.8957 C 197.349812,207.647324 197.693156,208.417001 198.046885,209.201375 C 198.419238,210.027046 198.803099,210.869003 199.19667,211.723332 C 199.60726,212.614606 200.028419,213.519345 200.458105,214.433106 C 200.889835,215.351214 201.330174,216.278429 201.777051,217.210245 C 202.227282,218.149056 202.68415,219.092537 203.145537,220.036077 C 203.612877,220.991792 204.084854,221.947568 204.559267,222.898615 C 205.027002,223.836274 205.497105,224.769336 205.967467,225.693211 C 206.420868,226.58377 206.87451,227.465792 207.326504,228.335165 C 207.762388,229.173552 208.196739,230.000175 208.627864,230.811347 C 209.033356,231.57429 209.435994,232.323565 209.834369,233.056103 C 210.211106,233.748853 210.58403,234.426635 210.951949,235.086854 C 211.284855,235.684242 211.613663,236.267251 211.93749,236.833958 C 212.244203,237.370715 212.546448,237.892847 212.843475,238.398722 C 213.122887,238.874597 213.397681,239.336085 213.667233,239.781827 C 215.394362,242.637879 216.906266,244.847468 218.03865,246.05291 m 0,0 C 218.075271,246.091894 218.112438,246.131523 218.150144,246.171787 C 218.235726,246.263176 218.324087,246.357839 218.415151,246.455667 C 218.541161,246.591036 218.672347,246.732465 218.808511,246.879664 C 218.9564,247.039538 219.11016,247.206218 219.269536,247.379331 C 219.477761,247.605504 219.695573,247.842659 219.922403,248.089965 C 220.203804,248.396769 220.499084,248.719197 220.807158,249.055664 C 221.146551,249.426337 221.501471,249.814049 221.870465,250.21668 C 222.235365,250.614844 222.614029,251.027598 223.005053,251.452893 C 223.419149,251.903282 223.847107,252.367736 224.287259,252.843821 C 224.763427,253.358862 225.253866,253.887515 225.756464,254.426699 C 226.272122,254.979894 226.80058,255.544174 227.339557,256.116211 C 227.891172,256.701661 228.453806,257.295236 229.025014,257.893368 C 229.593223,258.48836 230.169916,259.087861 230.752687,259.68836 C 231.315821,260.268624 231.88463,260.84982 232.456943,261.428779 C 233.013825,261.992128 233.574025,262.553359 234.135543,263.109553 C 234.654953,263.624038 235.17549,264.134213 235.695571,264.637767 C 236.19364,265.120009 236.691292,265.596179 237.187135,266.064248 C 237.667167,266.517391 238.145504,266.962941 238.620884,267.399057 C 239.062856,267.804525 239.502273,268.201838 239.93812,268.589516 C 240.347455,268.953613 240.753642,269.309212 241.15584,269.655086 C 243.83562,271.959591 246.338339,273.832414 248.41556,274.91097 m 0,0 C 248.472601,274.940587 248.529478,274.969976 248.586191,274.999139 C 248.685878,275.050399 248.785059,275.100959 248.883736,275.150828 C 249.053374,275.236559 249.221522,275.320246 249.388187,275.401933 C 249.580102,275.495995 249.770051,275.587405 249.958045,275.676229 C 250.208021,275.794339 250.454542,275.907877 250.697635,276.016999 C 251.002808,276.153988 251.302578,276.284017 251.597,276.407396 C 251.923405,276.544177 252.243237,276.672784 252.55657,276.793638 C 252.870399,276.914683 253.177709,277.02795 253.478575,277.133862 C 253.801016,277.24737 254.116055,277.35243 254.423784,277.449562 C 254.724155,277.544372 255.017561,277.631629 255.304088,277.711817 C 255.603414,277.795587 255.895232,277.871642 256.179639,277.940535 C 256.455562,278.007372 256.72451,278.067468 256.986572,278.121326 C 257.261344,278.177796 257.528546,278.227408 257.788281,278.270743 C 258.037553,278.312332 258.279947,278.348139 258.515553,278.378678 C 258.748796,278.408911 258.975388,278.433981 259.195415,278.454386 C 259.415457,278.474792 259.628934,278.490532 259.835934,278.502105 C 260.036625,278.513325 260.231227,278.520628 260.419821,278.524467 C 260.601437,278.528164 260.777482,278.528649 260.948026,278.526328 C 261.109574,278.524129 261.266186,278.519412 261.417924,278.512521 C 261.561921,278.505982 261.701528,278.497485 261.836797,278.487325 C 262.814857,278.413863 263.56614,278.253457 264.11029,278.11742 m 0,0 C 264.123453,278.114129 264.136586,278.110783 264.149689,278.107383 C 264.17973,278.099588 264.209613,278.091509 264.239343,278.083156 C 264.281317,278.071363 264.322985,278.059024 264.364361,278.046167 C 264.418028,278.02949 264.471203,278.011942 264.523914,277.993585 C 264.585903,277.971997 264.64725,277.94929 264.708,277.925565 C 264.779405,277.897678 264.849986,277.868385 264.919817,277.837849 C 265.000254,277.802675 265.079695,277.765853 265.158254,277.727633 C 265.238015,277.688828 265.316867,277.648581 265.394927,277.607155 C 265.480396,277.561798 265.564916,277.515028 265.648643,277.467189 C 265.739068,277.415522 265.828567,277.362608 265.917337,277.308881 C 266.007152,277.254522 266.096221,277.19933 266.184745,277.143755 C 266.273075,277.088302 266.360863,277.032467 266.44831,276.976697 C 266.534443,276.921765 266.620246,276.866896 266.705911,276.812516 C 266.78799,276.760412 266.869943,276.708757 266.951938,276.657926 C 267.031011,276.608907 267.110124,276.560654 267.189428,276.513504 C 267.262981,276.469774 267.336698,276.426992 267.410701,276.385427 C 267.480859,276.346022 267.551273,276.307711 267.622048,276.270723 C 267.688714,276.235882 267.755699,276.202215 267.82309,276.169912 C 267.886595,276.139472 267.95046,276.110244 268.014757,276.082387 C 268.074935,276.056315 268.135492,276.031445 268.196486,276.007907 C 268.577481,275.860882 268.975563,275.765851 269.40515,275.75477 m 0,0 C 269.427449,275.754195 269.449656,275.753669 269.471773,275.753193 C 269.50001,275.752585 269.5281,275.752058 269.556046,275.751612 C 269.602204,275.750875 269.647971,275.75036 269.693363,275.750069 C 269.76341,275.749619 269.832564,275.749702 269.900886,275.750325 C 269.991734,275.751153 270.081111,275.752935 270.169159,275.755688 C 270.279693,275.759144 270.388132,275.76413 270.494759,275.770679 C 270.612968,275.777939 270.72895,275.78712 270.843088,275.798267 C 270.958539,275.809542 271.072104,275.822828 271.18418,275.838171 C 271.304096,275.854587 271.422308,275.873359 271.539302,275.894542 C 271.662993,275.916938 271.785323,275.94203 271.906867,275.969885 C 272.031149,275.998367 272.15461,276.029738 272.277864,276.064069 C 272.405429,276.099601 272.532773,276.138304 272.660578,276.180258 C 272.787352,276.221873 272.91458,276.266686 273.042927,276.314775 C 273.171553,276.362969 273.301303,276.414453 273.432846,276.469305 C 273.56061,276.522581 273.690066,276.579035 273.821828,276.638737 C 273.951338,276.697419 274.083076,276.75924 274.217624,276.824267 C 274.344864,276.885763 274.474618,276.950126 274.607378,277.017415 C 274.731097,277.080121 274.857427,277.145368 274.986767,277.213201 C 275.106658,277.276079 275.229135,277.341179 275.354515,277.408539 C 275.470005,277.470586 275.587959,277.53455 275.708625,277.60046 C 276.488451,278.026414 277.381549,278.533652 278.45494,279.12998 m 0,0 C 278.495949,279.152763 278.536602,279.175505 278.576906,279.198204 C 278.659008,279.244444 278.739662,279.290508 278.818922,279.336385 C 278.924048,279.397234 279.026722,279.457753 279.127069,279.517916 C 279.244475,279.588307 279.358696,279.658211 279.469935,279.727584 C 279.601215,279.809456 279.728341,279.89059 279.851645,279.970915 C 279.978586,280.053609 280.101476,280.135446 280.220678,280.216349 C 280.360198,280.311042 280.494665,280.404456 280.62466,280.496468 C 280.773244,280.601638 280.915986,280.704976 281.053754,280.806299 C 281.198484,280.912742 281.337725,281.016961 281.472482,281.118742 C 281.602657,281.217063 281.728649,281.313109 281.851364,281.406689 C 281.976546,281.502151 282.098318,281.595046 282.217643,281.685172 C 282.341607,281.778802 282.46293,281.869442 282.582692,281.956865 C 282.701825,282.043829 282.819413,282.127609 282.936519,282.20798 C 283.05277,282.287764 283.168546,282.364189 283.284886,282.437035 C 283.397578,282.507597 283.5108,282.574801 283.625496,282.638447 C 283.735851,282.699684 283.84757,282.757627 283.961495,282.812098 C 284.068848,282.863427 284.17816,282.911673 284.290135,282.956687 C 284.396835,282.99958 284.505953,283.039539 284.618098,283.076434 C 284.723421,283.111085 284.831415,283.143034 284.942583,283.172174 C 285.046281,283.199356 285.152741,283.224094 285.262373,283.246301 C 285.935827,283.382719 286.728977,283.423644 287.73677,283.34899 m 0,0 C 287.766387,283.346796 287.795926,283.344659 287.825387,283.342578 C 287.88843,283.338124 287.951118,283.333924 288.013459,283.329962 C 288.103467,283.324241 288.192752,283.319016 288.281341,283.314239 C 288.37658,283.309104 288.471014,283.304486 288.564676,283.300327 C 288.690817,283.294725 288.815557,283.289955 288.938975,283.285871 C 289.095216,283.280701 289.249338,283.27663 289.401501,283.273365 C 289.570934,283.269729 289.737938,283.267091 289.902733,283.265045 C 290.089856,283.262721 290.274132,283.26116 290.455884,283.259767 C 290.645841,283.258311 290.83304,283.257038 291.017851,283.255268 C 291.209378,283.253433 291.39834,283.251065 291.585148,283.247407 C 291.775672,283.243676 291.963955,283.238603 292.150433,283.231385 C 292.327525,283.224531 292.502989,283.215742 292.677198,283.204332 C 292.851566,283.192911 293.024677,283.178864 293.196905,283.161502 C 293.364204,283.144637 293.53067,283.124643 293.696646,283.100889 C 293.859045,283.077647 294.020974,283.050805 294.182755,283.019771 C 294.340726,282.989468 294.498556,282.955169 294.656544,282.916322 C 294.810097,282.878566 294.963799,282.836514 295.117924,282.78966 C 295.266668,282.744442 295.415807,282.694752 295.565588,282.640135 C 295.704426,282.589509 295.843815,282.534649 295.983952,282.475194 C 296.113517,282.420225 296.243721,282.361327 296.374719,282.298215 C 297.217686,281.892094 298.093556,281.311463 299.04373,280.48006 m 0,0 C 299.072082,280.455252 299.100591,280.430353 299.129254,280.405366 C 299.186179,280.355741 299.243713,280.305767 299.301834,280.255464 C 299.383701,280.184609 299.466733,280.1131 299.550869,280.040992 C 299.664242,279.943826 299.779619,279.845572 299.896851,279.746364 C 300.037807,279.627079 300.181445,279.506414 300.327507,279.384601 C 300.497652,279.242703 300.671086,279.099247 300.847399,278.954599 C 301.04329,278.793889 301.242735,278.631708 301.445174,278.468558 C 301.670473,278.286985 301.89948,278.104212 302.131423,277.920931 C 302.374176,277.729108 302.620144,277.536729 302.868441,277.344588 C 303.129886,277.142272 303.393913,276.94022 303.659488,276.739359 C 303.93003,276.534741 304.202178,276.331358 304.474838,276.130191 C 304.743606,275.931895 305.012872,275.735752 305.281588,275.5427 C 305.548624,275.350855 305.815117,275.162063 306.080039,274.977244 C 306.327473,274.804625 306.573536,274.635472 306.817391,274.470536 C 307.055768,274.309305 307.292035,274.152103 307.525409,273.999631 C 307.742022,273.85811 307.956143,273.720664 308.167147,273.587854 C 310.109245,272.365456 311.787248,271.53575 312.71333,271.53575 m 0,0 C 315.07598,271.53575 317.60739,271.19823 320.81384,272.71708 m 0,0 C 324.02029,274.23592 324.69533,277.10485 329.75815,277.94866 m 0,0 C 334.82097,278.79246 346.63421,274.23592 351.86579,270.35443 m 0,0 C 357.09736,266.47294 371.27325,254.15342 374.98598,249.25936 m 0,0 C 378.69872,244.3653 395.40601,221.58263 399.11874,207.91302 m 0,0 C 402.83148,194.24341 408.40058,172.81082 407.89429,164.20403 m 0,0 C 407.38801,155.59724 406.71297,135.00845 402.83148,124.88282 m 0,0 C 398.94998,114.75719 387.3055,99.231214 380.72384,93.493355 m 0,0 C 374.14218,87.755496 356.0848,77.461101 338.70246,75.604735 m 0,0 C 321.32012,73.748368 300.60396,72.496284 286.89297,73.579608 m 0,0 C 284.16177,73.795404 281.59215,73.994444 281.27642,73.982783 " id="path846" sodipodi:nodetypes="ccsssssssssssssssssssssssc"/>
    <path style="fill:none;stroke:#b42d2d;stroke-width:1px;stroke-linecap:butt;stroke-linejoin:miter;stroke-opacity:1" d="m 252.50597,86.27685  C 252.50597,86.27685 264.43914,95.346062 280.19093,94.749403 m 0,0 C 295.94272,94.152745 313.48449,92.959428 319.9284,89.976134 m 0,0 C 326.37232,86.99284 331.38425,82.577566 333.29356,81.384248 " id="path848" sodipodi:nodetypes="cssc"/>
  </g>
  <g inkscape:groupmode="layer" id="layer2" inkscape:label="vectorVetka" style="display:inline" transform="translate(-188.14544,-11.900563)">
    <path style="fill:none;fill-opacity:1;stroke:#5e3a2a;stroke-width:1px;stroke-linecap:butt;stroke-linejoin:miter;stroke-opacity:1" d="m 286.55544,94.463728  C 284.69881,88.089275 282.68565,83.879717 277.12691,75.817823 m 0,0 C 268.4014,63.075885 260.15001,54.149514 259.72251,52.653297 m 0,0 C 259.04746,50.290652 257.46055,47.532753 256.3473,47.928001 m 0,0 C 254.33066,48.643991 246.21494,50.877071 248.40883,54.927325 m 0,0 C 250.60272,58.977578 254.98874,57.22855 254.98874,57.22855 m 0,0 C 254.98874,57.22855 273.72964,74.971882 280.48006,94.716869 " id="path851" sodipodi:nodetypes="ccssscc"/>
  </g>
  <g inkscape:groupmode="layer" id="layer3" inkscape:label="vectorListok" style="display:inline" transform="translate(-188.14544,-11.900563)">
    <path style="fill:none;fill-opacity:1;stroke:#2f7029;stroke-width:1px;stroke-linecap:butt;stroke-linejoin:miter;stroke-opacity:1" d="m 275.92482,74.194511  C 275.50716,74.164681 274.46301,75.119332 275.23866,76.431981 m 0,0 C 276.01432,77.74463 276.61098,78.520287 277.77446,77.893795 m 0,0 C 278.93795,77.267303 287.17467,66.302232 288.3272,66.323114 m 0,0 C 289.60853,66.346324 298.26969,67.959427 307.21957,67.303103 m 0,0 C 316.16945,66.646778 328.46062,64.856802 333.65155,62.171838 m 0,0 C 338.84248,59.486874 351.43198,53.102625 355.60859,49.045346 m 0,0 C 359.7852,44.988067 372.91169,30.310263 374.10501,27.684964 m 0,0 C 375.29833,25.059666 376.99881,21.24105 376.87948,20.405728 m 0,0 C 376.76015,19.570406 374.70167,18.019093 372.43437,17.183771 m 0,0 C 370.16706,16.348449 359.66587,12.171838 351.43198,12.410501 m 0,0 C 343.19809,12.649165 336.39618,13.126492 329.95227,15.274463 m 0,0 C 323.50835,17.422434 312.64917,22.195704 305.13127,29.236277 m 0,0 C 297.61337,36.27685 293.43675,39.976134 290.69212,44.988067 m 0,0 C 287.94749,50 286.39618,57.756563 286.03819,60.620525 m 0,0 C 285.68019,63.484487 286.92294,63.76534 285.25229,65.197321 m 0,0 C 283.58165,66.629302 277.14797,73.806683 275.92482,74.194511 m 0,0 Z " id="path853"/>
    <path style="fill:none;stroke:#2f7029;stroke-width:1px;stroke-linecap:butt;stroke-linejoin:miter;stroke-opacity:1" d="m 288.18616,63.245823  C 288.18616,63.245823 311.69451,47.016706 319.80907,44.272076 m 0,0 C 327.92363,41.527446 366.22912,22.315036 368.49642,21.599045 " id="path881"/>
  </g>
</svg>