<svg xmlns:dc="http://purl.org/dc/elements/1.1/" xmlns:cc="http://creativecommons.org/ns#" xmlns:rdf="http://www.w3.org/1999/02/22-rdf-syntax-ns#" xmlns:svg="http://www.w3.org/2000/svg" xmlns="http://www.w3.org/2000/svg" xmlns:sodipodi="http://sodipodi.sourceforge.net/DTD/sodipodi-0.dtd" xmlns:inkscape="http://www.inkscape.org/namespaces/inkscape" version="1.1" id="svg833" width="220.28174" height="271.98315" viewBox="0 0 220.28174 271.98315" sodipodi:docname="appleWithoutBackground.svg" inkscape:version="1.0.2 (e86c870879, 2021-01-15, custom)">
  <metadata id="metadata839">
    <rdf:RDF>
      <cc:Work rdf:about="">
        <dc:format>image/svg+xml</dc:format>
        <dc:type rdf:resource="http://purl.org/dc/dcmitype/StillImage"/>
        <dc:title/>
      </cc:Work>
    </rdf:RDF>
  </metadata>
  <defs id="defs837"/>
  <sodipodi:namedview pagecolor="#ffffff" bordercolor="#666666" borderopacity="1" objecttolerance="10" gridtolerance="10" guidetolerance="10" inkscape:pageopacity="0" inkscape:pageshadow="2" inkscape:window-width="1849" inkscape:window-height="1057" id="namedview835" showgrid="false" inkscape:zoom="0.74069435" inkscape:cx="-166.91494" inkscape:cy="88.863331" inkscape:window-x="63" inkscape:window-y="-8" inkscape:window-maximized="1" inkscape:current-layer="layer2" fit-margin-top="0" fit-margin-left="0" fit-margin-right="0" fit-margin-bottom="0"/>
  <g inkscape:groupmode="layer" id="layer1" inkscape:label="vectorApple" style="display:inline" transform="translate(-188.14544,-11.900563)">
    <path style="fill:none;fill-opacity:1;stroke:#b42d2d;stroke-width:1px;stroke-linecap:butt;stroke-linejoin:miter;stroke-opacity:1" d="m 270.37027,75.596556  C 269.81883,75.675126 267.99178,75.942256 267.99178,75.942256 m 0,0 C 267.99178,75.942256 267.99029,75.942474 267.987329,75.942908 C 267.981256,75.943799 267.968997,75.945598 267.950724,75.948283 C 267.925771,75.95195 267.889603,75.95727 267.842661,75.964189 C 267.780705,75.973321 267.699979,75.985238 267.601495,75.999814 C 267.484433,76.017139 267.342281,76.038221 267.176736,76.062848 C 266.985584,76.091284 266.763243,76.124447 266.512326,76.162011 C 266.235329,76.203479 265.923507,76.250311 265.580376,76.302069 C 265.214101,76.357318 264.812152,76.418179 264.378805,76.48412 C 263.920895,76.553799 263.427927,76.62915 262.904947,76.709545 C 262.342304,76.796037 261.744923,76.888367 261.119089,76.985752 C 260.483743,77.084617 259.819072,77.188692 259.131649,77.297157 C 258.476558,77.400521 257.800805,77.507873 257.11008,77.618504 C 256.422283,77.728666 255.719641,77.842079 255.007771,77.958044 C 254.341991,78.0665 253.668139,78.177188 252.990811,78.289536 C 252.327461,78.399565 251.660776,78.511186 250.995074,78.623861 C 244.616313,79.703517 238.327779,80.879947 235.92727,81.680115 m 0,0 C 235.891071,81.692181 235.854494,81.704597 235.817545,81.717358 C 235.74695,81.741739 235.674996,81.76738 235.60172,81.794251 C 235.480155,81.83883 235.354952,81.886796 235.226283,81.938014 C 235.061327,82.003677 234.890675,82.074686 234.714691,82.150758 C 234.487536,82.248949 234.251498,82.355575 234.007359,82.470027 C 233.733463,82.598429 233.449371,82.736682 233.156188,82.883926 C 232.812716,83.056426 232.456767,83.241266 232.090117,83.437064 C 231.699085,83.645883 231.295882,83.867166 230.882663,84.099237 C 230.45704,84.338274 230.02079,84.588757 229.576269,84.848854 C 229.121191,85.115128 228.657444,85.391478 228.187554,85.675938 C 227.719342,85.959382 227.245032,86.250879 226.767123,86.548485 C 226.274957,86.854969 225.778974,87.167931 225.281905,87.485248 C 224.77451,87.809157 224.265983,88.137603 223.759229,88.468328 C 223.267478,88.789261 222.777396,89.11234 222.291636,89.435501 C 221.832228,89.741131 221.376686,90.046835 220.927255,90.350866 C 217.075911,92.956226 213.673306,95.438764 212.13203,96.699806 m 0,0 C 212.107897,96.719551 212.083586,96.739638 212.059099,96.760064 C 212.00483,96.805334 211.949697,96.85227 211.893726,96.900837 C 211.806232,96.976757 211.716692,97.056664 211.625206,97.140426 C 211.498905,97.256063 211.368895,97.379047 211.235439,97.509034 C 211.082483,97.658014 210.925001,97.816193 210.76339,97.983051 C 210.57773,98.174739 210.38662,98.377882 210.190663,98.591692 C 209.977304,98.82449 209.758198,99.069934 209.534122,99.327009 C 209.299567,99.596105 209.059567,99.877945 208.815012,100.171364 C 208.558824,100.47874 208.297638,100.798823 208.032478,101.130273 C 207.757499,101.473995 207.478247,101.829942 207.195863,102.196619 C 206.9025,102.577553 206.605758,102.970068 206.306917,103.372488 C 205.999335,103.786679 205.689529,104.211364 205.378897,104.644717 C 205.077106,105.065736 204.774534,105.494936 204.472463,105.930643 C 204.177782,106.35569 203.883578,106.786929 203.591039,107.222805 C 203.312072,107.638459 203.034619,108.05833 202.759712,108.481069 C 200.524052,111.918964 198.456739,115.546567 197.11234,118.63868 m 0,0 C 197.087026,118.696902 197.061626,118.755893 197.036144,118.81564 C 196.988934,118.926332 196.94144,119.039618 196.893678,119.155416 C 196.819674,119.334836 196.745028,119.520286 196.669803,119.711458 C 196.574496,119.953664 196.478258,120.205054 196.381216,120.465001 C 196.268746,120.766275 196.155196,121.079044 196.040764,121.402332 C 195.90909,121.774332 195.776247,122.160259 195.642536,122.558627 C 195.506321,122.964456 195.369205,123.383196 195.231506,123.813276 C 195.079808,124.287079 194.927403,124.774645 194.774715,125.273872 C 194.614925,125.796318 194.454826,126.331535 194.294904,126.877115 C 194.127051,127.449751 193.959393,128.033803 193.792494,128.626486 C 193.612366,129.266145 193.433122,129.915858 193.255469,130.572124 C 193.075891,131.235498 192.897939,131.905567 192.722344,132.578715 C 192.544956,133.25874 192.369973,133.941908 192.198149,134.62449 C 192.02808,135.300102 191.861105,135.975141 191.697956,136.645992 C 191.537637,137.305205 191.381013,137.960374 191.228776,138.608069 C 189.795211,144.707193 188.750707,150.14359 188.67432,152.05327 m 0,0 C 188.672801,152.091241 188.671337,152.131372 188.66993,152.17363 C 188.667065,152.259713 188.664439,152.354624 188.662077,152.458089 C 188.658944,152.59532 188.656276,152.7476 188.65413,152.914292 C 188.651871,153.089818 188.650192,153.281323 188.64916,153.488062 C 188.647914,153.737646 188.647613,154.009432 188.648375,154.30211 C 188.649255,154.639869 188.651551,155.005451 188.655448,155.39684 C 188.659984,155.852417 188.666688,156.342961 188.675851,156.865295 C 188.686277,157.459646 188.699886,158.095157 188.717105,158.767146 C 188.735143,159.471101 188.757143,160.215086 188.783597,160.99372 C 188.810454,161.784245 188.841902,162.610485 188.878454,163.466808 C 188.915604,164.337138 188.958026,165.238543 189.00626,166.16511 C 189.053716,167.076722 189.106798,168.012689 189.166019,168.967381 C 189.224752,169.914201 189.289524,170.879438 189.360837,171.857598 C 189.431417,172.82571 189.508404,173.806481 189.592283,174.794585 C 189.673316,175.749156 189.760782,176.710571 189.855118,177.674028 C 190.685649,186.156228 192.048742,194.796717 194.24341,200.31879 m 0,0 C 194.272184,200.391188 194.301203,200.464005 194.330464,200.537235 C 194.393955,200.69613 194.458587,200.856968 194.524333,201.01969 C 194.602822,201.213952 194.682898,201.410899 194.764514,201.610428 C 194.881003,201.895211 195.000629,202.185254 195.123256,202.48026 C 195.277609,202.851588 195.436717,203.23078 195.600308,203.617245 C 195.809592,204.111656 196.026214,204.617969 196.249604,205.134946 C 196.522722,205.767006 196.805958,206.415006 197.098271,207.076684 C 197.414652,207.79284 197.741667,208.525018 198.077998,209.270349 C 198.447243,210.088621 198.827717,210.922746 199.217676,211.768928 C 199.625054,212.652908 200.042783,213.550046 200.468875,214.456013 C 200.909612,215.393118 201.359296,216.33967 201.815728,217.290877 C 202.277023,218.252219 202.745209,219.218317 203.218015,220.184225 C 203.697566,221.163912 204.18187,222.143404 204.668557,223.11754 C 205.143546,224.068263 205.620805,225.013885 206.09813,225.949608 C 206.570633,226.875879 207.0432,227.79245 207.513695,228.694669 C 211.678615,236.68131 215.681123,243.543282 218.03865,246.05291 m 0,0 C 218.075271,246.091894 218.112438,246.131523 218.150144,246.171787 C 218.225028,246.251752 218.30204,246.334224 218.381129,246.41913 C 218.492531,246.538726 218.608054,246.66315 218.727557,246.792197 C 218.888587,246.966088 219.056845,247.148373 219.231985,247.33855 C 219.454955,247.580663 219.68908,247.835568 219.933651,248.102228 C 220.231633,248.427123 220.545121,248.769468 220.87283,249.127388 C 221.230314,249.517828 221.604721,249.926802 221.994384,250.351877 C 222.417064,250.812969 222.857695,251.293006 223.314149,251.788883 C 223.790341,252.306203 224.283754,252.840762 224.791972,253.389034 C 225.331376,253.97095 225.887458,254.568314 226.457329,255.176909 C 227.02663,255.784896 227.609693,256.404092 228.203637,257.030294 C 228.800012,257.659058 229.407357,258.294886 230.022757,258.933522 C 230.624893,259.558393 231.23474,260.185952 231.849568,260.812214 C 232.4587,261.432674 233.072721,262.051861 233.688975,262.665898 C 234.286267,263.261042 234.885657,263.851348 235.484726,264.433287 C 240.210712,269.024137 244.916736,273.094272 248.41556,274.91097 m 0,0 C 248.503316,274.956535 248.590683,275.00156 248.677663,275.046051 C 248.81544,275.116525 248.952245,275.185658 249.088083,275.253473 C 249.271872,275.345227 249.45389,275.434569 249.634147,275.521555 C 249.862525,275.631762 250.088076,275.738188 250.310821,275.840947 C 250.565182,275.958292 250.815884,276.070855 251.062957,276.178808 C 251.344522,276.301832 251.621374,276.418868 251.893558,276.53017 C 252.204629,276.657374 252.509603,276.777088 252.808546,276.88969 C 253.132838,277.01184 253.450033,277.125621 253.760216,277.231515 C 254.083986,277.342047 254.400116,277.443986 254.708703,277.537881 C 255.031074,277.63597 255.345214,277.72528 255.651232,277.806436 C 255.959036,277.888066 256.258623,277.961446 256.550106,278.027214 C 256.846019,278.093981 257.133579,278.152903 257.412904,278.204645 C 257.679092,278.253953 257.937801,278.296741 258.189133,278.333585 C 258.44522,278.371126 258.693648,278.402496 258.934525,278.428305 C 259.17792,278.454384 259.413605,278.474784 259.641692,278.490135 C 261.752955,278.632232 263.213144,278.341706 264.11029,278.11742 m 0,0 C 264.124466,278.113876 264.138607,278.110268 264.152713,278.106598 C 264.184729,278.098268 264.216566,278.089615 264.248229,278.080652 C 264.292043,278.068249 264.335525,278.055252 264.378689,278.041693 C 264.42557,278.026966 264.472076,278.011576 264.518225,277.995565 C 264.578519,277.974647 264.638205,277.952669 264.697325,277.929723 C 264.770668,277.901257 264.843139,277.871302 264.914819,277.840035 C 264.993786,277.805589 265.071792,277.769551 265.148944,277.732157 C 265.22524,277.695178 265.300701,277.656873 265.37543,277.617472 C 265.454569,277.575746 265.532887,277.53279 265.610507,277.488876 C 265.694478,277.441368 265.777632,277.392739 265.860125,277.343333 C 265.944761,277.292643 266.028701,277.241135 266.112113,277.189181 C 266.197481,277.136009 266.282295,277.08237 266.366735,277.028662 C 266.450732,276.975236 266.534359,276.921743 266.617793,276.868574 C 266.698415,276.817197 266.778857,276.766123 266.859279,276.715706 C 266.937533,276.666648 267.015768,276.618212 267.09413,276.570724 C 267.815385,276.133644 268.547477,275.77689 269.40515,275.75477 m 0,0 C 269.414707,275.754523 269.424247,275.754285 269.43377,275.754057 C 269.463836,275.753336 269.493735,275.752705 269.523471,275.752166 C 269.580828,275.751125 269.63758,275.750423 269.693758,275.750064 C 269.766779,275.749597 269.83883,275.749709 269.90998,275.750408 C 270.003466,275.751327 270.095396,275.753259 270.185925,275.756222 C 270.289384,275.759608 270.391013,275.764341 270.491046,275.770449 C 270.599502,275.777071 270.706081,275.785308 270.811079,275.795195 C 270.930848,275.806473 271.048561,275.819897 271.164656,275.835519 C 271.28199,275.851308 271.397672,275.869341 271.512156,275.889672 C 271.636633,275.911778 271.759694,275.9366 271.881922,275.964207 C 272.013108,275.993837 272.143335,276.026674 272.273324,276.062803 C 272.404267,276.099197 272.534968,276.138931 272.666165,276.182091 C 272.790547,276.223009 272.915375,276.267006 273.041277,276.314155 C 273.165771,276.360777 273.291315,276.410481 273.418517,276.463338 C 273.536922,276.51254 273.656764,276.564474 273.778532,276.619197 C 274.987565,277.162543 276.386504,277.980848 278.45494,279.12998 m 0,0 C 278.486836,279.1477 278.518517,279.165395 278.549986,279.183065 C 278.592395,279.206877 278.634419,279.230643 278.676065,279.254361 C 278.754223,279.298874 278.831051,279.343219 278.906598,279.387385 C 278.99315,279.437985 279.07802,279.488351 279.161281,279.538467 C 279.266083,279.601548 279.368336,279.664233 279.468186,279.726492 C 279.594127,279.805019 279.716246,279.882867 279.834835,279.959974 C 279.970527,280.048201 280.101598,280.135458 280.228487,280.221652 C 280.370625,280.318204 280.507516,280.413423 280.639777,280.507178 C 280.782489,280.608341 280.91981,280.707799 281.052516,280.805389 C 281.196164,280.911025 281.334404,281.014472 281.468218,281.115521 C 281.605543,281.219222 281.738208,281.320398 281.867275,281.418824 C 282.002239,281.521747 282.133269,281.621663 282.26158,281.718315 C 282.389874,281.814955 282.51545,281.908332 282.639522,281.998189 C 282.762643,282.087357 282.884283,282.173059 283.005628,282.255044 C 283.123204,282.334482 283.240503,282.41043 283.358606,282.48266 C 284.458058,283.155073 285.627129,283.505264 287.73677,283.34899 m 0,0 C 287.773222,283.34629 287.809555,283.343676 287.845771,283.341146 C 287.919869,283.335969 287.993477,283.331141 288.066609,283.326636 C 288.153791,283.321266 288.240296,283.316355 288.326147,283.311859 C 288.446039,283.30558 288.564657,283.300112 288.682066,283.295334 C 288.834149,283.289145 288.984204,283.284115 289.132371,283.279983 C 289.299289,283.275329 289.463811,283.271815 289.626139,283.269071 C 289.803899,283.266066 289.979028,283.263983 290.151791,283.262335 C 290.336639,283.260572 290.518778,283.259307 290.698532,283.257943 C 290.882683,283.256545 291.064331,283.255043 291.243825,283.252795 C 291.429601,283.250468 291.613069,283.247341 291.794617,283.242702 C 291.972211,283.238164 292.147967,283.232179 292.322247,283.224081 C 292.498384,283.215897 292.673013,283.205554 292.846507,283.192365 C 293.020454,283.179141 293.19326,283.163056 293.365302,283.143416 C 293.538091,283.123691 293.710109,283.10038 293.881738,283.07278 C 294.052771,283.045276 294.223418,283.013513 294.394056,282.976796 C 295.864166,282.660465 297.333604,281.976422 299.04373,280.48006 m 0,0 C 299.072082,280.455252 299.100591,280.430353 299.129254,280.405366 C 299.165849,280.373464 299.202695,280.341418 299.239787,280.309233 C 299.301051,280.256074 299.362985,280.202536 299.425564,280.148642 C 299.522133,280.065475 299.620237,279.98146 299.71978,279.896684 C 299.852143,279.783957 299.98705,279.669882 300.124276,279.554662 C 300.296546,279.410018 300.472471,279.263569 300.651605,279.115714 C 300.850198,278.951797 301.052736,278.786152 301.258612,278.619323 C 301.466855,278.450575 301.678514,278.280615 301.89296,278.110005 C 302.122406,277.927461 302.355043,277.744174 302.590102,277.560832 C 302.838615,277.366996 303.089835,277.173099 303.342853,276.979955 C 303.60157,276.782461 303.862166,276.585754 304.12367,276.390706 C 304.39432,276.188836 304.665943,275.988742 304.937461,275.791389 C 305.206789,275.595628 305.476013,275.402564 305.744083,275.21314 C 306.012736,275.023304 306.280229,274.837123 306.545504,274.655545 C 306.803158,274.479184 307.058719,274.307165 307.311218,274.140357 C 309.609218,272.622237 311.653589,271.53575 312.71333,271.53575 m 0,0 C 312.735775,271.53575 312.758235,271.53572 312.780711,271.535661 C 312.818206,271.535563 312.855744,271.535385 312.893328,271.535136 C 312.944179,271.534799 312.995114,271.534333 313.046137,271.533759 C 313.110781,271.533031 313.175567,271.53213 313.240505,271.5311 C 313.319088,271.529853 313.397894,271.528417 313.47694,271.526869 C 313.571435,271.525019 313.666274,271.52301 313.761488,271.520974 C 313.872166,271.518608 313.98335,271.516207 314.095089,271.513979 C 314.213699,271.511614 314.332935,271.509445 314.452854,271.507722 C 314.574971,271.505968 314.697796,271.504676 314.82139,271.504111 C 314.948507,271.50353 315.076437,271.503718 315.205247,271.504962 C 315.329029,271.506157 315.453624,271.508327 315.57909,271.511728 C 315.708617,271.515239 315.839073,271.520061 315.970522,271.526475 C 316.105014,271.533037 316.240546,271.541266 316.377188,271.551461 C 316.510025,271.561373 316.64391,271.573143 316.778907,271.587049 C 316.903078,271.599839 317.02819,271.614436 317.154293,271.631054 C 318.282943,271.779789 319.490939,272.090441 320.81384,272.71708 m 0,0 C 320.834682,272.726952 320.855417,272.736882 320.876047,272.746868 C 320.923345,272.769762 320.970091,272.792951 321.016308,272.816424 C 321.081558,272.849563 321.145753,272.883268 321.208957,272.917507 C 321.292377,272.962697 321.374071,273.008818 321.454188,273.055797 C 321.549418,273.111639 321.642419,273.168693 321.73344,273.226839 C 321.838541,273.293979 321.941002,273.362574 322.041206,273.432437 C 322.150697,273.508775 322.257493,273.586627 322.362095,273.665749 C 322.479067,273.754228 322.593294,273.844296 322.705476,273.935612 C 322.827039,274.034564 322.9462,274.134981 323.063849,274.236429 C 323.189737,274.344982 323.313894,274.454716 323.437408,274.5651 C 323.560799,274.675373 323.683549,274.786295 323.806744,274.897335 C 323.930443,275.008829 324.05459,275.120443 324.180286,275.23164 C 324.303272,275.34044 324.427741,275.448841 324.554722,275.55634 C 324.672059,275.655674 324.791541,275.754239 324.913981,275.851637 C 325.034233,275.947294 325.157338,276.041826 325.284066,276.134858 C 326.358554,276.923643 327.693492,277.604548 329.75815,277.94866 m 0,0 C 329.808778,277.957098 329.860081,277.964996 329.912046,277.97236 C 329.996931,277.984389 330.083581,277.994993 330.171939,278.004199 C 330.306239,278.018192 330.444484,278.028954 330.58647,278.036579 C 330.757392,278.045758 330.933735,278.05039 331.115142,278.050638 C 331.327089,278.050928 331.54595,278.045233 331.771157,278.033812 C 332.024865,278.020946 332.286627,278.000813 332.555631,277.973782 C 332.824217,277.946793 333.100022,277.912929 333.382239,277.872557 C 333.688949,277.828681 334.003232,277.777119 334.324051,277.718344 C 334.656528,277.657433 334.996025,277.588775 335.341388,277.512895 C 335.703179,277.433406 336.071407,277.345992 336.444745,277.251258 C 336.834614,277.152329 337.230056,277.045417 337.62956,276.931211 C 338.044067,276.812716 338.462947,276.686369 338.884511,276.552939 C 339.317884,276.415771 339.754094,276.271117 340.191308,276.119813 C 340.617907,275.972183 341.045461,275.818221 341.472267,275.658705 C 341.887857,275.503381 342.302738,275.34279 342.715337,275.177649 C 346.270039,273.754895 349.655383,271.994409 351.86579,270.35443 m 0,0 C 351.902411,270.32726 351.93947,270.299676 351.976961,270.271684 C 352.051418,270.216092 352.127577,270.158891 352.205386,270.100123 C 352.314986,270.017344 352.42786,269.931457 352.543863,269.84258 C 352.700177,269.722819 352.862171,269.59763 353.029489,269.467304 C 353.230667,269.310605 353.439541,269.146481 353.655492,268.975438 C 353.90705,268.776192 354.168211,268.567558 354.437995,268.350336 C 354.737735,268.108994 355.04812,267.857051 355.367806,267.595605 C 355.723591,267.304636 356.090897,267.001897 356.467871,266.688902 C 356.862415,266.361318 357.26755,266.0225 357.681152,265.674183 C 358.116655,265.307422 358.561545,264.930129 359.013344,264.54433 C 359.473593,264.151316 359.941012,263.749475 360.412981,263.340949 C 360.878212,262.938255 361.347864,262.529065 361.819426,262.115432 C 362.288039,261.704386 362.758539,261.288951 363.228462,260.871141 C 363.667365,260.480911 364.105765,260.088609 364.541656,259.695876 C 364.967754,259.311966 365.391454,258.927644 365.810882,258.544441 C 369.783366,254.915049 373.372594,251.386098 374.98598,249.25936 m 0,0 C 374.997118,249.244678 375.008373,249.229835 375.019744,249.214832 C 378.798847,244.228686 395.417148,221.541621 399.11874,207.91302 m 0,0 C 402.83148,194.24341 408.40058,172.81082 407.89429,164.20403 m 0,0 C 407.38801,155.59724 406.71297,135.00845 402.83148,124.88282 m 0,0 C 398.94998,114.75719 387.3055,99.231214 380.72384,93.493355 m 0,0 C 374.14218,87.755496 356.0848,77.461101 338.70246,75.604735 m 0,0 C 321.32012,73.748368 300.60396,72.496284 286.89297,73.579608 m 0,0 C 284.16177,73.795404 281.59215,73.994444 281.27642,73.982783 " id="path846" sodipodi:nodetypes="ccsssssssssssssssssssssssc"/>
    <path style="fill:none;stroke:#b42d2d;stroke-width:1px;stroke-linecap:butt;stroke-linejoin:miter;stroke-opacity:1" d="m 252.50597,86.27685  C 252.50597,86.27685 264.43914,95.346062 280.19093,94.749403 m 0,0 C 295.94272,94.152745 313.48449,92.959428 319.9284,89.976134 m 0,0 C 326.37232,86.99284 331.38425,82.577566 333.29356,81.384248 " id="path848" sodipodi:nodetypes="cssc"/>
  </g>
  <g inkscape:groupmode="layer" id="layer2" inkscape:label="vectorVetka" style="display:inline" transform="translate(-188.14544,-11.900563)">
    <path style="fill:none;fill-opacity:1;stroke:#5e3a2a;stroke-width:1px;stroke-linecap:butt;stroke-linejoin:miter;stroke-opacity:1" d="m 286.55544,94.463728  C 284.69881,88.089275 282.68565,83.879717 277.12691,75.817823 m 0,0 C 268.4014,63.075885 260.15001,54.149514 259.72251,52.653297 m 0,0 C 259.04746,50.290652 257.46055,47.532753 256.3473,47.928001 m 0,0 C 254.33066,48.643991 246.21494,50.877071 248.40883,54.927325 m 0,0 C 250.60272,58.977578 254.98874,57.22855 254.98874,57.22855 m 0,0 C 254.98874,57.22855 273.72964,74.971882 280.48006,94.716869 " id="path851" sodipodi:nodetypes="ccssscc"/>
  </g>
  <g inkscape:groupmode="layer" id="layer3" inkscape:label="vectorListok" style="display:inline" transform="translate(-188.14544,-11.900563)">
    <path style="fill:none;fill-opacity:1;stroke:#2f7029;stroke-width:1px;stroke-linecap:butt;stroke-linejoin:miter;stroke-opacity:1" d="m 275.92482,74.194511  C 275.50716,74.164681 274.46301,75.119332 275.23866,76.431981 m 0,0 C 276.01432,77.74463 276.61098,78.520287 277.77446,77.893795 m 0,0 C 278.93795,77.267303 287.17467,66.302232 288.3272,66.323114 m 0,0 C 289.60853,66.346324 298.26969,67.959427 307.21957,67.303103 m 0,0 C 316.16945,66.646778 328.46062,64.856802 333.65155,62.171838 m 0,0 C 338.84248,59.486874 351.43198,53.102625 355.60859,49.045346 m 0,0 C 359.7852,44.988067 372.91169,30.310263 374.10501,27.684964 m 0,0 C 375.29833,25.059666 376.99881,21.24105 376.87948,20.405728 m 0,0 C 376.76015,19.570406 374.70167,18.019093 372.43437,17.183771 m 0,0 C 370.16706,16.348449 359.66587,12.171838 351.43198,12.410501 m 0,0 C 343.19809,12.649165 336.39618,13.126492 329.95227,15.274463 m 0,0 C 323.50835,17.422434 312.64917,22.195704 305.13127,29.236277 m 0,0 C 297.61337,36.27685 293.43675,39.976134 290.69212,44.988067 m 0,0 C 287.94749,50 286.39618,57.756563 286.03819,60.620525 m 0,0 C 285.68019,63.484487 286.92294,63.76534 285.25229,65.197321 m 0,0 C 283.58165,66.629302 277.14797,73.806683 275.92482,74.194511 m 0,0 Z " id="path853"/>
    <path style="fill:none;stroke:#2f7029;stroke-width:1px;stroke-linecap:butt;stroke-linejoin:miter;stroke-opacity:1" d="m 288.18616,63.245823  C 288.18616,63.245823 311.69451,47.016706 319.80907,44.272076 m 0,0 C 327.92363,41.527446 366.22912,22.315036 368.49642,21.599045 " id="path881"/>
  </g>
</svg>