<svg xmlns:dc="http://purl.org/dc/elements/1.1/" xmlns:cc="http://creativecommons.org/ns#" xmlns:rdf="http://www.w3.org/1999/02/22-rdf-syntax-ns#" xmlns:svg="http://www.w3.org/2000/svg" xmlns="http://www.w3.org/2000/svg" xmlns:sodipodi="http://sodipodi.sourceforge.net/DTD/sodipodi-0.dtd" xmlns:inkscape="http://www.inkscape.org/namespaces/inkscape" version="1.1" id="svg833" width="220.28174" height="271.98315" viewBox="0 0 220.28174 271.98315" sodipodi:docname="appleWithoutBackground.svg" inkscape:version="1.0.2 (e86c870879, 2021-01-15, custom)">
  <metadata id="metadata839">
    <rdf:RDF>
      <cc:Work rdf:about="">
        <dc:format>image/svg+xml</dc:format>
        <dc:type rdf:resource="http://purl.org/dc/dcmitype/StillImage"/>
        <dc:title/>
      </cc:Work>
    </rdf:RDF>
  </metadata>
  <defs id="defs837"/>
  <sodipodi:namedview pagecolor="#ffffff" bordercolor="#666666" borderopacity="1" objecttolerance="10" gridtolerance="10" guidetolerance="10" inkscape:pageopacity="0" inkscape:pageshadow="2" inkscape:window-width="1849" inkscape:window-height="1057" id="namedview835" showgrid="false" inkscape:zoom="0.74069435" inkscape:cx="-166.91494" inkscape:cy="88.863331" inkscape:window-x="63" inkscape:window-y="-8" inkscape:window-maximized="1" inkscape:current-layer="layer2" fit-margin-top="0" fit-margin-left="0" fit-margin-right="0" fit-margin-bottom="0"/>
  <g inkscape:groupmode="layer" id="layer1" inkscape:label="vectorApple" style="display:inline" transform="translate(-188.14544,-11.900563)">
    <path style="fill:none;fill-opacity:1;stroke:#b42d2d;stroke-width:1px;stroke-linecap:butt;stroke-linejoin:miter;stroke-opacity:1" d="m 270.37027,75.596556  C 269.81883,75.67513 267.99178,75.94226 267.99178,75.94226 m 0,0 C 267.99178,75.94226 267.99029,75.94248 267.98733,75.94291 C 267.98126,75.9438 267.969,75.9456 267.95073,75.94829 C 267.92578,75.95196 267.88961,75.95728 267.84267,75.9642 C 267.78071,75.97333 267.69998,75.98525 267.6015,75.99983 C 267.48444,76.01715 267.34229,76.03823 267.17674,76.06286 C 266.98559,76.0913 266.76325,76.12446 266.51233,76.16202 C 266.23533,76.20349 265.92351,76.25032 265.58038,76.30208 C 265.2141,76.35733 264.81215,76.41819 264.3788,76.48413 C 263.92089,76.55381 263.42792,76.62916 262.90494,76.70955 C 262.3423,76.79604 261.74492,76.88837 261.11909,76.98575 C 260.48374,77.08461 259.81907,77.18869 259.13165,77.29716 C 258.47656,77.40052 257.80081,77.50787 257.11008,77.6185 C 256.42228,77.72866 255.71964,77.84207 255.00777,77.95804 C 254.34199,78.0665 253.66814,78.17719 252.99081,78.28954 C 252.32746,78.39957 251.66078,78.51119 250.99508,78.62387 C 250.35401,78.73238 249.71386,78.84186 249.07847,78.95184 C 248.47282,79.05667 247.8715,79.16196 247.27785,79.26728 C 246.70509,79.3689 246.13946,79.47055 245.58397,79.57186 C 245.06458,79.66659 244.55405,79.76102 244.05484,79.85484 C 243.58379,79.94337 243.12282,80.03136 242.67398,80.11856 C 239.68344,80.69958 237.23151,81.24539 235.92727,81.68012 m 0,0 C 235.89107,81.69219 235.85449,81.70461 235.81754,81.71737 C 235.72718,81.74858 235.63459,81.78185 235.53985,81.81712 C 235.40876,81.86593 235.27355,81.91858 235.13444,81.9749 C 234.96522,82.04341 234.79022,82.11735 234.60983,82.19643 C 234.39691,82.28976 234.17648,82.39025 233.94915,82.49741 C 233.69725,82.61615 233.43688,82.74309 233.16889,82.87756 C 232.85522,83.03495 232.53111,83.20267 232.19791,83.37966 C 231.81707,83.58196 231.42436,83.79636 231.0218,84.0213 C 230.5989,84.25761 230.16513,84.50554 229.72285,84.76327 C 229.27604,85.02364 228.82054,85.29401 228.35877,85.5725 C 227.89095,85.85463 227.4167,86.14509 226.93853,86.44192 C 226.44846,86.74614 225.95428,87.05705 225.45869,87.37255 C 224.95714,87.69184 224.45415,88.01583 223.95254,88.34233 C 223.44897,88.6701 222.94679,89.0004 222.44883,89.33102 C 221.97418,89.64617 221.50336,89.96161 221.03885,90.27542 C 220.59458,90.57556 220.15607,90.87421 219.72548,91.1697 C 219.32223,91.44643 218.92592,91.72039 218.53833,91.9902 C 218.18188,92.23833 217.8328,92.48295 217.49247,92.72299 C 217.17967,92.94361 216.87426,93.16036 216.57731,93.37241 C 216.3061,93.56608 216.04194,93.75583 215.78565,93.94102 C 214.20471,95.08339 212.92317,96.05252 212.13203,96.69981 m 0,0 C 212.09862,96.72715 212.06486,96.75515 212.03077,96.78379 C 211.96132,96.84214 211.89048,96.90318 211.8183,96.96683 C 211.72448,97.04957 211.6284,97.13673 211.53018,97.22816 C 211.40504,97.34465 211.27643,97.46806 211.14459,97.59808 C 210.99104,97.7495 210.83311,97.90988 210.67119,98.07872 C 210.48719,98.27057 210.29804,98.47333 210.1043,98.68626 C 209.89296,98.91854 209.67616,99.16292 209.45464,99.41843 C 209.21233,99.69792 208.96438,99.99073 208.71175,100.2956 C 208.44855,100.61323 208.18027,100.94394 207.90801,101.28631 C 207.63283,101.63234 207.35358,101.99028 207.07139,102.35865 C 206.78588,102.73136 206.49736,103.11475 206.207,103.50729 C 205.93091,103.88053 205.65315,104.26204 205.37474,104.65051 C 205.09835,105.03616 204.8213,105.42867 204.54459,105.82674 C 204.27766,106.21074 204.01105,106.59992 203.74563,106.99313 C 203.48914,107.37311 203.23376,107.75686 202.98029,108.14332 C 202.73091,108.52355 202.48338,108.90641 202.23846,109.29091 C 202.00767,109.65323 201.7792,110.01701 201.55368,110.38141 C 201.34143,110.72438 201.13179,111.0679 200.9253,111.41128 C 200.73389,111.72957 200.54519,112.04775 200.35961,112.36525 C 200.18867,112.65771 200.02038,112.9496 199.85507,113.24049 C 198.78671,115.12042 197.84282,116.9586 197.11234,118.63868 m 0,0 C 197.08196,118.70855 197.05146,118.77952 197.02084,118.85158 C 196.95847,118.99837 196.89561,119.14966 196.83229,119.30526 C 196.74831,119.51164 196.66353,119.7256 196.57805,119.9467 C 196.48804,120.17952 196.39724,120.42026 196.30576,120.6684 C 196.19532,120.96796 196.08389,121.2783 195.97166,121.59851 C 195.84214,121.96805 195.71155,122.35073 195.58017,122.74515 C 195.42724,123.20426 195.27324,123.67928 195.11862,124.168 C 194.94268,124.7241 194.76593,125.29793 194.58903,125.88624 C 194.40372,126.50254 194.21825,127.13473 194.03337,127.77906 C 193.84567,128.43323 193.65858,129.09992 193.47289,129.77521 C 193.28417,130.46155 193.0969,131.15677 192.91191,131.85676 C 192.72991,132.54545 192.55012,133.23876 192.37333,133.93276 C 192.198,134.62104 192.02562,135.31001 191.85697,135.99584 C 191.69005,136.67462 191.52678,137.35033 191.36791,138.01926 C 191.21443,138.66549 191.06506,139.30539 190.92047,139.93563 C 190.78426,140.52932 190.65229,141.11444 190.52513,141.68818 C 190.40468,142.23166 190.28855,142.76493 190.17721,143.28562 C 190.07633,143.75738 189.97939,144.21882 189.88674,144.66817 C 189.80025,145.08765 189.7175,145.49659 189.63878,145.89356 C 189.56632,146.25896 189.49727,146.61422 189.43186,146.95821 C 188.98828,149.29122 188.71221,151.10607 188.67432,152.05327 m 0,0 C 188.6728,152.09124 188.67134,152.13137 188.66993,152.17363 C 188.66706,152.25971 188.66443,152.35462 188.66207,152.45809 C 188.659,152.59258 188.65638,152.74152 188.65426,152.90431 C 188.65151,153.11497 188.6496,153.34882 188.64865,153.60457 C 188.64755,153.90149 188.64774,154.22793 188.6494,154.58184 C 188.65129,154.983 188.65507,155.41946 188.66102,155.88825 C 188.6675,156.39867 188.67655,156.94742 188.68852,157.53068 C 188.70159,158.16753 188.71814,158.84551 188.73863,159.55965 C 188.75979,160.29712 188.78514,161.07314 188.81519,161.88222 C 188.84683,162.73404 188.88368,163.62251 188.92632,164.54122 C 188.96918,165.46468 189.01789,166.4187 189.07304,167.39677 C 189.12805,168.37229 189.18947,169.37173 189.25789,170.38865 C 189.32449,171.37841 189.39772,172.38472 189.47812,173.40164 C 189.5567,174.39554 189.64214,175.39956 189.73494,176.40816 C 189.82522,177.38936 189.92246,178.37488 190.02714,179.35961 C 190.12825,180.31084 190.2363,181.26133 190.35171,182.20647 C 190.45877,183.08325 190.57216,183.95543 190.69222,184.81932 C 190.80331,185.61867 190.9201,186.41093 191.04287,187.19319 C 191.15434,187.90348 191.27074,188.60552 191.39226,189.29713 C 191.5034,189.92965 191.61883,190.55344 191.73869,191.16684 C 192.4206,194.65642 193.24616,197.80955 194.24341,200.31879 m 0,0 C 194.27742,200.40435 194.31177,200.4905 194.34646,200.57722 C 194.42068,200.76279 194.49645,200.95099 194.57372,201.14173 C 194.68528,201.41712 194.79998,201.6978 194.91768,201.98348 C 195.08358,202.38616 195.25544,202.79878 195.4329,203.22055 C 195.65475,203.74781 195.88535,204.28936 196.12398,204.84364 C 196.41093,205.51016 196.70949,206.19508 197.01841,206.89569 C 197.34983,207.64731 197.69317,208.41699 198.0469,209.20137 C 198.41925,210.02704 198.80311,210.869 199.19668,211.72333 C 199.60727,212.6146 200.02843,213.51934 200.45812,214.4331 C 200.88985,215.35121 201.33019,216.27843 201.77707,217.21025 C 202.2273,218.14906 202.68417,219.09254 203.14556,220.03608 C 203.6129,220.99179 204.08487,221.94757 204.55928,222.89862 C 205.02701,223.83628 205.49711,224.76934 205.96747,225.69321 C 206.42087,226.58377 206.87451,227.46579 207.3265,228.33516 C 207.76238,229.17355 208.19673,230.00017 208.62786,230.81134 C 209.03335,231.57428 209.43599,232.32356 209.83437,233.0561 C 210.21111,233.74885 210.58403,234.42663 210.95195,235.08685 C 211.28486,235.68424 211.61367,236.26725 211.9375,236.83396 C 212.24421,237.37072 212.54645,237.89285 212.84348,238.39873 C 213.12289,238.87461 213.39768,239.3361 213.66723,239.78184 C 215.39436,242.63789 216.90626,244.84747 218.03865,246.05291 m 0,0 C 218.07527,246.09189 218.11244,246.13152 218.15015,246.17178 C 218.23573,246.26317 218.32409,246.35783 218.41515,246.45566 C 218.54116,246.59103 218.67235,246.73246 218.80851,246.87966 C 218.9564,247.03953 219.11016,247.20621 219.26954,247.37932 C 219.47777,247.60549 219.69558,247.84265 219.92241,248.08996 C 220.20381,248.39676 220.49909,248.71919 220.80716,249.05566 C 221.14655,249.42633 221.50147,249.81404 221.87046,250.21667 C 222.23536,250.61483 222.61402,251.02758 223.00504,251.45288 C 223.41914,251.90327 223.8471,252.36773 224.28725,252.84382 C 224.76342,253.35886 225.25386,253.88751 225.75646,254.4267 C 226.27212,254.9799 226.80058,255.54418 227.33956,256.11622 C 227.89118,256.70167 228.45381,257.29524 229.02502,257.89337 C 229.59323,258.48836 230.16992,259.08786 230.75269,259.68836 C 231.31582,260.26862 231.88463,260.84982 232.45694,261.42878 C 233.01382,261.99213 233.57402,262.55336 234.13554,263.10956 C 234.65495,263.62405 235.17549,264.13423 235.69557,264.63778 C 236.19364,265.12002 236.69129,265.59619 237.18713,266.06426 C 237.66716,266.5174 238.1455,266.96295 238.62088,267.39907 C 239.06285,267.80454 239.50227,268.20185 239.93812,268.58953 C 240.34746,268.95363 240.75365,269.30923 241.15585,269.6551 C 243.83562,271.9596 246.33834,273.83242 248.41556,274.91097 m 0,0 C 248.4726,274.94059 248.52948,274.96998 248.58619,274.99914 C 248.68588,275.0504 248.78506,275.10096 248.88374,275.15083 C 249.05338,275.23656 249.22153,275.32025 249.38819,275.40194 C 249.5801,275.496 249.77005,275.58741 249.95804,275.67623 C 250.20802,275.79434 250.45454,275.90788 250.69763,276.017 C 251.0028,276.15399 251.30257,276.28402 251.59699,276.4074 C 251.9234,276.54418 252.24323,276.67279 252.55656,276.79364 C 252.87039,276.91468 253.1777,277.02795 253.47857,277.13386 C 253.80101,277.24737 254.11605,277.35243 254.42378,277.44956 C 254.72415,277.54437 255.01756,277.63163 255.30409,277.71182 C 255.60342,277.79559 255.89524,277.87165 256.17965,277.94054 C 256.45557,278.00738 256.72452,278.06748 256.98658,278.12134 C 257.26135,278.17781 257.52855,278.22742 257.78828,278.27075 C 258.03755,278.31234 258.27994,278.34815 258.51555,278.37869 C 258.74879,278.40892 258.97538,278.43399 259.19541,278.4544 C 259.41545,278.47481 259.62893,278.49055 259.83593,278.50212 C 260.03662,278.51334 260.23122,278.52064 260.41982,278.52448 C 260.60144,278.52818 260.77748,278.52867 260.94802,278.52635 C 261.10957,278.52415 261.26618,278.51943 261.41792,278.51254 C 261.56192,278.506 261.70153,278.4975 261.8368,278.48734 C 262.81486,278.41387 263.56614,278.25346 264.11029,278.11742 m 0,0 C 264.12345,278.11413 264.13658,278.11078 264.14968,278.10738 C 264.17972,278.09959 264.2096,278.09151 264.23933,278.08316 C 264.2813,278.07137 264.32297,278.05903 264.36435,278.04617 C 264.41802,278.02949 264.4712,278.01194 264.52391,277.99358 C 264.5859,277.97199 264.64725,277.94928 264.708,277.92556 C 264.77941,277.89767 264.84999,277.86838 264.91982,277.83784 C 265.00026,277.80267 265.0797,277.76585 265.15826,277.72763 C 265.23802,277.68882 265.31687,277.64857 265.39493,277.60714 C 265.4804,277.56178 265.56492,277.51501 265.64865,277.46717 C 265.73907,277.4155 265.82857,277.36259 265.91734,277.30886 C 266.00716,277.2545 266.09623,277.19931 266.18475,277.14374 C 266.27308,277.08829 266.36087,277.03246 266.44832,276.97669 C 266.53445,276.92176 266.62025,276.86689 266.70592,276.81251 C 266.788,276.76041 266.86995,276.70876 266.95195,276.65793 C 267.03102,276.60891 267.11013,276.56066 267.18943,276.51351 C 267.26298,276.46978 267.3367,276.427 267.4107,276.38544 C 267.48086,276.34603 267.55128,276.30772 267.62206,276.27073 C 267.68873,276.23589 267.75572,276.20222 267.82311,276.16992 C 267.88661,276.13948 267.95047,276.11025 268.01477,276.08239 C 268.07495,276.05632 268.13551,276.03145 268.1965,276.00791 C 268.57749,275.86088 268.97556,275.76585 269.40515,275.75477 m 0,0 C 269.42745,275.75419 269.44966,275.75366 269.47178,275.75318 C 269.50002,275.75257 269.52811,275.75204 269.55606,275.75159 C 269.60222,275.75085 269.64799,275.75034 269.69338,275.75005 C 269.76343,275.7496 269.83258,275.74968 269.9009,275.7503 C 269.99175,275.75113 270.08113,275.75291 270.16918,275.75566 C 270.27971,275.75912 270.38815,275.76411 270.49478,275.77066 C 270.61299,275.77792 270.72897,275.7871 270.84311,275.79825 C 270.95856,275.80953 271.07212,275.82282 271.1842,275.83816 C 271.30411,275.85458 271.42232,275.87335 271.53931,275.89453 C 271.663,275.91693 271.78533,275.94202 271.90687,275.96988 C 272.03115,275.99836 272.15461,276.02973 272.27786,276.06406 C 272.40543,276.09959 272.53277,276.1383 272.66058,276.18026 C 272.78735,276.22188 272.91458,276.26669 273.04293,276.31478 C 273.17156,276.36297 273.30131,276.41445 273.43285,276.4693 C 273.56061,276.52258 273.69007,276.57903 273.82183,276.63873 C 273.95134,276.69741 274.08308,276.75923 274.21763,276.82426 C 274.34487,276.88576 274.47462,276.95012 274.60738,277.01741 C 274.7311,277.08012 274.85743,277.14537 274.98677,277.2132 C 275.10666,277.27608 275.22914,277.34118 275.35452,277.40854 C 275.47001,277.47059 275.58796,277.53455 275.70863,277.60046 C 276.48846,278.02641 277.38155,278.53365 278.45494,279.12998 m 0,0 C 278.49595,279.15276 278.5366,279.1755 278.5769,279.1982 C 278.659,279.24444 278.73965,279.2905 278.81891,279.33638 C 278.92404,279.39723 279.02671,279.45775 279.12706,279.51791 C 279.24447,279.5883 279.35869,279.6582 279.46993,279.72757 C 279.60121,279.80944 279.72834,279.89057 279.85164,279.9709 C 279.97858,280.05359 280.10147,280.13543 280.22067,280.21633 C 280.36019,280.31102 280.49466,280.40443 280.62466,280.49644 C 280.77324,280.60161 280.91598,280.70495 281.05375,280.80627 C 281.19848,280.91271 281.33772,281.01693 281.47248,281.11871 C 281.60266,281.21703 281.72865,281.31308 281.85136,281.40666 C 281.97654,281.50212 282.09831,281.59502 282.21763,281.68515 C 282.34159,281.77878 282.46291,281.86942 282.58267,281.95684 C 282.7018,282.04381 282.81939,282.12759 282.9365,282.20796 C 283.05275,282.28775 283.16853,282.36418 283.28487,282.43703 C 283.39756,282.50759 283.51078,282.57479 283.62548,282.63844 C 283.73584,282.69968 283.84756,282.75762 283.96149,282.81209 C 284.06884,282.86342 284.17815,282.91167 284.29012,282.95668 C 284.39682,282.99957 284.50594,283.03953 284.61808,283.07643 C 284.7234,283.11108 284.8314,283.14303 284.94257,283.17217 C 285.04627,283.19935 285.15273,283.22409 285.26236,283.2463 C 285.93582,283.3827 286.72897,283.42363 287.73677,283.34899 m 0,0 C 287.76639,283.3468 287.79593,283.34466 287.82539,283.34258 C 287.88843,283.33813 287.95112,283.33393 288.01346,283.32997 C 288.10347,283.32425 288.19276,283.31902 288.28135,283.31424 C 288.37659,283.3091 288.47102,283.30448 288.56468,283.30032 C 288.69082,283.29472 288.81556,283.28995 288.93898,283.28587 C 289.09522,283.2807 289.24934,283.27663 289.4015,283.27336 C 289.57093,283.26972 289.73793,283.26708 289.90273,283.26503 C 290.08985,283.26271 290.27413,283.26115 290.45588,283.25976 C 290.64584,283.2583 290.83304,283.25703 291.01785,283.25526 C 291.20938,283.25343 291.39834,283.25106 291.58515,283.2474 C 291.77567,283.24367 291.96395,283.2386 292.15043,283.23138 C 292.32752,283.22453 292.50298,283.21574 292.67719,283.20433 C 292.85156,283.19291 293.02467,283.17886 293.1969,283.1615 C 293.3642,283.14464 293.53067,283.12465 293.69665,283.1009 C 293.85905,283.07766 294.02098,283.05082 294.18276,283.01979 C 294.34073,282.98949 294.49856,282.95519 294.65655,282.91634 C 294.8101,282.87858 294.9638,282.83653 295.11793,282.78967 C 295.26667,282.74445 295.41581,282.69476 295.56559,282.64014 C 295.70443,282.58951 295.84382,282.53465 295.98396,282.47519 C 296.11352,282.42022 296.24372,282.36132 296.37472,282.29821 C 297.21769,281.8921 298.09356,281.31147 299.04373,280.48006 m 0,0 C 299.07208,280.45525 299.10059,280.43035 299.12925,280.40536 C 299.18618,280.35574 299.24371,280.30577 299.30183,280.25547 C 299.3837,280.18461 299.46673,280.1131 299.55087,280.04099 C 299.66424,279.94382 299.77962,279.84557 299.89685,279.74636 C 300.03781,279.62708 300.18145,279.50641 300.32751,279.3846 C 300.49766,279.2427 300.67109,279.09924 300.8474,278.95459 C 301.04329,278.79388 301.24274,278.6317 301.44518,278.46855 C 301.67048,278.28698 301.89949,278.10421 302.13143,277.92093 C 302.37418,277.72911 302.62015,277.53673 302.86845,277.34459 C 303.1299,277.14227 303.39393,276.94022 303.65951,276.73936 C 303.93005,276.53474 304.2022,276.33136 304.47486,276.13019 C 304.74363,275.93189 305.0129,275.73575 305.28162,275.5427 C 305.54866,275.35085 305.81515,275.16206 306.08007,274.97724 C 306.3275,274.80462 306.57356,274.63547 306.81741,274.47053 C 307.05579,274.3093 307.29206,274.1521 307.52543,273.99963 C 307.74204,273.85811 307.95616,273.72066 308.16716,273.58785 C 310.10926,272.36545 311.78726,271.53575 312.71333,271.53575 m 0,0 C 315.07598,271.53575 317.60739,271.19823 320.81384,272.71708 m 0,0 C 324.02029,274.23592 324.69533,277.10485 329.75815,277.94866 m 0,0 C 334.82097,278.79246 346.63421,274.23592 351.86579,270.35443 m 0,0 C 357.09736,266.47294 371.27325,254.15342 374.98598,249.25936 m 0,0 C 378.69872,244.3653 395.40601,221.58263 399.11874,207.91302 m 0,0 C 402.83148,194.24341 408.40058,172.81082 407.89429,164.20403 m 0,0 C 407.38801,155.59724 406.71297,135.00845 402.83148,124.88282 m 0,0 C 398.94998,114.75719 387.3055,99.23121 380.72384,93.49336 m 0,0 C 374.14218,87.7555 356.0848,77.46111 338.70246,75.60474 m 0,0 C 321.32012,73.74837 300.60396,72.49629 286.89297,73.57961 m 0,0 C 284.16177,73.79541 281.59215,73.99445 281.27642,73.98279 " id="path846" sodipodi:nodetypes="ccsssssssssssssssssssssssc"/>
    <path style="fill:none;stroke:#b42d2d;stroke-width:1px;stroke-linecap:butt;stroke-linejoin:miter;stroke-opacity:1" d="m 252.50597,86.27685  C 252.50597,86.27685 264.43914,95.34606 280.19093,94.7494 m 0,0 C 295.94272,94.15274 313.48449,92.95943 319.9284,89.97613 m 0,0 C 326.37232,86.99284 331.38425,82.57756 333.29356,81.38424 " id="path848" sodipodi:nodetypes="cssc"/>
  </g>
  <g inkscape:groupmode="layer" id="layer2" inkscape:label="vectorVetka" style="display:inline" transform="translate(-188.14544,-11.900563)">
    <path style="fill:none;fill-opacity:1;stroke:#5e3a2a;stroke-width:1px;stroke-linecap:butt;stroke-linejoin:miter;stroke-opacity:1" d="m 286.55544,94.463728  C 284.69881,88.08928 282.68565,83.87972 277.12691,75.81782 m 0,0 C 268.4014,63.07588 260.15001,54.14951 259.72251,52.65329 m 0,0 C 259.04746,50.29065 257.46055,47.53275 256.3473,47.92799 m 0,0 C 254.33066,48.64398 246.21494,50.87706 248.40883,54.92731 m 0,0 C 250.60272,58.97756 254.98874,57.22854 254.98874,57.22854 m 0,0 C 254.98874,57.22854 273.72964,74.97187 280.48006,94.71686 " id="path851" sodipodi:nodetypes="ccssscc"/>
  </g>
  <g inkscape:groupmode="layer" id="layer3" inkscape:label="vectorListok" style="display:inline" transform="translate(-188.14544,-11.900563)">
    <path style="fill:none;fill-opacity:1;stroke:#2f7029;stroke-width:1px;stroke-linecap:butt;stroke-linejoin:miter;stroke-opacity:1" d="m 275.92482,74.194511  C 275.50716,74.16468 274.46301,75.11933 275.23866,76.43198 m 0,0 C 276.01432,77.74463 276.61098,78.52029 277.77446,77.89379 m 0,0 C 278.93795,77.2673 287.17467,66.30223 288.3272,66.32311 m 0,0 C 289.60853,66.34632 298.26969,67.95942 307.21957,67.3031 m 0,0 C 316.16945,66.64678 328.46062,64.8568 333.65155,62.17184 m 0,0 C 338.84248,59.48688 351.43198,53.10263 355.60859,49.04535 m 0,0 C 359.7852,44.98807 372.91169,30.31027 374.10501,27.68497 m 0,0 C 375.29833,25.05967 376.99881,21.24106 376.87948,20.40573 m 0,0 C 376.76015,19.57041 374.70167,18.0191 372.43437,17.18377 m 0,0 C 370.16706,16.34845 359.66587,12.17184 351.43198,12.4105 m 0,0 C 343.19809,12.64916 336.39618,13.12649 329.95227,15.27446 m 0,0 C 323.50835,17.42243 312.64917,22.1957 305.13127,29.23627 m 0,0 C 297.61337,36.27684 293.43675,39.97613 290.69212,44.98806 m 0,0 C 287.94749,49.99999 286.39618,57.75656 286.03819,60.62052 m 0,0 C 285.68019,63.48448 286.92294,63.76534 285.25229,65.19732 m 0,0 C 283.58165,66.6293 277.14797,73.80668 275.92482,74.19451 m 0,0 Z " id="path853"/>
    <path style="fill:none;stroke:#2f7029;stroke-width:1px;stroke-linecap:butt;stroke-linejoin:miter;stroke-opacity:1" d="m 288.18616,63.245823  C 288.18616,63.24582 311.69451,47.01671 319.80907,44.27208 m 0,0 C 327.92363,41.52745 366.22912,22.31504 368.49642,21.59905 " id="path881"/>
  </g>
</svg>