<svg xmlns:dc="http://purl.org/dc/elements/1.1/" xmlns:cc="http://creativecommons.org/ns#" xmlns:rdf="http://www.w3.org/1999/02/22-rdf-syntax-ns#" xmlns:svg="http://www.w3.org/2000/svg" xmlns="http://www.w3.org/2000/svg" xmlns:sodipodi="http://sodipodi.sourceforge.net/DTD/sodipodi-0.dtd" xmlns:inkscape="http://www.inkscape.org/namespaces/inkscape" version="1.1" id="svg2184" width="395.776" height="657.55597" viewBox="0 0 395.776 657.55597" sodipodi:docname="exp_kolba.svg" inkscape:version="1.0.2 (e86c870879, 2021-01-15, custom)">
  <metadata id="metadata2190">
    <rdf:RDF>
      <cc:Work rdf:about="">
        <dc:format>image/svg+xml</dc:format>
        <dc:type rdf:resource="http://purl.org/dc/dcmitype/StillImage"/>
        <dc:title/>
      </cc:Work>
    </rdf:RDF>
  </metadata>
  <defs id="defs2188"/>
  <sodipodi:namedview pagecolor="#ffffff" bordercolor="#666666" borderopacity="1" objecttolerance="10" gridtolerance="10" guidetolerance="10" inkscape:pageopacity="0" inkscape:pageshadow="2" inkscape:window-width="1849" inkscape:window-height="1057" id="namedview2186" showgrid="false" inkscape:zoom="0.86327165" inkscape:cx="-5.3434751" inkscape:cy="190.911" inkscape:window-x="63" inkscape:window-y="-8" inkscape:window-maximized="1" inkscape:current-layer="layer4" fit-margin-top="0" fit-margin-left="0" fit-margin-right="0" fit-margin-bottom="0"/>
  <g inkscape:groupmode="layer" id="layer4" inkscape:label="vector" transform="translate(-106.96263,-31.653897)">
    <path style="fill:none;stroke:#000000;stroke-width:1px;stroke-linecap:butt;stroke-linejoin:miter;stroke-opacity:1" d="m 233.03427,33.378371  C 233.03427,33.37837 233.03401,33.37876 233.03348,33.37954 C 233.0324,33.38114 233.03022,33.38437 233.02698,33.38919 C 233.02255,33.39577 233.01614,33.40532 233.00783,33.41774 C 232.99686,33.43413 232.98258,33.45552 232.96518,33.48169 C 232.9445,33.51279 232.91942,33.55064 232.89028,33.59487 C 232.85663,33.64594 232.81755,33.70551 232.77355,33.77301 C 232.72498,33.84752 232.67042,33.93169 232.61055,34.02475 C 232.54664,34.12408 232.47668,34.23354 232.4015,34.35218 C 232.32206,34.47754 232.23679,34.61315 232.14668,34.75791 C 232.04973,34.91364 231.94717,35.07995 231.84023,35.25546 C 231.73166,35.43364 231.61857,35.6213 231.50223,35.81699 C 231.39136,36.00347 231.27754,36.19724 231.16188,36.39706 C 231.04671,36.59603 230.92972,36.80099 230.81199,37.0107 C 230.70188,37.20683 230.59113,37.40712 230.48063,37.61055 C 230.37241,37.80978 230.26443,38.01203 230.15753,38.21634 C 230.05459,38.41309 229.95265,38.61176 229.85246,38.81149 C 229.75695,39.00187 229.66303,39.19322 229.57135,39.38481 C 229.4829,39.56966 229.39653,39.75472 229.31283,39.93934 C 229.23457,40.11196 229.15864,40.28419 229.08551,40.4555 C 229.01651,40.61714 228.95001,40.77796 228.88641,40.9375 C 228.46265,42.00047 228.16761,43.00666 228.11966,43.82191 m 0,0 C 228.11833,43.84454 228.11702,43.86728 228.11572,43.89013 C 228.11255,43.94601 228.10949,44.00256 228.10654,44.05974 C 228.10246,44.13887 228.09861,44.21922 228.095,44.30072 C 228.09061,44.39987 228.08659,44.50073 228.08298,44.60318 C 228.07871,44.7241 228.07501,44.84724 228.07195,44.9724 C 228.06856,45.11109 228.06596,45.25227 228.06424,45.39567 C 228.06222,45.56351 228.06141,45.7344 228.06196,45.90791 C 228.06259,46.10624 228.065,46.30799 228.06942,46.51254 C 228.07407,46.72743 228.08094,46.94541 228.09029,47.16575 C 228.09974,47.38834 228.11173,47.61334 228.12653,47.83999 C 228.14152,48.06961 228.1594,48.30092 228.18046,48.53315 C 228.20204,48.77116 228.22696,49.01012 228.25553,49.2492 C 228.28444,49.49116 228.31708,49.73323 228.35378,49.97455 C 228.39062,50.21681 228.43155,50.4583 228.47689,50.69815 C 228.5201,50.92677 228.56732,51.1539 228.61883,51.37877 C 228.66809,51.59384 228.72128,51.80684 228.77863,52.0171 C 228.83234,52.21401 228.88971,52.40852 228.95094,52.60007 C 229.00725,52.77623 229.06682,52.94989 229.12981,53.12063 C 229.1877,53.27755 229.24848,53.432 229.31227,53.58365 C 229.37053,53.72216 229.4313,53.85833 229.49468,53.9919 C 229.88562,54.81585 230.37563,55.54117 230.98652,56.10843 m 0,0 C 231.01232,56.13239 231.03815,56.15625 231.06402,56.18002 C 231.11671,56.22843 231.16952,56.27645 231.22244,56.32413 C 231.29122,56.38611 231.36017,56.44751 231.42924,56.50844 C 231.51725,56.58607 231.60545,56.66293 231.69374,56.73925 C 231.79656,56.82813 231.8995,56.91627 232.00238,57.00401 C 232.11929,57.10371 232.23612,57.20289 232.35263,57.30206 C 232.47972,57.41024 232.60643,57.51841 232.73242,57.62722 C 232.87023,57.74624 233.00719,57.86603 233.14287,57.98745 C 233.28422,58.11395 233.42418,58.24222 233.56226,58.37322 C 233.70182,58.50562 233.83946,58.64082 233.97468,58.77982 C 234.11149,58.92045 234.24582,59.06497 234.37716,59.21441 C 234.50204,59.35651 234.62421,59.50306 234.74323,59.65495 C 234.86138,59.80574 234.97643,59.96179 235.08793,60.12398 C 235.19549,60.28044 235.29975,60.44261 235.40032,60.61127 C 235.49751,60.77426 235.59125,60.94331 235.68119,61.11914 C 235.76968,61.29213 235.85449,61.47167 235.93529,61.65844 C 236.01143,61.83444 236.084,62.01686 236.15273,62.20626 C 236.21741,62.38452 236.27869,62.56896 236.33632,62.76005 C 236.38974,62.93718 236.44003,63.12003 236.48701,63.30897 C 236.53028,63.48301 236.57074,63.66222 236.60824,63.84689 C 236.85059,65.04032 236.96932,66.46177 236.925,68.19017 m 0,0 C 236.92316,68.26205 236.92147,68.3388 236.91992,68.42034 C 236.91677,68.58645 236.91423,68.77244 236.91227,68.97758 C 236.90968,69.24967 236.90812,69.55546 236.90754,69.89325 C 236.90693,70.24894 236.90741,70.64012 236.90893,71.0648 C 236.91076,71.57749 236.91409,72.13902 236.91883,72.74591 C 236.92429,73.44628 236.93162,74.20705 236.94066,75.02288 C 236.95118,75.97251 236.96402,76.99674 236.97892,78.08715 C 236.99588,79.3279 237.01551,80.65432 237.03745,82.054 C 237.06043,83.52026 237.08594,85.06692 237.11356,86.67969 C 237.1416,88.31709 237.17182,90.02264 237.20377,91.7814 C 237.23624,93.56892 237.2705,95.41141 237.30608,97.29317 C 237.34109,99.14456 237.37738,101.03396 237.41452,102.94644 C 237.45135,104.84315 237.48901,106.76256 237.52706,108.6901 C 237.56472,110.59783 237.60277,112.51352 237.64079,114.42304 C 237.67752,116.26776 237.71423,118.10672 237.75053,119.92718 C 237.78473,121.64209 237.81857,123.34059 237.85174,125.01202 C 237.88316,126.59528 237.91397,128.15426 237.94391,129.6799 C 237.97104,131.06217 237.99745,132.41708 238.02295,133.73789 C 238.04675,134.97092 238.06975,136.17423 238.0918,137.34235 C 238.11209,138.41758 238.13157,139.463 238.15011,140.47433 C 238.27586,147.33325 238.35843,152.62424 238.35843,155.01489 m 0,0 C 238.35843,155.11072 238.35846,155.20926 238.35852,155.31045 C 238.35865,155.51659 238.35891,155.73375 238.35928,155.96152 C 238.35977,156.25758 238.36045,156.57157 238.36128,156.9026 C 238.36236,157.33097 238.3637,157.78787 238.36522,158.27137 C 238.36698,158.83271 238.36899,159.4299 238.37112,160.05992 C 238.37354,160.77404 238.37611,161.53034 238.37866,162.32441 C 238.38144,163.18899 238.3842,164.09835 238.38671,165.0468 C 238.38945,166.08239 238.39188,167.16458 238.39371,168.28597 C 238.3956,169.444 238.39685,170.64383 238.39713,171.87731 C 238.39743,173.17594 238.39665,174.51186 238.39441,175.87556 C 238.39216,177.2463 238.38844,178.64511 238.38285,180.06232 C 238.37728,181.47583 238.36985,182.90765 238.36018,184.34819 C 238.35077,185.75026 238.33923,187.16059 238.32521,188.57034 C 238.31151,189.94818 238.29544,191.32547 238.27667,192.69395 C 238.25841,194.02525 238.23759,195.34821 238.21391,196.65523 C 238.19103,197.91778 238.16548,199.16546 238.13698,200.39142 C 238.11054,201.5287 238.08156,202.64729 238.04982,203.74172 C 238.02045,204.75439 237.98872,205.74637 237.95445,206.71334 C 237.92334,207.59136 237.89014,208.44875 237.85471,209.28227 C 237.82231,210.04457 237.78805,210.78691 237.75183,211.50681 C 237.54578,215.60227 237.27632,218.97134 236.925,221.1573 m 0,0 C 236.91302,221.23184 236.90015,221.30884 236.8864,221.38826 C 236.85698,221.55821 236.82353,221.73926 236.78616,221.93109 C 236.7322,222.20805 236.67007,222.50748 236.60009,222.82841 C 236.50146,223.28077 236.38724,223.77585 236.25836,224.31094 C 236.09724,224.97988 235.91321,225.71136 235.70805,226.50008 C 235.46135,227.44852 235.18411,228.47974 234.87945,229.58454 C 234.55261,230.76978 234.19421,232.03971 233.80811,233.38297 C 233.40169,234.79695 232.96458,236.29219 232.50127,237.85544 C 232.01793,239.48629 231.50608,241.19115 230.97083,242.95499 C 230.43303,244.72722 229.87161,246.55899 229.29175,248.43504 C 228.70754,250.32517 228.10461,252.26025 227.48826,254.22468 C 226.86396,256.21446 226.22589,258.23435 225.57956,260.26813 C 224.94233,262.27328 224.29707,264.29194 223.64905,266.30856 C 223.0244,268.25246 222.39719,270.19448 221.77215,272.12069 C 221.16939,273.97824 220.56865,275.82109 219.97417,277.63676 C 219.41503,279.34448 218.86143,281.02815 218.31689,282.67739 C 217.80192,284.23705 217.29506,285.76592 216.79929,287.25521 C 216.3507,288.60277 215.91118,289.91793 215.48295,291.19418 C 215.07735,292.40298 214.68188,293.57687 214.29841,294.71033 C 213.93768,295.77657 213.58757,296.80703 213.24965,297.79711 C 211.08445,304.14093 209.41952,308.82682 208.66601,310.6441 m 0,0 C 208.64164,310.70287 208.61537,310.76685 208.58722,310.83596 C 208.52332,310.99283 208.44973,311.17616 208.36676,311.38511 C 208.25196,311.67424 208.1192,312.01242 207.96931,312.39743 C 207.80651,312.8156 207.6235,313.28901 207.42132,313.81481 C 207.15717,314.50177 206.86031,315.27816 206.53307,316.13763 C 206.12711,317.20387 205.67439,318.39797 205.17939,319.70779 C 204.63406,321.15077 204.03741,322.73421 203.39541,324.44188 C 202.76053,326.1306 202.0813,327.94081 201.36348,329.85683 C 200.60331,331.8859 199.79987,334.03363 198.96001,336.28139 C 198.05143,338.71307 197.10023,341.26182 196.11509,343.90404 C 195.10435,346.61492 194.05789,349.4242 192.98507,352.3064 C 191.8871,355.25619 190.76152,358.28236 189.61839,361.3576 C 188.48126,364.41669 187.32676,367.52434 186.16477,370.65367 C 185.04194,373.67755 183.91212,376.72167 182.78424,379.76177 C 181.68677,382.7199 180.59113,385.67423 179.50555,388.60241 C 178.50137,391.311 177.5058,393.99722 176.52534,396.64338 C 175.58638,399.17754 174.66128,401.67496 173.75575,404.12011 C 172.87909,406.48728 172.02078,408.80546 171.186,411.06055 C 170.40989,413.15716 169.65412,415.19924 168.92285,417.17545 C 168.23607,419.03145 167.5709,420.82936 166.9308,422.55979 C 162.66593,434.08937 159.51398,442.62338 158.49607,445.38624 m 0,0 C 158.46812,445.46211 158.43922,445.54067 158.40938,445.62189 C 158.35692,445.76465 158.30156,445.91562 158.24336,446.07462 C 158.14331,446.34795 158.03486,446.64501 157.91835,446.96487 C 157.78418,447.33319 157.63932,447.73175 157.48426,448.15914 C 157.27808,448.72744 157.05386,449.3467 156.81278,450.01362 C 156.51014,450.85085 156.18092,451.76318 155.82744,452.74406 C 155.43556,453.83149 155.01387,455.00316 154.56551,456.25014 C 154.11644,457.49909 153.64062,458.82359 153.14122,460.21466 C 152.60601,461.70549 152.04372,463.27279 151.45824,464.9055 C 150.88676,466.49917 150.29319,468.15516 149.68116,469.86319 C 149.04179,471.64752 148.38227,473.48865 147.70674,475.37487 C 147.05136,477.20482 146.38091,479.0772 145.69916,480.98132 C 144.98435,482.97779 144.25712,485.00915 143.52182,487.06307 C 142.81615,489.03425 142.10305,491.02621 141.38636,493.02804 C 140.67686,495.0098 139.96385,497.00124 139.25106,498.99179 C 138.53822,500.98247 137.8256,502.97226 137.11694,504.95058 C 136.42988,506.86859 135.74653,508.77582 135.0703,510.66263 C 134.41909,512.47963 133.77448,514.27769 133.13952,516.0482 C 132.53805,517.72531 131.94523,519.37771 131.36364,520.99807 C 130.81172,522.53577 130.26992,524.04462 129.74044,525.51837 C 125.91207,536.17421 122.7279,544.99494 121.02219,549.61685 m 0,0 C 120.98093,549.72866 120.93965,549.84056 120.89836,549.95256 C 120.80368,550.20933 120.70892,550.46659 120.6141,550.72432 C 120.48023,551.08819 120.34625,551.453 120.21221,551.81868 C 120.03835,552.29299 119.8644,552.76877 119.6905,553.24587 C 119.48599,553.80695 119.28154,554.36987 119.07738,554.9344 C 118.83741,555.59794 118.59784,556.26371 118.35902,556.93134 C 118.08393,557.70038 117.80985,558.47189 117.53733,559.24532 C 117.26064,560.03058 116.98556,560.81782 116.71267,561.60646 C 116.41388,562.46995 116.11772,563.33511 115.82494,564.20118 C 115.50874,565.13654 115.19649,566.07297 114.88915,567.0095 C 114.57819,567.95706 114.27226,568.90473 113.97235,569.85151 C 113.6731,570.79621 113.37984,571.74003 113.09357,572.68198 C 112.8116,573.60978 112.5364,574.53576 112.26892,575.45899 C 112.01263,576.34357 111.76343,577.22562 111.52214,578.10431 C 111.28945,578.95168 111.06412,579.79593 110.84689,580.63631 C 110.64542,581.41575 110.45092,582.19186 110.26398,582.96404 C 110.08676,583.6961 109.91634,584.42463 109.75322,585.14913 C 109.59957,585.83157 109.4524,586.51043 109.31214,587.18529 C 109.17996,587.82124 109.05392,588.45363 108.93436,589.08212 C 108.82246,589.67034 108.71624,590.25514 108.61599,590.83623 C 107.98981,594.46593 107.59658,597.95083 107.50702,601.22023 m 0,0 C 107.50415,601.32487 107.50141,601.42956 107.49881,601.5343 C 107.49549,601.66802 107.49238,601.80182 107.48949,601.9357 C 107.48472,602.15682 107.48056,602.37815 107.47702,602.59967 C 107.47156,602.94151 107.4676,603.2838 107.46521,603.6265 C 107.46203,604.08218 107.46164,604.53857 107.46422,604.99554 C 107.46746,605.56921 107.4754,606.14379 107.48841,606.71902 C 107.50283,607.35673 107.52349,607.99524 107.55091,608.6342 C 107.57864,609.28051 107.61329,609.92728 107.65539,610.57414 C 107.70044,611.26625 107.75402,611.95846 107.8168,612.65033 C 107.88317,613.3818 107.95982,614.11289 108.04753,614.84307 C 108.13722,615.5897 108.23847,616.33538 108.35212,617.07954 C 108.46974,617.84973 108.60064,618.61829 108.74575,619.3846 C 108.88969,620.14473 109.04761,620.90265 109.22041,621.65774 C 109.39358,622.41447 109.5817,623.16836 109.78568,623.9188 C 109.9838,624.64768 110.19688,625.3733 110.42575,626.0951 C 110.65071,626.80457 110.89092,627.51034 111.14718,628.21189 C 111.38952,628.87533 111.64622,629.53499 111.91794,630.19042 C 112.17116,630.80121 112.43742,631.40833 112.71727,632.0114 C 112.97667,632.57041 113.24775,633.12595 113.53093,633.67773 C 113.79178,634.18598 114.0629,634.69103 114.34462,635.19266 C 116.16532,638.43455 118.4291,641.53346 121.22697,644.42781 m 0,0 C 121.33386,644.53839 121.44089,644.64904 121.54806,644.75975 C 121.76637,644.98526 121.98526,645.21102 122.20482,645.43699 C 122.49604,645.7367 122.78843,646.03677 123.08218,646.33708 C 123.42586,646.68844 123.7714,647.04013 124.11909,647.39196 C 124.52942,647.80718 124.94275,648.2226 125.35955,648.63792 C 125.78864,649.06549 126.22141,649.49296 126.65839,649.91999 C 127.16985,650.41981 127.68708,650.91903 128.21091,651.41712 C 128.80965,651.98644 129.41701,652.55429 130.03425,653.11988 C 130.68269,653.71405 131.34203,654.30573 132.01373,654.894 C 132.66259,655.46226 133.32299,656.02734 133.99624,656.58841 C 134.68302,657.16076 135.38317,657.72894 136.09808,658.29207 C 136.84079,658.8771 137.59943,659.45668 138.37557,660.02983 C 139.14763,660.59997 139.93701,661.16375 140.74523,661.7202 C 141.54756,662.27259 142.36846,662.81776 143.20944,663.35476 C 144.02406,663.87492 144.85751,664.38742 145.71117,664.8914 C 146.53252,665.3763 147.37258,665.85331 148.23256,666.32166 C 149.04293,666.76299 149.87099,667.19664 150.71776,667.62196 C 151.52464,668.02724 152.34851,668.42496 153.19025,668.81456 C 153.98079,669.18047 154.78709,669.53922 155.60988,669.89035 C 156.37737,670.21788 157.15921,670.53878 157.956,670.85268 C 162.85054,672.78092 168.30894,674.44498 174.46854,675.75843 m 0,0 C 174.64956,675.79703 174.83324,675.83574 175.01954,675.87456 C 175.41819,675.95763 175.82885,676.0412 176.25119,676.12523 C 176.86095,676.24656 177.49505,676.36885 178.15249,676.492 C 178.85928,676.6244 179.59305,676.75779 180.35256,676.89204 C 181.37545,677.07285 182.44503,677.25522 183.55827,677.43883 C 184.96758,677.67127 186.44687,677.9057 187.98999,678.14146 C 189.70825,678.40398 191.50566,678.66816 193.37374,678.93309 C 195.49493,679.23391 197.70724,679.5357 199.99827,679.83714 C 202.39273,680.15219 204.87318,680.46686 207.42545,680.77964 C 210.07047,681.10378 212.79263,681.42589 215.57617,681.74429 C 218.41507,682.06902 221.31782,682.38989 224.26769,682.70512 C 227.06908,683.00449 229.91297,683.29877 232.78504,683.58644 C 235.65974,683.87437 238.56266,684.15568 241.47945,684.42884 C 244.31276,684.69418 247.15915,684.95183 250.00547,685.20038 C 252.79044,685.44357 255.57533,685.67806 258.34781,685.90253 C 261.055,686.12171 263.75036,686.33134 266.42241,686.53019 C 269.01944,686.72346 271.59446,686.90655 274.13692,687.07834 C 276.59061,687.24413 279.01398,687.39939 281.39755,687.54312 C 283.60698,687.67635 285.78221,687.79967 287.9157,687.91227 C 289.88823,688.01638 291.82508,688.11133 293.72029,688.19648 C 305.91587,688.74444 316.38706,688.88684 323.54494,688.4545 m 0,0 C 323.75852,688.4416 323.9737,688.42885 324.19045,688.41624 C 324.62091,688.39121 325.05757,688.36675 325.50026,688.34282 C 326.12381,688.30911 326.75931,688.27645 327.40625,688.24471 C 328.27801,688.20194 329.17054,688.16086 330.08261,688.12116 C 331.17926,688.07343 332.30416,688.0277 333.45516,687.98346 C 334.79594,687.93192 336.17215,687.8824 337.5804,687.83408 C 339.14501,687.78039 340.74917,687.72818 342.38822,687.67634 C 344.21236,687.61864 346.07972,687.56139 347.98389,687.50304 C 349.97681,687.44197 352.01005,687.3797 354.07626,687.31446 C 356.25188,687.24577 358.46406,687.17379 360.70422,687.09645 C 362.98628,687.01766 365.29737,686.93331 367.62843,686.84121 C 369.92622,686.75043 372.24341,686.65212 374.57131,686.54419 C 376.88465,686.43694 379.20857,686.32019 381.53455,686.19189 C 383.70699,686.07206 385.88122,685.94215 388.0503,685.80049 C 390.17065,685.66201 392.28608,685.5123 394.3901,685.3498 C 396.34301,685.19897 398.28609,685.03713 400.21415,684.86302 C 417.9602,683.26047 434.43411,680.6186 445.59101,675.9632 m 0,0 C 474.05478,664.08624 484.90787,656.50955 495.35141,636.03202 m 0,0 C 505.79494,615.5545 503.33764,586.88596 494.73708,556.78399 m 0,0 C 486.13652,526.68202 441.29073,405.45506 436.5809,393.16854 m 0,0 C 431.87107,380.88202 400.1309,296.92416 396.64972,284.02331 m 0,0 C 393.16854,271.12247 379.03905,249.00674 377.40084,221.1573 m 0,0 C 375.76264,193.30787 377.81039,138.83764 377.19607,128.59888 m 0,0 C 376.58174,118.36011 376.58174,71.05702 377.19607,69.6236 m 0,0 C 377.81039,68.19017 377.60562,61.43259 380.06292,58.56573 m 0,0 C 382.52023,55.69888 385.1823,49.14607 384.97753,45.05056 m 0,0 C 384.77275,40.95505 382.725,36.65477 380.67725,33.58314 m 0,0 C 378.62949,30.51151 299.79101,33.37837 294.8764,33.17359 m 0,0 C 289.9618,32.96881 239.99663,34.40224 233.03427,33.37836 m 0,0 Z " id="path2758"/>
    <path style="fill:none;stroke:#000000;stroke-width:1px;stroke-linecap:butt;stroke-linejoin:miter;stroke-opacity:1" d="m 252.59031,53.753511  C 252.59031,53.75351 281.56601,51.09143 287.70927,50.78427 m 0,0 C 293.85253,50.47711 330.60969,51.50098 336.54817,52.01292 m 0,0 C 342.48666,52.52486 356.82093,53.34396 360.30211,54.16306 " id="path2760"/>
    <path style="fill:none;stroke:#000000;stroke-width:1px;stroke-linecap:butt;stroke-linejoin:miter;stroke-opacity:1" d="m 368.69789,34.607023  C 368.69789,34.60702 372.17907,41.36461 372.28146,44.84579 m 0,0 C 372.38385,48.32697 368.69789,54.36784 367.57163,55.69888 " id="path2762"/>
    <path style="fill:none;stroke:#000000;stroke-width:1px;stroke-linecap:butt;stroke-linejoin:miter;stroke-opacity:1" d="m 243.98975,37.473876  C 243.98975,37.47388 240.50857,41.05744 240.91812,44.7434 m 0,0 C 241.32767,48.42936 241.22528,51.60337 243.78497,53.34396 " id="path2764"/>
    <path style="fill:none;stroke:#000000;stroke-width:1px;stroke-linecap:butt;stroke-linejoin:miter;stroke-opacity:1" d="m 251.66882,62.354073  C 251.66882,62.35407 243.37542,60.92065 243.47781,63.27556 m 0,0 C 243.5802,65.63048 244.60407,87.84859 245.2184,96.75632 m 0,0 C 245.83273,105.66405 246.65183,148.97402 246.44705,154.0934 m 0,0 C 246.24228,159.21278 248.08525,206.3111 246.75421,214.19494 m 0,0 C 245.42317,222.07879 237.23216,259.04073 232.82949,268.05084 m 0,0 C 228.42683,277.06096 204.26334,341.87233 202.01081,348.22037 m 0,0 C 199.75829,354.5684 189.00758,385.1823 185.62879,393.37332 m 0,0 C 182.25,401.56433 170.6802,436.27374 167.09663,446.20534 m 0,0 C 163.51306,456.13694 146.31194,505.18062 142.11405,514.49789 m 0,0 C 137.91615,523.81517 127.47261,558.83174 125.83441,567.02275 m 0,0 C 124.19621,575.21376 119.99831,596.91994 123.47949,607.46587 m 0,0 C 126.96067,618.0118 131.56812,630.50309 149.69073,638.59171 m 0,0 C 167.81334,646.68034 199.6559,655.17851 218.7,655.99761 m 0,0 C 237.7441,656.81671 295.08118,659.06924 300.40534,658.96685 m 0,0 C 305.72949,658.86447 379.14143,657.43104 388.66348,653.94986 m 0,0 C 398.18553,650.46868 433.71405,653.23315 449.27697,648.31854 m 0,0 C 464.83989,643.40393 481.63146,631.11742 488.59382,620.4691 m 0,0 C 495.55618,609.82079 495.71592,597.5813 495.28152,589.97941 m 0,0 C 494.84713,582.37752 491.66158,555.37269 489.41721,549.14638 m 0,0 C 487.17284,542.92006 479.35375,517.87001 477.54377,513.88807 m 0,0 C 475.7338,509.90612 461.90559,475.08221 460.892,471.89665 m 0,0 C 459.87842,468.71109 444.96422,429.83283 443.66104,426.14048 m 0,0 C 442.35786,422.44814 415.42543,353.74149 413.54306,348.96316 m 0,0 C 411.66069,344.18482 381.9771,269.03467 381.39791,266.13871 m 0,0 C 380.81871,263.24275 370.82765,236.74471 369.66927,219.65855 m 0,0 C 368.51088,202.57239 368.94528,139.87486 369.23487,133.79334 m 0,0 C 369.52447,127.71183 368.22129,72.54379 368.36609,67.33106 " id="path2766"/>
    <path style="display:inline;fill:none;stroke:#000000;stroke-width:1px;stroke-linecap:butt;stroke-linejoin:miter;stroke-opacity:1" d="m 160.94058,671.98289  C 160.94058,671.98289 155.01489,668.59129 156.85787,665.72444 m 0,0 C 158.70084,662.85758 167.53822,662.01051 169.02443,661.89368 m 0,0 C 171.47144,661.70133 186.46546,660.46452 190.97051,660.25975 m 0,0 C 195.47557,660.05497 210.68076,660.43152 213.34284,660.43152 m 0,0 C 216.00491,660.43152 269.29192,661.81525 272.7731,661.81525 m 0,0 C 276.25428,661.81525 309.825,662.2972 316.99214,661.88765 m 0,0 C 324.15927,661.4781 397.89895,661.57321 403.42789,661.98275 m 0,0 C 408.95682,662.3923 435.80083,664.11532 439.69156,664.93442 m 0,0 C 443.58229,665.75352 450.26961,666.6326 449.96972,670.01867 m 0,0 C 449.7181,672.85974 447.84354,674.73453 445.18146,676.16796 " id="path2768" sodipodi:nodetypes="csssssssssc"/>
    <path style="display:inline;fill:none;stroke:#000000;stroke-width:1px;stroke-linecap:butt;stroke-linejoin:miter;stroke-opacity:1" d="m 258.03002,682.28813  C 258.03002,682.28813 318.42556,685.99719 338.28876,684.35899 m 0,0 C 358.15197,682.72079 413.3547,681.68236 422.16004,679.42983 m 0,0 C 430.96538,677.1773 441.60264,675.31668 440.57953,671.58413 m 0,0 C 439.51293,667.69297 421.61172,665.77589 415.67324,665.77589 m 0,0 C 409.73475,665.77589 369.4643,663.85236 365.98312,664.05713 " id="path2771" sodipodi:nodetypes="cssssc"/>
  </g>
</svg>