<svg xmlns:dc="http://purl.org/dc/elements/1.1/" xmlns:cc="http://creativecommons.org/ns#" xmlns:rdf="http://www.w3.org/1999/02/22-rdf-syntax-ns#" xmlns:svg="http://www.w3.org/2000/svg" xmlns="http://www.w3.org/2000/svg" xmlns:sodipodi="http://sodipodi.sourceforge.net/DTD/sodipodi-0.dtd" xmlns:inkscape="http://www.inkscape.org/namespaces/inkscape" version="1.1" id="svg2184" width="395.776" height="657.55597" viewBox="0 0 395.776 657.55597" sodipodi:docname="exp_kolba.svg" inkscape:version="1.0.2 (e86c870879, 2021-01-15, custom)">
  <metadata id="metadata2190">
    <rdf:RDF>
      <cc:Work rdf:about="">
        <dc:format>image/svg+xml</dc:format>
        <dc:type rdf:resource="http://purl.org/dc/dcmitype/StillImage"/>
        <dc:title/>
      </cc:Work>
    </rdf:RDF>
  </metadata>
  <defs id="defs2188"/>
  <sodipodi:namedview pagecolor="#ffffff" bordercolor="#666666" borderopacity="1" objecttolerance="10" gridtolerance="10" guidetolerance="10" inkscape:pageopacity="0" inkscape:pageshadow="2" inkscape:window-width="1849" inkscape:window-height="1057" id="namedview2186" showgrid="false" inkscape:zoom="0.86327165" inkscape:cx="-5.3434751" inkscape:cy="190.911" inkscape:window-x="63" inkscape:window-y="-8" inkscape:window-maximized="1" inkscape:current-layer="layer4" fit-margin-top="0" fit-margin-left="0" fit-margin-right="0" fit-margin-bottom="0"/>
  <g inkscape:groupmode="layer" id="layer4" inkscape:label="vector" transform="translate(-106.96263,-31.653897)">
    <path style="fill:none;stroke:#000000;stroke-width:1px;stroke-linecap:butt;stroke-linejoin:miter;stroke-opacity:1" d="m 233.03427,33.378371  C 233.03427,33.37837 233.03401,33.37876 233.03348,33.37954 C 233.0324,33.38114 233.03022,33.38437 233.02698,33.38919 C 233.02255,33.39577 233.01614,33.40532 233.00783,33.41774 C 232.99686,33.43413 232.98258,33.45552 232.96518,33.48169 C 232.9445,33.51279 232.91942,33.55064 232.89028,33.59487 C 232.85663,33.64594 232.81755,33.70551 232.77355,33.77301 C 232.72498,33.84752 232.67042,33.93169 232.61055,34.02475 C 232.54664,34.12408 232.47668,34.23354 232.4015,34.35218 C 232.32206,34.47754 232.23679,34.61315 232.14668,34.75791 C 232.04973,34.91364 231.94717,35.07995 231.84023,35.25546 C 231.73166,35.43364 231.61857,35.6213 231.50223,35.81699 C 231.39136,36.00347 231.27754,36.19724 231.16188,36.39706 C 231.04671,36.59603 230.92972,36.80099 230.81199,37.0107 C 230.70188,37.20683 230.59113,37.40712 230.48063,37.61055 C 230.37241,37.80978 230.26443,38.01203 230.15753,38.21634 C 229.13322,40.17406 228.20793,42.32138 228.11966,43.82191 m 0,0 C 228.11833,43.84454 228.11702,43.86728 228.11572,43.89013 C 228.11324,43.93379 228.11083,43.97785 228.10849,44.02231 C 228.10461,44.09606 228.10092,44.17089 228.09744,44.24675 C 228.09298,44.344 228.08887,44.44294 228.08515,44.54346 C 228.08034,44.6732 228.07618,44.80557 228.07276,44.94032 C 228.06892,45.09149 228.06601,45.24565 228.06416,45.40247 C 228.06199,45.58618 228.06127,45.77353 228.0622,45.96397 C 228.06319,46.16708 228.06606,46.3737 228.07105,46.58316 C 228.07619,46.7989 228.08358,47.01766 228.09349,47.2387 C 228.10364,47.46499 228.11643,47.69367 228.13215,47.92395 C 228.14781,48.15341 228.16638,48.38446 228.18815,48.61633 C 228.21057,48.85512 228.23638,49.09477 228.26589,49.33444 C 228.29601,49.57909 228.32998,49.82375 228.36814,50.06752 C 228.40517,50.30408 228.44614,50.5398 228.49136,50.77386 C 228.53412,50.99522 228.58068,51.2151 228.6313,51.43279 C 229.06504,53.29827 229.79639,55.00332 230.98652,56.10843 m 0,0 C 231.00515,56.12573 231.0238,56.14298 231.04247,56.16018 C 231.08384,56.1983 231.12529,56.23618 231.16681,56.27384 C 231.23172,56.33271 231.29679,56.39104 231.36199,56.44892 C 231.45199,56.52882 231.54223,56.60786 231.63258,56.68627 C 231.73613,56.77614 231.83984,56.86518 231.94352,56.95375 C 232.06263,57.0555 232.18171,57.15663 232.30049,57.25767 C 232.42982,57.36768 232.5588,57.47759 232.68708,57.58808 C 232.82135,57.70374 232.95486,57.82004 233.08721,57.93777 C 233.22585,58.0611 233.36322,58.186 233.49886,58.31337 C 233.63953,58.44546 233.77834,58.58021 233.91478,58.71864 C 234.05653,58.86245 234.19573,59.01023 234.33181,59.16312 C 234.47187,59.32048 234.60862,59.48325 234.74145,59.65266 C 234.8705,59.81725 234.99584,59.98811 235.11691,60.16638 C 235.23502,60.34029 235.34906,60.52125 235.45851,60.71031 C 235.56289,60.8906 235.66309,61.07826 235.75865,61.27421 C 236.53582,62.86773 237.00656,65.00913 236.925,68.19017 m 0,0 C 236.92346,68.25007 236.92203,68.31335 236.9207,68.37997 C 236.91824,68.50339 236.91613,68.63827 236.91436,68.78429 C 236.91161,69.01053 236.90968,69.26351 236.90854,69.54205 C 236.9071,69.89495 236.90692,70.28888 236.90792,70.72145 C 236.90908,71.22279 236.91184,71.77604 236.91609,72.37748 C 236.92098,73.06954 236.92784,73.8254 236.9365,74.6394 C 236.94532,75.46864 236.95601,76.35821 236.9684,77.30212 C 236.98205,78.34199 236.99775,79.44781 237.01527,80.61157 C 237.0336,81.82946 237.05393,83.1108 237.07598,84.44641 C 237.09912,85.84825 237.12415,87.30988 237.15076,88.82068 C 237.17948,90.45123 237.21004,92.13905 237.24205,93.87079 C 237.27441,95.62129 237.30825,97.41667 237.34316,99.24315 C 237.37842,101.08828 237.41477,102.96515 237.4518,104.85954 C 237.48845,106.73458 237.52576,108.62679 237.56332,110.52238 C 237.60022,112.38509 237.63737,114.25106 237.67437,116.10722 C 238.0228,133.5861 238.35843,150.19508 238.35843,155.01489 m 0,0 C 238.35843,155.11072 238.35846,155.20926 238.35852,155.31045 C 238.35865,155.51659 238.35891,155.73375 238.35928,155.96152 C 238.35978,156.26362 238.36048,156.5844 238.36134,156.9229 C 238.36224,157.27934 238.36332,157.65543 238.36453,158.05006 C 238.366,158.52648 238.36766,159.02993 238.36944,159.55845 C 238.37149,160.16838 238.37369,160.81171 238.37593,161.48545 C 238.37854,162.26968 238.38119,163.09511 238.3837,163.95702 C 238.38655,164.93777 238.38921,165.96575 238.39141,167.034 C 238.39371,168.15307 238.3955,169.31633 238.39645,170.51579 C 238.39742,171.73357 238.39752,172.98867 238.39642,174.27272 C 238.39531,175.57777 238.39296,176.91272 238.38901,178.26879 C 238.38512,179.60297 238.37969,180.95759 238.37238,182.32429 C 238.36513,183.67972 238.35603,185.04702 238.34475,186.41804 C 238.33359,187.77498 238.32029,189.13556 238.30454,190.49186 C 238.28932,191.80213 238.27181,193.10842 238.25172,194.40359 C 238.07487,205.80613 237.69813,216.34667 236.925,221.1573 m 0,0 C 236.91486,221.22037 236.90409,221.2852 236.89268,221.35177 C 236.86793,221.49621 236.84021,221.64884 236.80959,221.80946 C 236.77303,222.00121 236.73233,222.20434 236.68761,222.41851 C 236.62379,222.72419 236.55177,223.05236 236.47191,223.40201 C 236.37138,223.84211 236.25842,224.31625 236.1337,224.82241 C 235.97414,225.46995 235.79534,226.16992 235.59873,226.91812 C 235.35835,227.83287 235.09134,228.81971 234.80029,229.87098 C 234.48528,231.00881 234.14212,232.22212 233.77411,233.50119 C 233.37008,234.90544 232.9361,236.38896 232.47652,237.93889 C 231.99642,239.55806 231.48839,241.24971 230.95741,242.9992 C 230.40818,244.80882 229.83439,246.68031 229.24155,248.59746 C 228.64239,250.53504 228.02377,252.51926 227.39138,254.53338 C 226.74997,256.57623 226.09439,258.64984 225.43058,260.73674 C 224.78272,262.77348 224.12701,264.82288 223.46897,266.86871 C 222.81758,268.89387 222.16391,270.91552 221.5133,272.91792 C 215.75397,290.64363 210.23476,306.86067 208.66601,310.6441 m 0,0 C 208.64164,310.70287 208.61537,310.76685 208.58722,310.83596 C 208.5313,310.97322 208.46797,311.13074 208.39743,311.30795 C 208.29807,311.55757 208.18441,311.84626 208.05702,312.17245 C 207.88537,312.612 207.6888,313.11965 207.46872,313.69155 C 207.18854,314.41963 206.87027,315.25185 206.51682,316.18027 C 206.08618,317.31145 205.60332,318.58545 205.07353,319.98791 C 204.4956,321.5178 203.86181,323.20055 203.17902,325.01755 C 202.43837,326.9885 201.64006,329.11741 200.79284,331.38051 C 199.90898,333.74147 198.97189,336.24847 197.99149,338.87452 C 196.95093,341.66171 195.86159,344.58301 194.73534,347.60614 C 193.61022,350.62624 192.44826,353.74797 191.2613,356.93916 C 190.06949,360.14341 188.85247,363.41768 187.62223,366.7294 C 186.41851,369.96974 185.20214,373.24593 183.98434,376.52746 C 182.77782,379.7786 181.56989,383.03498 180.37147,386.26693 C 179.20993,389.39943 178.05732,392.50898 176.92359,395.56857 C 167.97973,419.70533 160.2106,440.73253 158.49607,445.38624 m 0,0 C 158.45307,445.50296 158.40781,445.62605 158.36035,445.75539 C 158.28517,445.96026 158.20444,446.1808 158.11834,446.41653 C 158.00184,446.73548 157.87551,447.08223 157.73977,447.45559 C 157.56779,447.92862 157.3807,448.44435 157.17936,449.00035 C 156.94945,449.63527 156.70096,450.3227 156.43517,451.05901 C 156.13227,451.89811 155.80691,452.80069 155.46098,453.76137 C 155.06563,454.8593 154.64342,456.03312 154.19717,457.27481 C 153.71308,458.62179 153.20071,460.04864 152.66368,461.54511 C 152.10313,463.10713 151.5157,464.745 150.90551,466.44707 C 150.26807,468.22517 149.60579,470.07334 148.92336,471.97829 C 148.23694,473.89436 147.53014,475.86788 146.80772,477.88533 C 146.07432,479.93345 145.32482,482.02684 144.56422,484.15137 C 143.83939,486.17598 143.10448,488.22887 142.3638,490.2978 C 141.60911,492.40587 140.84843,494.53059 140.08634,496.65901 C 139.31628,498.80969 138.54478,500.96415 137.77655,503.10903 C 130.66545,522.96297 123.83441,541.99664 121.02219,549.61685 m 0,0 C 120.97775,549.73726 120.93329,549.85778 120.88882,549.97841 C 120.78788,550.2522 120.68685,550.52654 120.58575,550.80141 C 120.44585,551.18177 120.30583,551.56314 120.16576,551.94545 C 120.01363,552.36068 119.86144,552.77703 119.70928,553.19439 C 119.51048,553.73968 119.31173,554.28671 119.11324,554.83527 C 118.867,555.51581 118.62116,556.19871 118.37611,556.88358 C 118.10615,557.63807 117.83715,558.39496 117.56963,559.15371 C 117.30508,559.90404 117.04198,560.6562 116.78083,561.40968 C 116.50427,562.20762 116.22991,563.00704 115.95834,563.80734 C 115.66455,564.67313 115.37403,565.53994 115.08755,566.40702 C 114.79362,567.29663 114.50394,568.18652 114.21933,569.07587 C 113.92804,569.98608 113.64206,570.89572 113.36227,571.80391 C 113.08395,572.70733 112.81176,573.60932 112.54656,574.509 C 112.2903,575.37837 112.04057,576.24559 111.79815,577.10988 C 111.56227,577.95086 111.33331,578.78907 111.112,579.62378 C 109.07505,587.30649 107.68585,594.69284 107.50702,601.22023 m 0,0 C 107.50579,601.26508 107.50459,601.30993 107.50341,601.35479 C 107.49968,601.49643 107.49619,601.63816 107.49295,601.77998 C 107.4867,602.05353 107.48137,602.32741 107.477,602.60158 C 107.47132,602.95795 107.46726,603.31482 107.46491,603.67212 C 107.46183,604.14159 107.46171,604.61181 107.46476,605.08263 C 107.46825,605.62069 107.47588,606.15954 107.48797,606.69897 C 107.50108,607.28382 107.51943,607.86935 107.54342,608.45528 C 107.57079,609.12364 107.6055,609.79252 107.64815,610.46153 C 107.69126,611.13767 107.74248,611.81394 107.80243,612.48991 C 107.86761,613.22489 107.94311,613.95952 108.02972,614.69327 C 108.12267,615.48079 108.22842,616.2673 108.34795,617.05213 C 108.46836,617.84271 108.60275,618.63159 108.75212,619.41809 C 108.89373,620.16374 109.04881,620.90725 109.21821,621.64804 C 109.38571,622.38054 109.56721,623.11039 109.76354,623.83702 C 109.94629,624.5134 110.14188,625.187 110.35099,625.85736 C 112.4272,632.51335 115.83542,638.85036 121.22697,644.42781 m 0,0 C 121.31011,644.51382 121.39333,644.59987 121.47663,644.68595 C 121.58889,644.80196 121.70131,644.91804 121.81389,645.03418 C 122.02518,645.25214 122.23705,645.47032 122.44956,645.68867 C 122.69303,645.93882 122.93735,646.1892 123.18263,646.43974 C 123.49137,646.75509 123.80163,647.0707 124.11362,647.38642 C 124.50713,647.78464 124.90339,648.18305 125.30282,648.58138 C 125.75986,649.03715 126.22105,649.49282 126.68704,649.94799 C 127.20903,650.45785 127.73703,650.96708 128.27194,651.47512 C 128.84911,652.02331 129.43432,652.57011 130.0287,653.11481 C 130.67209,653.70442 131.32621,654.29158 131.99249,654.87539 C 132.67625,655.47452 133.37281,656.07012 134.08371,656.66123 C 134.82709,657.27935 135.58616,657.89255 136.36267,658.49973 C 137.13907,659.10683 137.93291,659.70791 138.74594,660.30187 C 139.55274,660.89128 140.37844,661.47367 141.22475,662.04797 C 142.04477,662.60443 142.88414,663.15329 143.74443,663.69356 C 151.75312,668.72313 161.57448,673.00896 174.46854,675.75843 m 0,0 C 174.69134,675.80594 174.91816,675.85362 175.14894,675.90146 C 175.62111,675.99934 176.10986,676.09791 176.61465,676.19711 C 177.21642,676.31537 177.84099,676.43452 178.48744,676.55446 C 179.3902,676.72196 180.33563,676.89101 181.32124,677.06134 C 182.59794,677.28198 183.94206,677.50477 185.34818,677.72914 C 186.93225,677.98191 188.59501,678.23668 190.32872,678.49263 C 192.22725,678.77291 194.21087,679.05461 196.26942,679.33664 C 198.47196,679.6384 200.76028,679.94054 203.12192,680.24173 C 205.54132,680.55029 208.03768,680.85786 210.59762,681.16301 C 213.24715,681.47884 215.96479,681.79209 218.7357,682.10117 C 221.44627,682.40352 224.20781,682.70188 227.00644,682.99477 C 229.83489,683.29078 232.70122,683.58121 235.59109,683.86452 C 238.48849,684.14857 241.40956,684.42548 244.33984,684.6937 C 247.28283,684.96308 250.23512,685.2237 253.18207,685.474 C 256.11879,685.72343 259.0502,685.96261 261.96182,686.18999 C 287.04654,688.14898 310.66216,689.23266 323.54494,688.4545 m 0,0 C 323.75852,688.4416 323.9737,688.42885 324.19045,688.41624 C 324.46718,688.40015 324.74647,688.38429 325.02827,688.36866 C 325.49372,688.34284 325.96603,688.31763 326.44498,688.29298 C 327.18408,688.25495 327.93901,688.21825 328.70897,688.1827 C 329.73278,688.13543 330.78317,688.09018 331.85827,688.04651 C 333.20792,687.99168 334.59651,687.93934 336.02035,687.88859 C 337.59885,687.83232 339.22067,687.77801 340.88078,687.72445 C 342.55998,687.67027 344.27836,687.61685 346.03071,687.56294 C 347.90564,687.50526 349.81946,687.44702 351.76578,687.38668 C 353.82351,687.32289 355.91758,687.25675 358.04045,687.18645 C 360.21113,687.11457 362.41193,687.03834 364.63478,686.95582 C 366.93538,686.87041 369.2596,686.77826 371.59852,686.67722 C 373.91857,686.57699 376.25307,686.46802 378.59331,686.3482 C 380.93864,686.22812 383.28973,686.09714 385.63781,685.95316 C 387.91843,685.81331 390.19621,685.66119 392.46311,685.49486 C 413.09418,683.9811 432.82386,681.2905 445.59101,675.9632 m 0,0 C 445.86142,675.85037 446.13024,675.73793 446.39748,675.62586 C 446.8433,675.4389 447.28473,675.25298 447.72185,675.06803 C 448.31327,674.8178 448.8968,674.56934 449.4726,674.32249 C 450.20211,674.00974 450.91922,673.69957 451.62427,673.39164 C 452.47746,673.01901 453.31299,672.64965 454.13148,672.28295 C 455.10993,671.84459 456.06402,671.41003 456.99479,670.97823 C 458.07673,670.4763 459.12717,669.9781 460.14774,669.48199 C 461.23107,668.95537 462.28075,668.4311 463.29874,667.90722 C 464.33539,667.37374 465.33918,666.84067 466.31218,666.30593 C 467.31291,665.75595 468.28106,665.20421 469.2189,664.64846 C 470.12013,664.1144 470.99336,663.57664 471.84059,663.03317 C 472.71524,662.47211 473.56218,661.90497 474.38362,661.32954 C 475.22407,660.74079 476.03782,660.14337 476.82723,659.53493 C 477.59465,658.94343 478.33906,658.34151 479.06263,657.727 C 479.72817,657.16177 480.37608,656.5859 481.00804,655.99769 C 486.66421,650.7331 491.04265,644.48055 495.35141,636.03202 m 0,0 C 495.41929,635.89892 495.48663,635.76547 495.55342,635.63168 C 495.70656,635.32493 495.85684,635.01637 496.00429,634.70602 C 496.21247,634.26786 496.415,633.82614 496.61195,633.38092 C 496.87189,632.79331 497.1221,632.1996 497.36273,631.59994 C 497.64875,630.88716 497.92123,630.16598 498.18041,629.43663 C 498.47969,628.59446 498.76124,627.74141 499.02544,626.87785 C 499.31412,625.93425 499.58208,624.97811 499.82981,624.0099 C 500.10684,622.9272 500.35857,621.82941 500.58569,620.71722 C 500.8318,619.51203 501.04901,618.28993 501.23818,617.05179 C 501.4406,615.72693 501.61092,614.3837 501.7502,613.02317 C 501.88935,611.664 501.99752,610.28757 502.07578,608.89493 C 502.15436,607.49659 502.20278,606.08191 502.22211,604.65196 C 502.24103,603.25283 502.2321,601.83909 502.19634,600.41174 C 502.16329,599.09279 502.10732,597.76222 502.02923,596.42082 C 501.95254,595.1034 501.85451,593.77553 501.73589,592.43797 C 500.73016,581.09725 498.24446,569.05981 494.73708,556.78399 m 0,0 C 494.65107,556.48297 494.56144,556.17284 494.46826,555.8538 C 494.31605,555.33264 494.15438,554.7877 493.98357,554.21985 C 493.72395,553.35674 493.44322,552.44071 493.14256,551.47481 C 492.78063,550.31207 492.38981,549.07707 491.97214,547.77515 C 491.48416,546.25406 490.95953,544.64162 490.4015,542.94635 C 489.77285,541.03654 489.10182,539.02162 488.39306,536.91376 C 487.6854,534.80918 486.94012,532.61196 486.16186,530.33421 C 485.31605,527.85879 484.43128,525.28826 483.51349,522.63819 C 482.56235,519.89181 481.57574,517.06 480.56028,514.16008 C 479.49652,511.12221 478.4011,508.0096 477.28162,504.84216 C 476.11257,501.53446 474.91728,498.16697 473.70441,494.76236 C 472.44599,491.22988 471.16864,487.65744 469.88203,484.07037 C 468.55938,480.38281 467.22695,476.67979 465.89524,472.98882 C 464.59587,469.38746 463.29718,465.79757 462.00894,462.24471 C 460.75455,458.78522 459.51007,455.36084 458.2845,451.99517 C 447.72576,422.99863 438.57086,398.35974 436.5809,393.16854 m 0,0 C 436.54793,393.08253 436.51364,392.99301 436.47804,392.90003 C 436.40734,392.71537 436.33149,392.51705 436.25064,392.30546 C 436.13676,392.00742 436.01296,391.68304 435.87965,391.33339 C 435.70001,390.86224 435.50311,390.34521 435.28997,389.78492 C 435.03369,389.11125 434.75393,388.37505 434.45245,387.58087 C 434.10126,386.65574 433.72059,385.65194 433.31324,384.57667 C 432.86066,383.38201 432.37514,382.09913 431.86051,380.73791 C 431.28777,379.22298 430.67898,377.61103 430.03941,375.91567 C 429.37003,374.14129 428.66693,372.27554 427.93617,370.33405 C 427.16671,368.28975 426.36658,366.16147 425.54284,363.96743 C 424.70369,361.73236 423.84004,359.42905 422.95935,357.07678 C 422.09123,354.75808 421.20656,352.39181 420.31248,349.99642 C 419.424,347.61601 418.52623,345.20684 417.62619,342.78703 C 416.78556,340.52696 415.94295,338.2576 415.10408,335.99372 C 414.28405,333.7807 413.46759,331.57291 412.66004,329.38414 C 405.01162,308.65384 398.16249,289.62945 396.64972,284.02331 m 0,0 C 396.63928,283.98461 396.62874,283.94582 396.61811,283.90695 C 393.08387,270.98972 379.03414,248.92319 377.40084,221.1573 m 0,0 C 375.76264,193.30787 377.81039,138.83764 377.19607,128.59888 m 0,0 C 376.58174,118.36011 376.58174,71.05702 377.19607,69.6236 m 0,0 C 377.81039,68.19017 377.60562,61.43259 380.06292,58.56573 m 0,0 C 382.52023,55.69888 385.1823,49.14607 384.97753,45.05056 m 0,0 C 384.77275,40.95505 382.725,36.65477 380.67725,33.58314 m 0,0 C 378.62949,30.51151 299.79101,33.37837 294.8764,33.17359 m 0,0 C 289.9618,32.96881 239.99663,34.40224 233.03427,33.37836 m 0,0 Z " id="path2758"/>
    <path style="fill:none;stroke:#000000;stroke-width:1px;stroke-linecap:butt;stroke-linejoin:miter;stroke-opacity:1" d="m 252.59031,53.753511  C 252.59031,53.75351 281.56601,51.09143 287.70927,50.78427 m 0,0 C 293.85253,50.47711 330.60969,51.50098 336.54817,52.01292 m 0,0 C 342.48666,52.52486 356.82093,53.34396 360.30211,54.16306 " id="path2760"/>
    <path style="fill:none;stroke:#000000;stroke-width:1px;stroke-linecap:butt;stroke-linejoin:miter;stroke-opacity:1" d="m 368.69789,34.607023  C 368.69789,34.60702 372.17907,41.36461 372.28146,44.84579 m 0,0 C 372.38385,48.32697 368.69789,54.36784 367.57163,55.69888 " id="path2762"/>
    <path style="fill:none;stroke:#000000;stroke-width:1px;stroke-linecap:butt;stroke-linejoin:miter;stroke-opacity:1" d="m 243.98975,37.473876  C 243.98975,37.47388 240.50857,41.05744 240.91812,44.7434 m 0,0 C 241.32767,48.42936 241.22528,51.60337 243.78497,53.34396 " id="path2764"/>
    <path style="fill:none;stroke:#000000;stroke-width:1px;stroke-linecap:butt;stroke-linejoin:miter;stroke-opacity:1" d="m 251.66882,62.354073  C 251.66882,62.35407 243.37542,60.92065 243.47781,63.27556 m 0,0 C 243.5802,65.63048 244.60407,87.84859 245.2184,96.75632 m 0,0 C 245.83273,105.66405 246.65183,148.97402 246.44705,154.0934 m 0,0 C 246.24228,159.21278 248.08525,206.3111 246.75421,214.19494 m 0,0 C 245.42317,222.07879 237.23216,259.04073 232.82949,268.05084 m 0,0 C 228.42683,277.06096 204.26334,341.87233 202.01081,348.22037 m 0,0 C 199.75829,354.5684 189.00758,385.1823 185.62879,393.37332 m 0,0 C 182.25,401.56433 170.6802,436.27374 167.09663,446.20534 m 0,0 C 163.51306,456.13694 146.31194,505.18062 142.11405,514.49789 m 0,0 C 137.91615,523.81517 127.47261,558.83174 125.83441,567.02275 m 0,0 C 124.19621,575.21376 119.99831,596.91994 123.47949,607.46587 m 0,0 C 126.96067,618.0118 131.56812,630.50309 149.69073,638.59171 m 0,0 C 167.81334,646.68034 199.6559,655.17851 218.7,655.99761 m 0,0 C 237.7441,656.81671 295.08118,659.06924 300.40534,658.96685 m 0,0 C 305.72949,658.86447 379.14143,657.43104 388.66348,653.94986 m 0,0 C 398.18553,650.46868 433.71405,653.23315 449.27697,648.31854 m 0,0 C 464.83989,643.40393 481.63146,631.11742 488.59382,620.4691 m 0,0 C 495.55618,609.82079 495.71592,597.5813 495.28152,589.97941 m 0,0 C 494.84713,582.37752 491.66158,555.37269 489.41721,549.14638 m 0,0 C 487.17284,542.92006 479.35375,517.87001 477.54377,513.88807 m 0,0 C 475.7338,509.90612 461.90559,475.08221 460.892,471.89665 m 0,0 C 459.87842,468.71109 444.96422,429.83283 443.66104,426.14048 m 0,0 C 442.35786,422.44814 415.42543,353.74149 413.54306,348.96316 m 0,0 C 411.66069,344.18482 381.9771,269.03467 381.39791,266.13871 m 0,0 C 380.81871,263.24275 370.82765,236.74471 369.66927,219.65855 m 0,0 C 368.51088,202.57239 368.94528,139.87486 369.23487,133.79334 m 0,0 C 369.52447,127.71183 368.22129,72.54379 368.36609,67.33106 " id="path2766"/>
    <path style="display:inline;fill:none;stroke:#000000;stroke-width:1px;stroke-linecap:butt;stroke-linejoin:miter;stroke-opacity:1" d="m 160.94058,671.98289  C 160.94058,671.98289 155.01489,668.59129 156.85787,665.72444 m 0,0 C 158.70084,662.85758 167.53822,662.01051 169.02443,661.89368 m 0,0 C 171.47144,661.70133 186.46546,660.46452 190.97051,660.25975 m 0,0 C 195.47557,660.05497 210.68076,660.43152 213.34284,660.43152 m 0,0 C 216.00491,660.43152 269.29192,661.81525 272.7731,661.81525 m 0,0 C 276.25428,661.81525 309.825,662.2972 316.99214,661.88765 m 0,0 C 324.15927,661.4781 397.89895,661.57321 403.42789,661.98275 m 0,0 C 408.95682,662.3923 435.80083,664.11532 439.69156,664.93442 m 0,0 C 443.58229,665.75352 450.26961,666.6326 449.96972,670.01867 m 0,0 C 449.7181,672.85974 447.84354,674.73453 445.18146,676.16796 " id="path2768" sodipodi:nodetypes="csssssssssc"/>
    <path style="display:inline;fill:none;stroke:#000000;stroke-width:1px;stroke-linecap:butt;stroke-linejoin:miter;stroke-opacity:1" d="m 258.03002,682.28813  C 258.03002,682.28813 318.42556,685.99719 338.28876,684.35899 m 0,0 C 358.15197,682.72079 413.3547,681.68236 422.16004,679.42983 m 0,0 C 430.96538,677.1773 441.60264,675.31668 440.57953,671.58413 m 0,0 C 439.51293,667.69297 421.61172,665.77589 415.67324,665.77589 m 0,0 C 409.73475,665.77589 369.4643,663.85236 365.98312,664.05713 " id="path2771" sodipodi:nodetypes="cssssc"/>
  </g>
</svg>