<svg xmlns:dc="http://purl.org/dc/elements/1.1/" xmlns:cc="http://creativecommons.org/ns#" xmlns:rdf="http://www.w3.org/1999/02/22-rdf-syntax-ns#" xmlns:svg="http://www.w3.org/2000/svg" xmlns="http://www.w3.org/2000/svg" xmlns:sodipodi="http://sodipodi.sourceforge.net/DTD/sodipodi-0.dtd" xmlns:inkscape="http://www.inkscape.org/namespaces/inkscape" version="1.1" id="svg2184" width="395.776" height="657.55597" viewBox="0 0 395.776 657.55597" sodipodi:docname="exp_kolba.svg" inkscape:version="1.0.2 (e86c870879, 2021-01-15, custom)">
  <metadata id="metadata2190">
    <rdf:RDF>
      <cc:Work rdf:about="">
        <dc:format>image/svg+xml</dc:format>
        <dc:type rdf:resource="http://purl.org/dc/dcmitype/StillImage"/>
        <dc:title/>
      </cc:Work>
    </rdf:RDF>
  </metadata>
  <defs id="defs2188"/>
  <sodipodi:namedview pagecolor="#ffffff" bordercolor="#666666" borderopacity="1" objecttolerance="10" gridtolerance="10" guidetolerance="10" inkscape:pageopacity="0" inkscape:pageshadow="2" inkscape:window-width="1849" inkscape:window-height="1057" id="namedview2186" showgrid="false" inkscape:zoom="0.86327165" inkscape:cx="-5.3434751" inkscape:cy="190.911" inkscape:window-x="63" inkscape:window-y="-8" inkscape:window-maximized="1" inkscape:current-layer="layer4" fit-margin-top="0" fit-margin-left="0" fit-margin-right="0" fit-margin-bottom="0"/>
  <g inkscape:groupmode="layer" id="layer4" inkscape:label="vector" transform="translate(-106.96263,-31.653897)">
    <path style="fill:none;stroke:#000000;stroke-width:1px;stroke-linecap:butt;stroke-linejoin:miter;stroke-opacity:1" d="m 233.03427,33.378371  C 233.03427,33.378371 233.034005,33.378763 233.033479,33.379542 C 233.0324,33.38114 233.030223,33.384367 233.026981,33.389185 C 233.022554,33.395764 233.016141,33.405311 233.007828,33.417728 C 232.996857,33.434116 232.982576,33.455505 232.965181,33.481671 C 232.944505,33.512773 232.91943,33.550625 232.890286,33.594853 C 232.856634,33.645923 232.817556,33.705494 232.773561,33.772991 C 232.724993,33.847504 232.670432,33.931676 232.610562,34.024732 C 232.546653,34.124065 232.476694,34.233522 232.401517,34.352161 C 232.322078,34.477524 232.236812,34.613139 232.146699,34.757895 C 232.049752,34.91363 231.947195,35.079945 231.840249,35.255456 C 230.430233,37.569465 228.257302,41.482051 228.11966,43.82191 m 0,0 C 228.118227,43.846278 228.116814,43.870777 228.115422,43.895404 C 228.113545,43.928592 228.111706,43.962014 228.109907,43.995663 C 228.106906,44.051797 228.104015,44.108566 228.101244,44.165945 C 228.098176,44.229464 228.095255,44.29373 228.092492,44.358712 C 228.088799,44.445568 228.085388,44.533702 228.082288,44.623036 C 228.078524,44.731523 228.075219,44.841781 228.072423,44.953671 C 228.069179,45.083488 228.066621,45.215501 228.064829,45.349494 C 228.0627,45.508661 228.061652,45.670621 228.061817,45.835011 C 228.061998,46.01468 228.063628,46.197251 228.066882,46.38225 C 228.070508,46.588386 228.07615,46.797536 228.084049,47.009044 C 228.20671,50.293528 228.87361,54.146443 230.98652,56.108427 m 0,0 C 231.005155,56.125731 231.023807,56.142983 231.042475,56.160185 C 231.088128,56.202253 231.133879,56.244023 231.179711,56.285527 C 231.243131,56.342958 231.306707,56.399878 231.370398,56.456371 C 231.447874,56.525092 231.52552,56.59318 231.603261,56.660785 C 231.695017,56.740578 231.786906,56.819698 231.878804,56.89839 C 231.980633,56.985586 232.082474,57.072256 232.18416,57.158734 C 232.303179,57.259952 232.421986,57.360906 232.540314,57.462132 C 232.675563,57.577833 232.810185,57.693888 232.943782,57.811096 C 233.084131,57.934228 233.223348,58.058632 233.360971,58.185234 C 233.500003,58.313132 233.637408,58.443274 233.772709,58.576613 C 235.6126,60.389833 237.063358,62.794369 236.925,68.190169 m 0,0 C 236.923669,68.24208 236.922416,68.296534 236.92124,68.353499 C 236.918633,68.47975 236.916404,68.618336 236.914542,68.768905 C 236.911632,69.004275 236.909619,69.268927 236.908464,69.561516 C 236.90687,69.965448 236.906911,70.422626 236.908482,70.929512 C 236.910283,71.510461 236.914095,72.156705 236.91976,72.862918 C 236.926267,73.674219 236.93522,74.564664 236.94638,75.526177 C 236.958531,76.573077 236.973298,77.704228 236.990373,78.909206 C 237.008246,80.170531 237.028648,81.512749 237.051226,82.923904 C 237.074878,84.402187 237.100917,85.956122 237.128937,87.571965 C 237.157994,89.247638 237.189181,90.989888 237.222046,92.783388 C 237.648825,116.073799 238.35843,148.006721 238.35843,155.01489 m 0,0 C 238.35843,155.110725 238.358463,155.209263 238.358527,155.310457 C 238.358658,155.516595 238.358919,155.733752 238.359293,155.961523 C 238.359779,156.257585 238.360456,156.571578 238.361289,156.902611 C 238.36235,157.324387 238.363663,157.773825 238.365153,158.249078 C 238.366889,158.80257 238.368865,159.391077 238.370964,160.011683 C 238.37335,160.716889 238.375894,161.463543 238.378425,162.247366 C 238.381186,163.102405 238.38393,164.001675 238.386433,164.939623 C 238.389171,165.965594 238.391621,167.037843 238.39349,168.149103 C 238.395437,169.306851 238.396753,170.506942 238.397107,171.741157 C 238.397464,172.988586 238.396838,174.270875 238.394886,175.579538 C 238.369721,192.446744 238.124253,213.695294 236.925,221.1573 m 0,0 C 236.912099,221.237572 236.898165,221.320694 236.883211,221.406624 C 236.863058,221.522427 236.841054,221.643331 236.817232,221.769236 C 236.777492,221.979272 236.732693,222.203225 236.682994,222.44063 C 236.618808,222.747238 236.546448,223.076283 236.466254,223.426762 C 236.365313,223.867915 236.251961,224.343028 236.126877,224.850102 C 235.964601,225.507946 235.782579,226.219583 235.582293,226.980649 C 235.357039,227.836594 235.108683,228.75506 234.839334,229.729837 C 234.538292,230.819313 234.211026,231.979133 233.860481,233.200628 C 233.48289,234.516365 233.078288,235.903661 232.650355,237.351682 C 232.195195,238.891835 231.71364,240.500687 231.210118,242.165202 C 223.65729,267.132919 211.161852,304.624714 208.66601,310.6441 m 0,0 C 208.634679,310.719662 208.600197,310.803833 208.56262,310.89646 C 208.486073,311.085146 208.396681,311.30892 208.294919,311.566494 C 208.159947,311.908127 208.003213,312.30922 207.825825,312.766764 C 207.639036,313.248558 207.429345,313.792945 207.198045,314.396412 C 206.91881,315.124942 206.608081,315.939577 206.268132,316.834135 C 205.875821,317.866481 205.444596,319.005267 204.977952,320.240993 C 204.434778,321.679378 203.843615,323.249106 203.209976,324.935193 C 202.488973,326.853752 201.712974,328.922968 200.8901,331.120767 C 200.028082,333.423113 199.114624,335.866566 198.159061,338.425748 C 197.188906,341.024012 196.175351,343.741566 195.128167,346.551853 C 181.215574,383.888521 161.367099,437.593445 158.49607,445.38624 m 0,0 C 158.465968,445.467945 158.434762,445.552771 158.402467,445.640676 C 158.347492,445.790315 158.289362,445.948875 158.228149,446.116151 C 158.134911,446.37094 158.03452,446.645949 157.927234,446.94045 C 157.779243,447.346686 157.618132,447.79001 157.444576,448.26851 C 157.233272,448.851084 157.00352,449.4858 156.756538,450.169206 C 156.480821,450.932124 156.183632,451.755722 155.866665,452.635199 C 155.508703,453.628422 155.125517,454.692913 154.719547,455.821757 C 154.309388,456.962248 153.875972,458.168427 153.421816,459.433163 C 152.928247,460.80766 152.410182,462.251318 151.870852,463.754985 C 151.302286,465.340162 150.710086,466.99203 150.098038,468.699864 C 140.336395,495.938372 125.525837,537.413415 121.02219,549.61685 m 0,0 C 120.965058,549.77166 120.907893,549.926653 120.850699,550.081823 C 120.734192,550.397913 120.617568,550.71474 120.500868,551.032262 C 120.349179,551.444985 120.197362,551.858882 120.045509,552.273862 C 119.849007,552.810859 119.652444,553.349669 119.456019,553.890094 C 119.227969,554.517527 119.000104,555.147137 118.772735,555.778614 C 118.515015,556.494385 118.257932,557.212555 118.001937,557.932672 C 117.723208,558.716738 117.445769,559.503112 117.170203,560.291211 C 116.869318,561.151722 116.570665,562.014289 116.275004,562.878154 C 115.969683,563.770245 115.667552,564.66372 115.369447,565.557743 C 115.055597,566.498988 114.746209,567.440841 114.442259,568.382327 C 110.69354,579.993986 107.771963,591.549783 107.50702,601.22023 m 0,0 C 107.504153,601.32487 107.501417,601.42956 107.498813,601.534299 C 107.493642,601.74231 107.488995,601.950513 107.484891,602.158895 C 107.47911,602.452416 107.474406,602.746291 107.47083,603.040486 C 107.466012,603.436914 107.463244,603.833922 107.462653,604.231423 C 107.461901,604.737478 107.464678,605.244333 107.471249,605.75181 C 107.479255,606.370114 107.492892,606.989341 107.512637,607.609167 C 107.534177,608.285309 107.562986,608.962165 107.599683,609.639315 C 107.63949,610.37384 107.688579,611.108712 107.747741,611.843395 C 107.809461,612.609848 107.882144,613.376096 107.966688,614.141531 C 108.05642,614.953936 108.159513,615.765426 108.277041,616.575274 C 109.726554,626.563394 113.371789,636.301762 121.22697,644.42781 m 0,0 C 121.30417,644.507672 121.381439,644.587569 121.458781,644.667498 C 121.624281,644.838535 121.790114,645.00972 121.956314,645.181032 C 122.196272,645.42837 122.436995,645.675972 122.678586,645.923774 C 123.019114,646.273057 123.361366,646.622738 123.705631,646.972635 C 124.136009,647.410053 124.569532,647.847809 125.006762,648.285549 C 125.532531,648.811931 126.063661,649.338289 126.60113,649.864009 C 127.177736,650.428009 127.761638,650.991274 128.354043,651.553045 C 128.977638,652.144393 129.610656,652.734084 130.254506,653.321233 C 130.926198,653.933772 131.609679,654.543544 132.306548,655.149543 C 133.006732,655.758425 133.720432,656.363497 134.449271,656.963739 C 143.985766,664.817615 156.114009,671.844592 174.46854,675.75843 m 0,0 C 174.649561,675.79703 174.833238,675.835743 175.019538,675.874564 C 175.418191,675.957636 175.828851,676.041206 176.251187,676.12524 C 176.86095,676.246567 177.495052,676.368859 178.152497,676.492011 C 178.969236,676.645002 179.821999,676.799319 180.708875,676.954759 C 181.788647,677.144008 182.918986,677.334921 184.096443,677.527132 C 185.410892,677.741706 186.784061,677.957897 188.211152,678.175194 C 189.822814,678.420594 191.503248,678.667405 193.245544,678.914891 C 195.005817,679.16493 196.829236,679.415658 198.708673,679.666316 C 200.828294,679.949007 203.019167,680.231609 205.271069,680.513033 C 207.766689,680.824915 210.337263,681.135351 212.968877,681.442859 C 251.137485,685.902913 302.146712,689.747005 323.54494,688.4545 m 0,0 C 323.758521,688.441599 323.973697,688.428849 324.190445,688.416244 C 324.682402,688.387633 325.182459,688.359769 325.690347,688.332587 C 326.393137,688.294974 327.110921,688.258667 327.842986,688.223493 C 328.63809,688.185291 329.450039,688.148426 330.27792,688.112678 C 331.359546,688.065974 332.468366,688.021177 333.602341,687.977795 C 335.00913,687.923977 336.454632,687.872337 337.934955,687.821939 C 339.565772,687.766417 341.238848,687.712402 342.948979,687.658639 C 344.640134,687.605473 346.367525,687.552554 348.126118,687.498669 C 349.988476,687.441604 351.885827,687.383456 353.812191,687.322785 C 355.896181,687.25715 358.014127,687.188562 360.158457,687.115197 C 390.503977,686.076977 426.1334,684.082207 445.59101,675.9632 m 0,0 C 445.790256,675.880061 445.988639,675.797133 446.186165,675.71441 C 446.592463,675.544254 446.995135,675.374965 447.394232,675.206491 C 447.963854,674.966032 448.526194,674.727234 449.081401,674.489947 C 449.754365,674.202333 450.416849,673.916939 451.06912,673.6335 C 451.86326,673.288413 452.64226,672.946223 453.406601,672.606451 C 454.202985,672.252435 454.983455,671.901043 455.748553,671.551733 C 456.623989,671.152048 457.4793,670.755088 458.315299,670.360041 C 459.290381,669.899271 460.23919,669.441103 461.163016,668.984247 C 462.144408,668.498923 463.097607,668.01508 464.024159,667.531171 C 465.029878,667.005916 466.004202,666.480583 466.94911,665.953195 C 480.541242,658.366914 488.046512,650.35535 495.35141,636.03202 m 0,0 C 495.419293,635.898916 495.486631,635.765466 495.553426,635.631672 C 495.670833,635.396498 495.786562,635.16026 495.900623,634.922969 C 496.096708,634.515035 496.287863,634.103987 496.474139,633.689877 C 496.688635,633.21303 496.896662,632.732123 497.098298,632.247234 C 497.366414,631.602476 497.623229,630.950677 497.868928,630.292021 C 498.177372,629.465161 498.468297,628.627495 498.742066,627.779387 C 499.045574,626.839152 499.327996,625.886083 499.589829,624.920675 C 499.852076,623.953738 500.093668,622.974424 500.315103,621.98323 C 500.552418,620.920954 500.766581,619.845034 500.958205,618.756081 C 501.145247,617.693168 501.310815,616.617839 501.455479,615.530663 C 503.762753,598.19113 500.75256,577.838178 494.73708,556.78399 m 0,0 C 494.676876,556.573276 494.614896,556.358097 494.551166,556.138522 C 494.465281,555.842613 494.376218,555.538719 494.284041,555.227008 C 494.11105,554.642009 493.927091,554.029479 493.732589,553.390527 C 493.509755,552.658501 493.273082,551.891796 493.023208,551.092081 C 492.708687,550.085468 492.373251,549.026555 492.01817,547.918672 C 491.570308,546.521303 491.091194,545.046029 490.583378,543.49953 C 490.002328,541.730004 489.383701,539.867228 488.731318,537.92121 C 488.000535,535.74133 487.227395,533.456998 486.417269,531.082282 C 485.543126,528.519914 484.62592,525.852312 483.672398,523.097148 C 482.640254,520.114809 481.565558,517.029873 480.456867,513.864753 C 463.967281,466.789869 439.95778,401.977796 436.5809,393.16854 m 0,0 C 436.550286,393.088678 436.51853,393.005788 436.485647,392.919909 C 436.410257,392.723014 436.328944,392.510408 436.24189,392.282563 C 436.118985,391.960884 435.984638,391.60883 435.839364,391.227731 C 435.650932,390.733414 435.444117,390.19023 435.220042,389.601081 C 434.956524,388.908226 434.669134,388.151798 434.359701,387.336516 C 433.995996,386.378241 433.601838,385.338656 433.180194,384.225424 C 432.69451,382.943113 432.172358,381.563084 431.618273,380.097047 C 431.055707,378.60857 430.460223,377.031432 429.836569,375.377889 C 429.153726,373.567413 428.437112,371.665341 427.692959,369.68776 C 426.889273,367.551973 426.053466,365.328113 425.193388,363.036445 C 414.107936,333.49939 398.990483,292.697904 396.64972,284.02331 m 0,0 C 396.625352,283.933004 396.600462,283.842247 396.575058,283.751039 C 396.526408,283.57637 396.475873,283.400049 396.42351,283.222085 C 396.346982,282.961994 396.266548,282.698393 396.182382,282.431308 C 396.079278,282.104129 395.970574,281.771723 395.85659,281.434137 C 395.71656,281.019413 395.568561,280.596872 395.413186,280.166603 C 395.245985,279.703586 395.070242,279.23162 394.886696,278.750816 C 394.67668,278.200674 394.456449,277.638961 394.227109,277.065844 C 393.970208,276.423853 393.701878,275.767553 393.423675,275.097177 C 393.112573,274.347524 392.789125,273.58027 392.455507,272.795742 C 392.088471,271.932631 391.709126,271.048612 391.320369,270.144121 C 385.863163,257.447247 378.551378,240.716333 377.40084,221.1573 m 0,0 C 377.389373,220.962354 377.378086,220.766104 377.366978,220.568573 C 377.352796,220.316383 377.338905,220.062106 377.3253,219.805793 C 377.302829,219.38245 377.281139,218.953553 377.26021,218.519329 C 377.227913,217.849249 377.197427,217.166485 377.168677,216.471875 C 377.130449,215.54825 377.095291,214.603679 377.063026,213.640131 C 377.022522,212.430517 376.986578,211.190995 376.954846,209.92546 C 376.919667,208.522455 376.889663,207.087479 376.86436,205.625839 C 376.838766,204.14739 376.817981,202.641661 376.801513,201.114144 C 376.783894,199.479776 376.771217,197.820465 376.762879,196.14294 C 376.754064,194.369394 376.7501,192.575489 376.750274,190.769174 C 376.752792,164.570606 377.625827,135.761543 377.19607,128.59888 m 0,0 C 377.192077,128.532328 377.18811,128.46421 377.184169,128.394549 C 377.175434,128.240161 377.166827,128.078193 377.158347,127.908893 C 377.146532,127.673009 377.134965,127.422891 377.123645,127.159211 C 377.10823,126.800146 377.093274,126.415931 377.078777,126.008259 C 377.061481,125.521878 377.044838,125.002109 377.028849,124.451827 C 377.009452,123.784256 376.991016,123.071779 376.973541,122.31953 C 376.954367,121.494142 376.936351,120.620872 376.919492,119.706503 C 376.901583,118.735158 376.88498,117.717432 376.869683,116.661456 C 376.85359,115.550523 376.838943,114.397255 376.825741,113.21112 C 376.811997,111.976221 376.799819,110.705697 376.789208,109.410231 C 376.64824,92.199045 376.783861,70.585411 377.19607,69.623596 m 0,0 C 377.201599,69.610695 377.207062,69.597363 377.212461,69.583606 C 377.223458,69.555583 377.234191,69.525798 377.24468,69.494308 C 377.258593,69.452542 377.272078,69.407777 377.285185,69.360145 C 377.30052,69.304415 377.315337,69.244761 377.329717,69.181395 C 377.346688,69.106613 377.36305,69.02666 377.378934,68.941886 C 377.395287,68.854612 377.411134,68.762228 377.426619,68.665114 C 377.444743,68.551448 377.462371,68.431303 377.479734,68.305289 C 377.49958,68.161255 377.519079,68.009554 377.538575,67.851097 C 377.559056,67.684632 377.579535,67.510711 377.60041,67.330391 C 377.620575,67.156202 377.64111,66.976042 377.662374,66.790863 C 377.965757,64.148875 378.417649,60.485216 380.06292,58.56573 m 0,0 C 380.078893,58.547095 380.094874,58.528305 380.110863,58.509361 C 380.147521,58.465927 380.18422,58.421684 380.22095,58.376651 C 380.272806,58.313072 380.324724,58.24792 380.376675,58.181252 C 380.445241,58.093261 380.513865,58.002628 380.58248,57.909486 C 380.664039,57.798774 380.745586,57.684516 380.827011,57.566933 C 380.921031,57.431161 381.014888,57.290956 381.108411,57.146658 C 381.210602,56.988987 381.312395,56.826429 381.413568,56.659428 C 381.526706,56.472678 381.639069,56.280372 381.750347,56.08313 C 381.87093,55.869394 381.990239,55.649863 382.107879,55.425325 C 382.233759,55.185061 382.357728,54.939065 382.479302,54.688305 C 383.978719,51.595594 385.113905,47.778121 384.97753,45.050562 m 0,0 C 384.976199,45.023941 384.97479,44.997312 384.973304,44.970674 C 384.970124,44.913673 384.966589,44.856635 384.962705,44.799563 C 384.957097,44.717163 384.950761,44.634692 384.943712,44.552162 C 384.936134,44.463437 384.927732,44.374644 384.918524,44.285797 C 384.906123,44.166139 384.892261,44.046383 384.876983,43.926565 C 384.857642,43.774881 384.836032,43.623097 384.812244,43.471284 C 384.785756,43.302241 384.756569,43.133162 384.724809,42.964146 C 384.688746,42.77223 384.649365,42.580395 384.606853,42.388785 C 384.562422,42.188525 384.51457,41.988512 384.46351,41.78891 C 384.410594,41.582055 384.354232,41.375641 384.29466,41.169853 C 383.484574,38.371432 382.080912,35.688642 380.67725,33.583146 m 0,0 C 380.662916,33.561645 380.644819,33.540435 380.623011,33.519512 C 380.595168,33.4928 380.561276,33.466557 380.521443,33.440777 C 380.453459,33.396778 380.368168,33.354127 380.266105,33.312792 C 380.133211,33.258971 379.971881,33.207381 379.783297,33.157952 C 379.540009,33.094185 379.251362,33.034015 378.91989,32.97729 C 378.507778,32.906765 378.02947,32.841565 377.489838,32.781398 C 376.840457,32.708995 376.102272,32.643881 375.283772,32.585549 C 374.327411,32.517392 373.261402,32.458494 372.099287,32.408045 C 370.861856,32.354327 369.515458,32.310188 368.076443,32.274652 C 366.550196,32.236962 364.919763,32.208949 363.204651,32.189446 C 339.128603,31.915678 298.366135,33.319002 294.8764,33.173596 m 0,0 C 294.841998,33.172163 294.805388,33.17081 294.766601,33.169536 C 294.68957,33.167005 294.603952,33.164785 294.509982,33.162865 C 294.377619,33.160161 294.228687,33.158052 294.063847,33.156508 C 293.841726,33.154428 293.59072,33.153373 293.312447,33.153268 C 292.977861,33.153141 292.603856,33.154388 292.193243,33.156877 C 291.714927,33.159776 291.186937,33.164361 290.613717,33.170426 C 289.976849,33.177164 289.284149,33.185728 288.541713,33.195835 C 287.715441,33.207083 286.827566,33.220241 285.886492,33.234919 C 284.901556,33.250281 283.858346,33.267308 282.766495,33.285552 C 281.61683,33.304762 280.413236,33.32532 279.166961,33.346704 C 262.351275,33.635234 237.765181,34.074092 233.03427,33.378371 m 0,0 Z " id="path2758"/>
    <path style="fill:none;stroke:#000000;stroke-width:1px;stroke-linecap:butt;stroke-linejoin:miter;stroke-opacity:1" d="m 252.59031,53.753511  C 252.59031,53.753511 252.59173,53.753381 252.594552,53.753122 C 252.599356,53.752681 252.608222,53.751867 252.621064,53.750688 C 252.640624,53.748893 252.669406,53.746252 252.707101,53.742795 C 252.748098,53.739035 252.799638,53.734311 252.861322,53.72866 C 252.940899,53.72137 253.037359,53.712539 253.149847,53.702249 C 253.269432,53.69131 253.40713,53.678722 253.561914,53.664585 C 258.654035,53.199495 282.237747,51.057847 287.70927,50.78427 m 0,0 C 293.85253,50.477107 330.60969,51.500983 336.54817,52.012921 m 0,0 C 342.48666,52.52486 356.82093,53.343961 360.30211,54.163062 " id="path2760"/>
    <path style="fill:none;stroke:#000000;stroke-width:1px;stroke-linecap:butt;stroke-linejoin:miter;stroke-opacity:1" d="m 368.69789,34.607023  C 368.69789,34.607023 372.17907,41.364607 372.28146,44.845787 m 0,0 C 372.38385,48.326966 368.69789,54.367837 367.57163,55.698876 " id="path2762"/>
    <path style="fill:none;stroke:#000000;stroke-width:1px;stroke-linecap:butt;stroke-linejoin:miter;stroke-opacity:1" d="m 243.98975,37.473876  C 243.98975,37.473876 240.50857,41.057444 240.91812,44.743399 m 0,0 C 241.32767,48.429354 241.22528,51.603371 243.78497,53.343961 " id="path2764"/>
    <path style="fill:none;stroke:#000000;stroke-width:1px;stroke-linecap:butt;stroke-linejoin:miter;stroke-opacity:1" d="m 251.66882,62.354073  C 251.66882,62.354073 243.37542,60.920646 243.47781,63.275562 m 0,0 C 243.5802,65.630478 244.60407,87.848596 245.2184,96.75632 m 0,0 C 245.83273,105.66405 246.65183,148.97402 246.44705,154.0934 m 0,0 C 246.24228,159.21278 248.08525,206.3111 246.75421,214.19494 m 0,0 C 245.42317,222.07879 237.23216,259.04073 232.82949,268.05084 m 0,0 C 228.42683,277.06096 204.26334,341.87233 202.01081,348.22037 m 0,0 C 199.75829,354.5684 189.00758,385.1823 185.62879,393.37332 m 0,0 C 182.25,401.56433 170.6802,436.27374 167.09663,446.20534 m 0,0 C 163.51306,456.13694 146.31194,505.18062 142.11405,514.49789 m 0,0 C 137.91615,523.81517 127.47261,558.83174 125.83441,567.02275 m 0,0 C 124.19621,575.21376 119.99831,596.91994 123.47949,607.46587 m 0,0 C 126.96067,618.0118 131.56812,630.50309 149.69073,638.59171 m 0,0 C 167.81334,646.68034 199.6559,655.17851 218.7,655.99761 m 0,0 C 237.7441,656.81671 295.08118,659.06924 300.40534,658.96685 m 0,0 C 305.72949,658.86447 379.14143,657.43104 388.66348,653.94986 m 0,0 C 398.18553,650.46868 433.71405,653.23315 449.27697,648.31854 m 0,0 C 464.83989,643.40393 481.63146,631.11742 488.59382,620.4691 m 0,0 C 495.55618,609.82079 495.71592,597.5813 495.28152,589.97941 m 0,0 C 494.84713,582.37752 491.66158,555.37269 489.41721,549.14638 m 0,0 C 487.17284,542.92006 479.35375,517.87001 477.54377,513.88807 m 0,0 C 475.7338,509.90612 461.90559,475.08221 460.892,471.89665 m 0,0 C 459.87842,468.71109 444.96422,429.83283 443.66104,426.14048 m 0,0 C 442.35786,422.44814 415.42543,353.74149 413.54306,348.96316 m 0,0 C 411.66069,344.18482 381.9771,269.03467 381.39791,266.13871 m 0,0 C 380.81871,263.24275 370.82765,236.74471 369.66927,219.65855 m 0,0 C 368.51088,202.57239 368.94528,139.87486 369.23487,133.79334 m 0,0 C 369.52447,127.71183 368.22129,72.543793 368.36609,67.331065 " id="path2766"/>
    <path style="display:inline;fill:none;stroke:#000000;stroke-width:1px;stroke-linecap:butt;stroke-linejoin:miter;stroke-opacity:1" d="m 160.94058,671.98289  C 160.94058,671.98289 155.01489,668.59129 156.85787,665.72444 m 0,0 C 158.70084,662.85758 167.53822,662.01051 169.02443,661.89368 m 0,0 C 171.47144,661.70133 186.46546,660.46452 190.97051,660.25975 m 0,0 C 195.47557,660.05497 210.68076,660.43152 213.34284,660.43152 m 0,0 C 216.00491,660.43152 269.29192,661.81525 272.7731,661.81525 m 0,0 C 276.25428,661.81525 309.825,662.2972 316.99214,661.88765 m 0,0 C 324.15927,661.4781 397.89895,661.57321 403.42789,661.98275 m 0,0 C 408.95682,662.3923 435.80083,664.11532 439.69156,664.93442 m 0,0 C 443.58229,665.75352 450.26961,666.6326 449.96972,670.01867 m 0,0 C 449.7181,672.85974 447.84354,674.73453 445.18146,676.16796 " id="path2768" sodipodi:nodetypes="csssssssssc"/>
    <path style="display:inline;fill:none;stroke:#000000;stroke-width:1px;stroke-linecap:butt;stroke-linejoin:miter;stroke-opacity:1" d="m 258.03002,682.28813  C 258.03002,682.28813 318.42556,685.99719 338.28876,684.35899 m 0,0 C 358.15197,682.72079 413.3547,681.68236 422.16004,679.42983 m 0,0 C 430.96538,677.1773 441.60264,675.31668 440.57953,671.58413 m 0,0 C 439.51293,667.69297 421.61172,665.77589 415.67324,665.77589 m 0,0 C 409.73475,665.77589 369.4643,663.85236 365.98312,664.05713 " id="path2771" sodipodi:nodetypes="cssssc"/>
  </g>
</svg>