<svg xmlns:dc="http://purl.org/dc/elements/1.1/" xmlns:cc="http://creativecommons.org/ns#" xmlns:rdf="http://www.w3.org/1999/02/22-rdf-syntax-ns#" xmlns:svg="http://www.w3.org/2000/svg" xmlns="http://www.w3.org/2000/svg" xmlns:sodipodi="http://sodipodi.sourceforge.net/DTD/sodipodi-0.dtd" xmlns:inkscape="http://www.inkscape.org/namespaces/inkscape" version="1.1" id="svg833" width="220.28174" height="271.98315" viewBox="0 0 220.28174 271.98315" sodipodi:docname="appleWithoutBackground.svg" inkscape:version="1.0.2 (e86c870879, 2021-01-15, custom)">
  <metadata id="metadata839">
    <rdf:RDF>
      <cc:Work rdf:about="">
        <dc:format>image/svg+xml</dc:format>
        <dc:type rdf:resource="http://purl.org/dc/dcmitype/StillImage"/>
        <dc:title/>
      </cc:Work>
    </rdf:RDF>
  </metadata>
  <defs id="defs837"/>
  <sodipodi:namedview pagecolor="#ffffff" bordercolor="#666666" borderopacity="1" objecttolerance="10" gridtolerance="10" guidetolerance="10" inkscape:pageopacity="0" inkscape:pageshadow="2" inkscape:window-width="1849" inkscape:window-height="1057" id="namedview835" showgrid="false" inkscape:zoom="0.74069435" inkscape:cx="-166.91494" inkscape:cy="88.863331" inkscape:window-x="63" inkscape:window-y="-8" inkscape:window-maximized="1" inkscape:current-layer="layer2" fit-margin-top="0" fit-margin-left="0" fit-margin-right="0" fit-margin-bottom="0"/>
  <g inkscape:groupmode="layer" id="layer1" inkscape:label="vectorApple" style="display:inline" transform="translate(-188.14544,-11.900563)">
    <path style="fill:none;fill-opacity:1;stroke:#b42d2d;stroke-width:1px;stroke-linecap:butt;stroke-linejoin:miter;stroke-opacity:1" d="m 270.37027,75.596556  C 269.81883,75.675126 267.99178,75.942256 267.99178,75.942256 m 0,0 C 267.99178,75.942256 267.99029,75.942474 267.987329,75.942908 C 267.981256,75.943799 267.968997,75.945598 267.950724,75.948283 C 267.925771,75.95195 267.889603,75.95727 267.842661,75.964189 C 267.780705,75.973321 267.699979,75.985238 267.601495,75.999814 C 267.484433,76.017139 267.342281,76.038221 267.176736,76.062848 C 266.985584,76.091284 266.763243,76.124447 266.512326,76.162011 C 266.235329,76.203479 265.923507,76.250311 265.580376,76.302069 C 265.214101,76.357318 264.812152,76.418179 264.378805,76.48412 C 263.920895,76.553799 263.427927,76.62915 262.904947,76.709545 C 262.342304,76.796037 261.744923,76.888367 261.119089,76.985752 C 252.86784,78.269709 239.670515,80.432368 235.92727,81.680115 m 0,0 C 235.888286,81.69311 235.848864,81.70651 235.809011,81.72031 C 235.755303,81.738907 235.700811,81.75823 235.645552,81.778267 C 235.553369,81.811693 235.459051,81.847104 235.362675,81.884441 C 235.255987,81.925773 235.146777,81.969464 235.03515,82.015434 C 234.885948,82.076878 234.732427,82.142392 234.574837,82.211783 C 234.38346,82.296051 234.186081,82.386037 233.983147,82.481393 C 233.747699,82.592027 233.504774,82.709889 233.255068,82.834437 C 232.958449,82.982385 232.652262,83.139768 232.337677,83.305677 C 231.993853,83.487006 231.639997,83.678519 231.277634,83.87903 C 230.873868,84.102451 230.459541,84.337043 230.036763,84.581164 C 223.471481,88.372097 214.868365,94.460991 212.13203,96.699806 m 0,0 C 212.107897,96.719551 212.083586,96.739638 212.059099,96.760064 C 211.999215,96.810017 211.93828,96.861998 211.876328,96.915961 C 211.790603,96.990633 211.702931,97.0691 211.613407,97.151239 C 211.504505,97.251157 211.392862,97.35651 211.278645,97.467078 C 211.143837,97.597579 211.005444,97.735345 210.863742,97.880014 C 210.706728,98.040316 210.545651,98.209094 210.380888,98.385856 C 210.188041,98.592747 209.990144,98.810576 209.7878,99.038554 C 209.55652,99.299133 209.31943,99.572972 209.077431,99.858893 C 208.823202,100.159263 208.563555,100.472967 208.299533,100.79864 C 208.032808,101.127648 207.761618,101.468871 207.48704,101.820902 C 203.753181,106.608008 199.392766,113.393711 197.11234,118.63868 m 0,0 C 197.090401,118.689139 197.068398,118.740176 197.046333,118.791782 C 196.99743,118.906155 196.94822,119.023323 196.898722,119.143194 C 196.821346,119.330577 196.743266,119.524564 196.664554,119.724803 C 196.555888,120.001242 196.446016,120.289597 196.335126,120.588939 C 196.208033,120.93202 196.079603,121.289534 195.950118,121.660084 C 195.801365,122.085774 195.651219,122.528668 195.500109,122.986649 C 195.33558,123.4853 195.169908,124.001836 195.003645,124.533523 C 194.829607,125.090072 194.654923,125.663222 194.480226,126.249837 C 194.297219,126.864357 194.114197,127.493653 193.93189,128.134121 C 193.742833,128.798303 193.554545,129.474499 193.367838,130.158689 C 190.94326,139.043592 188.785389,149.276537 188.67432,152.05327 m 0,0 C 188.672801,152.091241 188.671337,152.131372 188.66993,152.17363 C 188.667065,152.259713 188.664439,152.354624 188.662077,152.458089 C 188.659007,152.592576 188.656383,152.741516 188.65426,152.904308 C 188.651555,153.111726 188.649663,153.341632 188.648698,153.592783 C 188.647574,153.88528 188.647707,154.206594 188.649276,154.554762 C 188.651059,154.950392 188.654697,155.380696 188.660452,155.842796 C 188.666729,156.346881 188.675526,156.888801 188.687183,157.464819 C 188.699934,158.094894 188.716107,158.765766 188.736149,159.472544 C 188.757029,160.208889 188.782109,160.984207 188.811893,161.792965 C 188.841996,162.610383 188.876904,163.461961 188.917138,164.341989 C 189.435715,175.684567 190.839152,191.75323 194.24341,200.31879 m 0,0 C 194.280031,200.410933 194.317049,200.503754 194.354458,200.597241 C 194.404872,200.723229 194.455997,200.850426 194.507819,200.978803 C 194.59427,201.192963 194.682661,201.410407 194.772929,201.630997 C 194.88951,201.915889 195.009222,202.206028 195.131929,202.501119 C 195.286382,202.872554 195.44558,203.251834 195.609251,203.638368 C 195.821587,204.139832 196.041453,204.653506 196.268256,205.1781 C 196.523334,205.768093 196.787187,206.371899 197.058972,206.987684 C 197.362737,207.675926 197.676411,208.379132 197.998817,209.09474 C 198.346098,209.865559 198.70351,210.650768 199.069584,211.447166 C 199.45895,212.294236 199.858115,213.153965 200.26531,214.022501 C 206.373229,227.050533 214.287861,242.060128 218.03865,246.05291 m 0,0 C 218.085734,246.103032 218.13372,246.15422 218.182595,246.206454 C 218.282156,246.312858 218.385404,246.423604 218.492224,246.538523 C 218.633904,246.690947 218.781868,246.850712 218.935846,247.017426 C 219.097984,247.192975 219.266791,247.376229 219.441952,247.566729 C 219.653413,247.796708 219.874134,248.037247 220.103562,248.287538 C 220.368329,248.576382 220.644692,248.878214 220.9318,249.191793 C 221.265994,249.556799 221.614746,249.937721 221.976716,250.332601 C 222.388593,250.781926 222.817584,251.249324 223.261713,251.731911 C 223.726968,252.237454 224.208836,252.759666 224.705044,253.295232 C 225.20883,253.838977 225.727398,254.396486 226.258371,254.96429 C 233.312726,262.507973 242.556671,271.868852 248.41556,274.91097 m 0,0 C 248.476989,274.942866 248.538228,274.974497 248.599277,275.005865 C 248.7032,275.059263 248.806572,275.1119 248.909396,275.163786 C 249.066014,275.242816 249.22136,275.320103 249.375439,275.395681 C 249.587977,275.499934 249.798105,275.600935 250.00584,275.698775 C 250.258757,275.817895 250.508126,275.932328 250.753976,276.042237 C 251.02843,276.164934 251.298498,276.281993 251.56422,276.39364 C 251.864308,276.519726 252.158854,276.63891 252.447914,276.751517 C 252.739957,276.865286 253.026401,276.972342 253.307305,277.073021 C 253.612587,277.182437 253.911326,277.284321 254.203598,277.379104 C 254.511713,277.479025 254.812641,277.571054 255.10647,277.655696 C 259.792802,279.005669 262.67355,278.476603 264.11029,278.11742 m 0,0 C 264.128516,278.112863 264.146684,278.108201 264.164795,278.103436 C 264.201687,278.09373 264.238342,278.083596 264.274767,278.073054 C 264.322114,278.059351 264.369073,278.044957 264.415664,278.029914 C 264.475954,278.010448 264.535627,277.989895 264.594723,277.968344 C 264.663333,277.943324 264.731166,277.916959 264.798285,277.88939 C 264.874363,277.858141 264.949523,277.825344 265.023858,277.791204 C 265.104794,277.754032 265.184751,277.715268 265.263849,277.675175 C 265.350214,277.631398 265.435554,277.586037 265.520024,277.539435 C 265.607254,277.49131 265.693556,277.441861 265.7791,277.391466 C 265.869162,277.33841 265.958384,277.284305 266.046966,277.229592 C 267.139471,276.554798 268.13449,275.787543 269.40515,275.75477 m 0,0 C 269.427449,275.754195 269.449656,275.753669 269.471773,275.753193 C 269.515697,275.752247 269.559265,275.751497 269.602491,275.750944 C 269.663378,275.750165 269.723586,275.749777 269.783153,275.749785 C 269.86342,275.749796 269.942524,275.750526 270.020559,275.751985 C 270.119905,275.753843 270.217518,275.756884 270.313594,275.76113 C 270.430651,275.766303 270.545425,275.773266 270.658268,275.782059 C 270.781363,275.791651 270.90216,275.803421 271.021115,275.817423 C 271.150149,275.832611 271.277015,275.850424 271.402296,275.87093 C 271.532994,275.892323 271.661967,275.916647 271.789876,275.94398 C 271.925634,275.97299 272.060193,276.005389 272.194344,276.041268 C 273.848876,276.483779 275.441339,277.455759 278.45494,279.12998 m 0,0 C 278.484557,279.146434 278.513989,279.162867 278.543238,279.179278 C 278.605827,279.214395 278.667578,279.249411 278.728515,279.284322 C 278.816494,279.334726 278.902776,279.384911 278.987432,279.434861 C 279.106756,279.505267 279.22285,279.575207 279.335912,279.644639 C 279.477255,279.731439 279.613859,279.817445 279.746114,279.902575 C 279.905151,280.004944 280.057899,280.106046 280.205033,280.205738 C 280.362881,280.312689 280.514269,280.418018 280.660031,280.521547 C 280.813468,280.630527 280.960671,280.737513 281.102615,280.8423 C 281.250697,280.951618 281.393054,281.058542 281.530793,281.162838 C 281.669187,281.26763 281.802918,281.369769 281.933107,281.469018 C 283.636571,282.767643 284.733725,283.571444 287.73677,283.34899 m 0,0 C 287.766387,283.346796 287.795926,283.344659 287.825387,283.342578 C 287.88843,283.338124 287.951118,283.333924 288.013459,283.329962 C 288.103467,283.324241 288.192752,283.319016 288.281341,283.314239 C 288.391395,283.308305 288.500374,283.303062 288.608328,283.298419 C 288.739763,283.292766 288.869679,283.288002 288.998165,283.283961 C 289.1416,283.27945 289.283254,283.275841 289.423252,283.272903 C 289.581357,283.269585 289.73735,283.267123 289.891411,283.265186 C 290.047061,283.263229 290.200739,283.261807 290.35263,283.260579 C 290.523933,283.259194 290.692963,283.258054 290.859987,283.25667 C 291.045088,283.255136 291.227725,283.253301 291.408261,283.250498 C 294.026737,283.209848 296.203215,282.965511 299.04373,280.48006 m 0,0 C 299.072082,280.455252 299.100591,280.430353 299.129254,280.405366 C 299.194311,280.348652 299.260163,280.291482 299.326778,280.233886 C 299.418956,280.154187 299.512595,280.073671 299.607608,279.992415 C 299.710802,279.904162 299.815617,279.815036 299.921943,279.725137 C 300.060858,279.607683 300.202352,279.488908 300.346178,279.369032 C 300.524607,279.220316 300.706626,279.069906 300.891765,278.918223 C 301.095726,278.751119 301.303474,278.582469 301.514382,278.412836 C 301.722949,278.245086 301.934606,278.076374 302.148745,277.907245 C 302.37552,277.728136 302.605079,277.548559 302.836701,277.36916 C 303.087275,277.175081 303.340264,276.98121 303.594754,276.788365 C 307.196173,274.05932 311.098248,271.53575 312.71333,271.53575 m 0,0 C 312.729869,271.53575 312.746416,271.535733 312.762971,271.535701 C 312.797024,271.535635 312.831113,271.535502 312.865239,271.535308 C 312.913946,271.535032 312.962729,271.534633 313.011592,271.53413 C 313.070819,271.533521 313.130164,271.532759 313.189634,271.531879 C 313.262039,271.530808 313.334631,271.529561 313.407423,271.5282 C 313.483267,271.526782 313.559328,271.52524 313.635623,271.523643 C 313.722921,271.521815 313.810525,271.519915 313.898458,271.518047 C 314.001021,271.515869 314.104032,271.513734 314.20753,271.511807 C 314.317477,271.50976 314.427973,271.507947 314.539064,271.506566 C 314.659647,271.505067 314.78093,271.504076 314.902972,271.503846 C 316.658502,271.500544 318.571038,271.654697 320.81384,272.71708 m 0,0 C 320.834682,272.726952 320.855417,272.736882 320.876047,272.746868 C 320.912309,272.76442 320.948246,272.782145 320.983869,272.800039 C 321.04511,272.830801 321.105422,272.86206 321.164858,272.893791 C 321.233298,272.930329 321.300576,272.967493 321.366772,273.005244 C 321.454793,273.055441 321.540901,273.106676 321.625285,273.158856 C 321.731218,273.224362 321.834433,273.291358 321.935302,273.359663 C 322.047129,273.435387 322.156072,273.51272 322.26264,273.591413 C 322.369377,273.670231 322.47373,273.750414 322.57621,273.831713 C 322.686039,273.918843 322.793716,274.007255 322.899869,274.096643 C 323.003484,274.183894 323.105647,274.272075 323.206941,274.360901 C 324.822491,275.777601 326.217066,277.358476 329.75815,277.94866 m 0,0 C 329.79359,277.954567 329.829361,277.960209 329.865458,277.965588 C 329.914103,277.972838 329.963341,277.979611 330.01316,277.985912 C 330.106657,277.997737 330.202202,278.007901 330.29972,278.016437 C 330.411443,278.026217 330.525756,278.033861 330.642547,278.039419 C 330.789554,278.046415 330.940488,278.050106 331.095127,278.050594 C 331.290173,278.051209 331.491114,278.046728 331.697504,278.037354 C 331.933658,278.026628 332.176947,278.009495 332.426703,277.98626 C 332.706474,277.960232 332.99436,277.926547 333.289424,277.885632 C 333.607804,277.841484 333.934542,277.788917 334.268459,277.728469 C 334.629909,277.663037 334.999772,277.58837 335.376554,277.505149 C 340.980434,276.267396 348.114823,273.137402 351.86579,270.35443 m 0,0 C 351.899795,270.3292 351.934178,270.303614 351.968934,270.277676 C 352.048618,270.218207 352.13026,270.156887 352.213797,270.093769 C 352.331737,270.004657 352.453452,269.91196 352.578762,269.815825 C 352.741299,269.69113 352.909884,269.560653 353.084123,269.424715 C 353.289032,269.264848 353.50176,269.097429 353.721666,268.922983 C 353.980142,268.71794 354.248533,268.503188 354.525799,268.279579 C 354.845176,268.022008 355.176327,267.752685 355.51766,267.472911 C 355.864218,267.188854 356.221273,266.894024 356.587157,266.589783 C 356.987766,266.256668 357.398961,265.91227 357.818553,265.558378 C 358.271713,265.176175 358.734668,264.782898 359.204663,264.3808 C 365.262371,259.198201 372.489522,252.550151 374.98598,249.25936 m 0,0 C 375.011969,249.225102 375.038595,249.189967 375.065849,249.153965 C 375.118042,249.085018 375.172537,249.01289 375.229272,248.937647 C 375.31219,248.82768 375.399892,248.711058 375.492183,248.587985 C 375.605239,248.43722 375.725181,248.276773 375.85165,248.107018 C 376.007017,247.898474 376.172235,247.675881 376.346637,247.439931 C 376.534313,247.186023 376.732625,246.916648 376.940742,246.632668 C 377.178873,246.307735 377.429841,245.963681 377.692403,245.601798 C 377.986519,245.196426 378.295183,244.768683 378.616647,244.320384 C 378.976127,243.81907 379.351613,243.292052 379.740662,242.741869 C 380.168681,242.136576 380.613115,241.503244 381.070711,240.845255 C 387.494252,231.608679 396.511239,217.513368 399.11874,207.91302 m 0,0 C 399.144729,207.817333 399.170809,207.721265 399.196977,207.624824 C 399.230387,207.501696 399.26394,207.37796 399.297632,207.25363 C 399.353279,207.048278 399.409303,206.841306 399.465679,206.632781 C 399.552676,206.310992 399.64051,205.985503 399.729087,205.656557 C 399.846868,205.219157 399.965963,204.775645 400.086151,204.326594 C 400.237032,203.762866 400.389637,203.190408 400.543529,202.610351 C 400.714138,201.967285 400.886329,201.31488 401.059508,200.654678 C 401.234678,199.986884 401.410859,199.311113 401.587436,198.628961 C 401.776365,197.899092 401.965747,197.161918 402.15483,196.419394 C 402.354735,195.634369 402.554305,194.843364 402.75265,194.048689 C 405.629425,182.522828 408.248471,170.225026 407.89429,164.20403 m 0,0 C 407.890999,164.148086 407.887701,164.091636 407.884395,164.034686 C 407.877068,163.908468 407.869702,163.779794 407.862288,163.648731 C 407.851958,163.466122 407.841534,163.278875 407.830992,163.087171 C 407.816637,162.826119 407.802063,162.556803 407.787208,162.279682 C 407.769485,161.949057 407.751361,161.607321 407.732732,161.255253 C 407.710132,160.828144 407.686789,160.385828 407.662514,159.929695 C 407.635878,159.429214 407.608121,158.912098 407.578993,158.380183 C 407.54805,157.815124 407.515561,157.233364 407.481227,156.637104 C 407.445107,156.009813 407.406945,155.366473 407.366395,154.709647 C 407.324178,154.025818 407.279373,153.327371 407.231588,152.617197 C 406.596732,143.182032 405.435924,131.677021 402.83148,124.88282 m 0,0 C 402.796547,124.791689 402.760985,124.700121 402.724803,124.608127 C 402.651099,124.420729 402.574824,124.231562 402.496058,124.040719 C 402.391586,123.787595 402.282731,123.531523 402.169678,123.272722 C 402.037406,122.969924 401.899387,122.66339 401.755915,122.35347 C 401.586595,121.987712 401.409681,121.617238 401.225659,121.242622 C 401.03621,120.856957 400.839227,120.466903 400.63524,120.073086 C 400.396484,119.612144 400.148133,119.146048 399.891037,118.675804 C 399.597176,118.138315 399.29189,117.595406 398.976447,117.04858 C 398.645063,116.47412 398.302469,115.895336 397.950136,115.31397 C 397.609784,114.752373 397.260344,114.188367 396.903142,113.623521 C 391.806871,105.564763 385.130551,97.335104 380.72384,93.493355 m 0,0 C 380.681059,93.456059 380.637793,93.41857 380.594046,93.380892 C 380.493747,93.294509 380.390917,93.207133 380.285596,93.118807 C 380.136901,92.994105 379.983241,92.867509 379.824729,92.73914 C 379.615519,92.569714 379.397858,92.397199 379.172005,92.221874 C 378.903548,92.013477 378.623518,91.801109 378.332351,91.585238 C 377.996146,91.335976 377.645093,91.082043 377.279865,90.824159 C 376.880789,90.542375 376.464788,90.255874 376.03274,89.965594 C 375.549599,89.640986 375.046392,89.311653 374.524346,88.978907 C 373.958645,88.618336 373.370822,88.253757 372.762438,87.88684 C 372.111444,87.494225 371.436909,87.098934 370.740747,86.703012 C 362.154743,81.81998 350.278899,76.841053 338.70246,75.604735 m 0,0 C 338.589475,75.592669 338.476349,75.580628 338.363085,75.568613 C 338.120717,75.542903 337.877717,75.517312 337.634113,75.491845 C 337.282401,75.455076 336.92943,75.418565 336.575283,75.382326 C 336.194554,75.343367 335.812466,75.304722 335.429123,75.266409 C 334.912846,75.21481 334.394293,75.163812 333.873718,75.113458 C 333.214696,75.049713 332.552434,74.987 331.887447,74.925406 C 331.146988,74.856822 330.403152,74.789625 329.65665,74.723934 C 328.809004,74.649343 327.957921,74.576694 327.104443,74.506162 C 326.212436,74.432446 325.317813,74.361042 324.421764,74.29215 C 323.493153,74.220754 322.56301,74.152055 321.632659,74.086275 C 308.981245,73.191766 296.291376,72.837028 286.89297,73.579608 m 0,0 C 284.16177,73.795404 281.59215,73.994444 281.27642,73.982783 " id="path846" sodipodi:nodetypes="ccsssssssssssssssssssssssc"/>
    <path style="fill:none;stroke:#b42d2d;stroke-width:1px;stroke-linecap:butt;stroke-linejoin:miter;stroke-opacity:1" d="m 252.50597,86.27685  C 252.50597,86.27685 252.506555,86.277294 252.507722,86.278176 C 252.509211,86.279303 252.511649,86.281143 252.51503,86.283684 C 252.5208,86.288021 252.529316,86.294398 252.54055,86.302749 C 252.555177,86.313623 252.574411,86.327844 252.598189,86.345265 C 252.628864,86.367739 252.667101,86.395539 252.712763,86.428349 C 252.769534,86.469142 252.837783,86.51768 252.917247,86.573357 C 253.012872,86.640358 253.124738,86.717698 253.252388,86.804321 C 253.401539,86.905534 253.572238,87.019422 253.763757,87.1443 C 253.967688,87.277272 254.195225,87.422705 254.445487,87.578568 C 254.71092,87.743879 255.001917,87.920922 255.317428,88.107272 C 259.746439,90.723173 269.006003,95.173076 280.19093,94.749403 m 0,0 C 280.301193,94.745226 280.411543,94.74102 280.521977,94.736785 C 280.741298,94.728373 280.960947,94.719844 281.18089,94.711195 C 281.490696,94.699013 281.801085,94.686592 282.11196,94.673924 C 282.530865,94.656854 282.950653,94.639335 283.371087,94.621345 C 283.876601,94.599714 284.383049,94.577402 284.89002,94.554371 C 285.480582,94.527543 286.071853,94.499739 286.663183,94.470899 C 287.320172,94.438857 287.977233,94.405537 288.633475,94.370855 C 289.36382,94.332257 290.09315,94.291973 290.820235,94.249889 C 291.581208,94.205843 292.339721,94.159826 293.094365,94.111706 C 293.888968,94.061038 294.679281,94.008039 295.463658,93.952557 C 306.047062,93.203956 315.549772,92.003278 319.9284,89.976134 m 0,0 C 319.973507,89.955251 320.018544,89.934298 320.063511,89.913276 C 320.140057,89.877491 320.216398,89.841507 320.292531,89.805332 C 320.408494,89.750232 320.523975,89.694689 320.638964,89.638731 C 320.764027,89.577871 320.888508,89.51652 321.012394,89.454714 C 321.172216,89.37498 321.331048,89.294489 321.488862,89.213318 C 321.656633,89.127025 321.823253,89.039963 321.98869,88.952225 C 327.431286,86.065783 331.593024,82.447082 333.29356,81.384248 " id="path848" sodipodi:nodetypes="cssc"/>
  </g>
  <g inkscape:groupmode="layer" id="layer2" inkscape:label="vectorVetka" style="display:inline" transform="translate(-188.14544,-11.900563)">
    <path style="fill:none;fill-opacity:1;stroke:#5e3a2a;stroke-width:1px;stroke-linecap:butt;stroke-linejoin:miter;stroke-opacity:1" d="m 286.55544,94.463728  C 284.69881,88.089275 282.68565,83.879717 277.12691,75.817823 m 0,0 C 268.4014,63.075885 260.15001,54.149514 259.72251,52.653297 m 0,0 C 259.04746,50.290652 257.46055,47.532753 256.3473,47.928001 m 0,0 C 254.33066,48.643991 246.21494,50.877071 248.40883,54.927325 m 0,0 C 250.60272,58.977578 254.98874,57.22855 254.98874,57.22855 m 0,0 C 254.98874,57.22855 273.72964,74.971882 280.48006,94.716869 " id="path851" sodipodi:nodetypes="ccssscc"/>
  </g>
  <g inkscape:groupmode="layer" id="layer3" inkscape:label="vectorListok" style="display:inline" transform="translate(-188.14544,-11.900563)">
    <path style="fill:none;fill-opacity:1;stroke:#2f7029;stroke-width:1px;stroke-linecap:butt;stroke-linejoin:miter;stroke-opacity:1" d="m 275.92482,74.194511  C 275.50716,74.164681 274.46301,75.119332 275.23866,76.431981 m 0,0 C 276.01432,77.74463 276.61098,78.520287 277.77446,77.893795 m 0,0 C 278.93795,77.267303 287.17467,66.302232 288.3272,66.323114 m 0,0 C 289.60853,66.346324 298.26969,67.959427 307.21957,67.303103 m 0,0 C 316.16945,66.646778 328.46062,64.856802 333.65155,62.171838 m 0,0 C 338.84248,59.486874 351.43198,53.102625 355.60859,49.045346 m 0,0 C 359.7852,44.988067 372.91169,30.310263 374.10501,27.684964 m 0,0 C 375.29833,25.059666 376.99881,21.24105 376.87948,20.405728 m 0,0 C 376.76015,19.570406 374.70167,18.019093 372.43437,17.183771 m 0,0 C 370.16706,16.348449 359.66587,12.171838 351.43198,12.410501 m 0,0 C 343.19809,12.649165 336.39618,13.126492 329.95227,15.274463 m 0,0 C 323.50835,17.422434 312.64917,22.195704 305.13127,29.236277 m 0,0 C 297.61337,36.27685 293.43675,39.976134 290.69212,44.988067 m 0,0 C 287.94749,50 286.39618,57.756563 286.03819,60.620525 m 0,0 C 285.68019,63.484487 286.92294,63.76534 285.25229,65.197321 m 0,0 C 283.58165,66.629302 277.14797,73.806683 275.92482,74.194511 m 0,0 Z " id="path853"/>
    <path style="fill:none;stroke:#2f7029;stroke-width:1px;stroke-linecap:butt;stroke-linejoin:miter;stroke-opacity:1" d="m 288.18616,63.245823  C 288.18616,63.245823 311.69451,47.016706 319.80907,44.272076 m 0,0 C 327.92363,41.527446 366.22912,22.315036 368.49642,21.599045 " id="path881"/>
  </g>
</svg>