<svg xmlns:dc="http://purl.org/dc/elements/1.1/" xmlns:cc="http://creativecommons.org/ns#" xmlns:rdf="http://www.w3.org/1999/02/22-rdf-syntax-ns#" xmlns:svg="http://www.w3.org/2000/svg" xmlns="http://www.w3.org/2000/svg" xmlns:sodipodi="http://sodipodi.sourceforge.net/DTD/sodipodi-0.dtd" xmlns:inkscape="http://www.inkscape.org/namespaces/inkscape" width="37.983116mm" height="36.745358mm" viewBox="0 0 37.983116 36.745357" version="1.1" id="svg8" inkscape:version="1.0.2 (e86c870879, 2021-01-15, custom)" sodipodi:docname="exp_spiral.svg">
  <defs id="defs2"/>
  <sodipodi:namedview id="base" pagecolor="#ffffff" bordercolor="#666666" borderopacity="1.0" inkscape:pageopacity="0.0" inkscape:pageshadow="2" inkscape:zoom="3.959798" inkscape:cx="73.12634" inkscape:cy="86.992108" inkscape:document-units="mm" inkscape:current-layer="layer1" inkscape:document-rotation="0" showgrid="false" fit-margin-top="0" fit-margin-left="0" fit-margin-right="0" fit-margin-bottom="0" inkscape:window-width="1849" inkscape:window-height="1057" inkscape:window-x="63" inkscape:window-y="-8" inkscape:window-maximized="1"/>
  <metadata id="metadata5">
    <rdf:RDF>
      <cc:Work rdf:about="">
        <dc:format>image/svg+xml</dc:format>
        <dc:type rdf:resource="http://purl.org/dc/dcmitype/StillImage"/>
        <dc:title/>
      </cc:Work>
    </rdf:RDF>
  </metadata>
  <g inkscape:label="Слой 1" inkscape:groupmode="layer" id="layer1" transform="translate(-5.8518326,-9.2961203)">
    <!-- <path
       style="fill:none;stroke:red;stroke-width:0.264583px;stroke-linecap:butt;stroke-linejoin:miter;stroke-opacity:1"
       d="m 8.6934523,43.845239 C 8.6934523,43.845239 5.669642700000001,37.608631 5.4806548,31.938989 C 5.2916666,26.269345 6.047619,17.197916 10.961309,13.418155 C 15.875,9.6383926 20.032738,8.315476 28.537201,9.0714284 C 37.041666,9.8273808 38.889765,15.360591 41.605871,20.221726 C 43.551445,23.703805 44.034225,31.938989 44.034225,31.938989"
       id="path833"
       sodipodi:nodetypes="cssssc" />-->
    <path style="fill:none;stroke:#000000;stroke-width:0.264583px;stroke-linecap:butt;stroke-linejoin:miter;stroke-opacity:1" d="m 24.833238,28.581164  C 24.83024,28.57666 24.82727,28.5721 24.82433,28.5675 C 24.8183,28.55807 24.81242,28.54845 24.80668,28.53865 C 24.79884,28.52527 24.79128,28.51156 24.78399,28.49753 C 24.77437,28.47902 24.76524,28.45996 24.75661,28.44041 C 24.74635,28.41717 24.73679,28.39322 24.72796,28.36864 C 24.71777,28.34026 24.70855,28.31105 24.70034,28.28112 C 24.69127,28.24807 24.68343,28.21415 24.67687,28.17951 C 24.66987,28.14253 24.66433,28.10473 24.66031,28.06631 C 24.65606,28.02571 24.6535,27.98441 24.65271,27.94264 C 24.65186,27.8977 24.65305,27.85222 24.65638,27.80648 C 24.65976,27.76004 24.66533,27.71333 24.67319,27.66665 C 24.68069,27.62216 24.69026,27.5777 24.70199,27.53352 C 24.71368,27.48952 24.72751,27.4458 24.74356,27.40262 C 24.75857,27.36223 24.77552,27.32231 24.79448,27.28306 C 24.81305,27.24462 24.83354,27.20682 24.85602,27.16986 C 25.0714,26.81571 25.46915,26.53862 26.10277,26.50983 m 0,0 C 26.11232,26.5094 26.12188,26.5091 26.13145,26.50892 C 26.14974,26.50858 26.16805,26.50871 26.18638,26.50931 C 26.2168,26.5103 26.24727,26.51256 26.27777,26.51605 C 26.31687,26.52052 26.35602,26.52702 26.39515,26.53546 C 26.44565,26.54636 26.49612,26.5605 26.54642,26.5777 C 26.60285,26.597 26.65906,26.62016 26.71487,26.64694 C 26.78025,26.67831 26.84506,26.71465 26.909,26.75556 C 26.97719,26.79919 27.04439,26.84803 27.11021,26.9016 C 27.17801,26.95678 27.24435,27.01697 27.30882,27.08166 C 27.37482,27.14789 27.43886,27.21884 27.50049,27.29395 C 27.5619,27.36879 27.62092,27.44776 27.67711,27.53031 C 27.73497,27.61532 27.78983,27.70413 27.84121,27.79614 C 27.89366,27.89006 27.94248,27.98731 27.98716,28.08725 C 28.03052,28.18423 28.06998,28.28375 28.10508,28.38522 C 28.13828,28.48118 28.16757,28.57889 28.19256,28.67785 C 28.40674,29.52589 28.30528,30.46587 27.63957,31.18705 m 0,0 C 27.63085,31.1965 27.62206,31.20592 27.61321,31.21531 C 27.59359,31.23611 27.57366,31.25675 27.55342,31.27722 C 27.52178,31.30921 27.48939,31.34079 27.45628,31.37192 C 27.41057,31.4149 27.36349,31.45703 27.3151,31.49823 C 27.25964,31.54545 27.20246,31.59145 27.14367,31.63613 C 27.07613,31.68745 27.00646,31.73702 26.93483,31.78466 C 26.85683,31.83653 26.7765,31.88612 26.69405,31.9332 C 26.60774,31.98248 26.5191,32.02901 26.42836,32.07253 C 26.33331,32.11813 26.23596,32.16043 26.13658,32.19914 C 26.03352,32.23928 25.92828,32.27556 25.82116,32.30765 C 25.70987,32.34098 25.59655,32.36979 25.48154,32.39371 C 25.36317,32.41833 25.24301,32.43777 25.12143,32.45163 C 25.00331,32.4651 24.88385,32.4733 24.76339,32.47586 C 24.64587,32.47836 24.5274,32.47549 24.40829,32.46692 C 24.29471,32.45875 24.18054,32.44539 24.06607,32.42654 C 23.13512,32.27327 22.18378,31.75729 21.35874,30.71933 m 0,0 C 21.3432,30.69979 21.32782,30.6802 21.31259,30.66057 C 21.28437,30.6242 21.25666,30.58768 21.22947,30.55101 C 21.18734,30.4942 21.14645,30.43704 21.1068,30.37956 C 21.05656,30.30674 21.00831,30.23341 20.96205,30.15963 C 20.90843,30.07412 20.85748,29.988 20.8092,29.90136 C 20.75365,29.80166 20.70163,29.70127 20.65315,29.60032 C 20.60376,29.49748 20.55804,29.39406 20.51599,29.29019 C 20.46967,29.17577 20.4278,29.06081 20.39039,28.9455 C 20.35124,28.82483 20.31697,28.70377 20.28758,28.58254 C 20.25673,28.4553 20.23125,28.32788 20.21115,28.20052 C 20.18946,28.06306 20.17403,27.92567 20.16486,27.78866 C 20.15559,27.65017 20.15271,27.51207 20.15623,27.37468 C 20.15978,27.23588 20.16986,27.09781 20.18647,26.96079 C 20.20291,26.82517 20.22575,26.69059 20.25498,26.55736 C 20.28371,26.42644 20.31861,26.29683 20.35969,26.16883 C 20.74648,24.96352 21.68086,23.90116 23.16281,23.23578 m 0,0 C 23.18842,23.22428 23.21416,23.21311 23.24002,23.20227 C 23.29269,23.18019 23.34586,23.15947 23.3995,23.14007 C 23.47064,23.11434 23.5426,23.09095 23.61531,23.06982 C 23.69188,23.04757 23.76928,23.02783 23.84743,23.01051 C 23.94177,22.9896 24.0372,22.97222 24.13358,22.95822 C 24.2448,22.94206 24.35728,22.9304 24.47079,22.923 C 24.60292,22.91439 24.73644,22.91155 24.87101,22.91411 C 25.02413,22.91703 25.1786,22.92694 25.3339,22.94331 C 25.49659,22.96045 25.66018,22.98467 25.82408,23.01535 C 25.99048,23.0465 26.1572,23.0843 26.32361,23.12809 C 26.49274,23.1726 26.66155,23.2233 26.82937,23.27951 C 26.99448,23.33481 27.15864,23.39544 27.32122,23.46074 C 27.48246,23.5255 27.64214,23.59486 27.79965,23.66817 C 27.95554,23.74073 28.10931,23.81716 28.26036,23.89685 C 28.40628,23.97383 28.54966,24.05385 28.68997,24.13635 C 29.92523,24.86266 30.92212,25.78105 31.31453,26.50983 m 0,0 C 31.31967,26.51938 31.32479,26.52902 31.32988,26.53875 C 31.34092,26.55987 31.35183,26.5814 31.3626,26.60333 C 31.37546,26.62952 31.38812,26.65628 31.40059,26.6836 C 31.41838,26.7226 31.43577,26.76274 31.45275,26.80397 C 31.47412,26.85586 31.49483,26.90948 31.51487,26.96473 C 31.54051,27.03541 31.56505,27.10876 31.58844,27.18458 C 31.61704,27.27727 31.64392,27.37365 31.66902,27.47334 C 31.69618,27.58123 31.72125,27.693 31.74412,27.80818 C 31.76923,27.93463 31.7917,28.06518 31.81139,28.19921 C 31.83196,28.33923 31.84951,28.48305 31.86388,28.62995 C 31.87875,28.7819 31.89022,28.93715 31.89813,29.09491 C 31.90612,29.25435 31.91048,29.41635 31.91103,29.5801 C 31.91159,29.74618 31.90824,29.91406 31.9008,30.08289 C 31.89354,30.24766 31.88238,30.41334 31.86716,30.57913 C 31.85209,30.74324 31.83305,30.90746 31.80987,31.07103 C 31.60466,32.51896 31.07534,33.91539 30.11182,34.72837 m 0,0 C 30.09496,34.7426 30.07787,34.75679 30.06055,34.77094 C 30.02616,34.79904 29.99088,34.82698 29.95473,34.85474 C 29.90381,34.89384 29.85116,34.93259 29.79685,34.97095 C 29.72367,35.02264 29.64747,35.07362 29.56841,35.12378 C 29.46776,35.18764 29.36247,35.25018 29.25286,35.31118 C 29.11931,35.3855 28.97934,35.45753 28.83352,35.52688 C 28.67445,35.60253 28.50842,35.67498 28.33617,35.74373 C 28.14933,35.81831 27.95518,35.88853 27.75466,35.95375 C 27.54547,36.02179 27.32935,36.08438 27.10737,36.14078 C 26.87177,36.20064 26.62958,36.25353 26.38208,36.29857 C 26.13483,36.34357 25.88228,36.38073 25.62572,36.40917 C 25.36811,36.43772 25.10645,36.45748 24.84204,36.46756 C 24.58333,36.47743 24.32199,36.47803 24.05924,36.46852 C 23.79892,36.4591 23.53721,36.43976 23.27529,36.40969 C 23.02143,36.38055 22.76738,36.34133 22.51421,36.29129 C 20.517,35.89654 18.57472,34.82842 17.21607,32.72385 m 0,0 C 17.18199,32.67106 17.14856,32.61827 17.11577,32.56547 C 17.06384,32.48184 17.01352,32.3982 16.9648,32.31456 C 16.89888,32.2014 16.83588,32.08824 16.77575,31.97511 C 16.69956,31.83177 16.62798,31.68848 16.56091,31.54528 C 16.48432,31.38176 16.41362,31.21837 16.34865,31.05518 C 16.27461,30.86921 16.20802,30.68351 16.14867,30.4982 C 16.08084,30.28641 16.02246,30.07512 15.97321,29.86452 C 15.91978,29.63606 15.8771,29.4084 15.84475,29.18176 C 15.81098,28.9452 15.78847,28.70975 15.77675,28.47568 C 15.76451,28.23115 15.76404,27.98812 15.77482,27.74688 C 15.78566,27.50423 15.80788,27.26339 15.84094,27.02466 C 15.8745,26.7823 15.91923,26.54211 15.97456,26.3044 C 16.02729,26.07787 16.08964,25.8536 16.16113,25.63185 C 16.23397,25.4059 16.3163,25.18257 16.4076,24.96214 C 16.49985,24.73941 16.60126,24.51965 16.7113,24.30314 C 17.72983,22.29905 19.48715,20.574 21.5592,19.36037 m 0,0 C 21.59352,19.34027 21.62797,19.3206 21.66255,19.30136 C 21.74104,19.25768 21.82019,19.21621 21.89997,19.17689 C 22.01036,19.12248 22.12195,19.07219 22.23464,19.02589 C 22.35704,18.9756 22.48073,18.93002 22.6056,18.88897 C 22.76874,18.83534 22.93388,18.78945 23.10074,18.75091 C 23.30774,18.7031 23.51739,18.6666 23.72915,18.64069 C 23.96244,18.61215 24.1983,18.59645 24.43601,18.59262 C 24.67108,18.58883 24.90796,18.59665 25.14596,18.61513 C 25.39801,18.6347 25.65131,18.66622 25.90505,18.70858 C 26.17955,18.7544 26.45456,18.8129 26.72905,18.88265 C 27.01067,18.95421 27.29174,19.03762 27.57113,19.13134 C 27.85707,19.22726 28.14125,19.33397 28.42248,19.44983 C 28.70223,19.56509 28.97905,19.6894 29.25176,19.82114 C 29.51528,19.94845 29.77497,20.0827 30.02975,20.22242 C 30.27766,20.35838 30.52093,20.49952 30.75857,20.6445 C 32.94583,21.97892 34.65631,23.63848 35.12313,24.57213 m 0,0 C 35.12634,24.57854 35.12955,24.58501 35.13276,24.59153 C 35.14289,24.6121 35.15302,24.63317 35.16314,24.65473 C 35.18266,24.69632 35.20216,24.73975 35.2216,24.78496 C 35.24687,24.84373 35.27203,24.90551 35.29701,24.97019 C 35.32983,25.05517 35.36233,25.14515 35.39432,25.23987 C 35.43087,25.34811 35.46675,25.46254 35.50168,25.58275 C 35.53955,25.71308 35.57629,25.85021 35.61154,25.99364 C 35.65175,26.15725 35.69002,26.32905 35.72581,26.50829 C 35.76198,26.68944 35.79562,26.87819 35.82616,27.07376 C 35.85937,27.2864 35.88892,27.50711 35.91409,27.73489 C 35.94111,27.97937 35.96308,28.23199 35.97912,28.49153 C 35.99527,28.75297 36.0054,29.02143 36.0086,29.29565 C 36.01164,29.55563 36.00845,29.82078 35.99825,30.09004 C 35.98816,30.35629 35.97122,30.62655 35.94669,30.89979 C 35.92385,31.15413 35.89443,31.41105 35.85782,31.66971 C 35.4943,34.23798 34.4221,36.97806 32.04953,39.0715 m 0,0 C 32.00182,39.11359 31.95392,39.15512 31.90582,39.19609 C 31.841,39.2513 31.77583,39.30549 31.71032,39.35866 C 31.58738,39.45846 31.46325,39.55469 31.33799,39.64743 C 31.19448,39.75368 31.04949,39.85534 30.90311,39.9525 C 30.71886,40.0748 30.53242,40.18999 30.34398,40.29826 C 30.10631,40.43482 29.86546,40.56037 29.62183,40.67531 C 29.34306,40.80683 29.06065,40.92446 28.77519,41.02879 C 28.45542,41.14565 28.13183,41.24582 27.80524,41.33014 C 27.45284,41.42112 27.09695,41.49363 26.73862,41.54873 C 26.35074,41.60837 25.96,41.6476 25.56772,41.66774 C 25.16515,41.68841 24.76096,41.68898 24.35658,41.67089 C 23.93373,41.65197 23.51067,41.61264 23.08904,41.55453 C 22.66747,41.49643 22.24733,41.41956 21.83026,41.32556 C 21.41638,41.23228 21.00553,41.12213 20.5993,40.99671 C 20.20569,40.87518 19.81641,40.73931 19.43293,40.59056 C 15.86299,39.20582 12.79507,36.70459 11.40296,34.26065 m 0,0 C 11.38424,34.22778 11.36583,34.19457 11.34772,34.16102 C 11.31068,34.09237 11.27493,34.02231 11.24045,33.95088 C 11.19934,33.86573 11.16004,33.77864 11.12252,33.68969 C 11.07013,33.56547 11.02121,33.43763 10.97568,33.3064 C 10.91671,33.13641 10.86344,32.96072 10.8157,32.77983 C 10.76192,32.57605 10.71516,32.36567 10.67518,32.1494 C 10.6314,31.91257 10.59576,31.66868 10.56795,31.41866 C 10.53819,31.15115 10.51739,30.87662 10.50517,30.59621 C 10.49265,30.30894 10.48914,30.0155 10.49422,29.71711 C 10.49948,29.40828 10.51395,29.09415 10.53717,28.77608 C 10.55989,28.46494 10.59098,28.15003 10.63003,27.83262 C 10.66949,27.51183 10.71707,27.18849 10.77234,26.86391 C 10.82775,26.53849 10.89089,26.21182 10.96131,25.88523 C 11.03204,25.55723 11.11011,25.22931 11.19508,24.90281 C 11.27976,24.57744 11.37129,24.25348 11.46923,23.93226 C 12.31303,21.16486 13.63254,18.60078 15.14473,17.08858 m 0,0 C 15.17092,17.06239 15.1974,17.0364 15.22416,17.01061 C 15.25833,16.97768 15.29296,16.94508 15.32804,16.91281 C 15.38599,16.85951 15.44518,16.8071 15.50557,16.75557 C 15.59876,16.67606 15.69482,16.59865 15.79361,16.52331 C 15.92497,16.42313 16.06117,16.32662 16.2019,16.23371 C 16.37857,16.11707 16.56239,16.0061 16.75275,15.90067 C 16.96378,15.78379 17.18285,15.67371 17.40914,15.57026 C 17.63803,15.46562 17.87431,15.36776 18.11712,15.27649 C 18.37692,15.17884 18.6442,15.08873 18.91792,15.00594 C 19.20731,14.91841 19.5039,14.83906 19.80646,14.76761 C 20.11583,14.69455 20.43144,14.62976 20.75198,14.57295 C 21.08373,14.51415 21.42075,14.46389 21.76159,14.42185 C 22.09968,14.38015 22.44153,14.34654 22.78571,14.32071 C 23.13064,14.29482 23.47791,14.27674 23.8261,14.26615 C 24.16428,14.25586 24.50332,14.25264 24.84191,14.2562 C 27.92344,14.28858 30.96753,14.88237 32.98497,15.81905 m 0,0 C 33.02052,15.83555 33.05604,15.85244 33.09153,15.86972 C 33.15073,15.89854 33.20984,15.92843 33.26885,15.95937 C 33.34869,16.00123 33.42835,16.04501 33.50781,16.09065 C 33.60848,16.14847 33.70883,16.20927 33.8088,16.27293 C 33.92978,16.34997 34.05021,16.43119 34.17001,16.51639 C 34.31322,16.61824 34.45553,16.72577 34.59678,16.83861 C 34.76097,16.96978 34.92374,17.10813 35.08486,17.25309 C 35.25588,17.40696 35.42504,17.56828 35.59206,17.73636 C 35.76214,17.90752 35.93,18.0857 36.09535,18.27016 C 36.26541,18.45988 36.43282,18.65625 36.59725,18.85849 C 36.75526,19.05283 36.91053,19.25259 37.06277,19.45706 C 37.21993,19.66815 37.37387,19.88427 37.52427,20.10465 C 37.67815,20.33013 37.82833,20.56007 37.97447,20.79364 C 38.11654,21.02071 38.25479,21.25121 38.38893,21.48439 C 38.51231,21.69887 38.6322,21.91561 38.74837,22.13403 C 39.78812,24.08894 40.52964,26.17823 40.8026,27.97981 m 0,0 C 40.80694,28.00847 40.81111,28.03726 40.8151,28.06618 C 40.82426,28.13249 40.8325,28.19946 40.83984,28.26707 C 40.8502,28.36253 40.85877,28.45926 40.86558,28.55719 C 40.87456,28.68645 40.88048,28.8178 40.88343,28.95108 C 40.88693,29.1095 40.88623,29.27064 40.88148,29.43423 C 40.87599,29.62312 40.8651,29.81527 40.84904,30.01024 C 40.83149,30.22328 40.80777,30.4397 40.77817,30.65893 C 40.74507,30.90408 40.70463,31.15274 40.65726,31.40413 C 40.60593,31.67654 40.54646,31.95215 40.4794,32.22995 C 40.40764,32.52721 40.32718,32.82698 40.23867,33.12804 C 40.15025,33.42879 40.0538,33.73083 39.94998,34.03292 C 39.84573,34.33625 39.73405,34.63963 39.61559,34.94183 C 39.49969,35.23751 39.3773,35.53206 39.24904,35.82431 C 39.13052,36.09436 39.00699,36.36245 38.87894,36.62766 C 38.75318,36.88814 38.62306,37.14584 38.48905,37.39989 C 37.35278,39.55391 35.93629,41.44583 34.52177,42.546 m 0,0 C 34.48569,42.57406 34.44884,42.60202 34.41124,42.62987 C 34.34981,42.67536 34.28637,42.72055 34.22099,42.76544 C 34.12161,42.83367 34.01773,42.9012 33.90958,42.96798 C 33.77939,43.04837 33.64301,43.12767 33.50084,43.20582 C 33.33474,43.29712 33.16072,43.38684 32.97942,43.47486 C 32.77518,43.57402 32.5617,43.67102 32.33988,43.76569 C 32.1184,43.86021 31.8886,43.95241 31.65138,44.04212 C 31.39358,44.13962 31.12701,44.23417 30.85282,44.32556 C 30.56867,44.42027 30.27634,44.51159 29.97711,44.59927 C 29.66364,44.69112 29.3426,44.77898 29.01545,44.86257 C 28.67382,44.94986 28.32553,45.03249 27.97225,45.11014 C 27.60571,45.19071 27.2338,45.26592 26.8584,45.33542 C 26.47248,45.40687 26.08287,45.47228 25.69159,45.53126 C 25.30981,45.58881 24.92645,45.64025 24.54339,45.68521 C 24.1704,45.72899 23.79769,45.76663 23.42701,45.79781 C 20.23349,46.06639 17.19055,45.85482 15.412,44.95142 m 0,0 C 12.6613,43.55424 8.77615,39.06206 8.77615,39.06206 m 0,0 C 8.77615,39.06206 8.77602,39.06196 8.77577,39.06175 C 8.77527,39.06134 8.77428,39.06051 8.77282,39.05927 C 8.77076,39.05752 8.76775,39.05495 8.76383,39.05154 C 8.75855,39.04695 8.75162,39.04084 8.74313,39.03318 C 8.73292,39.02397 8.72045,39.01253 8.70589,38.99882 C 8.68893,38.98285 8.66912,38.96379 8.64672,38.94156 C 8.62183,38.91687 8.59373,38.88827 8.56277,38.85567 C 8.52832,38.81939 8.49032,38.77815 8.44925,38.73182 C 8.40627,38.68333 8.35993,38.62926 8.31076,38.56946 C 8.25899,38.50649 8.20409,38.43716 8.1467,38.36129 C 8.08823,38.284 8.02717,38.19993 7.96419,38.10888 C 7.90211,38.01913 7.83817,37.9226 7.773,37.8191 C 7.70824,37.71625 7.64227,37.60652 7.57572,37.48973 C 7.51356,37.38064 7.45089,37.2654 7.38823,37.14385 C 7.32698,37.02503 7.26573,36.90018 7.20497,36.76917 C 6.62945,35.52835 6.09733,33.73459 6.01521,31.27081 m 0,0 C 6.01464,31.2538 6.01408,31.23677 6.01353,31.21973 C 5.8296,25.556 6.39646,18.0552 11.29541,14.28678 m 0,0 C 16.2091,10.50702 19.89912,8.85001 28.40358,9.60597 m 0,0 C 36.90805,10.36192 37.08662,14.12705 41.07135,18.01675 m 0,0 C 43.88555,20.76384 43.70016,30.60264 43.70016,30.60264 " id="path845" sodipodi:nodetypes="csssssssssssssssscssssc"/>
  </g>
</svg>