<svg xmlns:dc="http://purl.org/dc/elements/1.1/" xmlns:cc="http://creativecommons.org/ns#" xmlns:rdf="http://www.w3.org/1999/02/22-rdf-syntax-ns#" xmlns:svg="http://www.w3.org/2000/svg" xmlns="http://www.w3.org/2000/svg" xmlns:sodipodi="http://sodipodi.sourceforge.net/DTD/sodipodi-0.dtd" xmlns:inkscape="http://www.inkscape.org/namespaces/inkscape" version="1.1" id="svg2184" width="395.776" height="657.55597" viewBox="0 0 395.776 657.55597" sodipodi:docname="exp_kolba.svg" inkscape:version="1.0.2 (e86c870879, 2021-01-15, custom)">
  <metadata id="metadata2190">
    <rdf:RDF>
      <cc:Work rdf:about="">
        <dc:format>image/svg+xml</dc:format>
        <dc:type rdf:resource="http://purl.org/dc/dcmitype/StillImage"/>
        <dc:title/>
      </cc:Work>
    </rdf:RDF>
  </metadata>
  <defs id="defs2188"/>
  <sodipodi:namedview pagecolor="#ffffff" bordercolor="#666666" borderopacity="1" objecttolerance="10" gridtolerance="10" guidetolerance="10" inkscape:pageopacity="0" inkscape:pageshadow="2" inkscape:window-width="1849" inkscape:window-height="1057" id="namedview2186" showgrid="false" inkscape:zoom="0.86327165" inkscape:cx="-5.3434751" inkscape:cy="190.911" inkscape:window-x="63" inkscape:window-y="-8" inkscape:window-maximized="1" inkscape:current-layer="layer4" fit-margin-top="0" fit-margin-left="0" fit-margin-right="0" fit-margin-bottom="0"/>
  <g inkscape:groupmode="layer" id="layer4" inkscape:label="vector" transform="translate(-106.96263,-31.653897)">
    <path style="fill:none;stroke:#000000;stroke-width:1px;stroke-linecap:butt;stroke-linejoin:miter;stroke-opacity:1" d="m 233.03427,33.378371  C 233.03427,33.378371 233.034005,33.378763 233.033479,33.379542 C 233.0324,33.38114 233.030223,33.384367 233.026981,33.389185 C 233.022554,33.395764 233.016141,33.405311 233.007828,33.417728 C 232.996857,33.434116 232.982576,33.455505 232.965181,33.481671 C 232.944505,33.512773 232.91943,33.550625 232.890286,33.594853 C 232.856634,33.645923 232.817556,33.705494 232.773561,33.772991 C 232.724993,33.847504 232.670432,33.931676 232.610562,34.024732 C 232.546653,34.124065 232.476694,34.233522 232.401517,34.352161 C 232.322078,34.477524 232.236812,34.613139 232.146699,34.757895 C 232.049752,34.91363 231.947195,35.079945 231.840249,35.255456 C 231.731678,35.433635 231.618583,35.621292 231.502243,35.816979 C 231.391374,36.003462 231.277558,36.197238 231.161899,36.397053 C 231.046731,36.596021 230.929736,36.800978 230.812006,37.010686 C 230.701899,37.206817 230.591149,37.407104 230.480649,37.610535 C 230.372429,37.809768 230.264449,38.012016 230.157548,38.216329 C 230.054603,38.413081 229.952658,38.611748 229.852463,38.811481 C 229.756957,39.001867 229.66304,39.193221 229.571361,39.384808 C 229.482908,39.569654 229.396539,39.754717 229.312836,39.939336 C 229.234572,40.111959 229.158639,40.284195 229.085513,40.455503 C 229.016514,40.617145 228.950014,40.777961 228.886414,40.937498 C 228.462655,42.000468 228.167618,43.006652 228.11966,43.82191 m 0,0 C 228.118329,43.844538 228.117015,43.867278 228.115719,43.890129 C 228.11255,43.946012 228.109488,44.002557 228.106543,44.05974 C 228.102467,44.138867 228.098614,44.219216 228.095007,44.300721 C 228.09062,44.399867 228.086597,44.500724 228.082982,44.603174 C 228.078716,44.724094 228.075018,44.847233 228.071959,44.972398 C 228.06857,45.111088 228.065966,45.252265 228.064243,45.395666 C 228.062226,45.563509 228.061417,45.734398 228.06197,45.907912 C 228.062602,46.106238 228.065014,46.307993 228.069437,46.512546 C 228.074083,46.727436 228.080948,46.945415 228.090301,47.165751 C 228.099749,47.388343 228.111736,47.613341 228.126537,47.839992 C 228.141532,48.06961 228.159416,48.300924 228.180476,48.533151 C 228.20206,48.771156 228.22698,49.01012 228.255545,49.249199 C 228.284454,49.491155 228.317096,49.733228 228.353792,49.974545 C 228.390631,50.216802 228.431556,50.458297 228.476891,50.698146 C 228.520105,50.92677 228.567325,51.153898 228.618833,51.378764 C 228.668097,51.593831 228.721283,51.806829 228.778637,52.017088 C 228.83235,52.213999 228.889718,52.408507 228.950944,52.600062 C 229.00725,52.776224 229.066818,52.949889 229.129806,53.120628 C 229.187697,53.277552 229.248477,53.432005 229.312267,53.583654 C 229.370528,53.72216 229.4313,53.858327 229.494677,53.991902 C 229.885612,54.815851 230.375629,55.541172 230.98652,56.108427 m 0,0 C 231.012322,56.132386 231.038157,56.156245 231.064022,56.18001 C 231.116711,56.228421 231.169526,56.276443 231.222443,56.324123 C 231.291225,56.386099 231.360179,56.447498 231.429253,56.508426 C 231.517262,56.586055 231.605465,56.662919 231.693753,56.739235 C 231.796575,56.828114 231.899513,56.91625 232.002394,57.003987 C 232.1193,57.103684 232.236133,57.202866 232.35264,57.302038 C 232.479733,57.41022 232.606439,57.51839 232.73243,57.627203 C 232.870244,57.746227 233.007203,57.866021 233.142878,57.987442 C 233.284229,58.113942 233.424186,58.242208 233.562264,58.37321 C 233.70182,58.505614 233.839457,58.640813 233.974674,58.779808 C 234.111483,58.92044 234.245815,59.064958 234.377151,59.2144 C 234.502032,59.356496 234.624204,59.503043 234.743222,59.654933 C 234.861377,59.805721 234.976423,59.961775 235.087924,60.123966 C 235.195482,60.280423 235.299742,60.442591 235.400311,60.611254 C 235.497498,60.774244 235.591238,60.943299 235.681179,61.119125 C 235.769669,61.292115 235.854481,61.47166 235.935279,61.658433 C 236.011416,61.834432 236.083988,62.016849 236.152714,62.206247 C 236.217397,62.384504 236.278673,62.568945 236.336308,62.760039 C 236.389732,62.937172 236.440027,63.120022 236.487006,63.308963 C 236.530279,63.483 236.570738,63.662205 236.608237,63.84687 C 236.850585,65.0403 236.969319,66.461772 236.925,68.190169 m 0,0 C 236.923157,68.262045 236.921463,68.338798 236.919916,68.420341 C 236.916765,68.586449 236.914223,68.772437 236.912268,68.977578 C 236.909675,69.249668 236.908116,69.555453 236.90754,69.893241 C 236.906933,70.248932 236.907417,70.640107 236.908933,71.06479 C 236.910763,71.577485 236.914097,72.139015 236.918832,72.745903 C 236.924297,73.44627 236.931628,74.207044 236.940667,75.022879 C 236.951189,75.972511 236.964025,76.996745 236.978926,78.087151 C 236.995882,79.327898 237.015511,80.654323 237.037447,82.054005 C 237.060426,83.520268 237.085937,85.066924 237.113557,86.679694 C 237.141599,88.317094 237.171815,90.022643 237.203763,91.781399 C 237.236234,93.568923 237.270494,95.411409 237.30608,97.29317 C 237.341091,99.144558 237.377385,101.033963 237.414521,102.946445 C 237.45135,104.843158 237.489007,106.762569 237.527061,108.690105 C 237.564724,110.59784 237.602776,112.513533 237.640799,114.423055 C 237.677531,116.267773 237.714236,118.106733 237.750537,119.927195 C 237.784734,121.642106 237.818572,123.340602 237.851737,125.012034 C 237.883153,126.595294 237.913965,128.154271 237.943905,129.679913 C 237.971031,131.062185 237.997442,132.417093 238.022938,133.737905 C 238.04674,134.970929 238.069745,136.174239 238.091791,137.342359 C 238.112084,138.417589 238.131564,139.463003 238.150106,140.474329 C 238.275856,147.333248 238.35843,152.624247 238.35843,155.01489 m 0,0 C 238.35843,155.110725 238.358463,155.209263 238.358527,155.310457 C 238.358658,155.516595 238.358919,155.733752 238.359293,155.961523 C 238.359779,156.257585 238.360456,156.571578 238.361289,156.902611 C 238.362366,157.330977 238.363703,157.787876 238.365222,158.271374 C 238.366986,158.832715 238.368995,159.429909 238.371127,160.059931 C 238.373544,160.774052 238.376119,161.53035 238.378674,162.324417 C 238.381456,163.189001 238.384214,164.098361 238.386719,165.046809 C 238.389454,166.082401 238.391887,167.164594 238.393719,168.285983 C 238.395611,169.444012 238.396862,170.643841 238.397143,171.877316 C 238.397439,173.175942 238.39666,174.511862 238.394422,175.875561 C 238.392172,177.246305 238.388448,178.645116 238.382859,180.062329 C 238.377285,181.475843 238.369856,182.907663 238.360185,184.348202 C 238.350773,185.750273 238.339237,187.160603 238.32522,188.570352 C 238.31152,189.948191 238.295451,191.325475 238.276679,192.69395 C 238.258417,194.025248 238.237597,195.348209 238.213912,196.655234 C 238.191033,197.917785 238.165481,199.165466 238.136979,200.391428 C 238.110539,201.528712 238.08156,202.647305 238.049822,203.741738 C 238.020455,204.754405 237.988726,205.746388 237.95446,206.713355 C 237.923346,207.591368 237.890141,208.448757 237.854713,209.282278 C 237.822312,210.04458 237.788052,210.786919 237.751832,211.506814 C 237.545779,215.602269 237.276315,218.971343 236.925,221.1573 m 0,0 C 236.913021,221.231838 236.90015,221.308833 236.8864,221.388253 C 236.856976,221.558199 236.823523,221.739246 236.786149,221.931072 C 236.732189,222.208028 236.670057,222.507454 236.600082,222.828383 C 236.50145,223.280741 236.387234,223.775821 236.258355,224.310915 C 236.097238,224.979855 235.913204,225.711331 235.708049,226.500054 C 235.46135,227.448493 235.18411,228.479711 234.879452,229.58451 C 234.552611,230.769756 234.194214,232.039689 233.808119,233.382951 C 233.401696,234.796936 232.964581,236.292175 232.501273,237.855422 C 232.01793,239.48627 231.50608,241.191134 230.970831,242.954974 C 230.433036,244.727206 229.871619,246.558976 229.291761,248.435028 C 228.70755,250.325164 228.10462,252.260249 227.488271,254.224681 C 226.863969,256.21446 226.225899,258.234347 225.579568,260.268129 C 224.942335,262.273282 224.297072,264.29194 223.649056,266.308565 C 223.024408,268.25247 222.397202,270.194486 221.772165,272.120694 C 221.169406,273.978247 220.568664,275.8211 219.974178,277.63677 C 219.415038,279.344487 218.861433,281.028157 218.31689,282.677395 C 217.801923,284.237055 217.29506,285.765922 216.799285,287.255211 C 216.350691,288.602771 215.911174,289.917928 215.482944,291.194176 C 215.077346,292.402973 214.681874,293.576865 214.298405,294.710323 C 213.937677,295.776563 213.587571,296.807022 213.24965,297.797098 C 211.084456,304.140921 209.419517,308.826815 208.66601,310.6441 m 0,0 C 208.641642,310.702871 208.615367,310.766849 208.587212,310.835963 C 208.523309,310.992832 208.44972,311.176159 208.366755,311.385105 C 208.251952,311.674233 208.119195,312.012415 207.969303,312.397427 C 207.806504,312.815592 207.623491,313.288999 207.421312,313.814799 C 207.157166,314.501757 206.860305,315.278146 206.533068,316.137612 C 206.127103,317.20385 205.674387,318.397948 205.179384,319.707773 C 204.634057,321.150759 204.037408,322.734198 203.395404,324.44187 C 202.760524,326.130593 202.08129,327.940807 201.363473,329.856825 C 200.603302,331.885897 199.799861,334.033627 198.960005,336.281384 C 198.051426,338.713066 197.100229,341.261814 196.115092,343.904039 C 195.104356,346.614922 194.057893,349.424203 192.985076,352.306406 C 191.887104,355.256192 190.761527,358.282359 189.618394,361.357598 C 188.481262,364.416692 187.326757,367.524343 186.16477,370.653668 C 185.041938,373.677546 183.912119,376.721662 182.784237,379.761761 C 181.686765,382.719894 180.591127,385.674223 179.505545,388.602402 C 178.50137,391.310997 177.505799,393.997218 176.525339,396.643377 C 175.586375,399.177542 174.66127,401.674964 173.755739,404.12011 C 172.879084,406.487285 172.020774,408.805464 171.185996,411.060552 C 170.409883,413.157162 169.65411,415.199236 168.922844,417.175447 C 168.23606,419.03145 167.570893,420.829358 166.930795,422.559789 C 162.665927,434.089363 159.513969,442.623371 158.49607,445.38624 m 0,0 C 158.468118,445.462109 158.439214,445.540669 158.409371,445.621886 C 158.356914,445.764644 158.301553,445.915612 158.243353,446.074608 C 158.143299,446.347943 158.034853,446.645004 157.91834,446.964868 C 157.784175,447.333192 157.639314,447.731751 157.484254,448.159137 C 157.278071,448.727433 157.053855,449.346697 156.812777,450.013614 C 156.510134,450.850845 156.180916,451.763177 155.827437,452.744053 C 155.435561,453.831478 155.013867,455.003147 154.565509,456.250126 C 154.116441,457.49908 153.640624,458.823582 153.141226,460.214656 C 152.606015,461.705488 152.04372,463.272783 151.458241,464.905491 C 150.886762,466.499157 150.293194,468.155145 149.681164,469.863179 C 149.041795,471.64751 148.382278,473.488641 147.706748,475.374857 C 147.05137,477.204803 146.38092,479.077184 145.699174,480.981303 C 144.984363,482.977771 144.257133,485.00913 143.521836,487.063048 C 142.81616,489.034226 142.103054,491.026182 141.386365,493.028017 C 140.676863,495.009777 139.96385,497.001218 139.251058,498.991766 C 138.538218,500.982447 137.825599,502.972235 137.116934,504.950551 C 136.42987,506.868566 135.746523,508.775798 135.070295,510.662608 C 134.419087,512.479606 133.774481,514.277665 133.139515,516.048177 C 132.538045,517.72529 131.945225,519.377686 131.363637,520.998048 C 130.811719,522.535746 130.269917,524.044595 129.740437,525.518342 C 125.912061,536.174199 122.727896,544.994932 121.02219,549.61685 m 0,0 C 120.980928,549.728657 120.939649,549.84056 120.898354,549.952556 C 120.803677,550.209328 120.708919,550.46659 120.614102,550.724321 C 120.480237,551.088194 120.346254,551.453 120.212217,551.818676 C 120.03836,552.292987 119.864412,552.768762 119.69051,553.245864 C 119.485996,553.806949 119.281546,554.369868 119.077383,554.934399 C 118.837411,555.597944 118.597836,556.263715 118.35902,556.931349 C 118.083932,557.700384 117.809851,558.471892 117.537332,559.245318 C 117.260642,560.030583 116.985562,560.817825 116.712672,561.606464 C 116.413882,562.469951 116.117718,563.335112 115.824941,564.201186 C 115.508742,565.136546 115.196494,566.072971 114.889156,567.009502 C 114.578199,567.957063 114.272268,568.904732 113.972358,569.851515 C 113.673107,570.796218 113.37985,571.740039 113.093574,572.681991 C 112.811601,573.609786 112.536401,574.535768 112.268917,575.458993 C 112.012629,576.343576 111.763425,577.225628 111.522135,578.10432 C 111.289445,578.951693 111.064115,579.795941 110.846889,580.636319 C 110.645416,581.415753 110.450914,582.191859 110.263977,582.964042 C 110.086755,583.696097 109.916332,584.424627 109.753214,585.149125 C 109.599565,585.831564 109.452398,586.510426 109.312136,587.185288 C 109.179962,587.821233 109.053919,588.453627 108.934361,589.082115 C 108.822463,589.670336 108.716245,590.255136 108.615998,590.836225 C 107.989818,594.465923 107.596593,597.950823 107.50702,601.22023 m 0,0 C 107.504153,601.32487 107.501417,601.42956 107.498813,601.534299 C 107.495489,601.668021 107.492381,601.801822 107.489495,601.935699 C 107.484728,602.156818 107.480565,602.378144 107.477029,602.599662 C 107.471572,602.941501 107.467608,603.283796 107.465218,603.626492 C 107.46204,604.082175 107.461646,604.538566 107.464229,604.995535 C 107.467472,605.569202 107.475407,606.143779 107.488417,606.719007 C 107.50284,607.35672 107.5235,607.995233 107.550919,608.634193 C 107.578653,609.280501 107.613302,609.927267 107.655406,610.574126 C 107.700455,611.266233 107.754038,611.958446 107.816817,612.650318 C 107.883189,613.381792 107.959839,614.112884 108.047549,614.843066 C 108.137234,615.589695 108.238482,616.335372 108.352129,617.079533 C 108.46975,617.849721 108.600652,618.618285 108.745761,619.384598 C 108.889699,620.144729 109.047616,620.902646 109.220415,621.657737 C 109.39359,622.41447 109.581712,623.168365 109.785691,623.918806 C 109.983809,624.647687 110.196886,625.37331 110.425755,626.095112 C 110.650712,626.804577 110.890926,627.51035 111.147189,628.211895 C 111.389533,628.875336 111.646229,629.534996 111.917947,630.190423 C 112.171162,630.801216 112.437422,631.408332 112.717269,632.011405 C 112.976671,632.570419 113.247748,633.125959 113.530931,633.677733 C 113.791776,634.185982 114.062892,634.691036 114.344617,635.192667 C 116.165314,638.43455 118.429093,641.533454 121.22697,644.42781 m 0,0 C 121.333863,644.538389 121.440888,644.649034 121.548055,644.75974 C 121.766361,644.985253 121.985256,645.211017 122.204818,645.436983 C 122.496034,645.736694 122.788424,646.03676 123.082171,646.337067 C 123.425855,646.688426 123.771395,647.040114 124.119085,647.391947 C 124.529417,647.807169 124.942742,648.222593 125.359541,648.637917 C 125.788633,649.06549 126.221407,649.492957 126.658387,649.919988 C 127.169849,650.419806 127.687074,650.919027 128.210902,651.417122 C 128.809637,651.986444 129.416999,652.554295 130.034243,653.119885 C 130.68268,653.714057 131.342023,654.305734 132.013728,654.894 C 132.662593,655.462263 133.322993,656.027343 133.996241,656.588415 C 134.683023,657.160766 135.383175,657.728946 136.098089,658.292079 C 136.8408,658.877107 137.599443,659.456688 138.375581,660.029839 C 139.147644,660.599981 139.937018,661.16376 140.745241,661.72021 C 141.547568,662.272601 142.36847,662.817769 143.20945,663.354768 C 144.024064,663.874932 144.857518,664.387431 145.711178,664.891406 C 146.532528,665.376306 147.372584,665.853314 148.232563,666.321665 C 149.042933,666.762999 149.870994,667.196646 150.717764,667.621965 C 151.524643,668.027247 152.34851,668.424967 153.190246,668.814571 C 153.980781,669.180476 154.787078,669.539222 155.609867,669.89035 C 156.377362,670.217881 157.159207,670.538783 157.955994,670.852684 C 162.850542,672.780931 168.308935,674.444983 174.46854,675.75843 m 0,0 C 174.649561,675.79703 174.833238,675.835743 175.019538,675.874564 C 175.418191,675.957636 175.828851,676.041206 176.251187,676.12524 C 176.86095,676.246567 177.495052,676.368859 178.152497,676.492011 C 178.85929,676.624407 179.593061,676.757796 180.352572,676.892047 C 181.375465,677.072853 182.445045,677.255222 183.558287,677.438831 C 184.967598,677.671271 186.446883,677.9057 187.990005,678.141463 C 189.708262,678.403984 191.505668,678.66816 193.373751,678.933088 C 195.494939,679.233911 197.707252,679.535704 199.998286,679.837146 C 202.392744,680.152196 204.87319,680.466863 207.425462,680.779638 C 210.07048,681.103779 212.792639,681.425889 215.576177,681.744289 C 218.41508,682.069022 221.317828,682.389896 224.267698,682.70513 C 227.069091,683.004498 229.912982,683.298779 232.785049,683.586449 C 235.659746,683.874382 238.56267,684.155692 241.47946,684.428849 C 244.312772,684.694188 247.159168,684.951834 250.005484,685.200386 C 252.790452,685.44358 255.575343,685.678068 258.347828,685.902536 C 261.055013,686.121717 263.750369,686.331344 266.422417,686.530196 C 269.019452,686.723465 271.594469,686.906555 274.136928,687.078343 C 276.590618,687.244133 279.013984,687.399397 281.397553,687.543126 C 283.606983,687.676354 285.782217,687.799671 287.915711,687.912273 C 289.888244,688.01638 291.825097,688.111328 293.720307,688.196482 C 305.915878,688.744445 316.387074,688.886853 323.54494,688.4545 m 0,0 C 323.758521,688.441599 323.973697,688.428849 324.190445,688.416244 C 324.620907,688.39121 325.057571,688.366747 325.500256,688.342813 C 326.12381,688.3091 326.759311,688.276435 327.406254,688.244697 C 328.278009,688.20193 329.170541,688.160845 330.082615,688.121146 C 331.17926,688.073413 332.304157,688.027683 333.455161,687.983439 C 334.795945,687.9319 336.172156,687.882378 337.580402,687.834056 C 339.145015,687.780369 340.749173,687.728163 342.388226,687.676319 C 344.212362,687.618621 346.079719,687.561371 347.983887,687.503025 C 349.976804,687.441959 352.010044,687.379693 354.076258,687.314457 C 356.25188,687.245766 358.464061,687.173782 360.704221,687.096439 C 362.986279,687.017649 365.297373,686.933297 367.628434,686.841199 C 369.92622,686.750416 372.243407,686.652106 374.571309,686.544178 C 376.884651,686.436925 379.208574,686.320173 381.534555,686.19187 C 383.706994,686.072036 385.881228,685.942125 388.050312,685.800465 C 390.170664,685.661987 392.286095,685.512281 394.390117,685.349785 C 396.343024,685.19896 398.286102,685.037116 400.214163,684.863004 C 417.960198,683.260461 434.434107,680.618601 445.59101,675.9632 m 0,0 C 474.05478,664.08624 484.90787,656.50955 495.35141,636.03202 m 0,0 C 505.79494,615.5545 503.33764,586.88596 494.73708,556.78399 m 0,0 C 486.13652,526.68202 441.29073,405.45506 436.5809,393.16854 m 0,0 C 431.87107,380.88202 400.1309,296.92416 396.64972,284.02331 m 0,0 C 393.16854,271.12247 379.03905,249.00674 377.40084,221.1573 m 0,0 C 375.76264,193.30787 377.81039,138.83764 377.19607,128.59888 m 0,0 C 376.58174,118.36011 376.58174,71.057023 377.19607,69.623596 m 0,0 C 377.81039,68.190169 377.60562,61.432584 380.06292,58.56573 m 0,0 C 382.52023,55.698876 385.1823,49.146067 384.97753,45.050562 m 0,0 C 384.77275,40.955056 382.725,36.654775 380.67725,33.583146 m 0,0 C 378.62949,30.511517 299.79101,33.378371 294.8764,33.173596 m 0,0 C 289.9618,32.96882 239.99663,34.402247 233.03427,33.378371 m 0,0 Z " id="path2758"/>
    <path style="fill:none;stroke:#000000;stroke-width:1px;stroke-linecap:butt;stroke-linejoin:miter;stroke-opacity:1" d="m 252.59031,53.753511  C 252.59031,53.753511 281.56601,51.091433 287.70927,50.78427 m 0,0 C 293.85253,50.477107 330.60969,51.500983 336.54817,52.012921 m 0,0 C 342.48666,52.52486 356.82093,53.343961 360.30211,54.163062 " id="path2760"/>
    <path style="fill:none;stroke:#000000;stroke-width:1px;stroke-linecap:butt;stroke-linejoin:miter;stroke-opacity:1" d="m 368.69789,34.607023  C 368.69789,34.607023 372.17907,41.364607 372.28146,44.845787 m 0,0 C 372.38385,48.326966 368.69789,54.367837 367.57163,55.698876 " id="path2762"/>
    <path style="fill:none;stroke:#000000;stroke-width:1px;stroke-linecap:butt;stroke-linejoin:miter;stroke-opacity:1" d="m 243.98975,37.473876  C 243.98975,37.473876 240.50857,41.057444 240.91812,44.743399 m 0,0 C 241.32767,48.429354 241.22528,51.603371 243.78497,53.343961 " id="path2764"/>
    <path style="fill:none;stroke:#000000;stroke-width:1px;stroke-linecap:butt;stroke-linejoin:miter;stroke-opacity:1" d="m 251.66882,62.354073  C 251.66882,62.354073 243.37542,60.920646 243.47781,63.275562 m 0,0 C 243.5802,65.630478 244.60407,87.848596 245.2184,96.75632 m 0,0 C 245.83273,105.66405 246.65183,148.97402 246.44705,154.0934 m 0,0 C 246.24228,159.21278 248.08525,206.3111 246.75421,214.19494 m 0,0 C 245.42317,222.07879 237.23216,259.04073 232.82949,268.05084 m 0,0 C 228.42683,277.06096 204.26334,341.87233 202.01081,348.22037 m 0,0 C 199.75829,354.5684 189.00758,385.1823 185.62879,393.37332 m 0,0 C 182.25,401.56433 170.6802,436.27374 167.09663,446.20534 m 0,0 C 163.51306,456.13694 146.31194,505.18062 142.11405,514.49789 m 0,0 C 137.91615,523.81517 127.47261,558.83174 125.83441,567.02275 m 0,0 C 124.19621,575.21376 119.99831,596.91994 123.47949,607.46587 m 0,0 C 126.96067,618.0118 131.56812,630.50309 149.69073,638.59171 m 0,0 C 167.81334,646.68034 199.6559,655.17851 218.7,655.99761 m 0,0 C 237.7441,656.81671 295.08118,659.06924 300.40534,658.96685 m 0,0 C 305.72949,658.86447 379.14143,657.43104 388.66348,653.94986 m 0,0 C 398.18553,650.46868 433.71405,653.23315 449.27697,648.31854 m 0,0 C 464.83989,643.40393 481.63146,631.11742 488.59382,620.4691 m 0,0 C 495.55618,609.82079 495.71592,597.5813 495.28152,589.97941 m 0,0 C 494.84713,582.37752 491.66158,555.37269 489.41721,549.14638 m 0,0 C 487.17284,542.92006 479.35375,517.87001 477.54377,513.88807 m 0,0 C 475.7338,509.90612 461.90559,475.08221 460.892,471.89665 m 0,0 C 459.87842,468.71109 444.96422,429.83283 443.66104,426.14048 m 0,0 C 442.35786,422.44814 415.42543,353.74149 413.54306,348.96316 m 0,0 C 411.66069,344.18482 381.9771,269.03467 381.39791,266.13871 m 0,0 C 380.81871,263.24275 370.82765,236.74471 369.66927,219.65855 m 0,0 C 368.51088,202.57239 368.94528,139.87486 369.23487,133.79334 m 0,0 C 369.52447,127.71183 368.22129,72.543793 368.36609,67.331065 " id="path2766"/>
    <path style="display:inline;fill:none;stroke:#000000;stroke-width:1px;stroke-linecap:butt;stroke-linejoin:miter;stroke-opacity:1" d="m 160.94058,671.98289  C 160.94058,671.98289 155.01489,668.59129 156.85787,665.72444 m 0,0 C 158.70084,662.85758 167.53822,662.01051 169.02443,661.89368 m 0,0 C 171.47144,661.70133 186.46546,660.46452 190.97051,660.25975 m 0,0 C 195.47557,660.05497 210.68076,660.43152 213.34284,660.43152 m 0,0 C 216.00491,660.43152 269.29192,661.81525 272.7731,661.81525 m 0,0 C 276.25428,661.81525 309.825,662.2972 316.99214,661.88765 m 0,0 C 324.15927,661.4781 397.89895,661.57321 403.42789,661.98275 m 0,0 C 408.95682,662.3923 435.80083,664.11532 439.69156,664.93442 m 0,0 C 443.58229,665.75352 450.26961,666.6326 449.96972,670.01867 m 0,0 C 449.7181,672.85974 447.84354,674.73453 445.18146,676.16796 " id="path2768" sodipodi:nodetypes="csssssssssc"/>
    <path style="display:inline;fill:none;stroke:#000000;stroke-width:1px;stroke-linecap:butt;stroke-linejoin:miter;stroke-opacity:1" d="m 258.03002,682.28813  C 258.03002,682.28813 318.42556,685.99719 338.28876,684.35899 m 0,0 C 358.15197,682.72079 413.3547,681.68236 422.16004,679.42983 m 0,0 C 430.96538,677.1773 441.60264,675.31668 440.57953,671.58413 m 0,0 C 439.51293,667.69297 421.61172,665.77589 415.67324,665.77589 m 0,0 C 409.73475,665.77589 369.4643,663.85236 365.98312,664.05713 " id="path2771" sodipodi:nodetypes="cssssc"/>
  </g>
</svg>