<?xml version="1.0" encoding="utf-8"?>
<!-- Generator: Adobe Illustrator 24.1.2, SVG Export Plug-In . SVG Version: 6.00 Build 0)  -->
<svg version="1.1" id="Слой_1" xmlns="http://www.w3.org/2000/svg" xmlns:xlink="http://www.w3.org/1999/xlink" x="0px" y="0px"
	 viewBox="0 0 595.28 841.89" style="enable-background:new 0 0 595.28 841.89;" xml:space="preserve">
<style type="text/css">
	.st0{fill:#979695;stroke:#2D2F33;stroke-miterlimit:10;}
	.st1{fill:#436D70;stroke:#000000;stroke-width:2;stroke-miterlimit:10;}
	.st2{stroke:#000000;stroke-width:2;stroke-miterlimit:10;}
	.st3{fill:#FFFFFF;stroke:#000000;stroke-width:2;stroke-miterlimit:10;}
	.st4{fill:#E39AC1;stroke:#CB71AA;stroke-width:2;stroke-miterlimit:10;}
	.st5{fill:#979695;stroke:#000000;stroke-miterlimit:10;}
</style>
<g>
	<path class="st0" d="M158.36,340.34c-8.29,11.59-22.91,25.01-32.3,52.12c-0.65,1.87-7.11,20.92-7.52,40.8
		c-0.88,43.09,26.7,90.93,66.37,115.93c65.07,41.01,143.89,34.43,177.88,19.71c31.42-13.61,66.37-46.26,85.84-95.82
		c19.49-49.6,10.56-102.35,7.96-108.85c-24.78-61.95-111.32-93.05-125.66-95.58C330.92,268.66,220.76,253.11,158.36,340.34z"/>
	<path class="st0" d="M131.81,244.77"/>
	<path class="st0" d="M129.73,383.07c1.19-27.68,25.97-186.97,25.97-186.97l40.86,105.88"/>
	<polyline class="st0" points="377.06,287.02 419.42,187.25 442.9,340.01 	"/>
</g>
<g>
	<g>
		<path class="st1" d="M244.03,339.04c-26.03-11.91-62.03,1.29-70.31,30.05c-7.02,24.4,8.39,51.4,31.96,59.72
			c28.47,10.04,62.05-9.58,66.88-38.06C276.16,369.48,262.98,347.71,244.03,339.04z"/>
		<path class="st2" d="M238.79,345.75c-19.6-9.37-46.73,1.04-52.98,23.7c-5.3,19.22,6.29,40.48,24.05,47.02
			c21.45,7.89,46.75-7.57,50.4-30.01C262.98,369.71,253.06,352.57,238.79,345.75z"/>
	</g>
	<circle class="st3" cx="193.59" cy="359.16" r="8.81"/>
</g>
<g>
	<g>
		<path class="st1" d="M377.32,344.05c-26.03-11.91-62.03,1.29-70.31,30.05c-7.02,24.4,8.39,51.4,31.96,59.72
			c28.47,10.04,62.05-9.58,66.88-38.06C409.45,374.49,396.26,352.72,377.32,344.05z"/>
		<path class="st2" d="M372.08,350.75c-19.6-9.37-46.73,1.04-52.98,23.7c-5.3,19.22,6.29,40.48,24.05,47.02
			c21.45,7.89,46.75-7.57,50.4-30.01C396.27,374.71,386.35,357.57,372.08,350.75z"/>
	</g>
	<circle class="st3" cx="326.87" cy="364.17" r="8.81"/>
</g>
<path class="st4" d="M261.79,438.06c3.98-8.85,34.53-7.76,38.05,1.77c2.34,6.33-5.9,20.04-18.58,20.35
	C267.27,460.54,258.97,444.33,261.79,438.06z"/>
<path class="st4" d="M272.11,449.74c-0.26,4.6,0,8.12,0,8.12l6.12,2.13l7.81-0.59v-9.65"/>
<path class="st5" d="M211.6,482.17c6.33,13.97,18.87,23.53,31.91,23.74c18.6,0.31,37.43-18.39,36.77-43.66"/>
<path class="st5" d="M348.99,482.17c-6.33,13.97-18.87,23.53-31.91,23.74c-18.6,0.31-37.43-18.39-36.77-43.66"/>
</svg>
