<?xml version="1.0" encoding="UTF-8" standalone="no"?>
<svg
   xmlns:dc="http://purl.org/dc/elements/1.1/"
   xmlns:cc="http://creativecommons.org/ns#"
   xmlns:rdf="http://www.w3.org/1999/02/22-rdf-syntax-ns#"
   xmlns:svg="http://www.w3.org/2000/svg"
   xmlns="http://www.w3.org/2000/svg"
   xmlns:sodipodi="http://sodipodi.sourceforge.net/DTD/sodipodi-0.dtd"
   xmlns:inkscape="http://www.inkscape.org/namespaces/inkscape"
   width="58.126671mm"
   height="73.081696mm"
   viewBox="0 0 58.126671 73.081696"
   version="1.1"
   id="svg8"
   inkscape:version="1.0.2 (e86c870879, 2021-01-15, custom)"
   sodipodi:docname="curve2.svg">
  <defs
     id="defs2" />
  <sodipodi:namedview
     id="base"
     pagecolor="#ffffff"
     bordercolor="#666666"
     borderopacity="1.0"
     inkscape:pageopacity="0.0"
     inkscape:pageshadow="2"
     inkscape:zoom="1.979899"
     inkscape:cx="77.20555"
     inkscape:cy="125.55251"
     inkscape:document-units="mm"
     inkscape:current-layer="layer1"
     inkscape:document-rotation="0"
     showgrid="false"
     fit-margin-top="0"
     fit-margin-left="0"
     fit-margin-right="0"
     fit-margin-bottom="0"
     inkscape:window-width="1858"
     inkscape:window-height="1057"
     inkscape:window-x="54"
     inkscape:window-y="-8"
     inkscape:window-maximized="1" />
  <metadata
     id="metadata5">
    <rdf:RDF>
      <cc:Work
         rdf:about="">
        <dc:format>image/svg+xml</dc:format>
        <dc:type
           rdf:resource="http://purl.org/dc/dcmitype/StillImage" />
        <dc:title></dc:title>
      </cc:Work>
    </rdf:RDF>
  </metadata>
  <g
     inkscape:label="Слой 1"
     inkscape:groupmode="layer"
     id="layer1"
     transform="translate(-54.35449,-73.401703)">
    <path
       style="fill:none;stroke:#000000;stroke-width:0.264583px;stroke-linecap:butt;stroke-linejoin:miter;stroke-opacity:1"
       d="M 69.356442,134.70384 C 68.955538,107.97689 75.904546,100.89425 88.599847,107.84325 101.29515,114.79226 119.46948,76.839989 109.44687,80.715396 99.424263,84.590804 85.793518,66.951015 78.710876,76.305448 71.628234,85.659882 62.407434,96.617934 62.407434,103.83421 c 0,7.21628 -15.768901,47.03943 -2.80633,42.09495"
       id="path842" />
    <path
       style="fill:none;stroke:#000000;stroke-width:0.264583px;stroke-linecap:butt;stroke-linejoin:miter;stroke-opacity:1"
       d="m 84.056265,90.069828 c -0.935443,-6.414468 3.608138,-9.087162 6.414468,-4.81085 2.80633,4.276313 11.492597,1.603616 2.80633,5.078122 -8.686258,3.474503 -9.220798,-0.267272 -9.220798,-0.267272 z"
       id="path844" />
<!--    <path-->
<!--       style="fill:none;stroke:red;stroke-width:0.264583px;stroke-linecap:butt;stroke-linejoin:miter;stroke-opacity:1"-->
<!--       d="M 69.356442,134.70384 C 69.34842,134.1693 69.34334,133.64262 69.34119,133.12375 C 69.33697,132.10677 69.344,131.1198 69.36218,130.16251 C 69.38836,128.78401 69.43765,127.46704 69.50977,126.2106 C 69.58886,124.8327 69.69541,123.5276 69.82903,122.29396 C 69.97105,120.98278 70.14366,119.75232 70.3464,118.60099 C 72.67788,105.36073 78.99393,102.58528 88.599847,107.84325 m 0,0 C 88.85375,107.98223 89.10985,108.10325 89.36787,108.207 C 89.74716,108.35952 90.1306,108.47473 90.51734,108.55483 C 91.26762,108.71022 92.03031,108.73348 92.79916,108.6407 C 93.76279,108.52442 94.7361,108.22586 95.70679,107.7767 C 106.86975,102.61134 117.68625,77.52951 109.44687,80.715396 m 0,0 C 109.14619,80.83166 108.84226,80.92856 108.53536,81.0074 C 98.61231,83.55671 85.58104,67.23165 78.710876,76.305448 m 0,0 C 78.56922,76.49254 78.42671,76.68027 78.28344,76.8686 C 78.07283,77.14544 77.86057,77.42358 77.64694,77.70287 C 77.23251,78.2447 76.81295,78.79089 76.39036,79.34045 C 69.76984,87.95015 62.40743,97.38601 62.407434,103.83421 m 0,0 C 62.40743,103.97854 62.40112,104.13591 62.38886,104.3057 C 62.37084,104.55529 62.33996,104.83173 62.29735,105.13305 C 62.22846,105.62019 62.12891,106.17235 62.00349,106.78123 C 61.81284,107.70673 61.5624,108.76328 61.26895,109.92169 C 57.89432,123.24344 48.83148,150.03715 59.601104,145.92916 "-->
<!--       id="path844" />-->

  </g>
</svg>
