<?xml version="1.0" encoding="UTF-8" standalone="no"?>
<svg
   xmlns:dc="http://purl.org/dc/elements/1.1/"
   xmlns:cc="http://creativecommons.org/ns#"
   xmlns:rdf="http://www.w3.org/1999/02/22-rdf-syntax-ns#"
   xmlns:svg="http://www.w3.org/2000/svg"
   xmlns="http://www.w3.org/2000/svg"
   xmlns:sodipodi="http://sodipodi.sourceforge.net/DTD/sodipodi-0.dtd"
   xmlns:inkscape="http://www.inkscape.org/namespaces/inkscape"
   version="1.1"
   id="svg845"
   width="714.47089"
   height="617.22357"
   viewBox="0 0 714.47088 617.22357"
   sodipodi:docname="curvedCat.svg"
   inkscape:version="1.0.2 (e86c870879, 2021-01-15, custom)">
  <metadata
     id="metadata851">
    <rdf:RDF>
      <cc:Work
         rdf:about="">
        <dc:format>image/svg+xml</dc:format>
        <dc:type
           rdf:resource="http://purl.org/dc/dcmitype/StillImage" />
        <dc:title></dc:title>
      </cc:Work>
    </rdf:RDF>
  </metadata>
  <defs
     id="defs849" />
  <sodipodi:namedview
     pagecolor="#ffffff"
     bordercolor="#666666"
     borderopacity="1"
     objecttolerance="10"
     gridtolerance="10"
     guidetolerance="10"
     inkscape:pageopacity="0"
     inkscape:pageshadow="2"
     inkscape:window-width="1849"
     inkscape:window-height="1057"
     id="namedview847"
     showgrid="false"
     inkscape:zoom="1.283563"
     inkscape:cx="271.99533"
     inkscape:cy="290.40439"
     inkscape:window-x="63"
     inkscape:window-y="-8"
     inkscape:window-maximized="1"
     inkscape:current-layer="layer1"
     fit-margin-top="0"
     fit-margin-left="0"
     fit-margin-right="0"
     fit-margin-bottom="0"
     inkscape:document-rotation="0" />
  <g
     inkscape:groupmode="layer"
     id="layer1"
     inkscape:label="vectorCat"
     style="display:inline"
     transform="translate(-195.41991,-86.75151)">
    <path
       style="fill:none;stroke:#000000;stroke-width:1px;stroke-linecap:butt;stroke-linejoin:miter;stroke-opacity:1"
       d="m 341.87757,279.28026 c 4.81517,-4.01264 8.02529,-25.68094 25.68094,-32.10118 17.65565,-6.42023 31.29865,-15.24806 39.32394,-14.44553"
       id="path945" />
    <path
       style="fill:none;stroke:#000000;stroke-width:1px;stroke-linecap:butt;stroke-linejoin:miter;stroke-opacity:1"
       d="m 605.10724,209.4602 c 0,0 -8.82782,-12.84047 1.60506,-23.27336 10.43288,-10.43288 14.44553,-13.643 20.06324,-22.47082 5.6177,-8.82783 14.44553,-22.47083 22.47082,-30.49612 8.0253,-8.0253 26.48348,-28.89107 36.91636,-34.508772 10.43288,-5.617706 14.44553,-12.840472 22.47082,-11.235413 8.0253,1.605059 20.86577,0.80253 21.6683,9.630354 0.80253,8.827821 2.40759,20.865771 2.40759,28.891061 0,8.0253 7.22277,32.10118 0.80253,47.34924 -6.42024,15.24806 -4.81518,28.08853 -8.82783,37.71889 -4.01264,9.63035 -8.82782,11.23541 -7.22276,25.68094 1.60506,14.44553 0.80253,22.47083 2.40759,33.70624 1.60506,11.23541 4.01265,12.03794 1.60506,22.47083 -2.40759,10.43288 -4.81518,13.643 -7.22277,16.85312"
       id="path947" />
    <path
       style="fill:none;stroke:#000000;stroke-width:1px;stroke-linecap:butt;stroke-linejoin:miter;stroke-opacity:1"
       d="m 299.05882,324.59516 c 0,0 14.75433,-5.67474 13.61938,-14.75433 -1.13495,-9.07958 -3.40484,-10.21453 -7.37716,-17.59169 -3.97232,-7.37717 -14.75433,-20.42907 -14.75433,-27.23876 0,-6.80969 1.70243,-6.24221 1.13495,-18.72664 -0.56747,-12.48443 1.13495,-2.2699 -3.40484,-25.53634 -4.5398,-23.26643 -6.80969,-48.23529 -3.40485,-56.7474 3.40485,-8.51211 3.40485,-20.42907 5.67474,-27.23875 2.2699,-6.80969 0.56748,-19.8616 1.70243,-23.83391 1.13494,-3.97232 2.26989,-12.48443 7.94463,-15.321804 5.67474,-2.83737 7.94464,-7.944636 13.61938,-6.809688 5.67474,1.134948 10.78201,0 18.15917,1.702422 7.37716,1.702422 19.29412,6.809689 23.26643,12.48443 3.97232,5.67474 12.48443,22.69896 18.15917,27.80623 5.67474,5.10726 11.91696,12.48443 16.45675,19.86159 4.53979,7.37716 6.24222,8.51211 10.78201,15.88927 4.53979,7.37717 16.45675,10.78201 18.15917,16.45675 1.70242,5.67474 7.37716,10.78201 9.07958,18.72664 1.70242,7.94464 2.2699,7.94464 2.83737,14.75433"
       id="path949" />
    <path
       style="fill:none;stroke:#000000;stroke-width:1px;stroke-linecap:butt;stroke-linejoin:miter;stroke-opacity:1"
       d="m 691.75087,275.79239 c -1.70243,-2.2699 -11.91696,-19.29412 -25.53634,-25.53633"
       id="path951" />
    <path
       style="fill:none;stroke:#000000;stroke-width:1.002;stroke-linecap:butt;stroke-linejoin:miter;stroke-miterlimit:4;stroke-dasharray:none;stroke-opacity:1"
       d="m 301.75109,443.39755 c -0.40126,-2.40759 1.60506,-31.69992 21.26703,-53.76948 19.66197,-22.06956 33.30498,-27.68727 36.11383,-29.29233"
       id="path955" />
    <path
       style="fill:none;stroke:#000000;stroke-width:1px;stroke-linecap:butt;stroke-linejoin:miter;stroke-opacity:1"
       d="m 671.31592,353.91551 c 6.8215,-2.80886 21.26704,-2.00633 30.09486,12.84047 8.82782,14.8468 13.24174,29.69359 18.05691,39.32395 4.81518,9.63035 9.63036,12.03794 11.63668,14.84679"
       id="path957" />
    <path
       style="fill:none;stroke:#000000;stroke-width:1px;stroke-linecap:butt;stroke-linejoin:miter;stroke-opacity:1"
       d="m 433.7672,535.68844 c 1.60505,3.61139 21.66829,30.09486 34.50876,37.31762 12.84047,7.22277 22.50236,17.26732 43.73786,18.45818 9.39651,0.52694 25.46013,-0.0118 30.43275,-1.42308 12.77675,-3.62613 20.5805,-4.71825 30.96075,-13.02245 14.04426,-11.23542 22.06957,-18.45818 30.49613,-27.286 8.42656,-8.82783 13.643,-17.65565 18.45818,-24.07589"
       id="path959"
       sodipodi:nodetypes="csssssc" />
    <path
       style="fill:none;stroke:#000000;stroke-width:1px;stroke-linecap:butt;stroke-linejoin:miter;stroke-opacity:1"
       d="m 718.66516,474.6962 c 0,0 -14.84679,53.36821 -35.71256,64.20236 -20.86577,10.83414 -32.10118,14.04426 -50.55936,21.26703"
       id="path961" />
    <path
       style="fill:none;stroke:#000000;stroke-width:1px;stroke-linecap:butt;stroke-linejoin:miter;stroke-opacity:1"
       d="m 381.60278,467.07217 c 0,0 -19.66198,-6.42024 -32.10118,3.21011 -12.43921,9.63036 -17.65565,12.43921 -22.47083,17.25439"
       id="path967" />
    <path
       style="fill:none;stroke:#000000;stroke-width:1px;stroke-linecap:butt;stroke-linejoin:miter;stroke-opacity:1"
       d="m 649.24636,457.04055 c 12.03794,-0.80253 18.45818,0.80253 26.88474,-1.60506 8.42656,-2.40759 11.63668,-0.40127 16.05059,4.41391 4.41391,4.81518 3.61138,13.643 12.43921,13.643 8.82782,0 16.85312,-5.6177 16.85312,-5.6177"
       id="path969" />
    <path
       style="fill:none;stroke:#000000;stroke-width:1px;stroke-linecap:butt;stroke-linejoin:miter;stroke-opacity:1"
       d="m 467.07217,540.50362 c 3.21011,0 33.78042,-4.34433 42.83796,-7.83058 9.56151,-3.68022 12.0069,-3.55741 13.74037,-13.83772 1.99509,-11.83186 1.50474,-14.54585 1.50474,-14.54585"
       id="path971"
       sodipodi:nodetypes="cssc" />
    <path
       style="fill:none;stroke:#000000;stroke-width:1px;stroke-linecap:butt;stroke-linejoin:miter;stroke-opacity:1"
       d="m 583.23831,540.50362 c -3.21011,0 -33.78042,-4.34433 -42.83796,-7.83058 -9.56151,-3.68022 -12.0069,-3.55741 -13.74037,-13.83772 -1.99509,-11.83186 -1.50474,-14.54585 -1.50474,-14.54585"
       id="path971-6"
       sodipodi:nodetypes="cssc" />
    <path
       style="fill:none;stroke:#000000;stroke-width:1px;stroke-linecap:butt;stroke-linejoin:miter;stroke-opacity:1"
       d="m 525.15524,504.28947 c 0,0 -4.71486,-7.32308 -7.12245,-10.33256 -2.40759,-3.00949 -3.00949,-7.22277 -3.00949,-9.02846 0,-1.80569 -0.60189,-5.81834 -3.41075,-5.81834 -2.80885,0 -1.80569,-0.80253 -6.62086,-0.6019 -4.81518,0.20063 -5.21645,-0.60189 -8.22593,-3.00948 -3.00949,-2.40759 -6.01897,-4.01265 -6.8215,-5.41708 -0.80253,-1.40442 -1.00316,-3.00948 0.40126,-3.61138 1.40443,-0.6019 7.62403,-2.60822 15.04743,-3.81202 7.4234,-1.20379 13.0411,-1.60505 18.45818,-1.60505 5.41707,0 15.44869,0.20063 19.66197,1.00316 4.21328,0.80253 9.22909,1.60506 11.63668,2.60822 2.40759,1.00316 4.81518,2.00632 3.41075,4.01265 -1.40443,2.00632 -1.00316,2.80885 -4.01265,4.81517 -3.00948,2.00633 -6.2196,2.40759 -7.4234,1.80569 -1.20379,-0.60189 -2.40758,-2.80885 -5.41707,0.20064 -3.00949,3.00948 -4.41391,3.00948 -4.21328,5.6177 0.20063,2.60822 1.20379,3.21012 1.00316,5.21644 -0.20063,2.00633 -1.40442,4.81518 -3.00948,6.62087 -1.60506,1.80569 -10.33257,11.33573 -10.33257,11.33573"
       id="path1010" />
    <path
       style="fill:none;stroke:#000000;stroke-width:1px;stroke-linecap:butt;stroke-linejoin:miter;stroke-opacity:1"
       d="m 560.96812,438.98363 c 0,0 4.01265,-26.0822 6.42023,-34.1075 2.40759,-8.02529 4.01265,-24.07588 8.82783,-34.1075 4.81518,-10.03162 8.42656,-17.65565 17.65565,-22.06956 9.22909,-4.41392 14.04426,-8.0253 21.66829,-7.22277 7.62403,0.80253 14.8468,1.60506 20.46451,3.21012 5.6177,1.60506 9.22908,5.21644 16.85312,5.21644"
       id="path1012" />
    <path
       style="fill:none;stroke:#000000;stroke-width:1px;stroke-linecap:butt;stroke-linejoin:miter;stroke-opacity:1"
       d="m 488.74046,441.79249 c 0,-2.40759 -4.41391,-26.48348 -7.22276,-32.50245 -2.80886,-6.01897 -10.03162,-30.49612 -12.84047,-36.51509 -2.80886,-6.01897 -8.21585,-18.38098 -20.89012,-24.66352 -12.39689,-6.14506 -23.41521,-7.7659 -32.24304,-6.16084 -8.82782,1.60506 -23.90968,9.95859 -26.31726,9.95859 -2.40759,0 -6.82151,-0.40126 -8.42656,-0.80253"
       id="path1014"
       sodipodi:nodetypes="csssssc" />
    <path
       style="fill:none;stroke:#000000;stroke-width:1px;stroke-linecap:butt;stroke-linejoin:miter;stroke-opacity:1"
       d="m 594.27309,421.32799 c 2.80886,0 4.41391,-4.41392 20.4645,-9.63036 16.05059,-5.21644 12.03795,-3.21012 26.88474,-7.62403 14.8468,-4.41391 13.643,-1.60506 18.85945,-7.62403"
       id="path1016" />
    <path
       style="fill:none;stroke:#000000;stroke-width:1px;stroke-linecap:butt;stroke-linejoin:miter;stroke-opacity:1"
       d="m 682.55134,420.52546 c 0,-6.01898 2.00632,-10.83415 6.01897,-13.64301 4.01265,-2.80885 9.22909,-6.8215 8.42656,-11.23541 -0.80253,-4.41391 -0.80253,-9.22909 -0.40127,-11.23541"
       id="path1018" />
    <path
       style="fill:none;stroke:#000000;stroke-width:1px;stroke-linecap:butt;stroke-linejoin:miter;stroke-opacity:1"
       d="m 444.60134,420.12419 c -4.81518,-2.40759 -1.60506,-5.61771 -19.66197,-7.62403 -18.05692,-2.00632 -28.89106,-8.82782 -33.30498,-12.03794 -4.41391,-3.21012 -20.4645,-15.64933 -20.4645,-18.05692"
       id="path1020" />
    <path
       style="fill:none;stroke:#000000;stroke-width:1px;stroke-linecap:butt;stroke-linejoin:miter;stroke-opacity:1"
       d="m 339.06871,398.45589 c 0,0 2.40759,12.03795 9.63036,19.26071 7.22276,7.22277 12.4392,12.03795 18.45817,14.8468"
       id="path1022" />
    <path
       style="fill:none;stroke:#000000;stroke-width:1px;stroke-linecap:butt;stroke-linejoin:miter;stroke-opacity:1"
       d="m 403.89965,345.5917 c -1.70242,0.99308 -10.21453,5.10726 -11.49134,10.782 -1.27682,5.67474 0.70934,19.15225 4.25605,23.69204 3.54671,4.5398 13.19377,16.88236 22.9827,18.30104 9.78893,1.41869 24.82699,2.12803 28.08996,0.70935 3.26298,-1.41869 11.77509,-5.10727 13.05191,-7.2353 1.27681,-2.12803 4.11418,-8.0865 4.11418,-10.78201 0,-2.6955 0.99308,-12.91003 0.42561,-14.47058"
       id="path1024" />
    <path
       style="fill:none;fill-opacity:1;stroke:#000000;stroke-width:1px;stroke-linecap:butt;stroke-linejoin:miter;stroke-opacity:1"
       d="m 426.88235,349.42215 c 0,0 -3.31155,1.68971 -5.67474,5.53287 -1.95859,3.18518 -3.92074,4.86846 -4.11419,10.78201 -0.2175,6.64885 0.99309,9.07958 2.2699,12.91003 1.27682,3.83045 3.97232,5.81661 5.10727,6.10035 1.13494,0.28374 4.68166,-2.69551 6.38408,-4.68167 1.70242,-1.98616 4.68166,-6.66781 5.391,-10.92387 0.51364,-3.08182 0,-7.37716 -0.70934,-10.21453 -0.70934,-2.83737 -5.53287,-7.23529 -5.95847,-7.80277 -0.42561,-0.56747 -0.99309,-1.56056 -2.69551,-1.70242 z"
       id="path1026"
       sodipodi:nodetypes="cssssssssc" />
    <path
       style="fill:none;stroke:#000000;stroke-width:1px;stroke-linecap:butt;stroke-linejoin:miter;stroke-opacity:1"
       d="m 575.41365,373.97875 c 0,0.80252 2.20696,12.63984 6.62087,17.45501 4.41391,4.81518 12.63984,9.63036 18.25754,9.42972 5.61771,-0.20063 22.67146,-2.40758 29.29233,-8.42656 6.62087,-6.01897 17.85628,-17.65565 17.85628,-24.27651 0,-6.62087 -1.20379,-12.23858 -2.00632,-15.24806 -0.80253,-3.00949 -6.21961,-7.4234 -6.21961,-7.4234"
       id="path1028" />
    <path
       style="fill:none;fill-opacity:1;stroke:#000000;stroke-width:1px;stroke-linecap:butt;stroke-linejoin:miter;stroke-opacity:1"
       d="m 607.71546,350.50476 c 0,0 -2.70854,1.80569 -4.41391,4.91549 -1.70538,3.1098 -3.91233,6.2196 -3.91233,8.82783 0,2.60822 -0.10032,7.42339 2.30727,11.73699 2.40759,4.3136 4.91549,7.62403 5.41707,8.22593 0.50159,0.60189 2.40759,3.41075 4.11297,1.10347 1.70537,-2.30727 3.7117,-6.01897 5.31676,-10.13193 1.60506,-4.11296 1.906,-8.22593 1.40442,-10.33257 -0.50158,-2.10664 -2.40759,-7.82466 -4.31359,-9.9313 -1.90601,-2.10664 -3.81202,-4.51423 -4.61455,-4.51423 -0.80253,0 -0.6019,0 -1.30411,0.10032 z"
       id="path1030" />
    <path
       style="display:inline;fill:none;stroke:#000000;stroke-width:1px;stroke-linecap:butt;stroke-linejoin:miter;stroke-opacity:1"
       d="m 495.97232,373.39792 c 0,-2.26989 -1.13495,-20.14533 -13.0519,-31.49481 -11.91696,-11.34948 -20.42907,-11.63321 -23.26644,-12.20069"
       id="path1042"
       sodipodi:nodetypes="csc" />
    <path
       style="display:inline;fill:none;stroke:#000000;stroke-width:1px;stroke-linecap:butt;stroke-linejoin:miter;stroke-opacity:1"
       d="m 548.46367,371.12803 c -0.56748,-9.07959 0,-25.2526 4.82353,-30.92734 4.82353,-5.67474 15.88927,-12.48443 20.14533,-13.90311"
       id="path1044" />
    <path
       style="display:inline;fill:none;stroke:#000000;stroke-width:1px;stroke-linecap:butt;stroke-linejoin:miter;stroke-opacity:1"
       d="m 450.00692,316.93426 c 0.56747,-1.98616 -9.36332,-9.36333 -5.95848,-18.72665 3.40485,-9.36332 3.12111,-11.06574 4.82353,-13.61937"
       id="path1046" />
    <path
       style="display:inline;fill:none;stroke:#000000;stroke-width:1px;stroke-linecap:butt;stroke-linejoin:miter;stroke-opacity:1"
       d="m 486.04152,306.43599 c 1.41869,-3.97232 1.98616,-12.48443 0,-15.60554 -1.98616,-3.12111 -1.98616,-15.60554 -0.85121,-21.56401 1.13495,-5.95848 1.41869,-7.37717 1.41869,-10.21454"
       id="path1048" />
    <path
       style="display:inline;fill:none;stroke:#000000;stroke-width:1px;stroke-linecap:butt;stroke-linejoin:miter;stroke-opacity:1"
       d="m 518.67128,330.2699 c 0.85121,-4.5398 -1.98616,-17.5917 -0.28374,-25.53634 1.70243,-7.94463 4.93811,-26.94911 3.68859,-32.06228 -0.72856,-2.98136 2.55363,-22.41522 4.25605,-28.08996 1.70242,-5.67475 -1.41868,-22.69897 -1.13495,-25.2526"
       id="path1050"
       sodipodi:nodetypes="csssc" />
    <path
       style="display:inline;fill:none;stroke:#000000;stroke-width:1px;stroke-linecap:butt;stroke-linejoin:miter;stroke-opacity:1"
       d="m 547.61246,305.30104 c 0,0 0,-20.14533 3.68858,-25.53633 3.68858,-5.39101 6.24221,-9.07959 6.52595,-12.76817"
       id="path1052" />
    <path
       style="display:inline;fill:none;stroke:#000000;stroke-width:1px;stroke-linecap:butt;stroke-linejoin:miter;stroke-opacity:1"
       d="m 590.17301,322.32526 c 0,0 9.64706,-18.72664 5.67474,-26.95502 -3.97232,-8.22837 -9.36332,-14.75432 -11.34948,-18.4429"
       id="path1054" />
    <path
       style="fill:none;stroke:#000000;stroke-width:1px;stroke-linecap:butt;stroke-linejoin:miter;stroke-opacity:1"
       d="m 443.76471,480.08305 c 0,0 -108.95502,34.04844 -127.68166,44.83045 -18.72665,10.782 -101.01039,55.04498 -120.3045,74.90657"
       id="path1079" />
    <path
       style="fill:none;stroke:#000000;stroke-width:1px;stroke-linecap:butt;stroke-linejoin:miter;stroke-opacity:1"
       d="m 417.09343,497.10727 c -2.83737,1.70242 -98.17301,38.02076 -108.95502,44.83045 -10.78201,6.80969 -86.25606,56.17993 -94.76817,62.42214"
       id="path1081" />
    <path
       style="fill:none;stroke:#000000;stroke-width:1px;stroke-linecap:butt;stroke-linejoin:miter;stroke-opacity:1"
       d="m 430.7128,497.10727 c 0,0 -81.14879,43.12802 -96.47059,51.07266 -15.32179,7.94464 -97.60553,59.0173 -111.79238,75.47405"
       id="path1083" />
    <path
       style="fill:none;stroke:#000000;stroke-width:1px;stroke-linecap:butt;stroke-linejoin:miter;stroke-opacity:1"
       d="m 443.19723,495.40484 c 0,0 -83.41868,47.10035 -88.52595,52.77509 -5.10727,5.67474 -22.13149,35.18339 -24.40138,41.42561"
       id="path1085" />
    <path
       style="fill:none;stroke:#000000;stroke-width:1px;stroke-linecap:butt;stroke-linejoin:miter;stroke-opacity:1"
       d="m 418.22837,516.96886 c -6.24221,3.40484 -90.22837,63.55709 -98.74048,70.36678 -8.51211,6.80969 -37.45329,40.29066 -47.66782,57.31488 -10.21453,17.02422 -17.02422,40.85813 -18.15917,50.50519"
       id="path1087" />
    <path
       style="fill:none;stroke:#000000;stroke-width:1px;stroke-linecap:butt;stroke-linejoin:miter;stroke-opacity:1"
       d="m 427.74822,515.22394 c -3.21012,0 -93.09342,52.56568 -106.73642,62.19603 -13.643,9.63036 -56.17707,47.75051 -66.20868,76.2403"
       id="path1089" />
    <path
       style="fill:none;stroke:#000000;stroke-width:1px;stroke-linecap:butt;stroke-linejoin:miter;stroke-opacity:1"
       d="m 436.17478,517.63153 c 0,0 -89.48204,60.59097 -100.71745,77.44409 -11.23541,16.85312 -40.12648,68.61627 -26.88474,108.74275"
       id="path1091" />
    <path
       style="fill:none;stroke:#000000;stroke-width:1px;stroke-linecap:butt;stroke-linejoin:miter;stroke-opacity:1"
       d="m 433.96783,515.42457 c 0,0 -78.24663,80.85485 -82.25928,85.26876 -4.01265,4.41391 -25.48031,25.27968 -31.49928,40.12647"
       id="path1093" />
    <path
       style="fill:none;stroke:#000000;stroke-width:1px;stroke-linecap:butt;stroke-linejoin:miter;stroke-opacity:1"
       d="m 461.85573,516.829 c -2.00633,1.20379 -56.9796,61.79477 -62.59731,73.03018 -5.6177,11.23541 -12.4392,22.87209 -14.44553,41.73153"
       id="path1095" />
    <path
       style="fill:none;stroke:#000000;stroke-width:1px;stroke-linecap:butt;stroke-linejoin:miter;stroke-opacity:1"
       d="m 451.02158,537.2935 c 0,0 -12.84048,14.44553 -16.05059,22.47082 -3.21012,8.0253 -7.62403,30.49612 -2.80886,44.13913"
       id="path1097" />
    <path
       style="fill:none;stroke:#000000;stroke-width:1px;stroke-linecap:butt;stroke-linejoin:miter;stroke-opacity:1"
       d="m 441.79249,524.45303 c -5.21644,3.61138 -36.51509,37.71888 -42.1328,49.35556 -5.61771,11.63668 -10.83415,26.88474 -10.83415,26.88474"
       id="path1099" />
    <path
       style="fill:none;stroke:#000000;stroke-width:1px;stroke-linecap:butt;stroke-linejoin:miter;stroke-opacity:1"
       d="m 445.80514,514.82267 c 0,0 -64.20236,62.19604 -70.22134,73.43145 -6.01897,11.23541 -16.05059,27.286 -16.45185,34.1075"
       id="path1101" />
    <path
       style="fill:none;stroke:#000000;stroke-width:1px;stroke-linecap:butt;stroke-linejoin:miter;stroke-opacity:1"
       d="m 615.13886,479.91264 c 0,0 97.10607,16.45185 110.74907,22.06956 13.643,5.61771 123.99081,58.18339 138.43634,64.60362"
       id="path1103" />
    <path
       style="fill:none;stroke:#000000;stroke-width:1px;stroke-linecap:butt;stroke-linejoin:miter;stroke-opacity:1"
       d="m 594.67436,475.09746 c 0,0 71.42512,19.26071 89.8833,25.68095 18.45818,6.42023 92.29089,39.32394 104.32883,44.13912 12.03795,4.81517 25.68095,11.23541 33.70624,12.03794"
       id="path1105" />
    <path
       style="fill:none;stroke:#000000;stroke-width:1px;stroke-linecap:butt;stroke-linejoin:miter;stroke-opacity:1"
       d="m 624.36795,491.95058 c 0,0 51.36189,8.0253 63.39983,13.643 12.03794,5.61771 48.9543,20.06324 57.78212,23.27336 8.82783,3.21012 63.39983,38.52141 74.63524,43.33659 11.23542,4.81518 57.78213,28.89106 60.99225,29.69359"
       id="path1107" />
    <path
       style="fill:none;stroke:#000000;stroke-width:1px;stroke-linecap:butt;stroke-linejoin:miter;stroke-opacity:1"
       d="m 607.51483,495.1607 c 0,0 69.01753,36.91636 97.9086,50.55936 28.89106,13.643 75.43777,48.15177 88.27824,56.97959 12.84047,8.82783 33.70624,34.50877 59.38718,47.34924 25.68095,12.84047 40.92901,15.24806 49.75683,17.65565"
       id="path1109" />
    <path
       style="fill:none;stroke:#000000;stroke-width:1px;stroke-linecap:butt;stroke-linejoin:miter;stroke-opacity:1"
       d="m 618.34898,497.16702 c 0,0 62.99856,19.26071 78.64789,25.68095 15.64932,6.42023 81.05548,33.70624 93.49468,41.73153 12.43921,8.0253 61.79478,36.11383 74.23398,38.92268 12.43921,2.80885 40.12648,10.03162 44.94165,7.62403"
       id="path1111" />
    <path
       style="fill:none;stroke:#000000;stroke-width:1px;stroke-linecap:butt;stroke-linejoin:miter;stroke-opacity:1"
       d="m 615.54012,491.54932 c 0,0 88.67951,34.50876 103.92757,42.53406 15.24806,8.02529 117.97184,70.6226 153.6844,112.35413"
       id="path1113" />
    <path
       style="fill:none;stroke:#000000;stroke-width:1px;stroke-linecap:butt;stroke-linejoin:miter;stroke-opacity:1"
       d="m 611.52748,501.58094 c 0,0 46.94797,19.2607 57.78212,22.47082 10.83415,3.21012 29.69359,13.643 40.929,18.45818 11.23542,4.81518 67.41248,38.52142 79.85169,51.36189"
       id="path1115" />
    <path
       style="fill:none;stroke:#000000;stroke-width:1px;stroke-linecap:butt;stroke-linejoin:miter;stroke-opacity:1"
       d="m 612.33001,510.40876 c 0,0 32.10118,19.26071 44.13912,24.07588 12.03794,4.81518 70.22133,34.50877 79.85168,44.54039 9.63036,10.03162 40.52774,32.50245 41.33027,95.90228"
       id="path1117" />
    <path
       style="fill:none;stroke:#000000;stroke-width:1px;stroke-linecap:butt;stroke-linejoin:miter;stroke-opacity:1"
       d="m 618.34898,516.42773 c 0,0 62.19603,38.12015 77.84536,56.9796 15.64932,18.85944 28.4898,20.06323 40.12647,72.62891"
       id="path1119" />
    <path
       style="fill:none;stroke:#000000;stroke-width:1px;stroke-linecap:butt;stroke-linejoin:miter;stroke-opacity:1"
       d="m 597.48321,516.829 c 0,0 34.1075,24.47715 43.73786,33.30497 9.63035,8.82782 24.47715,37.31762 24.07588,56.97959"
       id="path1121" />
    <path
       style="fill:none;stroke:#000000;stroke-width:1px;stroke-linecap:butt;stroke-linejoin:miter;stroke-opacity:1"
       d="m 607.11356,518.83532 c 0,0 81.35006,41.8836 85.87066,44.94165 13.643,9.22909 79.45042,68.21501 78.64789,86.27192"
       id="path1123"
       sodipodi:nodetypes="csc" />
    <path
       style="fill:none;stroke:#000000;stroke-width:1px;stroke-linecap:butt;stroke-linejoin:miter;stroke-opacity:1"
       d="m 495.68858,469.0173 c 0,0 15.60554,-5.81661 22.41523,-5.81661 6.80969,0 9.36332,0.28374 13.90311,0.28374 4.53979,0 16.74049,1.98616 22.41523,4.39792"
       id="path1125"
       sodipodi:nodetypes="cssc" />
    <path
       style="display:inline;fill:none;stroke:#000000;stroke-width:1px;stroke-linecap:butt;stroke-linejoin:miter;stroke-opacity:1"
       d="m 525.15524,504.28947 c 0,0 0.8932,-4.20296 0.75134,-9.59397 -0.14187,-5.391 0.56747,-9.07958 0.56747,-9.07958"
       id="path1127" />
    <path
       style="fill:none;stroke:#000000;stroke-width:1px;stroke-linecap:butt;stroke-linejoin:miter;stroke-opacity:1"
       d="m 513.98962,534.56055 c 0,0 2.80294,-2.55363 7.059,-2.97923 4.25606,-0.42561 4.94818,-0.28374 6.50874,0.28373 1.56055,0.56748 4.59143,1.41869 5.58451,2.12803"
       id="path1132"
       sodipodi:nodetypes="cssc" />
    <path
       style="display:inline;fill:none;stroke:#000000;stroke-width:1px;stroke-linecap:butt;stroke-linejoin:miter;stroke-opacity:1"
       d="m 495.51328,568.89605 c 0,0 16.09927,6.5176 23.7233,6.91886 7.62403,0.40127 15.03317,-0.49027 17.44076,-0.89153 2.40759,-0.40127 17.87054,-9.14009 17.87054,-9.14009"
       id="path1130"
       sodipodi:nodetypes="cssc" />
    <path
       style="fill:none;stroke:#000000;stroke-width:1px;stroke-linecap:butt;stroke-linejoin:miter;stroke-opacity:1"
       d="m 720.80913,294.84365 c 3.21064,1.73378 2.22266,19.79466 7.47809,28.34792 3.80541,6.19334 6.7682,20.96012 8.9939,26.66656 6.04138,15.48947 2.78113,34.98016 6.75345,52.57186 3.97232,17.59169 -1.33695,60.19575 -1.33695,60.19575 0,0 -3.90808,39.35646 -22.36625,59.4197 -18.45818,20.06324 -35.29778,34.41353 -66.59643,44.39076 -30.6039,9.75576 -78.72256,20.61413 -93.97062,18.20654"
       id="path1047"
       sodipodi:nodetypes="cssscssc" />
    <path
       style="fill:none;stroke:#000000;stroke-width:1px;stroke-linecap:butt;stroke-linejoin:miter;stroke-opacity:1"
       d="m 299.49817,283.73564 c 0,0 5.7917,21.14642 -3.63542,40.30468 -6.93277,14.08911 -6.18593,31.2526 -8.14715,43.8444 -4.68108,30.05445 1.23125,59.94086 1.23125,69.02044 0,9.07959 6.30577,34.39455 9.0929,43.81086 2.55179,11.08494 24.55344,29.28809 35.78885,39.72097 11.23541,10.43288 20.48817,19.2641 29.06436,22.2451 16.60149,7.39493 29.1427,14.67465 44.79203,17.88477 15.64932,3.21011 22.83447,5.75563 26.6214,7.17261 0,0 17.91114,7.46295 26.42325,10.30032 8.51211,2.83737 23.26644,7.6609 32.34602,9.07959"
       id="path1049"
       sodipodi:nodetypes="cssscscscsc" />
    <path
       style="fill:none;stroke:#000000;stroke-width:1px;stroke-linecap:butt;stroke-linejoin:miter;stroke-opacity:1"
       d="m 428.22161,204.90129 c 0,0 29.6399,-12.34785 49.47207,-14.27598 19.83217,-1.92812 46.48606,-2.74874 60.8093,-1.3715 14.32324,1.37723 49.15174,3.01034 63.75042,7.41749"
       id="path1053"
       sodipodi:nodetypes="cssc" />
  </g>
</svg>
