<?xml version="1.0" encoding="UTF-8" standalone="no"?>
<svg
   xmlns:dc="http://purl.org/dc/elements/1.1/"
   xmlns:cc="http://creativecommons.org/ns#"
   xmlns:rdf="http://www.w3.org/1999/02/22-rdf-syntax-ns#"
   xmlns:svg="http://www.w3.org/2000/svg"
   xmlns="http://www.w3.org/2000/svg"
   xmlns:sodipodi="http://sodipodi.sourceforge.net/DTD/sodipodi-0.dtd"
   xmlns:inkscape="http://www.inkscape.org/namespaces/inkscape"
   width="37.983116mm"
   height="36.745358mm"
   viewBox="0 0 37.983116 36.745357"
   version="1.1"
   id="svg8"
   inkscape:version="1.0.2 (e86c870879, 2021-01-15, custom)"
   sodipodi:docname="exp_spiral.svg">
  <defs
     id="defs2" />
  <sodipodi:namedview
     id="base"
     pagecolor="#ffffff"
     bordercolor="#666666"
     borderopacity="1.0"
     inkscape:pageopacity="0.0"
     inkscape:pageshadow="2"
     inkscape:zoom="3.959798"
     inkscape:cx="73.12634"
     inkscape:cy="86.992108"
     inkscape:document-units="mm"
     inkscape:current-layer="layer1"
     inkscape:document-rotation="0"
     showgrid="false"
     fit-margin-top="0"
     fit-margin-left="0"
     fit-margin-right="0"
     fit-margin-bottom="0"
     inkscape:window-width="1849"
     inkscape:window-height="1057"
     inkscape:window-x="63"
     inkscape:window-y="-8"
     inkscape:window-maximized="1" />
  <metadata
     id="metadata5">
    <rdf:RDF>
      <cc:Work
         rdf:about="">
        <dc:format>image/svg+xml</dc:format>
        <dc:type
           rdf:resource="http://purl.org/dc/dcmitype/StillImage" />
        <dc:title></dc:title>
      </cc:Work>
    </rdf:RDF>
  </metadata>
  <g
     inkscape:label="Слой 1"
     inkscape:groupmode="layer"
     id="layer1"
     transform="translate(-5.8518326,-9.2961203)">
    <!-- <path
       style="fill:none;stroke:red;stroke-width:0.264583px;stroke-linecap:butt;stroke-linejoin:miter;stroke-opacity:1"
       d="m 8.6934523,43.845239 C 8.6934523,43.845239 5.669642700000001,37.608631 5.4806548,31.938989 C 5.2916666,26.269345 6.047619,17.197916 10.961309,13.418155 C 15.875,9.6383926 20.032738,8.315476 28.537201,9.0714284 C 37.041666,9.8273808 38.889765,15.360591 41.605871,20.221726 C 43.551445,23.703805 44.034225,31.938989 44.034225,31.938989"
       id="path833"
       sodipodi:nodetypes="cssssc" />-->
    <path
       style="fill:none;stroke:#000000;stroke-width:0.264583px;stroke-linecap:butt;stroke-linejoin:miter;stroke-opacity:1"
       d="m 24.833238,28.581164 c -0.400904,-0.601356 -0.200452,-2.004519 1.26953,-2.071339 1.469983,-0.06682 3.140417,2.939965 1.5368,4.677217 -1.342141,1.453987 -4.209495,2.138155 -6.280834,-0.467722 -2.071339,-2.605878 -1.469982,-6.013565 1.80407,-7.483547 2.846039,-1.277813 7.216277,1.5368 8.151721,3.274052 0.935442,1.737252 0.935442,6.414469 -1.202714,8.218538 -2.408871,2.032485 -9.488068,3.274051 -12.895755,-2.004522 -3.407686,-5.278573 -0.334086,-10.623963 4.34313,-13.363475 4.903101,-2.871816 12.49485,3.073599 13.563928,5.211755 1.069078,2.138156 2.152905,9.887753 -3.073598,14.499372 -6.815374,6.013563 -17.639789,0.467721 -20.646572,-4.810852 -2.3403805,-4.108667 0.160337,-13.59063 3.741774,-17.172066 3.741773,-3.741773 13.342463,-3.357786 17.840241,-1.269531 3.741772,1.737252 7.156014,7.794079 7.817633,12.160764 0.668173,4.409947 -2.812241,11.868395 -6.280834,14.566189 -3.608139,2.80633 -14.900275,4.543582 -19.10977,2.405424 -2.750697,-1.39718 -6.6358535,-5.889357 -6.6358535,-5.889357 0,0 -2.5719527,-2.121607 -2.7609406,-7.791249 -0.1889882,-5.669644 0.366512,-13.204273 5.2802021,-16.984034 4.913691,-3.779762 8.603707,-5.4367659 17.10817,-4.6808135 8.504465,0.7559525 8.683036,4.5210815 12.667766,8.4107845 2.8142,2.747088 2.628806,12.585889 2.628806,12.585889"
       id="path845"
       sodipodi:nodetypes="csssssssssssssssscssssc" />
  </g>
</svg>
