<?xml version="1.0" encoding="UTF-8" standalone="no"?>
<svg
   xmlns:dc="http://purl.org/dc/elements/1.1/"
   xmlns:cc="http://creativecommons.org/ns#"
   xmlns:rdf="http://www.w3.org/1999/02/22-rdf-syntax-ns#"
   xmlns:svg="http://www.w3.org/2000/svg"
   xmlns="http://www.w3.org/2000/svg"
   xmlns:sodipodi="http://sodipodi.sourceforge.net/DTD/sodipodi-0.dtd"
   xmlns:inkscape="http://www.inkscape.org/namespaces/inkscape"
   version="1.1"
   id="svg1460"
   width="666.46716"
   height="584.25714"
   viewBox="0 0 666.46717 584.25714"
   sodipodi:docname="exp_knife.svg"
   inkscape:version="1.0.2 (e86c870879, 2021-01-15, custom)">
  <metadata
     id="metadata1466">
    <rdf:RDF>
      <cc:Work
         rdf:about="">
        <dc:format>image/svg+xml</dc:format>
        <dc:type
           rdf:resource="http://purl.org/dc/dcmitype/StillImage" />
        <dc:title></dc:title>
      </cc:Work>
    </rdf:RDF>
  </metadata>
  <defs
     id="defs1464" />
  <sodipodi:namedview
     pagecolor="#ffffff"
     bordercolor="#666666"
     borderopacity="1"
     objecttolerance="10"
     gridtolerance="10"
     guidetolerance="10"
     inkscape:pageopacity="0"
     inkscape:pageshadow="2"
     inkscape:window-width="1849"
     inkscape:window-height="1057"
     id="namedview1462"
     showgrid="false"
     fit-margin-top="0"
     fit-margin-left="0"
     fit-margin-right="0"
     fit-margin-bottom="0"
     inkscape:zoom="0.66749998"
     inkscape:cx="683.88313"
     inkscape:cy="264.72814"
     inkscape:window-x="63"
     inkscape:window-y="-8"
     inkscape:window-maximized="1"
     inkscape:current-layer="layer3" />
  <g
     inkscape:groupmode="layer"
     id="layer3"
     inkscape:label="vector_knife"
     transform="translate(0.51770306,-38.721474)">
    <path
       style="fill:none;stroke:#000000;stroke-width:1px;stroke-linecap:butt;stroke-linejoin:miter;stroke-opacity:1"
       d="m 365.26218,411.79777 c 0,0 6.36705,4.96254 8.8015,7.58427 2.43446,2.62172 9.17603,7.9588 10.206,9.45693 1.02996,1.49812 0.65543,2.05992 2.62172,1.87265 1.96629,-0.18726 11.79775,-1.31086 16.66667,0 4.86891,1.31087 15.54307,3.37079 19.75655,6.36705 4.21348,2.99625 42.13483,40.16854 56.08614,57.58427 13.95132,17.41573 46.62922,50.5618 51.9663,53.74532 5.33708,3.18352 39.51311,27.43446 45.31835,32.58427 5.80525,5.14981 16.66667,16.1985 18.53933,23.31461 1.87266,7.1161 1.77902,8.14606 4.30711,10.01872 2.52809,1.87266 7.39701,5.52435 13.67042,6.55431 6.27341,1.02996 22.47191,2.62172 27.43445,0.65543 4.96255,-1.96629 15.54308,-5.61798 18.4457,-11.42322 2.90262,-5.80524 6.36704,-9.92509 6.36704,-18.82023 0,-8.89513 -0.5618,-15.9176 -7.02247,-24.90636 -6.46068,-8.98877 -33.33334,-32.30338 -36.98502,-35.4869 -3.65169,-3.18352 -35.11236,-29.11985 -39.60675,-33.33333 -4.49438,-4.21348 -50.93633,-42.41573 -54.21348,-46.16105 -3.27715,-3.74532 -43.63296,-37.92135 -47.19101,-41.57304 -3.55806,-3.65168 -46.91012,-39.13857 -50.65544,-43.16479 -3.74531,-4.02622 -11.21196,-10.29604 -12.5,-11.23595 -1.73221,-1.26405 -3.09055,-4.66227 -6.03932,-4.72847 -2.63574,-0.0592 -5.80525,4.44756 -7.11611,6.03932 -1.31086,1.59176 -22.98689,25.09364 -24.95318,27.05993 -1.9663,1.9663 -8.2397,8.89513 -10.76779,11.42322 -2.52809,2.52809 -5.45158,6.22156 -6.03933,7.397 -0.51501,1.02997 -1.45217,2.29682 -0.18726,3.46443 1.21723,1.12359 2.99625,0.93632 3.37078,2.24719 0.37453,1.31086 0.65543,1.21722 -0.2809,3.46442 z"
       id="path2034"
       sodipodi:nodetypes="cssssssssssssssssssssssssssssc" />
    <path
       style="fill:none;stroke:#000000;stroke-width:1px;stroke-linecap:butt;stroke-linejoin:miter;stroke-opacity:1"
       d="m 413.80314,358.9825 c 0,0 -12.31478,13.10928 -15.89004,17.08179 -3.57526,3.97251 -14.96312,14.83071 -17.61146,17.47905 -2.64834,2.64834 -8.87194,5.56151 -7.54777,7.8126 1.32417,2.25109 7.8126,7.0181 11.38786,10.72578 3.57526,3.70767 5.16426,5.16426 7.41535,6.35601 2.25109,1.19176 2.64834,-0.39725 3.70768,-0.52966 1.05933,-0.13242 7.8126,-4.10493 12.71203,-2.91318 4.89943,1.19175 12.57962,0.39725 18.80322,5.03185 6.22359,4.63459 28.46965,18.27354 33.10425,24.09989 4.63459,5.82635 22.77572,25.15923 27.01307,30.85316 4.23734,5.69394 29.39657,33.63392 33.63391,37.07677 4.23735,3.44284 38.1361,33.76633 45.02179,38.00368 6.88568,4.23734 29.13174,21.98122 31.78008,24.89439 2.64834,2.91318 12.4472,17.21421 15.22795,24.23232 2.78076,7.0181 4.50218,8.87193 8.47469,10.1961 3.97251,1.32417 12.31478,1.19176 15.89004,0 3.57526,-1.19175 14.43345,-4.50217 17.47905,-7.15051 3.04559,-2.64834 6.09118,-7.68019 6.75326,-10.32853 0.66209,-2.64834 1.05934,-13.90379 0.66209,-15.22796"
       id="path2036" />
    <path
       style="fill:none;stroke:#000000;stroke-width:1px;stroke-linecap:butt;stroke-linejoin:miter;stroke-opacity:1"
       d="m 365.26218,411.79777 c 0,0 -11.8412,10.48006 -13.16537,11.14214 -1.32417,0.66209 -5.82634,5.82635 -12.84444,1.32417 -7.01811,-4.50218 -33.63392,-28.73449 -36.5471,-31.38283 -2.91317,-2.64834 -53.62888,-49.65637 -57.73381,-53.7613 -4.10493,-4.10493 -75.47769,-72.29969 -79.58262,-77.0667 -4.10493,-4.76701 -62.50083,-65.14916 -65.546419,-69.38651 C 96.79683,188.4294 62.76566,151.35264 57.733814,145.26145 52.701968,139.17027 23.967478,97.988583 21.583972,91.764984 19.200466,85.541385 4.6345952,57.46898 2.6483401,51.377798 0.66208502,45.286616 0,41.314105 0,40.519603 0,39.725101 -0.14044944,39.138578 0.88951314,39.232211 1.9194757,39.325844 15.730338,43.258428 18.586143,44.756556 c 2.855805,1.498127 30.540566,14.698679 37.293833,19.465691 6.753267,4.767012 51.907464,33.633919 56.542064,37.738843 4.63459,4.10493 51.37779,39.46027 58.79315,45.68387 7.41535,6.2236 61.70632,48.86187 69.78376,56.01239 8.07744,7.15052 88.18972,76.13978 92.82432,79.97987 4.63459,3.8401 58.3959,51.64264 62.89808,55.35031 4.50217,3.70768 6.11106,5.48814 6.76649,5.88608 0.65543,0.39794 2.45787,0.23408 2.8324,0.49157 0.37453,0.25749 1.80243,1.07678 2.15356,1.87266 0.35112,0.79588 1.05337,3.4176 1.00655,3.9794"
       id="path2038" />
    <path
       style="fill:none;stroke:#000000;stroke-width:1px;stroke-linecap:butt;stroke-linejoin:miter;stroke-opacity:1"
       d="m 353.5534,403.87186 c 0,0 -36.01742,-31.25041 -42.10861,-36.81192 -6.09118,-5.56152 -41.84377,-38.9306 -47.93495,-44.49212 -6.09118,-5.56151 -56.40965,-52.1723 -62.23599,-57.73381 -5.82635,-5.56152 -44.49212,-44.75695 -48.19979,-48.72946 -3.70768,-3.97251 -32.83942,-34.42842 -40.51961,-41.57894 C 104.87427,167.37509 76.537029,133.47634 72.564518,127.64999 68.592008,121.82364 51.377798,96.664413 46.610786,90.308397 41.843773,83.952381 29.926243,63.295328 28.337239,59.852486 26.748235,56.409644 23.43781,49.457751 23.172976,46.941828"
       id="path2040" />
    <path
       style="fill:none;stroke:#000000;stroke-width:1px;stroke-linecap:butt;stroke-linejoin:miter;stroke-opacity:1"
       d="m 431.92885,387.7341 c 0,0 -6.32022,0.23408 -7.53745,1.96629 -1.21723,1.73221 -3.32397,4.63483 -3.46442,7.02247 -0.1242,2.1114 0.74103,4.97391 1.82584,6.60113 1.31086,1.96629 3.08989,4.49437 5.29027,4.82209 1.64434,0.2449 6.03932,0.37453 7.06929,-0.0468 1.02996,-0.42134 4.16666,-2.8558 5.29026,-5.38389 0.95488,-2.14846 1.54494,-4.07303 1.02996,-6.46068 -0.49952,-2.31595 -2.57491,-5.33707 -4.07304,-6.36704 -1.49812,-1.02996 -3.55805,-1.82584 -5.43071,-2.15355 z"
       id="path2042"
       sodipodi:nodetypes="cssssssssc" />
    <path
       style="fill:none;stroke:#000000;stroke-width:1px;stroke-linecap:butt;stroke-linejoin:miter;stroke-opacity:1"
       d="m 518.44571,461.37642 c -1.07678,-0.51498 -5.9457,-0.14045 -7.25656,0.74906 -1.31086,0.88951 -3.55804,2.01312 -3.88576,5.33709 -0.32771,3.32397 -1.77903,6.08613 0.70224,8.80149 2.48128,2.71536 3.32398,3.32398 4.8221,3.93259 1.49813,0.60861 5.75843,1.26404 7.20974,0.46816 1.45131,-0.79588 5.05618,-2.66854 5.29026,-6.08614 0.23408,-3.41761 0.17721,-6.94342 -0.74906,-8.47379 -1.07678,-1.77902 -1.96629,-3.46442 -6.13296,-4.72846 z"
       id="path2044"
       sodipodi:nodetypes="csssssssc" />
    <path
       style="fill:none;stroke:#000000;stroke-width:1px;stroke-linecap:butt;stroke-linejoin:miter;stroke-opacity:1"
       d="m 601.82586,535.15919 c 0,0 -5.10299,0.0936 -7.25655,2.15356 -2.01773,1.93001 -2.91201,3.63556 -3.08989,5.99251 -0.18726,2.48128 -0.37453,4.72847 0.8427,6.55431 1.21723,1.82584 3.4176,4.40075 4.82209,4.86891 1.4045,0.46817 8.2397,0.98315 8.98877,0.0936 0.74906,-0.88952 4.96255,-3.13671 5.24344,-6.08615 0.2809,-2.94944 0.37454,-6.17977 -0.70224,-7.6779 -1.07678,-1.49813 -3.93259,-6.13296 -8.84832,-5.89888 z"
       id="path2046"
       sodipodi:nodetypes="cssssssssc" />
  </g>
</svg>
