<?xml version="1.0" encoding="UTF-8" standalone="no"?>
<svg
   xmlns:dc="http://purl.org/dc/elements/1.1/"
   xmlns:cc="http://creativecommons.org/ns#"
   xmlns:rdf="http://www.w3.org/1999/02/22-rdf-syntax-ns#"
   xmlns:svg="http://www.w3.org/2000/svg"
   xmlns="http://www.w3.org/2000/svg"
   xmlns:sodipodi="http://sodipodi.sourceforge.net/DTD/sodipodi-0.dtd"
   xmlns:inkscape="http://www.inkscape.org/namespaces/inkscape"
   version="1.1"
   id="svg1572"
   width="884.39026"
   height="531.71069"
   viewBox="0 0 884.39026 531.71069"
   sodipodi:docname="exp_scissors.svg"
   inkscape:version="1.0.2 (e86c870879, 2021-01-15, custom)">
  <metadata
     id="metadata1578">
    <rdf:RDF>
      <cc:Work
         rdf:about="">
        <dc:format>image/svg+xml</dc:format>
        <dc:type
           rdf:resource="http://purl.org/dc/dcmitype/StillImage" />
        <dc:title></dc:title>
      </cc:Work>
    </rdf:RDF>
  </metadata>
  <defs
     id="defs1576" />
  <sodipodi:namedview
     pagecolor="#ffffff"
     bordercolor="#666666"
     borderopacity="1"
     objecttolerance="10"
     gridtolerance="10"
     guidetolerance="10"
     inkscape:pageopacity="0"
     inkscape:pageshadow="2"
     inkscape:window-width="1849"
     inkscape:window-height="1057"
     id="namedview1574"
     showgrid="false"
     inkscape:zoom="0.89926288"
     inkscape:cx="526.33576"
     inkscape:cy="369.64741"
     inkscape:window-x="63"
     inkscape:window-y="-8"
     inkscape:window-maximized="1"
     inkscape:current-layer="layer3"
     fit-margin-top="0"
     fit-margin-left="0"
     fit-margin-right="0"
     fit-margin-bottom="0" />
  <g
     inkscape:groupmode="layer"
     id="layer3"
     inkscape:label="vector"
     transform="translate(-50.930313,-63.1574)">
    <path
       style="fill:none;stroke:#000000;stroke-width:1px;stroke-linecap:butt;stroke-linejoin:miter;stroke-opacity:1"
       d="m 582.97747,273.76589 c 0,0 15.84632,-5.49061 36.14072,-36.34922 20.2944,-30.8586 48.09494,-56.1571 58.10314,-66.4433 10.0082,-10.28621 58.38115,-54.76708 68.66735,-61.43921 10.2862,-6.67214 39.19877,-25.854513 55.8791,-31.136617 16.68033,-5.282104 38.92077,-15.012295 59.49317,-14.73429 20.57241,0.278006 36.41872,8.896175 42.81284,14.178279 6.39413,5.282104 18.07036,15.568307 24.74249,33.082648 6.67213,17.51435 5.83812,36.97473 0.27801,49.48498 -5.56011,12.51024 -7.50615,22.24043 -35.5847,44.48087 -28.07856,22.24044 -60.32719,28.91257 -73.94946,30.85861 -13.62227,1.94604 -57.82514,10.0082 -68.38935,13.90027 -10.5642,3.89208 -43.64685,16.12432 -59.49317,28.91257 -15.84631,12.78825 -33.63866,31.13662 -42.25683,40.3108 -8.61817,9.17418 -25.2985,26.13251 -43.92486,36.97472 -18.62637,10.84222 -44.48088,24.74249 -70.33539,28.07856 -25.85451,3.33606 -44.20287,-1.66804 -51.43101,-8.34017 -7.22814,-6.67213 -10.84221,-12.51024 -11.12022,-25.2985 -0.278,-12.78825 11.39823,-25.5765 14.73429,-29.74658 3.33607,-4.17008 20.0164,-17.79235 26.41052,-20.85041 6.39413,-3.05806 17.79235,-8.89618 27.24454,-10.56421 9.45218,-1.66803 27.52254,-6.39413 31.97063,-9.17418 4.44809,-2.78005 6.81113,-3.75308 10.00819,-6.18562 z"
       id="path2146"
       sodipodi:nodetypes="csssssssssssssssssssssc" />
    <path
       style="fill:none;stroke:#000000;stroke-width:1px;stroke-linecap:butt;stroke-linejoin:miter;stroke-opacity:1"
       d="m 713.64005,199.05192 c 0,0 -3.30234,-9.81162 -0.52229,-17.87378 2.78006,-8.06216 22.76272,-28.27513 29.99087,-35.50327 7.22814,-7.22815 36.14071,-28.35656 47.53893,-33.63866 11.39823,-5.28211 31.13661,-15.290306 43.09085,-16.680333 11.95424,-1.390028 15.84631,-5.838115 32.24863,-1.112022 16.40233,4.726093 25.57651,15.012295 28.63457,21.128415 3.05806,6.11612 9.17418,16.12432 7.78415,28.07855 -1.39003,11.95424 -1.66804,19.18238 -6.95014,27.24454 -6.46743,9.87134 -26.13251,22.51844 -40.03278,27.80055 -13.90028,5.2821 -40.3108,14.17828 -59.77118,15.84631 -19.46038,1.66803 -32.85234,3.56348 -45.5929,3.05806 -12.02532,-0.47705 -22.15901,0.42689 -27.16311,-4.85522 -5.0041,-5.2821 -5.62177,-5.13611 -9.2556,-13.49314 z"
       id="path2148"
       sodipodi:nodetypes="cssssssssssssc" />
    <path
       style="fill:none;stroke:#000000;stroke-width:1px;stroke-linecap:butt;stroke-linejoin:miter;stroke-opacity:1"
       d="m 629.25115,337.72367 c 0,0 13.36741,10.6153 21.82033,20.83744 8.45293,10.22213 32.04247,27.52113 35.97406,30.27325 3.93159,2.75211 29.48694,18.47848 44.82014,23.9827 15.33321,5.50423 43.2475,11.20504 53.27306,11.20504 10.02556,0 59.36703,9.43582 66.24731,11.59819 6.88028,2.16238 35.18774,14.15373 46.78593,23.78613 11.5982,9.6324 23.78613,18.08532 32.04247,38.13643 8.25634,20.05112 3.93159,42.46119 -1.57264,54.45254 -5.50422,11.99135 -7.6666,18.67506 -28.70061,32.6322 -21.03401,13.95715 -50.71753,9.43582 -60.34992,7.27345 -9.6324,-2.16238 -38.5296,-7.47002 -55.04228,-17.69216 -16.51268,-10.22214 -39.51249,-21.42717 -59.17044,-38.13644 -19.65796,-16.70926 -65.26442,-56.22175 -78.43525,-71.55495 -13.17083,-15.33321 -32.6322,-38.5296 -41.67486,-48.16199 -9.04266,-9.6324 -21.42717,-15.92295 -30.27325,-18.87164 -8.84608,-2.94869 -25.16219,-7.27344 -32.23905,-7.86318 -7.07686,-0.58974 -15.33321,-2.9487 -18.2819,-5.30765"
       id="path2150" />
    <path
       style="fill:none;stroke:#000000;stroke-width:1px;stroke-linecap:butt;stroke-linejoin:miter;stroke-opacity:1"
       d="m 718.64414,465.38116 c 0,0 8.06216,-12.09324 15.84632,-13.06626 7.78415,-0.97302 52.54303,-4.03108 67.27732,-1.52903 14.73429,2.50205 55.18409,6.81114 76.3125,21.54543 21.12842,14.73429 23.42196,23.21345 25.78501,33.08265 2.36305,9.86919 -0.90352,30.30259 -6.88063,37.11373 -5.97712,6.81113 -20.98942,23.76947 -36.41872,23.90847 -15.42931,0.139 -48.51196,-5.69911 -68.52835,-17.09734 -20.01639,-11.39822 -60.60519,-36.27971 -67.97234,-49.34597 -7.36714,-13.06626 -9.59119,-15.2208 -9.10468,-21.54542 0.48651,-6.32463 2.50205,-11.32873 3.68357,-13.06626 z"
       id="path2152"
       sodipodi:nodetypes="csssssssssc" />
    <path
       style="fill:none;stroke:#000000;stroke-width:1px;stroke-linecap:butt;stroke-linejoin:miter;stroke-opacity:1"
       d="m 673.32925,379.19946 c 0,0 -34.19467,16.12432 -53.93306,18.07036 -19.73839,1.94604 -35.8627,2.22404 -38.64276,1.94604"
       id="path2154" />
    <path
       style="fill:none;stroke:#000000;stroke-width:1px;stroke-linecap:butt;stroke-linejoin:miter;stroke-opacity:1"
       d="m 616.75514,349.17487 c 0,0 15.98531,12.23224 19.32138,15.56831 3.33607,3.33606 17.51434,15.84631 18.20936,16.54132"
       id="path2156" />
    <path
       style="fill:none;stroke:#000000;stroke-width:1px;stroke-linecap:butt;stroke-linejoin:miter;stroke-opacity:1"
       d="m 664.85009,377.80944 c 0,0 -19.04338,7.36714 -24.60349,8.75717 -5.56011,1.39003 -21.54542,5.97712 -27.66154,6.39412 -6.11612,0.41701 -27.10554,2.91906 -30.71961,3.19707 -3.61407,0.278 -7.64515,0.69501 -7.64515,0.69501"
       id="path2158" />
    <path
       style="fill:none;stroke:#000000;stroke-width:1px;stroke-linecap:butt;stroke-linejoin:miter;stroke-opacity:1"
       d="m 550.58984,381.2845 c 0,0 11.81523,0.41701 18.90437,0.13901 7.08914,-0.27801 10.70321,-0.13901 14.45628,1.11202 3.75308,1.25102 19.8774,6.67213 22.79645,10.56421"
       id="path2160" />
    <path
       style="fill:none;stroke:#000000;stroke-width:1px;stroke-linecap:butt;stroke-linejoin:miter;stroke-opacity:1"
       d="m 537.52358,312.75616 c 0,0 -11.81523,-3.47507 -20.2944,1.94603 -8.47917,5.42111 -12.37124,7.36715 -15.1513,15.29031 -2.78005,7.92315 -5.0041,14.87329 -1.94604,22.51844 3.05806,7.64515 7.92316,11.81523 12.78826,15.1513 4.86509,3.33606 14.73429,6.53313 20.98941,5.56011 6.25512,-0.97302 17.79235,-5.42111 21.12841,-12.23224 3.33607,-6.81114 7.08914,-14.17828 6.11613,-20.1554 -0.97302,-5.97712 -6.11613,-16.95834 -10.0082,-20.0164 -3.89208,-3.05806 -10.70321,-7.22814 -13.62227,-8.06215 z"
       id="path2162" />
    <path
       style="fill:none;stroke:#000000;stroke-width:1px;stroke-linecap:butt;stroke-linejoin:miter;stroke-opacity:1"
       d="m 520.8621,296.24539 c 0,0 -20.37055,0.19658 -23.12267,1.76921 -2.75211,1.57264 -15.3332,13.36741 -16.90584,16.90585 -1.57264,3.53843 -39.90565,15.3332 -41.77316,16.90584 -1.8675,1.57263 0.9829,2.94869 0.29487,3.24356 -0.68802,0.29487 -27.02968,12.38451 -31.6493,14.05544 -4.61962,1.67093 -71.59738,27.01611 -76.87949,28.68415 -5.2821,1.66803 -125.38047,48.65095 -133.44262,51.43101 -8.06216,2.78005 -89.51777,35.30669 -97.02391,38.08675 -7.506152,2.78005 -35.584705,15.01229 -37.530743,15.84631 -1.946039,0.83402 -0.625513,3.26656 0.625512,3.96158 1.251025,0.69501 21.545424,-0.139 31.345117,-2.64105 9.799694,-2.50205 63.663254,-11.05072 81.316604,-16.05482 17.65334,-5.0041 109.25615,-22.51844 119.54235,-25.5765 10.2862,-3.05806 112.87022,-29.05157 123.15642,-33.08265 10.28621,-4.03108 72.55943,-22.10144 82.42863,-26.27152"
       id="path2164"
       sodipodi:nodetypes="cssssssssssssssc" />
    <path
       style="fill:none;stroke:#000000;stroke-width:1px;stroke-linecap:butt;stroke-linejoin:miter;stroke-opacity:1"
       d="m 487.91045,318.65546 c 0,0 -41.87144,14.35031 -43.44408,15.52978 -1.57263,1.17948 -2.22917,1.36736 -2.78518,2.61839 -0.55601,1.25102 -17.16683,8.61817 -20.08589,9.79969 -2.91906,1.18153 -49.20697,18.83487 -54.21107,20.78091 -5.0041,1.94604 -47.67794,18.34836 -52.40403,20.0164 -4.72609,1.66803 -50.04099,18.62636 -56.85212,21.40642 -6.81113,2.78005 -82.98463,32.24863 -89.37876,34.61168 -6.39412,2.36304 -63.66325,26.82753 -68.52835,28.21755 -4.865093,1.39003 -30.858605,11.53723 -32.804643,12.37125 -1.946038,0.83401 -4.170082,1.66803 -5.143101,1.25102"
       id="path2166" />
    <path
       style="fill:none;stroke:#000000;stroke-width:1px;stroke-linecap:butt;stroke-linejoin:miter;stroke-opacity:1"
       d="m 497.67123,298.10473 c 0,0 -37.29417,-10.09106 -47.85838,-12.0371 C 439.24865,284.12159 338.88867,259.1011 324.71039,256.59905 310.53211,254.097 217.12227,237.97268 200.44195,234.63662 183.76162,231.30055 79.78757,216.56626 70.335384,216.01025 c -9.452186,-0.55601 -15.846312,-0.55601 -17.79235,0.27801 -1.946038,0.83401 -1.039191,3.19281 0.336866,3.58597 1.376057,0.39316 55.92688,21.03401 61.82427,22.60665 5.89739,1.57264 71.65325,23.68784 79.22156,26.83311 7.56831,3.14527 113.81956,37.05525 119.32379,38.52959 5.50423,1.47435 105.26835,34.20484 108.31533,35.18774"
       id="path2168"
       sodipodi:nodetypes="csssssssssc" />
    <path
       style="fill:none;stroke:#000000;stroke-width:1px;stroke-linecap:butt;stroke-linejoin:miter;stroke-opacity:1"
       d="m 549.33881,306.91804 c 0,0 29.74659,-14.45628 36.97473,-15.01229 7.22814,-0.55602 24.74249,-16.12432 30.85861,-22.51845 6.11612,-6.39412 42.25683,-53.37705 50.875,-64.77527 8.61817,-11.39823 70.89139,-75.33949 86.73771,-87.29372 15.84631,-11.95424 55.04508,-35.862707 78.39754,-39.198772 23.35246,-3.336066 30.02459,-2.780055 31.69262,-2.780055"
       id="path2170" />
    <path
       style="fill:none;stroke:#000000;stroke-width:1px;stroke-linecap:butt;stroke-linejoin:miter;stroke-opacity:1"
       d="m 564.35111,362.51914 c 0,0 38.08675,-12.78826 48.92896,-22.24044 10.84221,-9.45219 31.69262,-31.13662 36.14071,-36.14071 4.44809,-5.0041 27.52254,-30.3026 40.86681,-36.69673 13.34426,-6.39412 41.97882,-22.51844 60.04918,-25.5765 18.07035,-3.05806 105.36407,-17.93136 122.60041,-28.07855 16.35073,-9.62583 32.24864,-20.85041 35.5847,-27.80055"
       id="path2172"
       sodipodi:nodetypes="csssssc" />
    <path
       style="fill:none;stroke:#000000;stroke-width:1px;stroke-linecap:butt;stroke-linejoin:miter;stroke-opacity:1"
       d="m 607.03766,402.59493 c 0,0 11.00846,-0.39316 17.299,7.07686 6.29055,7.47002 21.62376,27.9143 31.45273,40.88855 9.82898,12.97425 38.5296,47.17909 50.32437,58.18755 11.79477,11.00845 48.35857,42.85434 57.79439,47.96541 9.43582,5.11107 39.31591,20.05111 50.32436,22.80323 11.00846,2.75211 38.13644,11.00845 49.53805,9.82897 11.40162,-1.17947 32.63221,-5.89738 38.13644,-11.00845 5.50422,-5.11107 24.76902,-20.83743 27.52113,-44.03382 2.75212,-23.19639 -0.78632,-33.02537 -6.29054,-42.46119 -5.50423,-9.43581 -27.9143,-35.38431 -46.78594,-42.85434 -18.87163,-7.47002 -73.52075,-17.69216 -86.495,-18.08532 -12.97425,-0.39316 -58.97387,-9.43582 -73.1276,-16.90584 -14.15372,-7.47002 -43.2475,-29.88009 -44.03382,-29.88009"
       id="path2174" />
    <path
       style="fill:none;stroke:#000000;stroke-width:1px;stroke-linecap:butt;stroke-linejoin:miter;stroke-opacity:1"
       d="m 886.18063,81.777095 c 0,0 20.44427,8.256341 27.9143,23.589545 7.47002,15.33321 12.58109,28.70062 9.04266,43.2475 -3.53844,14.54689 -6.68371,20.83744 -7.07687,22.80323"
       id="path2176" />
    <path
       style="fill:none;stroke:#000000;stroke-width:1px;stroke-linecap:butt;stroke-linejoin:miter;stroke-opacity:1"
       d="m 879.89009,89.640277 c 0,0 -16.90585,-10.222137 -37.35012,-4.71791 -20.44427,5.504228 -45.60646,15.333203 -58.58071,23.196383 -12.97425,7.86319 -43.2475,28.30746 -57.00807,42.46119 -13.76057,14.15373 -33.41852,42.06802 -35.38432,48.75173 -1.96579,6.6837 -3.14527,23.19639 -3.53843,24.76902"
       id="path2178" />
    <path
       style="fill:none;stroke:#000000;stroke-width:1px;stroke-linecap:butt;stroke-linejoin:miter;stroke-opacity:1"
       d="m 696.67794,231.57071 c 0,0 20.05111,6.29055 33.81168,3.9316 13.76057,-2.35896 30.27326,-4.71791 38.92276,-5.11107 8.6495,-0.39316 52.68332,-8.25634 62.51229,-11.00846 9.82898,-2.75211 55.43544,-20.83743 64.4781,-32.6322"
       id="path2180" />
    <path
       style="fill:none;stroke:#000000;stroke-width:1px;stroke-linecap:butt;stroke-linejoin:miter;stroke-opacity:1"
       d="m 694.31899,474.54304 c 0,0 -9.43582,-14.54688 -5.11107,-21.23059 4.32475,-6.6837 3.14527,-9.43582 12.97425,-11.79477 9.82898,-2.35896 24.37586,-4.32475 30.27325,-4.32475"
       id="path2182" />
  </g>
</svg>
