<?xml version="1.0" encoding="UTF-8" standalone="no"?>
<svg
   xmlns:dc="http://purl.org/dc/elements/1.1/"
   xmlns:cc="http://creativecommons.org/ns#"
   xmlns:rdf="http://www.w3.org/1999/02/22-rdf-syntax-ns#"
   xmlns:svg="http://www.w3.org/2000/svg"
   xmlns="http://www.w3.org/2000/svg"
   xmlns:sodipodi="http://sodipodi.sourceforge.net/DTD/sodipodi-0.dtd"
   xmlns:inkscape="http://www.inkscape.org/namespaces/inkscape"
   version="1.1"
   id="svg978"
   width="571.51312"
   height="571.38147"
   viewBox="0 0 571.51312 571.38147"
   sodipodi:docname="exp_axe.svg"
   inkscape:version="1.0.2 (e86c870879, 2021-01-15, custom)">
  <metadata
     id="metadata984">
    <rdf:RDF>
      <cc:Work
         rdf:about="">
        <dc:format>image/svg+xml</dc:format>
        <dc:type
           rdf:resource="http://purl.org/dc/dcmitype/StillImage" />
        <dc:title></dc:title>
      </cc:Work>
    </rdf:RDF>
  </metadata>
  <defs
     id="defs982" />
  <sodipodi:namedview
     pagecolor="#ffffff"
     bordercolor="#666666"
     borderopacity="1"
     objecttolerance="10"
     gridtolerance="10"
     guidetolerance="10"
     inkscape:pageopacity="0"
     inkscape:pageshadow="2"
     inkscape:window-width="1849"
     inkscape:window-height="1057"
     id="namedview980"
     showgrid="false"
     inkscape:zoom="1.0488751"
     inkscape:cx="203.03468"
     inkscape:cy="173.72894"
     inkscape:window-x="63"
     inkscape:window-y="-8"
     inkscape:window-maximized="1"
     inkscape:current-layer="layer2"
     fit-margin-top="0"
     fit-margin-left="0"
     fit-margin-right="0"
     fit-margin-bottom="0" />
  <g
     inkscape:groupmode="layer"
     id="layer2"
     inkscape:label="vector"
     transform="translate(-18.088501,-14.039387)">
    <path
       style="fill:none;stroke:#000000;stroke-width:1px;stroke-linecap:butt;stroke-linejoin:miter;stroke-opacity:1"
       d="m 371.23106,58.515072 c 0,0 25.26516,-36.705992 28.12537,-39.566199 2.86021,-2.860207 2.86021,-4.409486 4.64784,-4.409486 1.78763,0 30.3897,20.617327 34.91836,24.192586 4.52866,3.575259 27.41032,20.259801 34.79919,24.07341 7.38887,3.81361 37.42104,21.332379 47.67012,25.145989 10.24907,3.813609 27.17197,13.109278 40.87713,18.352998 13.70516,5.24371 23.47753,9.89155 25.50351,10.1299 2.02598,0.23835 1.4301,1.78763 0.23835,4.52866 -1.19175,2.74103 -13.34763,30.50888 -19.3064,38.1361 -5.95876,7.62722 -20.2598,25.02681 -27.64867,30.50887 -7.38887,5.48207 -20.61732,13.58599 -31.10475,18.23382 -10.48743,4.64784 -19.90227,7.98475 -21.80908,8.58063 -1.9068,0.59587 -4.17114,0.35752 -4.05196,-1.66846 0.11918,-2.02598 -2.97938,-16.92289 -7.74639,-25.62269 -4.76702,-8.6998 -19.90228,-35.87176 -23.23919,-41.11548 -3.33691,-5.24371 -17.75712,-25.50351 -22.04743,-30.15135 -4.29031,-4.64783 -18.11464,-18.47217 -23.95423,-24.311759 -5.83959,-5.83959 -23.12001,-19.902275 -26.21857,-21.80908 -3.09856,-1.906805 -9.53402,-6.912168 -10.36825,-7.508044 -0.83423,-0.595877 -1.25134,-1.78763 -0.59588,-3.098558 0.65547,-1.310928 0.9534,-2.085568 1.31093,-2.621857 z"
       id="path1552" />
    <path
       style="fill:none;stroke:#000000;stroke-width:1px;stroke-linecap:butt;stroke-linejoin:miter;stroke-opacity:1"
       d="m 479.49438,196.34831 c 0,0 24.77528,-10.61797 30.67416,-14.49438 5.89888,-3.8764 22.92135,-18.8764 29.32584,-25.44944 6.4045,-6.57303 15.8427,-24.77528 19.55056,-31.68539 3.70787,-6.91011 7.41573,-13.98876 8.08989,-16.34831"
       id="path1554" />
    <path
       style="fill:none;stroke:#000000;stroke-width:1px;stroke-linecap:butt;stroke-linejoin:miter;stroke-opacity:1"
       d="m 422.11891,26.099391 c 0,0 5.24372,-6.256703 6.07794,-7.031343 0.83423,-0.774639 1.43011,-2.085568 2.56227,-1.489691 1.13217,0.595876 11.14289,6.971755 13.64558,9.057323 2.50268,2.085567 19.30639,15.492789 22.22619,18.293408 2.91979,2.80062 11.85794,9.951138 13.22846,11.560004 1.37051,1.608867 1.96639,2.204743 1.78763,3.217734 -0.17877,1.01299 -2.20475,4.588249 -2.97939,5.482063"
       id="path1556" />
    <path
       style="fill:none;stroke:#000000;stroke-width:1px;stroke-linecap:butt;stroke-linejoin:miter;stroke-opacity:1"
       d="m 384.63828,74.395181 c 0,0 -38.31486,48.474549 -40.46001,52.168989 -2.14516,3.69443 -7.15052,11.67918 -10.6066,18.47217 -3.45609,6.79299 -20.97486,45.40579 -24.19259,51.36455 -3.21773,5.95877 -23.00083,44.69074 -26.81444,49.57693 -3.81361,4.88619 -23.23919,35.87177 -32.29651,46.12084 -9.05732,10.24908 -30.15135,34.79919 -35.63341,40.16208 -5.48207,5.36289 -37.42105,37.18269 -43.14146,42.66475 -5.72042,5.48207 -46.12084,44.33322 -53.74806,54.34394 -7.62722,10.01073 -27.887024,33.60744 -36.705996,45.52497 -8.818972,11.91753 -29.913,42.06888 -32.773207,46.95506 -2.860208,4.88619 -18.591347,25.86105 -22.285782,31.58146 -3.694434,5.72041 -7.508043,11.32165 -7.388868,15.73114 0.119175,4.40949 4.171135,7.38887 7.388868,9.29567 3.217734,1.90681 20.855678,6.79299 32.296507,6.55464 11.440829,-0.23835 23.239183,-2.97938 26.814442,-6.67381 3.575259,-3.69444 8.103921,-8.46145 7.984746,-14.77774 -0.119176,-6.31629 1.430103,-22.28578 3.336908,-27.05279 1.906805,-4.76702 8.818972,-30.62806 27.291142,-54.10559 18.47217,-23.47753 50.29198,-61.49445 61.37528,-71.50518 11.0833,-10.01072 66.85734,-64.35466 69.36003,-66.97652 2.50268,-2.62186 41.51579,-43.48366 57.69556,-63.70838 16.17978,-20.22472 57.64045,-71.79775 65.39326,-81.57303 7.75281,-9.77528 43.82022,-55.2809 46.17978,-59.32585 2.35955,-4.04494 8.93258,-11.29213 11.79775,-16.68539"
       id="path1558" />
    <path
       style="fill:none;stroke:#000000;stroke-width:1px;stroke-linecap:butt;stroke-linejoin:miter;stroke-opacity:1"
       d="m 25.980215,572.27979 c 0,0 10.487427,7.62722 20.736503,7.86557 10.249076,0.23835 24.550112,1.66846 31.462279,-3.09856 6.912167,-4.76701 9.772375,-8.81897 10.010725,-13.82433 0.238351,-5.00536 0,-7.62722 1.191753,-14.30104 1.191753,-6.67381 4.05196,-15.96949 7.388869,-24.07341"
       id="path1560" />
    <path
       style="fill:none;stroke:#000000;stroke-width:1px;stroke-linecap:butt;stroke-linejoin:miter;stroke-opacity:1"
       d="m 403.39888,17.022472 c 0,0 -8.67978,10.955056 -12.2191,16.516854 -3.53933,5.561798 -17.19102,22.921348 -19.29776,28.146067"
       id="path1562" />
    <path
       style="fill:none;stroke:#000000;stroke-width:1px;stroke-linecap:butt;stroke-linejoin:miter;stroke-opacity:1"
       d="m 429.77528,19.634831 c 0,0 21.48877,15.337079 25.44944,18.539326 3.96067,3.202248 19.38202,16.179776 22.92135,19.719102"
       id="path1564" />
    <path
       style="fill:none;stroke:#000000;stroke-width:1px;stroke-linecap:butt;stroke-linejoin:miter;stroke-opacity:1"
       d="m 409.37695,99.585646 c 0,0 -20.82395,-20.711477 -23.44968,-20.966207 -5.64607,-0.54775 -25.58123,33.218771 -31.64865,37.432251"
       id="path1570"
       sodipodi:nodetypes="csc" />
  </g>
</svg>
