<?xml version="1.0" encoding="UTF-8" standalone="no"?>
<svg
   xmlns:dc="http://purl.org/dc/elements/1.1/"
   xmlns:cc="http://creativecommons.org/ns#"
   xmlns:rdf="http://www.w3.org/1999/02/22-rdf-syntax-ns#"
   xmlns:svg="http://www.w3.org/2000/svg"
   xmlns="http://www.w3.org/2000/svg"
   xmlns:sodipodi="http://sodipodi.sourceforge.net/DTD/sodipodi-0.dtd"
   xmlns:inkscape="http://www.inkscape.org/namespaces/inkscape"
   version="1.1"
   id="svg833"
   width="592.40253"
   height="683.84747"
   viewBox="0 0 592.40253 683.84747"
   sodipodi:docname="exp_horseshoe.svg"
   inkscape:version="1.0.2 (e86c870879, 2021-01-15, custom)">
  <metadata
     id="metadata839">
    <rdf:RDF>
      <cc:Work
         rdf:about="">
        <dc:format>image/svg+xml</dc:format>
        <dc:type
           rdf:resource="http://purl.org/dc/dcmitype/StillImage" />
        <dc:title></dc:title>
      </cc:Work>
    </rdf:RDF>
  </metadata>
  <defs
     id="defs837" />
  <sodipodi:namedview
     pagecolor="#ffffff"
     bordercolor="#666666"
     borderopacity="1"
     objecttolerance="10"
     gridtolerance="10"
     guidetolerance="10"
     inkscape:pageopacity="0"
     inkscape:pageshadow="2"
     inkscape:window-width="1849"
     inkscape:window-height="1057"
     id="namedview835"
     showgrid="false"
     fit-margin-top="0"
     fit-margin-left="0"
     fit-margin-right="0"
     fit-margin-bottom="0"
     inkscape:zoom="0.60145508"
     inkscape:cx="-57.427401"
     inkscape:cy="188.57419"
     inkscape:window-x="63"
     inkscape:window-y="-8"
     inkscape:window-maximized="1"
     inkscape:current-layer="layer1" />
  <g
     inkscape:groupmode="layer"
     id="layer1"
     inkscape:label="vector"
     transform="translate(-215.19338,-169.54826)">
    <path
       style="fill:none;stroke:#000000;stroke-width:1px;stroke-linecap:butt;stroke-linejoin:miter;stroke-opacity:1"
       d="m 216.14249,184.96809 c 0,0 -1.24698,-12.0541 0.41566,-13.71673 1.66263,-1.66264 100.17373,-1.24698 103.91466,-0.83132 3.74093,0.41566 2.07829,7.0662 2.07829,10.39147 0,3.32527 0.83132,314.23793 1.24698,326.70768 0.41566,12.46976 0,71.90895 2.49395,81.88476 2.49395,9.9758 17.042,66.50538 41.1502,89.78226 24.10821,23.27689 57.77655,50.71036 87.28832,57.77655 29.51176,7.0662 66.39245,13.53108 102.66768,4.15658 36.99362,-9.56015 72.3246,-32.00571 85.21002,-45.72244 12.88542,-13.71674 40.48772,-48.16839 47.38509,-72.74026 6.65054,-23.69255 12.0541,-90.19793 12.0541,-119.29403 0,-29.09611 -0.7274,-317.87495 -0.83132,-320.05715 -0.0625,-1.31294 -0.0818,-10.04254 -0.008,-11.36516 0.0735,-1.32262 104.63375,-2.05741 105.00115,-0.14696 0.36739,1.91045 0.80826,6.83353 0.88174,18.22273 0.0735,11.38921 -0.71295,339.53303 -0.71295,357.82201 0,18.28898 -3.40186,82.02185 -18.09761,114.64642 -14.69575,32.62457 -56.43169,98.75545 -84.0597,120.79908 -27.62802,22.04363 -101.40069,60.5465 -128.73479,64.3674 -27.3341,3.82089 -89.64409,9.69919 -121.97474,-0.29392 -32.33066,-9.99311 -76.50853,-24.76862 -93.96619,-35.57574 -17.45766,-10.80713 -63.18011,-49.46338 -70.24631,-58.60787 -7.0662,-9.14449 -42.39718,-58.19221 -49.46338,-80.63778 -7.06619,-22.44556 -19.95161,-57.77655 -20.36727,-80.63777 -0.41566,-22.86123 -2.49395,-142.98657 -2.49395,-146.7275 0,-3.74093 -1.24698,-255.63006 -0.83132,-260.20231 z"
       id="path846"
       sodipodi:nodetypes="csssssssssssscsssssssssssscc" />
    <path
       style="fill:none;stroke:#000000;stroke-width:1px;stroke-linecap:butt;stroke-linejoin:miter;stroke-opacity:1"
       d="m 216.97381,463.04372 c 0,0 17.55476,-2.78052 43.6398,-3.32583 22.94062,-0.47957 54.12691,1.14634 62.97664,2.70234"
       id="path848"
       sodipodi:nodetypes="csc" />
    <path
       style="fill:none;stroke:#000000;stroke-width:1px;stroke-linecap:butt;stroke-linejoin:miter;stroke-opacity:1"
       d="m 218.84427,559.47652 c 0,0 47.59292,-3.32526 52.58082,-3.11743 4.9879,0.20783 44.89113,2.07829 52.78865,3.11743"
       id="path850"
       sodipodi:nodetypes="csc" />
    <path
       style="fill:none;stroke:#000000;stroke-width:1px;stroke-linecap:butt;stroke-linejoin:miter;stroke-opacity:1"
       d="m 251.47348,696.22822 c 0,0 33.04486,-34.08401 35.53881,-36.78579 2.49395,-2.70178 41.98152,-43.2285 46.13811,-45.09897"
       id="path852" />
    <path
       style="fill:none;stroke:#000000;stroke-width:1px;stroke-linecap:butt;stroke-linejoin:miter;stroke-opacity:1"
       d="m 329.20164,788.92009 c 0,0 33.87618,-38.03276 36.78579,-42.39718 2.90961,-4.36441 31.1744,-43.64416 30.55091,-41.98152"
       id="path854" />
    <path
       style="fill:none;stroke:#000000;stroke-width:1px;stroke-linecap:butt;stroke-linejoin:miter;stroke-opacity:1"
       d="m 450.57396,846.07315 c 0,0 19.32813,-53.82779 20.5751,-58.1922 1.24698,-4.36442 14.96372,-49.67121 13.71674,-45.3068"
       id="path856" />
    <path
       style="fill:none;stroke:#000000;stroke-width:1px;stroke-linecap:butt;stroke-linejoin:miter;stroke-opacity:1"
       d="m 539.52491,744.44462 c 0,0 16.83418,48.83989 19.1203,55.69826 2.28612,6.85836 15.37937,43.64415 15.5872,47.17725"
       id="path858" />
    <path
       style="fill:none;stroke:#000000;stroke-width:1px;stroke-linecap:butt;stroke-linejoin:miter;stroke-opacity:1"
       d="m 695.60473,789.12792 c -2.07829,-2.90961 -25.97867,-35.53881 -34.29184,-44.26764 -7.83614,-8.22794 -26.18649,-34.91533 -31.59006,-38.86409"
       id="path860"
       sodipodi:nodetypes="csc" />
    <path
       style="fill:none;stroke:#000000;stroke-width:1px;stroke-linecap:butt;stroke-linejoin:miter;stroke-opacity:1"
       d="m 691.65597,614.96695 c 0,0 31.59006,28.26479 35.95447,32.83704 4.36442,4.57224 43.2285,40.73454 44.26765,45.72245"
       id="path862" />
    <path
       style="fill:none;stroke:#000000;stroke-width:1px;stroke-linecap:butt;stroke-linejoin:miter;stroke-opacity:1"
       d="m 699.13783,558.43738 c 0,0 40.73454,-3.32527 49.6712,-2.70178 8.93666,0.62349 51.33385,-1.03915 57.15307,2.70178"
       id="path864" />
    <path
       style="fill:none;stroke:#000000;stroke-width:1px;stroke-linecap:butt;stroke-linejoin:miter;stroke-opacity:1"
       d="m 702.67093,463.25155 c 0,0 46.34593,-3.94876 49.87903,-3.74093 3.5331,0.20783 51.7495,3.32527 53.82779,4.15659"
       id="path866" />
    <path
       style="fill:none;stroke:#000000;stroke-width:1px;stroke-linecap:butt;stroke-linejoin:miter;stroke-opacity:1"
       d="m 225.70264,170.21221 c 0,0 1.03915,58.19221 0.41566,62.3488 -0.62349,4.15658 0.20783,32.83703 0.20783,38.03276"
       id="path868" />
    <path
       style="fill:none;stroke:#000000;stroke-width:1px;stroke-linecap:butt;stroke-linejoin:miter;stroke-opacity:1"
       d="m 234.6393,170.42004 c 0,0 0.41566,115.34527 -0.20783,121.58015 -0.62349,6.23488 0,43.85199 0.41566,50.91819 0.41566,7.06619 0.41566,105.78512 0,107.86341"
       id="path870" />
    <path
       style="fill:none;stroke:#000000;stroke-width:1px;stroke-linecap:butt;stroke-linejoin:miter;stroke-opacity:1"
       d="m 243.1603,169.79655 c 0,0 0.20783,62.97229 0.20783,66.50538 0,3.5331 0,62.14097 0.41566,67.3367"
       id="path872" />
    <path
       style="fill:none;stroke:#000000;stroke-width:1px;stroke-linecap:butt;stroke-linejoin:miter;stroke-opacity:1"
       d="m 252.30479,170.21221 c 0,0 0.83132,164.80865 0.62349,171.87485 -0.20783,7.06619 0.20783,104.74597 -0.41566,109.31822"
       id="path874" />
    <path
       style="fill:none;stroke:#000000;stroke-width:1px;stroke-linecap:butt;stroke-linejoin:miter;stroke-opacity:1"
       d="m 261.03362,170.00438 c 0,0 0.41566,56.32175 0.41566,62.97229 0,6.65053 -0.41566,90.82141 -0.20783,101.00504"
       id="path876" />
    <path
       style="fill:none;stroke:#000000;stroke-width:1px;stroke-linecap:butt;stroke-linejoin:miter;stroke-opacity:1"
       d="m 270.38594,169.79655 c 0,0 0.62349,172.29051 0.41566,177.9019 -0.20783,5.61139 -0.20783,99.55024 -0.20783,102.66768"
       id="path878" />
    <path
       style="fill:none;stroke:#000000;stroke-width:1px;stroke-linecap:butt;stroke-linejoin:miter;stroke-opacity:1"
       d="m 278.90695,170.00438 c 0,0 1.03914,76.06553 0.41565,82.30041 -0.62348,6.23488 -0.41565,111.81218 -0.41565,118.67054"
       id="path880" />
    <path
       style="fill:none;stroke:#000000;stroke-width:1px;stroke-linecap:butt;stroke-linejoin:miter;stroke-opacity:1"
       d="m 287.84361,169.79655 c 0,0 -0.41566,141.11611 -0.62349,149.42928 -0.20783,8.31318 0.62349,126.77589 0.83132,131.76379"
       id="path882" />
    <path
       style="fill:none;stroke:#000000;stroke-width:1px;stroke-linecap:butt;stroke-linejoin:miter;stroke-opacity:1"
       d="m 296.78027,170.00438 c 0,0 0.83131,115.13744 0.20783,122.20364 -0.62349,7.0662 0.20783,105.78512 -0.20783,109.73388"
       id="path884" />
    <path
       style="fill:none;stroke:#000000;stroke-width:1px;stroke-linecap:butt;stroke-linejoin:miter;stroke-opacity:1"
       d="m 305.09344,170.00438 c 0,0 0.41566,175.61578 0.62349,184.55244 0.20783,8.93666 -0.20783,91.23707 0,95.60148"
       id="path886" />
    <path
       style="fill:none;stroke:#000000;stroke-width:1px;stroke-linecap:butt;stroke-linejoin:miter;stroke-opacity:1"
       d="m 314.0301,170.00438 c 0,0 0,129.06201 0,135.08906 0,6.02705 0.20783,131.97162 0.83132,135.50471"
       id="path888" />
    <path
       style="fill:none;stroke:#000000;stroke-width:1px;stroke-linecap:butt;stroke-linejoin:miter;stroke-opacity:1"
       d="m 710.56844,171.25136 c 0,0 -0.41566,47.17725 -0.20783,53.41213 0.20783,6.23488 0,44.68331 0.20783,48.2164"
       id="path890" />
    <path
       style="fill:none;stroke:#000000;stroke-width:1px;stroke-linecap:butt;stroke-linejoin:miter;stroke-opacity:1"
       d="m 719.5051,171.45919 c 0,0 0.41566,140.28479 0.41566,145.27269 0,4.9879 1.03915,127.39937 -0.41566,134.04991"
       id="path892" />
    <path
       style="fill:none;stroke:#000000;stroke-width:1px;stroke-linecap:butt;stroke-linejoin:miter;stroke-opacity:1"
       d="m 726.98696,171.04353 c 0,0 0.62348,63.38794 0.83131,66.92104 0.20783,3.5331 -0.20783,65.88189 -0.20783,69.83065"
       id="path894" />
    <path
       style="fill:none;stroke:#000000;stroke-width:1px;stroke-linecap:butt;stroke-linejoin:miter;stroke-opacity:1"
       d="m 736.96276,170.21221 c 0,0 1.24698,160.23641 0.83132,168.54958 -0.41566,8.31317 -1.03915,107.65559 -1.24698,111.39651"
       id="path896" />
    <path
       style="fill:none;stroke:#000000;stroke-width:1px;stroke-linecap:butt;stroke-linejoin:miter;stroke-opacity:1"
       d="m 745.27594,170.62787 c 0,0 0.20782,78.35165 0.41565,85.00219 0.20783,6.65054 -0.20783,78.76731 0,83.13173"
       id="path898" />
    <path
       style="fill:none;stroke:#000000;stroke-width:1px;stroke-linecap:butt;stroke-linejoin:miter;stroke-opacity:1"
       d="m 754.2126,170.62787 c 0,0 -0.20783,131.55596 0.41565,144.44138 0.62349,12.88541 -1.03914,131.34813 -0.41565,135.29688"
       id="path900" />
    <path
       style="fill:none;stroke:#000000;stroke-width:1px;stroke-linecap:butt;stroke-linejoin:miter;stroke-opacity:1"
       d="m 762.7336,170.42004 c 0,0 0.20783,91.86056 0.20783,98.71893 0,6.85836 -0.41566,86.04133 0,93.52319"
       id="path902" />
    <path
       style="fill:none;stroke:#000000;stroke-width:1px;stroke-linecap:butt;stroke-linejoin:miter;stroke-opacity:1"
       d="m 772.29375,170.8357 c 0,0 0.83131,166.47128 0.41566,171.87485 -0.41566,5.40356 0,104.53814 -0.41566,108.4869"
       id="path904" />
    <path
       style="fill:none;stroke:#000000;stroke-width:1px;stroke-linecap:butt;stroke-linejoin:miter;stroke-opacity:1"
       d="m 780.81475,170.8357 c 0,0 0.83132,82.9239 0.41566,90.61358 -0.41566,7.68969 -1.03915,135.08906 -0.83132,140.07696"
       id="path906" />
    <path
       style="fill:none;stroke:#000000;stroke-width:1px;stroke-linecap:butt;stroke-linejoin:miter;stroke-opacity:1"
       d="m 789.12792,171.04353 c 0,0 -0.20783,184.76026 -0.62349,190.99514 -0.41566,6.23488 1.03915,85.21002 1.03915,87.70397"
       id="path908" />
    <path
       style="fill:none;stroke:#000000;stroke-width:1px;stroke-linecap:butt;stroke-linejoin:miter;stroke-opacity:1"
       d="m 798.48024,171.45919 c 0,0 -0.83132,162.52252 -0.20783,167.71826 0.62349,5.19573 -0.20783,80.01428 -0.20783,83.13172"
       id="path910" />
    <path
       style="fill:none;stroke:#000000;stroke-width:1px;stroke-linecap:butt;stroke-linejoin:miter;stroke-opacity:1"
       d="m 709.21699,462.62227 c 0,0 1.46958,35.26981 1.46958,40.56028 0,5.29047 -1.46958,29.3915 -1.76349,32.03674"
       id="path912" />
    <path
       style="fill:none;stroke:#000000;stroke-width:1px;stroke-linecap:butt;stroke-linejoin:miter;stroke-opacity:1"
       d="m 714.80138,462.91619 c 0,0 0.88174,31.15499 1.17566,34.09414 0.29391,2.93915 0,18.81057 -0.29392,21.4558"
       id="path914" />
    <path
       style="fill:none;stroke:#000000;stroke-width:1px;stroke-linecap:butt;stroke-linejoin:miter;stroke-opacity:1"
       d="m 721.26751,462.32836 c 0,0 1.05391,17.67056 0.76,20.02188 -0.29392,2.35132 -0.43043,13.64184 -0.72434,17.16882"
       id="path916"
       sodipodi:nodetypes="csc" />
    <path
       style="fill:none;stroke:#000000;stroke-width:1px;stroke-linecap:butt;stroke-linejoin:miter;stroke-opacity:1"
       d="m 726.26407,462.32836 c 0,0 1.38349,8.88265 1.38349,10.64614 0,1.76349 0.0861,7.57659 -1.08958,10.51574"
       id="path918"
       sodipodi:nodetypes="csc" />
    <path
       style="fill:none;stroke:#000000;stroke-width:1px;stroke-linecap:butt;stroke-linejoin:miter;stroke-opacity:1"
       d="m 708.9058,557.81389 c 0,0 1.45481,18.49681 -0.83131,29.0961 -2.28613,10.5993 -5.81922,21.40642 -6.85837,24.10821"
       id="path920" />
    <path
       style="fill:none;stroke:#000000;stroke-width:1px;stroke-linecap:butt;stroke-linejoin:miter;stroke-opacity:1"
       d="m 715.55634,557.60606 c 0,0 0.62349,16.00286 -0.20783,20.78293 -0.83131,4.78008 -2.90961,17.45767 -4.15658,20.57511"
       id="path922"
       sodipodi:nodetypes="csc" />
    <path
       style="fill:none;stroke:#000000;stroke-width:1px;stroke-linecap:butt;stroke-linejoin:miter;stroke-opacity:1"
       d="m 720.33642,557.39823 c 0,0 0.83131,13.92457 0.41566,18.28898 -0.41566,4.36442 -1.66264,11.84627 -2.28613,13.09325"
       id="path924" />
    <path
       style="fill:none;stroke:#000000;stroke-width:1px;stroke-linecap:butt;stroke-linejoin:miter;stroke-opacity:1"
       d="m 726.15564,556.77474 c 0,0 0.83132,4.15659 0.83132,6.44271 0,2.28613 -0.83132,6.85837 -1.03915,8.10535"
       id="path926" />
    <path
       style="fill:none;stroke:#000000;stroke-width:1px;stroke-linecap:butt;stroke-linejoin:miter;stroke-opacity:1"
       d="m 699.55349,622.44881 c 0,0 -13.30108,33.46052 -16.62635,38.65625 -3.32527,5.19573 -26.39432,37.20145 -34.08401,42.39718"
       id="path928" />
    <path
       style="fill:none;stroke:#000000;stroke-width:1px;stroke-linecap:butt;stroke-linejoin:miter;stroke-opacity:1"
       d="m 704.12573,625.98191 c 0,0 -7.89751,23.06905 -11.43061,28.26478 -3.5331,5.19574 -18.08115,30.55091 -21.40642,33.04487"
       id="path930" />
    <path
       style="fill:none;stroke:#000000;stroke-width:1px;stroke-linecap:butt;stroke-linejoin:miter;stroke-opacity:1"
       d="m 708.9058,630.34632 c 0,0 -7.27402,18.49681 -9.9758,23.48472 -2.70178,4.9879 -9.76798,19.32812 -12.0541,21.40642"
       id="path932" />
    <path
       style="fill:none;stroke:#000000;stroke-width:1px;stroke-linecap:butt;stroke-linejoin:miter;stroke-opacity:1"
       d="m 713.27022,634.50291 c 0,0 -2.49395,8.521 -3.94876,11.01495 -1.4548,2.49395 -3.32527,6.23488 -4.78007,8.31318"
       id="path934" />
    <path
       style="fill:none;stroke:#000000;stroke-width:1px;stroke-linecap:butt;stroke-linejoin:miter;stroke-opacity:1"
       d="m 635.54206,712.4389 c 0,0 -22.23774,15.79503 -28.47262,19.1203 -6.23488,3.32527 -30.75874,14.75588 -36.99362,15.37937"
       id="path936" />
    <path
       style="fill:none;stroke:#000000;stroke-width:1px;stroke-linecap:butt;stroke-linejoin:miter;stroke-opacity:1"
       d="m 639.69864,717.42681 c 0,0 -18.91247,13.30107 -23.27688,16.00285 -4.36442,2.70179 -19.53596,11.63845 -29.09611,14.1324"
       id="path938" />
    <path
       style="fill:none;stroke:#000000;stroke-width:1px;stroke-linecap:butt;stroke-linejoin:miter;stroke-opacity:1"
       d="m 643.6474,721.99905 c 0,0 -13.09325,9.97581 -18.49681,13.09325 -5.40356,3.11744 -14.13239,8.31317 -17.24983,9.14449"
       id="path940" />
    <path
       style="fill:none;stroke:#000000;stroke-width:1px;stroke-linecap:butt;stroke-linejoin:miter;stroke-opacity:1"
       d="m 646.14135,726.15564 c 0,0 -5.81922,5.19573 -8.10534,7.06619 -2.28613,1.87047 -6.65054,3.94876 -9.76798,5.6114"
       id="path942" />
    <path
       style="fill:none;stroke:#000000;stroke-width:1px;stroke-linecap:butt;stroke-linejoin:miter;stroke-opacity:1"
       d="m 492.34766,743.82113 c 0,0 -12.46976,39.90323 -16.00286,48.42423 -3.5331,8.521 -9.56015,30.75874 -10.39147,36.78579"
       id="path944" />
    <path
       style="fill:none;stroke:#000000;stroke-width:1px;stroke-linecap:butt;stroke-linejoin:miter;stroke-opacity:1"
       d="m 480.70921,754.42043 c 0,0 -32.42137,-8.72884 -39.48757,-12.05411 -7.06619,-3.32526 -30.75874,-14.13239 -34.08401,-18.4968"
       id="path946" />
    <path
       style="fill:none;stroke:#000000;stroke-width:1px;stroke-linecap:butt;stroke-linejoin:miter;stroke-opacity:1"
       d="m 479.46224,760.23965 c 0,0 -23.90037,-4.98791 -29.51177,-7.68969 -5.61139,-2.70178 -28.68044,-10.80712 -33.46052,-15.17154"
       id="path948" />
    <path
       style="fill:none;stroke:#000000;stroke-width:1px;stroke-linecap:butt;stroke-linejoin:miter;stroke-opacity:1"
       d="m 477.59177,765.85104 c 0,0 -17.66549,-3.11744 -23.69254,-5.61139 -6.02705,-2.49396 -16.83417,-6.44271 -19.53595,-8.52101"
       id="path950" />
    <path
       style="fill:none;stroke:#000000;stroke-width:1px;stroke-linecap:butt;stroke-linejoin:miter;stroke-opacity:1"
       d="m 475.92914,771.04677 c 0,0 -8.521,-0.83132 -10.80713,-1.66263 -2.28612,-0.83132 -7.06619,-2.49396 -8.521,-3.94876"
       id="path952" />
    <path
       style="fill:none;stroke:#000000;stroke-width:1px;stroke-linecap:butt;stroke-linejoin:miter;stroke-opacity:1"
       d="m 389.67997,712.85456 c 0,0 -25.14735,-23.06905 -28.26479,-26.80998 -3.11744,-3.74093 -29.30393,-39.27974 -30.34308,-49.25555"
       id="path954" />
    <path
       style="fill:none;stroke:#000000;stroke-width:1px;stroke-linecap:butt;stroke-linejoin:miter;stroke-opacity:1"
       d="m 386.3547,718.05029 c 0,0 -17.24983,-15.79502 -24.1082,-22.23773 -6.85837,-6.44271 -23.90037,-29.51177 -26.18649,-35.53882"
       id="path956" />
    <path
       style="fill:none;stroke:#000000;stroke-width:1px;stroke-linecap:butt;stroke-linejoin:miter;stroke-opacity:1"
       d="m 383.23726,722.20688 c 0,0 -11.84627,-9.14449 -18.70464,-16.21069 -6.85836,-7.06619 -15.79502,-18.08115 -18.28898,-22.0299"
       id="path958" />
    <path
       style="fill:none;stroke:#000000;stroke-width:1px;stroke-linecap:butt;stroke-linejoin:miter;stroke-opacity:1"
       d="m 379.70416,727.19478 c 0,0 -6.4427,-4.78007 -10.18363,-8.10534 -3.74093,-3.32527 -8.10535,-7.48185 -8.72883,-8.93666"
       id="path960" />
    <path
       style="fill:none;stroke:#000000;stroke-width:1px;stroke-linecap:butt;stroke-linejoin:miter;stroke-opacity:1"
       d="m 326.49986,620.37052 c 0,0 -5.61139,-16.41852 -7.27403,-22.44557 -1.66263,-6.02705 -3.5331,-25.56301 -2.07829,-28.05696"
       id="path962" />
    <path
       style="fill:none;stroke:#000000;stroke-width:1px;stroke-linecap:butt;stroke-linejoin:miter;stroke-opacity:1"
       d="m 321.92761,624.31927 c 0,0 -5.19573,-13.92456 -5.81922,-18.08115 -0.62348,-4.15658 -4.36441,-17.45766 -3.74092,-19.95161"
       id="path964" />
    <path
       style="fill:none;stroke:#000000;stroke-width:1px;stroke-linecap:butt;stroke-linejoin:miter;stroke-opacity:1"
       d="m 317.97886,628.89152 c 0,0 -4.98791,-13.50891 -6.23488,-16.83418 -1.24698,-3.32527 -2.70178,-13.30107 -2.70178,-14.34022"
       id="path966" />
    <path
       style="fill:none;stroke:#000000;stroke-width:1px;stroke-linecap:butt;stroke-linejoin:miter;stroke-opacity:1"
       d="m 313.61444,632.63244 c 0,0 -2.70178,-3.74093 -4.15659,-8.10534 -0.86443,-2.59329 -1.66263,-6.44271 -1.87046,-7.27402"
       id="path968"
       sodipodi:nodetypes="csc" />
    <path
       style="fill:none;stroke:#000000;stroke-width:1px;stroke-linecap:butt;stroke-linejoin:miter;stroke-opacity:1"
       d="m 316.31622,558.85304 c 0,0 -2.28612,-34.29184 -1.87046,-40.11106 0.41566,-5.81922 0.83132,-36.1623 1.24697,-38.65625"
       id="path970" />
    <path
       style="fill:none;stroke:#000000;stroke-width:1px;stroke-linecap:butt;stroke-linejoin:miter;stroke-opacity:1"
       d="m 309.45785,558.43738 c 0,0 -1.03914,-24.52386 -0.83131,-30.55091 0.20783,-6.02705 0.62349,-27.22564 0.83131,-30.55091"
       id="path972" />
    <path
       style="fill:none;stroke:#000000;stroke-width:1px;stroke-linecap:butt;stroke-linejoin:miter;stroke-opacity:1"
       d="m 303.84646,558.22955 c 0.20783,-1.45481 -0.83131,-19.32813 -0.62348,-23.06906 0.20782,-3.74092 0.83131,-19.74378 0.62348,-20.78293"
       id="path974" />
    <path
       style="fill:none;stroke:#000000;stroke-width:1px;stroke-linecap:butt;stroke-linejoin:miter;stroke-opacity:1"
       d="m 298.85856,557.1904 c 0,0 -0.41566,-8.93666 -0.20783,-11.22278 0.20783,-2.28612 -0.41566,-9.56015 0,-10.5993"
       id="path976" />
  </g>
</svg>
