<?xml version="1.0" encoding="UTF-8" standalone="no"?>
<svg
   xmlns:dc="http://purl.org/dc/elements/1.1/"
   xmlns:cc="http://creativecommons.org/ns#"
   xmlns:rdf="http://www.w3.org/1999/02/22-rdf-syntax-ns#"
   xmlns:svg="http://www.w3.org/2000/svg"
   xmlns="http://www.w3.org/2000/svg"
   xmlns:sodipodi="http://sodipodi.sourceforge.net/DTD/sodipodi-0.dtd"
   xmlns:inkscape="http://www.inkscape.org/namespaces/inkscape"
   version="1.1"
   id="svg833"
   width="481.07379"
   height="484.90118"
   viewBox="0 0 481.07379 484.90118"
   sodipodi:docname="exp_spoon.svg"
   inkscape:version="1.0.2 (e86c870879, 2021-01-15, custom)">
  <metadata
     id="metadata839">
    <rdf:RDF>
      <cc:Work
         rdf:about="">
        <dc:format>image/svg+xml</dc:format>
        <dc:type
           rdf:resource="http://purl.org/dc/dcmitype/StillImage" />
        <dc:title></dc:title>
      </cc:Work>
    </rdf:RDF>
  </metadata>
  <defs
     id="defs837" />
  <sodipodi:namedview
     pagecolor="#ffffff"
     bordercolor="#666666"
     borderopacity="1"
     objecttolerance="10"
     gridtolerance="10"
     guidetolerance="10"
     inkscape:pageopacity="0"
     inkscape:pageshadow="2"
     inkscape:window-width="1500"
     inkscape:window-height="1041"
     id="namedview835"
     showgrid="false"
     fit-margin-top="0"
     fit-margin-left="0"
     fit-margin-right="0"
     fit-margin-bottom="0"
     inkscape:zoom="1.0217693"
     inkscape:cx="247.14592"
     inkscape:cy="268.96034"
     inkscape:window-x="268"
     inkscape:window-y="43"
     inkscape:window-maximized="0"
     inkscape:current-layer="layer1" />
  <g
     inkscape:groupmode="layer"
     id="layer1"
     inkscape:label="vectorSpoon"
     style="display:inline"
     transform="translate(-50.688361,-50.179268)">
    <path
       style="fill:none;stroke:#000000;stroke-width:1px;stroke-linecap:butt;stroke-linejoin:miter;stroke-opacity:1"
       d="m 290.31142,311.41869 c 0,0 133.56401,153.28719 144.29066,162.97577 10.72664,9.68859 44.29065,44.9827 53.28719,49.48097 8.99654,4.49827 12.45675,8.65052 19.03115,8.99654 6.57439,0.34602 8.30449,3.46021 13.84083,0.34602 5.53633,-3.11418 11.41868,-9.68858 10.38062,-16.26297 -1.03806,-6.5744 -20.76125,-38.06229 -33.91004,-48.44291 C 484.08305,458.13149 418.59757,386.40635 397.57785,368.16609 376.6436,350 314.53287,296.53979 304.49827,286.85121 c -10.0346,-9.68858 -76.12457,-65.39792 -79.58478,-73.70242 -3.4602,-8.3045 -5.19031,-5.53633 -2.42214,-15.57094 2.76817,-10.0346 8.99654,-32.52595 2.42214,-49.13494 -6.57439,-16.609 -17.30103,-34.25606 -26.64359,-42.21454 C 188.92734,98.269896 156.7474,69.896194 129.06574,60.553633 101.38408,51.211073 86.851211,48.096886 75.778547,52.941176 64.705882,57.785467 61.245675,58.477509 56.055363,69.896194 50.865052,81.314879 49.82699,96.193772 52.941176,112.80277 c 3.114187,16.60899 7.266436,31.14187 21.453288,56.05536 14.186851,24.9135 32.179926,42.90658 49.826986,52.24914 17.64706,9.34256 40.13841,8.30449 53.2872,6.57439 13.14879,-1.7301 20.76125,-5.19031 31.83391,1.7301 11.07267,6.92042 39.44637,32.87198 50.51903,47.40485 11.07267,14.53287 24.56748,26.29758 30.44983,34.60208 z"
       id="path846"
       sodipodi:nodetypes="csssssssssssssssssssssc" />
    <path
       style="fill:none;stroke:#000000;stroke-width:1px;stroke-linecap:butt;stroke-linejoin:miter;stroke-opacity:1"
       d="m 302.16263,284.86159 c 1.38408,1.73011 6.6609,12.02422 6.31488,17.73356 -0.25174,4.15364 -1.29758,6.31489 -7.69896,6.31489 -8.0747,0 -17.04153,-5.44983 -17.04153,-5.44983"
       id="path848"
       sodipodi:nodetypes="cssc" />
    <path
       style="fill:none;stroke:#000000;stroke-width:1px;stroke-linecap:butt;stroke-linejoin:miter;stroke-opacity:1"
       d="m 524.33558,523.60156 c 0,0 0,6.11684 -5.87216,6.36152 -5.87217,0.24467 -11.74434,0 -17.12716,-2.93609 -5.38282,-2.93608 -21.77595,-14.43574 -26.9141,-18.83987 -5.13814,-4.40412 -40.37115,-39.8818 -42.57321,-42.81788 -2.20206,-2.93609 -35.72235,-36.94572 -38.65843,-40.61582"
       id="path852" />
    <path
       style="fill:none;stroke:#000000;stroke-width:1px;stroke-linecap:butt;stroke-linejoin:miter;stroke-opacity:1"
       d="m 303.97924,306.40138 c 0,0 -3.11419,0.69205 -4.49827,-0.34602 -1.38408,-1.03806 -10.0346,-9.16955 -13.14879,-12.80276 -3.11419,-3.63322 -17.30104,-18.3391 -19.72318,-20.76125 -2.42215,-2.42215 -19.37717,-19.20415 -23.87544,-23.70242 -4.49827,-4.49827 -16.26297,-12.97578 -18.16609,-16.26298 -1.90311,-3.2872 -8.4775,-14.70588 -8.99654,-19.37716 -0.51903,-4.67128 -2.07612,-5.70934 -0.69204,-9.51557 1.38409,-3.80623 5.0173,-7.95848 4.84429,-13.14879 -0.17301,-5.19031 1.5571,-12.62976 2.94118,-16.08997 1.38408,-3.4602 1.7301,-19.03114 -1.38408,-26.98962 -3.11419,-7.95847 -9.34256,-21.97231 -17.12803,-31.6609 C 196.36678,106.05536 163.49481,80.103806 156.74741,76.470588 150,72.83737 133.21799,64.705882 126.98962,61.937716 120.76125,59.16955 103.94956,54.033514 96.754782,53.299493 89.353752,52.54443 82.414109,52.240441 79.065744,53.460208 c -3.653081,1.330771 -13.148789,4.84429 -16.782007,9.861591 -3.633218,5.017301 -6.574394,10.207613 -8.131488,17.474049 -1.557093,7.266436 -1.903114,22.318342 0,30.968862 1.903114,8.65052 8.477509,28.71972 11.937716,36.6782 3.460208,7.95847 17.647059,32.69896 22.837371,37.88927 5.190311,5.19031 8.304498,11.24567 15.743944,17.12803 7.43945,5.88235 17.12803,12.62976 24.04844,15.22491 6.92042,2.59516 10.72665,5.70934 27.33564,5.36332 16.609,-0.34602 32.35294,-3.11418 38.06229,-3.28719 5.70934,-0.17301 6.57439,-0.34602 12.97578,3.28719 6.40138,3.63322 10.89965,9.16955 14.35986,12.45675 3.46021,3.2872 17.99308,14.70588 21.28027,18.51211 3.2872,3.80623 17.20929,17.74931 20.853,22.63468 0,0 6.41079,8.24915 10.69258,12.89795 4.28178,4.6488 8.3189,9.41994 10.88797,11.74434"
       id="path850"
       sodipodi:nodetypes="cssssssssssssssssssssssssssscsc" />
    <path
       style="fill:none;stroke:#000000;stroke-width:1px;stroke-linecap:butt;stroke-linejoin:miter;stroke-opacity:1"
       d="m 344.50047,326.88397 c 0,0 25.9354,21.53127 36.70104,32.78626 10.76564,11.25499 30.33953,26.9141 37.19039,34.74366 6.85086,7.82955 22.02063,23.97801 29.36084,32.29692"
       id="path862" />
  </g>
</svg>
