<?xml version="1.0" encoding="UTF-8" standalone="no"?>
<svg
   xmlns:dc="http://purl.org/dc/elements/1.1/"
   xmlns:cc="http://creativecommons.org/ns#"
   xmlns:rdf="http://www.w3.org/1999/02/22-rdf-syntax-ns#"
   xmlns:svg="http://www.w3.org/2000/svg"
   xmlns="http://www.w3.org/2000/svg"
   xmlns:sodipodi="http://sodipodi.sourceforge.net/DTD/sodipodi-0.dtd"
   xmlns:inkscape="http://www.inkscape.org/namespaces/inkscape"
   version="1.1"
   id="svg864"
   width="77.069687mm"
   height="141.80362mm"
   viewBox="0 0 291.28701 535.95069"
   sodipodi:docname="exp_lamp.svg"
   inkscape:version="1.0.2 (e86c870879, 2021-01-15, custom)">
  <metadata
     id="metadata870">
    <rdf:RDF>
      <cc:Work
         rdf:about="">
        <dc:format>image/svg+xml</dc:format>
        <dc:type
           rdf:resource="http://purl.org/dc/dcmitype/StillImage" />
        <dc:title></dc:title>
      </cc:Work>
    </rdf:RDF>
  </metadata>
  <defs
     id="defs868" />
  <sodipodi:namedview
     pagecolor="#ffffff"
     bordercolor="#666666"
     borderopacity="1"
     objecttolerance="10"
     gridtolerance="10"
     guidetolerance="10"
     inkscape:pageopacity="0"
     inkscape:pageshadow="2"
     inkscape:window-width="1849"
     inkscape:window-height="1057"
     id="namedview866"
     showgrid="false"
     inkscape:zoom="1"
     inkscape:cx="209.78626"
     inkscape:cy="155.98875"
     inkscape:window-x="63"
     inkscape:window-y="-8"
     inkscape:window-maximized="1"
     inkscape:current-layer="layer2"
     fit-margin-top="0"
     fit-margin-left="0"
     fit-margin-right="0"
     fit-margin-bottom="0"
     inkscape:document-rotation="0"
     units="mm" />
  <g
     inkscape:groupmode="layer"
     id="layer2"
     inkscape:label="vectorLamp"
     style="display:inline"
     transform="translate(-236.57768,41.428976)">
    <g
       id="g3812"
       transform="rotate(-90,382.22031,226.54624)">
      <path
         style="fill:none;stroke:#000000;stroke-width:1px;stroke-linecap:butt;stroke-linejoin:miter;stroke-opacity:1"
         d="m 271.12066,144.51464 c 0,0 4.3028,-4.82184 10.61251,-5.87599 6.30973,-1.05417 6.78159,-0.32948 11.53854,-0.1869 4.75695,0.14261 28.36314,-0.36933 33.89633,-1.47511 5.53319,-1.10574 31.4795,-5.53541 38.24897,-8.29228 6.76945,-2.75689 30.43676,-12.01774 35.23321,-15.079 4.79643,-3.06124 13.5386,-6.81372 15.82746,-8.65492 2.28885,-1.84122 3.04786,-2.83076 4.09472,-2.93456 1.04683,-0.10376 3.42262,0.66064 3.52642,1.70749 0.10376,1.04685 1.14521,2.32929 1.50239,4.77959 0.35727,2.45027 3.38285,26.0501 3.28065,31.50306 -0.10218,5.45295 0.69508,66.51629 1.09275,69.66255 0.39763,3.14626 -0.78637,53.59182 -1.2563,60.66692 -0.46994,7.07513 -2.92337,41.40384 -4.59519,49.6124 -1.67183,8.20855 -3.86103,17.68268 -4.53948,18.76423 -0.67849,1.08156 -0.56865,3.34207 -1.29328,3.81389 -0.72465,0.47187 -1.00609,2.09975 -4.9585,-1.02263 -3.9524,-3.12237 -13.90477,-8.54984 -16.87909,-10.74064 -2.97434,-2.1908 -22.45876,-11.54457 -27.21031,-13.07343 -4.75156,-1.52888 -28.69908,-8.92583 -34.43409,-10.00008 -5.73503,-1.07421 -32.023,-5.85344 -38.3273,-6.18552 -6.30429,-0.33205 -13.253,-1.40023 -15.99111,-1.92873 -2.73809,-0.52853 -7.55106,-5.20604 -8.35085,-6.21247"
         id="path1438"
         sodipodi:nodetypes="csssssssssssssssssssssc" />
      <path
         style="fill:none;stroke:#000000;stroke-width:1px;stroke-linecap:butt;stroke-linejoin:miter;stroke-opacity:1"
         d="m 261.42213,148.95576 c 0,0 3.85574,-5.25704 4.90259,-5.36084 1.04684,-0.10376 3.20066,-1.09827 4.79594,0.91972 1.59528,2.01801 3.03723,18.14635 3.12514,24.65187 0.0879,6.50551 1.33428,26.8489 1.2392,33.53399 -0.0942,6.6169 -0.66869,29.37974 -0.6591,35.80723 0.01,6.35921 -0.14561,24.50649 -0.93711,33.81348 -0.7915,9.30697 -1.2693,16.96435 -1.54672,18.58141 -0.27619,1.60996 0.43821,4.99892 -3.30067,5.59579 -1.86752,0.29813 -9.15861,-5.84155 -9.86065,-7.01479"
         id="path1440"
         sodipodi:nodetypes="cssssssssc" />
      <path
         style="fill:none;stroke:#000000;stroke-width:1px;stroke-linecap:butt;stroke-linejoin:miter;stroke-opacity:1"
         d="m 253.85783,155.30571 c 0,0 -0.29693,-3.62607 0.24116,-5.00221 0.5381,-1.37619 1.71117,-2.23524 2.89774,-2.2748 1.22727,-0.0412 2.87581,-0.32262 3.99185,0.63854 0.69975,0.60242 1.05878,1.14422 1.28453,2.4927 0.2258,1.34846 1.62327,15.12693 1.499,19.65035 -0.12434,4.52342 0.35069,23.05876 0.28067,28.07215 -0.07,5.0134 -0.47894,34.29896 -0.89442,37.77875 -0.41556,3.47978 -1.07001,25.04607 -1.14258,30.24288 -0.0726,5.19681 -1.42471,16.02259 -1.58649,17.2727 -0.24368,1.88258 -0.11341,4.66733 -1.4116,5.50857 -1.38197,0.89555 -2.88057,0.24919 -4.15341,-0.56356 -1.27282,-0.81271 -2.19428,-2.46273 -2.67229,-3.26438 -0.47802,-0.80162 -0.0269,-3.97033 0.17099,-5.00715 0.19793,-1.0368 1.26989,-14.54161 1.3959,-19.18731 0.12602,-4.6457 1.79891,-28.10427 1.6522,-30.73581 -0.14673,-2.63154 -0.0718,-38.64834 -0.12581,-43.54117 -0.054,-4.89283 -0.66438,-16.9035 -0.70088,-18.14003 -0.0267,-0.90239 -0.3012,-7.51481 -0.34834,-8.16619 z"
         id="path1442"
         sodipodi:nodetypes="cssssssssssssssssscc" />
      <path
         style="fill:none;stroke:#000000;stroke-width:1px;stroke-linecap:butt;stroke-linejoin:miter;stroke-opacity:1"
         d="m 411.94199,318.7501 c 0,0 -20.33047,-12.28507 -33.28033,-15.96623 -12.94986,-3.68116 -28.40647,-6.89729 -42.3702,-9.5925 -13.96373,-2.69523 -39.45426,-3.55122 -43.94685,-4.11402"
         id="path1445" />
      <path
         style="fill:none;stroke:#000000;stroke-width:1px;stroke-linecap:butt;stroke-linejoin:miter;stroke-opacity:1"
         d="m 291.40607,141.42488 c 0,0 -7.73005,-1.48309 -11.76456,0.96083 -4.03451,2.44391 -3.46194,6.20226 -3.51079,9.70193 -0.0489,3.49965 2.00999,26.15561 1.8983,34.15483 -0.11169,7.99922 0.71233,38.51368 0.62857,44.51309 -0.0838,5.99942 -1.12107,36.88042 -1.32938,41.4855 -0.18081,3.99786 -1.99067,17.22389 -2.52552,19.71666"
         id="path1447"
         sodipodi:nodetypes="csssssc" />
      <path
         style="fill:none;stroke:#000000;stroke-width:1px;stroke-linecap:butt;stroke-linejoin:miter;stroke-opacity:1"
         d="m 424.20537,103.57573 c 0,0 14.60781,-7.92855 18.69179,-9.19747 4.08399,-1.26888 23.54529,-8.59932 29.74913,-9.75025 6.20385,-1.15095 26.21346,-3.43505 29.83456,-3.20769 3.62113,0.22734 21.02575,0.91237 24.19508,1.8406 3.16933,0.92823 16.39666,3.23444 20.96898,4.97785 4.57228,1.74337 19.97087,6.82024 24.61178,9.97892 4.64095,3.15871 25.67932,15.82805 31.43957,21.12391 5.76024,5.29584 20.79201,23.98071 23.7204,29.5022 2.9284,5.52152 12.96697,20.95438 15.65072,31.33428 2.68377,10.37992 5.91166,32.43586 6.03289,36.4154 0.12116,3.97956 1.54868,22.03246 -0.51044,30.22462 -2.05915,8.19216 -6.22426,27.93492 -11.21474,37.14693 -4.99048,9.21199 -11.50361,26.18165 -18.58309,33.06616 -7.07949,6.88452 -21.52583,22.24064 -31.78577,28.99235 -10.25992,6.7517 -22.28868,13.56712 -29.83798,16.1136 -7.5493,2.54649 -24.4118,7.34967 -29.98836,7.89057 -5.57656,0.54095 -21.60784,2.79217 -33.60404,0.94511 -11.99619,-1.84705 -35.35265,-6.76984 -40.44165,-9.49279 -5.08902,-2.72297 -17.05682,-6.60276 -20.82629,-8.8653 -3.76949,-2.26257 -12.70771,-7.86801 -13.91416,-10.09476"
         id="path1449" />
      <path
         style="fill:none;stroke:#000000;stroke-width:1px;stroke-linecap:butt;stroke-linejoin:miter;stroke-opacity:1"
         d="m 253.93281,157.15319 c 0,0 -1.17724,3.73393 -1.93065,3.97344 -0.75331,0.23986 -1.8757,0.0363 -3.36769,-0.54708 -1.49201,-0.58338 -5.47766,-1.63913 -6.72142,-2.09404 -1.24378,-0.45492 -2.6759,-0.84994 -3.74267,-0.55231 -1.06676,0.29759 -2.50935,0.65252 -4.2246,2.62876 -1.71526,1.97625 -2.58319,1.46408 -2.95292,1.08388 -0.36973,-0.38021 -1.40944,-2.01987 -2.02389,-2.77852 -0.61448,-0.75865 -1.27225,-2.89307 -2.32941,-3.28284 -1.05717,-0.38981 -2.91715,-1.47839 -4.18883,0.0665 -1.2717,1.54488 -2.40793,2.34161 -3.17269,3.39352 -0.76476,1.05194 -2.9236,3.45951 -4.72982,2.99677 -1.80622,-0.46276 -2.6628,-1.78736 -3.89435,-3.11719 -1.23154,-1.32982 -1.46669,-2.39571 -3.1514,-2.60674 -1.68473,-0.21102 -3.81562,0.19671 -4.96234,1.74338 -1.1467,1.54664 -1.60335,2.9154 -2.72911,2.9622 -1.12579,0.0463 -1.8914,1.16119 -3.62988,0.32428 -1.73852,-0.83686 -2.96919,-2.22917 -4.5132,-3.56336 -1.54403,-1.33418 -2.40935,-2.03383 -3.66446,-1.67633 -1.25511,0.35751 -2.2524,0.15608 -3.5267,1.88844 -1.27432,1.73239 -1.49582,4.16704 -2.43411,4.21643 -0.93828,0.0494 -2.12915,0.28275 -2.87298,-0.16509 -0.74382,-0.44793 -0.99291,-0.5139 -2.23145,-1.34379 -1.23853,-0.82987 -3.33367,-2.98432 -4.45157,-3.5 -1.1179,-0.51565 -1.98061,-1.40278 -3.48395,-1.17377 -1.50334,0.22907 -4.24609,-0.30929 -4.95447,1.18097 -0.70838,1.49025 0.63595,3.69673 0.12462,4.50218 -0.51131,0.80543 0.009,3.81301 -0.97582,2.73664 -0.98507,-1.07637 -0.5319,-2.19514 -1.53005,-2.3341 -0.99816,-0.13896 -0.85659,-1.32458 -1.80883,-0.27523 -0.95225,1.04931 -1.41153,2.60556 -1.85073,2.72442 -0.4392,0.11889 -0.98857,-0.82637 -1.74376,-0.46176 -0.75515,0.36451 -7.73299,3.20487 -10.02815,6.42311 -2.29516,3.21829 -3.58343,5.95056 -2.86842,8.4608 0.71503,2.51021 1.31386,20.48614 1.32512,26.0111 0.0112,5.52498 -0.24546,23.90797 -0.95462,27.21296 -0.70912,3.30497 -1.85309,17.13709 -1.9037,20.76172 -0.0506,3.62465 0.52548,7.13304 1.49221,9.52177 0.96675,2.38873 4.51635,7.81382 5.88773,8.08301 1.37136,0.26914 7.32889,3.35263 8.82874,3.3736 1.49986,0.021 4.85709,1.31793 5.33608,2.82477 0.47877,1.5069 1.33821,2.64393 2.6038,1.5365 1.26559,-1.10743 2.05739,-4.09669 2.67186,-3.33802 0.61449,0.75865 1.06034,4.64025 1.66957,5.77387 0.60923,1.13363 2.44739,3.78453 3.58102,3.17531 1.13361,-0.60923 2.90786,-2.33463 3.79848,-3.4473 0.89063,-1.11267 2.28296,-2.34335 3.03986,-2.83282 0.75689,-0.48949 0.98594,1.01386 1.72539,1.77425 0.73947,0.76041 0.60749,1.25861 1.49289,0.52088 0.88537,-0.7377 0.38193,-0.4947 1.64402,-1.35217 1.2621,-0.85747 3.40609,-2.20264 5.01522,-1.05506 1.60914,1.14756 1.32775,3.39387 2.57414,3.6613 1.24638,0.26744 2.98575,1.04178 4.49606,0.3128 1.51033,-0.72899 2.28818,-2.71832 3.42006,-3.20257 1.13187,-0.48424 3.51535,-1.07605 4.99079,0.69476 1.47541,1.77077 4.92621,5.31931 5.5459,5.70299 0.61971,0.38369 3.1282,-0.20633 3.5171,-1.20103 0.38894,-0.99466 1.66151,-2.60204 2.67887,-3.83796 1.01734,-1.23591 3.14912,-1.7062 4.88324,-0.55687 1.73412,1.14931 3.4473,3.7985 5.9401,4.33336 2.49276,0.53486 6.37611,-0.036 8.37941,-0.25806 2.00327,-0.2222 7.25103,-0.0237 8.24744,0.24018 0.99641,0.26393 6.72493,1.84404 7.0894,2.59923"
         id="path1453" />
      <path
         style="fill:none;stroke:#000000;stroke-width:1px;stroke-linecap:butt;stroke-linejoin:miter;stroke-opacity:1"
         d="m 143.41661,179.92487 c 0,0 -1.55625,-0.45927 -2.42679,-0.78395 -0.87056,-0.32467 -4.8548,2.99501 -9.01255,5.31217 -4.15776,2.31717 -7.18364,4.1501 -8.81896,4.87735 -1.63532,0.72723 -4.53003,5.0394 -5.16167,6.46854 -1.43138,3.23859 -2.89789,10.16019 -3.17379,11.74295 -0.27701,1.58896 0.29689,10.3908 0.13077,15.9575 -0.1661,5.56668 0.78773,12.67969 1.20001,14.80698 0.41228,2.12729 1.44179,6.98834 3.54068,8.6088 2.09891,1.62045 4.35474,3.57521 6.72373,4.84586 2.36899,1.27063 2.70567,2.14044 5.80628,4.09557 0.66009,0.4162 3.36429,2.10378 4.67441,2.68015 1.21694,0.53534 3.29196,2.24449 3.85098,2.10149 0.35306,-0.0903 0.98195,-1.13877 1.6647,-1.94534"
         id="path1455"
         sodipodi:nodetypes="cssssssssssssc" />
      <path
         style="display:inline;fill:none;stroke:#000000;stroke-width:1px;stroke-linecap:butt;stroke-linejoin:miter;stroke-opacity:1"
         d="m 121.28665,193.55471 c 0,0 -0.98835,8.112 -1.54939,12.47959 -0.56105,4.36759 -0.75128,17.99127 -0.56413,22.4943 0.1871,4.50305 0.21439,11.50412 0.94513,12.88947"
         id="path1457" />
    </g>
  </g>
</svg>
