<?xml version="1.0" encoding="UTF-8" standalone="no"?>
<svg
   xmlns:dc="http://purl.org/dc/elements/1.1/"
   xmlns:cc="http://creativecommons.org/ns#"
   xmlns:rdf="http://www.w3.org/1999/02/22-rdf-syntax-ns#"
   xmlns:svg="http://www.w3.org/2000/svg"
   xmlns="http://www.w3.org/2000/svg"
   xmlns:sodipodi="http://sodipodi.sourceforge.net/DTD/sodipodi-0.dtd"
   xmlns:inkscape="http://www.inkscape.org/namespaces/inkscape"
   version="1.1"
   id="svg2048"
   width="242.218"
   height="222.37173"
   viewBox="0 0 242.218 222.37173"
   sodipodi:docname="exp_ambrella.svg"
   inkscape:version="1.0.2 (e86c870879, 2021-01-15, custom)">
  <metadata
     id="metadata2054">
    <rdf:RDF>
      <cc:Work
         rdf:about="">
        <dc:format>image/svg+xml</dc:format>
        <dc:type
           rdf:resource="http://purl.org/dc/dcmitype/StillImage" />
        <dc:title></dc:title>
      </cc:Work>
    </rdf:RDF>
  </metadata>
  <defs
     id="defs2052" />
  <sodipodi:namedview
     pagecolor="#ffffff"
     bordercolor="#666666"
     borderopacity="1"
     objecttolerance="10"
     gridtolerance="10"
     guidetolerance="10"
     inkscape:pageopacity="0"
     inkscape:pageshadow="2"
     inkscape:window-width="1849"
     inkscape:window-height="1057"
     id="namedview2050"
     showgrid="false"
     fit-margin-top="0"
     fit-margin-left="0"
     fit-margin-right="0"
     fit-margin-bottom="0"
     inkscape:zoom="4"
     inkscape:cx="86.482448"
     inkscape:cy="106.48877"
     inkscape:window-x="63"
     inkscape:window-y="-8"
     inkscape:window-maximized="1"
     inkscape:current-layer="layer4" />
  <g
     inkscape:groupmode="layer"
     id="layer4"
     inkscape:label="vectorAmbrella"
     transform="translate(-42.515694,-12.60396)">
    <path
       style="fill:none;stroke:#000000;stroke-width:1px;stroke-linecap:butt;stroke-linejoin:miter;stroke-opacity:1"
       d="m 160.409,96.517693 c 0,0 -0.53486,-1.069717 0,-1.701823 0.53486,-0.632106 1.16697,-0.923847 1.94494,-0.875223 0.77798,0.04862 3.40365,-0.145871 4.23025,-0.145871 0.8266,0 2.18806,-0.09725 2.91741,-0.04862 0.72935,0.04862 1.31284,0 1.60458,0.340364 0.29174,0.340365 0.8266,0.340365 0.68073,1.410082 -0.14587,1.069718 -0.29174,17.796208 -0.24312,20.373258 0.0486,2.57704 0.0973,28.59063 0.0486,31.50804 -0.0486,2.91741 0.14587,40.89238 0.14587,43.76117 0,2.86879 0.14587,20.37326 0.0973,21.19986 -0.0486,0.8266 -0.89781,8.69282 -2.93999,11.7561 -2.04219,3.06328 -5.18747,6.56072 -7.57002,7.72768 -2.38256,1.16697 -5.84174,2.39435 -9.92611,2.44298 -4.08438,0.0486 -8.88386,1.02354 -13.5031,-1.748 -4.61923,-2.77154 -6.6128,-3.79264 -8.55774,-7.53665 -1.94494,-3.74401 -3.1119,-9.43296 -3.1119,-12.69074 0,-3.25777 -0.43762,-4.27887 0.6321,-5.68895 1.06972,-1.41008 1.31284,-1.89632 2.18806,-2.33393 0.87522,-0.43761 2.86879,-0.63211 3.64676,-0.53486 0.77798,0.0973 2.33393,0.63211 2.96604,1.70183 0.63211,1.06971 1.31283,1.36145 1.31283,2.77154 0,1.41008 -0.0486,6.12656 0.1945,7.29352 0.24312,1.16697 2.09081,5.20272 3.06328,5.88345 0.97247,0.68073 1.94494,2.91741 6.02932,3.11191 4.08437,0.19449 6.56417,0.0486 7.58527,-0.24312 1.02109,-0.29174 3.45227,-2.38255 3.84126,-3.25778 0.38898,-0.87522 2.33392,-1.6532 2.43117,-5.68895 0.0973,-4.03575 0.24312,-25.28423 0.29174,-27.47229 0.0486,-2.18806 -0.19449,-22.17233 -0.19449,-23.48516 0,-1.31284 0.24312,-37.68323 0.19449,-38.8502 -0.0486,-1.16696 0.0486,-28.298884 0,-28.979614 z"
       id="path2622"
       sodipodi:nodetypes="cssssssscsssssssssssssssssssssssc" />
    <path
       style="fill:none;stroke:#000000;stroke-width:1px;stroke-linecap:butt;stroke-linejoin:miter;stroke-opacity:1"
       d="m 47.286376,87.352159 c 0,0 -2.966035,6.296747 -3.330711,7.17197 -0.364676,0.875223 -0.996782,2.309617 -0.923847,2.62567 0.07294,0.316053 0.121559,0.4133 0.364676,0.461924 0.243118,0.04862 0.948159,-0.656418 1.288524,-0.850912 0.340364,-0.194494 5.008223,-2.455488 6.175187,-2.649982 1.166965,-0.194494 9.919199,-3.427958 11.621022,-3.744011 1.701824,-0.316053 10.308187,-2.188059 12.69074,-2.431176 2.382552,-0.243118 8.630675,-0.583483 9.992134,-0.559171 1.361458,0.02431 11.110475,0.607794 12.739363,0.656418 1.628888,0.04862 8.654986,1.288523 10.551306,1.944941 1.89632,0.656417 6.92885,2.358241 8.4848,3.111905 1.55596,0.753665 4.93529,3.355023 5.27566,3.914194 0.34036,0.55917 0.75366,0.887379 0.99678,0.863067 0.24312,-0.02431 0.66857,-0.4133 0.88738,-0.668573 0.2188,-0.255274 6.65544,-4.435725 7.6869,-4.882691 1.03146,-0.446967 10.1427,-4.572809 11.44922,-4.847866 1.30651,-0.275056 9.38629,-2.784943 12.30876,-3.094382 2.92247,-0.309438 15.16247,-0.34382 17.36292,-0.03438 2.20045,0.309439 13.78719,3.025618 16.74405,4.813484 2.95685,1.787865 9.86764,4.572809 12.24,6.738876 2.37236,2.166067 2.13116,1.711371 2.41843,1.64508 0.28726,-0.06629 2.09922,-1.458408 2.91681,-2.032932 0.81759,-0.574525 8.81674,-5.016039 11.99872,-5.369593 3.18198,-0.353553 8.72835,-2.342291 11.38,-2.099223 2.65165,0.243068 17.99891,-0.803443 20.21883,-0.419845 2.38048,0.411343 14.31892,1.966641 18.11961,3.822797 3.8007,1.856155 11.13694,2.961009 12.70583,4.662485 1.56889,1.701476 2.47487,1.126951 2.56326,0.972272 0.0884,-0.15468 -0.88388,-2.938913 -1.39211,-4.087961 -0.50824,-1.149049 -4.17635,-9.413359 -5.01604,-10.84967 -0.83969,-1.436311 -8.72835,-14.385204 -10.6508,-16.263456 -1.92245,-1.878252 -10.80548,-12.042912 -12.50695,-13.457126 -1.70148,-1.414213 -10.89386,-8.662058 -12.1313,-9.523844 -1.23744,-0.861787 -8.19802,-5.038136 -10.25305,-6.187185 -2.05503,-1.149048 -10.07627,-5.038135 -11.95452,-5.723145 -1.87826,-0.68501 -7.68979,-2.894719 -10.20886,-3.49134 -2.51907,-0.596621 -10.40773,-3.292466 -14.3852,-3.668116 -3.97748,-0.375651 -11.64517,-1.679379 -14.38521,-1.701476 -2.74003,-0.0221 -12.46275,-0.309359 -12.97099,-0.441942 -0.50823,-0.132582 -0.53033,-0.839689 -0.46403,-1.856155 0.0663,-1.016466 -0.11049,-2.629553 -0.19888,-3.513437 -0.0884,-0.883883 -0.0221,-2.342291 -0.24307,-2.452777 -0.22097,-0.110485 -0.86178,-0.552427 -1.39211,-0.596621 -0.53033,-0.04419 -2.45278,-0.198874 -2.82843,-0.132582 -0.37565,0.06629 -1.25953,-0.08839 -1.5468,0.06629 -0.28726,0.154679 -0.86178,0.220971 -0.88388,0.68501 -0.0221,0.464038 0.0663,1.988737 0.0442,2.408582 -0.0221,0.419845 -0.19888,2.055029 -0.28727,2.386485 -0.0884,0.331457 0.24307,1.590991 -0.11048,2.055029 -0.35356,0.464039 -1.01647,0.640816 -1.76777,0.640816 -0.7513,0 -8.46318,0.04419 -9.8774,0.08839 -1.41421,0.04419 -11.51258,1.679379 -13.67809,2.187612 -2.16552,0.508233 -13.28035,2.740039 -16.24136,3.889087 -2.96101,1.149049 -13.19196,3.690214 -16.7275,5.811534 -3.535531,2.12132 -14.429395,7.645592 -17.279919,9.921592 -2.850524,2.276 -13.523417,10.938058 -14.959728,12.573243 -1.436311,1.635184 -12.661631,14.827145 -13.302446,15.865708 -0.640816,1.038563 -7.869343,11.716206 -9.326361,15.647112 z"
       id="path2624"
       sodipodi:nodetypes="cssssssssssssssssssssssssssssssssssssssssssssssssssssssssssc" />
    <path
       style="fill:none;stroke:#000000;stroke-width:1px;stroke-linecap:butt;stroke-linejoin:miter;stroke-opacity:1"
       d="m 122.875,93.625 c 0,0 -1.125,-11.125 0.125,-17.5 1.25,-6.375 4,-16.5 5.75,-20 1.75,-3.5 11.05226,-15.664296 13.125,-17.625 2.3125,-2.1875 10.53148,-9.601711 12.875,-11.125 C 157.25,25.75 160.5,23.5 161,23"
       id="path2626"
       sodipodi:nodetypes="cssssc" />
    <path
       style="fill:none;stroke:#000000;stroke-width:1px;stroke-linecap:butt;stroke-linejoin:miter;stroke-opacity:1"
       d="m 204.375,93 c 0,0 0.4375,-15.1875 0,-18.625 C 203.93537,70.920767 203.4375,64.5 201,59.25 199.90466,56.890796 193.02974,43.807641 189.4375,39.1875 185.06308,33.561353 175.5,27.5 174.125,26.625 172.75,25.75 168.125,23.875 167,23.5"
       id="path2628"
       sodipodi:nodetypes="cssssc" />
    <path
       style="display:inline;fill:none;stroke:#000000;stroke-width:1px;stroke-linecap:butt;stroke-linejoin:miter;stroke-opacity:1"
       d="m 51.839766,81.361474 c 0,0 -3.712311,7.115262 -4.331029,8.485281 -0.618719,1.37002 -1.811961,2.607456 -1.59099,3.358757 0.22097,0.751301 0.928077,0.441942 2.695844,-0.08839 1.767767,-0.53033 6.319767,-2.342291 8.175922,-3.005204 1.856156,-0.662912 10.518214,-2.784233 12.727922,-3.093592 2.209709,-0.309359 11.490485,-1.635184 14.053748,-1.370019 2.563262,0.265165 13.125669,0.220971 14.716659,0.662912"
       id="path2630" />
    <path
       style="display:inline;fill:none;stroke:#000000;stroke-width:1px;stroke-linecap:butt;stroke-linejoin:miter;stroke-opacity:1"
       d="m 235.99689,85.913474 c 0,0 10.07443,-0.440102 15.02066,-0.166054 4.13378,0.229034 12.79952,1.945329 15.82687,2.994481 3.10432,1.075825 8.14689,2.86948 9.56111,3.223034 1.41421,0.353553 4.21767,1.99632 4.748,1.642767 0.53033,-0.353554 -0.006,-1.402571 -0.6973,-2.567704 -0.67029,-1.130175 -3.8007,-6.98268 -5.39169,-9.457553"
       id="path2633"
       sodipodi:nodetypes="csssssc" />
  </g>
</svg>
