<?xml version="1.0" encoding="UTF-8" standalone="no"?>
<svg
   xmlns:dc="http://purl.org/dc/elements/1.1/"
   xmlns:cc="http://creativecommons.org/ns#"
   xmlns:rdf="http://www.w3.org/1999/02/22-rdf-syntax-ns#"
   xmlns:svg="http://www.w3.org/2000/svg"
   xmlns="http://www.w3.org/2000/svg"
   xmlns:sodipodi="http://sodipodi.sourceforge.net/DTD/sodipodi-0.dtd"
   xmlns:inkscape="http://www.inkscape.org/namespaces/inkscape"
   version="1.1"
   id="svg2184"
   width="395.776"
   height="657.55597"
   viewBox="0 0 395.776 657.55597"
   sodipodi:docname="exp_kolba.svg"
   inkscape:version="1.0.2 (e86c870879, 2021-01-15, custom)">
  <metadata
     id="metadata2190">
    <rdf:RDF>
      <cc:Work
         rdf:about="">
        <dc:format>image/svg+xml</dc:format>
        <dc:type
           rdf:resource="http://purl.org/dc/dcmitype/StillImage" />
        <dc:title></dc:title>
      </cc:Work>
    </rdf:RDF>
  </metadata>
  <defs
     id="defs2188" />
  <sodipodi:namedview
     pagecolor="#ffffff"
     bordercolor="#666666"
     borderopacity="1"
     objecttolerance="10"
     gridtolerance="10"
     guidetolerance="10"
     inkscape:pageopacity="0"
     inkscape:pageshadow="2"
     inkscape:window-width="1849"
     inkscape:window-height="1057"
     id="namedview2186"
     showgrid="false"
     inkscape:zoom="0.86327165"
     inkscape:cx="-5.3434751"
     inkscape:cy="190.911"
     inkscape:window-x="63"
     inkscape:window-y="-8"
     inkscape:window-maximized="1"
     inkscape:current-layer="layer4"
     fit-margin-top="0"
     fit-margin-left="0"
     fit-margin-right="0"
     fit-margin-bottom="0" />
  <g
     inkscape:groupmode="layer"
     id="layer4"
     inkscape:label="vector"
     transform="translate(-106.96263,-31.653897)">
    <path
       style="fill:none;stroke:#000000;stroke-width:1px;stroke-linecap:butt;stroke-linejoin:miter;stroke-opacity:1"
       d="m 233.03427,33.378371 c 0,0 -4.70983,6.962359 -4.91461,10.443539 -0.20477,3.48118 0,9.624438 2.86686,12.286517 2.86685,2.662079 6.14326,4.095506 5.93848,12.081742 -0.20478,7.986236 1.43343,76.176401 1.43343,86.824721 0,10.64831 0.40955,54.675 -1.43343,66.14241 -1.84298,11.46742 -24.77781,81.09101 -28.25899,89.4868 -3.48118,8.39579 -45.86966,123.06995 -50.16994,134.74214 -4.30028,11.67219 -31.12585,87.02949 -37.47388,104.23061 -6.34803,17.20113 -13.10562,36.65478 -13.51517,51.60338 -0.40955,14.94859 1.84298,30.92106 13.71995,43.20758 11.87696,12.28652 25.39213,25.39213 53.24157,31.33062 27.84944,5.93848 118.56489,14.53904 149.0764,12.69607 30.51152,-1.84298 93.58231,-0.61433 122.04607,-12.4913 28.46377,-11.87696 39.31686,-19.45365 49.7604,-39.93118 10.44353,-20.47752 7.98623,-49.14606 -0.61433,-79.24803 -8.60056,-30.10197 -53.44635,-151.32893 -58.15618,-163.61545 -4.70983,-12.28652 -36.45,-96.24438 -39.93118,-109.14523 -3.48118,-12.90084 -17.61067,-35.01657 -19.24888,-62.86601 -1.6382,-27.84943 0.40955,-82.31966 -0.20477,-92.55842 -0.61433,-10.23877 -0.61433,-57.541857 0,-58.975284 0.61432,-1.433427 0.40955,-8.191012 2.86685,-11.057866 2.45731,-2.866854 5.11938,-9.419663 4.91461,-13.515168 -0.20478,-4.095506 -2.25253,-8.395787 -4.30028,-11.467416 -2.04776,-3.071629 -80.88624,-0.204775 -85.80085,-0.40955 -4.9146,-0.204776 -54.87977,1.228651 -61.84213,0.204775 z"
       id="path2758" />
    <path
       style="fill:none;stroke:#000000;stroke-width:1px;stroke-linecap:butt;stroke-linejoin:miter;stroke-opacity:1"
       d="m 252.59031,53.753511 c 0,0 28.9757,-2.662078 35.11896,-2.969241 6.14326,-0.307163 42.90042,0.716713 48.8389,1.228651 5.93849,0.511939 20.27276,1.33104 23.75394,2.150141"
       id="path2760" />
    <path
       style="fill:none;stroke:#000000;stroke-width:1px;stroke-linecap:butt;stroke-linejoin:miter;stroke-opacity:1"
       d="m 368.69789,34.607023 c 0,0 3.48118,6.757584 3.58357,10.238764 0.10239,3.481179 -3.58357,9.52205 -4.70983,10.853089"
       id="path2762" />
    <path
       style="fill:none;stroke:#000000;stroke-width:1px;stroke-linecap:butt;stroke-linejoin:miter;stroke-opacity:1"
       d="m 243.98975,37.473876 c 0,0 -3.48118,3.583568 -3.07163,7.269523 0.40955,3.685955 0.30716,6.859972 2.86685,8.600562"
       id="path2764" />
    <path
       style="fill:none;stroke:#000000;stroke-width:1px;stroke-linecap:butt;stroke-linejoin:miter;stroke-opacity:1"
       d="m 251.66882,62.354073 c 0,0 -8.2934,-1.433427 -8.19101,0.921489 0.10239,2.354916 1.12626,24.573034 1.74059,33.480758 0.61433,8.90773 1.43343,52.2177 1.22865,57.33708 -0.20477,5.11938 1.6382,52.2177 0.30716,60.10154 -1.33104,7.88385 -9.52205,44.84579 -13.92472,53.8559 -4.40266,9.01012 -28.56615,73.82149 -30.81868,80.16953 -2.25252,6.34803 -13.00323,36.96193 -16.38202,45.15295 -3.37879,8.19101 -14.94859,42.90042 -18.53216,52.83202 -3.58357,9.9316 -20.78469,58.97528 -24.98258,68.29255 -4.1979,9.31728 -14.64144,44.33385 -16.27964,52.52486 -1.6382,8.19101 -5.8361,29.89719 -2.35492,40.44312 3.48118,10.54593 8.08863,23.03722 26.21124,31.12584 18.12261,8.08863 49.96517,16.5868 69.00927,17.4059 19.0441,0.8191 76.38118,3.07163 81.70534,2.96924 5.32415,-0.10238 78.73609,-1.53581 88.25814,-5.01699 9.52205,-3.48118 45.05057,-0.71671 60.61349,-5.63132 15.56292,-4.91461 32.35449,-17.20112 39.31685,-27.84944 6.96236,-10.64831 7.1221,-22.8878 6.6877,-30.48969 -0.43439,-7.60189 -3.61994,-34.60672 -5.86431,-40.83303 -2.24437,-6.22632 -10.06346,-31.27637 -11.87344,-35.25831 -1.80997,-3.98195 -15.63818,-38.80586 -16.65177,-41.99142 -1.01358,-3.18556 -15.92778,-42.06382 -17.23096,-45.75617 -1.30318,-3.69234 -28.23561,-72.39899 -30.11798,-77.17732 -1.88237,-4.77834 -31.56596,-79.92849 -32.14515,-82.82445 -0.5792,-2.89596 -10.57026,-29.394 -11.72864,-46.48016 -1.15839,-17.08616 -0.72399,-79.78369 -0.4344,-85.86521 0.2896,-6.08151 -1.01358,-61.249547 -0.86878,-66.462275"
       id="path2766" />
    <path
       style="display:inline;fill:none;stroke:#000000;stroke-width:1px;stroke-linecap:butt;stroke-linejoin:miter;stroke-opacity:1"
       d="m 160.94058,671.98289 c 0,0 -5.92569,-3.3916 -4.08271,-6.25845 1.84297,-2.86686 10.68035,-3.71393 12.16656,-3.83076 2.44701,-0.19235 17.44103,-1.42916 21.94608,-1.63393 4.50506,-0.20478 19.71025,0.17177 22.37233,0.17177 2.66207,0 55.94908,1.38373 59.43026,1.38373 3.48118,0 37.0519,0.48195 44.21904,0.0724 7.16713,-0.40955 80.90681,-0.31444 86.43575,0.0951 5.52893,0.40955 32.37294,2.13257 36.26367,2.95167 3.89073,0.8191 10.57805,1.69818 10.27816,5.08425 -0.25162,2.84107 -2.12618,4.71586 -4.78826,6.14929"
       id="path2768"
       sodipodi:nodetypes="csssssssssc" />
    <path
       style="display:inline;fill:none;stroke:#000000;stroke-width:1px;stroke-linecap:butt;stroke-linejoin:miter;stroke-opacity:1"
       d="m 258.03002,682.28813 c 0,0 60.39554,3.70906 80.25874,2.07086 19.86321,-1.6382 75.06594,-2.67663 83.87128,-4.92916 8.80534,-2.25253 19.4426,-4.11315 18.41949,-7.8457 -1.0666,-3.89116 -18.96781,-5.80824 -24.90629,-5.80824 -5.93849,0 -46.20894,-1.92353 -49.69012,-1.71876"
       id="path2771"
       sodipodi:nodetypes="cssssc" />
  </g>
</svg>
