<?xml version="1.0" encoding="UTF-8" standalone="no"?>
<svg
   xmlns:dc="http://purl.org/dc/elements/1.1/"
   xmlns:cc="http://creativecommons.org/ns#"
   xmlns:rdf="http://www.w3.org/1999/02/22-rdf-syntax-ns#"
   xmlns:svg="http://www.w3.org/2000/svg"
   xmlns="http://www.w3.org/2000/svg"
   xmlns:sodipodi="http://sodipodi.sourceforge.net/DTD/sodipodi-0.dtd"
   xmlns:inkscape="http://www.inkscape.org/namespaces/inkscape"
   width="100mm"
   height="100mm"
   viewBox="50 30 100 130"
   version="1.1"
   id="svg8"
   inkscape:version="1.0.2 (e86c870879, 2021-01-15, custom)"
   sodipodi:docname="kakashi.svg">
  <defs
     id="defs2">
    <inkscape:path-effect
       effect="bspline"
       id="path-effect875"
       is_visible="true"
       lpeversion="1"
       weight="33.333333"
       steps="2"
       helper_size="0"
       apply_no_weight="true"
       apply_with_weight="true"
       only_selected="false" />
    <inkscape:path-effect
       effect="bspline"
       id="path-effect867"
       is_visible="true"
       lpeversion="1"
       weight="33.333333"
       steps="2"
       helper_size="0"
       apply_no_weight="true"
       apply_with_weight="true"
       only_selected="false" />
  </defs>
  <sodipodi:namedview
     id="base"
     pagecolor="#ffffff"
     bordercolor="#666666"
     borderopacity="1.0"
     inkscape:pageopacity="0.0"
     inkscape:pageshadow="2"
     inkscape:zoom="1.4142136"
     inkscape:cx="226.39566"
     inkscape:cy="382.32777"
     inkscape:document-units="mm"
     inkscape:current-layer="layer1"
     inkscape:document-rotation="0"
     showgrid="false"
     inkscape:snap-nodes="true"
     showguides="true"
     inkscape:guide-bbox="true"
     inkscape:snap-smooth-nodes="false"
     inkscape:window-width="1858"
     inkscape:window-height="1057"
     inkscape:window-x="54"
     inkscape:window-y="-8"
     inkscape:window-maximized="1">
    <sodipodi:guide
       position="4.1159507,296.06456"
       orientation="0,-1"
       id="guide861" />
  </sodipodi:namedview>
  <metadata
     id="metadata5">
    <rdf:RDF>
      <cc:Work
         rdf:about="">
        <dc:format>image/svg+xml</dc:format>
        <dc:type
           rdf:resource="http://purl.org/dc/dcmitype/StillImage" />
        <dc:title></dc:title>
      </cc:Work>
    </rdf:RDF>
  </metadata>
  <g
     inkscape:label="Слой 1"
     inkscape:groupmode="layer"
     id="layer1">
    <ellipse
       style="fill:#e8d592;fill-opacity:1;fill-rule:evenodd;stroke-width:0.274992"
       id="path10"
       ry="35.624256"
       rx="30.238094"
       cy="104.22693"
       cx="102.05357" />
    <path
       style="fill:#c79e68;fill-opacity:1;stroke:#cab08e;stroke-width:0.1;stroke-linecap:butt;stroke-linejoin:miter;stroke-miterlimit:4;stroke-dasharray:none;stroke-opacity:1"
       d="m 116.09533,92.024903 -0.46301,14.353647 0.46302,16.07344 0.85989,-16.00729 z"
       id="path880-scar"
       sodipodi:nodetypes="cccсс" />
    <path
       id="path865-mask"
       style="fill:#1a1a1a;stroke:#000000;stroke-width:0.264583px;stroke-linecap:butt;stroke-linejoin:miter;stroke-opacity:1"
       d="m 102.06506,104.38743 c -5.469334,0 -9.197271,5.92171 -14.035828,7.47809 -4.838559,1.55639 -9.917488,1.70843 -14.995985,1.86035 1.132975,4.12529 2.266077,8.25081 5.112867,12.41217 2.846789,4.16136 7.775725,8.6981 12.047844,10.99416 4.272116,2.29605 8.071546,2.52134 11.871102,2.7466 3.79956,-0.22526 7.59847,-0.45055 11.87059,-2.7466 4.27212,-2.29606 9.20105,-6.8328 12.04784,-10.99416 2.8468,-4.16136 3.9799,-8.28688 5.11287,-12.41217 -5.07849,-0.15192 -10.15691,-0.30396 -14.99547,-1.86035 -4.83856,-1.55639 -8.56649,-7.47809 -14.03583,-7.47809 z"
       sodipodi:nodetypes="sscsscsscss" />
    <path
       style="fill:#b6a5a5;fill-opacity:1;stroke:#b3a8a8;stroke-width:0.264583px;stroke-linecap:butt;stroke-linejoin:round;stroke-opacity:1"
       d="m 109.86904,96.94905 -4.8948,13.75834 0.92605,-15.478132 -6.350002,14.022922 0.396875,-10.186464 -5.812807,10.163764 1.711766,-14.793972 -7.011458,18.123962 1.190625,-15.345837 -7.672917,18.256257 2.248958,-13.09688 -7.540625,16.00729 2.38125,-16.13958 -9.260416,13.75833 1.858731,-10.38959 -7.811856,2.18751 5.405154,-9.08273 -10.609924,-2.198059 9.013023,-5.82634 -13.533638,-4.560503 14.824455,-5.658054 -15.824097,-5.792629 16.814338,-3.093611 -20.613189,-8.593452 28.537392,-0.799257 -8.137883,-6.240405 15.498068,2.545641 -4.110444,-6.879167 15.439378,5.033732 -1.868133,-6.685431 12.089436,6.059966 2.38791,-5.430607 5.5496,5.982471 6.64668,-3.829811 0.016,6.191117 10.87063,0.967543 -4.39967,4.034896 16.04133,2.976562 -11.50938,4.365625 8.73125,4.894791 -8.59895,2.248959 7.14374,4.233333 -6.08541,2.248958 11.37708,12.170833 -10.31875,-2.910416 1.5875,14.022915 -4.51259,-8.10854 2.66051,13.26792 -7.9375,-14.287504 -0.13229,6.217714 -4.36563,-7.143755 -3.57187,7.276045 -3.175,-7.805212 -4.30945,8.081712 z"
       id="path878-hair"
       sodipodi:nodetypes="ccccccccccccccccccccccccccccccccccccccccccccccccccccccc" />
  </g>
</svg>
