<?xml version="1.0" encoding="UTF-8" standalone="no"?>
<svg
   xmlns:dc="http://purl.org/dc/elements/1.1/"
   xmlns:cc="http://creativecommons.org/ns#"
   xmlns:rdf="http://www.w3.org/1999/02/22-rdf-syntax-ns#"
   xmlns:svg="http://www.w3.org/2000/svg"
   xmlns="http://www.w3.org/2000/svg"
   xmlns:sodipodi="http://sodipodi.sourceforge.net/DTD/sodipodi-0.dtd"
   xmlns:inkscape="http://www.inkscape.org/namespaces/inkscape"
   version="1.1"
   id="svg833"
   width="295.53802"
   height="292.24213"
   viewBox="0 0 295.53802 292.24213"
   sodipodi:docname="moon.svg"
   inkscape:version="1.0.2 (e86c870879, 2021-01-15, custom)">
  <metadata
     id="metadata839">
    <rdf:RDF>
      <cc:Work
         rdf:about="">
        <dc:format>image/svg+xml</dc:format>
        <dc:type
           rdf:resource="http://purl.org/dc/dcmitype/StillImage" />
        <dc:title></dc:title>
      </cc:Work>
    </rdf:RDF>
  </metadata>
  <defs
     id="defs837" />
  <sodipodi:namedview
     pagecolor="#ffffff"
     bordercolor="#666666"
     borderopacity="1"
     objecttolerance="10"
     gridtolerance="10"
     guidetolerance="10"
     inkscape:pageopacity="0"
     inkscape:pageshadow="2"
     inkscape:window-width="1849"
     inkscape:window-height="1057"
     id="namedview835"
     showgrid="false"
     fit-margin-top="0"
     fit-margin-left="0"
     fit-margin-right="0"
     fit-margin-bottom="0"
     inkscape:zoom="1.45"
     inkscape:cx="105.83561"
     inkscape:cy="142.37279"
     inkscape:window-x="63"
     inkscape:window-y="-8"
     inkscape:window-maximized="1"
     inkscape:current-layer="layer1" />
  <g
     inkscape:groupmode="layer"
     id="layer1"
     inkscape:label="vector"
     transform="translate(-271.94049,-40.201886)">
    <path
       style="fill:none;stroke:#000000;stroke-width:1px;stroke-linecap:butt;stroke-linejoin:miter;stroke-opacity:1"
       d="m 269.82759,39.655173 C 269.82759,39.655173 263.7931,47.758621 263.7931,45.775862 m 0,0 C 263.7931,45.773879 263.793096,45.771898 263.793087,45.769919 C 263.793069,45.765964 263.793033,45.762016 263.792979,45.758075 C 263.792885,45.751192 263.792737,45.74433 263.792535,45.737489 C 263.792305,45.729698 263.792005,45.721934 263.791636,45.714198 C 263.791176,45.704566 263.790609,45.694976 263.789935,45.685428 C 263.789197,45.674978 263.788331,45.664578 263.787339,45.654229 C 263.786262,45.643001 263.785036,45.631832 263.783663,45.620722 C 263.782071,45.607838 263.78028,45.595034 263.778294,45.582309 C 263.775758,45.566063 263.772903,45.549947 263.769734,45.53396 C 263.766419,45.517236 263.762761,45.500654 263.758765,45.484212 C 263.754182,45.465355 263.749155,45.446684 263.743694,45.428198 C 263.737802,45.408253 263.731403,45.388523 263.72451,45.369008 C 263.717132,45.34812 263.709187,45.327478 263.700689,45.307081 C 263.691979,45.286175 263.682688,45.265526 263.672831,45.245134 C 263.662026,45.222782 263.650541,45.200738 263.638396,45.179001 C 263.626034,45.156877 263.612988,45.135071 263.599279,45.113582 C 263.585347,45.091744 263.570729,45.070234 263.555448,45.04905 C 263.539472,45.026902 263.522771,45.005111 263.505369,44.983675 C 263.48776,44.961984 263.469434,44.940657 263.450417,44.919693 C 263.429064,44.896153 263.406839,44.87307 263.383779,44.850442 C 262.253846,43.741677 259.11915,43.725681 258.27586,44.568966 m 0,0 C 258.274826,44.57 258.273791,44.571036 258.272756,44.572074 C 258.271206,44.573629 258.269655,44.575188 258.268104,44.576751 C 258.265523,44.579352 258.262942,44.581964 258.26036,44.584587 C 258.25727,44.587726 258.254179,44.59088 258.251087,44.59405 C 258.247491,44.597737 258.243894,44.601444 258.240296,44.605172 C 258.235174,44.610479 258.230051,44.615827 258.224926,44.621216 C 258.219317,44.627115 258.213706,44.633063 258.208094,44.63906 C 258.201498,44.646109 258.194901,44.653225 258.188302,44.660408 C 258.181242,44.668094 258.17418,44.675856 258.167117,44.683694 C 258.159603,44.692033 258.152088,44.700458 258.144572,44.708969 C 258.136616,44.717979 258.128659,44.727084 258.120703,44.736284 C 258.111824,44.746551 258.102945,44.756936 258.094068,44.767437 C 258.084782,44.778421 258.075498,44.789532 258.066218,44.800769 C 258.055574,44.813656 258.044935,44.826708 258.034302,44.839923 C 258.023308,44.853586 258.012321,44.867423 258.001343,44.881431 C 257.99002,44.89588 257.978706,44.910511 257.967404,44.925321 C 257.955308,44.941172 257.943226,44.957228 257.931161,44.973485 C 257.918794,44.990148 257.906445,45.007022 257.894117,45.024103 C 257.881505,45.041578 257.868916,45.05927 257.856352,45.077174 C 257.842637,45.096719 257.828952,45.116517 257.815303,45.136563 C 257.800565,45.158208 257.785868,45.180142 257.771217,45.202358 C 257.756392,45.224838 257.741615,45.247607 257.726892,45.270657 C 257.71036,45.296539 257.693895,45.322775 257.677507,45.349355 C 256.874482,46.651785 256.254575,48.780459 256.81035,50.51724 m 0,0 C 256.81104,50.519395 256.811726,50.521548 256.812408,50.523699 C 256.81343,50.526923 256.814444,50.530143 256.815449,50.533358 C 256.816787,50.537639 256.81811,50.541912 256.819418,50.546178 C 256.822682,50.556821 256.825853,50.567418 256.828931,50.577969 C 256.8323,50.589517 256.835558,50.601009 256.838707,50.612447 C 256.842408,50.62589 256.845957,50.639258 256.849356,50.652552 C 256.854032,50.67084 256.858425,50.688987 256.862539,50.706997 C 256.866843,50.725837 256.870842,50.744526 256.874541,50.763068 C 256.878398,50.782401 256.881929,50.801574 256.88514,50.820591 C 256.888477,50.84036 256.891469,50.85996 256.894121,50.879396 C 256.89712,50.901375 256.899686,50.923144 256.901827,50.944709 C 256.904207,50.968678 256.906063,50.992395 256.907408,51.015869 C 256.909079,51.045029 256.909961,51.073813 256.91008,51.102237 C 256.9102,51.131 256.909538,51.159394 256.908121,51.187436 C 256.906649,51.216561 256.904361,51.245307 256.901288,51.273691 C 256.898027,51.303809 256.893881,51.33352 256.888885,51.362847 C 256.644068,52.799861 254.358291,53.313606 254.13793,55.51724 m 0,0 C 254.137671,55.519826 254.137415,55.52241 254.137161,55.524992 C 254.13678,55.52886 254.136404,55.532723 254.136033,55.536581 C 254.135539,55.541717 254.135054,55.546844 254.134578,55.551962 C 254.133747,55.560901 254.132942,55.569812 254.132164,55.578695 C 254.131278,55.588811 254.130426,55.598891 254.129608,55.608936 C 254.128488,55.622692 254.127432,55.636382 254.126438,55.650006 C 254.124821,55.672177 254.12337,55.694173 254.12208,55.715998 C 254.12073,55.738828 254.119556,55.761472 254.118552,55.783933 C 254.117506,55.807352 254.116645,55.830572 254.115963,55.853599 C 254.11522,55.878676 254.114689,55.903523 254.114362,55.928147 C 254.11398,55.956928 254.113876,55.985405 254.114038,56.013587 C 254.114204,56.042473 254.114649,56.07105 254.115358,56.099328 C 254.11611,56.129291 254.117159,56.158919 254.118489,56.188225 C 254.120025,56.222086 254.121936,56.255517 254.124195,56.288539 C 254.126481,56.321954 254.129124,56.35495 254.132098,56.387548 C 254.13527,56.422321 254.138818,56.456641 254.142709,56.490533 C 254.146727,56.525531 254.151111,56.560072 254.155825,56.594185 C 254.386834,58.265732 255.410851,58.909003 253.01724,61.81035 m 0,0 C 253.012973,61.815522 253.008687,61.820736 253.004382,61.825991 C 252.990053,61.843482 252.975514,61.861432 252.960767,61.879836 C 252.944627,61.899979 252.928238,61.920667 252.911603,61.941893 C 252.893556,61.964922 252.875219,61.988585 252.856597,62.012875 C 252.835001,62.041043 252.813021,62.070054 252.790663,62.099897 C 252.762118,62.137998 252.732957,62.177456 252.703192,62.218247 C 252.672056,62.260916 252.640259,62.305044 252.607814,62.350605 C 252.570603,62.402858 252.532541,62.456996 252.493649,62.512978 C 252.451688,62.573378 252.40876,62.635925 252.364892,62.700569 C 252.317938,62.76976 252.269907,62.841353 252.220832,62.915288 C 252.170532,62.991068 252.119134,63.069308 252.066673,63.149942 C 252.007254,63.241272 251.946471,63.335673 251.884376,63.433049 C 251.821271,63.532008 251.756811,63.63404 251.691048,63.739044 C 251.622293,63.848825 251.552115,63.961855 251.480574,64.078019 C 251.408181,64.195567 251.334392,64.316324 251.259271,64.44017 C 251.181247,64.568802 251.101785,64.700768 251.020957,64.835933 C 246.732685,72.007009 238.597176,88.184961 237.15517,93.44828 m 0,0 C 237.153446,93.454573 237.151717,93.460855 237.149984,93.467125 C 237.147387,93.47652 237.14478,93.48589 237.142163,93.495234 C 237.137807,93.510783 237.133423,93.52626 237.129011,93.541666 C 237.12373,93.560107 237.118409,93.578446 237.113049,93.596683 C 237.106814,93.617895 237.100525,93.63897 237.094183,93.659908 C 237.085155,93.689714 237.076019,93.719243 237.066776,93.748497 C 237.056659,93.780515 237.046414,93.812204 237.036043,93.843567 C 237.023853,93.880428 237.011489,93.916838 236.998952,93.952803 C 236.983622,93.99678 236.968034,94.040091 236.952193,94.082746 C 236.934514,94.130349 236.916519,94.177135 236.898214,94.223117 C 236.879066,94.271217 236.859579,94.318438 236.83976,94.364795 C 236.819096,94.413128 236.798071,94.460521 236.776692,94.506993 C 236.751294,94.562201 236.725397,94.616108 236.699015,94.668744 C 236.670777,94.725082 236.641983,94.779963 236.612648,94.833423 C 236.582581,94.888217 236.551946,94.941518 236.520761,94.993365 C 236.488858,95.046407 236.456378,95.097927 236.423341,95.147966 C 236.388439,95.200829 236.352915,95.252039 236.31679,95.301646 C 236.278835,95.353766 236.240217,95.404116 236.200961,95.452753 C 236.159919,95.503603 236.11818,95.552579 236.075772,95.599747 C 236.032859,95.647477 235.989262,95.693355 235.94501,95.737448 C 235.897806,95.784483 235.849857,95.829487 235.801199,95.872542 C 235.750953,95.917002 235.699952,95.959383 235.648235,95.999775 C 233.114111,97.978976 228.861606,95.182129 227.58621,98.14655 m 0,0 C 227.583818,98.15211 227.581422,98.157727 227.579023,98.1634 C 227.571037,98.182283 227.563011,98.201792 227.554946,98.22192 C 227.546119,98.24395 227.537245,98.266721 227.528325,98.290225 C 227.517842,98.317849 227.507295,98.346486 227.496686,98.376121 C 227.485335,98.407828 227.473912,98.440678 227.462419,98.474654 C 227.450192,98.510802 227.437885,98.548225 227.425501,98.586902 C 227.41239,98.627848 227.399193,98.670199 227.385911,98.713931 C 227.371088,98.762736 227.356159,98.813261 227.341128,98.865472 C 227.325404,98.920088 227.309568,98.976549 227.293623,99.034816 C 227.275335,99.101642 227.256904,99.170844 227.238334,99.242363 C 227.219134,99.316311 227.199785,99.392736 227.180294,99.471574 C 227.157676,99.563058 227.134866,99.657791 227.111872,99.755673 C 227.083307,99.877267 227.054459,100.003719 227.025344,100.134836 C 226.995882,100.267515 226.966146,100.40497 226.936153,100.547001 C 226.905001,100.69452 226.873573,100.846975 226.841887,101.004142 C 225.160803,109.342464 222.753864,130.94214 222.4569,132.24138 m 0,0 C 222.456555,132.242889 222.456215,132.244397 222.45588,132.245904 C 222.455378,132.248162 222.454887,132.250419 222.454407,132.252674 C 222.453608,132.256427 222.452839,132.260176 222.4521,132.26392 C 222.45092,132.269896 222.449817,132.27586 222.44879,132.281813 C 222.447511,132.289225 222.44635,132.296619 222.445307,132.303996 C 222.444165,132.31207 222.443163,132.320124 222.4423,132.328158 C 222.441208,132.338327 222.440339,132.348465 222.43969,132.358572 C 222.438862,132.371476 222.438393,132.38433 222.438279,132.397136 C 222.438159,132.410532 222.438427,132.423876 222.439077,132.43717 C 222.439789,132.451723 222.440959,132.466217 222.44258,132.480654 C 222.444413,132.49698 222.446822,132.513234 222.449797,132.52942 C 222.452981,132.546744 222.456813,132.563991 222.46128,132.581165 C 222.465858,132.598768 222.471103,132.616295 222.477001,132.633753 C 222.48325,132.652251 222.490232,132.670671 222.49793,132.68902 C 222.505778,132.707726 222.51437,132.726358 222.523688,132.744924 C 222.533172,132.763822 222.543409,132.782651 222.55438,132.80142 C 222.566226,132.821686 222.578927,132.841881 222.59246,132.862016 C 222.606154,132.882391 222.6207,132.902704 222.636073,132.922966 C 222.652472,132.94458 222.669812,132.966136 222.688063,132.987646 C 222.706439,133.009303 222.725738,133.030914 222.745931,133.052492 C 222.766238,133.074192 222.787448,133.095858 222.809531,133.117504 C 223.891605,134.178165 227.069069,135.190528 228.7069,137.71552 m 0,0 C 228.710003,137.720304 228.713098,137.725118 228.716185,137.729961 C 228.72646,137.746079 228.736644,137.762518 228.746738,137.779277 C 228.757786,137.79762 228.768726,137.816346 228.77956,137.835453 C 228.791314,137.856182 228.802944,137.87736 228.814451,137.898984 C 228.828748,137.925851 228.842855,137.953407 228.856776,137.981646 C 228.871514,138.011541 228.886044,138.042202 228.900369,138.073622 C 228.916356,138.108687 228.932089,138.144698 228.947574,138.181646 C 228.963772,138.220296 228.979698,138.259972 228.99536,138.300664 C 229.013322,138.347333 229.030936,138.395338 229.048212,138.444665 C 229.066851,138.497884 229.085097,138.552642 229.102963,138.60892 C 229.122086,138.669156 229.140773,138.731133 229.159041,138.794829 C 229.177765,138.860115 229.196048,138.927206 229.213908,138.996078 C 229.234137,139.074086 229.253823,139.154379 229.272991,139.236922 C 229.292471,139.320806 229.311416,139.407014 229.329852,139.495508 C 229.349127,139.588028 229.367846,139.683047 229.386039,139.780522 C 229.404449,139.879158 229.42232,139.980309 229.439684,140.083931 C 229.457231,140.188649 229.47426,140.29589 229.490804,140.405609 C 229.508404,140.522332 229.525454,140.641859 229.541993,140.764136 C 230.373584,146.912484 229.912862,160.012953 233.08654,173.10438 m 0,0 C 233.090441,173.120473 233.094352,173.136575 233.098273,173.152686 C 233.104149,173.176829 233.110047,173.200993 233.115968,173.225178 C 233.127791,173.273475 233.139703,173.321855 233.151704,173.370318 C 233.167657,173.434741 233.183766,173.49931 233.200029,173.564022 C 233.220277,173.644588 233.240765,173.725377 233.26149,173.806385 C 233.284174,173.895048 233.307142,173.983973 233.330391,174.073154 C 233.355615,174.169908 233.381169,174.266964 233.40705,174.364316 C 233.437064,174.477212 233.467517,174.590506 233.498403,174.704188 C 233.540026,174.857391 233.582436,175.011299 233.625616,175.165887 C 233.684143,175.375419 233.744086,175.586202 233.805405,175.798174 C 233.868255,176.015437 233.93255,176.23395 233.998249,176.453647 C 234.070262,176.694459 234.143961,176.936694 234.21929,177.180266 C 234.303382,177.452174 234.389505,177.725748 234.477582,178.000868 C 234.566708,178.279266 234.657834,178.559247 234.75088,178.840687 C 234.855358,179.156704 234.962256,179.474562 235.07146,179.794084 C 240.422467,195.450669 251.310834,215.103934 254.31035,218.10345 m 0,0 C 254.313798,218.106898 254.317239,218.110342 254.320672,218.113782 C 254.325817,218.118937 254.330945,218.124083 254.336056,218.12922 C 254.342861,218.136059 254.349636,218.142882 254.356381,218.149689 C 254.366478,218.159879 254.376509,218.170033 254.386473,218.180152 C 254.403031,218.196966 254.419406,218.213682 254.435599,218.2303 C 254.453322,218.248489 254.470828,218.266561 254.488119,218.284517 C 254.513131,218.310492 254.537692,218.336225 254.561808,218.361719 C 254.590216,218.391751 254.618006,218.421452 254.645188,218.450828 C 254.682031,218.490645 254.717757,218.529864 254.752389,218.568499 C 254.787885,218.608099 254.822232,218.647085 254.855455,218.685473 C 254.889443,218.724745 254.922255,218.76339 254.953917,218.801425 C 254.987366,218.841606 255.019532,218.881106 255.050447,218.919943 C 255.081914,218.959473 255.112085,218.998317 255.140994,219.036494 C 255.170373,219.075292 255.198448,219.113402 255.225255,219.150844 C 255.253281,219.18999 255.279921,219.228406 255.305215,219.266116 C 255.33081,219.304276 255.355027,219.341713 255.377908,219.378452 C 255.401673,219.416611 255.423996,219.454017 255.444924,219.490697 C 255.467131,219.529618 255.487767,219.567722 255.506889,219.605042 C 256.443862,221.433744 253.744652,221.380958 253.99496,223.33335 m 0,0 C 253.995265,223.335727 253.995573,223.338113 253.995885,223.340508 C 253.996353,223.344097 253.996829,223.347705 253.997313,223.351333 C 253.997958,223.356163 253.998617,223.361028 253.999291,223.365928 C 254.000299,223.373263 254.00134,223.380675 254.002414,223.388165 C 254.004198,223.400611 254.006073,223.41327 254.008038,223.426141 C 254.010189,223.440228 254.012448,223.454569 254.014815,223.469161 C 254.017597,223.486312 254.020529,223.50381 254.02361,223.521652 C 254.027849,223.546195 254.032371,223.571388 254.037178,223.597222 C 254.042206,223.624246 254.047545,223.651971 254.053195,223.680386 C 254.059381,223.711493 254.06594,223.743427 254.072873,223.776173 C 254.080713,223.813205 254.089032,223.851275 254.09783,223.890363 C 254.107247,223.932201 254.117213,223.975205 254.12773,224.019349 C 254.13851,224.064595 254.149868,224.111039 254.161807,224.158653 C 254.174457,224.209104 254.187758,224.260869 254.201712,224.313914 C 254.215938,224.367993 254.230843,224.423403 254.246429,224.48011 C 254.262293,224.537828 254.278862,224.596889 254.296139,224.657256 C 254.315343,224.724356 254.335421,224.79307 254.356376,224.863347 C 255.532829,228.808918 259.47304,237.682055 266.67412,242.53495 m 0,0 C 266.682532,242.540619 266.690942,242.546286 266.699349,242.55195 C 266.711948,242.560438 266.724541,242.568921 266.737129,242.577398 C 266.770647,242.59997 266.804128,242.622504 266.837572,242.645 C 266.87921,242.673008 266.920791,242.700957 266.962314,242.728846 C 267.007761,242.759371 267.05314,242.789825 267.09845,242.820207 C 267.151703,242.855916 267.204861,242.891526 267.257923,242.927036 C 267.314696,242.965029 267.371359,243.002909 267.427912,243.040674 C 267.488081,243.080853 267.548126,243.120903 267.608046,243.160822 C 267.683375,243.211007 267.758507,243.260986 267.833442,243.310756 C 267.93501,243.378216 268.036215,243.445293 268.137055,243.511983 C 268.240412,243.580337 268.343385,243.648284 268.445972,243.715819 C 268.554671,243.787378 268.662936,243.858474 268.770766,243.929102 C 268.880696,244.001106 268.990174,244.072623 269.099196,244.143647 C 269.210162,244.215938 269.320656,244.287718 269.430676,244.35898 C 269.542484,244.431401 269.653802,244.503287 269.764627,244.574632 C 269.880494,244.649223 269.995822,244.723222 270.110607,244.796622 C 270.22676,244.870896 270.342357,244.944556 270.457395,245.017593 C 270.573649,245.091402 270.689332,245.164576 270.804441,245.237105 C 270.926897,245.314264 271.048703,245.390694 271.169854,245.466385 C 277.261598,249.272278 281.698161,251.208944 283.92508,249.97177 m 0,0 C 283.927823,249.970246 283.930584,249.968747 283.933362,249.967274 C 283.937525,249.965066 283.941727,249.962915 283.945968,249.960821 C 283.954438,249.956638 283.963064,249.952681 283.971846,249.948948 C 283.986439,249.942746 284.001463,249.937164 284.016916,249.932196 C 284.03383,249.926758 284.051258,249.922056 284.069198,249.918082 C 284.090284,249.913412 284.112077,249.909748 284.134575,249.907078 C 284.162085,249.903813 284.190649,249.902034 284.220261,249.90172 C 284.253308,249.901369 284.287661,249.902842 284.323311,249.906108 C 284.360603,249.909525 284.399315,249.914904 284.439438,249.92221 C 284.483363,249.930209 284.52898,249.940518 284.576276,249.953091 C 284.625304,249.966125 284.676137,249.981592 284.728762,249.999441 C 284.783174,250.017896 284.839501,250.038898 284.897729,250.06239 C 284.962795,250.088641 285.030235,250.118001 285.100029,250.150392 C 285.171565,250.183591 285.245574,250.219974 285.322034,250.259457 C 285.41143,250.30562 285.504177,250.35602 285.600241,250.410521 C 285.700675,250.467502 285.804734,250.528966 285.912379,250.594758 C 286.021306,250.661334 286.133905,250.732342 286.250135,250.807622 C 286.367593,250.883698 286.488759,250.964137 286.613591,251.048773 C 286.746391,251.138812 286.88334,251.233601 287.024387,251.332941 C 294.116514,256.327952 311.569298,272.82934 332.93103,275.51724 m 0,0 C 332.957064,275.520516 332.983085,275.523797 333.009092,275.527083 C 333.048063,275.532007 333.087003,275.536942 333.125913,275.541888 C 333.177715,275.548473 333.229462,275.555078 333.281155,275.561702 C 333.345642,275.569966 333.410044,275.57826 333.474362,275.586584 C 333.577014,275.599869 333.679452,275.61323 333.781677,275.626666 C 333.921675,275.645067 334.061275,275.663608 334.200482,275.682286 C 334.364094,275.704239 334.527163,275.726381 334.689697,275.748706 C 334.863596,275.772592 335.036883,275.796687 335.209568,275.820984 C 335.442286,275.853728 335.67391,275.88684 335.904465,275.920301 C 336.216964,275.965654 336.527499,276.011649 336.836131,276.058241 C 337.152467,276.105996 337.466803,276.154378 337.779205,276.203339 C 338.110218,276.255216 338.43906,276.307743 338.765809,276.360863 C 339.098924,276.415018 339.429863,276.469788 339.758709,276.525114 C 340.09342,276.581426 340.425962,276.638313 340.756423,276.695711 C 341.113246,276.757688 341.467643,276.820261 341.819723,276.88335 C 342.175997,276.94719 342.529899,277.011558 342.881542,277.07637 C 343.246773,277.143686 343.609568,277.211481 343.970054,277.279662 C 344.333433,277.34839 344.694466,277.41751 345.053283,277.486926 C 345.414545,277.556815 345.773561,277.627004 346.130464,277.697395 C 346.48938,277.768183 346.846159,277.839176 347.200936,277.910274 C 364.585004,281.394059 377.162797,285.12984 400.86207,277.41379 m 0,0 C 400.891725,277.404135 400.921346,277.394492 400.950932,277.384861 C 400.995266,277.370428 401.039523,277.356022 401.083702,277.341643 C 401.157224,277.317713 401.230531,277.293857 401.303624,277.270075 C 401.391116,277.241608 401.478301,277.213246 401.56518,277.184989 C 401.666235,277.152121 401.766876,277.119395 401.867106,277.086811 C 402.024058,277.035787 402.180001,276.985109 402.334941,276.934776 C 402.517045,276.875619 402.697764,276.816938 402.877109,276.758729 C 403.068995,276.69645 403.259308,276.634712 403.448062,276.57351 C 403.662271,276.504055 403.874473,276.43529 404.084688,276.367209 C 404.319288,276.291231 404.551414,276.216105 404.781093,276.141821 C 405.02135,276.064116 405.25893,275.987333 405.493866,275.911462 C 405.738818,275.832356 405.980895,275.754241 406.220134,275.677105 C 406.492508,275.589286 406.761203,275.502736 407.026274,275.417437 C 407.299689,275.329453 407.569248,275.242801 407.835011,275.157461 C 408.119466,275.066119 408.399571,274.97628 408.6754,274.887921 C 408.958114,274.797356 409.236336,274.708346 409.510144,274.620865 C 409.810268,274.524976 410.105089,274.430924 410.39471,274.338675 C 410.699005,274.241752 410.99756,274.14682 411.290495,274.05384 C 411.596759,273.956629 411.89688,273.861552 412.190995,273.768564 C 412.488613,273.674468 412.780082,273.582512 413.065543,273.492649 C 413.378061,273.394268 413.683379,273.298396 413.981683,273.204972 C 414.28167,273.111021 414.574563,273.019546 414.860552,272.930486 C 428.874029,268.566539 426.311479,270 429.48276,270 m 0,0 C 429.486726,270 429.490688,270.000002 429.494647,270.000006 C 429.50058,270.000013 429.506505,270.000025 429.512423,270.000042 C 429.520302,270.000064 429.528168,270.000095 429.536021,270.000135 C 429.549736,270.000204 429.563412,270.000299 429.57705,270.00042 C 429.596464,270.000593 429.6158,270.000818 429.63506,270.001093 C 429.65614,270.001394 429.677128,270.001755 429.698026,270.002174 C 429.724478,270.002704 429.750786,270.003327 429.776954,270.004037 C 429.806651,270.004843 429.836169,270.005762 429.865513,270.006786 C 429.898261,270.007929 429.930793,270.009203 429.963117,270.010599 C 429.99693,270.012059 430.030516,270.013652 430.063884,270.015366 C 430.098674,270.017153 430.133228,270.019071 430.167556,270.021108 C 430.204939,270.023326 430.242054,270.025685 430.278916,270.028167 C 430.323658,270.03118 430.368026,270.034375 430.412045,270.037722 C 430.458687,270.041268 430.504938,270.044985 430.550827,270.048836 C 430.59761,270.052762 430.644018,270.056828 430.690082,270.060995 C 430.743017,270.065784 430.795498,270.070707 430.847574,270.075706 C 433.771249,270.356366 435.415948,270.876715 444.31035,261.37931 m 0,0 C 444.320522,261.368448 444.330685,261.357606 444.340838,261.346783 C 444.356052,261.330565 444.371245,261.314391 444.386416,261.298261 C 444.416713,261.266049 444.446924,261.234013 444.47705,261.202151 C 444.512091,261.16509 444.547016,261.128265 444.581827,261.091674 C 444.631382,261.039585 444.680705,260.98797 444.729798,260.936826 C 444.78353,260.880849 444.836986,260.825436 444.89017,260.770581 C 444.952678,260.706109 445.01481,260.642408 445.076571,260.579469 C 445.15209,260.502509 445.227054,260.426688 445.301473,260.35199 C 445.384525,260.268627 445.466898,260.186663 445.548605,260.106074 C 445.634075,260.021773 445.718817,259.938977 445.802846,259.85766 C 445.894838,259.768637 445.985976,259.681386 446.076279,259.595873 C 446.169889,259.507228 446.262603,259.42045 446.354442,259.335501 C 446.461786,259.236211 446.567935,259.139419 446.672926,259.045063 C 446.780538,258.948352 446.886933,258.854201 446.992149,258.762543 C 447.107478,258.662076 447.221391,258.564604 447.333938,258.470041 C 447.452188,258.370687 447.568931,258.274543 447.684226,258.181509 C 447.808312,258.081381 447.93072,257.984855 448.051524,257.891804 C 454.833817,252.66766 456.55979,258.398472 466.2069,252.75862 m 0,0 C 466.218107,252.752068 466.229309,252.745516 466.240506,252.738963 C 466.257285,252.729144 466.274053,252.719324 466.29081,252.709502 C 466.318697,252.693157 466.346554,252.676809 466.374381,252.660457 C 466.40769,252.640884 466.440956,252.621306 466.47418,252.601723 C 466.512825,252.578945 466.551412,252.55616 466.589941,252.533369 C 466.63382,252.507413 466.677625,252.481448 466.721355,252.455474 C 466.775799,252.423136 466.830128,252.390784 466.884342,252.358417 C 466.943679,252.322991 467.002878,252.287547 467.06194,252.252084 C 467.126017,252.21361 467.189933,252.175114 467.253688,252.136596 C 467.332904,252.088737 467.411872,252.040843 467.490594,251.992911 C 467.58956,251.932653 467.688137,251.872336 467.786328,251.811957 C 467.919418,251.730118 468.051799,251.648164 468.183479,251.566086 C 468.318446,251.481959 468.452676,251.397702 468.586178,251.313305 C 468.727633,251.22388 468.868271,251.134298 469.008101,251.044547 C 469.150655,250.953048 469.29237,250.861373 469.433256,250.76951 C 469.581281,250.672993 469.728391,250.576269 469.874598,250.479323 C 470.027458,250.377966 470.179331,250.276366 470.330232,250.174507 C 470.482931,250.071435 470.634634,249.968098 470.785356,249.864479 C 470.946133,249.753947 471.105794,249.643093 471.264357,249.531898 C 471.428094,249.417074 471.590659,249.301886 471.752073,249.18631 C 479.661336,243.5231 484.805116,236.929898 489.48276,226.72414 m 0,0 C 489.48845,226.711726 489.49413,226.699331 489.4998,226.686955 C 489.508297,226.66841 489.516771,226.649907 489.525223,226.631447 C 489.536476,226.60687 489.54769,226.582368 489.558865,226.557941 C 489.578383,226.51528 489.597782,226.472847 489.617063,226.430642 C 489.639022,226.382576 489.660828,226.334805 489.682482,226.287327 C 489.709441,226.228216 489.736165,226.169559 489.762655,226.111353 C 489.791649,226.047646 489.820363,225.984478 489.8488,225.921845 C 489.879651,225.853894 489.910176,225.786572 489.940377,225.719873 C 489.977902,225.636999 490.014928,225.555087 490.051461,225.474125 C 490.090137,225.388413 490.12826,225.303765 490.165838,225.220168 C 490.207775,225.126874 490.249032,225.034888 490.289619,224.94419 C 490.332075,224.849315 490.373798,224.75585 490.4148,224.663773 C 490.466099,224.54857 490.516269,224.435539 490.565331,224.324636 C 490.617843,224.205933 490.669086,224.089668 490.719087,223.975788 C 490.770336,223.859065 490.82028,223.744847 490.868948,223.633075 C 490.922293,223.510561 490.974105,223.390987 491.024422,223.274276 C 491.075636,223.155483 491.125302,223.039657 491.173459,222.926716 C 491.222399,222.811939 491.269781,222.700143 491.315647,222.591242 C 491.3636,222.477386 491.409897,222.366696 491.454585,222.259074 C 491.499806,222.15017 491.54338,222.044409 491.585357,221.94169 C 491.630134,221.832118 491.673094,221.726007 491.714298,221.623236 C 491.756846,221.517112 491.797522,221.414549 491.836392,221.315414 C 493.741001,216.45781 491.309644,219.830205 492.41379,215.68966 m 0,0 C 492.415859,215.681901 492.417948,215.674113 492.420057,215.666295 C 492.427077,215.640273 492.43432,215.613921 492.441784,215.587243 C 492.449953,215.558043 492.458386,215.528452 492.467081,215.498474 C 492.4773,215.46324 492.48788,215.427472 492.498817,215.391176 C 492.51219,215.346794 492.526097,215.301623 492.540528,215.255675 C 492.556633,215.204397 492.573392,215.152152 492.590793,215.098957 C 492.608995,215.043312 492.627899,214.986628 492.647492,214.928925 C 492.668942,214.865754 492.691218,214.801362 492.714302,214.735775 C 492.738231,214.667786 492.763028,214.598513 492.788674,214.527985 C 492.815191,214.455062 492.842615,214.380797 492.870924,214.305223 C 492.903775,214.217526 492.937818,214.128066 492.97302,214.036894 C 493.01675,213.923635 493.062268,213.807733 493.109509,213.689286 C 493.157312,213.569428 493.20688,213.446964 493.258145,213.321994 C 493.311391,213.192195 493.366468,213.059693 493.4233,212.9246 C 493.480588,212.788423 493.53966,212.649614 493.600438,212.508288 C 493.661631,212.365999 493.724554,212.221159 493.789128,212.073886 C 493.854066,211.925782 493.920673,211.775217 493.98887,211.622311 C 497.330524,204.129912 504.488681,191.016711 506.03448,186.37931 m 0,0 C 506.036377,186.37362 506.038274,186.367938 506.040172,186.362265 C 506.043016,186.353763 506.045861,186.345279 506.048707,186.336814 C 506.052496,186.325544 506.056287,186.314306 506.06008,186.3031 C 506.066704,186.283528 506.073335,186.264054 506.079972,186.244677 C 506.08942,186.217092 506.098881,186.189704 506.108355,186.16251 C 506.118724,186.132747 506.129108,186.103217 506.139507,186.073917 C 506.15267,186.036832 506.165857,186.000116 506.179068,185.963765 C 506.195935,185.917355 506.212842,185.87154 506.229789,185.826309 C 506.247516,185.778995 506.265287,185.73232 506.283101,185.686273 C 506.303532,185.633462 506.324021,185.581477 506.344567,185.5303 C 506.366734,185.475085 506.388968,185.420811 506.411269,185.367456 C 506.435138,185.310349 506.459083,185.254295 506.483105,185.199266 C 506.507727,185.142864 506.532429,185.08754 506.557211,185.033264 C 506.582564,184.977738 506.608001,184.92331 506.633522,184.869948 C 506.661382,184.811696 506.689342,184.754715 506.717402,184.698965 C 506.748592,184.636997 506.779905,184.57655 506.811342,184.517568 C 508.576305,181.206136 510.731142,182.512618 513.27586,178.62069 m 0,0 C 513.278791,178.616207 513.281721,178.611718 513.28465,178.607223 C 513.289039,178.600488 513.293426,178.593739 513.29781,178.586977 C 513.303647,178.577974 513.30948,178.568947 513.315309,178.559896 C 513.324035,178.546347 513.332751,178.532745 513.341458,178.51909 C 513.355926,178.496399 513.370368,178.473562 513.384784,178.45058 C 513.400562,178.425426 513.416308,178.400099 513.432022,178.3746 C 513.450492,178.344631 513.468917,178.314425 513.487297,178.283985 C 513.506963,178.251416 513.526577,178.21858 513.546139,178.18548 C 513.566952,178.150264 513.587705,178.114749 513.608398,178.078941 C 513.630305,178.041032 513.652145,178.002793 513.673916,177.964231 C 513.699562,177.918804 513.725113,177.872928 513.750566,177.826612 C 513.785066,177.763834 513.819387,177.700248 513.853524,177.635876 C 513.888513,177.569897 513.923309,177.503092 513.957906,177.435486 C 513.998356,177.356442 514.038534,177.276302 514.078431,177.195106 C 514.120143,177.110215 514.161549,177.02417 514.202638,176.937015 C 514.244216,176.848821 514.285469,176.759491 514.326388,176.66907 C 514.367739,176.577693 514.408748,176.485203 514.449404,176.391647 C 514.491546,176.294671 514.533309,176.19655 514.574681,176.097336 C 514.616335,175.997446 514.657593,175.896449 514.698442,175.794399 C 516.752416,170.663138 517.773176,162.870073 516.2069,159.31035 m 0,0 C 516.205003,159.30604 516.203109,159.301733 516.201218,159.297429 C 516.198384,159.29098 516.195556,159.284538 516.192733,159.278103 C 516.188036,159.267395 516.183355,159.256707 516.17869,159.246039 C 516.173106,159.233269 516.167544,159.220528 516.162005,159.207816 C 516.155563,159.19303 516.149151,159.178282 516.14277,159.163572 C 516.135503,159.14682 516.128276,159.130118 516.121089,159.113465 C 516.112141,159.092732 516.103254,159.072075 516.094428,159.051493 C 516.084768,159.028966 516.075181,159.006528 516.065667,158.984179 C 516.054485,158.957912 516.043403,158.931767 516.032421,158.905742 C 516.018992,158.873919 516.005712,158.842275 515.992579,158.810806 C 515.977923,158.775687 515.96345,158.740786 515.949159,158.706097 C 515.93421,158.66981 515.919459,158.633756 515.904904,158.597927 C 515.888211,158.556835 515.871776,158.51604 515.855595,158.475532 C 515.835955,158.426364 515.816689,158.377618 515.797791,158.329277 C 515.774314,158.269225 515.751405,158.209797 515.729051,158.150959 C 515.706431,158.091421 515.684379,158.032487 515.662883,157.974122 C 515.639953,157.911863 515.617655,157.850251 515.595973,157.789243 C 514.476502,154.639305 515,153.09978 515,147.24138 m 0,0 C 515,147.234656 514.999999,147.227904 514.999997,147.221124 C 514.999993,147.210965 514.999987,147.200744 514.999978,147.190461 C 514.99996,147.169925 514.999931,147.149142 514.999891,147.128113 C 514.999838,147.100158 514.999766,147.071769 514.999674,147.042949 C 514.99956,147.007067 514.999416,146.970517 514.999242,146.933306 C 514.999051,146.892578 514.998824,146.851058 514.998561,146.808755 C 514.998275,146.76286 514.997946,146.716042 514.997574,146.668313 C 514.997143,146.612964 514.996654,146.556389 514.996106,146.498606 C 514.995406,146.424834 514.99461,146.349093 514.993717,146.27142 C 514.992783,146.19017 514.991743,146.106805 514.990596,146.021367 C 514.989281,145.923379 514.987824,145.822664 514.986224,145.719285 C 514.984498,145.607748 514.982605,145.49311 514.980543,145.37545 C 514.978336,145.249514 514.975936,145.120116 514.973339,144.987352 C 514.970677,144.851274 514.967808,144.71166 514.964729,144.568613 C 514.961242,144.406592 514.957486,144.240167 514.953456,144.06949 C 514.94936,143.896039 514.944981,143.718196 514.940314,143.53612 C 514.935435,143.34576 514.930241,143.150773 514.924726,142.951341 C 514.919146,142.749533 514.913238,142.543173 514.906996,142.332448 C 514.900688,142.119496 514.894038,141.902087 514.887041,141.680414 C 514.879788,141.450638 514.872162,141.216281 514.864156,140.977559 C 514.450815,128.651969 513.024842,104.690029 509.65517,98.7931 m 0,0 C 509.651032,98.785859 509.646907,98.778624 509.642794,98.771396 C 509.636631,98.760565 509.630496,98.749749 509.624389,98.738948 C 509.614227,98.720973 509.604142,98.70304 509.594135,98.685149 C 509.578164,98.656594 509.562391,98.628145 509.546814,98.599801 C 509.527421,98.564513 509.508332,98.529388 509.489545,98.494424 C 509.468983,98.456156 509.448783,98.418082 509.428941,98.380199 C 509.405621,98.335675 509.382796,98.291416 509.360461,98.247419 C 509.336564,98.200346 509.313228,98.153573 509.290447,98.107098 C 509.266209,98.057651 509.242599,98.008541 509.219608,97.959763 C 509.195269,97.908123 509.171624,97.856856 509.148664,97.805957 C 509.123041,97.749153 509.098271,97.692807 509.074342,97.636913 C 509.049311,97.578445 509.025199,97.520471 509.001992,97.462983 C 508.976586,97.400048 508.952264,97.337696 508.929007,97.275917 C 508.904899,97.211876 508.881935,97.148451 508.860094,97.085632 C 508.837512,97.02068 508.81613,96.956375 508.795924,96.892705 C 508.772477,96.818821 508.750614,96.745792 508.730298,96.6736 C 508.708772,96.597107 508.688983,96.521553 508.670886,96.446915 C 508.652436,96.370823 508.635745,96.295684 508.620766,96.221474 C 508.60552,96.14594 508.592047,96.071369 508.580298,95.997735 C 508.567238,95.915888 508.556308,95.835199 508.54744,95.755634 C 508.049542,91.288618 514.049429,90.36321 514.48276,86.89655 m 0,0 C 514.483277,86.892412 514.48379,86.888273 514.484298,86.884134 C 514.485314,86.875864 514.486312,86.867591 514.487292,86.859315 C 514.489003,86.844861 514.49066,86.830399 514.492263,86.815929 C 514.494089,86.799449 514.495845,86.782958 514.497531,86.766457 C 514.499631,86.745913 514.501623,86.725352 514.503508,86.704775 C 514.505571,86.682253 514.507507,86.659711 514.509316,86.63715 C 514.511279,86.612673 514.513093,86.588173 514.51476,86.56365 C 514.516693,86.535211 514.518428,86.506741 514.519968,86.478241 C 514.521935,86.441854 514.523583,86.405417 514.524919,86.368931 C 514.526316,86.330764 514.527371,86.292543 514.52809,86.254269 C 514.528914,86.210372 514.529297,86.166405 514.529247,86.122369 C 514.529193,86.074858 514.528636,86.027266 514.527587,85.979595 C 514.526464,85.928571 514.524778,85.877456 514.522543,85.826251 C 514.520252,85.773768 514.517385,85.721191 514.513957,85.668522 C 514.510199,85.610791 514.505767,85.552949 514.500682,85.494998 C 514.495506,85.436013 514.489653,85.376916 514.483145,85.317708 C 514.476531,85.257537 514.469241,85.197252 514.461297,85.136855 C 514.452991,85.07371 514.44397,85.010443 514.434261,84.947057 C 514.424436,84.882916 514.413905,84.818652 514.402696,84.754269 C 514.39011,84.681976 514.376668,84.609532 514.362409,84.536941 C 513.663722,80.979996 511.002615,77.070641 510.86207,73.27586 m 0,0 C 510.861898,73.271205 510.861716,73.266559 510.861524,73.261922 C 510.861236,73.254974 510.860926,73.248046 510.860594,73.241138 C 510.860042,73.229643 510.859429,73.218204 510.858755,73.206822 C 510.857949,73.193197 510.857056,73.179653 510.856076,73.166189 C 510.854937,73.150528 510.853681,73.134976 510.852308,73.119531 C 510.850354,73.097544 510.848165,73.075776 510.845742,73.054224 C 510.84309,73.030635 510.840158,73.007305 510.836949,72.984231 C 510.833178,72.957112 510.829024,72.930347 510.824491,72.903931 C 510.819641,72.875668 510.814358,72.847805 510.808646,72.820336 C 510.802569,72.791111 510.796007,72.762332 510.788967,72.733992 C 510.781514,72.70399 510.773524,72.67448 510.765005,72.645455 C 510.755498,72.613063 510.745332,72.581274 510.734518,72.550077 C 510.723205,72.517444 510.711183,72.485459 510.698463,72.454109 C 510.683874,72.418154 510.668367,72.383035 510.651959,72.348733 C 510.634994,72.313266 510.617066,72.278672 510.598195,72.24493 C 510.57873,72.210126 510.558262,72.176228 510.536812,72.143213 C 510.513853,72.107876 510.489769,72.073551 510.464586,72.040209 C 510.438775,72.006035 510.41181,71.972894 510.383719,71.940755 C 510.35498,71.907875 510.325063,71.876044 510.293998,71.845229 C 510.260086,71.81159 510.224806,71.779162 510.188197,71.747902 C 510.148668,71.714148 510.10759,71.681756 510.065012,71.650672 C 510.021927,71.619218 509.977307,71.589103 509.931203,71.560271 C 509.879434,71.527897 509.825794,71.497141 509.770356,71.467924 C 507.053913,70.036303 500.020235,72.300141 497.24138,68.96552 m 0,0 C 497.237932,68.961382 497.234465,68.957216 497.23098,68.953022 C 497.225757,68.946737 497.220492,68.940389 497.215186,68.933978 C 497.208121,68.925443 497.200983,68.916797 497.193771,68.90804 C 497.175777,68.886191 497.157325,68.863652 497.138418,68.840429 C 497.117724,68.815012 497.096485,68.788775 497.074705,68.761727 C 497.049107,68.729937 497.022762,68.697027 496.995677,68.663011 C 496.958419,68.616218 496.919762,68.567332 496.879724,68.516389 C 496.837842,68.463099 496.794448,68.407558 496.749565,68.349807 C 496.702768,68.289594 496.654352,68.226978 496.60434,68.162006 C 496.552353,68.094468 496.498642,68.024384 496.443234,67.951807 C 496.380576,67.869732 496.315748,67.784469 496.248789,67.696093 C 496.174364,67.597863 496.097307,67.495787 496.017672,67.389969 C 495.918744,67.258516 495.815837,67.121288 495.709054,66.978485 C 495.600999,66.833981 495.488976,66.683768 495.373091,66.528053 C 495.252728,66.366321 495.128199,66.198653 494.999624,66.025281 C 494.863196,65.841319 494.722213,65.650935 494.576818,65.454405 C 487.452441,55.824439 469.734741,31.438477 458.27586,24.827586 m 0,0 C 458.262412,24.819827 458.248942,24.812062 458.23545,24.80429 C 458.215232,24.792644 458.194964,24.780983 458.174647,24.769307 C 458.147598,24.753762 458.120462,24.73819 458.093239,24.722592 C 458.045694,24.69535 457.997884,24.668027 457.949811,24.640624 C 457.895063,24.609416 457.839974,24.578105 457.784547,24.546691 C 457.70864,24.50367 457.6321,24.460457 457.554935,24.417055 C 457.429359,24.346425 457.302128,24.275295 457.173278,24.203678 C 457.038493,24.128762 456.901937,24.053313 456.76365,23.977346 C 456.619468,23.898141 456.473404,23.818373 456.325506,23.738059 C 456.164445,23.650597 456.001208,23.562488 455.835856,23.473753 C 455.64259,23.370038 455.446434,23.265469 455.247485,23.16008 C 455.043569,23.05206 454.836719,22.94318 454.627038,22.833477 C 454.404865,22.717238 454.179514,22.600075 453.951109,22.482033 C 453.687206,22.345646 453.419225,22.208085 453.147356,22.06942 C 452.872249,21.929103 452.593161,21.787656 452.310289,21.64515 C 452.008546,21.493137 451.702498,21.339919 451.392384,21.185583 C 451.07215,21.026211 450.747581,20.865648 450.41894,20.703989 C 434.315507,12.782694 408.435259,2.2307 403.7931,0.344828 m 0,0 C 403.784824,0.341466 403.776559,0.338114 403.768304,0.334772 C 403.740829,0.323649 403.71347,0.312637 403.686226,0.301735 C 403.656407,0.289803 403.626726,0.278002 403.597181,0.266331 C 403.565128,0.253669 403.533235,0.241159 403.501502,0.2288 C 403.464702,0.214467 403.428116,0.200336 403.391743,0.186403 C 403.345304,0.168614 403.299211,0.151148 403.253459,0.133997 C 403.2056,0.116056 403.158115,0.098459 403.110998,0.081197 C 403.05696,0.061399 403.003406,0.042042 402.950329,0.023112 C 402.893063,0.002688 402.836352,-0.017239 402.780186,-0.036687 C 402.720069,-0.057502 402.660576,-0.077768 402.601695,-0.097506 C 402.541345,-0.117737 402.481638,-0.137414 402.422561,-0.156559 C 402.355647,-0.178244 402.289541,-0.199247 402.224224,-0.219602 C 402.157846,-0.240288 402.092283,-0.260304 402.027515,-0.279686 C 401.9598,-0.299949 401.892954,-0.319519 401.826955,-0.338435 C 401.76017,-0.357577 401.694251,-0.37605 401.629176,-0.393895 C 401.561586,-0.41243 401.494906,-0.430288 401.429109,-0.447516 C 397.938325,-1.361526 396.934162,-0.501575 394.48276,-4.827586 m 0,0 C 394.479829,-4.832758 394.476874,-4.837925 394.473895,-4.843086 C 394.469431,-4.85082 394.464913,-4.858542 394.460342,-4.866252 C 394.452735,-4.879082 394.44498,-4.891878 394.437077,-4.90464 C 394.427617,-4.919916 394.417946,-4.935143 394.408065,-4.950321 C 394.396571,-4.967976 394.384793,-4.985564 394.372733,-5.003087 C 394.355564,-5.028032 394.337823,-5.052843 394.319516,-5.077522 C 394.299479,-5.104533 394.278764,-5.131385 394.257378,-5.158078 C 394.232243,-5.189451 394.206182,-5.220606 394.179207,-5.251543 C 394.146223,-5.289372 394.111872,-5.326876 394.076177,-5.364057 C 394.036342,-5.405551 393.994833,-5.446644 393.951682,-5.487338 C 393.906544,-5.529906 393.859609,-5.572038 393.810913,-5.613738 C 393.760141,-5.657215 393.707455,-5.700222 393.652896,-5.742764 C 393.58808,-5.793303 393.520621,-5.843185 393.450587,-5.892417 C 393.375627,-5.945111 393.297717,-5.99706 393.216941,-6.048273 C 393.134149,-6.100765 393.048346,-6.152483 392.959623,-6.203437 C 392.868856,-6.255565 392.775033,-6.306893 392.67825,-6.357431 C 392.576006,-6.410821 392.470459,-6.46333 392.361724,-6.514969 C 392.24748,-6.569225 392.129716,-6.622521 392.008565,-6.674871 C 391.881902,-6.729603 391.751537,-6.783301 391.617621,-6.83598 C 391.48211,-6.889287 391.342963,-6.941551 391.200337,-6.992788 C 391.048196,-7.047444 390.892096,-7.100931 390.732229,-7.15327 C 390.567145,-7.207317 390.398043,-7.260139 390.225133,-7.311759 C 381.752552,-9.841117 364.137171,-9.482505 362.06897,-8.793103 m 0,0 C 362.065091,-8.79181 362.061215,-8.79051 362.057342,-8.789203 C 362.044451,-8.784853 362.031594,-8.780426 362.018771,-8.775922 C 362.004736,-8.770992 361.990742,-8.765971 361.976788,-8.760859 C 361.960388,-8.754851 361.944043,-8.748717 361.927753,-8.74246 C 361.910324,-8.735765 361.892957,-8.728928 361.875652,-8.721951 C 361.857241,-8.714528 361.8389,-8.706946 361.820627,-8.699208 C 361.801282,-8.691016 361.782014,-8.682648 361.762822,-8.674107 C 361.741403,-8.664575 361.720078,-8.654828 361.698846,-8.644869 C 361.676636,-8.634451 361.654527,-8.623801 361.632516,-8.612923 C 361.607272,-8.600447 361.582158,-8.587671 361.55717,-8.574601 C 361.531334,-8.561088 361.505633,-8.54726 361.480064,-8.533125 C 361.450394,-8.516722 361.420901,-8.499905 361.39158,-8.482684 C 361.355155,-8.461291 361.318995,-8.439274 361.28309,-8.416653 C 361.246757,-8.393762 361.210684,-8.370253 361.174861,-8.346146 C 361.137653,-8.321107 361.100714,-8.295423 361.064031,-8.269117 C 359.117864,-6.873472 357.892997,-3.726226 355.51724,-2.241379 m 0,0 C 355.514481,-2.239655 355.511682,-2.237926 355.508842,-2.236192 C 355.504586,-2.233593 355.500239,-2.230983 355.495801,-2.228362 C 355.488416,-2.224 355.480779,-2.219607 355.472891,-2.215183 C 355.460301,-2.208122 355.447072,-2.200982 355.433209,-2.193762 C 355.415949,-2.184773 355.397705,-2.175661 355.378485,-2.166426 C 355.357449,-2.156318 355.335244,-2.146063 355.311882,-2.13566 C 355.282312,-2.122492 355.250887,-2.109087 355.217629,-2.095445 C 355.175168,-2.078028 355.12972,-2.060224 355.081331,-2.042031 C 355.030714,-2.023 354.976879,-2.003545 354.919878,-1.983664 C 354.857476,-1.961899 354.79128,-1.939623 354.72136,-1.916835 C 354.642291,-1.891065 354.558459,-1.86464 354.469965,-1.837558 C 354.375247,-1.808571 354.275188,-1.778831 354.169911,-1.748336 C 354.062006,-1.717079 353.948619,-1.685028 353.829882,-1.652181 C 353.704072,-1.617377 353.572256,-1.581678 353.434592,-1.545081 C 353.294246,-1.507771 353.147821,-1.469527 352.995485,-1.430346 C 352.840432,-1.390466 352.679255,-1.349615 352.51213,-1.307789 C 352.331673,-1.262627 352.144281,-1.216328 351.950176,-1.168887 C 351.753759,-1.120881 351.550468,-1.071706 351.340532,-1.021356 C 351.116591,-0.967647 350.885089,-0.912602 350.646305,-0.856215 C 350.405894,-0.799443 350.158101,-0.74131 349.903211,-0.68181 C 349.646884,-0.621974 349.383379,-0.560755 349.112987,-0.498147 C 335.863757,2.569641 306.076826,8.973355 293.7931,19.482759 m 0,0 C 293.769824,19.502673 293.746573,19.522564 293.723346,19.542431 C 293.646039,19.608556 293.569002,19.674424 293.492234,19.740036 C 293.408212,19.811848 293.324512,19.883353 293.241133,19.954553 C 293.150674,20.031799 293.060593,20.108686 292.970887,20.185217 C 292.859427,20.280306 292.748547,20.374845 292.638243,20.468838 C 292.521468,20.568346 292.405338,20.667242 292.289848,20.765532 C 292.160961,20.875224 292.032872,20.984161 291.905574,21.09235 C 291.772413,21.205522 291.640118,21.317876 291.508681,21.429421 C 291.357936,21.557351 291.20832,21.684216 291.059821,21.81003 C 290.899604,21.945772 290.740688,22.080289 290.583058,22.213599 C 290.414341,22.356285 290.247098,22.497587 290.081311,22.637525 C 289.911385,22.780956 289.742989,22.922954 289.576104,23.063541 C 289.387081,23.222777 289.199996,23.380202 289.014822,23.535848 C 288.826638,23.694025 288.640427,23.850364 288.45616,24.004898 C 288.263509,24.166463 288.072984,24.326055 287.884551,24.483712 C 287.693874,24.643247 287.505339,24.8008 287.318913,24.95641 C 287.130516,25.113665 286.944273,25.268936 286.760148,25.422263 C 286.564269,25.585377 286.370788,25.746291 286.179662,25.905052 C 276.569441,33.887895 272.913266,36.429234 269.82759,39.655173 m 0,0 Z "
       id="path846" />
    <path
       style="fill:none;stroke:#000000;stroke-width:1px;stroke-linecap:butt;stroke-linejoin:miter;stroke-opacity:1"
       d="m 237.5862,104.13793 C 237.5862,104.13793 234.07131,114.30029 232.4138,125.51724 m 0,0 C 232.412085,125.528849 232.410378,125.540471 232.408679,125.552106 C 232.406133,125.569541 232.403606,125.587006 232.401097,125.604501 C 232.396087,125.639439 232.391151,125.674495 232.386288,125.709669 C 232.379823,125.756427 232.373488,125.803394 232.367281,125.850568 C 232.359554,125.909299 232.352026,125.968351 232.344696,126.027719 C 232.336673,126.092698 232.328887,126.158056 232.321335,126.223789 C 232.313142,126.295104 232.305225,126.36686 232.297581,126.439051 C 232.288717,126.522769 232.28022,126.607072 232.272086,126.691952 C 232.261125,126.806339 232.250823,126.921773 232.241169,127.038231 C 232.228084,127.196081 232.21619,127.355813 232.205461,127.517371 C 232.194464,127.682962 232.18469,127.850471 232.17611,128.019837 C 232.166706,128.205481 232.158737,128.393357 232.152164,128.583386 C 232.144827,128.795522 232.13923,129.01034 232.13532,129.22773 C 232.131364,129.44771 232.129135,129.670323 232.128579,129.895456 C 232.127955,130.148248 232.12944,130.404216 232.132955,130.663198 C 232.305214,143.353334 237.353571,163.28063 238.10345,171.37931 m 0,0 C 238.104312,171.38862 238.105181,171.397937 238.106058,171.40726 C 238.107371,171.421231 238.108701,171.435216 238.110047,171.449215 C 238.111839,171.467853 238.11366,171.486516 238.115509,171.505204 C 238.118277,171.53318 238.12111,171.561212 238.124007,171.5893 C 238.12882,171.635973 238.13381,171.682801 238.138975,171.729781 C 238.144628,171.781201 238.150491,171.832804 238.156563,171.884587 C 238.165346,171.959494 238.174566,172.034779 238.184218,172.110435 C 238.195588,172.199557 238.207557,172.289194 238.220118,172.379334 C 238.237144,172.501511 238.255257,172.624613 238.274439,172.74861 C 238.2941,172.875703 238.314884,173.003736 238.33677,173.13268 C 238.35916,173.264594 238.382704,173.397461 238.407381,173.531247 C 238.43345,173.672583 238.460783,173.814945 238.489354,173.958294 C 238.518435,174.1042 238.548799,174.251129 238.580419,174.399039 C 238.612553,174.549354 238.645984,174.700683 238.680684,174.852984 C 238.716963,175.012214 238.754629,175.172506 238.79365,175.33381 C 238.833136,175.497035 238.87401,175.661297 238.916238,175.826545 C 238.960097,175.998178 239.005417,176.170875 239.052161,176.344578 C 239.10176,176.528891 239.152961,176.714337 239.20572,176.900848 C 241.790931,186.039872 248.116829,197.735366 252.93103,203.96552 m 0,0 C 252.936892,203.973106 252.942746,203.980688 252.948593,203.988266 C 252.957355,203.999622 252.9661,204.010968 252.974828,204.022305 C 252.986447,204.037398 252.998036,204.052475 253.009595,204.067535 C 253.026899,204.09008 253.044136,204.112589 253.061306,204.135061 C 253.089837,204.172402 253.118183,204.209641 253.146345,204.246779 C 253.177168,204.287427 253.207771,204.327954 253.238156,204.36836 C 253.273868,204.41585 253.309278,204.463173 253.344389,204.51033 C 253.392688,204.5752 253.440421,204.639756 253.487595,204.703999 C 253.536942,204.771201 253.585677,204.838061 253.633808,204.904581 C 253.6865,204.977405 253.738468,205.049821 253.789723,205.121832 C 253.847685,205.203267 253.904735,205.284184 253.960887,205.364587 C 254.020989,205.450645 254.080062,205.536114 254.138126,205.620999 C 254.197639,205.708003 254.256091,205.794394 254.313502,205.880176 C 254.374333,205.971068 254.433996,206.061277 254.492513,206.150809 C 254.55217,206.242085 254.610637,206.332657 254.667939,206.422532 C 254.726263,206.514009 254.783379,206.604764 254.839314,206.694803 C 254.901488,206.794884 254.962202,206.89408 255.021493,206.992401 C 258.350272,212.512425 257.193075,215.273039 257.93103,216.89655 m 0,0 C 257.931892,216.898447 257.932756,216.900343 257.933622,216.902238 C 257.934919,216.905078 257.936221,216.907916 257.937527,216.910753 C 257.941004,216.918307 257.944512,216.92585 257.94805,216.933382 C 257.952454,216.942759 257.956905,216.952119 257.961402,216.961462 C 257.966324,216.971688 257.971302,216.981894 257.976335,216.992079 C 257.98225,217.00405 257.988242,217.015993 257.99431,217.027908 C 258.000802,217.040656 258.007381,217.053373 258.014046,217.066058 C 258.021138,217.079554 258.028327,217.093014 258.035614,217.106438 C 258.044775,217.123314 258.054089,217.140134 258.063556,217.156897 C 258.076388,217.179618 258.0895,217.202236 258.102889,217.224751 C 258.116613,217.247828 258.130628,217.270797 258.144931,217.293659 C 258.160086,217.317883 258.175565,217.341986 258.191363,217.365969 C 258.207469,217.39042 258.223908,217.414746 258.240675,217.438949 C 258.257741,217.463584 258.275147,217.488091 258.292889,217.512471 C 258.310919,217.537247 258.329296,217.561892 258.348016,217.586407 C 258.367587,217.612037 258.387533,217.637525 258.407848,217.662872 C 258.428405,217.688521 258.44934,217.714025 258.470648,217.739386 C 258.492181,217.765015 258.514095,217.790497 258.536384,217.815834 C 258.560096,217.842789 258.584233,217.869579 258.608788,217.896207 C 259.843478,219.235092 262.135691,220.162215 264.65517,220.86207 m 0,0 C 264.658273,220.862932 264.661383,220.863798 264.6645,220.864668 C 264.669171,220.865972 264.673857,220.867285 264.678558,220.868607 C 264.687945,220.871246 264.697392,220.873921 264.706899,220.876631 C 264.722697,220.881134 264.738659,220.885735 264.754785,220.890435 C 264.772435,220.895579 264.79028,220.900841 264.808319,220.90622 C 264.829521,220.912542 264.850991,220.919027 264.872725,220.925675 C 264.899301,220.933804 264.926273,220.942176 264.953636,220.950792 C 264.984173,220.960408 265.015197,220.970328 265.0467,220.980552 C 265.079654,220.991247 265.113132,221.002274 265.147126,221.013635 C 265.184341,221.026072 265.222174,221.038909 265.260614,221.052146 C 265.300462,221.065868 265.340962,221.08002 265.382102,221.094603 C 265.424639,221.109681 265.46786,221.12522 265.511751,221.14122 C 265.560796,221.159099 265.610678,221.177554 265.661378,221.196587 C 265.713343,221.216095 265.766167,221.236209 265.819829,221.256931 C 265.88257,221.281159 265.946457,221.306218 266.011457,221.33211 C 266.079414,221.35918 266.148588,221.387161 266.21894,221.416054 C 266.29013,221.445292 266.362527,221.475464 266.436091,221.506573 C 266.510433,221.538011 266.585967,221.570406 266.662653,221.603761 C 266.744234,221.639245 266.827119,221.675815 266.911259,221.713474 C 271.141983,223.607042 278.545514,228.253713 282.93103,236.03448 m 0,0 C 282.936375,236.043963 282.941712,236.053438 282.947042,236.062905 C 282.955029,236.077091 282.962999,236.091259 282.970953,236.10541 C 282.981542,236.124249 282.992102,236.143057 283.002633,236.161833 C 283.01577,236.185257 283.028862,236.208632 283.041908,236.231958 C 283.06273,236.269186 283.083437,236.30629 283.10403,236.343271 C 283.132232,236.393917 283.160221,236.444332 283.187999,236.494517 C 283.220647,236.553501 283.253003,236.612168 283.285072,236.670521 C 283.319384,236.732954 283.353367,236.795027 283.387028,236.856744 C 283.432391,236.939917 283.477167,237.022443 283.521371,237.104331 C 283.581286,237.215324 283.640149,237.325144 283.697994,237.433813 C 283.757283,237.545195 283.815503,237.655367 283.87269,237.764353 C 283.933284,237.879831 283.992718,237.993977 284.051036,238.106818 C 284.11049,238.221858 284.168785,238.335542 284.225966,238.447898 C 284.284167,238.562258 284.341214,238.675242 284.397155,238.786881 C 284.457559,238.907426 284.516675,239.026403 284.574563,239.14385 C 284.633141,239.262696 284.690462,239.379975 284.746589,239.495727 C 284.804885,239.615952 284.861894,239.73453 284.917687,239.851505 C 284.973927,239.969419 285.028932,240.085704 285.082773,240.200405 C 285.136981,240.315888 285.19001,240.429766 285.241934,240.542085 C 285.294151,240.655038 285.345251,240.766414 285.395309,240.876261 C 287.848167,246.258759 287.799756,247.969278 294.13793,251.55172 m 0,0 C 294.145861,251.556203 294.153814,251.560699 294.16179,251.565208 C 294.173742,251.571964 294.185744,251.578749 294.197796,251.585563 C 294.217853,251.596903 294.238049,251.608323 294.258383,251.619822 C 294.282723,251.633586 294.307261,251.647464 294.331996,251.661455 C 294.360767,251.677729 294.389804,251.694156 294.419106,251.710735 C 294.464991,251.736697 294.511526,251.763031 294.558706,251.789733 C 294.614157,251.821116 294.670498,251.853007 294.727719,251.885398 C 294.788941,251.920053 294.85117,251.955281 294.914395,251.991072 C 294.986146,252.031689 295.059179,252.073032 295.133477,252.115086 C 295.216394,252.162018 295.300886,252.209836 295.386929,252.258521 C 295.476935,252.309448 295.568638,252.361323 295.662011,252.414125 C 295.759365,252.469178 295.858534,252.525238 295.959487,252.58228 C 296.074422,252.647222 296.19167,252.713438 296.311184,252.78089 C 296.434461,252.850466 296.560149,252.921357 296.688198,252.993524 C 296.825253,253.070767 296.965012,253.149471 297.107414,253.229587 C 297.25337,253.311702 297.402103,253.395301 297.553545,253.48033 C 297.719542,253.573531 297.888794,253.66845 298.061214,253.765018 C 298.24237,253.866478 298.427022,253.969758 298.615068,254.074777 C 298.81167,254.184574 299.011983,254.296271 299.215889,254.409776 C 299.422224,254.524633 299.632239,254.641341 299.845813,254.759804 C 300.079631,254.889495 300.317715,255.02129 300.559906,255.155062 C 300.803463,255.289588 301.051174,255.426114 301.302878,255.564512 C 313.636364,262.345995 335.556207,273.620941 348.10345,274.31035 "
       id="path848"
       sodipodi:nodetypes="csssssssc" />
    <path
       style="fill:none;stroke:#000000;stroke-width:1px;stroke-linecap:butt;stroke-linejoin:miter;stroke-opacity:1"
       d="m 256.31134,228.81952 C 256.311035,228.817265 256.310728,228.815006 256.310419,228.812744 C 256.309956,228.809354 256.309488,228.805956 256.309015,228.80255 C 256.308385,228.798016 256.307747,228.793468 256.3071,228.788907 C 256.30597,228.78094 256.304814,228.772932 256.303633,228.764883 C 256.301951,228.753425 256.300218,228.741883 256.298434,228.73026 C 256.296482,228.717538 256.294469,228.704718 256.292398,228.691802 C 256.289777,228.675454 256.287062,228.658952 256.284258,228.6423 C 256.281075,228.623402 256.277777,228.604311 256.274369,228.585032 C 256.270565,228.563516 256.266624,228.541766 256.262554,228.51979 C 256.258296,228.496802 256.253897,228.473566 256.249365,228.450091 C 256.24464,228.425616 256.23977,228.400881 256.234766,228.375896 C 256.229317,228.348688 256.223708,228.321183 256.217953,228.293395 C 256.210967,228.259667 256.203766,228.225521 256.196372,228.190981 C 256.188537,228.154383 256.180486,228.117342 256.172245,228.079886 C 256.163844,228.0417 256.155246,228.003083 256.14648,227.964063 C 256.136407,227.919222 256.126112,227.873849 256.11564,227.827988 C 255.527705,225.253236 254.380363,221.140428 260.45645,223.27239 m 0,0 C 260.463399,223.274828 260.470353,223.277274 260.477312,223.279728 C 260.487739,223.283405 260.498177,223.287099 260.508625,223.290811 C 260.52949,223.298223 260.550397,223.305704 260.571345,223.313254 C 260.595711,223.322036 260.620133,223.330911 260.644611,223.339878 C 260.679457,223.352643 260.714415,223.365595 260.749484,223.378732 C 260.787867,223.393111 260.826382,223.407712 260.865027,223.422533 C 260.910447,223.439952 260.956047,223.457675 261.001824,223.475698 C 261.057798,223.497736 261.114036,223.520223 261.170531,223.543152 C 261.233579,223.568741 261.296948,223.594881 261.360628,223.621562 C 261.42724,223.649472 261.494193,223.677975 261.561476,223.70706 C 261.635135,223.738901 261.70919,223.771441 261.783627,223.804665 C 261.860789,223.839106 261.938362,223.874282 262.01633,223.910178 C 262.10746,223.952134 262.199131,223.995074 262.291317,224.038974 C 262.385804,224.08397 262.480833,224.129974 262.576378,224.17696 C 262.681106,224.228462 262.786454,224.281144 262.892387,224.334972 C 263.003687,224.391527 263.115634,224.449347 263.228187,224.508392 C 263.349322,224.571939 263.471159,224.636905 263.593649,224.70324 C 270.470595,228.427489 279.404814,236.467512 281.6087,240.0357 m 0,0 C 281.61126,240.039845 281.613822,240.043992 281.616386,240.04814 C 281.620228,240.054356 281.624074,240.060575 281.627924,240.066797 C 281.634331,240.077152 281.640749,240.087516 281.647178,240.097889 C 281.654874,240.110305 281.662585,240.122734 281.670311,240.135175 C 281.679298,240.149646 281.688306,240.164134 281.697333,240.178639 C 281.707614,240.195158 281.717921,240.211698 281.728252,240.228259 C 281.741115,240.248878 281.754016,240.26953 281.766953,240.290213 C 281.781113,240.312851 281.795317,240.335527 281.809562,240.358239 C 281.825016,240.38288 281.840519,240.407564 281.856067,240.432289 C 281.875385,240.46301 281.894773,240.493796 281.914225,240.524643 C 281.93868,240.563423 281.963235,240.602299 281.987879,240.641266 C 282.021282,240.694083 282.054848,240.747067 282.088546,240.800202 C 282.123085,240.854664 282.157764,240.909286 282.192549,240.964051 C 282.229407,241.022079 282.266384,241.080268 282.303442,241.1386 C 282.341222,241.198068 282.379086,241.257684 282.416993,241.317428 C 282.456821,241.380199 282.496696,241.443111 282.536571,241.506141 C 282.578261,241.572039 282.61995,241.638066 282.661585,241.704196 C 282.703716,241.771113 282.745791,241.838135 282.787753,241.905234 C 282.832515,241.97681 282.877149,242.048474 282.921586,242.120192 C 282.967473,242.19425 283.013151,242.268366 283.058544,242.342504 C 285.282806,245.975248 286.823057,249.658782 278.80465,249.0574 "
       id="path850" />
    <path
       style="fill:none;stroke:#000000;stroke-width:1px;stroke-linecap:butt;stroke-linejoin:miter;stroke-opacity:1"
       d="m 411.32622,244.30272 C 411.32622,244.30272 388.65003,235.28101 384.01727,245.7657 m 0,0 C 384.012637,245.776185 384.008015,245.786662 384.003404,245.797131 C 383.996495,245.812819 383.98961,245.828489 383.98275,245.844142 C 383.973617,245.864981 383.964527,245.885789 383.955481,245.906566 C 383.939682,245.942854 383.924015,245.979047 383.90848,246.015146 C 383.890788,246.056258 383.873267,246.097248 383.855916,246.138116 C 383.834314,246.188996 383.812975,246.239688 383.791898,246.290192 C 383.768829,246.345468 383.746074,246.400519 383.72363,246.455346 C 383.69928,246.514828 383.675297,246.574046 383.651677,246.633001 C 383.622329,246.706253 383.593542,246.779099 383.565311,246.851541 C 383.535423,246.928233 383.506158,247.004473 383.477509,247.080264 C 383.445536,247.164846 383.41433,247.248868 383.383882,247.332334 C 383.352031,247.419644 383.321009,247.506346 383.290805,247.592444 C 383.253016,247.700166 383.216507,247.806942 383.181258,247.91278 C 383.14353,248.026062 383.107245,248.13827 383.072378,248.249414 C 383.036641,248.363332 383.002393,248.476133 382.969607,248.587827 C 382.933669,248.710256 382.899488,248.831356 382.867026,248.951141 C 382.833985,249.073062 382.802726,249.193621 382.77321,249.312833 C 382.743214,249.433983 382.715019,249.553742 382.688584,249.672127 C 382.660946,249.795898 382.635232,249.918166 382.611395,250.03895 C 382.587274,250.161173 382.565076,250.281876 382.544753,250.401078 C 382.523074,250.528232 382.503529,250.653678 382.486059,250.77744 C 382.468019,250.90524 382.452193,251.031244 382.438516,251.155477 C 381.768353,257.242892 386.259145,259.078437 388.4062,259.664 m 0,0 C 388.410223,259.665097 388.414271,259.6662 388.418345,259.667309 C 388.431903,259.671001 388.44574,259.674759 388.459854,259.678582 C 388.475301,259.682766 388.49108,259.687028 388.507187,259.691365 C 388.526118,259.696463 388.545502,259.701665 388.565334,259.706968 C 388.589584,259.713452 388.614504,259.720087 388.640085,259.726867 C 388.668633,259.734433 388.698005,259.742179 388.728187,259.750096 C 388.759759,259.758378 388.792218,259.766847 388.825549,259.775494 C 388.862038,259.78496 388.899572,259.794639 388.938132,259.804517 C 388.978104,259.814757 389.019179,259.825212 389.061335,259.835867 C 389.104922,259.846883 389.149665,259.858113 389.19554,259.869541 C 389.248774,259.882802 389.303532,259.896329 389.359778,259.910097 C 389.42965,259.927201 389.501817,259.944677 389.576208,259.962476 C 389.651485,259.980487 389.72904,259.99883 389.808799,260.017455 C 389.89164,260.036799 389.976859,260.056447 390.064374,260.076343 C 390.152591,260.096399 390.243141,260.116707 390.335939,260.137209 C 390.429369,260.157851 390.525078,260.17869 390.62298,260.199668 C 390.721434,260.220764 390.822106,260.242 390.924908,260.263317 C 395.96222,261.30786 406.114002,262.546468 411.08239,256.98188 "
       id="path852" />
    <path
       style="fill:none;stroke:#000000;stroke-width:1px;stroke-linecap:butt;stroke-linejoin:miter;stroke-opacity:1"
       d="m 367.68066,218.70058 C 367.68066,218.70058 362.07257,203.58312 372.80109,197.7312 m 0,0 C 372.811819,197.725348 372.822547,197.71951 372.833274,197.713685 C 372.849348,197.704957 372.865421,197.696259 372.881492,197.687592 C 372.902888,197.676053 372.924281,197.664569 372.945671,197.653139 C 372.983029,197.633176 373.020378,197.613378 373.057717,197.593744 C 373.110872,197.565793 373.164008,197.538175 373.217124,197.510888 C 373.275259,197.481022 373.33337,197.451552 373.391456,197.422476 C 373.464978,197.385674 373.53846,197.349502 373.6119,197.313955 C 373.705662,197.268572 373.799356,197.224208 373.892977,197.180853 C 373.99091,197.135501 374.088764,197.091252 374.186534,197.048093 C 374.298666,196.998595 374.410688,196.950531 374.522593,196.903882 C 374.643328,196.853552 374.763927,196.80487 374.88438,196.757812 C 375.013305,196.707444 375.142063,196.658936 375.270644,196.612258 C 375.402434,196.564415 375.534038,196.518496 375.665443,196.474468 C 375.799876,196.429426 375.934101,196.386364 376.068106,196.345248 C 376.214391,196.300364 376.360414,196.257799 376.506158,196.217509 C 376.668157,196.172725 376.829812,196.130752 376.9911,196.091529 C 386.046243,193.889463 393.944411,200.356718 396.69642,204.80227 "
       id="path854" />
    <path
       style="fill:none;stroke:#000000;stroke-width:1px;stroke-linecap:butt;stroke-linejoin:miter;stroke-opacity:1"
       d="m 325.98574,218.94441 C 325.987691,218.942459 325.989641,218.940497 325.991591,218.938524 C 325.994513,218.935567 325.997435,218.932585 326.000356,218.929578 C 326.004245,218.925575 326.008133,218.921528 326.01202,218.917437 C 326.017838,218.911312 326.023654,218.905088 326.029467,218.898766 C 326.039126,218.888261 326.048776,218.877485 326.058416,218.866441 C 326.068967,218.854354 326.079507,218.841946 326.090033,218.829222 C 326.102404,218.814267 326.114756,218.798876 326.127085,218.783056 C 326.140276,218.76613 326.153442,218.748712 326.166578,218.730812 C 326.180554,218.711768 326.194496,218.692178 326.2084,218.672053 C 326.223119,218.650747 326.237795,218.628842 326.252422,218.60635 C 326.269653,218.579854 326.286816,218.552544 326.303901,218.524441 C 326.327059,218.48635 326.350074,218.446802 326.372924,218.405849 C 326.396344,218.363874 326.41959,218.320423 326.442637,218.275552 C 326.469583,218.22309 326.496256,218.168688 326.522616,218.112436 C 326.550175,218.053624 326.577392,217.99279 326.604221,217.930037 C 326.63137,217.866537 326.658121,217.801072 326.684426,217.733749 C 326.711009,217.665714 326.737137,217.595781 326.762761,217.524061 C 326.789322,217.449719 326.815341,217.373456 326.840762,217.295396 C 326.866357,217.216804 326.891346,217.136389 326.915674,217.054277 C 328.138939,212.925537 327.689963,204.506334 318.42702,207.72823 m 0,0 C 318.415804,207.732131 318.404603,207.736038 318.393418,207.739951 C 318.376657,207.745815 318.359931,207.751692 318.34324,207.757582 C 318.315464,207.767384 318.287785,207.777222 318.260202,207.787096 C 318.227185,207.798915 318.194307,207.810785 318.161567,207.822706 C 318.123485,207.836572 318.085589,207.850508 318.047879,207.864512 C 318.004933,207.880461 317.962228,207.896499 317.919763,207.912625 C 317.866894,207.932701 317.814398,207.952914 317.762272,207.973261 C 317.70522,207.995531 317.648612,208.017962 317.592446,208.040552 C 317.526433,208.067103 317.46103,208.093874 317.396232,208.12086 C 317.316999,208.153858 317.238672,208.187179 317.161244,208.220816 C 317.074834,208.258355 316.989543,208.296287 316.905361,208.334603 C 316.817302,208.374684 316.730456,208.415185 316.644812,208.456096 C 316.546588,208.503017 316.449945,208.550476 316.354865,208.598458 C 316.23946,208.656697 316.126359,208.715705 316.01553,208.775454 C 315.877852,208.849677 315.743681,208.925043 315.612957,209.001496 C 315.480676,209.078859 315.351925,209.157335 315.226642,209.236866 C 315.093001,209.321703 314.963306,209.40774 314.837482,209.494907 C 308.341004,213.99547 312.164862,221.508285 315.98872,222.35803 "
       id="path856" />
    <path
       style="fill:none;stroke:#000000;stroke-width:1px;stroke-linecap:butt;stroke-linejoin:miter;stroke-opacity:1"
       d="m 320.13383,220.16356 C 320.13383,220.16356 313.55042,214.31164 318.18319,212.11717 m 0,0 C 318.187823,212.114976 318.192452,212.112789 318.197077,212.11061 C 318.204008,212.107344 318.21093,212.104095 318.217843,212.100863 C 318.231648,212.094409 318.245418,212.088022 318.259154,212.081702 C 318.277413,212.073301 318.295611,212.065019 318.313747,212.056855 C 318.336327,212.046691 318.358812,212.03671 318.381202,212.02691 C 318.405708,212.016184 318.4301,212.005676 318.454379,211.995384 C 318.48072,211.984218 318.506928,211.973306 318.533003,211.962646 C 318.563241,211.950284 318.593301,211.93826 318.623184,211.926572 C 318.661336,211.911649 318.699199,211.897273 318.736774,211.883436 C 318.77608,211.868962 318.815071,211.855078 318.85375,211.841777 C 318.898111,211.826522 318.942061,211.812033 318.985603,211.798297 C 319.032581,211.783477 319.079084,211.769535 319.125116,211.756454 C 319.174385,211.742453 319.223115,211.72944 319.27131,211.717395 C 319.320708,211.70505 319.369544,211.693722 319.417823,211.683392 C 319.472506,211.671691 319.526475,211.66127 319.579737,211.652098 C 319.633865,211.642777 319.687263,211.634747 319.739938,211.627977 C 319.79501,211.620899 319.849292,211.615198 319.902794,211.610839 C 319.956933,211.606428 320.010272,211.603391 320.062821,211.601692 C 320.115925,211.599975 320.168222,211.599624 320.219722,211.600601 C 320.273104,211.601613 320.325629,211.604052 320.377307,211.607876 C 323.045545,211.805316 323.456901,215.69439 323.05978,217.48143 "
       id="path858" />
    <path
       style="fill:none;stroke:#000000;stroke-width:1px;stroke-linecap:butt;stroke-linejoin:miter;stroke-opacity:1"
       d="m 415.71516,178.9563 C 415.71516,178.9563 409.37558,180.17545 411.08239,173.10438 m 0,0 C 411.084097,173.097309 411.085818,173.090222 411.087553,173.083118 C 411.090153,173.072473 411.092785,173.061792 411.095448,173.051074 C 411.09988,173.033238 411.1044,173.015301 411.109008,172.997264 C 411.116362,172.968477 411.12394,172.939435 411.13174,172.910141 C 411.141451,172.87367 411.151508,172.836808 411.161909,172.799562 C 411.173293,172.758796 411.185089,172.71757 411.197296,172.675891 C 411.211643,172.626905 411.226557,172.577294 411.242036,172.527071 C 411.258598,172.473336 411.275807,172.4189 411.29366,172.363778 C 411.312654,172.305132 411.332377,172.24571 411.352826,172.185531 C 411.374475,172.121821 411.396937,172.057262 411.420208,171.991876 C 411.446179,171.918906 411.473157,171.844906 411.501138,171.769907 C 411.530407,171.691454 411.560773,171.611909 411.592229,171.531306 C 411.626666,171.443065 411.662409,171.353557 411.69945,171.262828 C 411.737848,171.168776 411.77764,171.073412 411.818818,170.976788 C 411.861394,170.876883 411.905451,170.77563 411.950978,170.673087 C 412.003808,170.554095 412.058618,170.433365 412.115392,170.310987 C 412.175548,170.181318 412.237908,170.049799 412.302453,169.916535 C 412.368256,169.780675 412.43633,169.643002 412.506654,169.503629 C 412.578232,169.36177 412.652141,169.218149 412.728359,169.072885 C 412.813078,168.911419 412.90065,168.747923 412.991045,168.58256 C 418.066097,159.298601 432.039867,144.128729 449.60752,151.89118 m 0,0 C 449.628489,151.900446 449.649442,151.909707 449.670379,151.918963 C 449.712212,151.937457 449.75398,151.955933 449.795684,151.97439 C 449.86852,152.006626 449.941161,152.038806 450.013607,152.07093 C 450.096112,152.107515 450.178364,152.144028 450.260364,152.180471 C 450.362454,152.225842 450.464153,152.271103 450.565462,152.316256 C 450.676345,152.365676 450.786761,152.414967 450.896712,152.46413 C 451.015999,152.517468 451.134739,152.570656 451.252933,152.623697 C 451.389999,152.685207 451.526332,152.74652 451.661936,152.80764 C 451.835063,152.885672 452.007001,152.96339 452.177757,153.040802 C 452.356377,153.12178 452.533704,153.202423 452.709746,153.282743 C 452.911648,153.374862 453.11186,153.466555 453.310395,153.557839 C 453.524596,153.656326 453.736845,153.754336 453.947158,153.85189 C 454.172263,153.956305 454.39515,154.060197 454.615838,154.163591 C 454.842035,154.269566 455.065922,154.375018 455.287521,154.479973 C 455.530418,154.595015 455.770565,154.709461 456.007991,154.823345 C 456.249651,154.93926 456.488491,155.054593 456.724541,155.169382 C 456.964428,155.286037 457.201434,155.402129 457.435589,155.517697 C 457.680398,155.638524 457.92209,155.758778 458.160701,155.878504 C 458.402155,155.999656 458.640454,156.120267 458.875634,156.240383 C 459.139708,156.375257 459.39985,156.509507 459.656112,156.643198 C 472.212937,163.194051 475.45349,168.403298 475.45349,179.93162 m 0,0 C 475.45349,179.945762 475.453481,179.959911 475.453463,179.974067 C 475.453436,179.99528 475.453388,180.016509 475.45332,180.037754 C 475.453207,180.073109 475.453037,180.108508 475.452811,180.14395 C 475.45254,180.186374 475.452188,180.22886 475.451754,180.271407 C 475.451249,180.320896 475.450634,180.370467 475.449908,180.420119 C 475.448875,180.490802 475.447618,180.56165 475.446135,180.632658 C 475.444512,180.710376 475.442619,180.788286 475.440454,180.866382 C 475.43791,180.958169 475.434991,181.050214 475.431694,181.142507 C 475.428166,181.241254 475.424206,181.340286 475.41981,181.439591 C 475.415133,181.545245 475.409963,181.651209 475.404296,181.75747 C 475.398296,181.869965 475.391739,181.982793 475.384621,182.095939 C 475.376678,182.22221 475.368035,182.348877 475.358687,182.475918 C 475.348909,182.60881 475.338359,182.742112 475.32703,182.875799 C 475.314037,183.029124 475.30002,183.182956 475.284968,183.337258 C 475.269405,183.4968 475.252735,183.656845 475.234947,183.817352 C 475.216599,183.982911 475.197061,184.148962 475.17632,184.31546 C 475.154121,184.493668 475.130544,184.672389 475.105573,184.851567 C 475.079979,185.035218 475.052921,185.21935 475.024382,185.403904 C 474.995185,185.59271 474.964438,185.781957 474.932123,185.971583 C 474.896846,186.178587 474.8597,186.386042 474.820662,186.593867 C 474.778509,186.818271 474.73415,187.043105 474.687554,187.268267 C 474.640403,187.496111 474.590962,187.724291 474.539199,187.952699 C 474.481077,188.209169 474.420028,188.465927 474.356009,188.722822 C 471.219068,201.310691 460.95003,214.227585 438.39134,209.67887 m 0,0 C 438.376115,209.6758 438.360902,209.672721 438.345701,209.669633 C 438.322922,209.665006 438.30017,209.660359 438.277445,209.655692 C 438.24719,209.649478 438.216982,209.643229 438.186822,209.636944 C 438.111572,209.621264 438.036616,209.605363 437.961954,209.589245 C 437.880236,209.571604 437.798869,209.553702 437.717852,209.535542 C 437.622632,209.514198 437.527895,209.492498 437.433639,209.470447 C 437.303979,209.440114 437.17523,209.409117 437.047385,209.37747 C 436.913652,209.344365 436.780909,209.310549 436.649149,209.276037 C 436.511772,209.240054 436.375463,209.203314 436.240216,209.165835 C 436.099626,209.126876 435.960183,209.087118 435.821878,209.046581 C 435.665474,209.00074 435.510526,208.953903 435.35702,208.906098 C 435.186399,208.852963 435.01756,208.798633 434.850486,208.743147 C 434.642937,208.674218 434.438113,208.603505 434.235981,208.531083 C 434.031441,208.457799 433.829657,208.382765 433.630596,208.306058 C 433.423843,208.226387 433.220026,208.144912 433.019109,208.061721 C 432.805919,207.973448 432.595993,207.883242 432.389286,207.791208 C 422.26065,203.281525 419.86027,194.381072 419.86027,193.34227 "
       id="path860"
       sodipodi:nodetypes="cssssc" />
    <path
       style="fill:none;stroke:#000000;stroke-width:1px;stroke-linecap:butt;stroke-linejoin:miter;stroke-opacity:1"
       d="m 427.41379,191.37931 C 427.41379,191.37931 421.55172,162.24138 436.89655,158.10345 m 0,0 C 436.911895,158.099312 436.927247,158.09519 436.942606,158.091083 C 436.965621,158.084929 436.988651,158.07881 437.011697,158.072725 C 437.042378,158.064624 437.073086,158.056585 437.103821,158.048608 C 437.1575,158.034676 437.211261,158.020931 437.265102,158.007374 C 437.326419,157.991934 437.387841,157.976738 437.449365,157.961784 C 437.533622,157.941305 437.61807,157.921281 437.702704,157.90171 C 437.840434,157.869862 437.978656,157.839215 438.117346,157.809763 C 438.262424,157.778954 438.408014,157.749453 438.554088,157.721252 C 438.70639,157.691848 438.859218,157.663858 439.012542,157.637273 C 439.179511,157.608322 439.347068,157.581038 439.515172,157.555409 C 439.711655,157.525454 439.908885,157.497761 440.106799,157.472313 C 440.309653,157.44623 440.513224,157.422506 440.717443,157.401122 C 440.933829,157.378465 441.150942,157.358435 441.368701,157.341011 C 441.620302,157.32088 441.872764,157.304228 442.12596,157.291021 C 442.382172,157.277657 442.639136,157.267821 442.89672,157.261479 C 443.171488,157.254714 443.446961,157.251924 443.722979,157.253067 C 444.008004,157.254248 444.29361,157.259623 444.579621,157.269146 C 458.594136,157.735757 473.580323,168.161531 468.7931,183.10345 "
       id="path862" />
    <path
       style="fill:none;stroke:#000000;stroke-width:1px;stroke-linecap:butt;stroke-linejoin:miter;stroke-opacity:1"
       d="m 364.82759,155.86207 C 364.82759,155.86207 382.41379,158.62069 376.89655,166.2069 m 0,0 C 376.888274,166.218279 376.879989,166.229626 376.871695,166.24094 C 376.844088,166.278597 376.816379,166.315894 376.788569,166.352833 C 376.758131,166.393263 376.727573,166.433264 376.696897,166.472839 C 376.660842,166.519352 376.624624,166.565276 376.588248,166.610616 C 376.538208,166.672987 376.487867,166.734253 376.437236,166.794426 C 376.384273,166.857371 376.330993,166.91912 376.277408,166.979687 C 376.218745,167.045994 376.159717,167.110885 376.100339,167.174378 C 376.033191,167.246179 375.965596,167.316193 375.897577,167.384446 C 375.824774,167.457499 375.751485,167.528535 375.677739,167.597586 C 375.602153,167.668361 375.526087,167.737051 375.449571,167.803691 C 375.365701,167.876736 375.281291,167.947318 375.196381,168.015483 C 375.101594,168.091578 375.006184,168.164662 374.910208,168.234798 C 374.813088,168.30577 374.715388,168.373724 374.617167,168.438726 C 374.51515,168.50624 374.41257,168.57057 374.309493,168.631791 C 374.20012,168.696752 374.090187,168.758212 373.979771,168.816261 C 368.569411,171.660664 362.001276,166.314568 363.44828,163.27586 "
       id="path864" />
    <path
       style="fill:none;stroke:#000000;stroke-width:1px;stroke-linecap:butt;stroke-linejoin:miter;stroke-opacity:1"
       d="m 346.22363,0.716624 C 346.22363,0.716624 370.36279,-4.403804 386.45557,-0.746355 "
       id="path866" />
    <path
       style="fill:none;stroke:#000000;stroke-width:1px;stroke-linecap:butt;stroke-linejoin:miter;stroke-opacity:1"
       d="m 347.44278,22.661318 C 347.44278,22.661318 335.25128,13.88344 318.18319,16.32174 m 0,0 C 318.166122,16.324178 318.149058,16.326626 318.131998,16.329083 C 318.106433,16.332765 318.080877,16.336467 318.05533,16.34019 C 318.012815,16.346386 317.970324,16.352639 317.927858,16.358949 C 317.877026,16.366502 317.826229,16.374137 317.775467,16.381854 C 317.716423,16.39083 317.657426,16.399916 317.598477,16.409111 C 317.514559,16.422201 317.430739,16.435513 317.347017,16.449045 C 317.255383,16.463855 317.163866,16.478929 317.072467,16.494263 C 316.956781,16.513672 316.841285,16.533499 316.725981,16.553738 C 316.603306,16.575271 316.480848,16.597271 316.358609,16.619732 C 316.229199,16.643511 316.100035,16.667806 315.97112,16.69261 C 315.819258,16.721829 315.667742,16.751753 315.516577,16.782371 C 315.311684,16.823872 315.107436,16.866647 314.903844,16.910666 C 314.69517,16.955784 314.487186,17.002209 314.279905,17.049907 C 314.067849,17.098704 313.856529,17.148835 313.645959,17.200264 C 313.423506,17.254595 313.20189,17.310375 312.981128,17.367562 C 312.734684,17.431402 312.489304,17.496996 312.245011,17.564286 C 311.997808,17.632377 311.751718,17.702205 311.506765,17.77371 C 311.24547,17.849985 310.985469,17.928169 310.726792,18.008188 C 310.459674,18.090818 310.193967,18.175406 309.929703,18.261871 C 296.980754,22.498679 287.496951,31.24344 285.26615,35.096644 m 0,0 C 285.263468,35.101277 285.260791,35.10592 285.258119,35.110574 C 285.254115,35.117548 285.250123,35.124546 285.246142,35.131568 C 285.236867,35.147929 285.227654,35.16442 285.218503,35.18104 C 285.208081,35.199968 285.197739,35.219063 285.187477,35.238324 C 285.1747,35.262304 285.162046,35.286542 285.149514,35.311034 C 285.135798,35.337841 285.122228,35.364953 285.108802,35.392366 C 285.093022,35.424585 285.077442,35.457221 285.062059,35.490267 C 285.040897,35.535726 285.020108,35.581962 284.999684,35.628959 C 284.97832,35.678121 284.957356,35.728116 284.936784,35.778927 C 284.914263,35.834553 284.892212,35.891156 284.870622,35.948714 C 284.848241,36.00838 284.826355,36.069072 284.804952,36.130765 C 284.782822,36.194552 284.761209,36.259409 284.7401,36.325308 C 284.716512,36.398945 284.693554,36.473883 284.671209,36.550082 C 284.648306,36.628183 284.626046,36.707609 284.604411,36.788318 C 284.581487,36.873835 284.559264,36.960792 284.53772,37.049138 C 284.514292,37.14521 284.491668,37.242925 284.469818,37.342219 C 284.446974,37.446031 284.424977,37.551568 284.403794,37.658756 C 284.382358,37.767221 284.361756,37.877377 284.341953,37.989147 C 284.321941,38.102099 284.302746,38.216699 284.284332,38.332869 C 284.264241,38.459623 284.24508,38.588246 284.226805,38.718634 C 283.33132,45.10765 284.561626,55.735673 282.58402,58.50432 "
       id="path868" />
    <path
       style="fill:none;stroke:#000000;stroke-width:1px;stroke-linecap:butt;stroke-linejoin:miter;stroke-opacity:1"
       d="m 293.31253,59.23581 C 293.31253,59.23581 322.57213,57.529 336.47043,36.559623 "
       id="path870" />
    <path
       style="fill:none;stroke:#000000;stroke-width:1px;stroke-linecap:butt;stroke-linejoin:miter;stroke-opacity:1"
       d="m 334.76362,16.809399 C 334.76362,16.809399 338.17724,28.513236 325.25425,37.291113 m 0,0 C 325.241327,37.299891 325.228394,37.30867 325.215452,37.317449 C 325.196058,37.330605 325.176642,37.343762 325.157204,37.356921 C 325.131326,37.37444 325.105409,37.391962 325.079454,37.409486 C 325.040599,37.43572 325.001658,37.46196 324.962632,37.488205 C 324.910753,37.523093 324.858724,37.557991 324.806546,37.592897 C 324.741585,37.636355 324.676393,37.679825 324.610973,37.723306 C 324.539371,37.770896 324.467497,37.818498 324.395355,37.86611 C 324.304042,37.926374 324.2123,37.986653 324.120137,38.046941 C 324.015545,38.11536 323.910411,38.183791 323.804747,38.252225 C 323.680275,38.33284 323.555069,38.41346 323.429149,38.494071 C 323.291296,38.582321 323.152587,38.670559 323.01305,38.758767 C 322.868403,38.850205 322.722866,38.941611 322.576469,39.032964 C 322.425102,39.127419 322.272815,39.221817 322.119643,39.316136 C 321.9419,39.425585 321.762964,39.534926 321.582888,39.644124 C 321.392084,39.759828 321.2,39.875371 321.006698,39.99071 C 320.80963,40.108297 320.611297,40.225672 320.411764,40.342791 C 320.208673,40.461998 320.004339,40.580939 319.798832,40.699567 C 319.570404,40.831426 319.340527,40.962897 319.109296,41.093915 C 318.869129,41.229996 318.627502,41.365589 318.384522,41.50062 C 318.139592,41.636735 317.893287,41.772279 317.645716,41.907177 C 317.396458,42.042994 317.145917,42.178156 316.894206,42.312586 C 304.237655,49.072019 288.621804,53.981463 284.29083,47.28814 "
       id="path872" />
    <path
       style="fill:none;stroke:#000000;stroke-width:1px;stroke-linecap:butt;stroke-linejoin:miter;stroke-opacity:1"
       d="m 262.1023,86.30093 C 262.1023,86.30093 274.04997,76.3039 271.61167,91.42136 m 0,0 C 269.17337,106.53881 265.51592,103.85668 260.39549,98.24859 "
       id="path874" />
    <path
       style="fill:none;stroke:#000000;stroke-width:1px;stroke-linecap:butt;stroke-linejoin:miter;stroke-opacity:1"
       d="m 321.84064,81.42433 C 321.84064,81.42433 326.4734,105.80732 338.42107,95.07881 m 0,0 C 350.36874,84.35029 340.85937,78.98603 329.64319,73.8656 "
       id="path876" />
    <path
       style="fill:none;stroke:#000000;stroke-width:1px;stroke-linecap:butt;stroke-linejoin:miter;stroke-opacity:1"
       d="m 297.45764,141.65032 C 297.45764,141.65032 277.95125,133.3601 272.58699,150.67203 m 0,0 C 267.22273,167.98395 287.46062,173.83587 297.9453,170.90991 "
       id="path878" />
    <path
       style="fill:none;stroke:#000000;stroke-width:1px;stroke-linecap:butt;stroke-linejoin:miter;stroke-opacity:1"
       d="m 305.99169,154.81714 C 305.99169,154.81714 295.507,137.01755 281.12104,147.01458 m 0,0 C 266.73507,157.01161 286.4853,173.34821 295.75083,166.27714 m 0,0 C 305.01637,159.20608 302.8219,156.52395 300.87126,154.81714 "
       id="path880" />
    <path
       style="fill:none;stroke:#000000;stroke-width:1px;stroke-linecap:butt;stroke-linejoin:miter;stroke-opacity:1"
       d="m 464.23731,28.269406 C 460.82369,28.269406 450.82667,34.121324 458.62922,46.31282 m 0,0 C 466.43178,58.50432 478.86711,54.35921 481.06158,47.53197 "
       id="path882" />
    <path
       style="fill:none;stroke:#000000;stroke-width:1px;stroke-linecap:butt;stroke-linejoin:miter;stroke-opacity:1"
       d="m 465.70029,33.877494 C 465.70029,33.877494 458.87305,43.386861 468.87008,40.704732 "
       id="path884" />
    <path
       style="fill:none;stroke:#000000;stroke-width:1px;stroke-linecap:butt;stroke-linejoin:miter;stroke-opacity:1"
       d="m 403.52366,17.297059 C 403.52366,17.297059 426.19984,18.760039 414.25218,29.976215 m 0,0 C 402.30451,41.192392 395.47727,26.074937 397.42791,21.442168 "
       id="path886" />
    <path
       style="fill:none;stroke:#000000;stroke-width:1px;stroke-linecap:butt;stroke-linejoin:miter;stroke-opacity:1"
       d="m 384.01727,93.85966 C 387.18706,88.4954 419.86026,78.7422 428.15048,103.12519 "
       id="path888" />
    <path
       style="fill:none;stroke:#000000;stroke-width:1px;stroke-linecap:butt;stroke-linejoin:miter;stroke-opacity:1"
       d="m 381.09131,109.22094 C 381.33514,111.41541 384.01727,141.40649 415.71516,128.97116 "
       id="path890" />
    <path
       style="fill:none;stroke:#000000;stroke-width:1px;stroke-linecap:butt;stroke-linejoin:miter;stroke-opacity:1"
       d="m 404.01132,108.24562 C 404.01132,108.24562 413.52069,96.78561 416.93431,101.66221 m 0,0 C 420.34792,106.53881 419.61644,112.63456 413.76452,114.09754 "
       id="path892" />
    <path
       style="fill:none;stroke:#000000;stroke-width:1px;stroke-linecap:butt;stroke-linejoin:miter;stroke-opacity:1"
       d="m 458.14156,108.97711 C 458.14156,108.97711 455.45943,132.38478 470.82072,130.43414 "
       id="path894" />
  </g>
</svg>
