<?xml version="1.0" encoding="UTF-8" standalone="no"?>
<svg
   xmlns:dc="http://purl.org/dc/elements/1.1/"
   xmlns:cc="http://creativecommons.org/ns#"
   xmlns:rdf="http://www.w3.org/1999/02/22-rdf-syntax-ns#"
   xmlns:svg="http://www.w3.org/2000/svg"
   xmlns="http://www.w3.org/2000/svg"
   xmlns:sodipodi="http://sodipodi.sourceforge.net/DTD/sodipodi-0.dtd"
   xmlns:inkscape="http://www.inkscape.org/namespaces/inkscape"
   version="1.1"
   id="svg833"
   width="295.53802"
   height="292.24213"
   viewBox="0 0 295.53802 292.24213"
   sodipodi:docname="moon.svg"
   inkscape:version="1.0.2 (e86c870879, 2021-01-15, custom)">
  <metadata
     id="metadata839">
    <rdf:RDF>
      <cc:Work
         rdf:about="">
        <dc:format>image/svg+xml</dc:format>
        <dc:type
           rdf:resource="http://purl.org/dc/dcmitype/StillImage" />
        <dc:title></dc:title>
      </cc:Work>
    </rdf:RDF>
  </metadata>
  <defs
     id="defs837" />
  <sodipodi:namedview
     pagecolor="#ffffff"
     bordercolor="#666666"
     borderopacity="1"
     objecttolerance="10"
     gridtolerance="10"
     guidetolerance="10"
     inkscape:pageopacity="0"
     inkscape:pageshadow="2"
     inkscape:window-width="1849"
     inkscape:window-height="1057"
     id="namedview835"
     showgrid="false"
     fit-margin-top="0"
     fit-margin-left="0"
     fit-margin-right="0"
     fit-margin-bottom="0"
     inkscape:zoom="1.45"
     inkscape:cx="105.83561"
     inkscape:cy="142.37279"
     inkscape:window-x="63"
     inkscape:window-y="-8"
     inkscape:window-maximized="1"
     inkscape:current-layer="layer1" />
  <g
     inkscape:groupmode="layer"
     id="layer1"
     inkscape:label="vector"
     transform="translate(-271.94049,-40.201886)">
    <path
       style="fill:none;stroke:#000000;stroke-width:1px;stroke-linecap:butt;stroke-linejoin:miter;stroke-opacity:1"
       d="m 319.82759,89.655173 c 0,0 -6.03449,8.103448 -6.03449,6.120689 0,-1.982758 -4.48275,-2.241379 -5.51724,-1.206896 -1.03448,1.034482 -2.15517,3.793103 -1.46551,5.948274 0.68965,2.15517 -2.4138,2.41379 -2.67242,5 -0.25862,2.58621 1.72414,2.84483 -1.12069,6.29311 -2.84483,3.44827 -14.13793,25.34482 -15.86207,31.63793 -1.72414,6.2931 -7.97413,0.99138 -9.56896,4.69827 -1.59483,3.7069 -4.78449,32.58621 -5.12931,34.09483 -0.34483,1.50862 4.18103,2.28448 6.25,5.47414 2.06896,3.18965 0.47836,19.29609 4.37964,35.38886 3.90128,16.09278 17.77553,41.55079 21.22381,44.99907 3.44827,3.44827 -0.62018,2.85255 -0.31539,5.2299 0.30479,2.37734 4.26702,13.53256 12.67916,19.2016 8.41213,5.66905 14.50788,8.96075 17.25096,7.43682 2.74309,-1.52394 22.97147,22.26961 49.00595,25.54547 26.03449,3.27586 38.27587,11.55173 67.93104,1.89655 C 480.51724,317.75862 475.51724,320 479.48276,320 c 3.96552,0 4.65517,2.24138 14.82759,-8.62069 10.17241,-10.86207 10.68965,-2.06896 21.89655,-8.62069 11.20689,-6.55172 17.5862,-13.62069 23.27586,-26.03448 5.68965,-12.41379 1.55172,-5.86207 2.93103,-11.03448 1.37931,-5.17242 11.72414,-23.62069 13.62069,-29.31035 1.89656,-5.68965 4.31035,-3.27586 7.24138,-7.75862 2.93104,-4.48276 4.82759,-15 2.93104,-19.31034 C 564.31035,205 565,203.96552 565,197.24138 c 0,-6.72414 -1.2069,-41.2069 -5.34483,-48.44828 -4.13793,-7.24138 4.31035,-7.75862 4.82759,-11.89655 0.51724,-4.13793 -3.44828,-8.96552 -3.62069,-13.62069 -0.17241,-4.65517 -10.17241,-0.17241 -13.62069,-4.31034 -3.44828,-4.13793 -25.51724,-36.379313 -38.96552,-44.137934 -13.44827,-7.75862 -48.96551,-22.241379 -54.48276,-24.482758 -5.51724,-2.24138 -6.37931,0 -9.31034,-5.172414 C 441.55172,40 414.65517,40.344828 412.06897,41.206897 c -2.58621,0.862069 -3.79311,4.827586 -6.55173,6.551724 -2.75862,1.724138 -46.20689,8.448276 -61.72414,21.724138 -15.51724,13.275862 -20.17241,16.206896 -23.96551,20.172414 z"
       id="path846" />
    <path
       style="fill:none;stroke:#000000;stroke-width:1px;stroke-linecap:butt;stroke-linejoin:miter;stroke-opacity:1"
       d="m 287.5862,154.13793 c 0,0 -3.51489,10.16236 -5.1724,21.37931 -1.71539,11.60859 4.82758,36.55173 5.68965,45.86207 0.86207,9.31035 8.96552,25 14.82758,32.58621 5.86207,7.5862 4.13794,11.03448 5,12.93103 0.86207,1.89655 3.62069,3.10345 6.72414,3.96552 3.10345,0.86207 12.93104,5.68965 18.27586,15.17241 5.34483,9.48276 3.27587,11.03449 11.2069,15.51724 7.93104,4.48276 38.27586,21.89656 53.96552,22.75863"
       id="path848"
       sodipodi:nodetypes="csssssssc" />
    <path
       style="fill:none;stroke:#000000;stroke-width:1px;stroke-linecap:butt;stroke-linejoin:miter;stroke-opacity:1"
       d="m 306.31134,278.81952 c -0.30478,-2.25543 -2.80404,-7.98543 4.14511,-5.54713 6.94915,2.4383 18.59203,12.6182 21.15225,16.76331 2.56021,4.1451 6.94915,9.75319 -2.80405,9.0217"
       id="path850" />
    <path
       style="fill:none;stroke:#000000;stroke-width:1px;stroke-linecap:butt;stroke-linejoin:miter;stroke-opacity:1"
       d="m 461.32622,294.30272 c 0,0 -22.67619,-9.02171 -27.30895,1.46298 -4.63277,10.48469 1.70681,13.16681 4.38893,13.8983 2.68213,0.73149 16.58044,4.14511 22.67619,-2.68212"
       id="path852" />
    <path
       style="fill:none;stroke:#000000;stroke-width:1px;stroke-linecap:butt;stroke-linejoin:miter;stroke-opacity:1"
       d="m 417.68066,268.70058 c 0,0 -5.60809,-15.11746 5.12043,-20.96938 10.72852,-5.85191 20.72554,1.95064 23.89533,7.07107"
       id="path854" />
    <path
       style="fill:none;stroke:#000000;stroke-width:1px;stroke-linecap:butt;stroke-linejoin:miter;stroke-opacity:1"
       d="m 375.98574,268.94441 c 1.95064,-1.95064 3.65745,-15.11746 -7.55872,-11.21618 -11.21618,3.90128 -6.82724,13.65448 -2.4383,14.6298"
       id="path856" />
    <path
       style="fill:none;stroke:#000000;stroke-width:1px;stroke-linecap:butt;stroke-linejoin:miter;stroke-opacity:1"
       d="m 370.13383,270.16356 c 0,0 -6.58341,-5.85192 -1.95064,-8.04639 4.63276,-2.19447 5.36425,3.16979 4.87659,5.36426"
       id="path858" />
    <path
       style="fill:none;stroke:#000000;stroke-width:1px;stroke-linecap:butt;stroke-linejoin:miter;stroke-opacity:1"
       d="m 465.71516,228.9563 c 0,0 -6.33958,1.21915 -4.63277,-5.85192 1.70681,-7.07107 17.55575,-30.47874 38.52513,-21.2132 20.96937,9.26553 25.84597,13.8983 25.84597,28.04044 0,14.14213 -9.06907,35.39175 -37.06215,29.74725 -15.22487,-3.06993 -18.53107,-15.11745 -18.53107,-16.3366"
       id="path860"
       sodipodi:nodetypes="cssssc" />
    <path
       style="fill:none;stroke:#000000;stroke-width:1px;stroke-linecap:butt;stroke-linejoin:miter;stroke-opacity:1"
       d="m 477.41379,241.37931 c 0,0 -5.86207,-29.13793 9.48276,-33.27586 15.34483,-4.13793 37.58621,7.24138 31.89655,25"
       id="path862" />
    <path
       style="fill:none;stroke:#000000;stroke-width:1px;stroke-linecap:butt;stroke-linejoin:miter;stroke-opacity:1"
       d="m 414.82759,205.86207 c 0,0 17.5862,2.75862 12.06896,10.34483 -5.51724,7.5862 -15.17241,0.68965 -13.44827,-2.93104"
       id="path864" />
    <path
       style="fill:none;stroke:#000000;stroke-width:1px;stroke-linecap:butt;stroke-linejoin:miter;stroke-opacity:1"
       d="m 396.22363,50.716624 c 0,0 24.13916,-5.120428 40.23194,-1.462979"
       id="path866" />
    <path
       style="fill:none;stroke:#000000;stroke-width:1px;stroke-linecap:butt;stroke-linejoin:miter;stroke-opacity:1"
       d="m 397.44278,72.661318 c 0,0 -12.1915,-8.777878 -29.25959,-6.339578 -17.0681,2.438299 -30.23491,14.142135 -32.91704,18.774904 -2.68213,4.632768 -0.24383,19.994056 -2.68213,23.407676"
       id="path868" />
    <path
       style="fill:none;stroke:#000000;stroke-width:1px;stroke-linecap:butt;stroke-linejoin:miter;stroke-opacity:1"
       d="m 343.31253,109.23581 c 0,0 29.2596,-1.70681 43.1579,-22.676187"
       id="path870" />
    <path
       style="fill:none;stroke:#000000;stroke-width:1px;stroke-linecap:butt;stroke-linejoin:miter;stroke-opacity:1"
       d="m 384.76362,66.809399 c 0,0 3.41362,11.703837 -9.50937,20.481714 -12.92298,8.777877 -35.59916,18.287247 -40.96342,9.997027"
       id="path872" />
    <path
       style="fill:none;stroke:#000000;stroke-width:1px;stroke-linecap:butt;stroke-linejoin:miter;stroke-opacity:1"
       d="m 312.1023,136.30093 c 0,0 11.94767,-9.99703 9.50937,5.12043 -2.4383,15.11745 -6.09575,12.43532 -11.21618,6.82723"
       id="path874" />
    <path
       style="fill:none;stroke:#000000;stroke-width:1px;stroke-linecap:butt;stroke-linejoin:miter;stroke-opacity:1"
       d="m 371.84064,131.42433 c 0,0 4.63276,24.38299 16.58043,13.65448 11.94767,-10.72852 2.4383,-16.09278 -8.77788,-21.21321"
       id="path876" />
    <path
       style="fill:none;stroke:#000000;stroke-width:1px;stroke-linecap:butt;stroke-linejoin:miter;stroke-opacity:1"
       d="m 347.45764,191.65032 c 0,0 -19.50639,-8.29022 -24.87065,9.02171 -5.36426,17.31192 14.87363,23.16384 25.35831,20.23788"
       id="path878" />
    <path
       style="fill:none;stroke:#000000;stroke-width:1px;stroke-linecap:butt;stroke-linejoin:miter;stroke-opacity:1"
       d="m 355.99169,204.81714 c 0,0 -10.48469,-17.79959 -24.87065,-7.80256 -14.38597,9.99703 5.36426,26.33363 14.62979,19.26256 9.26554,-7.07106 7.07107,-9.75319 5.12043,-11.46"
       id="path880" />
    <path
       style="fill:none;stroke:#000000;stroke-width:1px;stroke-linecap:butt;stroke-linejoin:miter;stroke-opacity:1"
       d="m 514.23731,78.269406 c -3.41362,0 -13.41064,5.851918 -5.60809,18.043414 7.80256,12.1915 20.23789,8.04639 22.43236,1.21915"
       id="path882" />
    <path
       style="fill:none;stroke:#000000;stroke-width:1px;stroke-linecap:butt;stroke-linejoin:miter;stroke-opacity:1"
       d="m 515.70029,83.877494 c 0,0 -6.82724,9.509367 3.16979,6.827238"
       id="path884" />
    <path
       style="fill:none;stroke:#000000;stroke-width:1px;stroke-linecap:butt;stroke-linejoin:miter;stroke-opacity:1"
       d="m 453.52366,67.297059 c 0,0 22.67618,1.46298 10.72852,12.679156 -11.94767,11.216177 -18.77491,-3.901278 -16.82427,-8.534047"
       id="path886" />
    <path
       style="fill:none;stroke:#000000;stroke-width:1px;stroke-linecap:butt;stroke-linejoin:miter;stroke-opacity:1"
       d="m 434.01727,143.85966 c 3.16979,-5.36426 35.84299,-15.11746 44.13321,9.26553"
       id="path888" />
    <path
       style="fill:none;stroke:#000000;stroke-width:1px;stroke-linecap:butt;stroke-linejoin:miter;stroke-opacity:1"
       d="m 431.09131,159.22094 c 0.24383,2.19447 2.92596,32.18555 34.62385,19.75022"
       id="path890" />
    <path
       style="fill:none;stroke:#000000;stroke-width:1px;stroke-linecap:butt;stroke-linejoin:miter;stroke-opacity:1"
       d="m 454.01132,158.24562 c 0,0 9.50937,-11.46001 12.92299,-6.58341 3.41361,4.8766 2.68213,10.97235 -3.16979,12.43533"
       id="path892" />
    <path
       style="fill:none;stroke:#000000;stroke-width:1px;stroke-linecap:butt;stroke-linejoin:miter;stroke-opacity:1"
       d="m 508.14156,158.97711 c 0,0 -2.68213,23.40767 12.67916,21.45703"
       id="path894" />
  </g>
</svg>
