<?xml version="1.0" encoding="UTF-8" standalone="no"?>
<svg
        xmlns:dc="http://purl.org/dc/elements/1.1/"
        xmlns:cc="http://creativecommons.org/ns#"
        xmlns:rdf="http://www.w3.org/1999/02/22-rdf-syntax-ns#"
        xmlns:svg="http://www.w3.org/2000/svg"
        xmlns="http://www.w3.org/2000/svg"
        xmlns:sodipodi="http://sodipodi.sourceforge.net/DTD/sodipodi-0.dtd"
        xmlns:inkscape="http://www.inkscape.org/namespaces/inkscape"
        version="1.1"
        id="svg833"
        width="295.53802"
        height="292.24213"
        viewBox="0 0 295.53802 292.24213"
        sodipodi:docname="moon.svg"
        inkscape:version="1.0.2 (e86c870879, 2021-01-15, custom)">
  <metadata
          id="metadata839">
    <rdf:RDF>
      <cc:Work
              rdf:about="">
        <dc:format>image/svg+xml</dc:format>
        <dc:type
                rdf:resource="http://purl.org/dc/dcmitype/StillImage" />
        <dc:title></dc:title>
      </cc:Work>
    </rdf:RDF>
  </metadata>
  <defs
          id="defs837" />
  <sodipodi:namedview
          pagecolor="#ffffff"
          bordercolor="#666666"
          borderopacity="1"
          objecttolerance="10"
          gridtolerance="10"
          guidetolerance="10"
          inkscape:pageopacity="0"
          inkscape:pageshadow="2"
          inkscape:window-width="1849"
          inkscape:window-height="1057"
          id="namedview835"
          showgrid="false"
          fit-margin-top="0"
          fit-margin-left="0"
          fit-margin-right="0"
          fit-margin-bottom="0"
          inkscape:zoom="1.45"
          inkscape:cx="105.83561"
          inkscape:cy="142.37279"
          inkscape:window-x="63"
          inkscape:window-y="-8"
          inkscape:window-maximized="1"
          inkscape:current-layer="layer1" />


   <g
          inkscape:groupmode="layer"
          id="layer1"
          inkscape:label="vector"
          transform="translate(-271.94049,-40.201886)">
    <path
            style="fill:none;stroke:#000000;stroke-width:1px;stroke-linecap:butt;stroke-linejoin:miter;stroke-opacity:1"
            d="m -219.58393,-249.22005 C -219.58393,-249.22005 -210.11211,-252.73655 -211.19077,-251.07288 m 0,0 C -211.19886,-251.06037 -211.20667,-251.04786 -211.21425,-251.03529 C -211.22976,-251.00945 -211.24417,-250.98341 -211.25752,-250.95717 C -211.27575,-250.92129 -211.29196,-250.88503 -211.30622,-250.8484 C -211.32504,-250.80008 -211.3405,-250.75113 -211.35274,-250.70162 C -211.36726,-250.64277 -211.37721,-250.58314 -211.38287,-250.52292 C -211.38938,-250.45336 -211.39012,-250.38294 -211.38551,-250.31193 C -211.38039,-250.23353 -211.36872,-250.15438 -211.351,-250.07476 C -211.33207,-249.98977 -211.30625,-249.90423 -211.27419,-249.81855 C -211.24027,-249.728 -211.19939,-249.63725 -211.15222,-249.54675 C -211.10147,-249.44939 -211.04346,-249.35228 -210.97911,-249.25598 C -210.91378,-249.15821 -210.84191,-249.06122 -210.76446,-248.96561 C -210.69066,-248.87451 -210.6118,-248.78464 -210.52869,-248.69648 C -210.44591,-248.60871 -210.35894,-248.52262 -210.26859,-248.43867 C -210.18407,-248.3602 -210.0966,-248.28362 -210.00682,-248.20927 C -209.91889,-248.13649 -209.82877,-248.06589 -209.73707,-247.99785 C -209.64873,-247.93231 -209.55898,-247.86911 -209.46829,-247.80862 C -209.38186,-247.75095 -209.29459,-247.69571 -209.207,-247.64318 C -209.1225,-247.59251 -209.03768,-247.54439 -208.95299,-247.49903 C -208.87377,-247.45658 -208.7947,-247.41658 -208.71608,-247.37924 C -208.64186,-247.34398 -208.5681,-247.31105 -208.49505,-247.28067 C -208.00824,-247.07813 -207.55306,-246.98723 -207.21799,-247.0587 m 0,0 C -207.20868,-247.06066 -207.19935,-247.06274 -207.18994,-247.06483 C -207.167,-247.06997 -207.14381,-247.07546 -207.12037,-247.0813 C -207.08794,-247.0894 -207.05504,-247.09815 -207.02172,-247.10755 C -206.98117,-247.119 -206.94003,-247.1314 -206.89829,-247.14477 C -206.84903,-247.16057 -206.79894,-247.17767 -206.74815,-247.19609 C -206.69188,-247.21649 -206.63471,-247.2385 -206.5768,-247.26205 C -206.50901,-247.28962 -206.44022,-247.31935 -206.37055,-247.35112 C -206.29094,-247.38746 -206.21024,-247.42649 -206.12875,-247.46814 C -206.04309,-247.51189 -205.95658,-247.55855 -205.86952,-247.60793 C -205.78158,-247.65784 -205.69305,-247.71059 -205.60434,-247.76607 C -205.51446,-247.82227 -205.4244,-247.88125 -205.33447,-247.9429 C -205.24229,-248.0061 -205.15028,-248.0721 -205.0588,-248.14076 C -204.96626,-248.21027 -204.87427,-248.28253 -204.78324,-248.35738 C -204.69187,-248.43253 -204.60147,-248.51034 -204.51249,-248.5906 C -204.42766,-248.66714 -204.34408,-248.74594 -204.26213,-248.8269 C -204.18375,-248.90432 -204.10687,-248.98372 -204.03177,-249.06504 C -203.96144,-249.14114 -203.89266,-249.2189 -203.82574,-249.29823 C -203.76419,-249.37118 -203.70419,-249.44544 -203.64596,-249.52097 C -203.5924,-249.59038 -203.54034,-249.66086 -203.48991,-249.73235 C -203.44383,-249.79763 -203.39914,-249.86378 -203.35589,-249.9307 C -203.08929,-250.34362 -202.87887,-250.78717 -202.75234,-251.25246 m 0,0 C -202.747,-251.2721 -202.74146,-251.29147 -202.73579,-251.31054 C -202.7242,-251.34937 -202.71189,-251.387 -202.6989,-251.42345 C -202.68201,-251.47085 -202.66394,-251.5163 -202.64475,-251.55986 C -202.62029,-251.61538 -202.59401,-251.66783 -202.566,-251.7175 C -202.53336,-251.77532 -202.49839,-251.82931 -202.46118,-251.87977 C -202.41891,-251.93709 -202.37379,-251.98988 -202.326,-252.03857 C -202.27392,-252.09169 -202.21867,-252.13995 -202.16054,-252.18396 C -202.09695,-252.23209 -202.02994,-252.27511 -201.95986,-252.31383 C -201.88684,-252.35419 -201.8105,-252.38984 -201.73123,-252.42174 C -201.65109,-252.45396 -201.56799,-252.4823 -201.48229,-252.50772 C -201.3956,-252.53343 -201.30627,-252.55614 -201.21476,-252.57675 C -201.12774,-252.59638 -201.03873,-252.61414 -200.94809,-252.63084 C -200.85816,-252.64744 -200.76659,-252.66301 -200.67383,-252.67831 C -200.58436,-252.69312 -200.49374,-252.7077 -200.40232,-252.72279 C -200.31397,-252.73738 -200.22486,-252.75243 -200.13531,-252.76862 C -200.04718,-252.78454 -199.95864,-252.80154 -199.86992,-252.82027 C -199.78635,-252.83792 -199.70259,-252.85707 -199.61897,-252.87829 C -199.54026,-252.89822 -199.46165,-252.91996 -199.38329,-252.94394 C -199.31068,-252.96618 -199.23828,-252.99034 -199.16633,-253.01674 C -199.10004,-253.04106 -199.03407,-253.06734 -198.96858,-253.09576 C -198.54527,-253.27955 -198.14134,-253.55476 -197.78989,-253.99397 m 0,0 C -197.77526,-254.01222 -197.76089,-254.03043 -197.74678,-254.04858 C -197.71801,-254.08553 -197.69033,-254.12226 -197.66359,-254.15873 C -197.62813,-254.20713 -197.59435,-254.25509 -197.56218,-254.30264 C -197.52832,-254.35271 -197.49622,-254.40232 -197.46572,-254.45152 C -197.4289,-254.5109 -197.39443,-254.56961 -197.36203,-254.62772 C -197.32467,-254.69477 -197.29006,-254.76099 -197.25784,-254.82645 C -197.22033,-254.90261 -197.18601,-254.97772 -197.15428,-255.05181 C -197.11818,-255.13612 -197.08542,-255.21911 -197.05499,-255.30087 C -197.02316,-255.38653 -196.99393,-255.47082 -196.96626,-255.55386 C -196.93814,-255.63818 -196.91163,-255.72118 -196.88554,-255.803 C -196.85906,-255.88618 -196.83302,-255.9681 -196.80625,-256.04889 C -196.77992,-256.12838 -196.75291,-256.20678 -196.72403,-256.28418 C -196.6954,-256.36095 -196.66497,-256.43673 -196.63162,-256.51164 C -196.59862,-256.58577 -196.56277,-256.65906 -196.52297,-256.73153 C -196.48452,-256.80162 -196.44244,-256.87092 -196.39574,-256.93963 C -196.35171,-257.00432 -196.3036,-257.06846 -196.25055,-257.13214 C -196.20031,-257.19244 -196.14566,-257.2523 -196.08591,-257.31177 C -196.0318,-257.36566 -195.97348,-257.41924 -195.91046,-257.47257 C -195.85164,-257.52232 -195.78873,-257.57187 -195.72131,-257.6212 C -195.65924,-257.66661 -195.59335,-257.71188 -195.52335,-257.75697 C -195.04847,-258.06291 -194.38302,-258.36252 -193.42595,-258.66465 m 0,0 C -193.3876,-258.67677 -193.34784,-258.68976 -193.30673,-258.70362 C -193.22294,-258.73184 -193.13356,-258.76367 -193.03868,-258.799 C -192.91539,-258.84491 -192.78289,-258.89671 -192.64164,-258.95416 C -192.45886,-259.02847 -192.26144,-259.11224 -192.05035,-259.20489 C -191.80526,-259.31245 -191.54178,-259.432 -191.26143,-259.56265 C -190.94364,-259.71074 -190.60418,-259.87314 -190.24529,-260.04852 C -189.85453,-260.23951 -189.44075,-260.44595 -189.00685,-260.6662 C -188.53307,-260.90667 -188.03528,-261.16364 -187.51729,-261.43499 C -186.98237,-261.7152 -186.42588,-262.01073 -185.85198,-262.31928 C -185.24778,-262.64414 -184.6243,-262.98338 -183.98637,-263.33434 C -183.34515,-263.68712 -182.68936,-264.05174 -182.02388,-264.42544 C -181.36017,-264.79815 -180.68684,-265.17989 -180.00884,-265.56795 C -179.34892,-265.94564 -178.68452,-266.32931 -178.02018,-266.71643 C -177.37089,-267.09476 -176.72161,-267.47641 -176.07663,-267.85902 C -175.44918,-268.23123 -174.82572,-268.60435 -174.21018,-268.97619 C -173.61559,-269.33538 -173.02837,-269.69338 -172.45205,-270.04827 C -171.91739,-270.37746 -171.3921,-270.70398 -170.87896,-271.02625 C -170.40414,-271.32444 -169.93973,-271.619 -169.48794,-271.90867 C -169.07767,-272.17168 -168.67786,-272.4307 -168.29006,-272.68479 C -167.93538,-272.91716 -167.59082,-273.14541 -167.25759,-273.36882 C -165.36179,-274.63973 -163.83322,-275.7541 -162.90484,-276.58184 m 0,0 C -162.87318,-276.61006 -162.84164,-276.63778 -162.81016,-276.66496 C -162.74288,-276.72318 -162.67608,-276.77906 -162.60972,-276.83267 C -162.51396,-276.91007 -162.41916,-276.98272 -162.32532,-277.05083 C -162.19308,-277.14684 -162.06271,-277.23379 -161.93416,-277.31221 C -161.77346,-277.41024 -161.61559,-277.49495 -161.46042,-277.56728 C -161.27383,-277.65425 -161.09112,-277.72337 -160.912,-277.77633 C -160.71986,-277.83313 -160.5319,-277.87136 -160.34772,-277.89308 C -160.15388,-277.91599 -159.96427,-277.92063 -159.77851,-277.9095 C -159.5847,-277.89788 -159.39509,-277.86909 -159.20926,-277.82592 C -159.02252,-277.78255 -158.83957,-277.72466 -158.65997,-277.65516 C -158.479,-277.58509 -158.30143,-277.50322 -158.12678,-277.41244 C -157.94989,-277.32046 -157.77598,-277.21933 -157.6046,-277.1121 C -157.43565,-277.00637 -157.26916,-276.8947 -157.10466,-276.77993 C -156.9461,-276.66932 -156.78938,-276.55589 -156.63413,-276.44219 C -156.48442,-276.33256 -156.33607,-276.22273 -156.18867,-276.11497 C -156.05006,-276.01363 -155.91233,-275.91416 -155.77513,-275.8185 C -155.64539,-275.72802 -155.51617,-275.64094 -155.38717,-275.55892 C -155.27047,-275.48469 -155.15399,-275.41459 -155.03746,-275.34983 C -154.92714,-275.2885 -154.81681,-275.23192 -154.70635,-275.18123 C -154.60242,-275.13349 -154.49835,-275.09095 -154.39402,-275.05439 C -153.72553,-274.8202 -153.04598,-274.83285 -152.31984,-275.31829 m 0,0 C -152.29635,-275.33401 -152.27214,-275.35071 -152.24719,-275.36837 C -152.19058,-275.40846 -152.13025,-275.45361 -152.06626,-275.50361 C -151.97773,-275.57284 -151.88231,-275.65137 -151.78033,-275.7388 C -151.66957,-275.83374 -151.55106,-275.93919 -151.42524,-276.05452 C -151.26086,-276.20525 -151.08402,-276.37285 -150.89567,-276.55615 C -150.66203,-276.78354 -150.41071,-277.03502 -150.14355,-277.30817 C -149.84928,-277.60909 -149.53581,-277.93635 -149.20568,-278.28668 C -148.87917,-278.63311 -148.53638,-279.00215 -148.17968,-279.39064 C -147.80195,-279.80204 -147.40864,-280.23524 -147.0026,-280.68655 C -146.56337,-281.17482 -146.10926,-281.68426 -145.64394,-282.21018 C -145.16653,-282.74979 -144.67732,-283.30674 -144.18018,-283.876 C -143.67143,-284.45861 -143.15443,-285.05406 -142.63337,-285.65697 C -142.11506,-286.25671 -141.59274,-286.86382 -141.07058,-287.4729 C -140.56601,-288.06146 -140.0616,-288.65192 -139.56107,-289.23941 C -139.07404,-289.81106 -138.59069,-290.3799 -138.11447,-290.94149 C -137.67398,-291.46096 -137.23954,-291.97425 -136.814,-292.47778 C -136.40643,-292.96001 -136.00697,-293.43332 -135.61802,-293.89462 C -135.24146,-294.34121 -134.87476,-294.77654 -134.52004,-295.19781 C -134.1903,-295.58945 -133.87091,-295.96895 -133.56366,-296.33403 C -133.27508,-296.67693 -132.99724,-297.00709 -132.73154,-297.32266 C -130.96121,-299.42534 -129.73042,-300.88062 -129.46767,-301.13585 m 0,0 C -129.46047,-301.14286 -129.45342,-301.14996 -129.44658,-301.15713 C -129.43457,-301.16976 -129.42312,-301.18266 -129.41226,-301.19579 C -129.39356,-301.21841 -129.37655,-301.24176 -129.36113,-301.26592 C -129.34341,-301.29373 -129.32779,-301.32254 -129.31425,-301.35235 C -129.29626,-301.39201 -129.28189,-301.43341 -129.27093,-301.47657 C -129.25718,-301.53073 -129.24879,-301.58761 -129.24537,-301.64717 C -129.2416,-301.71316 -129.24392,-301.78244 -129.25175,-301.85488 C -129.2596,-301.92744 -129.27296,-302.00316 -129.2913,-302.08198 C -129.31093,-302.16643 -129.33628,-302.25441 -129.36663,-302.34583 C -129.39622,-302.43503 -129.43055,-302.52751 -129.46899,-302.62308 C -129.50913,-302.72296 -129.55371,-302.82625 -129.60203,-302.93283 C -129.64889,-303.03622 -129.69922,-303.14272 -129.75236,-303.25222 C -129.80805,-303.367 -129.86684,-303.48506 -129.92789,-303.60629 C -129.98649,-303.72261 -130.04718,-303.84182 -130.10927,-303.9638 C -130.17071,-304.08457 -130.23355,-304.20808 -130.29707,-304.33415 C -130.36058,-304.46024 -130.42477,-304.58892 -130.48894,-304.72009 C -130.55117,-304.84727 -130.61341,-304.97677 -130.675,-305.10852 C -130.73434,-305.23538 -130.7931,-305.3643 -130.85071,-305.49521 C -130.90529,-305.6192 -130.95885,-305.74497 -131.01094,-305.87242 C -131.06035,-305.99336 -131.10842,-306.11585 -131.15476,-306.23977 C -131.48978,-307.13575 -131.73362,-308.1076 -131.73383,-309.12917 m 0,0 C -131.73383,-309.15389 -131.7334,-309.17896 -131.73256,-309.20441 C -131.73064,-309.26281 -131.72646,-309.32314 -131.72014,-309.38538 C -131.71119,-309.47328 -131.69793,-309.56505 -131.68048,-309.66061 C -131.65784,-309.78457 -131.62812,-309.91494 -131.59168,-310.05159 C -131.54881,-310.21231 -131.49659,-310.38168 -131.43552,-310.55957 C -131.36373,-310.76868 -131.27969,-310.9895 -131.18421,-311.22176 C -131.07423,-311.48928 -130.94907,-311.77198 -130.80991,-312.06934 C -130.66863,-312.37126 -130.51295,-312.68831 -130.34411,-313.01999 C -130.15924,-313.38313 -129.95862,-313.76381 -129.74388,-314.16138 C -129.51195,-314.59075 -129.2636,-315.0398 -129.00089,-315.50765 C -128.73506,-315.98104 -128.45452,-316.47371 -128.16147,-316.98484 C -127.86903,-317.49482 -127.56412,-318.02315 -127.24888,-318.56897 C -126.93837,-319.10658 -126.61782,-319.66116 -126.28933,-320.23188 C -125.97455,-320.77874 -125.65247,-321.34041 -125.32488,-321.91617 C -125.00896,-322.47142 -124.68794,-323.0398 -124.36337,-323.62061 C -124.06236,-324.15933 -123.75833,-324.70878 -123.45257,-325.26842 C -123.1627,-325.79899 -122.87128,-326.33872 -122.5794,-326.88723 C -122.30448,-327.40383 -122.02918,-327.92822 -121.75439,-328.46 C -121.49542,-328.9611 -121.23693,-329.46878 -120.97969,-329.98269 C -120.73893,-330.46371 -120.49925,-330.95015 -120.26126,-331.44184 C -118.7748,-334.51309 -117.3552,-337.78816 -116.15637,-341.20559 m 0,0 C -116.11801,-341.31495 -116.0798,-341.42498 -116.04176,-341.53565 C -115.99316,-341.67695 -115.94484,-341.81929 -115.89677,-341.96261 C -115.8174,-342.19936 -115.73875,-342.43889 -115.6608,-342.68105 C -115.54055,-343.05475 -115.42195,-343.43474 -115.30506,-343.82058 C -115.14965,-344.33365 -114.99723,-344.85706 -114.84779,-345.38976 C -114.66021,-346.05854 -114.47735,-346.742 -114.29924,-347.43804 C -114.10174,-348.20972 -113.91007,-348.9969 -113.7242,-349.79676 C -113.53619,-350.60585 -113.3541,-351.42792 -113.17796,-352.26009 C -112.9895,-353.15047 -112.80782,-354.05242 -112.63294,-354.96232 C -112.44804,-355.92434 -112.27071,-356.89533 -112.10101,-357.87102 C -111.92746,-358.86873 -111.76183,-359.87137 -111.60413,-360.8745 C -111.44092,-361.91271 -111.28619,-362.95142 -111.13993,-363.98571 C -110.99486,-365.0116 -110.85812,-366.0331 -110.72972,-367.04533 C -110.60107,-368.05978 -110.48077,-369.06496 -110.36881,-370.05593 C -110.26011,-371.01843 -110.15928,-371.96754 -110.06634,-372.89879 C -109.97498,-373.81412 -109.89126,-374.71222 -109.81513,-375.58879 C -109.74315,-376.41775 -109.67797,-377.22748 -109.6196,-378.01436 C -109.56522,-378.74765 -109.51673,-379.46111 -109.47414,-380.15184 C -109.43466,-380.79211 -109.40026,-381.41282 -109.37095,-382.0117 C -109.34394,-382.56331 -109.32124,-383.09637 -109.30283,-383.6091 C -109.18387,-386.92258 -109.24454,-389.3857 -109.48422,-390.50922 m 0,0 C -109.49338,-390.55213 -109.50221,-390.59445 -109.51069,-390.63618 C -109.52801,-390.72116 -109.54396,-390.80367 -109.55859,-390.88379 C -109.578,-390.99003 -109.59502,-391.09204 -109.60987,-391.19003 C -109.6272,-391.30465 -109.6415,-391.41376 -109.65283,-391.51762 C -109.66624,-391.64016 -109.67556,-391.75539 -109.68104,-391.86377 C -109.68668,-391.97532 -109.68824,-392.07966 -109.68601,-392.17721 C -109.68337,-392.2914 -109.67553,-392.39636 -109.66287,-392.49285 C -109.64835,-392.60317 -109.62759,-392.70246 -109.6011,-392.79197 C -109.57329,-392.88597 -109.53921,-392.96919 -109.49955,-393.04303 C -109.46123,-393.11433 -109.41772,-393.17688 -109.36966,-393.23196 C -109.3206,-393.28811 -109.26683,-393.3365 -109.20897,-393.37844 C -109.14885,-393.42205 -109.08435,-393.45868 -109.01621,-393.48987 C -108.94839,-393.5209 -108.87702,-393.54659 -108.80278,-393.56838 C -108.7291,-393.59003 -108.65258,-393.60787 -108.57398,-393.62334 C -108.49788,-393.63832 -108.41978,-393.65113 -108.34041,-393.66301 C -108.26403,-393.67448 -108.18647,-393.68513 -108.1083,-393.69615 C -108.03464,-393.70651 -107.96045,-393.71722 -107.8862,-393.72928 C -107.81546,-393.74073 -107.74468,-393.75341 -107.67429,-393.76815 C -107.6082,-393.78198 -107.54243,-393.79763 -107.47735,-393.8158 C -107.41667,-393.83277 -107.35657,-393.85193 -107.29737,-393.87386 C -106.93377,-394.00858 -106.60389,-394.24803 -106.37442,-394.72588 m 0,0 C -106.36766,-394.73993 -106.36086,-394.75437 -106.35397,-394.76922 C -106.33922,-394.80094 -106.32416,-394.83448 -106.30883,-394.86979 C -106.28665,-394.92072 -106.26387,-394.97539 -106.24052,-395.0336 C -106.21543,-395.0962 -106.18972,-395.16294 -106.16343,-395.2337 C -106.12805,-395.32901 -106.09166,-395.43159 -106.05449,-395.5412 C -106.00743,-395.67999 -105.95906,-395.83002 -105.90989,-395.9907 C -105.85511,-396.16965 -105.79928,-396.36182 -105.74298,-396.56644 C -105.67907,-396.79877 -105.61451,-397.04713 -105.5502,-397.3104 C -105.48298,-397.58553 -105.41604,-397.8769 -105.3503,-398.18322 C -105.28219,-398.50066 -105.2154,-398.83412 -105.15101,-399.18213 C -105.08531,-399.53707 -105.02212,-399.90714 -104.96258,-400.29078 C -104.90602,-400.65511 -104.85276,-401.03168 -104.80375,-401.41913 C -104.75468,-401.80694 -104.70991,-402.20566 -104.67038,-402.61395 C -104.63196,-403.01057 -104.59853,-403.41619 -104.57094,-403.8296 C -104.54395,-404.23413 -104.52257,-404.64609 -104.50764,-405.06436 C -104.49305,-405.47281 -104.48463,-405.88723 -104.48312,-406.30657 C -104.48168,-406.71419 -104.48679,-407.12644 -104.49916,-407.54237 C -104.51111,-407.94377 -104.52982,-408.34861 -104.55598,-408.75599 C -104.58022,-409.13358 -104.61081,-409.51334 -104.64834,-409.89461 C -104.683,-410.24708 -104.72357,-410.60082 -104.77045,-410.95526 C -105.07209,-413.236 -105.6347,-415.54562 -106.56705,-417.73516 m 0,0 C -106.59487,-417.80046 -106.62266,-417.86565 -106.65041,-417.93067 C -106.70554,-418.05976 -106.76056,-418.18825 -106.81541,-418.31609 C -106.89272,-418.49618 -106.96977,-418.67496 -107.04658,-418.85248 C -107.15009,-419.09169 -107.25313,-419.32854 -107.35576,-419.56303 C -107.47915,-419.84495 -107.60191,-420.12341 -107.7241,-420.39836 C -107.8664,-420.71863 -108.00787,-421.03409 -108.14854,-421.34463 C -108.30484,-421.68967 -108.46014,-422.02858 -108.61448,-422.36128 C -108.78627,-422.73151 -108.95684,-423.09401 -109.12628,-423.44848 C -109.30362,-423.81948 -109.47972,-424.18171 -109.65457,-424.53487 C -109.8387,-424.90673 -110.02148,-425.26854 -110.20301,-425.62001 C -110.38793,-425.97803 -110.57151,-426.32527 -110.75383,-426.6614 C -110.93355,-426.99273 -111.11204,-427.31326 -111.28938,-427.62265 C -111.46557,-427.93008 -111.64064,-428.22654 -111.8146,-428.51164 C -111.97708,-428.77793 -112.13861,-429.03435 -112.29922,-429.28058 C -112.45622,-429.5213 -112.61235,-429.75231 -112.76766,-429.97335 C -112.91182,-430.17852 -113.05526,-430.37512 -113.19804,-430.56294 C -113.33798,-430.74702 -113.47728,-430.92268 -113.61598,-431.08974 C -113.74279,-431.24247 -113.86909,-431.38799 -113.99491,-431.52618 C -114.11574,-431.65891 -114.23613,-431.78482 -114.35612,-431.90383 C -114.47054,-432.01735 -114.58458,-432.12456 -114.69824,-432.22539 C -115.4796,-432.91839 -116.24342,-433.30871 -116.99606,-433.36006 m 0,0 C -117.01954,-433.36166 -117.04306,-433.36499 -117.06668,-433.37004 C -117.11503,-433.38038 -117.16366,-433.39792 -117.21259,-433.4225 C -117.27939,-433.45607 -117.34675,-433.50275 -117.41477,-433.56213 C -117.50457,-433.64053 -117.59557,-433.74105 -117.68811,-433.86274 C -117.79806,-434.0074 -117.9102,-434.18197 -118.02503,-434.38485 C -118.15762,-434.61914 -118.29381,-434.89116 -118.43441,-435.19848 C -118.58963,-435.53774 -118.75025,-435.92 -118.91739,-436.34193 C -119.09579,-436.79233 -119.28165,-437.28793 -119.47627,-437.8247 C -119.68193,-438.39191 -119.89738,-439.00507 -120.1243,-439.65944 C -120.3684,-440.36343 -120.62575,-441.11512 -120.89831,-441.90853 C -121.17502,-442.71404 -121.46743,-443.56253 -121.77763,-444.44787 C -122.07325,-445.29158 -122.38504,-446.16871 -122.71479,-447.07388 C -123.04313,-447.97526 -123.38933,-448.90439 -123.75513,-449.85608 C -124.09725,-450.74613 -124.45653,-451.65589 -124.83442,-452.58099 C -125.20452,-453.48701 -125.5925,-454.40772 -125.99972,-455.33907 C -126.39186,-456.23599 -126.80185,-457.14275 -127.23092,-458.05576 C -127.6399,-458.92604 -128.06623,-459.80196 -128.51095,-460.68039 C -128.94005,-461.52793 -129.38624,-462.37778 -129.8505,-463.22711 C -130.28461,-464.02128 -130.73453,-464.81497 -131.20104,-465.60595 C -131.64121,-466.35227 -132.09618,-467.09616 -132.56658,-467.83563 C -135.70072,-472.76259 -139.51979,-477.49418 -144.21828,-481.4548 m 0,0 C -144.3487,-481.56474 -144.47848,-481.67452 -144.60769,-481.78417 C -144.92368,-482.05231 -145.23614,-482.31961 -145.54517,-482.58607 C -145.9728,-482.9548 -146.39396,-483.32187 -146.80904,-483.68731 C -147.31393,-484.13185 -147.8098,-484.57394 -148.29745,-485.01354 C -148.87299,-485.53244 -149.43702,-486.04782 -149.99076,-486.55972 C -150.60434,-487.12691 -151.20528,-487.68974 -151.79521,-488.24818 C -152.48573,-488.90176 -153.16119,-489.54928 -153.82425,-490.19059 C -154.58215,-490.92362 -155.32385,-491.64847 -156.05333,-492.36497 C -156.81971,-493.11767 -157.57255,-493.86115 -158.31652,-494.59511 C -159.06811,-495.33659 -159.81062,-496.06836 -160.54882,-496.79018 C -161.29667,-497.52143 -162.04008,-498.24241 -162.78399,-498.9529 C -163.54639,-499.68105 -164.30933,-500.39816 -165.07805,-501.10386 C -165.85604,-501.81808 -166.63997,-502.52061 -167.43539,-503.21121 C -168.23388,-503.9045 -169.04394,-504.5857 -169.87113,-505.25454 C -170.6596,-505.89209 -171.4636,-506.51836 -172.28799,-507.1331 C -173.07646,-507.72104 -173.88355,-508.29843 -174.71351,-508.86501 C -175.49078,-509.39564 -176.28808,-509.91677 -177.10888,-510.42823 C -177.86373,-510.8986 -178.63849,-511.36077 -179.4358,-511.81462 C -180.1686,-512.23174 -180.92048,-512.64181 -181.69351,-513.04472 C -182.39955,-513.41271 -183.12323,-513.7747 -183.86617,-514.13064 C -188.44895,-516.32618 -193.76403,-518.29063 -200.18552,-520.00207 m 0,0 C -200.45675,-520.07434 -200.72508,-520.14592 -200.99056,-520.21677 C -201.53139,-520.3611 -202.0604,-520.5025 -202.57787,-520.64103 C -203.25047,-520.82109 -203.90359,-520.99628 -204.53779,-521.16679 C -205.34587,-521.38404 -206.12325,-521.59367 -206.87119,-521.79601 C -207.74223,-522.03164 -208.57338,-522.25744 -209.36652,-522.47384 C -210.26779,-522.71976 -211.12002,-522.95357 -211.92609,-523.1761 C -212.80536,-523.41882 -213.62975,-523.64808 -214.4029,-523.86488 C -215.24862,-524.10205 -216.03305,-524.32427 -216.7611,-524.5329 C -217.51964,-524.75027 -218.21696,-524.95286 -218.85859,-525.14221 C -219.50709,-525.33352 -220.09872,-525.51129 -220.63916,-525.677 C -221.18598,-525.84468 -221.6804,-526.00002 -222.12832,-526.1446 C -222.55423,-526.2821 -222.93811,-526.40986 -223.28503,-526.52927 C -223.62943,-526.64781 -223.93743,-526.75812 -224.21396,-526.86152 C -224.48069,-526.96125 -224.71819,-527.05456 -224.93086,-527.14265 C -225.13636,-527.22776 -225.31871,-527.30798 -225.48189,-527.3844 C -225.64244,-527.45956 -225.78445,-527.53107 -225.91177,-527.59991 C -226.03175,-527.6648 -226.13865,-527.72729 -226.23569,-527.78828 C -226.32701,-527.84571 -226.40966,-527.90179 -226.48622,-527.95725 C -226.55718,-528.00866 -226.62293,-528.05955 -226.68562,-528.11046 C -226.74334,-528.15737 -226.79849,-528.20433 -226.85264,-528.25174 C -227.20282,-528.5582 -227.51347,-528.88473 -228.23358,-529.35163 m 0,0 C -228.26352,-529.37105 -228.29316,-529.39046 -228.32246,-529.40991 C -228.38219,-529.44946 -228.44063,-529.48907 -228.49791,-529.52863 C -228.5739,-529.58113 -228.64784,-529.63356 -228.72001,-529.68588 C -228.79604,-529.74098 -228.87009,-529.79593 -228.94248,-529.85065 C -229.02991,-529.91673 -229.11495,-529.98244 -229.19815,-530.04762 C -229.29421,-530.12288 -229.38778,-530.19742 -229.47981,-530.27102 C -229.58697,-530.35667 -229.69197,-530.44101 -229.79623,-530.52367 C -229.91486,-530.6177 -230.03255,-530.70948 -230.15124,-530.79839 C -230.27561,-530.89155 -230.40108,-530.98157 -230.53001,-531.06773 C -230.66091,-531.15517 -230.79537,-531.23869 -230.93578,-531.31744 C -231.07851,-531.39748 -231.22739,-531.47264 -231.385,-531.54214 C -231.54005,-531.61049 -231.70354,-531.67335 -231.87786,-531.72998 C -232.05076,-531.78611 -232.23433,-531.83611 -232.43089,-531.8792 C -232.62546,-531.92189 -232.8328,-531.95783 -233.05515,-531.98632 C -233.26997,-532.01383 -233.49884,-532.03439 -233.74379,-532.04735 C -233.97456,-532.05954 -234.21962,-532.06502 -234.48069,-532.06321 C -234.72796,-532.06149 -234.98964,-532.05324 -235.26713,-532.038 C -235.51857,-532.0242 -235.78295,-532.00466 -236.06147,-531.97906 C -236.32145,-531.95514 -236.59372,-531.92591 -236.87917,-531.89115 C -237.14189,-531.85911 -237.41578,-531.82239 -237.7015,-531.78073 C -239.63931,-531.49812 -242.12189,-530.98853 -245.36483,-530.18479 m 0,0 C -245.49482,-530.15257 -245.62331,-530.12124 -245.75028,-530.09082 C -246.00896,-530.02888 -246.26142,-529.97065 -246.50791,-529.91602 C -246.82828,-529.84504 -247.13857,-529.78013 -247.4392,-529.72108 C -247.82823,-529.64467 -248.20115,-529.57808 -248.55904,-529.5207 C -248.97452,-529.45412 -249.3697,-529.40005 -249.74625,-529.35757 C -250.17308,-529.30943 -250.57597,-529.27627 -250.95729,-529.25685 C -251.37251,-529.23569 -251.76218,-529.23084 -252.12943,-529.24067 C -252.53046,-529.25141 -252.90477,-529.27969 -253.2564,-529.32341 C -253.61951,-529.36859 -253.95847,-529.43027 -254.27772,-529.5062 C -254.61382,-529.58615 -254.92809,-529.68188 -255.22577,-529.79076 C -255.52494,-529.90017 -255.80734,-530.02289 -256.07819,-530.15622 C -256.34838,-530.28917 -256.6071,-530.43268 -256.85963,-530.58407 C -257.10542,-530.73143 -257.34533,-530.88625 -257.58421,-531.04608 C -257.81769,-531.20231 -258.05019,-531.36329 -258.28622,-531.52681 C -258.51585,-531.68588 -258.7488,-531.84733 -258.98929,-532.00899 C -259.22158,-532.16517 -259.46088,-532.32162 -259.71096,-532.47639 C -259.94293,-532.61995 -260.18414,-532.76209 -260.43766,-532.90128 C -260.67221,-533.03006 -260.91724,-533.15637 -261.17514,-533.27891 C -261.40932,-533.39018 -261.65409,-533.49838 -261.91127,-533.6026 C -262.14644,-533.69793 -262.392,-533.78992 -262.64926,-533.87794 C -264.11282,-534.37854 -265.95551,-534.74934 -268.42742,-534.8636 m 0,0 C -268.51172,-534.86747 -268.59585,-534.87124 -268.67982,-534.87488 C -268.85951,-534.88267 -269.03848,-534.88986 -269.21675,-534.89645 C -269.47412,-534.90597 -269.73002,-534.91424 -269.9845,-534.92124 C -270.3432,-534.93109 -270.69908,-534.93846 -271.05228,-534.94329 C -271.49381,-534.94928 -271.93115,-534.95132 -272.36456,-534.94924 C -272.88578,-534.94681 -273.4013,-534.93847 -273.9116,-534.9241 C -274.45908,-534.9087 -275.00055,-534.88636 -275.53661,-534.85694 C -276.10092,-534.82596 -276.65921,-534.78713 -277.21218,-534.74021 C -277.78908,-534.69126 -278.36021,-534.63356 -278.92627,-534.56684 C -279.49506,-534.49979 -280.05877,-534.42365 -280.61818,-534.33821 C -281.18182,-534.2521 -281.74108,-534.15655 -282.29679,-534.05129 C -282.85967,-533.9447 -283.41892,-533.82811 -283.97533,-533.70138 C -284.52393,-533.57641 -285.06977,-533.44153 -285.61367,-533.29651 C -286.13795,-533.15671 -286.66042,-533.00751 -287.18177,-532.84866 C -287.68458,-532.69548 -288.18634,-532.53335 -288.68772,-532.36205 C -289.1593,-532.20093 -289.63053,-532.03173 -290.10197,-531.85428 C -290.5478,-531.68649 -290.99379,-531.5113 -291.44041,-531.3286 C -291.84451,-531.1633 -292.24913,-530.99185 -292.65458,-530.81414 C -293.0386,-530.64584 -293.42337,-530.47194 -293.8092,-530.29232 C -294.17215,-530.12337 -294.536,-529.94939 -294.90102,-529.77031 C -297.23971,-528.62287 -299.62572,-527.26595 -302.12086,-525.68136 m 0,0 C -302.20157,-525.63011 -302.28134,-525.5794 -302.36022,-525.52917 C -302.53926,-525.41518 -302.71366,-525.30385 -302.88354,-525.19507 C -303.11864,-525.04457 -303.34508,-524.89896 -303.56319,-524.75811 C -303.80009,-524.6051 -304.02715,-524.4577 -304.2448,-524.3156 C -304.52913,-524.12998 -304.7974,-523.95348 -305.05045,-523.78554 C -305.36439,-523.57727 -305.65497,-523.38219 -305.92388,-523.19932 C -306.22013,-522.99784 -306.49009,-522.8112 -306.73604,-522.63804 C -306.97925,-522.4668 -307.19901,-522.30873 -307.3975,-522.16255 C -307.6077,-522.00772 -307.79408,-521.86624 -307.95925,-521.73649 C -308.13793,-521.59612 -308.29179,-521.46954 -308.42418,-521.35476 C -308.56,-521.23701 -308.67319,-521.13169 -308.76739,-521.03666 C -308.86379,-520.93941 -308.94025,-520.85294 -309.00067,-520.77505 C -309.06078,-520.69756 -309.105,-520.62849 -309.13714,-520.56562 C -309.16817,-520.5049 -309.18794,-520.44993 -309.19982,-520.39877 C -309.21138,-520.34897 -309.21553,-520.30275 -309.21535,-520.25825 C -309.2152,-520.21709 -309.21138,-520.17741 -309.20639,-520.13769 C -309.2016,-520.09968 -309.19578,-520.06166 -309.19104,-520.02235 C -309.18645,-519.98432 -309.18293,-519.94504 -309.18247,-519.9034 C -309.18202,-519.86468 -309.18419,-519.82389 -309.19061,-519.78011 C -309.19664,-519.73898 -309.20639,-519.69522 -309.2212,-519.64803 C -309.31992,-519.33353 -309.64318,-518.86686 -310.58319,-518.01721 m 0,0 C -310.60902,-517.99384 -310.63542,-517.97025 -310.66248,-517.9464 C -310.71003,-517.90446 -310.7595,-517.86171 -310.81079,-517.81818 C -310.899,-517.74335 -310.99269,-517.66617 -311.09164,-517.58676 C -311.20561,-517.49534 -311.32655,-517.40094 -311.45416,-517.30371 C -311.62384,-517.17445 -311.80528,-517.04018 -311.99773,-516.90125 C -312.23928,-516.72687 -312.49816,-516.54513 -312.77281,-516.35673 C -313.0773,-516.14785 -313.40117,-515.93081 -313.74231,-515.70646 C -314.08398,-515.48175 -314.44297,-515.24973 -314.81719,-515.01131 C -315.21823,-514.7558 -315.63673,-514.49294 -316.07008,-514.22386 C -316.49308,-513.96118 -316.93022,-513.69259 -317.37906,-513.4191 C -317.84799,-513.1334 -318.3297,-512.84237 -318.82143,-512.5472 C -319.2985,-512.2608 -319.78501,-511.97053 -320.27844,-511.67742 C -320.79578,-511.3701 -321.32072,-511.05967 -321.85038,-510.74739 C -322.35867,-510.4477 -322.87128,-510.1463 -323.38562,-509.84431 C -323.89486,-509.54538 -324.40574,-509.24583 -324.91587,-508.94676 C -325.42602,-508.64773 -325.93538,-508.34914 -326.44149,-508.05214 C -326.93214,-507.76417 -327.41968,-507.47769 -327.90187,-507.19367 C -328.36623,-506.92014 -328.8256,-506.64887 -329.27796,-506.38077 C -329.70646,-506.1268 -330.12868,-505.87565 -330.54287,-505.62809 C -330.93592,-505.39315 -331.32179,-505.16142 -331.69891,-504.93352 C -334.42586,-503.28582 -336.69806,-501.83921 -337.95738,-500.83363 m 0,0 C -337.98784,-500.80933 -338.01814,-500.7853 -338.04825,-500.76157 C -338.11733,-500.70716 -338.18555,-500.65433 -338.25288,-500.60298 C -338.34802,-500.53049 -338.44143,-500.46104 -338.53325,-500.39445 C -338.65235,-500.30812 -338.76874,-500.22664 -338.88258,-500.14981 C -339.0165,-500.05943 -339.14687,-499.97544 -339.27404,-499.89742 C -339.42349,-499.80575 -339.56848,-499.72228 -339.70941,-499.64642 C -339.87176,-499.55905 -340.02876,-499.4817 -340.18106,-499.41339 C -340.33572,-499.34402 -340.48553,-499.28397 -340.63122,-499.23212 C -340.79074,-499.17534 -340.94529,-499.12843 -341.09583,-499.08997 C -341.25842,-499.04839 -341.4163,-499.01669 -341.57062,-498.99301 C -341.72679,-498.96907 -341.87932,-498.95336 -342.02942,-498.94404 C -342.17919,-498.93474 -342.32655,-498.93181 -342.47268,-498.9334 C -342.61662,-498.93495 -342.75938,-498.94089 -342.90209,-498.94948 C -343.03883,-498.95768 -343.17552,-498.96832 -343.31317,-498.97982 C -343.44592,-498.99094 -343.57956,-499.00284 -343.71497,-499.01415 C -343.84059,-499.02465 -343.96774,-499.03467 -344.09716,-499.04306 C -344.21982,-499.05105 -344.34452,-499.05754 -344.47185,-499.06172 C -344.59183,-499.06561 -344.71413,-499.0674 -344.83925,-499.06628 C -344.95719,-499.06523 -345.07768,-499.06162 -345.20109,-499.05474 C -345.31662,-499.04831 -345.43472,-499.03908 -345.55578,-499.02643 C -346.31197,-498.94754 -347.18299,-498.73698 -348.25424,-498.26306 m 0,0 C -348.28855,-498.24789 -348.32294,-498.23246 -348.35746,-498.21675 C -348.40153,-498.19668 -348.4458,-498.17616 -348.49024,-498.15522 C -348.56363,-498.12063 -348.63752,-498.08483 -348.71189,-498.04787 C -348.82667,-497.99082 -348.94252,-497.93103 -349.0594,-497.86853 C -349.2148,-497.78542 -349.37197,-497.69759 -349.53068,-497.60529 C -349.72992,-497.48938 -349.93155,-497.36641 -350.13511,-497.23686 C -350.36076,-497.09324 -350.58876,-496.94152 -350.81842,-496.78236 C -351.05077,-496.62135 -351.28481,-496.45274 -351.51986,-496.2772 C -351.77136,-496.08936 -352.02404,-495.8936 -352.27702,-495.69075 C -352.5445,-495.47627 -352.8123,-495.25384 -353.07948,-495.02446 C -353.35266,-494.78991 -353.62514,-494.54808 -353.89591,-494.30004 C -354.17611,-494.04331 -354.45444,-493.77994 -354.72965,-493.51104 C -355.00269,-493.24434 -355.27269,-492.97218 -355.53846,-492.69579 C -355.80484,-492.41879 -356.06701,-492.13748 -356.32379,-491.85303 C -356.57318,-491.57677 -356.81748,-491.29755 -357.05566,-491.01637 C -357.28975,-490.74003 -357.51792,-490.46182 -357.73909,-490.18276 C -357.94823,-489.91885 -358.15116,-489.65418 -358.34701,-489.38958 C -358.5295,-489.14302 -358.70585,-488.8965 -358.87532,-488.65075 C -359.03243,-488.42295 -359.18364,-488.19578 -359.32841,-487.96982 C -359.46175,-487.76169 -359.58961,-487.55457 -359.71159,-487.34885 C -360.49978,-486.01945 -361.04132,-484.74993 -361.21885,-483.65486 m 0,0 C -361.22563,-483.61303 -361.23246,-483.57154 -361.23928,-483.53038 C -361.25324,-483.44648 -361.26733,-483.364 -361.28157,-483.28283 C -361.30042,-483.17512 -361.31957,-483.06978 -361.33901,-482.96657 C -361.36174,-482.84581 -361.38489,-482.72804 -361.40849,-482.61304 C -361.43635,-482.4773 -361.46483,-482.34542 -361.49402,-482.21703 C -361.52407,-482.08486 -361.55486,-481.95638 -361.5865,-481.83122 C -361.62354,-481.6847 -361.66173,-481.54278 -361.70121,-481.40476 C -361.74634,-481.24699 -361.79315,-481.09437 -361.84185,-480.94596 C -361.89302,-480.79005 -361.94629,-480.63876 -362.0019,-480.49109 C -362.05561,-480.34842 -362.11151,-480.2091 -362.16981,-480.07216 C -362.22927,-479.93246 -362.29126,-479.79523 -362.35597,-479.65949 C -362.4232,-479.51842 -362.49339,-479.37897 -362.56678,-479.23993 C -362.63977,-479.10161 -362.71597,-478.96374 -362.79557,-478.82514 C -362.87462,-478.68756 -362.95706,-478.54928 -363.04312,-478.4092 C -363.12648,-478.27353 -363.21328,-478.13617 -363.30372,-477.99612 C -363.39073,-477.86138 -363.4811,-477.72412 -363.57506,-477.5835 C -363.6636,-477.451 -363.75532,-477.31549 -363.85037,-477.17621 C -363.94098,-477.04354 -364.0346,-476.90744 -364.13143,-476.76728 C -364.22234,-476.63566 -364.31607,-476.50048 -364.41273,-476.36117 C -364.50289,-476.23122 -364.59565,-476.09771 -364.69102,-475.96017 C -365.27688,-475.11542 -365.96287,-474.11944 -366.77194,-472.87156 m 0,0 C -366.79573,-472.83487 -366.82009,-472.79719 -366.84505,-472.7585 C -366.89847,-472.67574 -366.95458,-472.58838 -367.01325,-472.49657 C -367.098,-472.36401 -367.18818,-472.22216 -367.28353,-472.07141 C -367.38601,-471.90935 -367.49448,-471.73697 -367.60862,-471.55472 C -367.76232,-471.3093 -367.92627,-471.04601 -368.09975,-470.76595 C -368.31934,-470.41137 -368.55415,-470.02998 -368.8026,-469.62395 C -369.07926,-469.17184 -369.37285,-468.68925 -369.68119,-468.17923 C -370.03132,-467.60012 -370.40047,-466.98567 -370.78552,-466.34048 C -371.18793,-465.66614 -371.60767,-464.95822 -372.04118,-464.22188 C -372.49043,-463.45879 -372.95439,-462.66519 -373.4291,-461.84685 C -373.91327,-461.01227 -374.40856,-460.15197 -374.91078,-459.27208 C -375.38772,-458.43649 -375.87088,-457.58325 -376.35657,-456.71764 C -376.84275,-455.85122 -377.33149,-454.9724 -377.81915,-454.08644 C -378.29284,-453.22586 -378.7655,-452.35854 -379.23379,-451.4893 C -379.692,-450.63881 -380.14602,-449.78651 -380.59268,-448.93695 C -381.02884,-448.10737 -381.45802,-447.28038 -381.87725,-446.46021 C -382.28471,-445.66305 -382.6828,-444.87232 -383.06886,-444.09192 C -383.44142,-443.33874 -383.80274,-442.59516 -384.15044,-441.86466 C -384.47272,-441.18753 -384.7833,-440.52165 -385.08023,-439.86974 C -385.35473,-439.26702 -385.61758,-438.67629 -385.86726,-438.09971 C -387.47385,-434.38951 -388.53446,-431.26578 -388.64412,-429.31227 m 0,0 C -388.64741,-429.25399 -388.651,-429.19631 -388.65495,-429.13923 C -388.6628,-429.02589 -388.67194,-428.91495 -388.68237,-428.80631 C -388.69709,-428.6533 -388.71433,-428.50493 -388.73406,-428.36103 C -388.76063,-428.16714 -388.79171,-427.98136 -388.82702,-427.80335 C -388.86951,-427.58935 -388.91816,-427.38658 -388.97261,-427.19439 C -389.03601,-426.97054 -389.10732,-426.76107 -389.18587,-426.56499 C -389.27318,-426.3471 -389.36946,-426.14576 -389.4739,-425.95957 C -389.59019,-425.75235 -389.71659,-425.56391 -389.85204,-425.39231 C -389.99379,-425.21272 -390.14545,-425.05163 -390.30571,-424.90683 C -390.47448,-424.75436 -390.65283,-424.61998 -390.83927,-424.50114 C -391.02915,-424.38008 -391.22747,-424.27515 -391.43259,-424.18368 C -391.6348,-424.09351 -391.84364,-424.01643 -392.05761,-423.94983 C -392.27025,-423.88367 -392.48795,-423.82787 -392.70925,-423.77994 C -392.91596,-423.73517 -393.1258,-423.69725 -393.33757,-423.66414 C -393.5446,-423.63176 -393.75348,-423.60398 -393.9631,-423.57888 C -394.15764,-423.55556 -394.35287,-423.53456 -394.54779,-423.51435 C -394.73888,-423.4945 -394.92972,-423.4754 -395.11947,-423.45564 C -395.29298,-423.43753 -395.4656,-423.41882 -395.63664,-423.39844 C -395.80091,-423.37889 -395.96378,-423.35774 -396.12461,-423.33406 C -396.27802,-423.31148 -396.42961,-423.28657 -396.57889,-423.25853 C -397.60496,-423.06569 -398.52126,-422.7236 -399.16681,-421.95655 m 0,0 C -399.18693,-421.93261 -399.2069,-421.90851 -399.22665,-421.88425 C -399.26718,-421.83447 -399.30691,-421.78398 -399.34591,-421.73281 C -399.39912,-421.66295 -399.45094,-421.5918 -399.50135,-421.51943 C -399.56791,-421.42387 -399.63205,-421.32619 -399.69397,-421.22648 C -399.7676,-421.10794 -399.83802,-420.98658 -399.90551,-420.8625 C -399.98343,-420.71925 -400.05745,-420.5724 -400.12788,-420.42226 C -400.20565,-420.25654 -400.27905,-420.08679 -400.3486,-419.91342 C -400.42286,-419.72836 -400.49267,-419.53916 -400.55866,-419.34631 C -400.62844,-419.14253 -400.69391,-418.93469 -400.75583,-418.72329 C -400.82242,-418.49587 -400.88489,-418.26437 -400.94406,-418.0295 C -401.00413,-417.79104 -401.06082,-417.54908 -401.11503,-417.30435 C -401.16668,-417.07113 -401.21608,-416.83541 -401.26402,-416.59778 C -401.31172,-416.36119 -401.35797,-416.12271 -401.40352,-415.88297 C -401.44611,-415.65879 -401.48811,-415.43346 -401.5301,-415.20758 C -401.57124,-414.98635 -401.61236,-414.76455 -401.65413,-414.54266 C -401.69434,-414.32899 -401.73508,-414.11524 -401.77696,-413.90181 C -401.81683,-413.69839 -401.85769,-413.49527 -401.9,-413.29281 C -401.94083,-413.09749 -401.983,-412.90279 -402.02691,-412.70908 C -402.06799,-412.52792 -402.11059,-412.34766 -402.15506,-412.16847 C -402.197,-411.99939 -402.24061,-411.83132 -402.28616,-411.66446 C -402.58972,-410.55263 -402.97951,-409.49481 -403.53872,-408.55809 m 0,0 C -403.55424,-408.53207 -403.56921,-408.50616 -403.58361,-408.48037 C -403.61884,-408.41725 -403.65078,-408.35474 -403.67951,-408.29276 C -403.71928,-408.20702 -403.75289,-408.1223 -403.78063,-408.03859 C -403.81436,-407.93677 -403.83936,-407.83641 -403.85609,-407.7374 C -403.87586,-407.62057 -403.88409,-407.50562 -403.88154,-407.39237 C -403.87871,-407.26689 -403.86265,-407.14346 -403.83434,-407.02191 C -403.8012,-406.8796 -403.75131,-406.73982 -403.68626,-406.60214 C -403.6119,-406.44476 -403.51775,-406.29014 -403.40619,-406.13761 C -403.28901,-405.97741 -403.15259,-405.81953 -402.99977,-405.66332 C -402.84537,-405.50547 -402.67424,-405.34929 -402.48922,-405.19406 C -402.30177,-405.03681 -402.10005,-404.88051 -401.88708,-404.72438 C -401.66881,-404.56438 -401.4387,-404.40458 -401.19998,-404.24418 C -400.95836,-404.08183 -400.70792,-403.91885 -400.452,-403.7544 C -400.19505,-403.58931 -399.93257,-403.42269 -399.66791,-403.25371 C -399.41563,-403.09266 -399.16139,-402.92947 -398.90807,-402.76339 C -398.66582,-402.60453 -398.42441,-402.443 -398.18641,-402.27824 C -397.96352,-402.12389 -397.74363,-401.96666 -397.52883,-401.806 C -397.3313,-401.65826 -397.13807,-401.50761 -396.9508,-401.35365 C -396.77865,-401.21213 -396.61155,-401.06782 -396.45068,-400.92038 C -396.30379,-400.78574 -396.16214,-400.64847 -396.02669,-400.50834 C -395.19116,-399.644 -394.59177,-398.67102 -394.45493,-397.53144 m 0,0 C -394.44914,-397.48332 -394.44333,-397.43246 -394.43747,-397.37889 C -394.4256,-397.26982 -394.41359,-397.14958 -394.40139,-397.01854 C -394.38522,-396.84479 -394.36877,-396.65199 -394.35192,-396.4411 C -394.33189,-396.19023 -394.31134,-395.91371 -394.29013,-395.61297 C -394.26517,-395.25925 -394.2393,-394.87201 -394.21225,-394.45355 C -394.18271,-393.99616 -394.15179,-393.50147 -394.1192,-392.97257 C -394.08314,-392.38742 -394.04503,-391.76042 -394.00448,-391.09553 C -393.95997,-390.36513 -393.91244,-389.58907 -393.86148,-388.77282 C -393.80778,-387.91282 -393.7502,-387.00823 -393.68814,-386.06538 C -393.6253,-385.11076 -393.55787,-384.11692 -393.48519,-383.09048 C -393.41088,-382.04115 -393.33111,-380.95775 -393.24517,-379.84733 C -393.16289,-378.78433 -393.07497,-377.69658 -392.9808,-376.59025 C -392.88641,-375.48175 -392.78576,-374.35462 -392.67822,-373.21508 C -392.57249,-372.09458 -392.46008,-370.96205 -392.34045,-369.82348 C -392.22106,-368.68714 -392.09443,-367.54479 -391.96005,-366.40224 C -391.82693,-365.27062 -391.68619,-364.13883 -391.53726,-363.0126 C -391.39682,-361.95047 -391.24907,-360.89329 -391.09356,-359.84583 C -390.94648,-358.85507 -390.79246,-357.87303 -390.6311,-356.90375 C -390.48155,-356.00526 -390.32567,-355.11778 -390.16318,-354.24447 C -390.01352,-353.44007 -389.85823,-352.64771 -389.6971,-351.86991 C -388.65571,-346.84336 -387.3695,-342.42556 -385.77202,-339.2985 m 0,0 C -385.72258,-339.20173 -385.6724,-339.10406 -385.62153,-339.00557 C -385.51323,-338.79596 -385.4017,-338.58255 -385.28705,-338.36541 C -385.12518,-338.05884 -384.95704,-337.74492 -384.78298,-337.42403 C -384.56908,-337.02967 -384.34623,-336.62484 -384.11495,-336.21024 C -383.83578,-335.70974 -383.54437,-335.19499 -383.24176,-334.6674 C -382.92745,-334.11941 -382.60103,-333.55752 -382.26367,-332.98328 C -381.87972,-332.32976 -381.48157,-331.66018 -381.07092,-330.97681 C -380.63144,-330.24551 -380.17763,-329.49837 -379.7115,-328.73812 C -379.21145,-327.92252 -378.69724,-327.09185 -378.17143,-326.24944 C -377.59001,-325.31795 -376.9944,-324.37218 -376.38799,-323.41654 C -375.76492,-322.43468 -375.13046,-321.44245 -374.48834,-320.44481 C -373.82907,-319.42054 -373.16174,-318.39055 -372.49035,-317.36017 C -371.81617,-316.32558 -371.13793,-315.29058 -370.45965,-314.26059 C -369.78383,-313.23438 -369.10799,-312.2131 -368.43614,-311.20212 C -367.76563,-310.19317 -367.09909,-309.19448 -366.44056,-308.21133 C -365.83095,-307.30131 -365.2282,-306.40462 -364.63547,-305.52546 C -364.05666,-304.66696 -363.4874,-303.82519 -362.93062,-303.00405 C -362.42284,-302.25512 -361.92546,-301.52339 -361.44066,-300.8118 C -360.97672,-300.13076 -360.52433,-299.46814 -360.0855,-298.82658 C -359.69101,-298.24989 -359.30747,-297.69019 -358.93632,-297.1494 C -356.26506,-293.25748 -354.23439,-290.34463 -353.37621,-289.11593 m 0,0 C -349.96621,-284.23377 -348.02352,-285.64546 -348.37808,-279.7109 m 0,0 C -348.73263,-273.77632 -325.97691,-259.43336 -323.33794,-258.74975 m 0,0 C -320.69892,-258.06615 -317.52892,-260.73691 -314.27626,-260.68283 m 0,0 C -311.02362,-260.62877 -270.90935,-242.63403 -250.66691,-245.3317 m 0,0 C -230.42449,-248.02941 -224.92394,-247.95624 -219.58393,-249.22005 m 0,0 Z "
            id="path846" />
    <path
            style="fill:none;stroke:#000000;stroke-width:1px;stroke-linecap:butt;stroke-linejoin:miter;stroke-opacity:1"
            d="m -157.45109,-285.78572 C -157.45109,-285.78572 -148.97332,-292.40048 -141.4803,-300.91061 m 0,0 C -133.72565,-309.71782 -125.64605,-334.2064 -121.30439,-342.48744 m 0,0 C -116.9627,-350.76848 -115.22656,-368.34165 -116.0182,-377.89611 m 0,0 C -116.80983,-387.45057 -113.48723,-389.40596 -113.1788,-391.46629 m 0,0 C -112.87037,-393.52662 -114.52849,-396.04003 -116.66351,-398.45171 m 0,0 C -118.79854,-400.86338 -124.41827,-410.26048 -123.74417,-421.12489 m 0,0 C -123.07001,-431.98932 -120.48984,-432.16578 -124.70584,-440.24175 m 0,0 C -128.92182,-448.31779 -144.90983,-479.43741 -157.60559,-488.69625 "
            id="path848"
            sodipodi:nodetypes="csssssssc" />
    <path
            style="fill:none;stroke:#000000;stroke-width:1px;stroke-linecap:butt;stroke-linejoin:miter;stroke-opacity:1"
            d="m -105.33342,-400.58934 C -106.3047,-398.53109 -107.32488,-392.36356 -111.82922,-398.18994 m 0,0 C -116.33357,-404.01633 -120.5647,-418.89197 -120.45788,-423.76284 m 0,0 C -120.35107,-428.63367 -120.98276,-435.72694 -113.19709,-429.80723 "
            id="path850" />
    <path
            style="fill:none;stroke:#000000;stroke-width:1px;stroke-linecap:butt;stroke-linejoin:miter;stroke-opacity:1"
            d="m -226.9788,-497.91224 C -226.9788,-497.91224 -212.85985,-478.00605 -203.26874,-484.28314 m 0,0 C -193.67762,-490.5602 -197.53786,-496.25958 -199.39042,-498.33247 m 0,0 C -201.24296,-500.40538 -211.04755,-510.83062 -219.87648,-508.41832 "
            id="path852" />
    <path
            style="fill:none;stroke:#000000;stroke-width:1px;stroke-linecap:butt;stroke-linejoin:miter;stroke-opacity:1"
            d="m -204.28516,-452.6861 C -204.28516,-452.6861 -207.80378,-436.95056 -219.98935,-437.87693 m 0,0 C -232.17493,-438.8033 -236.31838,-450.78877 -236.19243,-456.8096 "
            id="path854" />
    <path
            style="fill:none;stroke:#000000;stroke-width:1px;stroke-linecap:butt;stroke-linejoin:miter;stroke-opacity:1"
            d="m -169.16751,-430.20778 C -171.86542,-429.63224 -180.46058,-419.51289 -168.92703,-416.6845 m 0,0 C -157.39348,-413.85612 -155.77017,-424.42742 -158.9222,-427.63346 "
            id="path856" />
    <path
            style="fill:none;stroke:#000000;stroke-width:1px;stroke-linecap:butt;stroke-linejoin:miter;stroke-opacity:1"
            d="m -163.59407,-428.04716 C -163.59407,-428.04716 -161.25369,-419.55546 -166.33474,-420.23449 m 0,0 C -171.41582,-420.91349 -169.11132,-425.81244 -167.5083,-427.38846 "
            id="path858" />
    <path
            style="fill:none;stroke:#000000;stroke-width:1px;stroke-linecap:butt;stroke-linejoin:miter;stroke-opacity:1"
            d="m -266.21126,-445.46959 C -266.21126,-445.46959 -260.22867,-443.04367 -265.50761,-438.03909 m 0,0 C -270.78658,-433.0345 -296.81921,-422.01594 -309.37339,-441.19818 m 0,0 C -321.92753,-460.38039 -323.49904,-466.9206 -315.80541,-478.78687 m 0,0 C -308.11178,-490.65313 -288.94196,-503.54932 -268.52448,-483.58435 m 0,0 C -257.41984,-472.72581 -261.1998,-460.81842 -261.86304,-459.79547 "
            id="path860"
            sodipodi:nodetypes="cssssc" />
    <path
            style="fill:none;stroke:#000000;stroke-width:1px;stroke-linecap:butt;stroke-linejoin:miter;stroke-opacity:1"
            d="m -269.26889,-462.25768 C -269.26889,-462.25768 -280.20184,-434.61978 -295.32835,-439.49568 m 0,0 C -310.4549,-444.37156 -322.92641,-466.01943 -308.49133,-477.82487 "
            id="path862" />
    <path
            style="fill:none;stroke:#000000;stroke-width:1px;stroke-linecap:butt;stroke-linejoin:miter;stroke-opacity:1"
            d="m -236.0767,-398.40795 C -236.0767,-398.40795 -249.33205,-410.28991 -240.57563,-413.6538 m 0,0 C -231.81921,-417.01767 -227.4697,-405.97833 -230.8861,-403.8783 "
            id="path864" />
    <path
            style="fill:none;stroke:#000000;stroke-width:1px;stroke-linecap:butt;stroke-linejoin:miter;stroke-opacity:1"
            d="m -304.86906,-258.10889 C -304.86906,-258.10889 -327.90914,-266.94471 -339.42242,-278.76837 "
            id="path866" />
    <path
            style="fill:none;stroke:#000000;stroke-width:1px;stroke-linecap:butt;stroke-linejoin:miter;stroke-opacity:1"
            d="m -293.95363,-277.18531 C -293.95363,-277.18531 -288.49942,-263.1876 -272.85162,-255.94812 m 0,0 C -257.20376,-248.70862 -239.78873,-251.36596 -235.0179,-253.79404 m 0,0 C -230.24709,-256.22213 -223.93613,-270.43782 -220.03315,-271.97562 "
            id="path868" />
    <path
            style="fill:none;stroke:#000000;stroke-width:1px;stroke-linecap:butt;stroke-linejoin:miter;stroke-opacity:1"
            d="m -228.63718,-278.42591 C -228.63718,-278.42591 -254.11662,-292.91162 -277.18609,-282.87779 "
            id="path870" />
    <path
            style="fill:none;stroke:#000000;stroke-width:1px;stroke-linecap:butt;stroke-linejoin:miter;stroke-opacity:1"
            d="m -286.49847,-265.3774 C -286.49848,-265.37741 -282.99563,-277.05484 -267.37696,-277.38971 m 0,0 C -251.75829,-277.72461 -227.55806,-273.36733 -227.56713,-263.49298 "
            id="path872" />
    <path
            style="fill:none;stroke:#000000;stroke-width:1px;stroke-linecap:butt;stroke-linejoin:miter;stroke-opacity:1"
            d="m -187.72556,-284.15647 C -187.72556,-284.15647 -203.18913,-282.26804 -192.91901,-293.62617 m 0,0 C -182.64886,-304.98433 -181.03915,-300.74407 -179.79364,-293.25286 "
            id="path874" />
    <path
            style="fill:none;stroke:#000000;stroke-width:1px;stroke-linecap:butt;stroke-linejoin:miter;stroke-opacity:1"
            d="m -240.50326,-312.56358 C -240.50326,-312.56358 -231.12565,-335.54298 -246.98712,-333.04077 m 0,0 C -262.84862,-330.53856 -257.78784,-320.86425 -251.16229,-310.46602 "
            id="path876" />
    <path
            style="fill:none;stroke:#000000;stroke-width:1px;stroke-linecap:butt;stroke-linejoin:miter;stroke-opacity:1"
            d="m -187.27998,-349.83262 C -187.27998,-349.83262 -175.42279,-332.26464 -161.50374,-343.87231 m 0,0 C -147.58469,-355.47998 -161.38215,-371.40001 -171.77134,-374.6488 "
            id="path878" />
    <path
            style="fill:none;stroke:#000000;stroke-width:1px;stroke-linecap:butt;stroke-linejoin:miter;stroke-opacity:1"
            d="m -187.27764,-365.52323 C -187.27764,-365.52323 -188.1636,-344.88421 -170.65415,-345.44617 m 0,0 C -153.1447,-346.00811 -160.82909,-370.46021 -172.45034,-369.56775 m 0,0 C -184.07161,-368.67526 -183.6894,-365.23093 -182.98125,-362.73759 "
            id="path880" />
    <path
            style="fill:none;stroke:#000000;stroke-width:1px;stroke-linecap:butt;stroke-linejoin:miter;stroke-opacity:1"
            d="m -388.90168,-345.42958 C -386.0374,-343.5725 -374.46562,-343.04409 -374.38009,-357.51838 m 0,0 C -374.29455,-371.99267 -386.98372,-375.27972 -392.53921,-370.74502 "
            id="path882" />
    <path
            style="fill:none;stroke:#000000;stroke-width:1px;stroke-linecap:butt;stroke-linejoin:miter;stroke-opacity:1"
            d="m -387.0783,-350.93106 C -387.0783,-350.93106 -376.17647,-355.19594 -386.02382,-358.38404 "
            id="path884" />
    <path
            style="fill:none;stroke:#000000;stroke-width:1px;stroke-linecap:butt;stroke-linejoin:miter;stroke-opacity:1"
            d="m -343.92776,-303.19349 C -343.92776,-303.19349 -362.15882,-316.75736 -346.03203,-319.66876 m 0,0 C -329.90524,-322.58016 -332.40092,-306.18135 -336.55797,-303.35531 "
            id="path886" />
    <path
            style="fill:none;stroke:#000000;stroke-width:1px;stroke-linecap:butt;stroke-linejoin:miter;stroke-opacity:1"
            d="m -285.90885,-356.82311 C -291.48679,-354.04652 -324.2079,-363.63782 -317.89912,-388.60695 "
            id="path888" />
    <path
            style="fill:none;stroke:#000000;stroke-width:1px;stroke-linecap:butt;stroke-linejoin:miter;stroke-opacity:1"
            d="m -275.09689,-368.12053 C -274.10765,-370.0945 -260.04236,-396.71832 -293.40424,-403.52849 "
            id="path890" />
    <path
            style="fill:none;stroke:#000000;stroke-width:1px;stroke-linecap:butt;stroke-linejoin:miter;stroke-opacity:1"
            d="m -294.85902,-379.77114 C -294.85902,-379.77114 -309.07255,-375.32868 -309.28385,-381.27756 m 0,0 C -309.49513,-387.22646 -305.56513,-391.94329 -299.85908,-389.98725 "
            id="path892" />
    <path
            style="fill:none;stroke:#000000;stroke-width:1px;stroke-linecap:butt;stroke-linejoin:miter;stroke-opacity:1"
            d="m -339.8802,-409.8329 C -339.8802,-409.8329 -324.89545,-428.01446 -338.84584,-434.73462 "
            id="path894" />
  </g>

  <!-- <g
          inkscape:groupmode="layer"
          id="layer1"
          inkscape:label="vector"
          transform="translate(-271.94049,-40.201886)">
    <path
            style="fill:none;stroke:#000000;stroke-width:1px;stroke-linecap:butt;stroke-linejoin:miter;stroke-opacity:1"
            d=""
            id="path846" />
    <path
            style="fill:none;stroke:#000000;stroke-width:1px;stroke-linecap:butt;stroke-linejoin:miter;stroke-opacity:1"
            d=""
            id="path848"
            sodipodi:nodetypes="csssssssc" />
    <path
            style="fill:none;stroke:#000000;stroke-width:1px;stroke-linecap:butt;stroke-linejoin:miter;stroke-opacity:1"
            d=""
            id="path850" />
    <path
            style="fill:none;stroke:#000000;stroke-width:1px;stroke-linecap:butt;stroke-linejoin:miter;stroke-opacity:1"
            d=""
            id="path852" />
    <path
            style="fill:none;stroke:#000000;stroke-width:1px;stroke-linecap:butt;stroke-linejoin:miter;stroke-opacity:1"
            d=""
            id="path854" />
    <path
            style="fill:none;stroke:#000000;stroke-width:1px;stroke-linecap:butt;stroke-linejoin:miter;stroke-opacity:1"
            d=""
            id="path856" />
    <path
            style="fill:none;stroke:#000000;stroke-width:1px;stroke-linecap:butt;stroke-linejoin:miter;stroke-opacity:1"
            d=""
            id="path858" />
    <path
            style="fill:none;stroke:#000000;stroke-width:1px;stroke-linecap:butt;stroke-linejoin:miter;stroke-opacity:1"
            d=""
            id="path860"
            sodipodi:nodetypes="cssssc" />
    <path
            style="fill:none;stroke:#000000;stroke-width:1px;stroke-linecap:butt;stroke-linejoin:miter;stroke-opacity:1"
            d=""
            id="path862" />
    <path
            style="fill:none;stroke:#000000;stroke-width:1px;stroke-linecap:butt;stroke-linejoin:miter;stroke-opacity:1"
            d=""
            id="path864" />
    <path
            style="fill:none;stroke:#000000;stroke-width:1px;stroke-linecap:butt;stroke-linejoin:miter;stroke-opacity:1"
            d=""
            id="path866" />
    <path
            style="fill:none;stroke:#000000;stroke-width:1px;stroke-linecap:butt;stroke-linejoin:miter;stroke-opacity:1"
            d=""
            id="path868" />
    <path
            style="fill:none;stroke:#000000;stroke-width:1px;stroke-linecap:butt;stroke-linejoin:miter;stroke-opacity:1"
            d=""
            id="path870" />
    <path
            style="fill:none;stroke:#000000;stroke-width:1px;stroke-linecap:butt;stroke-linejoin:miter;stroke-opacity:1"
            d=""
            id="path872" />
    <path
            style="fill:none;stroke:#000000;stroke-width:1px;stroke-linecap:butt;stroke-linejoin:miter;stroke-opacity:1"
            d=""
            id="path874" />
    <path
            style="fill:none;stroke:#000000;stroke-width:1px;stroke-linecap:butt;stroke-linejoin:miter;stroke-opacity:1"
            d=""
            id="path876" />
    <path
            style="fill:none;stroke:#000000;stroke-width:1px;stroke-linecap:butt;stroke-linejoin:miter;stroke-opacity:1"
            d=""
            id="path878" />
    <path
            style="fill:none;stroke:#000000;stroke-width:1px;stroke-linecap:butt;stroke-linejoin:miter;stroke-opacity:1"
            d=""
            id="path880" />
    <path
            style="fill:none;stroke:#000000;stroke-width:1px;stroke-linecap:butt;stroke-linejoin:miter;stroke-opacity:1"
            d=""
            id="path882" />
    <path
            style="fill:none;stroke:#000000;stroke-width:1px;stroke-linecap:butt;stroke-linejoin:miter;stroke-opacity:1"
            d=""
            id="path884" />
    <path
            style="fill:none;stroke:#000000;stroke-width:1px;stroke-linecap:butt;stroke-linejoin:miter;stroke-opacity:1"
            d=""
            id="path886" />
    <path
            style="fill:none;stroke:#000000;stroke-width:1px;stroke-linecap:butt;stroke-linejoin:miter;stroke-opacity:1"
            d=""
            id="path888" />
    <path
            style="fill:none;stroke:#000000;stroke-width:1px;stroke-linecap:butt;stroke-linejoin:miter;stroke-opacity:1"
            d=""
            id="path890" />
    <path
            style="fill:none;stroke:#000000;stroke-width:1px;stroke-linecap:butt;stroke-linejoin:miter;stroke-opacity:1"
            d=""
            id="path892" />
    <path
            style="fill:none;stroke:#000000;stroke-width:1px;stroke-linecap:butt;stroke-linejoin:miter;stroke-opacity:1"
            d=""
            id="path894" />
  </g>-->
</svg>
