<svg xmlns:dc="http://purl.org/dc/elements/1.1/" xmlns:cc="http://creativecommons.org/ns#" xmlns:rdf="http://www.w3.org/1999/02/22-rdf-syntax-ns#" xmlns:svg="http://www.w3.org/2000/svg" xmlns="http://www.w3.org/2000/svg" xmlns:sodipodi="http://sodipodi.sourceforge.net/DTD/sodipodi-0.dtd" xmlns:inkscape="http://www.inkscape.org/namespaces/inkscape" version="1.1" id="svg833" width="295.53802" height="292.24213" viewBox="0 0 295.53802 292.24213" sodipodi:docname="moon.svg" inkscape:version="1.0.2 (e86c870879, 2021-01-15, custom)">
  <metadata id="metadata839">
    <rdf:RDF>
      <cc:Work rdf:about="">
        <dc:format>image/svg+xml</dc:format>
        <dc:type rdf:resource="http://purl.org/dc/dcmitype/StillImage"/>
        <dc:title/>
      </cc:Work>
    </rdf:RDF>
  </metadata>
  <defs id="defs837"/>
  <sodipodi:namedview pagecolor="#ffffff" bordercolor="#666666" borderopacity="1" objecttolerance="10" gridtolerance="10" guidetolerance="10" inkscape:pageopacity="0" inkscape:pageshadow="2" inkscape:window-width="1849" inkscape:window-height="1057" id="namedview835" showgrid="false" fit-margin-top="0" fit-margin-left="0" fit-margin-right="0" fit-margin-bottom="0" inkscape:zoom="1.45" inkscape:cx="105.83561" inkscape:cy="142.37279" inkscape:window-x="63" inkscape:window-y="-8" inkscape:window-maximized="1" inkscape:current-layer="layer1"/>
  <g inkscape:groupmode="layer" id="layer1" inkscape:label="vector" transform="translate(-271.94049,-40.201886)">
    <path style="fill:none;stroke:#000000;stroke-width:1px;stroke-linecap:butt;stroke-linejoin:miter;stroke-opacity:1" d="m 319.82759,89.655173  C 319.82759,89.655173 313.7931,97.758621 313.7931,95.775862 m 0,0 C 313.7931,95.773879 313.793096,95.771898 313.793087,95.769919 C 313.793069,95.765964 313.793033,95.762016 313.792979,95.758075 C 313.792885,95.751192 313.792737,95.74433 313.792535,95.737489 C 313.792305,95.729698 313.792005,95.721934 313.791636,95.714198 C 313.791176,95.704566 313.790609,95.694976 313.789935,95.685428 C 313.789197,95.674978 313.788331,95.664578 313.787339,95.654229 C 313.786262,95.643001 313.785036,95.631832 313.783663,95.620722 C 313.782071,95.607838 313.78028,95.595034 313.778294,95.582309 C 313.775758,95.566063 313.772903,95.549947 313.769734,95.53396 C 313.766419,95.517236 313.762761,95.500654 313.758765,95.484212 C 313.754182,95.465355 313.749155,95.446684 313.743694,95.428198 C 313.737802,95.408253 313.731403,95.388523 313.72451,95.369008 C 313.717132,95.34812 313.709187,95.327478 313.700689,95.307081 C 313.691979,95.286175 313.682688,95.265526 313.672831,95.245134 C 313.662026,95.222782 313.650541,95.200738 313.638396,95.179001 C 313.626034,95.156877 313.612988,95.135071 313.599279,95.113582 C 313.585347,95.091744 313.570729,95.070234 313.555448,95.04905 C 313.539472,95.026902 313.522771,95.005111 313.505369,94.983675 C 313.48776,94.961984 313.469434,94.940657 313.450417,94.919693 C 313.429064,94.896153 313.406839,94.87307 313.383779,94.850442 C 312.253846,93.741677 309.11915,93.725681 308.27586,94.568966 m 0,0 C 308.274826,94.57 308.273791,94.571036 308.272756,94.572074 C 308.271206,94.573629 308.269655,94.575188 308.268104,94.576751 C 308.265523,94.579352 308.262942,94.581964 308.26036,94.584587 C 308.25727,94.587726 308.254179,94.59088 308.251087,94.59405 C 308.247491,94.597737 308.243894,94.601444 308.240296,94.605172 C 308.235174,94.610479 308.230051,94.615827 308.224926,94.621216 C 308.219317,94.627115 308.213706,94.633063 308.208094,94.63906 C 308.201498,94.646109 308.194901,94.653225 308.188302,94.660408 C 308.181242,94.668094 308.17418,94.675856 308.167117,94.683694 C 308.159603,94.692033 308.152088,94.700458 308.144572,94.708969 C 308.136616,94.717979 308.128659,94.727084 308.120703,94.736284 C 308.111824,94.746551 308.102945,94.756936 308.094068,94.767437 C 308.084782,94.778421 308.075498,94.789532 308.066218,94.800769 C 308.055574,94.813656 308.044935,94.826708 308.034302,94.839923 C 308.023308,94.853586 308.012321,94.867423 308.001343,94.881431 C 307.99002,94.89588 307.978706,94.910511 307.967404,94.925321 C 307.955308,94.941172 307.943226,94.957228 307.931161,94.973485 C 307.918794,94.990148 307.906445,95.007022 307.894117,95.024103 C 307.881505,95.041578 307.868916,95.05927 307.856352,95.077174 C 307.842637,95.096719 307.828952,95.116517 307.815303,95.136563 C 307.800565,95.158208 307.785868,95.180142 307.771217,95.202358 C 307.756392,95.224838 307.741615,95.247607 307.726892,95.270657 C 307.71036,95.296539 307.693895,95.322775 307.677507,95.349355 C 306.874482,96.651785 306.254575,98.780459 306.81035,100.51724 m 0,0 C 306.81104,100.519395 306.811726,100.521548 306.812408,100.523699 C 306.81343,100.526923 306.814444,100.530143 306.815449,100.533358 C 306.816787,100.537639 306.81811,100.541912 306.819418,100.546178 C 306.822682,100.556821 306.825853,100.567418 306.828931,100.577969 C 306.8323,100.589517 306.835558,100.601009 306.838707,100.612447 C 306.842408,100.62589 306.845957,100.639258 306.849356,100.652552 C 306.854032,100.67084 306.858425,100.688987 306.862539,100.706997 C 306.866843,100.725837 306.870842,100.744526 306.874541,100.763068 C 306.878398,100.782401 306.881929,100.801574 306.88514,100.820591 C 306.888477,100.84036 306.891469,100.85996 306.894121,100.879396 C 306.89712,100.901375 306.899686,100.923144 306.901827,100.944709 C 306.904207,100.968678 306.906063,100.992395 306.907408,101.015869 C 306.909079,101.045029 306.909961,101.073813 306.91008,101.102237 C 306.9102,101.131 306.909538,101.159394 306.908121,101.187436 C 306.906649,101.216561 306.904361,101.245307 306.901288,101.273691 C 306.898027,101.303809 306.893881,101.33352 306.888885,101.362847 C 306.644068,102.799861 304.358291,103.313606 304.13793,105.51724 m 0,0 C 304.137671,105.519826 304.137415,105.52241 304.137161,105.524992 C 304.13678,105.52886 304.136404,105.532723 304.136033,105.536581 C 304.135539,105.541717 304.135054,105.546844 304.134578,105.551962 C 304.133747,105.560901 304.132942,105.569812 304.132164,105.578695 C 304.131278,105.588811 304.130426,105.598891 304.129608,105.608936 C 304.128488,105.622692 304.127432,105.636382 304.126438,105.650006 C 304.124821,105.672177 304.12337,105.694173 304.12208,105.715998 C 304.12073,105.738828 304.119556,105.761472 304.118552,105.783933 C 304.117506,105.807352 304.116645,105.830572 304.115963,105.853599 C 304.11522,105.878676 304.114689,105.903523 304.114362,105.928147 C 304.11398,105.956928 304.113876,105.985405 304.114038,106.013587 C 304.114204,106.042473 304.114649,106.07105 304.115358,106.099328 C 304.11611,106.129291 304.117159,106.158919 304.118489,106.188225 C 304.120025,106.222086 304.121936,106.255517 304.124195,106.288539 C 304.126481,106.321954 304.129124,106.35495 304.132098,106.387548 C 304.13527,106.422321 304.138818,106.456641 304.142709,106.490533 C 304.146727,106.525531 304.151111,106.560072 304.155825,106.594185 C 304.386834,108.265732 305.410851,108.909003 303.01724,111.81035 m 0,0 C 303.012973,111.815522 303.008687,111.820736 303.004382,111.825991 C 302.990053,111.843482 302.975514,111.861432 302.960767,111.879836 C 302.944627,111.899979 302.928238,111.920667 302.911603,111.941893 C 302.893556,111.964922 302.875219,111.988585 302.856597,112.012875 C 302.835001,112.041043 302.813021,112.070054 302.790663,112.099897 C 302.762118,112.137998 302.732957,112.177456 302.703192,112.218247 C 302.672056,112.260916 302.640259,112.305044 302.607814,112.350605 C 302.570603,112.402858 302.532541,112.456996 302.493649,112.512978 C 302.451688,112.573378 302.40876,112.635925 302.364892,112.700569 C 302.317938,112.76976 302.269907,112.841353 302.220832,112.915288 C 302.170532,112.991068 302.119134,113.069308 302.066673,113.149942 C 302.007254,113.241272 301.946471,113.335673 301.884376,113.433049 C 301.821271,113.532008 301.756811,113.63404 301.691048,113.739044 C 301.622293,113.848825 301.552115,113.961855 301.480574,114.078019 C 301.408181,114.195567 301.334392,114.316324 301.259271,114.44017 C 301.181247,114.568802 301.101785,114.700768 301.020957,114.835933 C 296.732685,122.007009 288.597176,138.184961 287.15517,143.44828 m 0,0 C 287.153446,143.454573 287.151717,143.460855 287.149984,143.467125 C 287.147387,143.47652 287.14478,143.48589 287.142163,143.495234 C 287.137807,143.510783 287.133423,143.52626 287.129011,143.541666 C 287.12373,143.560107 287.118409,143.578446 287.113049,143.596683 C 287.106814,143.617895 287.100525,143.63897 287.094183,143.659908 C 287.085155,143.689714 287.076019,143.719243 287.066776,143.748497 C 287.056659,143.780515 287.046414,143.812204 287.036043,143.843567 C 287.023853,143.880428 287.011489,143.916838 286.998952,143.952803 C 286.983622,143.99678 286.968034,144.040091 286.952193,144.082746 C 286.934514,144.130349 286.916519,144.177135 286.898214,144.223117 C 286.879066,144.271217 286.859579,144.318438 286.83976,144.364795 C 286.819096,144.413128 286.798071,144.460521 286.776692,144.506993 C 286.751294,144.562201 286.725397,144.616108 286.699015,144.668744 C 286.670777,144.725082 286.641983,144.779963 286.612648,144.833423 C 286.582581,144.888217 286.551946,144.941518 286.520761,144.993365 C 286.488858,145.046407 286.456378,145.097927 286.423341,145.147966 C 286.388439,145.200829 286.352915,145.252039 286.31679,145.301646 C 286.278835,145.353766 286.240217,145.404116 286.200961,145.452753 C 286.159919,145.503603 286.11818,145.552579 286.075772,145.599747 C 286.032859,145.647477 285.989262,145.693355 285.94501,145.737448 C 285.897806,145.784483 285.849857,145.829487 285.801199,145.872542 C 285.750953,145.917002 285.699952,145.959383 285.648235,145.999775 C 283.114111,147.978976 278.861606,145.182129 277.58621,148.14655 m 0,0 C 277.583818,148.15211 277.581422,148.157727 277.579023,148.1634 C 277.571037,148.182283 277.563011,148.201792 277.554946,148.22192 C 277.546119,148.24395 277.537245,148.266721 277.528325,148.290225 C 277.517842,148.317849 277.507295,148.346486 277.496686,148.376121 C 277.485335,148.407828 277.473912,148.440678 277.462419,148.474654 C 277.450192,148.510802 277.437885,148.548225 277.425501,148.586902 C 277.41239,148.627848 277.399193,148.670199 277.385911,148.713931 C 277.371088,148.762736 277.356159,148.813261 277.341128,148.865472 C 277.325404,148.920088 277.309568,148.976549 277.293623,149.034816 C 277.275335,149.101642 277.256904,149.170844 277.238334,149.242363 C 277.219134,149.316311 277.199785,149.392736 277.180294,149.471574 C 277.157676,149.563058 277.134866,149.657791 277.111872,149.755673 C 277.083307,149.877267 277.054459,150.003719 277.025344,150.134836 C 276.995882,150.267515 276.966146,150.40497 276.936153,150.547001 C 276.905001,150.69452 276.873573,150.846975 276.841887,151.004142 C 275.160803,159.342464 272.753864,180.94214 272.4569,182.24138 m 0,0 C 272.456555,182.242889 272.456215,182.244397 272.45588,182.245904 C 272.455378,182.248162 272.454887,182.250419 272.454407,182.252674 C 272.453608,182.256427 272.452839,182.260176 272.4521,182.26392 C 272.45092,182.269896 272.449817,182.27586 272.44879,182.281813 C 272.447511,182.289225 272.44635,182.296619 272.445307,182.303996 C 272.444165,182.31207 272.443163,182.320124 272.4423,182.328158 C 272.441208,182.338327 272.440339,182.348465 272.43969,182.358572 C 272.438862,182.371476 272.438393,182.38433 272.438279,182.397136 C 272.438159,182.410532 272.438427,182.423876 272.439077,182.43717 C 272.439789,182.451723 272.440959,182.466217 272.44258,182.480654 C 272.444413,182.49698 272.446822,182.513234 272.449797,182.52942 C 272.452981,182.546744 272.456813,182.563991 272.46128,182.581165 C 272.465858,182.598768 272.471103,182.616295 272.477001,182.633753 C 272.48325,182.652251 272.490232,182.670671 272.49793,182.68902 C 272.505778,182.707726 272.51437,182.726358 272.523688,182.744924 C 272.533172,182.763822 272.543409,182.782651 272.55438,182.80142 C 272.566226,182.821686 272.578927,182.841881 272.59246,182.862016 C 272.606154,182.882391 272.6207,182.902704 272.636073,182.922966 C 272.652472,182.94458 272.669812,182.966136 272.688063,182.987646 C 272.706439,183.009303 272.725738,183.030914 272.745931,183.052492 C 272.766238,183.074192 272.787448,183.095858 272.809531,183.117504 C 273.891605,184.178165 277.069069,185.190528 278.7069,187.71552 m 0,0 C 278.710003,187.720304 278.713098,187.725118 278.716185,187.729961 C 278.72646,187.746079 278.736644,187.762518 278.746738,187.779277 C 278.757786,187.79762 278.768726,187.816346 278.77956,187.835453 C 278.791314,187.856182 278.802944,187.87736 278.814451,187.898984 C 278.828748,187.925851 278.842855,187.953407 278.856776,187.981646 C 278.871514,188.011541 278.886044,188.042202 278.900369,188.073622 C 278.916356,188.108687 278.932089,188.144698 278.947574,188.181646 C 278.963772,188.220296 278.979698,188.259972 278.99536,188.300664 C 279.013322,188.347333 279.030936,188.395338 279.048212,188.444665 C 279.066851,188.497884 279.085097,188.552642 279.102963,188.60892 C 279.122086,188.669156 279.140773,188.731133 279.159041,188.794829 C 279.177765,188.860115 279.196048,188.927206 279.213908,188.996078 C 279.234137,189.074086 279.253823,189.154379 279.272991,189.236922 C 279.292471,189.320806 279.311416,189.407014 279.329852,189.495508 C 279.349127,189.588028 279.367846,189.683047 279.386039,189.780522 C 279.404449,189.879158 279.42232,189.980309 279.439684,190.083931 C 279.457231,190.188649 279.47426,190.29589 279.490804,190.405609 C 279.508404,190.522332 279.525454,190.641859 279.541993,190.764136 C 280.373584,196.912484 279.912862,210.012953 283.08654,223.10438 m 0,0 C 283.090441,223.120473 283.094352,223.136575 283.098273,223.152686 C 283.104149,223.176829 283.110047,223.200993 283.115968,223.225178 C 283.127791,223.273475 283.139703,223.321855 283.151704,223.370318 C 283.167657,223.434741 283.183766,223.49931 283.200029,223.564022 C 283.220277,223.644588 283.240765,223.725377 283.26149,223.806385 C 283.284174,223.895048 283.307142,223.983973 283.330391,224.073154 C 283.355615,224.169908 283.381169,224.266964 283.40705,224.364316 C 283.437064,224.477212 283.467517,224.590506 283.498403,224.704188 C 283.540026,224.857391 283.582436,225.011299 283.625616,225.165887 C 283.684143,225.375419 283.744086,225.586202 283.805405,225.798174 C 283.868255,226.015437 283.93255,226.23395 283.998249,226.453647 C 284.070262,226.694459 284.143961,226.936694 284.21929,227.180266 C 284.303382,227.452174 284.389505,227.725748 284.477582,228.000868 C 284.566708,228.279266 284.657834,228.559247 284.75088,228.840687 C 284.855358,229.156704 284.962256,229.474562 285.07146,229.794084 C 290.422467,245.450669 301.310834,265.103934 304.31035,268.10345 m 0,0 C 304.313798,268.106898 304.317239,268.110342 304.320672,268.113782 C 304.325817,268.118937 304.330945,268.124083 304.336056,268.12922 C 304.342861,268.136059 304.349636,268.142882 304.356381,268.149689 C 304.366478,268.159879 304.376509,268.170033 304.386473,268.180152 C 304.403031,268.196966 304.419406,268.213682 304.435599,268.2303 C 304.453322,268.248489 304.470828,268.266561 304.488119,268.284517 C 304.513131,268.310492 304.537692,268.336225 304.561808,268.361719 C 304.590216,268.391751 304.618006,268.421452 304.645188,268.450828 C 304.682031,268.490645 304.717757,268.529864 304.752389,268.568499 C 304.787885,268.608099 304.822232,268.647085 304.855455,268.685473 C 304.889443,268.724745 304.922255,268.76339 304.953917,268.801425 C 304.987366,268.841606 305.019532,268.881106 305.050447,268.919943 C 305.081914,268.959473 305.112085,268.998317 305.140994,269.036494 C 305.170373,269.075292 305.198448,269.113402 305.225255,269.150844 C 305.253281,269.18999 305.279921,269.228406 305.305215,269.266116 C 305.33081,269.304276 305.355027,269.341713 305.377908,269.378452 C 305.401673,269.416611 305.423996,269.454017 305.444924,269.490697 C 305.467131,269.529618 305.487767,269.567722 305.506889,269.605042 C 306.443862,271.433744 303.744652,271.380958 303.99496,273.33335 m 0,0 C 303.995265,273.335727 303.995573,273.338113 303.995885,273.340508 C 303.996353,273.344097 303.996829,273.347705 303.997313,273.351333 C 303.997958,273.356163 303.998617,273.361028 303.999291,273.365928 C 304.000299,273.373263 304.00134,273.380675 304.002414,273.388165 C 304.004198,273.400611 304.006073,273.41327 304.008038,273.426141 C 304.010189,273.440228 304.012448,273.454569 304.014815,273.469161 C 304.017597,273.486312 304.020529,273.50381 304.02361,273.521652 C 304.027849,273.546195 304.032371,273.571388 304.037178,273.597222 C 304.042206,273.624246 304.047545,273.651971 304.053195,273.680386 C 304.059381,273.711493 304.06594,273.743427 304.072873,273.776173 C 304.080713,273.813205 304.089032,273.851275 304.09783,273.890363 C 304.107247,273.932201 304.117213,273.975205 304.12773,274.019349 C 304.13851,274.064595 304.149868,274.111039 304.161807,274.158653 C 304.174457,274.209104 304.187758,274.260869 304.201712,274.313914 C 304.215938,274.367993 304.230843,274.423403 304.246429,274.48011 C 304.262293,274.537828 304.278862,274.596889 304.296139,274.657256 C 304.315343,274.724356 304.335421,274.79307 304.356376,274.863347 C 305.532829,278.808918 309.47304,287.682055 316.67412,292.53495 m 0,0 C 316.682532,292.540619 316.690942,292.546286 316.699349,292.55195 C 316.711948,292.560438 316.724541,292.568921 316.737129,292.577398 C 316.770647,292.59997 316.804128,292.622504 316.837572,292.645 C 316.87921,292.673008 316.920791,292.700957 316.962314,292.728846 C 317.007761,292.759371 317.05314,292.789825 317.09845,292.820207 C 317.151703,292.855916 317.204861,292.891526 317.257923,292.927036 C 317.314696,292.965029 317.371359,293.002909 317.427912,293.040674 C 317.488081,293.080853 317.548126,293.120903 317.608046,293.160822 C 317.683375,293.211007 317.758507,293.260986 317.833442,293.310756 C 317.93501,293.378216 318.036215,293.445293 318.137055,293.511983 C 318.240412,293.580337 318.343385,293.648284 318.445972,293.715819 C 318.554671,293.787378 318.662936,293.858474 318.770766,293.929102 C 318.880696,294.001106 318.990174,294.072623 319.099196,294.143647 C 319.210162,294.215938 319.320656,294.287718 319.430676,294.35898 C 319.542484,294.431401 319.653802,294.503287 319.764627,294.574632 C 319.880494,294.649223 319.995822,294.723222 320.110607,294.796622 C 320.22676,294.870896 320.342357,294.944556 320.457395,295.017593 C 320.573649,295.091402 320.689332,295.164576 320.804441,295.237105 C 320.926897,295.314264 321.048703,295.390694 321.169854,295.466385 C 327.261598,299.272278 331.698161,301.208944 333.92508,299.97177 m 0,0 C 333.927823,299.970246 333.930584,299.968747 333.933362,299.967274 C 333.937525,299.965066 333.941727,299.962915 333.945968,299.960821 C 333.954438,299.956638 333.963064,299.952681 333.971846,299.948948 C 333.986439,299.942746 334.001463,299.937164 334.016916,299.932196 C 334.03383,299.926758 334.051258,299.922056 334.069198,299.918082 C 334.090284,299.913412 334.112077,299.909748 334.134575,299.907078 C 334.162085,299.903813 334.190649,299.902034 334.220261,299.90172 C 334.253308,299.901369 334.287661,299.902842 334.323311,299.906108 C 334.360603,299.909525 334.399315,299.914904 334.439438,299.92221 C 334.483363,299.930209 334.52898,299.940518 334.576276,299.953091 C 334.625304,299.966125 334.676137,299.981592 334.728762,299.999441 C 334.783174,300.017896 334.839501,300.038898 334.897729,300.06239 C 334.962795,300.088641 335.030235,300.118001 335.100029,300.150392 C 335.171565,300.183591 335.245574,300.219974 335.322034,300.259457 C 335.41143,300.30562 335.504177,300.35602 335.600241,300.410521 C 335.700675,300.467502 335.804734,300.528966 335.912379,300.594758 C 336.021306,300.661334 336.133905,300.732342 336.250135,300.807622 C 336.367593,300.883698 336.488759,300.964137 336.613591,301.048773 C 336.746391,301.138812 336.88334,301.233601 337.024387,301.332941 C 344.116514,306.327952 361.569298,322.82934 382.93103,325.51724 m 0,0 C 382.957064,325.520516 382.983085,325.523797 383.009092,325.527083 C 383.048063,325.532007 383.087003,325.536942 383.125913,325.541888 C 383.177715,325.548473 383.229462,325.555078 383.281155,325.561702 C 383.345642,325.569966 383.410044,325.57826 383.474362,325.586584 C 383.577014,325.599869 383.679452,325.61323 383.781677,325.626666 C 383.921675,325.645067 384.061275,325.663608 384.200482,325.682286 C 384.364094,325.704239 384.527163,325.726381 384.689697,325.748706 C 384.863596,325.772592 385.036883,325.796687 385.209568,325.820984 C 385.442286,325.853728 385.67391,325.88684 385.904465,325.920301 C 386.216964,325.965654 386.527499,326.011649 386.836131,326.058241 C 387.152467,326.105996 387.466803,326.154378 387.779205,326.203339 C 388.110218,326.255216 388.43906,326.307743 388.765809,326.360863 C 389.098924,326.415018 389.429863,326.469788 389.758709,326.525114 C 390.09342,326.581426 390.425962,326.638313 390.756423,326.695711 C 391.113246,326.757688 391.467643,326.820261 391.819723,326.88335 C 392.175997,326.94719 392.529899,327.011558 392.881542,327.07637 C 393.246773,327.143686 393.609568,327.211481 393.970054,327.279662 C 394.333433,327.34839 394.694466,327.41751 395.053283,327.486926 C 395.414545,327.556815 395.773561,327.627004 396.130464,327.697395 C 396.48938,327.768183 396.846159,327.839176 397.200936,327.910274 C 414.585004,331.394059 427.162797,335.12984 450.86207,327.41379 m 0,0 C 450.891725,327.404135 450.921346,327.394492 450.950932,327.384861 C 450.995266,327.370428 451.039523,327.356022 451.083702,327.341643 C 451.157224,327.317713 451.230531,327.293857 451.303624,327.270075 C 451.391116,327.241608 451.478301,327.213246 451.56518,327.184989 C 451.666235,327.152121 451.766876,327.119395 451.867106,327.086811 C 452.024058,327.035787 452.180001,326.985109 452.334941,326.934776 C 452.517045,326.875619 452.697764,326.816938 452.877109,326.758729 C 453.068995,326.69645 453.259308,326.634712 453.448062,326.57351 C 453.662271,326.504055 453.874473,326.43529 454.084688,326.367209 C 454.319288,326.291231 454.551414,326.216105 454.781093,326.141821 C 455.02135,326.064116 455.25893,325.987333 455.493866,325.911462 C 455.738818,325.832356 455.980895,325.754241 456.220134,325.677105 C 456.492508,325.589286 456.761203,325.502736 457.026274,325.417437 C 457.299689,325.329453 457.569248,325.242801 457.835011,325.157461 C 458.119466,325.066119 458.399571,324.97628 458.6754,324.887921 C 458.958114,324.797356 459.236336,324.708346 459.510144,324.620865 C 459.810268,324.524976 460.105089,324.430924 460.39471,324.338675 C 460.699005,324.241752 460.99756,324.14682 461.290495,324.05384 C 461.596759,323.956629 461.89688,323.861552 462.190995,323.768564 C 462.488613,323.674468 462.780082,323.582512 463.065543,323.492649 C 463.378061,323.394268 463.683379,323.298396 463.981683,323.204972 C 464.28167,323.111021 464.574563,323.019546 464.860552,322.930486 C 478.874029,318.566539 476.311479,320 479.48276,320 m 0,0 C 479.486726,320 479.490688,320.000002 479.494647,320.000006 C 479.50058,320.000013 479.506505,320.000025 479.512423,320.000042 C 479.520302,320.000064 479.528168,320.000095 479.536021,320.000135 C 479.549736,320.000204 479.563412,320.000299 479.57705,320.00042 C 479.596464,320.000593 479.6158,320.000818 479.63506,320.001093 C 479.65614,320.001394 479.677128,320.001755 479.698026,320.002174 C 479.724478,320.002704 479.750786,320.003327 479.776954,320.004037 C 479.806651,320.004843 479.836169,320.005762 479.865513,320.006786 C 479.898261,320.007929 479.930793,320.009203 479.963117,320.010599 C 479.99693,320.012059 480.030516,320.013652 480.063884,320.015366 C 480.098674,320.017153 480.133228,320.019071 480.167556,320.021108 C 480.204939,320.023326 480.242054,320.025685 480.278916,320.028167 C 480.323658,320.03118 480.368026,320.034375 480.412045,320.037722 C 480.458687,320.041268 480.504938,320.044985 480.550827,320.048836 C 480.59761,320.052762 480.644018,320.056828 480.690082,320.060995 C 480.743017,320.065784 480.795498,320.070707 480.847574,320.075706 C 483.771249,320.356366 485.415948,320.876715 494.31035,311.37931 m 0,0 C 494.320522,311.368448 494.330685,311.357606 494.340838,311.346783 C 494.356052,311.330565 494.371245,311.314391 494.386416,311.298261 C 494.416713,311.266049 494.446924,311.234013 494.47705,311.202151 C 494.512091,311.16509 494.547016,311.128265 494.581827,311.091674 C 494.631382,311.039585 494.680705,310.98797 494.729798,310.936826 C 494.78353,310.880849 494.836986,310.825436 494.89017,310.770581 C 494.952678,310.706109 495.01481,310.642408 495.076571,310.579469 C 495.15209,310.502509 495.227054,310.426688 495.301473,310.35199 C 495.384525,310.268627 495.466898,310.186663 495.548605,310.106074 C 495.634075,310.021773 495.718817,309.938977 495.802846,309.85766 C 495.894838,309.768637 495.985976,309.681386 496.076279,309.595873 C 496.169889,309.507228 496.262603,309.42045 496.354442,309.335501 C 496.461786,309.236211 496.567935,309.139419 496.672926,309.045063 C 496.780538,308.948352 496.886933,308.854201 496.992149,308.762543 C 497.107478,308.662076 497.221391,308.564604 497.333938,308.470041 C 497.452188,308.370687 497.568931,308.274543 497.684226,308.181509 C 497.808312,308.081381 497.93072,307.984855 498.051524,307.891804 C 504.833817,302.66766 506.55979,308.398472 516.2069,302.75862 m 0,0 C 516.218107,302.752068 516.229309,302.745516 516.240506,302.738963 C 516.257285,302.729144 516.274053,302.719324 516.29081,302.709502 C 516.318697,302.693157 516.346554,302.676809 516.374381,302.660457 C 516.40769,302.640884 516.440956,302.621306 516.47418,302.601723 C 516.512825,302.578945 516.551412,302.55616 516.589941,302.533369 C 516.63382,302.507413 516.677625,302.481448 516.721355,302.455474 C 516.775799,302.423136 516.830128,302.390784 516.884342,302.358417 C 516.943679,302.322991 517.002878,302.287547 517.06194,302.252084 C 517.126017,302.21361 517.189933,302.175114 517.253688,302.136596 C 517.332904,302.088737 517.411872,302.040843 517.490594,301.992911 C 517.58956,301.932653 517.688137,301.872336 517.786328,301.811957 C 517.919418,301.730118 518.051799,301.648164 518.183479,301.566086 C 518.318446,301.481959 518.452676,301.397702 518.586178,301.313305 C 518.727633,301.22388 518.868271,301.134298 519.008101,301.044547 C 519.150655,300.953048 519.29237,300.861373 519.433256,300.76951 C 519.581281,300.672993 519.728391,300.576269 519.874598,300.479323 C 520.027458,300.377966 520.179331,300.276366 520.330232,300.174507 C 520.482931,300.071435 520.634634,299.968098 520.785356,299.864479 C 520.946133,299.753947 521.105794,299.643093 521.264357,299.531898 C 521.428094,299.417074 521.590659,299.301886 521.752073,299.18631 C 529.661336,293.5231 534.805116,286.929898 539.48276,276.72414 m 0,0 C 539.48845,276.711726 539.49413,276.699331 539.4998,276.686955 C 539.508297,276.66841 539.516771,276.649907 539.525223,276.631447 C 539.536476,276.60687 539.54769,276.582368 539.558865,276.557941 C 539.578383,276.51528 539.597782,276.472847 539.617063,276.430642 C 539.639022,276.382576 539.660828,276.334805 539.682482,276.287327 C 539.709441,276.228216 539.736165,276.169559 539.762655,276.111353 C 539.791649,276.047646 539.820363,275.984478 539.8488,275.921845 C 539.879651,275.853894 539.910176,275.786572 539.940377,275.719873 C 539.977902,275.636999 540.014928,275.555087 540.051461,275.474125 C 540.090137,275.388413 540.12826,275.303765 540.165838,275.220168 C 540.207775,275.126874 540.249032,275.034888 540.289619,274.94419 C 540.332075,274.849315 540.373798,274.75585 540.4148,274.663773 C 540.466099,274.54857 540.516269,274.435539 540.565331,274.324636 C 540.617843,274.205933 540.669086,274.089668 540.719087,273.975788 C 540.770336,273.859065 540.82028,273.744847 540.868948,273.633075 C 540.922293,273.510561 540.974105,273.390987 541.024422,273.274276 C 541.075636,273.155483 541.125302,273.039657 541.173459,272.926716 C 541.222399,272.811939 541.269781,272.700143 541.315647,272.591242 C 541.3636,272.477386 541.409897,272.366696 541.454585,272.259074 C 541.499806,272.15017 541.54338,272.044409 541.585357,271.94169 C 541.630134,271.832118 541.673094,271.726007 541.714298,271.623236 C 541.756846,271.517112 541.797522,271.414549 541.836392,271.315414 C 543.741001,266.45781 541.309644,269.830205 542.41379,265.68966 m 0,0 C 542.415859,265.681901 542.417948,265.674113 542.420057,265.666295 C 542.427077,265.640273 542.43432,265.613921 542.441784,265.587243 C 542.449953,265.558043 542.458386,265.528452 542.467081,265.498474 C 542.4773,265.46324 542.48788,265.427472 542.498817,265.391176 C 542.51219,265.346794 542.526097,265.301623 542.540528,265.255675 C 542.556633,265.204397 542.573392,265.152152 542.590793,265.098957 C 542.608995,265.043312 542.627899,264.986628 542.647492,264.928925 C 542.668942,264.865754 542.691218,264.801362 542.714302,264.735775 C 542.738231,264.667786 542.763028,264.598513 542.788674,264.527985 C 542.815191,264.455062 542.842615,264.380797 542.870924,264.305223 C 542.903775,264.217526 542.937818,264.128066 542.97302,264.036894 C 543.01675,263.923635 543.062268,263.807733 543.109509,263.689286 C 543.157312,263.569428 543.20688,263.446964 543.258145,263.321994 C 543.311391,263.192195 543.366468,263.059693 543.4233,262.9246 C 543.480588,262.788423 543.53966,262.649614 543.600438,262.508288 C 543.661631,262.365999 543.724554,262.221159 543.789128,262.073886 C 543.854066,261.925782 543.920673,261.775217 543.98887,261.622311 C 547.330524,254.129912 554.488681,241.016711 556.03448,236.37931 m 0,0 C 556.036377,236.37362 556.038274,236.367938 556.040172,236.362265 C 556.043016,236.353763 556.045861,236.345279 556.048707,236.336814 C 556.052496,236.325544 556.056287,236.314306 556.06008,236.3031 C 556.066704,236.283528 556.073335,236.264054 556.079972,236.244677 C 556.08942,236.217092 556.098881,236.189704 556.108355,236.16251 C 556.118724,236.132747 556.129108,236.103217 556.139507,236.073917 C 556.15267,236.036832 556.165857,236.000116 556.179068,235.963765 C 556.195935,235.917355 556.212842,235.87154 556.229789,235.826309 C 556.247516,235.778995 556.265287,235.73232 556.283101,235.686273 C 556.303532,235.633462 556.324021,235.581477 556.344567,235.5303 C 556.366734,235.475085 556.388968,235.420811 556.411269,235.367456 C 556.435138,235.310349 556.459083,235.254295 556.483105,235.199266 C 556.507727,235.142864 556.532429,235.08754 556.557211,235.033264 C 556.582564,234.977738 556.608001,234.92331 556.633522,234.869948 C 556.661382,234.811696 556.689342,234.754715 556.717402,234.698965 C 556.748592,234.636997 556.779905,234.57655 556.811342,234.517568 C 558.576305,231.206136 560.731142,232.512618 563.27586,228.62069 m 0,0 C 563.278791,228.616207 563.281721,228.611718 563.28465,228.607223 C 563.289039,228.600488 563.293426,228.593739 563.29781,228.586977 C 563.303647,228.577974 563.30948,228.568947 563.315309,228.559896 C 563.324035,228.546347 563.332751,228.532745 563.341458,228.51909 C 563.355926,228.496399 563.370368,228.473562 563.384784,228.45058 C 563.400562,228.425426 563.416308,228.400099 563.432022,228.3746 C 563.450492,228.344631 563.468917,228.314425 563.487297,228.283985 C 563.506963,228.251416 563.526577,228.21858 563.546139,228.18548 C 563.566952,228.150264 563.587705,228.114749 563.608398,228.078941 C 563.630305,228.041032 563.652145,228.002793 563.673916,227.964231 C 563.699562,227.918804 563.725113,227.872928 563.750566,227.826612 C 563.785066,227.763834 563.819387,227.700248 563.853524,227.635876 C 563.888513,227.569897 563.923309,227.503092 563.957906,227.435486 C 563.998356,227.356442 564.038534,227.276302 564.078431,227.195106 C 564.120143,227.110215 564.161549,227.02417 564.202638,226.937015 C 564.244216,226.848821 564.285469,226.759491 564.326388,226.66907 C 564.367739,226.577693 564.408748,226.485203 564.449404,226.391647 C 564.491546,226.294671 564.533309,226.19655 564.574681,226.097336 C 564.616335,225.997446 564.657593,225.896449 564.698442,225.794399 C 566.752416,220.663138 567.773176,212.870073 566.2069,209.31035 m 0,0 C 566.205003,209.30604 566.203109,209.301733 566.201218,209.297429 C 566.198384,209.29098 566.195556,209.284538 566.192733,209.278103 C 566.188036,209.267395 566.183355,209.256707 566.17869,209.246039 C 566.173106,209.233269 566.167544,209.220528 566.162005,209.207816 C 566.155563,209.19303 566.149151,209.178282 566.14277,209.163572 C 566.135503,209.14682 566.128276,209.130118 566.121089,209.113465 C 566.112141,209.092732 566.103254,209.072075 566.094428,209.051493 C 566.084768,209.028966 566.075181,209.006528 566.065667,208.984179 C 566.054485,208.957912 566.043403,208.931767 566.032421,208.905742 C 566.018992,208.873919 566.005712,208.842275 565.992579,208.810806 C 565.977923,208.775687 565.96345,208.740786 565.949159,208.706097 C 565.93421,208.66981 565.919459,208.633756 565.904904,208.597927 C 565.888211,208.556835 565.871776,208.51604 565.855595,208.475532 C 565.835955,208.426364 565.816689,208.377618 565.797791,208.329277 C 565.774314,208.269225 565.751405,208.209797 565.729051,208.150959 C 565.706431,208.091421 565.684379,208.032487 565.662883,207.974122 C 565.639953,207.911863 565.617655,207.850251 565.595973,207.789243 C 564.476502,204.639305 565,203.09978 565,197.24138 m 0,0 C 565,197.234656 564.999999,197.227904 564.999997,197.221124 C 564.999993,197.210965 564.999987,197.200744 564.999978,197.190461 C 564.99996,197.169925 564.999931,197.149142 564.999891,197.128113 C 564.999838,197.100158 564.999766,197.071769 564.999674,197.042949 C 564.99956,197.007067 564.999416,196.970517 564.999242,196.933306 C 564.999051,196.892578 564.998824,196.851058 564.998561,196.808755 C 564.998275,196.76286 564.997946,196.716042 564.997574,196.668313 C 564.997143,196.612964 564.996654,196.556389 564.996106,196.498606 C 564.995406,196.424834 564.99461,196.349093 564.993717,196.27142 C 564.992783,196.19017 564.991743,196.106805 564.990596,196.021367 C 564.989281,195.923379 564.987824,195.822664 564.986224,195.719285 C 564.984498,195.607748 564.982605,195.49311 564.980543,195.37545 C 564.978336,195.249514 564.975936,195.120116 564.973339,194.987352 C 564.970677,194.851274 564.967808,194.71166 564.964729,194.568613 C 564.961242,194.406592 564.957486,194.240167 564.953456,194.06949 C 564.94936,193.896039 564.944981,193.718196 564.940314,193.53612 C 564.935435,193.34576 564.930241,193.150773 564.924726,192.951341 C 564.919146,192.749533 564.913238,192.543173 564.906996,192.332448 C 564.900688,192.119496 564.894038,191.902087 564.887041,191.680414 C 564.879788,191.450638 564.872162,191.216281 564.864156,190.977559 C 564.450815,178.651969 563.024842,154.690029 559.65517,148.7931 m 0,0 C 559.651032,148.785859 559.646907,148.778624 559.642794,148.771396 C 559.636631,148.760565 559.630496,148.749749 559.624389,148.738948 C 559.614227,148.720973 559.604142,148.70304 559.594135,148.685149 C 559.578164,148.656594 559.562391,148.628145 559.546814,148.599801 C 559.527421,148.564513 559.508332,148.529388 559.489545,148.494424 C 559.468983,148.456156 559.448783,148.418082 559.428941,148.380199 C 559.405621,148.335675 559.382796,148.291416 559.360461,148.247419 C 559.336564,148.200346 559.313228,148.153573 559.290447,148.107098 C 559.266209,148.057651 559.242599,148.008541 559.219608,147.959763 C 559.195269,147.908123 559.171624,147.856856 559.148664,147.805957 C 559.123041,147.749153 559.098271,147.692807 559.074342,147.636913 C 559.049311,147.578445 559.025199,147.520471 559.001992,147.462983 C 558.976586,147.400048 558.952264,147.337696 558.929007,147.275917 C 558.904899,147.211876 558.881935,147.148451 558.860094,147.085632 C 558.837512,147.02068 558.81613,146.956375 558.795924,146.892705 C 558.772477,146.818821 558.750614,146.745792 558.730298,146.6736 C 558.708772,146.597107 558.688983,146.521553 558.670886,146.446915 C 558.652436,146.370823 558.635745,146.295684 558.620766,146.221474 C 558.60552,146.14594 558.592047,146.071369 558.580298,145.997735 C 558.567238,145.915888 558.556308,145.835199 558.54744,145.755634 C 558.049542,141.288618 564.049429,140.36321 564.48276,136.89655 m 0,0 C 564.483277,136.892412 564.48379,136.888273 564.484298,136.884134 C 564.485314,136.875864 564.486312,136.867591 564.487292,136.859315 C 564.489003,136.844861 564.49066,136.830399 564.492263,136.815929 C 564.494089,136.799449 564.495845,136.782958 564.497531,136.766457 C 564.499631,136.745913 564.501623,136.725352 564.503508,136.704775 C 564.505571,136.682253 564.507507,136.659711 564.509316,136.63715 C 564.511279,136.612673 564.513093,136.588173 564.51476,136.56365 C 564.516693,136.535211 564.518428,136.506741 564.519968,136.478241 C 564.521935,136.441854 564.523583,136.405417 564.524919,136.368931 C 564.526316,136.330764 564.527371,136.292543 564.52809,136.254269 C 564.528914,136.210372 564.529297,136.166405 564.529247,136.122369 C 564.529193,136.074858 564.528636,136.027266 564.527587,135.979595 C 564.526464,135.928571 564.524778,135.877456 564.522543,135.826251 C 564.520252,135.773768 564.517385,135.721191 564.513957,135.668522 C 564.510199,135.610791 564.505767,135.552949 564.500682,135.494998 C 564.495506,135.436013 564.489653,135.376916 564.483145,135.317708 C 564.476531,135.257537 564.469241,135.197252 564.461297,135.136855 C 564.452991,135.07371 564.44397,135.010443 564.434261,134.947057 C 564.424436,134.882916 564.413905,134.818652 564.402696,134.754269 C 564.39011,134.681976 564.376668,134.609532 564.362409,134.536941 C 563.663722,130.979996 561.002615,127.070641 560.86207,123.27586 m 0,0 C 560.861898,123.271205 560.861716,123.266559 560.861524,123.261922 C 560.861236,123.254974 560.860926,123.248046 560.860594,123.241138 C 560.860042,123.229643 560.859429,123.218204 560.858755,123.206822 C 560.857949,123.193197 560.857056,123.179653 560.856076,123.166189 C 560.854937,123.150528 560.853681,123.134976 560.852308,123.119531 C 560.850354,123.097544 560.848165,123.075776 560.845742,123.054224 C 560.84309,123.030635 560.840158,123.007305 560.836949,122.984231 C 560.833178,122.957112 560.829024,122.930347 560.824491,122.903931 C 560.819641,122.875668 560.814358,122.847805 560.808646,122.820336 C 560.802569,122.791111 560.796007,122.762332 560.788967,122.733992 C 560.781514,122.70399 560.773524,122.67448 560.765005,122.645455 C 560.755498,122.613063 560.745332,122.581274 560.734518,122.550077 C 560.723205,122.517444 560.711183,122.485459 560.698463,122.454109 C 560.683874,122.418154 560.668367,122.383035 560.651959,122.348733 C 560.634994,122.313266 560.617066,122.278672 560.598195,122.24493 C 560.57873,122.210126 560.558262,122.176228 560.536812,122.143213 C 560.513853,122.107876 560.489769,122.073551 560.464586,122.040209 C 560.438775,122.006035 560.41181,121.972894 560.383719,121.940755 C 560.35498,121.907875 560.325063,121.876044 560.293998,121.845229 C 560.260086,121.81159 560.224806,121.779162 560.188197,121.747902 C 560.148668,121.714148 560.10759,121.681756 560.065012,121.650672 C 560.021927,121.619218 559.977307,121.589103 559.931203,121.560271 C 559.879434,121.527897 559.825794,121.497141 559.770356,121.467924 C 557.053913,120.036303 550.020235,122.300141 547.24138,118.96552 m 0,0 C 547.237932,118.961382 547.234465,118.957216 547.23098,118.953022 C 547.225757,118.946737 547.220492,118.940389 547.215186,118.933978 C 547.208121,118.925443 547.200983,118.916797 547.193771,118.90804 C 547.175777,118.886191 547.157325,118.863652 547.138418,118.840429 C 547.117724,118.815012 547.096485,118.788775 547.074705,118.761727 C 547.049107,118.729937 547.022762,118.697027 546.995677,118.663011 C 546.958419,118.616218 546.919762,118.567332 546.879724,118.516389 C 546.837842,118.463099 546.794448,118.407558 546.749565,118.349807 C 546.702768,118.289594 546.654352,118.226978 546.60434,118.162006 C 546.552353,118.094468 546.498642,118.024384 546.443234,117.951807 C 546.380576,117.869732 546.315748,117.784469 546.248789,117.696093 C 546.174364,117.597863 546.097307,117.495787 546.017672,117.389969 C 545.918744,117.258516 545.815837,117.121288 545.709054,116.978485 C 545.600999,116.833981 545.488976,116.683768 545.373091,116.528053 C 545.252728,116.366321 545.128199,116.198653 544.999624,116.025281 C 544.863196,115.841319 544.722213,115.650935 544.576818,115.454405 C 537.452441,105.824439 519.734741,81.438477 508.27586,74.827586 m 0,0 C 508.262412,74.819827 508.248942,74.812062 508.23545,74.80429 C 508.215232,74.792644 508.194964,74.780983 508.174647,74.769307 C 508.147598,74.753762 508.120462,74.73819 508.093239,74.722592 C 508.045694,74.69535 507.997884,74.668027 507.949811,74.640624 C 507.895063,74.609416 507.839974,74.578105 507.784547,74.546691 C 507.70864,74.50367 507.6321,74.460457 507.554935,74.417055 C 507.429359,74.346425 507.302128,74.275295 507.173278,74.203678 C 507.038493,74.128762 506.901937,74.053313 506.76365,73.977346 C 506.619468,73.898141 506.473404,73.818373 506.325506,73.738059 C 506.164445,73.650597 506.001208,73.562488 505.835856,73.473753 C 505.64259,73.370038 505.446434,73.265469 505.247485,73.16008 C 505.043569,73.05206 504.836719,72.94318 504.627038,72.833477 C 504.404865,72.717238 504.179514,72.600075 503.951109,72.482033 C 503.687206,72.345646 503.419225,72.208085 503.147356,72.06942 C 502.872249,71.929103 502.593161,71.787656 502.310289,71.64515 C 502.008546,71.493137 501.702498,71.339919 501.392384,71.185583 C 501.07215,71.026211 500.747581,70.865648 500.41894,70.703989 C 484.315507,62.782694 458.435259,52.2307 453.7931,50.344828 m 0,0 C 453.784824,50.341466 453.776559,50.338114 453.768304,50.334772 C 453.740829,50.323649 453.71347,50.312637 453.686226,50.301735 C 453.656407,50.289803 453.626726,50.278002 453.597181,50.266331 C 453.565128,50.253669 453.533235,50.241159 453.501502,50.2288 C 453.464702,50.214467 453.428116,50.200336 453.391743,50.186403 C 453.345304,50.168614 453.299211,50.151148 453.253459,50.133997 C 453.2056,50.116056 453.158115,50.098459 453.110998,50.081197 C 453.05696,50.061399 453.003406,50.042042 452.950329,50.023112 C 452.893063,50.002688 452.836352,49.982761 452.780186,49.963313 C 452.720069,49.942498 452.660576,49.922232 452.601695,49.902494 C 452.541345,49.882263 452.481638,49.862586 452.422561,49.843441 C 452.355647,49.821756 452.289541,49.800753 452.224224,49.780398 C 452.157846,49.759712 452.092283,49.739696 452.027515,49.720314 C 451.9598,49.700051 451.892954,49.680481 451.826955,49.661565 C 451.76017,49.642423 451.694251,49.62395 451.629176,49.606105 C 451.561586,49.58757 451.494906,49.569712 451.429109,49.552484 C 447.938325,48.638474 446.934162,49.498425 444.48276,45.172414 m 0,0 C 444.479829,45.167242 444.476874,45.162075 444.473895,45.156914 C 444.469431,45.14918 444.464913,45.141458 444.460342,45.133748 C 444.452735,45.120918 444.44498,45.108122 444.437077,45.09536 C 444.427617,45.080084 444.417946,45.064857 444.408065,45.049679 C 444.396571,45.032024 444.384793,45.014436 444.372733,44.996913 C 444.355564,44.971968 444.337823,44.947157 444.319516,44.922478 C 444.299479,44.895467 444.278764,44.868615 444.257378,44.841922 C 444.232243,44.810549 444.206182,44.779394 444.179207,44.748457 C 444.146223,44.710628 444.111872,44.673124 444.076177,44.635943 C 444.036342,44.594449 443.994833,44.553356 443.951682,44.512662 C 443.906544,44.470094 443.859609,44.427962 443.810913,44.386262 C 443.760141,44.342785 443.707455,44.299778 443.652896,44.257236 C 443.58808,44.206697 443.520621,44.156815 443.450587,44.107583 C 443.375627,44.054889 443.297717,44.00294 443.216941,43.951727 C 443.134149,43.899235 443.048346,43.847517 442.959623,43.796563 C 442.868856,43.744435 442.775033,43.693107 442.67825,43.642569 C 442.576006,43.589179 442.470459,43.53667 442.361724,43.485031 C 442.24748,43.430775 442.129716,43.377479 442.008565,43.325129 C 441.881902,43.270397 441.751537,43.216699 441.617621,43.16402 C 441.48211,43.110713 441.342963,43.058449 441.200337,43.007212 C 441.048196,42.952556 440.892096,42.899069 440.732229,42.84673 C 440.567145,42.792683 440.398043,42.739861 440.225133,42.688241 C 431.752552,40.158883 414.137171,40.517495 412.06897,41.206897 m 0,0 C 412.065091,41.20819 412.061215,41.20949 412.057342,41.210797 C 412.044451,41.215147 412.031594,41.219574 412.018771,41.224078 C 412.004736,41.229008 411.990742,41.234029 411.976788,41.239141 C 411.960388,41.245149 411.944043,41.251283 411.927753,41.25754 C 411.910324,41.264235 411.892957,41.271072 411.875652,41.278049 C 411.857241,41.285472 411.8389,41.293054 411.820627,41.300792 C 411.801282,41.308984 411.782014,41.317352 411.762822,41.325893 C 411.741403,41.335425 411.720078,41.345172 411.698846,41.355131 C 411.676636,41.365549 411.654527,41.376199 411.632516,41.387077 C 411.607272,41.399553 411.582158,41.412329 411.55717,41.425399 C 411.531334,41.438912 411.505633,41.45274 411.480064,41.466875 C 411.450394,41.483278 411.420901,41.500095 411.39158,41.517316 C 411.355155,41.538709 411.318995,41.560726 411.28309,41.583347 C 411.246757,41.606238 411.210684,41.629747 411.174861,41.653854 C 411.137653,41.678893 411.100714,41.704577 411.064031,41.730883 C 409.117864,43.126528 407.892997,46.273774 405.51724,47.758621 m 0,0 C 405.514481,47.760345 405.511682,47.762074 405.508842,47.763808 C 405.504586,47.766407 405.500239,47.769017 405.495801,47.771638 C 405.488416,47.776 405.480779,47.780393 405.472891,47.784817 C 405.460301,47.791878 405.447072,47.799018 405.433209,47.806238 C 405.415949,47.815227 405.397705,47.824339 405.378485,47.833574 C 405.357449,47.843682 405.335244,47.853937 405.311882,47.86434 C 405.282312,47.877508 405.250887,47.890913 405.217629,47.904555 C 405.175168,47.921972 405.12972,47.939776 405.081331,47.957969 C 405.030714,47.977 404.976879,47.996455 404.919878,48.016336 C 404.857476,48.038101 404.79128,48.060377 404.72136,48.083165 C 404.642291,48.108935 404.558459,48.13536 404.469965,48.162442 C 404.375247,48.191429 404.275188,48.221169 404.169911,48.251664 C 404.062006,48.282921 403.948619,48.314972 403.829882,48.347819 C 403.704072,48.382623 403.572256,48.418322 403.434592,48.454919 C 403.294246,48.492229 403.147821,48.530473 402.995485,48.569654 C 402.840432,48.609534 402.679255,48.650385 402.51213,48.692211 C 402.331673,48.737373 402.144281,48.783672 401.950176,48.831113 C 401.753759,48.879119 401.550468,48.928294 401.340532,48.978644 C 401.116591,49.032353 400.885089,49.087398 400.646305,49.143785 C 400.405894,49.200557 400.158101,49.25869 399.903211,49.31819 C 399.646884,49.378026 399.383379,49.439245 399.112987,49.501853 C 385.863757,52.569641 356.076826,58.973355 343.7931,69.482759 m 0,0 C 343.769824,69.502673 343.746573,69.522564 343.723346,69.542431 C 343.646039,69.608556 343.569002,69.674424 343.492234,69.740036 C 343.408212,69.811848 343.324512,69.883353 343.241133,69.954553 C 343.150674,70.031799 343.060593,70.108686 342.970887,70.185217 C 342.859427,70.280306 342.748547,70.374845 342.638243,70.468838 C 342.521468,70.568346 342.405338,70.667242 342.289848,70.765532 C 342.160961,70.875224 342.032872,70.984161 341.905574,71.09235 C 341.772413,71.205522 341.640118,71.317876 341.508681,71.429421 C 341.357936,71.557351 341.20832,71.684216 341.059821,71.81003 C 340.899604,71.945772 340.740688,72.080289 340.583058,72.213599 C 340.414341,72.356285 340.247098,72.497587 340.081311,72.637525 C 339.911385,72.780956 339.742989,72.922954 339.576104,73.063541 C 339.387081,73.222777 339.199996,73.380202 339.014822,73.535848 C 338.826638,73.694025 338.640427,73.850364 338.45616,74.004898 C 338.263509,74.166463 338.072984,74.326055 337.884551,74.483712 C 337.693874,74.643247 337.505339,74.8008 337.318913,74.95641 C 337.130516,75.113665 336.944273,75.268936 336.760148,75.422263 C 336.564269,75.585377 336.370788,75.746291 336.179662,75.905052 C 326.569441,83.887895 322.913266,86.429234 319.82759,89.655173 m 0,0 Z " id="path846"/>
    <path style="fill:none;stroke:#000000;stroke-width:1px;stroke-linecap:butt;stroke-linejoin:miter;stroke-opacity:1" d="m 287.5862,154.13793  C 287.5862,154.13793 284.07131,164.30029 282.4138,175.51724 m 0,0 C 282.412085,175.528849 282.410378,175.540471 282.408679,175.552106 C 282.406133,175.569541 282.403606,175.587006 282.401097,175.604501 C 282.396087,175.639439 282.391151,175.674495 282.386288,175.709669 C 282.379823,175.756427 282.373488,175.803394 282.367281,175.850568 C 282.359554,175.909299 282.352026,175.968351 282.344696,176.027719 C 282.336673,176.092698 282.328887,176.158056 282.321335,176.223789 C 282.313142,176.295104 282.305225,176.36686 282.297581,176.439051 C 282.288717,176.522769 282.28022,176.607072 282.272086,176.691952 C 282.261125,176.806339 282.250823,176.921773 282.241169,177.038231 C 282.228084,177.196081 282.21619,177.355813 282.205461,177.517371 C 282.194464,177.682962 282.18469,177.850471 282.17611,178.019837 C 282.166706,178.205481 282.158737,178.393357 282.152164,178.583386 C 282.144827,178.795522 282.13923,179.01034 282.13532,179.22773 C 282.131364,179.44771 282.129135,179.670323 282.128579,179.895456 C 282.127955,180.148248 282.12944,180.404216 282.132955,180.663198 C 282.305214,193.353334 287.353571,213.28063 288.10345,221.37931 m 0,0 C 288.104312,221.38862 288.105181,221.397937 288.106058,221.40726 C 288.107371,221.421231 288.108701,221.435216 288.110047,221.449215 C 288.111839,221.467853 288.11366,221.486516 288.115509,221.505204 C 288.118277,221.53318 288.12111,221.561212 288.124007,221.5893 C 288.12882,221.635973 288.13381,221.682801 288.138975,221.729781 C 288.144628,221.781201 288.150491,221.832804 288.156563,221.884587 C 288.165346,221.959494 288.174566,222.034779 288.184218,222.110435 C 288.195588,222.199557 288.207557,222.289194 288.220118,222.379334 C 288.237144,222.501511 288.255257,222.624613 288.274439,222.74861 C 288.2941,222.875703 288.314884,223.003736 288.33677,223.13268 C 288.35916,223.264594 288.382704,223.397461 288.407381,223.531247 C 288.43345,223.672583 288.460783,223.814945 288.489354,223.958294 C 288.518435,224.1042 288.548799,224.251129 288.580419,224.399039 C 288.612553,224.549354 288.645984,224.700683 288.680684,224.852984 C 288.716963,225.012214 288.754629,225.172506 288.79365,225.33381 C 288.833136,225.497035 288.87401,225.661297 288.916238,225.826545 C 288.960097,225.998178 289.005417,226.170875 289.052161,226.344578 C 289.10176,226.528891 289.152961,226.714337 289.20572,226.900848 C 291.790931,236.039872 298.116829,247.735366 302.93103,253.96552 m 0,0 C 302.936892,253.973106 302.942746,253.980688 302.948593,253.988266 C 302.957355,253.999622 302.9661,254.010968 302.974828,254.022305 C 302.986447,254.037398 302.998036,254.052475 303.009595,254.067535 C 303.026899,254.09008 303.044136,254.112589 303.061306,254.135061 C 303.089837,254.172402 303.118183,254.209641 303.146345,254.246779 C 303.177168,254.287427 303.207771,254.327954 303.238156,254.36836 C 303.273868,254.41585 303.309278,254.463173 303.344389,254.51033 C 303.392688,254.5752 303.440421,254.639756 303.487595,254.703999 C 303.536942,254.771201 303.585677,254.838061 303.633808,254.904581 C 303.6865,254.977405 303.738468,255.049821 303.789723,255.121832 C 303.847685,255.203267 303.904735,255.284184 303.960887,255.364587 C 304.020989,255.450645 304.080062,255.536114 304.138126,255.620999 C 304.197639,255.708003 304.256091,255.794394 304.313502,255.880176 C 304.374333,255.971068 304.433996,256.061277 304.492513,256.150809 C 304.55217,256.242085 304.610637,256.332657 304.667939,256.422532 C 304.726263,256.514009 304.783379,256.604764 304.839314,256.694803 C 304.901488,256.794884 304.962202,256.89408 305.021493,256.992401 C 308.350272,262.512425 307.193075,265.273039 307.93103,266.89655 m 0,0 C 307.931892,266.898447 307.932756,266.900343 307.933622,266.902238 C 307.934919,266.905078 307.936221,266.907916 307.937527,266.910753 C 307.941004,266.918307 307.944512,266.92585 307.94805,266.933382 C 307.952454,266.942759 307.956905,266.952119 307.961402,266.961462 C 307.966324,266.971688 307.971302,266.981894 307.976335,266.992079 C 307.98225,267.00405 307.988242,267.015993 307.99431,267.027908 C 308.000802,267.040656 308.007381,267.053373 308.014046,267.066058 C 308.021138,267.079554 308.028327,267.093014 308.035614,267.106438 C 308.044775,267.123314 308.054089,267.140134 308.063556,267.156897 C 308.076388,267.179618 308.0895,267.202236 308.102889,267.224751 C 308.116613,267.247828 308.130628,267.270797 308.144931,267.293659 C 308.160086,267.317883 308.175565,267.341986 308.191363,267.365969 C 308.207469,267.39042 308.223908,267.414746 308.240675,267.438949 C 308.257741,267.463584 308.275147,267.488091 308.292889,267.512471 C 308.310919,267.537247 308.329296,267.561892 308.348016,267.586407 C 308.367587,267.612037 308.387533,267.637525 308.407848,267.662872 C 308.428405,267.688521 308.44934,267.714025 308.470648,267.739386 C 308.492181,267.765015 308.514095,267.790497 308.536384,267.815834 C 308.560096,267.842789 308.584233,267.869579 308.608788,267.896207 C 309.843478,269.235092 312.135691,270.162215 314.65517,270.86207 m 0,0 C 314.658273,270.862932 314.661383,270.863798 314.6645,270.864668 C 314.669171,270.865972 314.673857,270.867285 314.678558,270.868607 C 314.687945,270.871246 314.697392,270.873921 314.706899,270.876631 C 314.722697,270.881134 314.738659,270.885735 314.754785,270.890435 C 314.772435,270.895579 314.79028,270.900841 314.808319,270.90622 C 314.829521,270.912542 314.850991,270.919027 314.872725,270.925675 C 314.899301,270.933804 314.926273,270.942176 314.953636,270.950792 C 314.984173,270.960408 315.015197,270.970328 315.0467,270.980552 C 315.079654,270.991247 315.113132,271.002274 315.147126,271.013635 C 315.184341,271.026072 315.222174,271.038909 315.260614,271.052146 C 315.300462,271.065868 315.340962,271.08002 315.382102,271.094603 C 315.424639,271.109681 315.46786,271.12522 315.511751,271.14122 C 315.560796,271.159099 315.610678,271.177554 315.661378,271.196587 C 315.713343,271.216095 315.766167,271.236209 315.819829,271.256931 C 315.88257,271.281159 315.946457,271.306218 316.011457,271.33211 C 316.079414,271.35918 316.148588,271.387161 316.21894,271.416054 C 316.29013,271.445292 316.362527,271.475464 316.436091,271.506573 C 316.510433,271.538011 316.585967,271.570406 316.662653,271.603761 C 316.744234,271.639245 316.827119,271.675815 316.911259,271.713474 C 321.141983,273.607042 328.545514,278.253713 332.93103,286.03448 m 0,0 C 332.936375,286.043963 332.941712,286.053438 332.947042,286.062905 C 332.955029,286.077091 332.962999,286.091259 332.970953,286.10541 C 332.981542,286.124249 332.992102,286.143057 333.002633,286.161833 C 333.01577,286.185257 333.028862,286.208632 333.041908,286.231958 C 333.06273,286.269186 333.083437,286.30629 333.10403,286.343271 C 333.132232,286.393917 333.160221,286.444332 333.187999,286.494517 C 333.220647,286.553501 333.253003,286.612168 333.285072,286.670521 C 333.319384,286.732954 333.353367,286.795027 333.387028,286.856744 C 333.432391,286.939917 333.477167,287.022443 333.521371,287.104331 C 333.581286,287.215324 333.640149,287.325144 333.697994,287.433813 C 333.757283,287.545195 333.815503,287.655367 333.87269,287.764353 C 333.933284,287.879831 333.992718,287.993977 334.051036,288.106818 C 334.11049,288.221858 334.168785,288.335542 334.225966,288.447898 C 334.284167,288.562258 334.341214,288.675242 334.397155,288.786881 C 334.457559,288.907426 334.516675,289.026403 334.574563,289.14385 C 334.633141,289.262696 334.690462,289.379975 334.746589,289.495727 C 334.804885,289.615952 334.861894,289.73453 334.917687,289.851505 C 334.973927,289.969419 335.028932,290.085704 335.082773,290.200405 C 335.136981,290.315888 335.19001,290.429766 335.241934,290.542085 C 335.294151,290.655038 335.345251,290.766414 335.395309,290.876261 C 337.848167,296.258759 337.799756,297.969278 344.13793,301.55172 m 0,0 C 344.145861,301.556203 344.153814,301.560699 344.16179,301.565208 C 344.173742,301.571964 344.185744,301.578749 344.197796,301.585563 C 344.217853,301.596903 344.238049,301.608323 344.258383,301.619822 C 344.282723,301.633586 344.307261,301.647464 344.331996,301.661455 C 344.360767,301.677729 344.389804,301.694156 344.419106,301.710735 C 344.464991,301.736697 344.511526,301.763031 344.558706,301.789733 C 344.614157,301.821116 344.670498,301.853007 344.727719,301.885398 C 344.788941,301.920053 344.85117,301.955281 344.914395,301.991072 C 344.986146,302.031689 345.059179,302.073032 345.133477,302.115086 C 345.216394,302.162018 345.300886,302.209836 345.386929,302.258521 C 345.476935,302.309448 345.568638,302.361323 345.662011,302.414125 C 345.759365,302.469178 345.858534,302.525238 345.959487,302.58228 C 346.074422,302.647222 346.19167,302.713438 346.311184,302.78089 C 346.434461,302.850466 346.560149,302.921357 346.688198,302.993524 C 346.825253,303.070767 346.965012,303.149471 347.107414,303.229587 C 347.25337,303.311702 347.402103,303.395301 347.553545,303.48033 C 347.719542,303.573531 347.888794,303.66845 348.061214,303.765018 C 348.24237,303.866478 348.427022,303.969758 348.615068,304.074777 C 348.81167,304.184574 349.011983,304.296271 349.215889,304.409776 C 349.422224,304.524633 349.632239,304.641341 349.845813,304.759804 C 350.079631,304.889495 350.317715,305.02129 350.559906,305.155062 C 350.803463,305.289588 351.051174,305.426114 351.302878,305.564512 C 363.636364,312.345995 385.556207,323.620941 398.10345,324.31035 " id="path848" sodipodi:nodetypes="csssssssc"/>
    <path style="fill:none;stroke:#000000;stroke-width:1px;stroke-linecap:butt;stroke-linejoin:miter;stroke-opacity:1" d="m 306.31134,278.81952  C 306.311035,278.817265 306.310728,278.815006 306.310419,278.812744 C 306.309956,278.809354 306.309488,278.805956 306.309015,278.80255 C 306.308385,278.798016 306.307747,278.793468 306.3071,278.788907 C 306.30597,278.78094 306.304814,278.772932 306.303633,278.764883 C 306.301951,278.753425 306.300218,278.741883 306.298434,278.73026 C 306.296482,278.717538 306.294469,278.704718 306.292398,278.691802 C 306.289777,278.675454 306.287062,278.658952 306.284258,278.6423 C 306.281075,278.623402 306.277777,278.604311 306.274369,278.585032 C 306.270565,278.563516 306.266624,278.541766 306.262554,278.51979 C 306.258296,278.496802 306.253897,278.473566 306.249365,278.450091 C 306.24464,278.425616 306.23977,278.400881 306.234766,278.375896 C 306.229317,278.348688 306.223708,278.321183 306.217953,278.293395 C 306.210967,278.259667 306.203766,278.225521 306.196372,278.190981 C 306.188537,278.154383 306.180486,278.117342 306.172245,278.079886 C 306.163844,278.0417 306.155246,278.003083 306.14648,277.964063 C 306.136407,277.919222 306.126112,277.873849 306.11564,277.827988 C 305.527705,275.253236 304.380363,271.140428 310.45645,273.27239 m 0,0 C 310.463399,273.274828 310.470353,273.277274 310.477312,273.279728 C 310.487739,273.283405 310.498177,273.287099 310.508625,273.290811 C 310.52949,273.298223 310.550397,273.305704 310.571345,273.313254 C 310.595711,273.322036 310.620133,273.330911 310.644611,273.339878 C 310.679457,273.352643 310.714415,273.365595 310.749484,273.378732 C 310.787867,273.393111 310.826382,273.407712 310.865027,273.422533 C 310.910447,273.439952 310.956047,273.457675 311.001824,273.475698 C 311.057798,273.497736 311.114036,273.520223 311.170531,273.543152 C 311.233579,273.568741 311.296948,273.594881 311.360628,273.621562 C 311.42724,273.649472 311.494193,273.677975 311.561476,273.70706 C 311.635135,273.738901 311.70919,273.771441 311.783627,273.804665 C 311.860789,273.839106 311.938362,273.874282 312.01633,273.910178 C 312.10746,273.952134 312.199131,273.995074 312.291317,274.038974 C 312.385804,274.08397 312.480833,274.129974 312.576378,274.17696 C 312.681106,274.228462 312.786454,274.281144 312.892387,274.334972 C 313.003687,274.391527 313.115634,274.449347 313.228187,274.508392 C 313.349322,274.571939 313.471159,274.636905 313.593649,274.70324 C 320.470595,278.427489 329.404814,286.467512 331.6087,290.0357 m 0,0 C 331.61126,290.039845 331.613822,290.043992 331.616386,290.04814 C 331.620228,290.054356 331.624074,290.060575 331.627924,290.066797 C 331.634331,290.077152 331.640749,290.087516 331.647178,290.097889 C 331.654874,290.110305 331.662585,290.122734 331.670311,290.135175 C 331.679298,290.149646 331.688306,290.164134 331.697333,290.178639 C 331.707614,290.195158 331.717921,290.211698 331.728252,290.228259 C 331.741115,290.248878 331.754016,290.26953 331.766953,290.290213 C 331.781113,290.312851 331.795317,290.335527 331.809562,290.358239 C 331.825016,290.38288 331.840519,290.407564 331.856067,290.432289 C 331.875385,290.46301 331.894773,290.493796 331.914225,290.524643 C 331.93868,290.563423 331.963235,290.602299 331.987879,290.641266 C 332.021282,290.694083 332.054848,290.747067 332.088546,290.800202 C 332.123085,290.854664 332.157764,290.909286 332.192549,290.964051 C 332.229407,291.022079 332.266384,291.080268 332.303442,291.1386 C 332.341222,291.198068 332.379086,291.257684 332.416993,291.317428 C 332.456821,291.380199 332.496696,291.443111 332.536571,291.506141 C 332.578261,291.572039 332.61995,291.638066 332.661585,291.704196 C 332.703716,291.771113 332.745791,291.838135 332.787753,291.905234 C 332.832515,291.97681 332.877149,292.048474 332.921586,292.120192 C 332.967473,292.19425 333.013151,292.268366 333.058544,292.342504 C 335.282806,295.975248 336.823057,299.658782 328.80465,299.0574 " id="path850"/>
    <path style="fill:none;stroke:#000000;stroke-width:1px;stroke-linecap:butt;stroke-linejoin:miter;stroke-opacity:1" d="m 461.32622,294.30272  C 461.32622,294.30272 438.65003,285.28101 434.01727,295.7657 m 0,0 C 434.012637,295.776185 434.008015,295.786662 434.003404,295.797131 C 433.996495,295.812819 433.98961,295.828489 433.98275,295.844142 C 433.973617,295.864981 433.964527,295.885789 433.955481,295.906566 C 433.939682,295.942854 433.924015,295.979047 433.90848,296.015146 C 433.890788,296.056258 433.873267,296.097248 433.855916,296.138116 C 433.834314,296.188996 433.812975,296.239688 433.791898,296.290192 C 433.768829,296.345468 433.746074,296.400519 433.72363,296.455346 C 433.69928,296.514828 433.675297,296.574046 433.651677,296.633001 C 433.622329,296.706253 433.593542,296.779099 433.565311,296.851541 C 433.535423,296.928233 433.506158,297.004473 433.477509,297.080264 C 433.445536,297.164846 433.41433,297.248868 433.383882,297.332334 C 433.352031,297.419644 433.321009,297.506346 433.290805,297.592444 C 433.253016,297.700166 433.216507,297.806942 433.181258,297.91278 C 433.14353,298.026062 433.107245,298.13827 433.072378,298.249414 C 433.036641,298.363332 433.002393,298.476133 432.969607,298.587827 C 432.933669,298.710256 432.899488,298.831356 432.867026,298.951141 C 432.833985,299.073062 432.802726,299.193621 432.77321,299.312833 C 432.743214,299.433983 432.715019,299.553742 432.688584,299.672127 C 432.660946,299.795898 432.635232,299.918166 432.611395,300.03895 C 432.587274,300.161173 432.565076,300.281876 432.544753,300.401078 C 432.523074,300.528232 432.503529,300.653678 432.486059,300.77744 C 432.468019,300.90524 432.452193,301.031244 432.438516,301.155477 C 431.768353,307.242892 436.259145,309.078437 438.4062,309.664 m 0,0 C 438.410223,309.665097 438.414271,309.6662 438.418345,309.667309 C 438.431903,309.671001 438.44574,309.674759 438.459854,309.678582 C 438.475301,309.682766 438.49108,309.687028 438.507187,309.691365 C 438.526118,309.696463 438.545502,309.701665 438.565334,309.706968 C 438.589584,309.713452 438.614504,309.720087 438.640085,309.726867 C 438.668633,309.734433 438.698005,309.742179 438.728187,309.750096 C 438.759759,309.758378 438.792218,309.766847 438.825549,309.775494 C 438.862038,309.78496 438.899572,309.794639 438.938132,309.804517 C 438.978104,309.814757 439.019179,309.825212 439.061335,309.835867 C 439.104922,309.846883 439.149665,309.858113 439.19554,309.869541 C 439.248774,309.882802 439.303532,309.896329 439.359778,309.910097 C 439.42965,309.927201 439.501817,309.944677 439.576208,309.962476 C 439.651485,309.980487 439.72904,309.99883 439.808799,310.017455 C 439.89164,310.036799 439.976859,310.056447 440.064374,310.076343 C 440.152591,310.096399 440.243141,310.116707 440.335939,310.137209 C 440.429369,310.157851 440.525078,310.17869 440.62298,310.199668 C 440.721434,310.220764 440.822106,310.242 440.924908,310.263317 C 445.96222,311.30786 456.114002,312.546468 461.08239,306.98188 " id="path852"/>
    <path style="fill:none;stroke:#000000;stroke-width:1px;stroke-linecap:butt;stroke-linejoin:miter;stroke-opacity:1" d="m 417.68066,268.70058  C 417.68066,268.70058 412.07257,253.58312 422.80109,247.7312 m 0,0 C 422.811819,247.725348 422.822547,247.71951 422.833274,247.713685 C 422.849348,247.704957 422.865421,247.696259 422.881492,247.687592 C 422.902888,247.676053 422.924281,247.664569 422.945671,247.653139 C 422.983029,247.633176 423.020378,247.613378 423.057717,247.593744 C 423.110872,247.565793 423.164008,247.538175 423.217124,247.510888 C 423.275259,247.481022 423.33337,247.451552 423.391456,247.422476 C 423.464978,247.385674 423.53846,247.349502 423.6119,247.313955 C 423.705662,247.268572 423.799356,247.224208 423.892977,247.180853 C 423.99091,247.135501 424.088764,247.091252 424.186534,247.048093 C 424.298666,246.998595 424.410688,246.950531 424.522593,246.903882 C 424.643328,246.853552 424.763927,246.80487 424.88438,246.757812 C 425.013305,246.707444 425.142063,246.658936 425.270644,246.612258 C 425.402434,246.564415 425.534038,246.518496 425.665443,246.474468 C 425.799876,246.429426 425.934101,246.386364 426.068106,246.345248 C 426.214391,246.300364 426.360414,246.257799 426.506158,246.217509 C 426.668157,246.172725 426.829812,246.130752 426.9911,246.091529 C 436.046243,243.889463 443.944411,250.356718 446.69642,254.80227 " id="path854"/>
    <path style="fill:none;stroke:#000000;stroke-width:1px;stroke-linecap:butt;stroke-linejoin:miter;stroke-opacity:1" d="m 375.98574,268.94441  C 375.987691,268.942459 375.989641,268.940497 375.991591,268.938524 C 375.994513,268.935567 375.997435,268.932585 376.000356,268.929578 C 376.004245,268.925575 376.008133,268.921528 376.01202,268.917437 C 376.017838,268.911312 376.023654,268.905088 376.029467,268.898766 C 376.039126,268.888261 376.048776,268.877485 376.058416,268.866441 C 376.068967,268.854354 376.079507,268.841946 376.090033,268.829222 C 376.102404,268.814267 376.114756,268.798876 376.127085,268.783056 C 376.140276,268.76613 376.153442,268.748712 376.166578,268.730812 C 376.180554,268.711768 376.194496,268.692178 376.2084,268.672053 C 376.223119,268.650747 376.237795,268.628842 376.252422,268.60635 C 376.269653,268.579854 376.286816,268.552544 376.303901,268.524441 C 376.327059,268.48635 376.350074,268.446802 376.372924,268.405849 C 376.396344,268.363874 376.41959,268.320423 376.442637,268.275552 C 376.469583,268.22309 376.496256,268.168688 376.522616,268.112436 C 376.550175,268.053624 376.577392,267.99279 376.604221,267.930037 C 376.63137,267.866537 376.658121,267.801072 376.684426,267.733749 C 376.711009,267.665714 376.737137,267.595781 376.762761,267.524061 C 376.789322,267.449719 376.815341,267.373456 376.840762,267.295396 C 376.866357,267.216804 376.891346,267.136389 376.915674,267.054277 C 378.138939,262.925537 377.689963,254.506334 368.42702,257.72823 m 0,0 C 368.415804,257.732131 368.404603,257.736038 368.393418,257.739951 C 368.376657,257.745815 368.359931,257.751692 368.34324,257.757582 C 368.315464,257.767384 368.287785,257.777222 368.260202,257.787096 C 368.227185,257.798915 368.194307,257.810785 368.161567,257.822706 C 368.123485,257.836572 368.085589,257.850508 368.047879,257.864512 C 368.004933,257.880461 367.962228,257.896499 367.919763,257.912625 C 367.866894,257.932701 367.814398,257.952914 367.762272,257.973261 C 367.70522,257.995531 367.648612,258.017962 367.592446,258.040552 C 367.526433,258.067103 367.46103,258.093874 367.396232,258.12086 C 367.316999,258.153858 367.238672,258.187179 367.161244,258.220816 C 367.074834,258.258355 366.989543,258.296287 366.905361,258.334603 C 366.817302,258.374684 366.730456,258.415185 366.644812,258.456096 C 366.546588,258.503017 366.449945,258.550476 366.354865,258.598458 C 366.23946,258.656697 366.126359,258.715705 366.01553,258.775454 C 365.877852,258.849677 365.743681,258.925043 365.612957,259.001496 C 365.480676,259.078859 365.351925,259.157335 365.226642,259.236866 C 365.093001,259.321703 364.963306,259.40774 364.837482,259.494907 C 358.341004,263.99547 362.164862,271.508285 365.98872,272.35803 " id="path856"/>
    <path style="fill:none;stroke:#000000;stroke-width:1px;stroke-linecap:butt;stroke-linejoin:miter;stroke-opacity:1" d="m 370.13383,270.16356  C 370.13383,270.16356 363.55042,264.31164 368.18319,262.11717 m 0,0 C 368.187823,262.114976 368.192452,262.112789 368.197077,262.11061 C 368.204008,262.107344 368.21093,262.104095 368.217843,262.100863 C 368.231648,262.094409 368.245418,262.088022 368.259154,262.081702 C 368.277413,262.073301 368.295611,262.065019 368.313747,262.056855 C 368.336327,262.046691 368.358812,262.03671 368.381202,262.02691 C 368.405708,262.016184 368.4301,262.005676 368.454379,261.995384 C 368.48072,261.984218 368.506928,261.973306 368.533003,261.962646 C 368.563241,261.950284 368.593301,261.93826 368.623184,261.926572 C 368.661336,261.911649 368.699199,261.897273 368.736774,261.883436 C 368.77608,261.868962 368.815071,261.855078 368.85375,261.841777 C 368.898111,261.826522 368.942061,261.812033 368.985603,261.798297 C 369.032581,261.783477 369.079084,261.769535 369.125116,261.756454 C 369.174385,261.742453 369.223115,261.72944 369.27131,261.717395 C 369.320708,261.70505 369.369544,261.693722 369.417823,261.683392 C 369.472506,261.671691 369.526475,261.66127 369.579737,261.652098 C 369.633865,261.642777 369.687263,261.634747 369.739938,261.627977 C 369.79501,261.620899 369.849292,261.615198 369.902794,261.610839 C 369.956933,261.606428 370.010272,261.603391 370.062821,261.601692 C 370.115925,261.599975 370.168222,261.599624 370.219722,261.600601 C 370.273104,261.601613 370.325629,261.604052 370.377307,261.607876 C 373.045545,261.805316 373.456901,265.69439 373.05978,267.48143 " id="path858"/>
    <path style="fill:none;stroke:#000000;stroke-width:1px;stroke-linecap:butt;stroke-linejoin:miter;stroke-opacity:1" d="m 465.71516,228.9563  C 465.71516,228.9563 459.37558,230.17545 461.08239,223.10438 m 0,0 C 461.084097,223.097309 461.085818,223.090222 461.087553,223.083118 C 461.090153,223.072473 461.092785,223.061792 461.095448,223.051074 C 461.09988,223.033238 461.1044,223.015301 461.109008,222.997264 C 461.116362,222.968477 461.12394,222.939435 461.13174,222.910141 C 461.141451,222.87367 461.151508,222.836808 461.161909,222.799562 C 461.173293,222.758796 461.185089,222.71757 461.197296,222.675891 C 461.211643,222.626905 461.226557,222.577294 461.242036,222.527071 C 461.258598,222.473336 461.275807,222.4189 461.29366,222.363778 C 461.312654,222.305132 461.332377,222.24571 461.352826,222.185531 C 461.374475,222.121821 461.396937,222.057262 461.420208,221.991876 C 461.446179,221.918906 461.473157,221.844906 461.501138,221.769907 C 461.530407,221.691454 461.560773,221.611909 461.592229,221.531306 C 461.626666,221.443065 461.662409,221.353557 461.69945,221.262828 C 461.737848,221.168776 461.77764,221.073412 461.818818,220.976788 C 461.861394,220.876883 461.905451,220.77563 461.950978,220.673087 C 462.003808,220.554095 462.058618,220.433365 462.115392,220.310987 C 462.175548,220.181318 462.237908,220.049799 462.302453,219.916535 C 462.368256,219.780675 462.43633,219.643002 462.506654,219.503629 C 462.578232,219.36177 462.652141,219.218149 462.728359,219.072885 C 462.813078,218.911419 462.90065,218.747923 462.991045,218.58256 C 468.066097,209.298601 482.039867,194.128729 499.60752,201.89118 m 0,0 C 499.628489,201.900446 499.649442,201.909707 499.670379,201.918963 C 499.712212,201.937457 499.75398,201.955933 499.795684,201.97439 C 499.86852,202.006626 499.941161,202.038806 500.013607,202.07093 C 500.096112,202.107515 500.178364,202.144028 500.260364,202.180471 C 500.362454,202.225842 500.464153,202.271103 500.565462,202.316256 C 500.676345,202.365676 500.786761,202.414967 500.896712,202.46413 C 501.015999,202.517468 501.134739,202.570656 501.252933,202.623697 C 501.389999,202.685207 501.526332,202.74652 501.661936,202.80764 C 501.835063,202.885672 502.007001,202.96339 502.177757,203.040802 C 502.356377,203.12178 502.533704,203.202423 502.709746,203.282743 C 502.911648,203.374862 503.11186,203.466555 503.310395,203.557839 C 503.524596,203.656326 503.736845,203.754336 503.947158,203.85189 C 504.172263,203.956305 504.39515,204.060197 504.615838,204.163591 C 504.842035,204.269566 505.065922,204.375018 505.287521,204.479973 C 505.530418,204.595015 505.770565,204.709461 506.007991,204.823345 C 506.249651,204.93926 506.488491,205.054593 506.724541,205.169382 C 506.964428,205.286037 507.201434,205.402129 507.435589,205.517697 C 507.680398,205.638524 507.92209,205.758778 508.160701,205.878504 C 508.402155,205.999656 508.640454,206.120267 508.875634,206.240383 C 509.139708,206.375257 509.39985,206.509507 509.656112,206.643198 C 522.212937,213.194051 525.45349,218.403298 525.45349,229.93162 m 0,0 C 525.45349,229.945762 525.453481,229.959911 525.453463,229.974067 C 525.453436,229.99528 525.453388,230.016509 525.45332,230.037754 C 525.453207,230.073109 525.453037,230.108508 525.452811,230.14395 C 525.45254,230.186374 525.452188,230.22886 525.451754,230.271407 C 525.451249,230.320896 525.450634,230.370467 525.449908,230.420119 C 525.448875,230.490802 525.447618,230.56165 525.446135,230.632658 C 525.444512,230.710376 525.442619,230.788286 525.440454,230.866382 C 525.43791,230.958169 525.434991,231.050214 525.431694,231.142507 C 525.428166,231.241254 525.424206,231.340286 525.41981,231.439591 C 525.415133,231.545245 525.409963,231.651209 525.404296,231.75747 C 525.398296,231.869965 525.391739,231.982793 525.384621,232.095939 C 525.376678,232.22221 525.368035,232.348877 525.358687,232.475918 C 525.348909,232.60881 525.338359,232.742112 525.32703,232.875799 C 525.314037,233.029124 525.30002,233.182956 525.284968,233.337258 C 525.269405,233.4968 525.252735,233.656845 525.234947,233.817352 C 525.216599,233.982911 525.197061,234.148962 525.17632,234.31546 C 525.154121,234.493668 525.130544,234.672389 525.105573,234.851567 C 525.079979,235.035218 525.052921,235.21935 525.024382,235.403904 C 524.995185,235.59271 524.964438,235.781957 524.932123,235.971583 C 524.896846,236.178587 524.8597,236.386042 524.820662,236.593867 C 524.778509,236.818271 524.73415,237.043105 524.687554,237.268267 C 524.640403,237.496111 524.590962,237.724291 524.539199,237.952699 C 524.481077,238.209169 524.420028,238.465927 524.356009,238.722822 C 521.219068,251.310691 510.95003,264.227585 488.39134,259.67887 m 0,0 C 488.376115,259.6758 488.360902,259.672721 488.345701,259.669633 C 488.322922,259.665006 488.30017,259.660359 488.277445,259.655692 C 488.24719,259.649478 488.216982,259.643229 488.186822,259.636944 C 488.111572,259.621264 488.036616,259.605363 487.961954,259.589245 C 487.880236,259.571604 487.798869,259.553702 487.717852,259.535542 C 487.622632,259.514198 487.527895,259.492498 487.433639,259.470447 C 487.303979,259.440114 487.17523,259.409117 487.047385,259.37747 C 486.913652,259.344365 486.780909,259.310549 486.649149,259.276037 C 486.511772,259.240054 486.375463,259.203314 486.240216,259.165835 C 486.099626,259.126876 485.960183,259.087118 485.821878,259.046581 C 485.665474,259.00074 485.510526,258.953903 485.35702,258.906098 C 485.186399,258.852963 485.01756,258.798633 484.850486,258.743147 C 484.642937,258.674218 484.438113,258.603505 484.235981,258.531083 C 484.031441,258.457799 483.829657,258.382765 483.630596,258.306058 C 483.423843,258.226387 483.220026,258.144912 483.019109,258.061721 C 482.805919,257.973448 482.595993,257.883242 482.389286,257.791208 C 472.26065,253.281525 469.86027,244.381072 469.86027,243.34227 " id="path860" sodipodi:nodetypes="cssssc"/>
    <path style="fill:none;stroke:#000000;stroke-width:1px;stroke-linecap:butt;stroke-linejoin:miter;stroke-opacity:1" d="m 477.41379,241.37931  C 477.41379,241.37931 471.55172,212.24138 486.89655,208.10345 m 0,0 C 486.911895,208.099312 486.927247,208.09519 486.942606,208.091083 C 486.965621,208.084929 486.988651,208.07881 487.011697,208.072725 C 487.042378,208.064624 487.073086,208.056585 487.103821,208.048608 C 487.1575,208.034676 487.211261,208.020931 487.265102,208.007374 C 487.326419,207.991934 487.387841,207.976738 487.449365,207.961784 C 487.533622,207.941305 487.61807,207.921281 487.702704,207.90171 C 487.840434,207.869862 487.978656,207.839215 488.117346,207.809763 C 488.262424,207.778954 488.408014,207.749453 488.554088,207.721252 C 488.70639,207.691848 488.859218,207.663858 489.012542,207.637273 C 489.179511,207.608322 489.347068,207.581038 489.515172,207.555409 C 489.711655,207.525454 489.908885,207.497761 490.106799,207.472313 C 490.309653,207.44623 490.513224,207.422506 490.717443,207.401122 C 490.933829,207.378465 491.150942,207.358435 491.368701,207.341011 C 491.620302,207.32088 491.872764,207.304228 492.12596,207.291021 C 492.382172,207.277657 492.639136,207.267821 492.89672,207.261479 C 493.171488,207.254714 493.446961,207.251924 493.722979,207.253067 C 494.008004,207.254248 494.29361,207.259623 494.579621,207.269146 C 508.594136,207.735757 523.580323,218.161531 518.7931,233.10345 " id="path862"/>
    <path style="fill:none;stroke:#000000;stroke-width:1px;stroke-linecap:butt;stroke-linejoin:miter;stroke-opacity:1" d="m 414.82759,205.86207  C 414.82759,205.86207 432.41379,208.62069 426.89655,216.2069 m 0,0 C 426.888274,216.218279 426.879989,216.229626 426.871695,216.24094 C 426.844088,216.278597 426.816379,216.315894 426.788569,216.352833 C 426.758131,216.393263 426.727573,216.433264 426.696897,216.472839 C 426.660842,216.519352 426.624624,216.565276 426.588248,216.610616 C 426.538208,216.672987 426.487867,216.734253 426.437236,216.794426 C 426.384273,216.857371 426.330993,216.91912 426.277408,216.979687 C 426.218745,217.045994 426.159717,217.110885 426.100339,217.174378 C 426.033191,217.246179 425.965596,217.316193 425.897577,217.384446 C 425.824774,217.457499 425.751485,217.528535 425.677739,217.597586 C 425.602153,217.668361 425.526087,217.737051 425.449571,217.803691 C 425.365701,217.876736 425.281291,217.947318 425.196381,218.015483 C 425.101594,218.091578 425.006184,218.164662 424.910208,218.234798 C 424.813088,218.30577 424.715388,218.373724 424.617167,218.438726 C 424.51515,218.50624 424.41257,218.57057 424.309493,218.631791 C 424.20012,218.696752 424.090187,218.758212 423.979771,218.816261 C 418.569411,221.660664 412.001276,216.314568 413.44828,213.27586 " id="path864"/>
    <path style="fill:none;stroke:#000000;stroke-width:1px;stroke-linecap:butt;stroke-linejoin:miter;stroke-opacity:1" d="m 396.22363,50.716624  C 396.22363,50.716624 420.36279,45.596196 436.45557,49.253645 " id="path866"/>
    <path style="fill:none;stroke:#000000;stroke-width:1px;stroke-linecap:butt;stroke-linejoin:miter;stroke-opacity:1" d="m 397.44278,72.661318  C 397.44278,72.661318 385.25128,63.88344 368.18319,66.32174 m 0,0 C 368.166122,66.324178 368.149058,66.326626 368.131998,66.329083 C 368.106433,66.332765 368.080877,66.336467 368.05533,66.34019 C 368.012815,66.346386 367.970324,66.352639 367.927858,66.358949 C 367.877026,66.366502 367.826229,66.374137 367.775467,66.381854 C 367.716423,66.39083 367.657426,66.399916 367.598477,66.409111 C 367.514559,66.422201 367.430739,66.435513 367.347017,66.449045 C 367.255383,66.463855 367.163866,66.478929 367.072467,66.494263 C 366.956781,66.513672 366.841285,66.533499 366.725981,66.553738 C 366.603306,66.575271 366.480848,66.597271 366.358609,66.619732 C 366.229199,66.643511 366.100035,66.667806 365.97112,66.69261 C 365.819258,66.721829 365.667742,66.751753 365.516577,66.782371 C 365.311684,66.823872 365.107436,66.866647 364.903844,66.910666 C 364.69517,66.955784 364.487186,67.002209 364.279905,67.049907 C 364.067849,67.098704 363.856529,67.148835 363.645959,67.200264 C 363.423506,67.254595 363.20189,67.310375 362.981128,67.367562 C 362.734684,67.431402 362.489304,67.496996 362.245011,67.564286 C 361.997808,67.632377 361.751718,67.702205 361.506765,67.77371 C 361.24547,67.849985 360.985469,67.928169 360.726792,68.008188 C 360.459674,68.090818 360.193967,68.175406 359.929703,68.261871 C 346.980754,72.498679 337.496951,81.24344 335.26615,85.096644 m 0,0 C 335.263468,85.101277 335.260791,85.10592 335.258119,85.110574 C 335.254115,85.117548 335.250123,85.124546 335.246142,85.131568 C 335.236867,85.147929 335.227654,85.16442 335.218503,85.18104 C 335.208081,85.199968 335.197739,85.219063 335.187477,85.238324 C 335.1747,85.262304 335.162046,85.286542 335.149514,85.311034 C 335.135798,85.337841 335.122228,85.364953 335.108802,85.392366 C 335.093022,85.424585 335.077442,85.457221 335.062059,85.490267 C 335.040897,85.535726 335.020108,85.581962 334.999684,85.628959 C 334.97832,85.678121 334.957356,85.728116 334.936784,85.778927 C 334.914263,85.834553 334.892212,85.891156 334.870622,85.948714 C 334.848241,86.00838 334.826355,86.069072 334.804952,86.130765 C 334.782822,86.194552 334.761209,86.259409 334.7401,86.325308 C 334.716512,86.398945 334.693554,86.473883 334.671209,86.550082 C 334.648306,86.628183 334.626046,86.707609 334.604411,86.788318 C 334.581487,86.873835 334.559264,86.960792 334.53772,87.049138 C 334.514292,87.14521 334.491668,87.242925 334.469818,87.342219 C 334.446974,87.446031 334.424977,87.551568 334.403794,87.658756 C 334.382358,87.767221 334.361756,87.877377 334.341953,87.989147 C 334.321941,88.102099 334.302746,88.216699 334.284332,88.332869 C 334.264241,88.459623 334.24508,88.588246 334.226805,88.718634 C 333.33132,95.10765 334.561626,105.735673 332.58402,108.50432 " id="path868"/>
    <path style="fill:none;stroke:#000000;stroke-width:1px;stroke-linecap:butt;stroke-linejoin:miter;stroke-opacity:1" d="m 343.31253,109.23581  C 343.31253,109.23581 372.57213,107.529 386.47043,86.559623 " id="path870"/>
    <path style="fill:none;stroke:#000000;stroke-width:1px;stroke-linecap:butt;stroke-linejoin:miter;stroke-opacity:1" d="m 384.76362,66.809399  C 384.76362,66.809399 388.17724,78.513236 375.25425,87.291113 m 0,0 C 375.241327,87.299891 375.228394,87.30867 375.215452,87.317449 C 375.196058,87.330605 375.176642,87.343762 375.157204,87.356921 C 375.131326,87.37444 375.105409,87.391962 375.079454,87.409486 C 375.040599,87.43572 375.001658,87.46196 374.962632,87.488205 C 374.910753,87.523093 374.858724,87.557991 374.806546,87.592897 C 374.741585,87.636355 374.676393,87.679825 374.610973,87.723306 C 374.539371,87.770896 374.467497,87.818498 374.395355,87.86611 C 374.304042,87.926374 374.2123,87.986653 374.120137,88.046941 C 374.015545,88.11536 373.910411,88.183791 373.804747,88.252225 C 373.680275,88.33284 373.555069,88.41346 373.429149,88.494071 C 373.291296,88.582321 373.152587,88.670559 373.01305,88.758767 C 372.868403,88.850205 372.722866,88.941611 372.576469,89.032964 C 372.425102,89.127419 372.272815,89.221817 372.119643,89.316136 C 371.9419,89.425585 371.762964,89.534926 371.582888,89.644124 C 371.392084,89.759828 371.2,89.875371 371.006698,89.99071 C 370.80963,90.108297 370.611297,90.225672 370.411764,90.342791 C 370.208673,90.461998 370.004339,90.580939 369.798832,90.699567 C 369.570404,90.831426 369.340527,90.962897 369.109296,91.093915 C 368.869129,91.229996 368.627502,91.365589 368.384522,91.50062 C 368.139592,91.636735 367.893287,91.772279 367.645716,91.907177 C 367.396458,92.042994 367.145917,92.178156 366.894206,92.312586 C 354.237655,99.072019 338.621804,103.981463 334.29083,97.28814 " id="path872"/>
    <path style="fill:none;stroke:#000000;stroke-width:1px;stroke-linecap:butt;stroke-linejoin:miter;stroke-opacity:1" d="m 312.1023,136.30093  C 312.1023,136.30093 324.04997,126.3039 321.61167,141.42136 m 0,0 C 319.17337,156.53881 315.51592,153.85668 310.39549,148.24859 " id="path874"/>
    <path style="fill:none;stroke:#000000;stroke-width:1px;stroke-linecap:butt;stroke-linejoin:miter;stroke-opacity:1" d="m 371.84064,131.42433  C 371.84064,131.42433 376.4734,155.80732 388.42107,145.07881 m 0,0 C 400.36874,134.35029 390.85937,128.98603 379.64319,123.8656 " id="path876"/>
    <path style="fill:none;stroke:#000000;stroke-width:1px;stroke-linecap:butt;stroke-linejoin:miter;stroke-opacity:1" d="m 347.45764,191.65032  C 347.45764,191.65032 327.95125,183.3601 322.58699,200.67203 m 0,0 C 317.22273,217.98395 337.46062,223.83587 347.9453,220.90991 " id="path878"/>
    <path style="fill:none;stroke:#000000;stroke-width:1px;stroke-linecap:butt;stroke-linejoin:miter;stroke-opacity:1" d="m 355.99169,204.81714  C 355.99169,204.81714 345.507,187.01755 331.12104,197.01458 m 0,0 C 316.73507,207.01161 336.4853,223.34821 345.75083,216.27714 m 0,0 C 355.01637,209.20608 352.8219,206.52395 350.87126,204.81714 " id="path880"/>
    <path style="fill:none;stroke:#000000;stroke-width:1px;stroke-linecap:butt;stroke-linejoin:miter;stroke-opacity:1" d="m 514.23731,78.269406  C 510.82369,78.269406 500.82667,84.121324 508.62922,96.31282 m 0,0 C 516.43178,108.50432 528.86711,104.35921 531.06158,97.53197 " id="path882"/>
    <path style="fill:none;stroke:#000000;stroke-width:1px;stroke-linecap:butt;stroke-linejoin:miter;stroke-opacity:1" d="m 515.70029,83.877494  C 515.70029,83.877494 508.87305,93.386861 518.87008,90.704732 " id="path884"/>
    <path style="fill:none;stroke:#000000;stroke-width:1px;stroke-linecap:butt;stroke-linejoin:miter;stroke-opacity:1" d="m 453.52366,67.297059  C 453.52366,67.297059 476.19984,68.760039 464.25218,79.976215 m 0,0 C 452.30451,91.192392 445.47727,76.074937 447.42791,71.442168 " id="path886"/>
    <path style="fill:none;stroke:#000000;stroke-width:1px;stroke-linecap:butt;stroke-linejoin:miter;stroke-opacity:1" d="m 434.01727,143.85966  C 437.18706,138.4954 469.86026,128.7422 478.15048,153.12519 " id="path888"/>
    <path style="fill:none;stroke:#000000;stroke-width:1px;stroke-linecap:butt;stroke-linejoin:miter;stroke-opacity:1" d="m 431.09131,159.22094  C 431.33514,161.41541 434.01727,191.40649 465.71516,178.97116 " id="path890"/>
    <path style="fill:none;stroke:#000000;stroke-width:1px;stroke-linecap:butt;stroke-linejoin:miter;stroke-opacity:1" d="m 454.01132,158.24562  C 454.01132,158.24562 463.52069,146.78561 466.93431,151.66221 m 0,0 C 470.34792,156.53881 469.61644,162.63456 463.76452,164.09754 " id="path892"/>
    <path style="fill:none;stroke:#000000;stroke-width:1px;stroke-linecap:butt;stroke-linejoin:miter;stroke-opacity:1" d="m 508.14156,158.97711  C 508.14156,158.97711 505.45943,182.38478 520.82072,180.43414 " id="path894"/>
  </g>
</svg>