<svg xmlns:dc="http://purl.org/dc/elements/1.1/" xmlns:cc="http://creativecommons.org/ns#" xmlns:rdf="http://www.w3.org/1999/02/22-rdf-syntax-ns#" xmlns:svg="http://www.w3.org/2000/svg" xmlns="http://www.w3.org/2000/svg" xmlns:sodipodi="http://sodipodi.sourceforge.net/DTD/sodipodi-0.dtd" xmlns:inkscape="http://www.inkscape.org/namespaces/inkscape" width="38.843727mm" height="35.166553mm" viewBox="0 0 38.843727 35.166553" version="1.1" id="svg8" inkscape:version="1.0.2 (e86c870879, 2021-01-15, custom)" sodipodi:docname="рисунок.svg">
  <defs id="defs2"/>
  <sodipodi:namedview id="base" pagecolor="#ffffff" bordercolor="#666666" borderopacity="1.0" inkscape:pageopacity="0.0" inkscape:pageshadow="2" inkscape:zoom="3.959798" inkscape:cx="114.27845" inkscape:cy="112.05819" inkscape:document-units="mm" inkscape:current-layer="layer1" inkscape:document-rotation="0" showgrid="false" fit-margin-top="0" fit-margin-left="0" fit-margin-right="0" fit-margin-bottom="0" inkscape:window-width="1500" inkscape:window-height="1061" inkscape:window-x="270" inkscape:window-y="0" inkscape:window-maximized="0"/>
  <metadata id="metadata5">
    <rdf:RDF>
      <cc:Work rdf:about="">
        <dc:format>image/svg+xml</dc:format>
        <dc:type rdf:resource="http://purl.org/dc/dcmitype/StillImage"/>
        <dc:title/>
      </cc:Work>
    </rdf:RDF>
  </metadata>
  <g inkscape:label="Слой 1" inkscape:groupmode="layer" id="layer1" transform="translate(-5.3225629,-8.7364018)">
    <path style="fill:none;stroke:#000000;stroke-width:0.264583px;stroke-linecap:butt;stroke-linejoin:miter;stroke-opacity:1" d="m 8.6934523,43.845239  C 8.69345,43.84524 8.69328,43.84489 8.69294,43.84419 C 8.69225,43.84276 8.69085,43.83986 8.68877,43.83552 C 8.68593,43.8296 8.68181,43.82099 8.67647,43.80976 C 8.66942,43.79494 8.66025,43.77556 8.64907,43.75176 C 8.63579,43.72347 8.61968,43.68893 8.60095,43.64839 C 8.57932,43.60158 8.5542,43.54677 8.52591,43.48433 C 8.49468,43.41541 8.45959,43.33719 8.42107,43.25018 C 8.37995,43.1573 8.33492,43.05441 8.28652,42.94211 C 8.23537,42.82345 8.18045,42.69429 8.12239,42.55536 C 8.05992,42.40589 7.99381,42.24511 7.92483,42.07391 C 7.85481,41.90011 7.78183,41.71558 7.70671,41.52126 C 7.63512,41.33608 7.56159,41.14201 7.48681,40.93987 C 7.41235,40.73859 7.33666,40.52931 7.26043,40.31283 C 7.18913,40.11036 7.11736,39.9016 7.04569,39.6872 C 6.9755,39.47723 6.9054,39.26185 6.83593,39.04168 C 6.17027,36.93202 5.56212,34.38284 5.48065,31.93899 m 0,0 C 5.47942,31.90214 5.47823,31.86514 5.47708,31.828 C 5.47489,31.75705 5.47285,31.68558 5.47096,31.61361 C 5.46783,31.49421 5.46512,31.37344 5.46287,31.25137 C 5.45998,31.09487 5.45784,30.93624 5.45651,30.77564 C 5.45479,30.56834 5.45442,30.35775 5.45552,30.14422 C 5.45675,29.90466 5.45983,29.66139 5.46495,29.41491 C 5.47094,29.12615 5.47972,28.83297 5.49158,28.53616 C 5.50423,28.21961 5.52038,27.89892 5.54039,27.57505 C 5.561,27.24146 5.58569,26.90449 5.61485,26.56518 C 5.64471,26.21781 5.67925,25.86798 5.71889,25.51681 C 5.75838,25.16689 5.80293,24.81564 5.85295,24.46416 C 5.90446,24.10219 5.96177,23.73998 6.02532,23.37872 C 6.09019,23.00996 6.16157,22.64219 6.23992,22.2767 C 6.31595,21.92203 6.39855,21.5695 6.48815,21.22028 C 6.57289,20.89001 6.66389,20.5627 6.76152,20.23934 C 7.59817,17.4683 8.92148,14.98725 10.961309,13.418155 m 0,0 C 10.99325,13.39359 11.02516,13.36913 11.05704,13.34477 C 11.12769,13.29078 11.19819,13.2373 11.26855,13.18433 C 11.37854,13.10152 11.4882,13.01995 11.59759,12.93962 C 11.74861,12.82872 11.89911,12.72018 12.04925,12.61399 C 12.22133,12.49228 12.39293,12.37366 12.56428,12.2581 C 12.76113,12.12535 12.95766,11.99664 13.15421,11.87196 C 13.36822,11.7362 13.58226,11.60521 13.79678,11.47895 C 14.02133,11.34679 14.2464,11.21982 14.47252,11.09799 C 14.7094,10.97037 14.94742,10.8484 15.18719,10.73203 C 15.43583,10.61135 15.68635,10.4967 15.93941,10.38803 C 16.20231,10.27514 16.46795,10.1687 16.73707,10.06866 C 17.01406,9.96569 17.29475,9.8695 17.57994,9.78002 C 17.85701,9.69309 18.13833,9.6125 18.42465,9.53819 C 18.70397,9.4657 18.98804,9.39919 19.27756,9.33861 C 19.55364,9.28085 19.83468,9.22848 20.12127,9.18146 C 22.45192,8.79903 25.14975,8.77032 28.537201,9.0714284 m 0,0 C 28.60098,9.0771 28.66439,9.08304 28.72743,9.08924 C 28.84422,9.10074 28.95973,9.11315 29.07399,9.12646 C 29.25103,9.14708 29.42506,9.16986 29.59615,9.19475 C 29.81291,9.22628 30.02496,9.26119 30.23245,9.29937 C 30.47293,9.34362 30.70729,9.39227 30.93576,9.44514 C 31.19866,9.50597 31.45376,9.57239 31.70143,9.64413 C 31.95374,9.71722 32.19833,9.79583 32.43559,9.87969 C 32.69697,9.97208 32.94946,10.07084 33.19356,10.1756 C 33.44902,10.28523 33.69529,10.40143 33.93297,10.52378 C 34.18244,10.65219 34.42244,10.78738 34.65364,10.92884 C 34.90317,11.08152 35.14246,11.24151 35.37236,11.4082 C 35.60476,11.57669 35.82756,11.75203 36.04165,11.93357 C 36.25793,12.11696 36.46532,12.30669 36.66473,12.50209 C 36.8621,12.69549 37.05166,12.89445 37.23428,13.09833 C 37.41373,13.29868 37.58648,13.50378 37.75337,13.71302 C 39.32489,15.6834 40.37646,18.02141 41.60587,20.22173 m 0,0 C 43.55144,23.70381 44.03422,31.93899 44.03422,31.93899 " id="path833" sodipodi:nodetypes="cssssc"/>
   <!-- <path
       style="fill:none;stroke:red;stroke-width:0.264583px;stroke-linecap:butt;stroke-linejoin:miter;stroke-opacity:1"
       d="m 8.6934523,43.845239 C 8.6934523,43.845239 5.669642700000001,37.608631 5.4806548,31.938989 C 5.2916666,26.269345 6.047619,17.197916 10.961309,13.418155 C 15.875,9.6383926 20.032738,8.315476 28.537201,9.0714284 C 37.041666,9.8273808 38.889765,15.360591 41.605871,20.221726 C 43.551445,23.703805 44.034225,31.938989 44.034225,31.938989"
       id="path833"
       sodipodi:nodetypes="cssssc" />-->

  </g>
</svg>