<svg xmlns:dc="http://purl.org/dc/elements/1.1/" xmlns:cc="http://creativecommons.org/ns#" xmlns:rdf="http://www.w3.org/1999/02/22-rdf-syntax-ns#" xmlns:svg="http://www.w3.org/2000/svg" xmlns="http://www.w3.org/2000/svg" xmlns:sodipodi="http://sodipodi.sourceforge.net/DTD/sodipodi-0.dtd" xmlns:inkscape="http://www.inkscape.org/namespaces/inkscape" version="1.1" id="svg978" width="571.51312" height="571.38147" viewBox="0 0 571.51312 571.38147" sodipodi:docname="exp_axe.svg" inkscape:version="1.0.2 (e86c870879, 2021-01-15, custom)">
  <metadata id="metadata984">
    <rdf:RDF>
      <cc:Work rdf:about="">
        <dc:format>image/svg+xml</dc:format>
        <dc:type rdf:resource="http://purl.org/dc/dcmitype/StillImage"/>
        <dc:title/>
      </cc:Work>
    </rdf:RDF>
  </metadata>
  <defs id="defs982"/>
  <sodipodi:namedview pagecolor="#ffffff" bordercolor="#666666" borderopacity="1" objecttolerance="10" gridtolerance="10" guidetolerance="10" inkscape:pageopacity="0" inkscape:pageshadow="2" inkscape:window-width="1849" inkscape:window-height="1057" id="namedview980" showgrid="false" inkscape:zoom="1.0488751" inkscape:cx="203.03468" inkscape:cy="173.72894" inkscape:window-x="63" inkscape:window-y="-8" inkscape:window-maximized="1" inkscape:current-layer="layer2" fit-margin-top="0" fit-margin-left="0" fit-margin-right="0" fit-margin-bottom="0"/>
  <g inkscape:groupmode="layer" id="layer2" inkscape:label="vector" transform="translate(-18.088501,-14.039387)">
    <path style="fill:none;stroke:#000000;stroke-width:1px;stroke-linecap:butt;stroke-linejoin:miter;stroke-opacity:1" d="m 371.23106,58.515072  C 371.23106,58.51507 371.23116,58.51492 371.23136,58.51463 C 371.23176,58.51405 371.23256,58.51288 371.23376,58.51113 C 371.23585,58.50809 371.23915,58.50329 371.24365,58.49676 C 371.24875,58.48935 371.25539,58.4797 371.26354,58.46786 C 371.27365,58.45318 371.28609,58.43512 371.30081,58.41375 C 371.31684,58.39047 371.33558,58.36327 371.35697,58.33222 C 371.38004,58.29872 371.4062,58.26075 371.43537,58.21842 C 371.46899,58.16962 371.50661,58.11502 371.54812,58.05479 C 371.60074,57.97843 371.65961,57.89302 371.72451,57.79889 C 371.79178,57.70132 371.86552,57.59438 371.94548,57.47844 C 372.03631,57.34674 372.13516,57.20343 372.24167,57.04906 C 372.3553,56.88437 372.47765,56.70708 372.60826,56.51787 C 372.74636,56.31781 372.8937,56.10442 373.04975,55.87848 C 373.20759,55.64995 373.37434,55.40858 373.54945,55.15519 C 373.73876,54.88125 373.93785,54.59325 374.14601,54.29222 C 374.35466,53.99049 374.57243,53.67567 374.79862,53.3488 C 375.02487,53.02185 375.25955,52.68284 375.50196,52.3328 C 375.75127,51.97278 376.00876,51.6011 376.27366,51.21889 C 376.53708,50.83881 376.80783,50.44831 377.08516,50.0485 C 377.39102,49.60757 377.70489,49.15531 378.02576,48.69321 C 385.72662,37.60285 397.46103,20.84427 399.35643,18.94887 m 0,0 C 399.36215,18.94315 399.36786,18.93743 399.37356,18.93172 C 399.38209,18.92317 399.39059,18.91463 399.39907,18.90611 C 399.41316,18.89195 399.42718,18.87782 399.44113,18.86372 C 399.45778,18.84689 399.47433,18.8301 399.49079,18.81336 C 399.50987,18.79394 399.52882,18.77459 399.54764,18.7553 C 399.57434,18.72794 399.60078,18.7007 399.62696,18.67359 C 399.65547,18.64406 399.68367,18.61468 399.71157,18.58545 C 399.74418,18.55129 399.77638,18.51733 399.80818,18.48358 C 399.84198,18.4477 399.87532,18.41206 399.90822,18.37665 C 399.94297,18.33924 399.97723,18.30209 400.01101,18.2652 C 400.0465,18.22644 400.08145,18.18797 400.11589,18.14978 C 400.15401,18.10751 400.19149,18.06559 400.22836,18.02402 C 400.26658,17.98093 400.30414,17.93822 400.34106,17.89589 C 400.38299,17.84781 400.4241,17.80022 400.46442,17.75312 C 400.50564,17.70497 400.54604,17.65733 400.58564,17.61021 C 400.62601,17.56217 400.66556,17.51467 400.70432,17.46771 C 400.7453,17.41805 400.7854,17.369 400.82467,17.32055 C 400.86439,17.27155 400.90325,17.22316 400.9413,17.1754 C 400.97969,17.1272 401.01726,17.07964 401.05405,17.03271 C 401.09364,16.98221 401.13233,16.93244 401.17017,16.88341 C 401.21039,16.8313 401.24966,16.78003 401.28804,16.72959 C 401.32621,16.67944 401.3635,16.63011 401.39998,16.58161 C 401.44022,16.52813 401.47947,16.47566 401.51783,16.4242 C 402.43858,15.18923 402.8465,14.53938 404.00427,14.53938 m 0,0 C 404.00785,14.53938 404.01153,14.53946 404.01532,14.53962 C 404.02099,14.53987 404.0269,14.5403 404.03305,14.54091 C 404.04123,14.54173 404.04983,14.54287 404.05884,14.54433 C 404.08128,14.54797 404.10631,14.5536 404.13388,14.56118 C 404.16391,14.56944 404.19695,14.58002 404.23294,14.59287 C 404.275,14.60789 404.32109,14.62601 404.3711,14.64716 C 404.43945,14.67606 404.51512,14.71061 404.59786,14.75062 C 404.68363,14.7921 404.77699,14.83944 404.87766,14.89244 C 404.98161,14.94717 405.09335,15.00792 405.21256,15.07446 C 405.33523,15.14293 405.4658,15.21754 405.60393,15.29802 C 405.75848,15.38807 405.9225,15.48547 406.09549,15.58986 C 406.28544,15.70448 406.48621,15.82753 406.69715,15.95853 C 406.95561,16.11904 407.22935,16.29149 407.51718,16.475 C 407.8034,16.65748 408.10355,16.85089 408.41646,17.05438 C 408.73568,17.26196 409.06818,17.48002 409.41272,17.70765 C 409.77142,17.94463 410.14317,18.19197 410.52657,18.44864 C 419.72819,24.60872 435.642,36.142 438.92263,38.73197 m 0,0 C 438.93169,38.73912 438.94082,38.74632 438.95002,38.75358 C 438.9638,38.76444 438.97774,38.77542 438.99185,38.78651 C 439.0106,38.80126 439.02964,38.81621 439.04896,38.83137 C 439.08264,38.85779 439.11719,38.88483 439.1526,38.91248 C 439.19278,38.94386 439.23407,38.97603 439.27645,39.00897 C 439.33425,39.0539 439.39407,39.10027 439.45587,39.14805 C 439.55589,39.22537 439.6611,39.30638 439.77133,39.39095 C 439.88558,39.47861 440.00522,39.57008 440.13005,39.66522 C 440.25895,39.76346 440.39338,39.86561 440.53313,39.9715 C 440.68378,40.08565 440.8406,40.20415 441.00332,40.32678 C 441.1914,40.46852 441.38737,40.61579 441.5908,40.76826 C 441.79656,40.92248 442.00996,41.08202 442.23056,41.24655 C 442.4611,41.4185 442.6995,41.5959 442.94527,41.77836 C 443.22505,41.98608 443.51438,42.20036 443.81252,42.42065 C 444.109,42.6397 444.41419,42.86469 444.72737,43.09506 C 445.05549,43.33642 445.39238,43.58369 445.73722,43.83623 C 446.08641,44.09196 446.44375,44.35309 446.80837,44.61897 C 455.55915,50.99999 468.50379,60.11221 473.72182,62.80538 m 0,0 C 473.74399,62.81682 473.76636,62.82838 473.78893,62.84007 C 473.86395,62.87891 473.94121,62.9191 474.02066,62.96062 C 474.10718,63.00584 474.19631,63.05263 474.28799,63.10096 C 474.3869,63.1531 474.48878,63.20703 474.59356,63.26271 C 474.71434,63.32689 474.83897,63.39339 474.96735,63.46214 C 475.1301,63.5493 475.29887,63.64008 475.47345,63.73435 C 475.65442,63.83206 475.84163,63.93352 476.03485,64.03857 C 476.25433,64.15789 476.48156,64.28184 476.71619,64.4102 C 476.96652,64.54715 477.22528,64.68912 477.49205,64.83584 C 477.77411,64.99097 478.06512,65.1514 478.36458,65.31682 C 478.66748,65.48413 478.97902,65.65654 479.29869,65.83371 C 479.65581,66.03164 480.02308,66.23552 480.39978,66.44488 C 480.77658,66.65429 481.16281,66.86919 481.55775,67.0891 C 481.96395,67.31528 482.37937,67.54677 482.80322,67.78307 C 483.2247,68.01804 483.65452,68.25776 484.09191,68.50174 C 484.53811,68.75063 484.99219,69.00395 485.45333,69.26116 C 497.45543,75.95569 514.24014,85.29023 521.39194,87.95137 m 0,0 C 521.41244,87.959 521.43296,87.96665 521.45351,87.97432 C 521.48428,87.9858 521.51511,87.99733 521.54599,88.00891 C 521.59731,88.02815 521.64879,88.04753 521.70044,88.06704 C 521.76211,88.09034 521.82401,88.11383 521.88614,88.13751 C 521.95819,88.16497 522.03055,88.19268 522.10321,88.22064 C 522.20629,88.2603 522.30998,88.30046 522.41428,88.34112 C 522.52786,88.3854 522.64216,88.43026 522.75717,88.4757 C 522.89159,88.52881 523.02698,88.5827 523.16332,88.63736 C 523.32894,88.70376 523.49596,88.77129 523.66434,88.83991 C 523.85074,88.91588 524.03881,88.99319 524.2285,89.0718 C 524.42513,89.15328 524.62351,89.23616 524.82358,89.32039 C 525.03018,89.40737 525.23858,89.49578 525.44873,89.58558 C 525.69587,89.69118 525.94543,89.79869 526.19732,89.90803 C 526.46365,90.02363 526.73259,90.14127 527.00402,90.26084 C 527.27856,90.38178 527.55565,90.5047 527.83518,90.62949 C 528.11723,90.75541 528.40177,90.88323 528.68867,91.01284 C 528.98746,91.14782 529.28882,91.28474 529.59261,91.42347 C 529.90693,91.56701 530.22386,91.7125 530.54325,91.85979 C 530.87175,92.01128 531.20285,92.16468 531.5364,92.31983 C 531.86808,92.47411 532.20218,92.63013 532.53854,92.78774 C 532.89095,92.95287 533.24585,93.11974 533.60306,93.28818 C 533.96478,93.45874 534.32886,93.63091 534.69512,93.80451 C 543.48543,97.97097 553.53124,102.96118 562.26907,106.30437 m 0,0 C 562.31019,106.3201 562.35127,106.33583 562.39231,106.35155 C 562.52871,106.40379 562.66472,106.45597 562.80034,106.50809 C 562.94803,106.56485 563.09525,106.62153 563.24199,106.67813 C 563.41351,106.74429 563.58438,106.81034 563.75459,106.87627 C 563.93551,106.94635 564.11569,107.01629 564.29512,107.08609 C 564.48468,107.15983 564.6734,107.23341 564.86127,107.30682 C 565.05866,107.38395 565.25511,107.46089 565.45061,107.53763 C 565.66703,107.62258 565.88229,107.70728 566.09637,107.79172 C 566.31827,107.87924 566.53891,107.96648 566.75826,108.05342 C 567.00742,108.15217 567.25491,108.25053 567.50071,108.34847 C 567.75203,108.44861 568.00159,108.54831 568.24935,108.64754 C 568.53351,108.76135 568.81531,108.87454 569.0947,108.98707 C 569.43702,109.12495 569.77572,109.26184 570.11072,109.39765 C 570.44385,109.5327 570.77332,109.66668 571.09905,109.79951 C 571.43134,109.93502 571.75973,110.06933 572.08414,110.20236 C 580.52751,113.66476 586.27276,116.25782 587.77258,116.43427 m 0,0 C 587.77663,116.43475 587.78067,116.43523 587.7847,116.43572 C 587.79073,116.43645 587.79674,116.43719 587.80273,116.43794 C 587.81268,116.43919 587.82256,116.44047 587.83238,116.44179 C 587.84801,116.44388 587.86348,116.44606 587.87879,116.44832 C 587.89777,116.45112 587.9165,116.45405 587.93499,116.4571 C 587.95512,116.46043 587.97496,116.4639 587.99451,116.46752 C 588.01911,116.47208 588.04325,116.47688 588.06694,116.48192 C 588.09697,116.4883 588.12626,116.49506 588.15483,116.5022 C 588.18445,116.5096 588.21329,116.51741 588.24136,116.52563 C 588.2718,116.53454 588.30134,116.54393 588.32999,116.5538 C 588.36205,116.56484 588.393,116.57648 588.42286,116.58871 C 588.45443,116.60165 588.48479,116.61525 588.51395,116.62952 C 588.54345,116.64395 588.57173,116.65906 588.59881,116.67485 C 588.62711,116.69136 588.6541,116.70861 588.67981,116.7266 C 588.70564,116.74467 588.73018,116.76349 588.75346,116.78305 C 588.77679,116.80266 588.79885,116.82302 588.81967,116.84412 C 588.8418,116.86655 588.86253,116.88982 588.8819,116.91394 C 588.90116,116.93792 588.91907,116.96273 588.93566,116.98838 C 588.95304,117.01525 588.96898,117.04303 588.98351,117.07172 C 588.99786,117.10005 589.01083,117.12926 589.02247,117.15936 C 589.03394,117.18903 589.04412,117.21956 589.05304,117.25094 C 589.26706,118.00412 588.75519,119.25113 588.01093,120.96293 m 0,0 C 588.00735,120.97115 588.00368,120.9796 587.99991,120.98827 C 587.98737,121.01709 587.97375,121.04839 587.95906,121.08211 C 587.94306,121.11884 587.9258,121.15845 587.90729,121.20088 C 587.88732,121.24666 587.86591,121.29573 587.84307,121.34801 C 587.81487,121.41257 587.7845,121.48204 587.75202,121.55627 C 587.71789,121.63426 587.68143,121.71751 587.64269,121.80586 C 587.59981,121.90367 587.55414,122.00773 587.50576,122.11783 C 587.45561,122.23195 587.40256,122.35256 587.34669,122.47941 C 587.28323,122.6235 587.21614,122.77565 587.14555,122.93551 C 587.07023,123.10607 586.99093,123.2854 586.90781,123.47308 C 586.81992,123.67152 586.72776,123.87929 586.63152,124.09589 C 586.53417,124.31497 586.43265,124.54308 586.32715,124.7797 C 586.20929,125.04404 586.08647,125.31901 585.95896,125.60387 C 585.83142,125.8888 585.69919,126.18363 585.56255,126.48763 C 585.42201,126.80029 585.2768,127.12265 585.12723,127.45392 C 584.97849,127.78334 584.82544,128.12157 584.66836,128.46783 C 584.51245,128.81152 584.35258,129.16312 584.18903,129.52187 C 584.01823,129.89653 583.84343,130.27898 583.66495,130.66836 C 579.267,140.26319 572.63656,154.06603 568.70453,159.09903 m 0,0 C 568.69261,159.11428 568.68066,159.12957 568.66868,159.1449 C 568.65074,159.16785 568.63273,159.19089 568.61464,159.21402 C 568.57857,159.26013 568.54221,159.30659 568.50555,159.35339 C 568.45697,159.41541 568.40788,159.47803 568.35828,159.54124 C 568.29678,159.61962 568.23451,159.6989 568.17147,159.77906 C 568.10282,159.86635 568.03327,159.95469 567.96284,160.04405 C 567.88685,160.14046 567.80983,160.23805 567.73181,160.33679 C 567.64187,160.45061 567.5506,160.56596 567.45803,160.68279 C 567.33416,160.83912 567.20796,160.9981 567.07952,161.15961 C 566.90709,161.37642 566.73062,161.59779 566.55032,161.82342 C 566.36795,162.05163 566.18166,162.2842 565.99167,162.52082 C 565.78627,162.77664 565.57653,163.03719 565.36273,163.3021 C 565.1277,163.59332 564.88776,163.8898 564.64327,164.19102 C 564.40015,164.49056 564.15253,164.79479 563.90077,165.10321 C 563.62311,165.44336 563.34041,165.7886 563.05315,166.13826 C 556.15886,174.53013 546.63613,185.4677 541.05586,189.6079 m 0,0 C 541.04108,189.61886 541.02628,189.62983 541.01146,189.64082 C 540.98927,189.65726 540.96703,189.67373 540.94473,189.69022 C 540.91509,189.71214 540.88536,189.7341 540.85554,189.7561 C 540.81099,189.78897 540.76623,189.82194 540.72127,189.85499 C 540.64679,189.90975 540.57175,189.96476 540.49617,190.02001 C 540.41386,190.08017 540.3309,190.14062 540.2473,190.20134 C 540.12704,190.28869 540.00547,190.37662 539.88261,190.4651 C 539.73905,190.56849 539.59373,190.67263 539.4467,190.77748 C 539.24933,190.91824 539.04888,191.06029 538.84548,191.20354 C 538.63975,191.34844 538.431,191.49457 538.21935,191.64184 C 538.00579,191.79044 537.78928,191.94021 537.56995,192.09105 C 537.34154,192.24814 537.11007,192.40639 536.87569,192.5657 C 536.64076,192.72538 536.40291,192.88612 536.16228,193.04782 C 535.92159,193.20957 535.67812,193.37228 535.43202,193.53584 C 535.1789,193.70406 534.923,193.87319 534.66447,194.04311 C 534.40739,194.21208 534.14772,194.38184 533.88561,194.55227 C 533.61822,194.72613 533.34829,194.90069 533.07599,195.07583 C 532.79251,195.25817 532.50646,195.44114 532.21803,195.6246 C 525.2958,200.02766 517.00369,204.71615 509.95111,207.84172 m 0,0 C 509.93014,207.85102 509.90917,207.86031 509.8882,207.8696 C 509.85681,207.8835 509.82543,207.89739 509.79406,207.91127 C 509.75236,207.92972 509.71068,207.94815 509.66902,207.96655 C 509.60678,207.99405 509.54458,208.0215 509.48242,208.0489 C 509.37944,208.0943 509.27657,208.13957 509.17382,208.18471 C 509.06193,208.23386 508.95018,208.28286 508.83858,208.3317 C 508.70814,208.38879 508.5779,208.44566 508.44788,208.50232 C 508.27019,208.57975 508.09291,208.65677 507.91607,208.73338 C 507.73276,208.81279 507.54992,208.89176 507.36759,208.97028 C 507.1699,209.05541 506.9728,209.14001 506.77635,209.22407 C 506.55655,209.31812 506.33755,209.4115 506.11942,209.50419 C 505.88878,209.60219 505.65911,209.69942 505.43049,209.79586 C 505.19925,209.8934 504.96908,209.99014 504.74006,210.08605 C 504.50071,210.18628 504.26262,210.28561 504.02587,210.38402 C 503.78806,210.48287 503.55161,210.58079 503.31661,210.67777 C 503.08106,210.77497 502.84696,210.87122 502.61441,210.96649 C 502.35999,211.07072 502.10742,211.17379 501.85682,211.27566 C 494.94751,214.08447 489.53665,215.98653 488.14203,216.42235 m 0,0 C 488.13822,216.42354 488.1344,216.42473 488.13058,216.42592 C 488.12487,216.42769 488.11915,216.42946 488.11343,216.43122 C 488.09822,216.4359 488.08299,216.44052 488.06774,216.44509 C 488.04883,216.45076 488.02989,216.45634 488.01092,216.46184 C 487.99026,216.46783 487.96957,216.47372 487.94885,216.47951 C 487.92463,216.48628 487.90037,216.49291 487.87607,216.4994 C 487.85024,216.5063 487.82437,216.51305 487.79847,216.51964 C 487.77111,216.5266 487.74371,216.53338 487.71628,216.53998 C 487.68205,216.54822 487.64777,216.55618 487.61346,216.56385 C 487.5674,216.57415 487.52128,216.58393 487.47514,216.59319 C 487.42847,216.60255 487.38178,216.61137 487.3351,216.61964 C 487.28631,216.62828 487.23754,216.63632 487.18883,216.64374 C 487.1399,216.6512 487.09102,216.65803 487.04225,216.66422 C 486.99336,216.67043 486.94457,216.676 486.89593,216.68091 C 486.84727,216.68582 486.79876,216.69008 486.75044,216.69366 C 486.70074,216.69735 486.65124,216.70032 486.60199,216.70257 C 486.55301,216.7048 486.50428,216.70632 486.45584,216.7071 C 486.40776,216.70787 486.35996,216.70792 486.31249,216.70723 C 486.26292,216.70651 486.21371,216.70498 486.16492,216.70262 C 484.96261,216.64459 484.01178,216.08518 484.09007,214.75389 m 0,0 C 484.09031,214.74984 484.09054,214.74574 484.09075,214.74159 C 484.09107,214.73537 484.09136,214.72904 484.09162,214.72259 C 484.09214,214.70973 484.09255,214.69641 484.09284,214.68264 C 484.09332,214.65983 484.09349,214.63579 484.09335,214.61052 C 484.0932,214.58301 484.09268,214.55405 484.09179,214.52367 C 484.09075,214.48816 484.08921,214.4507 484.08717,214.41134 C 484.08469,214.36352 484.08147,214.31289 484.07752,214.25951 C 484.07315,214.20042 484.06788,214.13797 484.06172,214.07225 C 484.05534,214.00413 484.048,213.93249 484.03972,213.85744 C 484.03074,213.77607 484.02065,213.69069 484.00946,213.60143 C 483.99798,213.50988 483.98534,213.41425 483.97155,213.31468 C 483.95745,213.21287 483.94216,213.10695 483.92568,212.99706 C 483.90748,212.87569 483.88783,212.74949 483.86675,212.61865 C 483.84543,212.48631 483.82264,212.34923 483.79841,212.20762 C 483.77046,212.04432 483.74059,211.875 483.70882,211.69998 C 483.67615,211.51997 483.64147,211.33393 483.60481,211.14221 C 483.56835,210.95156 483.52994,210.7553 483.4896,210.55377 C 483.44956,210.35374 483.40762,210.14852 483.3638,209.93845 C 483.31804,209.71907 483.27024,209.49439 483.22043,209.26481 C 481.993,203.60772 479.54443,194.97255 476.34368,189.1312 m 0,0 C 476.33415,189.1138 476.32457,189.09633 476.31495,189.07878 C 476.30055,189.05251 476.28606,189.02608 476.27148,188.99948 C 476.2521,188.96412 476.23255,188.92847 476.21284,188.89254 C 476.18831,188.8478 476.16353,188.80262 476.1385,188.757 C 476.09865,188.68437 476.05817,188.61063 476.01708,188.53579 C 475.96103,188.43371 475.90384,188.3296 475.84553,188.2235 C 475.77738,188.09949 475.7077,187.97277 475.63654,187.84341 C 475.5609,187.70591 475.48359,187.56544 475.40466,187.42209 C 475.29904,187.23027 475.19052,187.03329 475.07922,186.83139 C 474.92981,186.56036 474.7754,186.28045 474.61629,185.99223 C 474.45536,185.70071 474.28962,185.40068 474.1194,185.09273 C 473.9415,184.7709 473.75871,184.44041 473.57138,184.10193 C 473.38321,183.76193 473.19046,183.41386 472.9935,183.0584 C 472.79608,182.70211 472.59443,182.33839 472.38892,181.96791 C 472.17051,181.57417 471.94774,181.1728 471.72106,180.76461 C 471.49564,180.3587 471.26635,179.94604 471.03363,179.52743 C 470.79622,179.10039 470.55523,178.66716 470.31113,178.22858 C 470.06971,177.79481 469.82525,177.35581 469.57819,176.9124 C 469.33427,176.47461 469.08782,176.03252 468.83927,175.58691 C 468.59429,175.1477 468.34727,174.70508 468.09863,174.2598 C 462.13126,163.573 455.22829,151.3531 453.10449,148.01572 m 0,0 C 453.09782,148.00523 453.0911,147.99468 453.08434,147.98407 C 453.07422,147.96819 453.064,147.95218 453.05368,147.93603 C 453.03653,147.9092 453.01911,147.882 453.00142,147.85444 C 452.9803,147.82153 452.95879,147.7881 452.93691,147.75416 C 452.91153,147.7148 452.88564,147.67475 452.85925,147.63402 C 452.81807,147.57047 452.77566,147.50526 452.73205,147.43844 C 452.68108,147.36033 452.62848,147.28002 452.57428,147.19756 C 452.51667,147.10991 452.45726,147.01983 452.3961,146.9274 C 452.32718,146.82324 452.25603,146.7161 452.18273,146.60607 C 452.10159,146.48427 452.01781,146.35894 451.93149,146.23021 C 451.84202,146.09678 451.74982,145.9597 451.655,145.81914 C 451.55708,145.67399 451.45637,145.52512 451.35299,145.37271 C 451.23648,145.20094 451.11658,145.02467 450.99345,144.84414 C 450.86793,144.6601 450.73906,144.47164 450.60702,144.27902 C 450.46741,144.07536 450.32426,143.86705 450.17779,143.6544 C 450.02964,143.43931 449.87809,143.21979 449.72336,142.99615 C 449.55608,142.75437 449.38509,142.50778 449.21066,142.25679 C 449.03019,141.9971 448.84604,141.7327 448.65853,141.46404 C 448.46568,141.18772 448.26927,140.90689 448.06964,140.62204 C 447.87113,140.33879 447.66944,140.05156 447.4649,139.76084 C 447.24496,139.44824 447.02173,139.1316 446.79563,138.81152 C 446.57277,138.49604 446.34712,138.17722 446.11907,137.85564 C 440.64592,130.13769 433.79249,120.82777 431.05706,117.86437 m 0,0 C 431.04848,117.85507 431.03986,117.84574 431.0312,117.83637 C 431.01824,117.82234 431.0052,117.80823 430.99207,117.79404 C 430.97462,117.77518 430.95702,117.75617 430.93927,117.73702 C 430.90833,117.70364 430.87694,117.66983 430.8451,117.63559 C 430.79994,117.58702 430.75388,117.53759 430.70694,117.48731 C 430.65582,117.43256 430.60366,117.3768 430.55048,117.32006 C 430.48354,117.24864 430.41498,117.17567 430.34485,117.10118 C 430.26582,117.01724 430.18479,116.93138 430.10182,116.84366 C 430.00997,116.74655 429.91574,116.64716 429.81922,116.54557 C 429.71917,116.44027 429.61666,116.33261 429.51178,116.22267 C 429.40348,116.10915 429.29265,115.9932 429.17939,115.87493 C 429.0573,115.74743 428.93239,115.61723 428.80479,115.48446 C 428.65164,115.3251 428.49461,115.16203 428.33393,114.99547 C 428.166,114.8214 427.99408,114.64352 427.81842,114.46207 C 427.64198,114.27981 427.46176,114.09395 427.27803,113.90475 C 427.07011,113.69064 426.85769,113.47224 426.64114,113.24992 C 420.67047,107.12026 411.56039,98.01017 407.10283,93.55261 m 0,0 C 407.09115,93.54093 407.07943,93.52922 407.06766,93.51748 C 407.05004,93.4999 407.03232,93.48224 407.0145,93.46451 C 406.97896,93.42916 406.94302,93.39352 406.90668,93.3576 C 406.86454,93.31594 406.82186,93.2739 406.77865,93.23148 C 406.71736,93.1713 406.65501,93.11037 406.59163,93.0487 C 406.5226,92.98154 406.45235,92.9135 406.3809,92.84461 C 406.29739,92.76409 406.21224,92.68241 406.12551,92.59961 C 406.02015,92.49902 405.91246,92.39677 405.80252,92.29294 C 405.68081,92.178 405.55635,92.06112 405.42926,91.94239 C 405.29752,91.81932 405.16295,91.69427 405.02569,91.56734 C 404.87686,91.42971 404.72487,91.28988 404.56988,91.14798 C 404.41092,91.00244 404.24881,90.85473 404.08374,90.70499 C 403.89295,90.53192 403.6982,90.35614 403.49978,90.17788 C 403.29909,89.99758 403.09465,89.81474 402.88675,89.62961 C 402.66199,89.42946 402.43319,89.22662 402.20072,89.02139 C 401.96019,88.80905 401.71574,88.59415 401.46779,88.37703 C 401.20527,88.14715 400.93882,87.91478 400.66894,87.68031 C 393.22786,81.21554 383.17625,73.15397 380.88426,71.74353 m 0,0 C 380.87806,71.73972 380.87185,71.73589 380.86563,71.73205 C 380.85631,71.7263 380.84696,71.72053 380.83758,71.71473 C 380.822,71.70509 380.80634,71.69537 380.7906,71.68558 C 380.7718,71.67389 380.75289,71.66209 380.73387,71.65019 C 380.71181,71.63639 380.6896,71.62245 380.66724,71.60837 C 380.64186,71.59239 380.61629,71.57623 380.59053,71.5599 C 380.55859,71.53964 380.52637,71.51912 380.49387,71.49833 C 380.45847,71.47569 380.42274,71.45274 380.38669,71.42949 C 380.3478,71.4044 380.30853,71.37896 380.2689,71.35318 C 380.21996,71.32134 380.17047,71.28898 380.12045,71.25612 C 380.05805,71.21512 379.99483,71.17335 379.93084,71.13084 C 379.84494,71.07377 379.75765,71.01537 379.66909,70.95574 C 379.57951,70.89543 379.48864,70.83386 379.39659,70.77113 C 379.30039,70.70558 379.2029,70.63876 379.10426,70.57079 C 379.00518,70.50252 378.90494,70.43309 378.80368,70.36262 C 378.69891,70.28971 378.59305,70.21568 378.48626,70.14067 C 378.37642,70.06352 378.26559,69.98533 378.15394,69.90624 C 378.04292,69.82759 377.93109,69.74805 377.81861,69.66776 C 377.70076,69.58364 377.5822,69.4987 377.46312,69.4131 C 377.34254,69.32641 377.22143,69.23905 377.09998,69.15117 C 374.1853,67.04208 371.07829,64.63713 370.51601,64.23549 m 0,0 C 370.51434,64.2343 370.51267,64.23311 370.511,64.23191 C 370.50851,64.23012 370.50602,64.22832 370.50353,64.22652 C 370.50023,64.22412 370.49693,64.22172 370.49364,64.21931 C 370.48791,64.2151 370.4822,64.21086 370.47651,64.2066 C 370.47005,64.20176 370.46361,64.19688 370.4572,64.19197 C 370.44925,64.18588 370.44134,64.17973 370.43348,64.17353 C 370.42492,64.16678 370.41641,64.15996 370.40795,64.15308 C 370.39882,64.14565 370.38975,64.13815 370.38074,64.13057 C 370.36961,64.12121 370.35857,64.11174 370.34762,64.10215 C 370.33612,64.09208 370.32472,64.08188 370.31343,64.07156 C 370.30093,64.06014 370.28856,64.04856 370.27632,64.03684 C 370.26363,64.02469 370.25108,64.01238 370.23867,63.99991 C 370.2233,63.98446 370.20815,63.96877 370.19323,63.95284 C 370.17745,63.936 370.16193,63.91889 370.14667,63.90152 C 370.13123,63.88395 370.11606,63.86612 370.10117,63.84803 C 370.08507,63.82847 370.06929,63.8086 370.05384,63.78844 C 370.03836,63.76823 370.02321,63.74772 370.0084,63.72692 C 369.99359,63.70612 369.97912,63.68502 369.965,63.66364 C 369.95048,63.64165 369.93633,63.61936 369.92257,63.59678 C 369.90889,63.57432 369.89558,63.55157 369.88266,63.52854 C 369.86913,63.50441 369.85603,63.47997 369.84337,63.45523 C 369.83055,63.43018 369.81818,63.40482 369.80627,63.37916 C 369.52041,62.76322 369.5014,61.9744 369.92013,61.13693 m 0,0 C 370.5756,59.826 370.87353,59.05136 371.23106,58.51507 m 0,0 Z " id="path1552"/>
    <path style="fill:none;stroke:#000000;stroke-width:1px;stroke-linecap:butt;stroke-linejoin:miter;stroke-opacity:1" d="m 479.49438,196.34831  C 479.49438,196.34831 479.4946,196.34821 479.49504,196.34802 C 479.49652,196.34739 479.50045,196.34571 479.50678,196.34299 C 479.51368,196.34003 479.52343,196.33585 479.53598,196.33046 C 479.55065,196.32416 479.56914,196.31622 479.59136,196.30667 C 479.61836,196.29507 479.65087,196.2811 479.68873,196.26482 C 479.73064,196.2468 479.7791,196.22595 479.8339,196.20236 C 479.8907,196.1779 479.95431,196.1505 480.02449,196.12024 C 480.10058,196.08743 480.18439,196.05127 480.27562,196.01188 C 480.36919,195.97148 480.47055,195.92769 480.57938,195.88063 C 480.69065,195.83251 480.80973,195.78098 480.93626,195.72618 C 481.08138,195.66333 481.2363,195.59617 481.40048,195.52492 C 481.60165,195.43762 481.81672,195.34418 482.04472,195.24499 C 482.27144,195.14635 482.51094,195.04203 482.76225,194.93241 C 483.01862,194.82058 483.28728,194.70323 483.5672,194.58077 C 483.84405,194.45966 484.13192,194.33355 484.42981,194.20284 C 484.72392,194.07379 485.0278,193.94026 485.34048,193.80262 C 485.64867,193.66696 485.96542,193.52731 486.28981,193.38404 C 494.07527,189.9456 506.26177,184.42125 510.16854,181.85393 m 0,0 C 510.18034,181.84618 510.19218,181.83838 510.20407,181.83054 C 510.22186,181.8188 510.23975,181.80696 510.25774,181.79502 C 510.28166,181.77915 510.30575,181.76311 510.33002,181.74689 C 510.37231,181.71862 510.41513,181.68983 510.45847,181.66052 C 510.51995,181.61894 510.58247,181.57631 510.64602,181.53265 C 510.71522,181.48511 510.78564,181.43635 510.85724,181.38639 C 510.94737,181.32351 511.03938,181.25873 511.13321,181.19211 C 511.25216,181.10765 511.37405,181.02022 511.49877,180.92992 C 511.62804,180.83632 511.76035,180.73964 511.89558,180.63998 C 512.04918,180.52678 512.20655,180.40974 512.3675,180.28903 C 512.53922,180.16024 512.71502,180.02726 512.89469,179.89029 C 513.08466,179.74547 513.27895,179.59618 513.4773,179.44266 C 513.67793,179.28738 513.88272,179.12776 514.0914,178.96405 C 514.30197,178.79886 514.51651,178.6295 514.73474,178.45621 C 514.96959,178.26973 515.20872,178.0787 515.45179,177.88343 C 515.71772,177.6698 515.98837,177.45109 516.2633,177.2277 C 523.84341,171.06848 534.67507,161.35064 539.49438,156.40449 m 0,0 C 539.50719,156.39134 539.52001,156.37815 539.53284,156.36491 C 539.55205,156.34509 539.57129,156.32517 539.59056,156.30514 C 539.61617,156.27852 539.64183,156.25172 539.66753,156.22474 C 539.70593,156.18443 539.74444,156.14371 539.78305,156.10259 C 539.84701,156.03447 539.91125,155.96526 539.97577,155.89497 C 540.04603,155.81843 540.11661,155.74062 540.18751,155.66156 C 540.27038,155.56915 540.35367,155.47504 540.43737,155.37928 C 540.52634,155.27749 540.61577,155.17383 540.70565,155.06836 C 540.8006,154.95694 540.89604,154.84349 540.99196,154.72808 C 541.09273,154.60682 541.19402,154.48339 541.2958,154.35787 C 541.41474,154.2112 541.53435,154.06167 541.65458,153.90941 C 541.81598,153.70501 541.97851,153.49567 542.14205,153.28168 C 542.30747,153.06524 542.47393,152.84405 542.64131,152.6184 C 542.83433,152.35818 543.02859,152.09203 543.22391,151.8204 C 543.42479,151.54103 543.62679,151.25587 543.82972,150.96541 C 544.03152,150.67658 544.23424,150.38251 544.43769,150.08369 C 544.63963,149.78708 544.8423,149.48579 545.04551,149.1803 C 545.25229,148.86944 545.45963,148.55423 545.66734,148.23516 C 545.87241,147.92014 546.07784,147.60136 546.28345,147.27931 C 551.34982,139.34363 556.52294,129.41924 559.04494,124.7191 m 0,0 C 559.05236,124.70528 559.05978,124.69146 559.0672,124.67764 C 559.0783,124.65695 559.0894,124.63626 559.1005,124.61557 C 559.11895,124.58118 559.1374,124.54679 559.15585,124.5124 C 559.17787,124.47134 559.19989,124.43027 559.22191,124.3892 C 559.24745,124.34157 559.27298,124.29394 559.29851,124.2463 C 559.32748,124.19224 559.35645,124.13818 559.38541,124.08411 C 559.42133,124.01707 559.45724,123.95003 559.49314,123.88299 C 559.53223,123.80998 559.57131,123.73698 559.61037,123.66398 C 559.65602,123.57866 559.70165,123.49335 559.74725,123.40807 C 559.80264,123.30447 559.85799,123.2009 559.91329,123.09738 C 559.97451,122.98278 560.03566,122.86824 560.09673,122.75378 C 560.16003,122.63514 560.22325,122.51659 560.28637,122.39815 C 560.35806,122.26361 560.42963,122.12922 560.50104,121.99501 C 560.58676,121.83392 560.67226,121.67309 560.7575,121.51258 C 560.86194,121.31592 560.96599,121.11974 561.06958,120.92416 C 561.17259,120.72968 561.27514,120.53579 561.37717,120.34261 C 561.48407,120.14022 561.59039,119.9386 561.69605,119.73789 C 564.37097,114.65685 566.62395,110.15885 567.13483,108.37079 " id="path1554"/>
    <path style="fill:none;stroke:#000000;stroke-width:1px;stroke-linecap:butt;stroke-linejoin:miter;stroke-opacity:1" d="m 422.11891,26.099391  C 422.11891,26.09939 422.11893,26.09936 422.11897,26.09931 C 422.11903,26.09924 422.11914,26.09911 422.1193,26.09892 C 422.11961,26.09855 422.12011,26.09796 422.12079,26.09715 C 422.12169,26.09608 422.12291,26.09462 422.12445,26.09278 C 422.12636,26.0905 422.12876,26.08764 422.13163,26.08421 C 422.13476,26.08048 422.13846,26.07607 422.14271,26.071 C 422.1473,26.06553 422.15253,26.05929 422.1584,26.0523 C 422.16516,26.04424 422.17276,26.03518 422.18118,26.02515 C 422.19185,26.01244 422.20383,25.99816 422.21708,25.98238 C 422.23081,25.96602 422.2459,25.94804 422.2623,25.92851 C 422.28093,25.90632 422.30125,25.88213 422.32318,25.85602 C 422.34658,25.82817 422.37181,25.79814 422.39879,25.76604 C 422.42732,25.7321 422.4578,25.69585 422.49012,25.65742 C 422.52281,25.61854 422.55739,25.57743 422.59374,25.53423 C 422.63435,25.48597 422.67717,25.43509 422.72205,25.38179 C 422.76694,25.32847 422.81389,25.27273 422.86274,25.21475 C 422.91298,25.15512 422.96523,25.09312 423.01933,25.02896 C 423.07312,24.96516 423.12874,24.89923 423.18601,24.83137 C 423.24285,24.76401 423.30132,24.69475 423.36126,24.62378 C 423.42225,24.55157 423.48476,24.47759 423.54862,24.40205 C 425.16531,22.48982 427.6452,19.58031 428.19685,19.06805 m 0,0 C 428.19852,19.0665 428.20019,19.06495 428.20186,19.0634 C 428.20435,19.06107 428.20684,19.05874 428.20933,19.0564 C 428.21347,19.05252 428.2176,19.04863 428.22173,19.04472 C 428.2283,19.0385 428.23486,19.03225 428.2414,19.02597 C 428.24951,19.01818 428.2576,19.01034 428.26567,19.00246 C 428.27446,18.99388 428.28322,18.98524 428.29196,18.97655 C 428.30217,18.9664 428.31235,18.95618 428.3225,18.94589 C 428.33329,18.93496 428.34404,18.92395 428.35476,18.91288 C 428.36609,18.90118 428.37738,18.88941 428.38863,18.87757 C 428.40045,18.86513 428.41223,18.85261 428.42398,18.84003 C 428.43699,18.8261 428.44995,18.81209 428.46287,18.79801 C 428.47626,18.78341 428.48961,18.76873 428.50292,18.75399 C 428.51735,18.73801 428.53173,18.72195 428.54607,18.70583 C 428.56078,18.68929 428.57544,18.67269 428.59006,18.65604 C 428.60501,18.63902 428.61992,18.62195 428.63479,18.60484 C 428.65185,18.58522 428.66886,18.56556 428.68583,18.54588 C 428.70357,18.52531 428.72127,18.50472 428.73893,18.48414 C 428.75667,18.46347 428.77438,18.44281 428.79207,18.42219 C 428.8098,18.40152 428.8275,18.3809 428.84519,18.36035 C 428.86454,18.33786 428.88388,18.31546 428.90321,18.29319 C 429.4362,17.67911 429.96611,17.16097 430.75912,17.57836 m 0,0 C 430.76138,17.57955 430.76368,17.58076 430.76602,17.582 C 430.77068,17.58447 430.77548,17.58703 430.78042,17.58968 C 430.78903,17.59431 430.79807,17.59921 430.80753,17.60439 C 430.81826,17.61026 430.82953,17.61649 430.84134,17.62306 C 430.85598,17.63121 430.87144,17.6399 430.8877,17.64911 C 430.90541,17.65914 430.92407,17.66979 430.94366,17.68105 C 430.9648,17.6932 430.98703,17.70606 431.01032,17.71961 C 431.03716,17.73523 431.06541,17.75178 431.09503,17.76923 C 431.13258,17.79135 431.17234,17.81491 431.21422,17.83987 C 431.25763,17.86574 431.30333,17.89311 431.35122,17.92193 C 431.40562,17.95467 431.46285,17.98928 431.52279,18.02568 C 431.58674,18.06451 431.65377,18.10538 431.72373,18.1482 C 431.7977,18.19347 431.87495,18.24091 431.95529,18.29041 C 432.03655,18.34048 432.12097,18.39266 432.20836,18.44683 C 432.30284,18.5054 432.4008,18.56629 432.50199,18.62937 C 432.60342,18.69259 432.7081,18.75801 432.81579,18.82547 C 432.92351,18.89295 433.03424,18.96247 433.14774,19.03389 C 433.26448,19.10735 433.38415,19.18281 433.50649,19.26012 C 433.62815,19.337 433.75245,19.4157 433.87913,19.49607 C 434.01884,19.58471 434.16145,19.67538 434.30662,19.76786 C 437.79063,21.98749 442.74622,25.25363 444.4047,26.63568 m 0,0 C 444.40971,26.63985 444.41477,26.64407 444.41989,26.64833 C 444.42755,26.65471 444.43534,26.66119 444.44326,26.66777 C 444.45642,26.67871 444.46993,26.68992 444.48379,26.70141 C 444.50033,26.71513 444.51737,26.72924 444.5349,26.74374 C 444.55523,26.76055 444.57621,26.77788 444.59784,26.79572 C 444.62853,26.82103 444.66052,26.84738 444.69379,26.87474 C 444.73002,26.90453 444.76776,26.93553 444.80699,26.9677 C 444.85284,27.0053 444.90071,27.04451 444.95055,27.08528 C 445.00353,27.12861 445.05873,27.17371 445.11609,27.22053 C 445.17669,27.26999 445.2397,27.32136 445.30505,27.37459 C 445.37371,27.43051 445.44494,27.48848 445.51866,27.54843 C 445.60027,27.61479 445.68493,27.68357 445.77252,27.75468 C 445.86331,27.82839 445.95724,27.90461 446.05418,27.98322 C 446.1643,28.07252 446.2783,28.16491 446.39599,28.26024 C 446.51633,28.35771 446.64052,28.45826 446.76836,28.56172 C 446.89869,28.66719 447.0328,28.77569 447.17048,28.88704 C 447.31605,29.00477 447.46561,29.12569 447.61889,29.24959 C 447.77392,29.37491 447.93276,29.50328 448.09514,29.63449 C 448.25898,29.76689 448.42642,29.90218 448.59718,30.04014 C 448.78094,30.1886 448.96854,30.34016 449.15963,30.49454 C 449.36272,30.65861 449.56975,30.82586 449.78031,30.99597 C 449.98969,31.16513 450.20256,31.33712 450.4185,31.51162 C 450.65665,31.70407 450.89853,31.89957 451.1436,32.09768 C 457.02519,36.85244 464.73987,43.11527 466.63089,44.92909 m 0,0 C 466.63673,44.93469 466.64259,44.94031 466.64848,44.94595 C 466.65729,44.95439 466.66616,44.96287 466.67508,44.97138 C 466.68694,44.9827 466.69889,44.99409 466.71094,45.00554 C 466.74094,45.03406 466.77151,45.063 466.80265,45.09235 C 466.83656,45.12431 466.87114,45.15675 466.90638,45.18967 C 466.94757,45.22814 466.98965,45.26726 467.0326,45.30701 C 467.09129,45.36133 467.1516,45.41682 467.21346,45.47342 C 467.27758,45.53209 467.34336,45.59196 467.41073,45.65298 C 467.48029,45.71599 467.55155,45.78022 467.62441,45.84561 C 467.69938,45.91289 467.77605,45.9814 467.85433,46.05107 C 467.94192,46.12902 468.03152,46.20842 468.123,46.28917 C 468.22345,46.37784 468.32616,46.46814 468.43097,46.55995 C 468.55939,46.67244 468.69096,46.7872 468.82536,46.90399 C 468.959,47.02013 469.09544,47.13828 469.23437,47.25822 C 469.3761,47.38057 469.52042,47.50478 469.66699,47.63061 C 469.81958,47.7616 469.97462,47.89435 470.13173,48.02858 C 473.90238,51.24999 478.86653,55.3236 479.85935,56.48909 m 0,0 C 481.22986,58.09796 481.82574,58.69383 481.64698,59.70682 m 0,0 C 481.64662,59.70885 481.64626,59.71089 481.64589,59.71294 C 481.64533,59.716 481.64476,59.71909 481.64417,59.7222 C 481.64339,59.72633 481.64258,59.7305 481.64174,59.73471 C 481.64027,59.74205 481.63871,59.74951 481.63707,59.75709 C 481.63521,59.7657 481.63323,59.77446 481.63114,59.78337 C 481.6283,59.79552 481.62525,59.80796 481.622,59.82067 C 481.61674,59.84124 481.61095,59.86253 481.60466,59.88451 C 481.59814,59.90729 481.59107,59.93082 481.58347,59.95506 C 481.57562,59.98009 481.56721,60.00588 481.55825,60.0324 C 481.54859,60.06099 481.5383,60.09042 481.5274,60.12065 C 481.51481,60.15559 481.5014,60.1916 481.48722,60.22862 C 481.47288,60.26606 481.45775,60.30453 481.44187,60.34396 C 481.42527,60.38517 481.40785,60.42743 481.38966,60.47066 C 481.36895,60.51987 481.34723,60.57034 481.32458,60.62196 C 481.30206,60.67329 481.27861,60.72576 481.2543,60.77925 C 481.22883,60.83529 481.20242,60.89245 481.17514,60.9506 C 481.14751,61.00949 481.11899,61.0694 481.08966,61.13019 C 480.38576,62.58917 479.21466,64.55768 478.66759,65.18888 " id="path1556"/>
    <path style="fill:none;stroke:#000000;stroke-width:1px;stroke-linecap:butt;stroke-linejoin:miter;stroke-opacity:1" d="m 384.63828,74.395181  C 384.63828,74.39518 384.63794,74.39562 384.63725,74.39649 C 384.63496,74.39938 384.62889,74.40706 384.61911,74.41944 C 384.60846,74.43292 384.5934,74.45197 384.57403,74.47648 C 384.55314,74.50292 384.52723,74.53571 384.49643,74.57469 C 384.46093,74.61962 384.41892,74.67279 384.37059,74.73396 C 384.30933,74.81151 384.23791,74.90192 384.15671,75.00473 C 384.07254,75.1113 383.97786,75.23118 383.87308,75.36386 C 383.75407,75.51457 383.62203,75.68179 383.47758,75.86476 C 383.32346,76.05997 383.15521,76.27311 382.97357,76.50325 C 382.78151,76.74658 382.57448,77.00892 382.35336,77.28916 C 382.1297,77.57262 381.89162,77.8744 381.64003,78.19336 C 381.35897,78.54969 381.06104,78.92747 380.74751,79.32512 C 380.4339,79.72287 380.10467,80.1405 379.7611,80.57643 C 379.40773,81.02478 379.03919,81.49248 378.65684,81.97782 C 378.27663,82.46045 377.88277,82.96051 377.47662,83.47631 C 377.06229,84.0025 376.63516,84.54508 376.19667,85.10225 C 364.78402,99.60361 345.67516,123.98617 344.17827,126.56417 m 0,0 C 344.17398,126.57156 344.16968,126.57897 344.16537,126.58639 C 344.15891,126.5975 344.15243,126.60865 344.14592,126.61984 C 344.13511,126.63843 344.12423,126.65713 344.11328,126.67593 C 344.1002,126.69838 344.08702,126.72098 344.07374,126.74373 C 344.05834,126.77011 344.04281,126.79669 344.02715,126.82347 C 344.00494,126.86146 343.98246,126.89984 343.95972,126.93862 C 343.93496,126.98085 343.90989,127.02354 343.88452,127.06669 C 343.85487,127.11713 343.8248,127.16819 343.79433,127.21987 C 343.75731,127.28265 343.7197,127.34634 343.6815,127.41092 C 343.63922,127.48241 343.59623,127.55499 343.55254,127.62864 C 343.50726,127.70498 343.46123,127.78247 343.41448,127.86107 C 343.36621,127.94224 343.31717,128.0246 343.26738,128.10812 C 343.20883,128.20634 343.14925,128.30616 343.08869,128.40753 C 343.02465,128.51472 342.95951,128.62364 342.89332,128.73424 C 342.82637,128.8461 342.75834,128.95968 342.68928,129.07491 C 342.6196,129.19118 342.54887,129.30913 342.47714,129.4287 C 342.40244,129.55322 342.32666,129.6795 342.24986,129.80746 C 342.1704,129.93985 342.08984,130.07404 342.00826,130.20995 C 341.92435,130.34973 341.83935,130.49133 341.75334,130.63466 C 341.66781,130.77719 341.58127,130.92144 341.49379,131.06731 C 341.40214,131.22014 341.30946,131.37476 341.21583,131.53106 C 341.12102,131.68934 341.02523,131.84934 340.92855,132.01097 C 338.60832,135.89006 335.77512,140.7054 333.57167,145.03634 m 0,0 C 333.5613,145.05672 333.55081,145.07739 333.54019,145.09834 C 333.50489,145.16796 333.4682,145.24073 333.43015,145.31658 C 333.38872,145.39918 333.34567,145.48543 333.30104,145.57525 C 333.24888,145.68023 333.19457,145.79009 333.13816,145.9047 C 333.0782,146.02652 333.01587,146.1537 332.95124,146.28608 C 332.88296,146.42593 332.81211,146.57159 332.73878,146.72287 C 332.66173,146.88181 332.58194,147.04696 332.4995,147.21809 C 332.40824,147.40753 332.31373,147.60431 332.21611,147.80814 C 332.11492,148.01942 332.01038,148.23827 331.90263,148.46436 C 331.78024,148.72117 331.65372,148.98732 331.52327,149.26234 C 331.38989,149.54353 331.25241,149.83399 331.11105,150.13321 C 330.94893,150.47638 330.78171,150.83107 330.60973,151.1965 C 330.39901,151.64425 330.18114,152.10813 329.95675,152.58672 C 329.73361,153.06263 329.50403,153.55309 329.26861,154.05669 C 329.02845,154.57044 328.78222,155.09787 328.53057,155.63749 C 321.98093,169.6823 311.76119,191.98961 309.37908,196.40089 m 0,0 C 309.37264,196.41281 309.36614,196.42486 309.35957,196.43704 C 309.34974,196.45527 309.33976,196.47379 309.32963,196.49261 C 309.3128,196.52388 309.29557,196.55595 309.27793,196.58881 C 309.24985,196.64113 309.22076,196.69546 309.19066,196.75177 C 309.15334,196.8216 309.11448,196.89447 309.07411,196.97033 C 309.03014,197.05294 308.98438,197.13909 308.93687,197.22869 C 308.87707,197.34148 308.81449,197.45974 308.74922,197.58331 C 308.66647,197.73997 308.57939,197.90517 308.48814,198.07857 C 308.39355,198.25831 308.29448,198.44687 308.19111,198.64388 C 308.07903,198.85749 307.96189,199.08104 307.83992,199.31405 C 307.70345,199.57476 307.56094,199.84731 307.41271,200.13105 C 307.25598,200.43106 307.09285,200.74358 306.9237,201.06783 C 306.75262,201.3958 306.57538,201.73577 306.39238,202.08694 C 306.20113,202.45393 306.00358,202.83315 305.80019,203.22368 C 305.59589,203.61596 305.38569,204.01965 305.17005,204.43382 C 304.9539,204.84896 304.73229,205.27462 304.50567,205.70987 C 304.26482,206.17245 304.01831,206.64586 303.76669,207.12897 C 303.51648,207.60938 303.26122,208.09939 303.00145,208.59789 C 302.72928,209.12017 302.45216,209.65177 302.17071,210.19141 C 301.89283,210.72421 301.61073,211.26485 301.32501,211.81211 C 301.0434,212.35151 300.75827,212.89734 300.47019,213.44842 C 293.55635,226.67432 284.9463,242.92634 282.56464,245.97782 m 0,0 C 282.5532,245.99248 282.54162,246.00737 282.5299,246.0225 C 282.49095,246.07277 282.45045,246.12562 282.40843,246.18101 C 282.36267,246.24133 282.31511,246.30465 282.26579,246.37092 C 282.21257,246.44242 282.1573,246.51734 282.10001,246.59562 C 282.02926,246.69229 281.95544,246.79408 281.87862,246.90084 C 281.79791,247.01301 281.71389,247.13066 281.62665,247.25364 C 281.53008,247.38978 281.42957,247.53244 281.32524,247.6814 C 281.2171,247.83581 281.10486,247.99699 280.98866,248.16469 C 280.85666,248.35518 280.71955,248.55409 280.57753,248.76105 C 280.42601,248.98186 280.2689,249.21183 280.10644,249.45052 C 279.93467,249.7029 279.75692,249.96503 279.57349,250.23639 C 279.38795,250.51086 279.1966,250.79477 278.99973,251.08758 C 278.7798,251.41469 278.55298,251.75291 278.3197,252.10148 C 278.08636,252.45014 277.84655,252.80916 277.60069,253.17778 C 277.34782,253.55691 277.08855,253.9462 276.82333,254.34482 C 276.55959,254.74122 276.28998,255.14685 276.01493,255.56091 C 275.74193,255.97189 275.46358,256.39117 275.18031,256.81796 C 274.88449,257.26367 274.58331,257.71758 274.27727,258.17878 C 266.73613,269.54319 256.2448,285.33558 250.26813,292.09866 m 0,0 C 250.25002,292.11916 250.23186,292.13972 250.21365,292.16033 C 250.18639,292.19119 250.15902,292.22217 250.13154,292.25328 C 250.07675,292.31532 250.02154,292.37786 249.96591,292.4409 C 249.89218,292.52444 249.81772,292.60886 249.74254,292.69413 C 249.64931,292.79987 249.55498,292.90692 249.45956,293.01526 C 249.35565,293.13324 249.25046,293.25274 249.14402,293.37372 C 249.02918,293.50425 248.91288,293.6365 248.79517,293.77043 C 248.65949,293.9248 248.52194,294.0814 248.38257,294.24014 C 248.19608,294.45256 248.00634,294.66882 247.81351,294.88874 C 247.55466,295.18396 247.29024,295.48577 247.02063,295.7937 C 246.74793,296.10516 246.46992,296.42289 246.18699,296.74642 C 245.88111,297.09619 245.56948,297.45274 245.25259,297.81547 C 244.90422,298.21423 244.54949,298.62047 244.18906,299.03338 C 243.83064,299.44399 243.46658,299.8612 243.09753,300.28424 C 242.69052,300.75079 242.27743,301.22443 241.85912,301.70412 C 231.81966,313.21656 218.77492,328.21055 214.63472,332.26074 m 0,0 C 214.62376,332.27147 214.61269,332.2823 214.60151,332.29324 C 214.58478,332.30961 214.56781,332.32622 214.55061,332.34306 C 214.52774,332.36545 214.50446,332.38826 214.48077,332.41148 C 214.44537,332.44617 214.40906,332.48178 214.37184,332.51829 C 214.31018,332.57878 214.24602,332.64176 214.17942,332.70718 C 214.1069,332.77842 214.03148,332.85256 213.95323,332.92953 C 213.84067,333.04025 213.72225,333.15682 213.59817,333.27905 C 213.45318,333.42188 213.30046,333.57244 213.14032,333.73042 C 212.92535,333.94249 212.697,334.16793 212.45603,334.406 C 212.21229,334.64679 211.95563,334.9005 211.68683,335.16634 C 211.4156,335.43458 211.132,335.71518 210.83683,336.00734 C 210.52944,336.31161 210.2095,336.62842 209.8779,336.95687 C 209.54553,337.28608 209.20145,337.62699 208.84657,337.97868 C 208.4916,338.33046 208.12582,338.69304 207.75013,339.06551 C 207.36373,339.44859 206.96686,339.84213 206.56049,340.24514 C 206.15639,340.6459 205.7429,341.05603 205.32099,341.47456 C 204.89059,341.90152 204.45142,342.33722 204.00451,342.78063 C 203.53925,343.24226 203.0656,343.71224 202.58472,344.18942 C 191.04368,355.64173 175.34011,371.23893 171.49326,374.92549 m 0,0 C 171.48182,374.93645 171.47024,374.94755 171.45852,374.95878 C 171.44098,374.97559 171.42313,374.9927 171.40497,375.01011 C 171.38083,375.03325 171.35615,375.05691 171.33093,375.08109 C 171.29325,375.11722 171.25436,375.15451 171.21428,375.19295 C 171.14788,375.25663 171.07822,375.32345 171.00535,375.39336 C 170.926,375.46949 170.84285,375.54929 170.75598,375.63267 C 170.65445,375.73013 170.54784,375.83249 170.43629,375.93962 C 170.28384,376.08603 170.12216,376.24136 169.95159,376.4053 C 169.77478,376.57523 169.58842,376.75441 169.39289,376.94249 C 169.18088,377.14642 168.95808,377.36081 168.72498,377.58522 C 168.46417,377.8363 168.19046,378.09992 167.90452,378.37546 C 167.60219,378.6668 167.28619,378.97146 166.95732,379.28871 C 166.62468,379.6096 166.27887,379.94337 165.92072,380.28926 C 165.54643,380.65074 165.15866,381.02545 164.75835,381.41253 C 164.35624,381.80135 163.94148,382.20264 163.51503,382.61553 C 163.08758,383.02938 162.64838,383.45488 162.1984,383.89115 C 161.7061,384.36844 161.20089,384.85861 160.68403,385.36051 C 146.43334,399.19852 123.32364,421.94771 117.7452,429.26943 m 0,0 C 117.72995,429.28945 117.71465,429.30953 117.69929,429.32966 C 117.6763,429.35979 117.6532,429.39005 117.62999,429.42043 C 117.56828,429.50119 117.50577,429.5828 117.44248,429.66525 C 117.36401,429.76749 117.28433,429.87102 117.20348,429.97582 C 117.11543,430.08995 117.02599,430.20558 116.93518,430.32268 C 116.82904,430.45955 116.72103,430.59843 116.6112,430.73927 C 116.49446,430.88898 116.37567,431.0409 116.25488,431.19498 C 116.12728,431.35775 115.99745,431.52293 115.86545,431.69044 C 115.70076,431.89944 115.53271,432.11207 115.36143,432.3282 C 115.13149,432.61833 114.89573,432.91476 114.65446,433.21715 C 114.41042,433.52301 114.16075,433.83497 113.90577,434.15269 C 113.63929,434.48473 113.36702,434.82306 113.08932,435.16729 C 112.81038,435.51306 112.52597,435.86478 112.23647,436.22205 C 111.94629,436.58015 111.651,436.94383 111.35098,437.31268 C 111.05088,437.68163 110.74604,438.05575 110.43685,438.43465 C 110.11885,438.82434 109.79625,439.21908 109.46946,439.61844 C 109.1445,440.01557 108.8154,440.41726 108.48257,440.82308 C 108.15221,441.22588 107.81818,441.63275 107.48088,442.04327 C 107.12862,442.47199 106.77279,442.90469 106.41385,443.34089 C 97.56921,454.08934 86.83421,466.96333 81.0392,474.7944 m 0,0 C 81.02156,474.81824 81.00387,474.84215 80.98613,474.86613 C 80.95958,474.90203 80.93292,474.93809 80.90615,474.97431 C 80.85277,475.04654 80.79896,475.11941 80.74473,475.19291 C 80.65488,475.31468 80.56386,475.43819 80.4717,475.56339 C 80.37134,475.69974 80.26963,475.8381 80.16661,475.97841 C 80.0462,476.14241 79.924,476.30908 79.80007,476.47834 C 79.64952,476.68395 79.49641,476.89337 79.34086,477.10645 C 79.16866,477.34233 78.99346,477.58269 78.81542,477.82733 C 78.63087,478.08091 78.44326,478.33908 78.25275,478.60161 C 78.04618,478.88626 77.83621,479.17603 77.62304,479.47062 C 77.40441,479.77276 77.18242,480.07997 76.9573,480.39192 C 76.72712,480.71088 76.49366,481.0348 76.25717,481.36334 C 75.99598,481.72619 75.73109,482.09468 75.46283,482.46833 C 75.19149,482.84627 74.9167,483.22949 74.63879,483.61752 C 74.31831,484.06499 73.99369,484.51885 73.66544,484.97836 C 73.32784,485.45097 72.98641,485.92956 72.6417,486.41332 C 72.29892,486.89438 71.95291,487.38055 71.60422,487.87105 C 71.25812,488.35791 70.90938,488.84903 70.55854,489.34364 C 70.19214,489.86018 69.82346,490.38053 69.4531,490.9038 C 60.32715,503.79777 50.18642,518.46871 48.26599,521.74946 m 0,0 C 48.26027,521.75923 48.2545,521.76907 48.24868,521.77897 C 48.23996,521.79379 48.23113,521.80876 48.22218,521.82387 C 48.21029,521.84395 48.1982,521.86429 48.1859,521.88488 C 48.17059,521.91051 48.15497,521.93653 48.13904,521.96293 C 48.11369,522.00496 48.08756,522.04797 48.06066,522.09194 C 48.02397,522.15191 47.98585,522.21366 47.94634,522.27716 C 47.90015,522.35138 47.85206,522.42798 47.80211,522.5069 C 47.74902,522.59079 47.69383,522.6773 47.6366,522.76636 C 47.56001,522.88553 47.47977,523.00926 47.39602,523.13737 C 47.2836,523.30935 47.16485,523.48923 47.04012,523.67657 C 46.91396,523.86606 46.78169,524.06318 46.64365,524.26749 C 46.49939,524.481 46.34884,524.70236 46.19241,524.93106 C 46.03528,525.16078 45.87221,525.3979 45.70361,525.6419 C 45.53462,525.88647 45.36008,526.13796 45.18041,526.39584 C 44.98946,526.66991 44.79271,526.95119 44.59066,527.23906 C 44.38974,527.52532 44.18358,527.8181 43.97267,528.11678 C 43.75751,528.42148 43.53741,528.73232 43.31288,529.04864 C 43.09082,529.36149 42.86443,529.6797 42.63422,530.00264 C 42.40693,530.32148 42.17591,530.64493 41.94165,530.97238 C 41.71076,531.29513 41.47672,531.62177 41.24,531.95171 C 35.55861,539.87023 28.33154,549.69016 25.98021,553.33092 m 0,0 C 25.97282,553.34236 25.96543,553.3538 25.95804,553.36524 C 25.94698,553.38237 25.93592,553.39949 25.92486,553.41661 C 25.90647,553.44506 25.88808,553.47351 25.86969,553.50196 C 25.84773,553.53593 25.82577,553.56989 25.80381,553.60385 C 25.77834,553.64323 25.75287,553.6826 25.7274,553.72196 C 25.68765,553.78339 25.6479,553.8448 25.60815,553.90619 C 25.56169,553.97794 25.51523,554.04967 25.46878,554.12137 C 25.41941,554.19759 25.37005,554.27378 25.32071,554.34993 C 25.26512,554.43574 25.20955,554.52151 25.15403,554.60724 C 25.09256,554.70214 25.03114,554.79698 24.96979,554.89176 C 24.9062,554.99001 24.84269,555.08819 24.77927,555.1863 C 24.71378,555.28762 24.64839,555.38886 24.58313,555.49002 C 24.50958,555.60403 24.43619,555.71793 24.36299,555.83172 C 24.28837,555.94773 24.21394,556.06362 24.13975,556.17939 C 24.0613,556.3018 23.98312,556.42407 23.90524,556.54619 C 23.82647,556.66971 23.748,556.79307 23.66989,556.91627 C 23.58544,557.04946 23.5014,557.18245 23.41783,557.31524 C 23.33136,557.45263 23.24539,557.5898 23.15998,557.72673 C 23.07213,557.86756 22.98487,558.00814 22.89827,558.14845 C 22.81215,558.28798 22.72668,558.42724 22.64192,558.56622 C 22.55078,558.71566 22.46046,558.86477 22.37104,559.01353 C 22.28291,559.16016 22.19566,559.30645 22.10936,559.45238 C 20.03809,562.95473 18.51535,566.25065 18.59134,569.06206 m 0,0 C 18.59158,569.07088 18.59183,569.07969 18.5921,569.0885 C 18.5925,569.10168 18.59294,569.11485 18.59341,569.12801 C 18.59404,569.1455 18.59473,569.16297 18.59548,569.18042 C 18.59679,569.21083 18.59829,569.24117 18.59998,569.27144 C 18.60237,569.31439 18.60514,569.3572 18.60828,569.39987 C 18.61169,569.44634 18.61554,569.49265 18.61982,569.53879 C 18.62521,569.59687 18.63129,569.65469 18.63804,569.71226 C 18.64564,569.77713 18.6541,569.84167 18.66339,569.90589 C 18.67368,569.97698 18.68499,570.04767 18.69731,570.11796 C 18.71008,570.19082 18.72393,570.26326 18.73883,570.33527 C 18.75421,570.40963 18.77072,570.48354 18.78832,570.557 C 18.80729,570.63619 18.82753,570.71486 18.84901,570.79301 C 18.87479,570.88681 18.90236,570.97986 18.93165,571.07216 C 18.96226,571.16862 18.99475,571.26427 19.02905,571.35911 C 19.0635,571.45437 19.09978,571.54882 19.13782,571.64245 C 19.18086,571.74841 19.22616,571.85333 19.2736,571.95722 C 20.58173,574.82169 23.52402,576.90219 25.98021,578.35773 m 0,0 C 25.98665,578.36154 25.99314,578.36537 25.99969,578.36921 C 26.0095,578.37495 26.01944,578.38072 26.0295,578.38652 C 26.04957,578.39808 26.07015,578.40974 26.09123,578.42151 C 26.11568,578.43516 26.14081,578.44895 26.16661,578.46287 C 26.20321,578.48262 26.24117,578.50264 26.28046,578.52293 C 26.32325,578.54502 26.36763,578.56743 26.41356,578.59014 C 26.46725,578.61669 26.52307,578.64365 26.58098,578.67102 C 26.65133,578.70426 26.72476,578.7381 26.8012,578.7725 C 26.88582,578.81058 26.97413,578.84935 27.06603,578.88877 C 27.16129,578.92963 27.26041,578.97119 27.36328,579.01341 C 27.47482,579.05919 27.59077,579.10574 27.71099,579.15301 C 27.83429,579.20149 27.96208,579.25073 28.09421,579.30067 C 28.24693,579.35839 28.40545,579.41704 28.56954,579.47653 C 28.73551,579.5367 28.90717,579.59773 29.08429,579.65952 C 29.27578,579.72633 29.47365,579.79403 29.67759,579.86251 C 29.8886,579.93336 30.10611,580.00504 30.32979,580.07742 C 30.56661,580.15405 30.81035,580.23146 31.0606,580.3095 C 37.96049,582.46111 49.81397,585.08868 58.27672,584.91237 m 0,0 C 58.2996,584.91189 58.32248,584.9114 58.34536,584.9109 C 58.37962,584.91016 58.41388,584.90939 58.44814,584.9086 C 58.50508,584.90729 58.56202,584.90592 58.61897,584.90449 C 58.68697,584.90278 58.75498,584.90098 58.823,584.89909 C 58.90188,584.8969 58.98077,584.89459 59.05966,584.89217 C 59.14919,584.88942 59.23873,584.88652 59.32828,584.88347 C 59.43932,584.87969 59.55037,584.87568 59.66142,584.87144 C 59.78235,584.86682 59.90328,584.86193 60.02421,584.85677 C 60.15468,584.8512 60.28514,584.84532 60.41557,584.83912 C 60.57666,584.83147 60.73771,584.82334 60.8987,584.81474 C 61.09957,584.80401 61.30034,584.79255 61.50098,584.78036 C 61.77032,584.764 62.03941,584.74633 62.30814,584.72737 C 62.57995,584.70819 62.85139,584.6877 63.12234,584.66591 C 63.40551,584.64314 63.68815,584.61895 63.97013,584.59337 C 64.25337,584.56767 64.53594,584.54057 64.81771,584.51209 C 65.10925,584.48262 65.39993,584.45167 65.6896,584.41927 C 65.98752,584.38595 66.28438,584.35109 66.58001,584.31472 C 66.87399,584.27856 67.16675,584.24091 67.45814,584.2018 C 67.76343,584.16082 68.06721,584.11824 68.3693,584.07409 C 68.67521,584.02938 68.97938,583.98306 69.28163,583.93517 C 76.53564,582.7857 82.68135,580.7287 85.09116,578.23856 m 0,0 C 85.09831,578.23117 85.10546,578.22378 85.11262,578.21638 C 85.12334,578.20531 85.13406,578.19423 85.14479,578.18314 C 85.15906,578.16839 85.17334,578.15363 85.18764,578.13885 C 85.21256,578.11309 85.23752,578.08728 85.26252,578.06141 C 85.29089,578.03205 85.31932,578.00263 85.3478,577.97314 C 85.38311,577.93657 85.4185,577.8999 85.45397,577.86313 C 85.49259,577.82308 85.5313,577.78291 85.57009,577.74262 C 85.61194,577.69915 85.65388,577.65553 85.69591,577.61177 C 85.74781,577.55773 85.79984,577.50346 85.85198,577.44897 C 85.90677,577.39172 85.96168,577.33423 86.0167,577.27649 C 86.0776,577.21257 86.13863,577.14835 86.19977,577.08383 C 86.26314,577.01695 86.32663,576.94974 86.3902,576.8822 C 86.46897,576.79851 86.54787,576.71431 86.62685,576.6296 C 86.71036,576.54004 86.79396,576.44991 86.87758,576.3592 C 86.96216,576.26745 87.04676,576.17511 87.13132,576.08218 C 87.22274,575.98171 87.31411,575.88054 87.40535,575.77867 C 87.49681,575.67657 87.58814,575.57376 87.67925,575.47024 C 87.77039,575.36669 87.86131,575.26243 87.95194,575.15745 C 88.04515,575.04948 88.13805,574.94075 88.23054,574.83125 C 88.32252,574.72236 88.4141,574.61271 88.50519,574.50229 C 88.60063,574.3866 88.69553,574.27007 88.7898,574.15269 C 88.88526,574.03383 88.98007,573.9141 89.07412,573.79348 C 91.33131,570.89868 93.15203,567.49589 93.07591,563.46082 m 0,0 C 93.07555,563.44187 93.07521,563.42283 93.07488,563.40371 C 93.07379,563.34016 93.07287,563.27566 93.07211,563.21023 C 93.07128,563.13897 93.07065,563.06661 93.07021,562.99317 C 93.0697,562.90733 93.06945,562.82001 93.06946,562.73126 C 93.06947,562.62345 93.06987,562.51353 93.07065,562.40157 C 93.07151,562.27763 93.07284,562.15119 93.07463,562.02236 C 93.07648,561.88882 93.07883,561.75271 93.08166,561.61415 C 93.08473,561.46391 93.08838,561.31079 93.09259,561.15493 C 93.09691,560.99508 93.10182,560.83234 93.10731,560.66688 C 93.11292,560.49771 93.11914,560.32569 93.12596,560.15099 C 93.13378,559.95063 93.14239,559.74675 93.15177,559.53961 C 93.16326,559.2858 93.17591,559.02709 93.18968,558.76395 C 93.20337,558.50229 93.21818,558.23624 93.23407,557.96628 C 93.25028,557.69088 93.26762,557.4114 93.28606,557.12834 C 93.3043,556.84838 93.32361,556.56492 93.34397,556.27843 C 93.36407,555.99557 93.38519,555.70976 93.4073,555.42145 C 93.42909,555.13728 93.45184,554.85068 93.47552,554.56209 C 94.04391,547.63605 95.14995,539.56518 96.41282,536.40803 m 0,0 C 96.41663,536.3985 96.42046,536.38888 96.42431,536.37918 C 96.43008,536.36466 96.43589,536.34995 96.44175,536.33505 C 96.44954,536.31524 96.45741,536.2951 96.46536,536.27463 C 96.47921,536.23895 96.49331,536.20226 96.50765,536.16457 C 96.528,536.11111 96.54884,536.05564 96.57018,535.99819 C 96.59342,535.93563 96.61726,535.87071 96.6417,535.80347 C 96.67246,535.71883 96.70418,535.63051 96.73687,535.53857 C 96.77831,535.42201 96.82131,535.29962 96.8659,535.17153 C 96.91212,535.03875 96.96005,534.89984 97.00973,534.75493 C 97.06616,534.59033 97.12485,534.41798 97.18584,534.23808 C 97.25092,534.04614 97.31862,533.8456 97.38902,533.6367 C 97.46345,533.41582 97.54089,533.18559 97.62142,532.94628 C 97.70287,532.70423 97.78748,532.4529 97.87532,532.19256 C 97.96396,531.92987 98.05589,531.65802 98.1512,531.37729 C 98.25377,531.07519 98.36025,530.76282 98.47074,530.44054 C 98.59162,530.08795 98.71731,529.7235 98.84794,529.34766 C 102.44946,518.98534 109.80383,499.96906 123.70396,482.30244 m 0,0 C 123.7409,482.25548 123.7779,482.20847 123.81495,482.1614 C 123.87042,482.09093 123.926,482.02034 123.9817,481.94962 C 124.05575,481.85561 124.13001,481.76137 124.20447,481.6669 C 124.31572,481.52577 124.42743,481.38414 124.53959,481.24202 C 124.7254,481.00657 124.91246,480.76977 125.10073,480.53166 C 125.30576,480.27236 125.51223,480.01151 125.7201,479.74916 C 125.96306,479.44252 126.20793,479.13383 126.45464,478.82317 C 126.71687,478.49297 126.98118,478.16055 127.24749,477.82601 C 127.52883,477.47259 127.8124,477.1168 128.0981,476.75877 C 128.39828,476.3826 128.70082,476.00395 129.00561,475.62296 C 129.36175,475.17777 129.72096,474.72938 130.08306,474.27802 C 130.56916,473.6721 131.06047,473.06081 131.55657,472.44469 C 132.05835,471.82151 132.56503,471.19338 133.07617,470.56086 C 133.66561,469.83144 134.26098,469.09618 134.8616,468.35592 C 135.47934,467.59456 136.10263,466.82791 136.73074,466.05689 C 137.35534,465.29017 137.98471,464.51913 138.61812,463.74467 C 139.24683,462.97596 139.87952,462.20388 140.51549,461.42931 C 141.16262,460.64115 141.81315,459.85041 142.46632,459.05802 C 143.11121,458.27568 143.75868,457.49174 144.40801,456.70709 C 160.40828,437.37242 177.54059,417.60637 185.07924,410.79726 m 0,0 C 185.10141,410.77724 185.12376,410.75704 185.14628,410.73666 C 185.18,410.70616 185.21412,410.67526 185.24863,410.64397 C 185.30598,410.59198 185.36442,410.5389 185.42394,410.48475 C 185.49501,410.42009 185.56762,410.3539 185.64176,410.2862 C 185.72773,410.20769 185.81575,410.12715 185.90579,410.04461 C 186.00797,409.95094 186.11274,409.85469 186.22006,409.75591 C 186.35314,409.63343 186.49013,409.50706 186.63095,409.37688 C 186.78431,409.23512 186.94221,409.08885 187.10453,408.93818 C 187.29425,408.76208 187.49002,408.57997 187.69165,408.39204 C 187.93659,408.16374 188.19017,407.92685 188.45207,407.68169 C 188.742,407.41029 189.04212,407.12876 189.35199,406.83753 C 189.67319,406.53565 190.00486,406.22335 190.34651,405.90112 C 190.73458,405.5351 191.13552,405.15626 191.5486,404.76532 C 192.04441,404.29609 192.55771,403.80943 193.08724,403.30658 C 193.73605,402.69046 194.40922,402.05003 195.10442,401.38757 C 195.79574,400.72881 196.50885,400.04827 197.24146,399.34818 C 198.00903,398.61469 198.79801,397.85974 199.60578,397.08592 C 220.05502,377.49595 252.54274,345.80758 254.43927,343.82074 m 0,0 C 254.44428,343.8155 254.44943,343.8101 254.45473,343.80455 C 254.46266,343.79624 254.47092,343.78759 254.4795,343.7786 C 254.49661,343.76068 254.51501,343.7414 254.53469,343.72078 C 254.56077,343.69346 254.58909,343.66378 254.61963,343.63178 C 254.6575,343.5921 254.69878,343.54884 254.74341,343.50207 C 254.79201,343.45113 254.84458,343.39602 254.90105,343.33681 C 254.96198,343.27293 255.02745,343.20427 255.09737,343.13093 C 255.17797,343.04639 255.26448,342.95563 255.35676,342.85879 C 255.47375,342.73602 255.60002,342.60347 255.73528,342.46143 C 255.87549,342.31419 256.02536,342.15675 256.18458,341.98942 C 256.36544,341.79935 256.55836,341.59652 256.76288,341.38139 C 256.98108,341.15187 257.21249,340.90834 257.45654,340.65137 C 257.71458,340.37966 257.98675,340.09292 258.27239,339.79181 C 258.56131,339.48725 258.864,339.16799 259.17978,338.83471 C 259.53256,338.46239 259.90168,338.07257 260.28617,337.6662 C 260.67076,337.25973 261.07074,336.8367 261.48515,336.39807 C 261.91137,335.94694 262.35285,335.4793 262.80855,334.99619 C 263.2617,334.51578 263.72891,334.02008 264.20915,333.5101 C 264.68582,333.00391 265.17533,332.48365 265.67668,331.95032 C 266.18683,331.40762 266.70923,330.85139 267.24283,330.28268 C 280.75128,315.88523 301.43546,293.48657 312.13483,280.11236 m 0,0 C 312.16719,280.07191 312.19965,280.03134 312.23221,279.99064 C 312.28095,279.92971 312.32992,279.8685 312.37911,279.80702 C 312.46085,279.70485 312.54321,279.60192 312.62618,279.49823 C 312.75827,279.33315 312.89191,279.16615 313.02707,278.99727 C 313.19467,278.78786 313.36461,278.57555 313.53683,278.36041 C 313.72438,278.12612 313.91463,277.88848 314.10751,277.64757 C 314.33296,277.36599 314.562,277.07995 314.79452,276.7896 C 315.04168,276.48098 315.29277,276.16748 315.54765,275.84928 C 315.81692,275.51312 316.09042,275.17171 316.36799,274.82525 C 316.65963,274.46123 316.95576,274.09164 317.2562,273.71671 C 317.58879,273.30166 317.92665,272.88007 318.26953,272.45226 C 318.62495,272.00881 318.98576,271.55867 319.35168,271.10219 C 319.74843,270.60725 320.15119,270.10486 320.55959,269.59548 C 320.97845,269.07305 321.40324,268.54326 321.83357,268.0066 C 322.27356,267.45789 322.71935,266.902 323.17051,266.33945 C 323.68795,265.69426 324.21245,265.04031 324.74339,264.37838 C 325.29826,263.68661 325.86015,262.98613 326.42834,262.27784 C 326.99908,261.56638 327.57618,260.84703 328.1589,260.12071 C 328.74298,259.3927 329.33271,258.65768 329.92735,257.91657 C 330.57791,257.10577 331.23434,256.28768 331.89569,255.4635 C 350.12992,232.73972 372.09775,205.3863 377.52809,198.53933 m 0,0 C 377.5436,198.51978 377.55922,198.50009 377.57495,198.48025 C 377.60635,198.44066 377.6382,198.4005 377.67049,198.35978 C 377.72678,198.2888 377.78442,198.21612 377.84339,198.14175 C 377.91032,198.05736 377.97896,197.9708 378.04929,197.88211 C 378.1365,197.77214 378.2263,197.6589 378.31863,197.54246 C 378.41918,197.41565 378.52273,197.28505 378.62921,197.15075 C 378.74409,197.00585 378.86238,196.85665 378.98398,196.70326 C 379.12415,196.52645 379.26872,196.34407 379.41755,196.1563 C 379.60622,195.91827 379.80174,195.67158 380.00381,195.4166 C 380.21326,195.1523 380.42975,194.87909 380.65295,194.59739 C 380.90648,194.2774 381.16867,193.94645 381.43903,193.60513 C 381.72748,193.24097 382.02524,192.86501 382.33172,192.47798 C 382.65577,192.06876 382.98957,191.64716 383.33243,191.21404 C 383.67922,190.77596 384.03528,190.32609 384.39989,189.86533 C 384.79407,189.36719 385.19825,188.85632 385.61153,188.33384 C 386.02577,187.81014 386.44915,187.27477 386.88076,186.72887 C 387.31248,186.18283 387.75243,185.62624 388.1997,185.06025 C 388.65972,184.47813 389.12749,183.88605 389.60201,183.28525 C 390.07388,182.68781 390.55243,182.08175 391.03669,181.46828 C 391.57076,180.79171 392.11177,180.10612 392.65842,179.41314 C 405.778,162.78173 422.14425,141.894 423.70787,139.21348 m 0,0 C 423.71259,139.20539 423.71733,139.19729 423.72208,139.18917 C 423.72919,139.17702 423.73634,139.16484 423.74353,139.15263 C 423.75548,139.13235 423.76753,139.11199 423.77968,139.09155 C 423.79419,139.06715 423.80885,139.04263 423.82365,139.018 C 423.84081,138.98944 423.85817,138.96073 423.87572,138.93188 C 423.90061,138.89095 423.92589,138.84973 423.95155,138.80822 C 423.97949,138.76301 424.00788,138.71746 424.03671,138.67157 C 424.0704,138.61793 424.10469,138.56383 424.13957,138.50928 C 424.17664,138.4513 424.21437,138.39281 424.25274,138.33382 C 424.29328,138.2715 424.33453,138.20862 424.37648,138.1452 C 424.42055,138.07857 424.46539,138.01134 424.51097,137.94352 C 424.56143,137.86845 424.61279,137.79266 424.66503,137.71618 C 424.71918,137.6369 424.77427,137.55688 424.83026,137.47614 C 424.89386,137.38442 424.95862,137.29177 425.02449,137.19823 C 425.09184,137.10259 425.16034,137.00601 425.22994,136.90854 C 425.3009,136.80917 425.373,136.70887 425.44618,136.60767 C 425.52355,136.50067 425.60213,136.39267 425.68184,136.28372 C 425.76247,136.17352 425.84425,136.06235 425.92712,135.95026 C 426.01074,135.83716 426.09546,135.72312 426.1812,135.60819 C 426.27347,135.4845 426.36692,135.35978 426.46146,135.2341 C 426.56193,135.10053 426.66363,134.96586 426.76643,134.83018 C 426.86866,134.69525 426.97199,134.55932 427.07629,134.42245 C 427.19132,134.27151 427.30755,134.11943 427.42481,133.96632 C 430.23907,130.29166 433.64999,126.02105 435.50562,122.52809 " id="path1558"/>
    <path style="fill:none;stroke:#000000;stroke-width:1px;stroke-linecap:butt;stroke-linejoin:miter;stroke-opacity:1" d="m 25.980215,572.27979  C 25.98022,572.27979 25.98026,572.27982 25.98034,572.27988 C 25.98047,572.27997 25.98069,572.28013 25.981,572.28036 C 25.98142,572.28066 25.982,572.28108 25.98275,572.28162 C 25.98461,572.28296 25.98749,572.28504 25.99138,572.28784 C 25.99561,572.29089 26.00104,572.2948 26.00766,572.29954 C 26.01539,572.30508 26.02474,572.31177 26.03569,572.31957 C 26.05065,572.33023 26.06859,572.34297 26.08946,572.35771 C 26.11109,572.37299 26.13587,572.39042 26.16373,572.40991 C 26.1925,572.43004 26.22456,572.45237 26.25984,572.4768 C 26.29614,572.50194 26.33585,572.52931 26.3789,572.55881 C 26.42707,572.59182 26.47941,572.62749 26.53583,572.66568 C 26.59778,572.70761 26.66464,572.75258 26.73627,572.8004 C 26.82404,572.85899 26.91898,572.92186 27.02084,572.98865 C 27.12213,573.05507 27.23026,573.12537 27.34499,573.1992 C 27.46203,573.27452 27.58593,573.35352 27.71644,573.43584 C 27.85231,573.52154 27.99533,573.61083 28.14522,573.7033 C 31.74247,575.92253 39.29213,579.97269 46.71672,580.14536 m 0,0 C 46.73722,580.14584 46.75773,580.14632 46.77826,580.14681 C 46.80899,580.14754 46.83976,580.14828 46.87057,580.14903 C 46.91152,580.15003 46.95253,580.15104 46.99361,580.15207 C 47.06521,580.15387 47.137,580.15572 47.20897,580.15762 C 47.29065,580.15978 47.37257,580.16201 47.45472,580.1643 C 47.56678,580.16742 47.67927,580.17066 47.79219,580.17401 C 47.97493,580.17943 48.15877,580.18513 48.34366,580.19108 C 48.53531,580.19724 48.72808,580.20367 48.9219,580.21031 C 49.12205,580.21717 49.32332,580.22427 49.52565,580.23155 C 49.74376,580.2394 49.96309,580.24747 50.18355,580.25569 C 50.43836,580.26519 50.69468,580.2749 50.95237,580.28473 C 51.21301,580.29467 51.47505,580.30473 51.73834,580.31482 C 52.0135,580.32536 52.29003,580.33593 52.56775,580.34642 C 52.88391,580.35836 53.20163,580.37019 53.52065,580.38176 C 53.83789,580.39326 54.15642,580.4045 54.47599,580.41532 C 54.81081,580.42666 55.14678,580.43753 55.48362,580.44776 C 55.82471,580.45812 56.16669,580.46782 56.50927,580.47667 C 64.73123,580.68915 73.29759,580.4133 78.179,577.0468 m 0,0 C 78.19974,577.0325 78.22044,577.01821 78.2411,577.00392 C 78.30977,576.95644 78.37804,576.90903 78.44591,576.86168 C 78.51982,576.81012 78.59325,576.75864 78.66621,576.70724 C 78.75149,576.64717 78.83612,576.5872 78.92011,576.52734 C 79.03489,576.44553 79.14846,576.36392 79.26084,576.2825 C 79.37733,576.1981 79.49253,576.1139 79.60645,576.0299 C 79.72997,575.93882 79.85199,575.84797 79.97252,575.75733 C 80.10738,575.65592 80.24038,575.55477 80.37153,575.45387 C 80.5102,575.34719 80.6468,575.24079 80.78135,575.13465 C 80.91744,575.02729 81.05143,574.9202 81.18334,574.81335 C 81.32595,574.69783 81.46613,574.5826 81.6039,574.46763 C 81.75535,574.34124 81.90389,574.21516 82.04955,574.08936 C 82.1944,573.96426 82.3364,573.83943 82.47559,573.71484 C 82.61758,573.58774 82.75664,573.46089 82.8928,573.33425 C 83.03455,573.20241 83.17315,573.0708 83.30865,572.93938 C 86.56056,569.78528 88.02228,566.73918 88.18973,563.22247 m 0,0 C 88.19021,563.21246 88.19068,563.20246 88.19115,563.19247 C 88.19186,563.17751 88.19256,563.16257 88.19326,563.14765 C 88.19442,563.12287 88.19557,563.09814 88.19671,563.07347 C 88.19807,563.04402 88.19941,563.01465 88.20074,562.98536 C 88.20228,562.95139 88.2038,562.91753 88.2053,562.88378 C 88.20743,562.8359 88.20952,562.78823 88.21157,562.74077 C 88.2138,562.68908 88.21598,562.63764 88.21812,562.58644 C 88.22081,562.52199 88.22343,562.45792 88.22598,562.39421 C 88.22868,562.32691 88.2313,562.26001 88.23385,562.1935 C 88.23653,562.12362 88.23914,562.05416 88.24168,561.98511 C 88.24465,561.90442 88.24752,561.82429 88.25031,561.74468 C 88.25405,561.6378 88.25764,561.53186 88.2611,561.42677 C 88.2646,561.32048 88.26797,561.21506 88.27123,561.11043 C 88.27452,561.00486 88.2777,560.90009 88.2808,560.79604 C 88.28403,560.68768 88.28717,560.58009 88.29025,560.47318 C 88.29364,560.35566 88.29695,560.23896 88.30023,560.12295 C 88.30349,560.00759 88.30672,559.89291 88.30995,559.77878 C 88.31333,559.65921 88.31672,559.54025 88.32016,559.42175 C 88.32364,559.30175 88.32717,559.18223 88.33079,559.06303 C 88.41773,556.20223 88.55916,553.52642 89.38148,548.92143 m 0,0 C 89.38386,548.90808 89.38625,548.89472 89.38865,548.88135 C 89.39224,548.86134 89.39584,548.8413 89.39946,548.82124 C 89.40788,548.77457 89.41638,548.72778 89.42496,548.68086 C 89.43469,548.62762 89.44453,548.57422 89.45447,548.52066 C 89.4668,548.45424 89.47928,548.38758 89.49192,548.32068 C 89.50569,548.24782 89.51964,548.17468 89.53378,548.10125 C 89.5503,548.01543 89.56707,547.92922 89.58409,547.84264 C 89.60736,547.72432 89.63109,547.60529 89.65528,547.48558 C 89.68036,547.36149 89.70593,547.23667 89.73199,547.11113 C 89.76025,546.97501 89.78908,546.83805 89.81848,546.70028 C 89.84863,546.55898 89.87938,546.41682 89.91071,546.27384 C 89.94275,546.12765 89.9754,545.98059 90.00865,545.8327 C 90.04538,545.66936 90.08284,545.50501 90.12102,545.33968 C 90.15964,545.17246 90.199,545.00424 90.23909,544.83507 C 90.28098,544.65827 90.32367,544.48043 90.36713,544.3016 C 90.4137,544.10999 90.46116,543.91724 90.5095,543.72341 C 90.55921,543.52406 90.60985,543.32357 90.66139,543.122 C 90.71264,542.92156 90.76479,542.72006 90.81781,542.51756 C 90.87044,542.31656 90.92393,542.11458 90.97826,541.91168 C 91.03645,541.69435 91.0956,541.47596 91.15569,541.25659 C 92.59793,535.9918 94.58159,530.16353 96.77035,524.84802 " id="path1560"/>
    <path style="fill:none;stroke:#000000;stroke-width:1px;stroke-linecap:butt;stroke-linejoin:miter;stroke-opacity:1" d="m 403.39888,17.022472  C 403.39888,17.02247 403.39885,17.02251 403.39878,17.0226 C 403.39868,17.02273 403.3985,17.02296 403.39824,17.02329 C 403.3979,17.02372 403.39742,17.02433 403.3968,17.02511 C 403.39588,17.02627 403.39466,17.02781 403.39314,17.02973 C 403.39112,17.03228 403.38858,17.03549 403.38552,17.03936 C 403.38172,17.04416 403.37712,17.04997 403.37174,17.05677 C 403.36588,17.06418 403.35909,17.07277 403.35138,17.08252 C 403.34168,17.09479 403.33053,17.1089 403.31796,17.12481 C 403.30379,17.14274 403.28783,17.16296 403.27011,17.1854 C 403.24941,17.21163 403.22632,17.2409 403.20091,17.27312 C 403.17336,17.30806 403.14309,17.34647 403.11019,17.38824 C 403.07645,17.43108 403.03994,17.47745 403.00078,17.52723 C 402.96074,17.57813 402.91792,17.63259 402.87243,17.69048 C 400.94014,20.14973 394.19479,28.80142 391.17978,33.53933 m 0,0 C 387.64045,39.10113 373.98876,56.46068 371.88202,61.6854 " id="path1562"/>
    <path style="fill:none;stroke:#000000;stroke-width:1px;stroke-linecap:butt;stroke-linejoin:miter;stroke-opacity:1" d="m 429.77528,19.634831  C 429.77528,19.63483 451.26405,34.97191 455.22472,38.17416 m 0,0 C 459.18539,41.37641 474.60674,54.35394 478.14607,57.89326 " id="path1564"/>
    <path style="fill:none;stroke:#000000;stroke-width:1px;stroke-linecap:butt;stroke-linejoin:miter;stroke-opacity:1" d="m 409.37695,99.585646  C 409.37695,99.58565 388.553,78.87417 385.92727,78.61944 m 0,0 C 380.2812,78.07169 360.34604,111.83821 354.27862,116.05169 " id="path1570" sodipodi:nodetypes="csc"/>
  </g>
</svg>