<svg xmlns:dc="http://purl.org/dc/elements/1.1/" xmlns:cc="http://creativecommons.org/ns#" xmlns:rdf="http://www.w3.org/1999/02/22-rdf-syntax-ns#" xmlns:svg="http://www.w3.org/2000/svg" xmlns="http://www.w3.org/2000/svg" xmlns:sodipodi="http://sodipodi.sourceforge.net/DTD/sodipodi-0.dtd" xmlns:inkscape="http://www.inkscape.org/namespaces/inkscape" version="1.1" id="svg833" width="481.07379" height="484.90118" viewBox="0 0 481.07379 484.90118" sodipodi:docname="exp_spoon.svg" inkscape:version="1.0.2 (e86c870879, 2021-01-15, custom)">
  <metadata id="metadata839">
    <rdf:RDF>
      <cc:Work rdf:about="">
        <dc:format>image/svg+xml</dc:format>
        <dc:type rdf:resource="http://purl.org/dc/dcmitype/StillImage"/>
        <dc:title/>
      </cc:Work>
    </rdf:RDF>
  </metadata>
  <defs id="defs837"/>
  <sodipodi:namedview pagecolor="#ffffff" bordercolor="#666666" borderopacity="1" objecttolerance="10" gridtolerance="10" guidetolerance="10" inkscape:pageopacity="0" inkscape:pageshadow="2" inkscape:window-width="1500" inkscape:window-height="1041" id="namedview835" showgrid="false" fit-margin-top="0" fit-margin-left="0" fit-margin-right="0" fit-margin-bottom="0" inkscape:zoom="1.0217693" inkscape:cx="247.14592" inkscape:cy="268.96034" inkscape:window-x="268" inkscape:window-y="43" inkscape:window-maximized="0" inkscape:current-layer="layer1"/>
  <g inkscape:groupmode="layer" id="layer1" inkscape:label="vectorSpoon" style="display:inline" transform="translate(-50.688361,-50.179268)">
    <path style="fill:none;stroke:#000000;stroke-width:1px;stroke-linecap:butt;stroke-linejoin:miter;stroke-opacity:1" d="m 290.31142,311.41869  C 290.31142,311.41869 290.31195,311.4193 290.31302,311.42052 C 290.31515,311.42296 290.3194,311.42784 290.32575,311.43513 C 290.33682,311.44784 290.35429,311.46788 290.37806,311.49516 C 290.40504,311.52612 290.44014,311.56639 290.48323,311.61584 C 290.53666,311.67715 290.60239,311.75257 290.68017,311.84181 C 290.76487,311.93899 290.86387,312.05257 290.97685,312.18218 C 291.09874,312.32202 291.23691,312.48053 291.39096,312.65725 C 291.56853,312.86095 291.76721,313.08885 291.9864,313.34025 C 292.26427,313.65896 292.57509,314.01544 292.91765,314.40829 C 293.27274,314.8155 293.66193,315.26178 294.08387,315.74556 C 294.56315,316.29509 295.08468,316.89301 295.64647,317.53701 C 296.24585,318.2241 296.89106,318.96365 297.57969,319.75286 C 298.3078,320.58732 299.08445,321.4773 299.90678,322.4195 C 300.73854,323.3725 301.61703,324.37892 302.53931,325.43534 C 303.53639,326.57745 304.58465,327.778 305.68035,329.03266 C 306.77861,330.29025 307.92453,331.60221 309.11436,332.96419 C 310.30449,334.32653 311.53855,335.73891 312.81278,337.19698 C 314.12332,338.69661 315.47635,340.24457 316.86778,341.83612 C 318.25144,343.41878 319.67306,345.04455 321.12863,346.70876 C 322.73392,348.54415 324.38049,350.42631 326.06295,352.34898 C 366.44206,398.4931 427.49374,467.97404 434.60208,474.39446 m 0,0 C 434.62353,474.41384 434.64507,474.43332 434.66671,474.4529 C 434.6991,474.48221 434.73169,474.51175 434.76448,474.54152 C 434.81897,474.59099 434.87402,474.64108 434.92963,474.69179 C 434.99603,474.75234 435.06321,474.81378 435.13117,474.87609 C 435.20998,474.94835 435.28984,475.02178 435.37074,475.09636 C 435.4855,475.20216 435.60233,475.31028 435.7212,475.42067 C 435.85065,475.54089 435.98251,475.6638 436.11672,475.78933 C 436.27359,475.93605 436.43367,476.08636 436.59688,476.24014 C 436.77036,476.4036 436.94737,476.57099 437.1278,476.74217 C 437.31841,476.92301 437.51284,477.10809 437.71096,477.29726 C 437.91912,477.49601 438.13135,477.69927 438.3475,477.90686 C 438.58678,478.13666 438.83087,478.37176 439.07956,478.61193 C 439.33734,478.86088 439.60007,479.11527 439.86752,479.37483 C 440.17131,479.66966 440.48119,479.97117 440.79683,480.27895 C 441.11956,480.59365 441.44831,480.91491 441.78272,481.24231 C 442.12365,481.57609 442.47047,481.91625 442.8228,482.26235 C 443.19533,482.62829 443.57402,483.00086 443.95843,483.37954 C 444.34725,483.76256 444.74192,484.15183 445.14198,484.5468 C 445.54565,484.94534 445.95481,485.34969 446.36899,485.75928 C 446.8147,486.20006 447.26622,486.64691 447.72296,487.09914 C 448.20838,487.57975 448.69969,488.06643 449.19619,488.55834 C 449.68992,489.0475 450.18878,489.54183 450.69208,490.0405 C 451.24715,490.59047 451.80762,491.14572 452.37256,491.70514 C 465.93102,505.13133 482.06263,520.96213 487.88927,523.87543 m 0,0 C 487.90726,523.88443 487.92523,523.89343 487.94318,523.90242 C 487.97005,523.91588 487.99687,523.92934 488.02364,523.9428 C 488.05923,523.96069 488.09473,523.97857 488.13014,523.99645 C 488.21832,524.04096 488.30596,524.08544 488.39308,524.12988 C 488.48795,524.17827 488.58219,524.22661 488.67582,524.2749 C 488.78526,524.33134 488.89386,524.38771 489.00163,524.444 C 489.14891,524.52093 489.29466,524.59772 489.43891,524.67434 C 489.58844,524.75376 489.73636,524.83301 489.88273,524.91206 C 490.03388,524.99369 490.18337,525.07511 490.33126,525.1563 C 490.48344,525.23985 490.63392,525.32315 490.78276,525.40618 C 490.94929,525.49908 491.11377,525.59165 491.27629,525.68385 C 491.45473,525.78508 491.6308,525.88587 491.80461,525.98617 C 492.01757,526.10907 492.22713,526.23123 492.4335,526.35258 C 492.63872,526.47325 492.84078,526.59312 493.03988,526.7121 C 493.24299,526.83348 493.44302,526.95394 493.64018,527.07339 C 493.84544,527.19775 494.04759,527.32102 494.24687,527.44311 C 499.02949,530.3732 502.15782,532.62129 506.92042,532.87197 m 0,0 C 506.93357,532.87266 506.9467,532.87336 506.95981,532.87407 C 506.97944,532.87514 506.99902,532.87623 507.01856,532.87735 C 507.04453,532.87884 507.07043,532.88037 507.09625,532.88194 C 507.14126,532.88468 507.18604,532.88755 507.23059,532.89055 C 507.28115,532.89395 507.33142,532.89751 507.3814,532.90123 C 507.44958,532.90631 507.51722,532.91168 507.58434,532.91733 C 507.69296,532.92648 507.80021,532.93637 507.90613,532.94696 C 508.01592,532.95793 508.12429,532.96965 508.23128,532.98206 C 508.34176,532.99488 508.45077,533.00844 508.55837,533.02268 C 508.67437,533.03803 508.78873,533.05417 508.90152,533.07104 C 509.03188,533.09053 509.16014,533.11099 509.28641,533.1323 C 509.41413,533.15385 509.53981,533.17627 509.66357,533.19944 C 509.79291,533.22366 509.92014,533.2487 510.0454,533.27443 C 510.188,533.30373 510.32804,533.33392 510.46571,533.36481 C 510.60261,533.39553 510.73716,533.42694 510.86955,533.45885 C 511.00826,533.49229 511.1446,533.52628 511.27878,533.56059 C 511.41465,533.59534 511.54831,533.63042 511.67998,533.66561 C 514.83995,534.51025 516.85148,535.41723 520.76125,533.21799 m 0,0 C 520.77786,533.20865 520.79447,533.19928 520.81109,533.18988 C 520.86631,533.15862 520.92156,533.12702 520.97683,533.09508 C 521.03702,533.0603 521.09724,533.02512 521.15748,532.98954 C 521.22248,532.95115 521.2875,532.9123 521.35253,532.87299 C 521.42749,532.82768 521.50247,532.78176 521.57745,532.73524 C 521.6725,532.67627 521.76755,532.61633 521.86256,532.55545 C 521.96104,532.49234 522.05948,532.42821 522.15783,532.36308 C 522.26955,532.2891 522.38116,532.21384 522.49261,532.13732 C 522.61151,532.05568 522.73022,531.9726 522.84867,531.88813 C 522.97391,531.79881 523.09886,531.70793 523.22343,531.61552 C 523.34943,531.52206 523.47504,531.42704 523.60018,531.3305 C 523.73998,531.22265 523.87918,531.11291 524.01767,531.00134 C 524.15619,530.88974 524.294,530.7763 524.43097,530.66109 C 524.57184,530.54259 524.71182,530.42221 524.85078,530.30002 C 524.98896,530.17851 525.12613,530.05521 525.26216,529.93018 C 525.40093,529.80263 525.53851,529.67327 525.67476,529.54218 C 529.22086,526.13027 531.86624,521.54264 531.14187,516.95502 m 0,0 C 531.13979,516.94187 531.13764,516.92862 531.13541,516.91527 C 531.13208,516.89529 531.12858,516.87509 531.12492,516.85466 C 531.11883,516.82072 531.11228,516.78617 531.10527,516.75101 C 531.09691,516.70903 531.0879,516.66619 531.07824,516.6225 C 531.06704,516.57183 531.05497,516.52001 531.04204,516.46706 C 531.0237,516.39195 531.00363,516.31456 530.98185,516.23493 C 530.95814,516.14822 530.9324,516.05885 530.90467,515.96689 C 530.87226,515.8594 530.83713,515.74837 530.79932,515.63388 C 530.75339,515.4948 530.70352,515.35062 530.64979,515.20149 C 530.59031,515.03641 530.52611,514.86527 530.4573,514.68828 C 530.38597,514.50482 530.30969,514.31509 530.22859,514.11932 C 530.14484,513.91716 530.05595,513.70856 529.96206,513.49378 C 529.85165,513.2412 529.73433,512.98008 529.61034,512.71085 C 529.47924,512.42619 529.34068,512.13246 529.19494,511.83017 C 529.04753,511.52441 528.89277,511.2099 528.73095,510.88715 C 528.56767,510.56149 528.3972,510.22745 528.21984,509.88557 C 528.03514,509.52952 527.84296,509.16497 527.64364,508.79252 C 527.43741,508.40716 527.22354,508.01335 527.0024,507.61176 C 526.77496,507.19873 526.53983,506.77747 526.29741,506.34872 C 526.05634,505.92237 525.80806,505.48861 525.55297,505.04816 C 525.28571,504.5867 525.01098,504.1179 524.72923,503.64259 C 524.44392,503.16128 524.15141,502.67329 523.85217,502.17949 C 516.67044,490.32834 505.61495,475.13036 497.23183,468.51211 m 0,0 C 497.19238,468.48097 497.15246,468.44928 497.11207,468.41704 C 496.97785,468.30989 496.83846,468.19667 496.69399,468.0775 C 496.53667,467.94773 496.37332,467.8109 496.20408,467.66716 C 496.00627,467.49916 495.8004,467.32172 495.58667,467.13507 C 495.35949,466.93668 495.12343,466.72789 494.87873,466.50898 C 494.62022,466.27772 494.35207,466.03517 494.07455,465.78166 C 493.78297,465.51531 493.48105,465.23686 493.16912,464.9467 C 492.82382,464.62549 492.46625,464.28993 492.09685,463.94054 C 491.71394,463.57838 491.31832,463.20136 490.91048,462.81007 C 490.44722,462.3656 489.9682,461.90271 489.47413,461.42225 C 488.96897,460.93101 488.44808,460.4214 487.91223,459.89434 C 487.29765,459.28985 486.66339,458.6624 486.01061,458.01337 C 485.21079,457.21814 484.38317,456.39051 483.52988,455.53301 C 482.68136,454.6803 481.80746,453.79806 480.91027,452.88877 C 479.99501,451.96117 479.05552,451.00542 478.09403,450.02417 C 453.06917,424.48505 413.1388,381.66941 397.57785,368.16609 m 0,0 C 397.53598,368.12976 397.49395,368.09329 397.45175,368.05668 C 397.38858,368.00187 397.32504,367.94674 397.26114,367.8913 C 397.15496,367.79918 397.04777,367.7062 396.93958,367.61236 C 396.76735,367.46297 396.59259,367.31141 396.41535,367.15773 C 396.19558,366.96717 395.972,366.77334 395.74469,366.57631 C 395.49715,366.36175 395.2452,366.1434 394.98895,365.92136 C 394.6664,365.64188 394.33704,365.35655 394.00109,365.06557 C 393.5752,364.69669 393.13873,364.31872 392.69214,363.93206 C 392.22922,363.53126 391.75543,363.12112 391.27128,362.70208 C 390.74633,362.24773 390.2092,361.78292 389.66056,361.3082 C 389.04671,360.77706 388.41844,360.23351 387.77667,359.67834 C 387.0981,359.09134 386.40444,358.49135 385.69678,357.8793 C 384.98101,357.26023 384.25092,356.62881 383.50763,355.986 C 382.73084,355.31422 381.93963,354.63 381.1353,353.93443 C 380.32736,353.23574 379.50618,352.5256 378.67306,351.80512 C 377.83799,351.08296 376.99093,350.3504 376.13319,349.60856 C 375.2216,348.82016 374.29795,348.02127 373.36381,347.21324 C 372.43489,346.40973 371.49559,345.59717 370.54747,344.77688 C 369.55411,343.91745 368.55107,343.04954 367.54013,342.17466 C 366.54201,341.31088 365.53619,340.4403 364.52438,339.56438 C 363.5271,338.70104 362.52401,337.83251 361.51675,336.96018 C 337.34243,316.02427 310.76503,292.90188 304.49827,286.85121 m 0,0 C 304.46817,286.82214 304.43756,286.79266 304.40645,286.76277 C 304.30306,286.66343 304.19414,286.55954 304.0798,286.4512 C 303.95528,286.33322 303.82433,286.20996 303.68711,286.08153 C 303.53906,285.94297 303.38371,285.7984 303.22124,285.64797 C 303.0206,285.46219 302.80911,285.26747 302.58713,285.0641 C 302.3539,284.85042 302.10909,284.62719 301.85312,284.39474 C 301.56976,284.13741 301.27272,283.86878 300.96256,283.58929 C 300.64107,283.29958 300.30549,282.9982 299.95645,282.68565 C 299.55997,282.33063 299.14612,281.96119 298.71583,281.57806 C 298.25675,281.1693 297.77895,280.74496 297.28355,280.30592 C 296.75975,279.84171 296.21628,279.36106 295.65446,278.86502 C 295.0862,278.3633 294.49916,277.84583 293.89472,277.31369 C 293.21948,276.71921 292.52252,276.10643 291.80575,275.47685 C 291.0888,274.84711 290.35203,274.20056 289.59736,273.53871 C 288.82118,272.858 288.02606,272.1611 287.21409,271.44965 C 286.40665,270.74218 285.58254,270.02032 284.74381,269.28568 C 283.91131,268.5565 283.06441,267.81474 282.2051,267.06196 C 281.3077,266.27581 280.39677,265.47765 279.47459,264.66928 C 256.75105,244.75015 227.1968,218.6287 224.91349,213.14879 m 0,0 C 224.90657,213.13218 224.89966,213.11562 224.89275,213.0991 C 224.88241,213.07437 224.87209,213.04974 224.86178,213.02521 C 224.84123,212.97629 224.82074,212.92776 224.80031,212.87961 C 224.77323,212.8158 224.74627,212.75267 224.71942,212.6902 C 224.68612,212.61274 224.65299,212.5363 224.62004,212.46086 C 224.58415,212.37871 224.54847,212.29774 224.513,212.21793 C 224.47473,212.13182 224.43671,212.04706 224.39894,211.96361 C 224.3554,211.86742 224.31219,211.77297 224.26932,211.68021 C 224.21195,211.55608 224.15518,211.43496 224.09903,211.31673 C 224.02365,211.15801 223.94939,211.00448 223.87628,210.85582 C 223.80233,210.70546 223.72956,210.56008 223.65801,210.41934 C 223.58066,210.26719 223.50473,210.12047 223.43027,209.97875 C 223.34842,209.82295 223.26835,209.6732 223.19012,209.52894 C 223.11233,209.38548 223.03636,209.24745 222.96228,209.11428 C 222.88058,208.96742 222.80118,208.82648 222.72417,208.69072 C 220.87584,205.43238 220.40076,205.15626 222.49135,197.57785 m 0,0 C 222.49689,197.55778 222.50244,197.53766 222.508,197.51749 C 222.51633,197.4873 222.52469,197.457 222.53308,197.42659 C 222.54423,197.38616 222.55544,197.34553 222.5667,197.30471 C 222.58352,197.24372 222.60046,197.1823 222.61751,197.12045 C 222.64576,197.01798 222.67432,196.91433 222.70318,196.80951 C 222.73461,196.69536 222.76639,196.57983 222.7985,196.46294 C 222.84469,196.29479 222.89157,196.12383 222.93908,195.95013 C 222.99459,195.74716 223.05096,195.54044 223.10809,195.33008 C 223.18478,195.04769 223.26284,194.75875 223.34204,194.46351 C 223.42215,194.16488 223.50342,193.85981 223.58562,193.54857 C 223.66856,193.23451 223.75245,192.91417 223.83704,192.58782 C 223.92513,192.24795 224.01398,191.90156 224.10331,191.54896 C 224.19285,191.19554 224.28287,190.83589 224.3731,190.47032 C 224.46335,190.10465 224.5538,189.73306 224.64418,189.35586 C 224.73713,188.96791 224.83001,188.57403 224.9225,188.17456 C 225.01448,187.77732 225.10608,187.37455 225.197,186.96659 C 225.28975,186.55041 225.3818,186.12883 225.47282,185.70221 C 225.56758,185.25806 225.66124,184.80844 225.75343,184.35376 C 227.96603,173.44142 229.33463,159.6121 224.91349,148.44291 m 0,0 C 224.90034,148.40969 224.88717,148.37647 224.87399,148.34324 C 224.85426,148.2935 224.83449,148.24375 224.81468,148.19399 C 224.78835,148.12785 224.76195,148.06169 224.73549,147.99552 C 224.69596,147.89665 224.65628,147.79775 224.61646,147.69882 C 224.55049,147.53493 224.48412,147.37095 224.41736,147.2069 C 224.34466,147.02825 224.2715,146.84951 224.19789,146.67069 C 224.11185,146.46168 224.02519,146.25257 223.93792,146.04338 C 223.81865,145.75749 223.69824,145.47145 223.57671,145.18531 C 223.45074,144.88871 223.32358,144.592 223.19525,144.29525 C 223.05611,143.97349 222.9156,143.65168 222.77376,143.32989 C 222.61506,142.96985 222.45469,142.60984 222.29271,142.24996 C 222.12145,141.86945 221.94839,141.48909 221.77359,141.10901 C 221.59679,140.72457 221.41822,140.34041 221.23794,139.95667 C 221.04953,139.55563 220.85926,139.15505 220.6672,138.75507 C 220.47428,138.35329 220.27956,137.95212 220.08312,137.55171 C 219.88622,137.15037 219.68759,136.74979 219.4873,136.35013 C 219.26818,135.91289 219.04708,135.47674 218.8241,135.04189 C 212.67635,123.05249 205.10293,112.0491 198.2699,106.22837 m 0,0 C 198.25121,106.21245 198.23243,106.19645 198.21356,106.18037 C 198.18532,106.1563 198.15687,106.13205 198.12822,106.10761 C 198.05204,106.04264 197.97442,105.97639 197.89538,105.90888 C 197.79737,105.82517 197.69717,105.73952 197.59481,105.65197 C 197.48333,105.55663 197.36929,105.45903 197.25272,105.35923 C 197.11647,105.24258 196.97676,105.12292 196.83364,105.00032 C 196.68151,104.87001 196.52554,104.73638 196.36578,104.59953 C 196.19701,104.45496 196.02402,104.30679 195.84688,104.15513 C 195.62587,103.96591 195.39841,103.77127 195.16465,103.57142 C 194.85084,103.30314 194.52567,103.02547 194.1895,102.73893 C 193.84948,102.4491 193.49821,102.1502 193.13606,101.84276 C 192.75759,101.52147 192.36724,101.19085 191.96543,100.85153 C 191.56182,100.51069 191.14665,100.16106 190.72036,99.80327 C 190.29307,99.44464 189.8546,99.07781 189.40539,98.70341 C 188.95606,98.32891 188.49598,97.94683 188.02559,97.55781 C 187.54179,97.1577 187.04708,96.75024 186.54194,96.33611 C 186.03962,95.92429 185.52698,95.50588 185.00448,95.08155 C 184.48587,94.66037 183.95755,94.23335 183.41997,93.80115 C 182.85856,93.34979 182.28705,92.89279 181.70597,92.43089 C 167.38757,81.04915 147.25552,66.69269 129.06574,60.553633 m 0,0 C 129.01038,60.53495 128.95507,60.51629 128.89981,60.49765 C 128.81709,60.46975 128.73449,60.44191 128.652,60.41412 C 128.48752,60.35872 128.32351,60.30354 128.15996,60.24858 C 127.88902,60.15753 127.61935,60.06709 127.35095,59.97727 C 127.05866,59.87945 126.76788,59.78236 126.47858,59.686 C 126.14045,59.57337 125.80435,59.46173 125.47027,59.35109 C 125.06444,59.21669 124.66158,59.08377 124.26166,58.95233 C 123.81895,58.80682 123.37984,58.66313 122.94429,58.52126 C 122.49282,58.3742 122.04517,58.2291 121.60129,58.08597 C 121.12,57.93078 120.64315,57.7779 120.17066,57.62735 C 119.68606,57.47294 119.20605,57.32098 118.73056,57.17148 C 118.24439,57.01862 117.76295,56.86833 117.28615,56.72063 C 116.75956,56.5575 116.23864,56.39752 115.72328,56.24071 C 115.20202,56.08211 114.68645,55.92675 114.17646,55.77465 C 113.58835,55.59926 113.00767,55.4282 112.43425,55.26151 C 111.84448,55.09007 111.2624,54.92326 110.68782,54.7611 C 110.11645,54.59984 109.5525,54.44319 108.99579,54.29117 C 108.44322,54.14028 107.89779,53.99395 107.35932,53.85222 C 106.79698,53.7042 106.24223,53.5612 105.69488,53.42324 C 92.20767,50.0238 83.21314,49.68854 75.778547,52.941176 m 0,0 C 75.7564,52.95086 75.73429,52.96053 75.71221,52.97019 C 75.67915,52.98464 75.64616,52.99906 75.61324,53.01344 C 75.56947,53.03256 75.52582,53.05161 75.48229,53.0706 C 75.4281,53.09424 75.37409,53.11778 75.32027,53.14123 C 75.23458,53.17855 75.14936,53.21563 75.0646,53.25247 C 74.94898,53.30272 74.83422,53.35253 74.72031,53.40191 C 74.58717,53.45963 74.45518,53.51677 74.32433,53.57336 C 74.18525,53.63351 74.04745,53.69304 73.91091,53.75198 C 73.72821,53.83085 73.54777,53.90867 73.36953,53.98553 C 73.13026,54.08871 72.89497,54.19015 72.66353,54.29006 C 72.42944,54.39111 72.19928,54.49059 71.97293,54.58872 C 71.73638,54.69127 71.50398,54.79234 71.27558,54.89217 C 71.04616,54.99245 70.82077,55.09148 70.59927,55.18951 C 70.37725,55.28777 70.15913,55.38503 69.94476,55.48153 C 69.71693,55.58409 69.49333,55.68579 69.27377,55.78693 C 69.05544,55.88751 68.8411,55.98754 68.63058,56.08731 C 68.41582,56.18909 68.20502,56.2906 67.998,56.39215 C 67.79325,56.49259 67.59219,56.59307 67.39463,56.6939 C 67.19958,56.79345 67.00794,56.89333 66.81953,56.99383 C 66.63383,57.09289 66.45127,57.19256 66.27167,57.29311 C 61.96131,59.70636 59.35873,62.62873 56.055363,69.896194 m 0,0 C 56.04498,69.91903 56.03462,69.94188 56.02427,69.96475 C 56.00878,69.99898 55.99333,70.03324 55.97791,70.06753 C 55.95229,70.12451 55.92678,70.18158 55.90137,70.23873 C 55.87103,70.30697 55.84084,70.37533 55.81079,70.44381 C 55.77595,70.52322 55.7413,70.6028 55.70685,70.68254 C 55.65309,70.80697 55.59981,70.93179 55.54701,71.05701 C 55.4853,71.20337 55.42425,71.35026 55.36385,71.49769 C 55.29965,71.65439 55.23619,71.8117 55.17347,71.9696 C 55.10279,72.14754 55.03306,72.32624 54.96427,72.50569 C 54.88811,72.70434 54.81311,72.90392 54.73926,73.10441 C 54.66271,73.31223 54.5874,73.52104 54.51333,73.73082 C 54.43684,73.94745 54.36167,74.16512 54.28782,74.38382 C 54.20459,74.63029 54.12304,74.87807 54.04316,75.12715 C 53.96173,75.38108 53.88204,75.63635 53.80409,75.89296 C 53.72167,76.16428 53.6412,76.43709 53.56268,76.71137 C 53.48326,76.98879 53.40583,77.26771 53.3304,77.54812 C 53.24885,77.85128 53.16963,78.15617 53.09274,78.46278 C 53.01318,78.78002 52.93612,79.09909 52.86155,79.41997 C 52.78486,79.74999 52.7108,80.08193 52.63938,80.41576 C 52.56836,80.74772 52.49995,81.08155 52.43415,81.41721 C 52.3634,81.77814 52.29566,82.1412 52.23094,82.50635 C 52.16715,82.86626 52.10629,83.2282 52.04836,83.59214 C 50.65799,92.32672 50.95561,102.21309 52.941176,112.80277 m 0,0 C 52.9474,112.83599 52.95363,112.8692 52.95987,112.9024 C 52.96921,112.9521 52.97856,113.00178 52.98792,113.05145 C 53.00036,113.11747 53.01281,113.18346 53.02528,113.24942 C 53.04702,113.36439 53.06881,113.47926 53.09066,113.59404 C 53.12165,113.75687 53.15276,113.91952 53.18399,114.082 C 53.218,114.25894 53.25216,114.43568 53.28647,114.61223 C 53.32966,114.83446 53.3731,115.05639 53.41681,115.27806 C 53.46607,115.52785 53.51567,115.7773 53.56564,116.02646 C 53.62096,116.30228 53.67674,116.57774 53.73302,116.8529 C 53.79136,117.13812 53.85024,117.42302 53.90971,117.70767 C 53.97112,118.0016 54.03316,118.29526 54.09588,118.58872 C 54.16349,118.90507 54.23189,119.22119 54.30114,119.53717 C 54.38426,119.91644 54.46862,120.2955 54.55432,120.67452 C 54.64389,121.07062 54.73493,121.46668 54.82757,121.86287 C 54.92062,122.26083 55.01529,122.65893 55.1117,123.05734 C 55.22081,123.50821 55.33215,123.95948 55.44592,124.41142 C 58.5828,136.87209 63.56516,149.84085 74.39446,168.85813 m 0,0 C 74.42283,168.90796 74.45122,168.95776 74.47962,169.00753 C 74.52214,169.08204 74.5647,169.15649 74.60729,169.23087 C 74.69221,169.37919 74.77727,169.52726 74.86246,169.67509 C 74.96125,169.84652 75.06022,170.01762 75.15937,170.18838 C 75.30003,170.43062 75.44105,170.67219 75.58242,170.91309 C 75.73637,171.17543 75.89075,171.43697 76.04554,171.69771 C 76.22646,172.00247 76.40795,172.30614 76.59001,172.60871 C 76.81117,172.97627 77.03316,173.34221 77.25596,173.70653 C 77.5026,174.10983 77.75024,174.51114 77.99886,174.91046 C 78.25656,175.32437 78.51532,175.73614 78.7751,176.14576 C 79.05677,176.58989 79.33965,177.03149 79.62372,177.47055 C 79.91506,177.92085 80.20765,178.36848 80.50145,178.81342 C 80.84103,179.32769 81.18223,179.83837 81.525,180.34544 C 81.8717,180.85832 82.22001,181.3675 82.56989,181.87297 C 82.94814,182.41944 83.32822,182.96157 83.71006,183.49933 C 84.10514,184.05573 84.50211,184.60746 84.9009,185.15448 C 85.32312,185.73364 85.74738,186.30753 86.1736,186.87611 C 97.92523,202.55281 111.16798,214.19662 124.22145,221.10727 m 0,0 C 124.25674,221.12596 124.29205,221.1446 124.32738,221.1632 C 124.38027,221.19105 124.43321,221.2188 124.48619,221.24646 C 124.57422,221.29242 124.66237,221.33813 124.75064,221.38358 C 124.85603,221.43785 124.96159,221.49176 125.06731,221.54531 C 125.18991,221.60741 125.31273,221.66902 125.43577,221.73015 C 125.5754,221.79953 125.7153,221.86828 125.85547,221.93642 C 126.02928,222.02091 126.20351,222.10445 126.37814,222.18706 C 126.56831,222.27702 126.75896,222.36586 126.95007,222.4536 C 127.15626,222.54827 127.36298,222.64165 127.57022,222.73377 C 127.82616,222.84753 128.08288,222.95936 128.34035,223.06928 C 128.66158,223.20642 128.98397,223.34059 129.30744,223.47185 C 129.74168,223.64805 130.17786,223.81899 130.61581,223.9848 C 131.05878,224.15252 131.50355,224.31499 131.94994,224.47234 C 132.41645,224.63678 132.88472,224.79563 133.35453,224.94904 C 133.82645,225.10314 134.29992,225.25175 134.77473,225.39503 C 135.266,225.54327 135.75869,225.6858 136.25257,225.82278 C 136.76052,225.96367 137.26972,226.09869 137.77991,226.22803 C 138.28724,226.35665 138.79555,226.47965 139.30457,226.59721 C 139.83787,226.72038 140.37195,226.83758 140.90651,226.94901 C 141.44782,227.06185 141.98962,227.16878 142.53159,227.27001 C 155.53887,229.69952 168.646,228.84778 177.50865,227.68166 m 0,0 C 177.53495,227.6782 177.56123,227.67473 177.58748,227.67126 C 177.62678,227.66606 177.66603,227.66084 177.70523,227.65561 C 177.75734,227.64866 177.80937,227.64168 177.86131,227.63467 C 177.95184,227.62246 178.04211,227.61017 178.13212,227.59781 C 178.23427,227.58378 178.33608,227.56965 178.43756,227.55544 C 178.5634,227.53781 178.68873,227.52005 178.81356,227.50216 C 178.9495,227.48268 179.08485,227.46305 179.21962,227.44328 C 179.36503,227.42195 179.50976,227.40047 179.65383,227.37885 C 179.83175,227.35215 180.00866,227.32523 180.18459,227.29814 C 180.36943,227.26967 180.55318,227.24101 180.73588,227.21219 C 180.93813,227.18029 181.13908,227.1482 181.33877,227.11597 C 181.54576,227.08256 181.7514,227.04901 181.95574,227.01537 C 182.20895,226.97368 182.46016,226.93186 182.70945,226.89002 C 182.97303,226.84578 183.23447,226.80152 183.49386,226.75738 C 183.75623,226.71273 184.01651,226.6682 184.2748,226.62392 C 184.55404,226.57605 184.83096,226.52848 185.10569,226.48139 C 185.38106,226.43419 185.65423,226.38747 185.92534,226.34141 C 186.19652,226.29534 186.46563,226.24993 186.7328,226.20536 C 187.00759,226.15952 187.28033,226.11457 187.55117,226.0707 C 187.82049,226.02707 188.08793,225.98451 188.35363,225.94322 C 188.63201,225.89996 188.90848,225.85808 189.18321,225.8178 C 189.46141,225.77701 189.73782,225.73787 190.0126,225.7006 C 196.60744,224.80619 202.26892,224.99075 209.34256,229.41176 m 0,0 C 209.37578,229.43252 209.40915,229.45345 209.44268,229.47455 C 209.55411,229.54468 209.66725,229.6167 209.78206,229.69057 C 209.90709,229.77101 210.03411,229.85365 210.16307,229.93845 C 210.3138,230.03756 210.46718,230.13962 210.62314,230.24457 C 210.8126,230.37205 211.00587,230.50379 211.20283,230.63968 C 211.42086,230.79011 211.64341,230.94562 211.8703,231.10606 C 212.10548,231.27237 212.34533,231.44397 212.58965,231.6207 C 212.85456,231.81233 213.12473,232.00998 213.39992,232.21345 C 213.68216,232.42213 213.96968,232.63693 214.26221,232.85761 C 214.56131,233.08325 214.86565,233.31504 215.17495,233.55274 C 215.52969,233.82536 215.89096,234.10574 216.25832,234.39352 C 216.70844,234.74612 217.16771,235.10982 217.63536,235.48393 C 218.1004,235.85595 218.57372,236.23826 219.05455,236.63019 C 219.54507,237.03002 220.04341,237.43986 220.54875,237.85899 C 221.04855,238.27352 221.5552,238.69714 222.06791,239.12916 C 222.57412,239.5557 223.08624,239.99042 223.60351,240.43266 C 224.11335,240.86855 224.6282,241.31174 225.14732,241.76159 C 237.60623,252.55806 252.52826,267.19162 259.86159,276.81661 m 0,0 C 259.88374,276.84568 259.9059,276.87473 259.92806,276.90377 C 259.96124,276.94725 259.99444,276.9907 260.02766,277.03413 C 260.07182,277.09186 260.11602,277.14955 260.16026,277.20719 C 260.23737,277.30766 260.31459,277.408 260.39192,277.5082 C 260.50162,277.65035 260.61154,277.79223 260.72167,277.93384 C 260.8416,278.08805 260.96178,278.24194 261.08219,278.39551 C 261.23376,278.58881 261.3857,278.78161 261.53799,278.9739 C 261.73105,279.21766 261.92467,279.4606 262.1188,279.70272 C 262.32003,279.95369 262.52181,280.20378 262.72408,280.45298 C 262.95384,280.73604 263.18424,281.01796 263.4152,281.29873 C 263.66161,281.59828 263.90865,281.89652 264.15622,282.19344 C 264.41799,282.50739 264.68035,282.81986 264.94319,283.13085 C 265.20904,283.44541 265.47538,283.75845 265.74209,284.06997 C 266.01121,284.3843 266.2807,284.69708 266.55044,285.0083 C 266.84072,285.34322 267.13129,285.67633 267.42199,286.00762 C 267.74002,286.37007 268.05821,286.73034 268.37636,287.08842 C 277.1481,296.96126 285.885,305.16963 290.31142,311.41869 m 0,0 Z " id="path846" sodipodi:nodetypes="csssssssssssssssssssssc"/>
    <path style="fill:none;stroke:#000000;stroke-width:1px;stroke-linecap:butt;stroke-linejoin:miter;stroke-opacity:1" d="m 302.16263,284.86159  C 302.1654,284.86505 302.16818,284.86854 302.17098,284.87207 C 302.17517,284.87735 302.1794,284.88271 302.18366,284.88815 C 302.18932,284.89538 302.19504,284.90274 302.20082,284.91023 C 302.20946,284.92143 302.21824,284.93292 302.22715,284.94471 C 302.24191,284.96424 302.25703,284.98458 302.27251,285.00572 C 302.28936,285.02874 302.30663,285.05271 302.32431,285.07761 C 302.34498,285.10672 302.36621,285.1371 302.38798,285.16873 C 302.41112,285.20235 302.43487,285.23738 302.45921,285.27379 C 302.48492,285.31225 302.51129,285.35225 302.53828,285.39375 C 302.56664,285.43735 302.5957,285.48261 302.62542,285.52948 C 302.66015,285.58425 302.69579,285.64123 302.73228,285.70034 C 302.78127,285.77969 302.8318,285.86289 302.88376,285.94978 C 302.93632,286.03767 302.99033,286.12933 303.04568,286.22459 C 303.10951,286.33444 303.17512,286.44908 303.24231,286.56824 C 303.31142,286.6908 303.38221,286.81815 303.45447,286.95 C 303.52633,287.08112 303.59965,287.21669 303.67422,287.35644 C 303.74824,287.49515 303.8235,287.63798 303.8998,287.78465 C 303.97744,287.93389 304.05616,288.08711 304.13574,288.24402 C 304.21432,288.39894 304.29374,288.55746 304.37381,288.7193 C 306.34682,292.70725 308.71286,298.71176 308.47751,302.59515 m 0,0 C 308.47701,302.60346 308.4765,302.61176 308.47599,302.62005 C 308.47523,302.63246 308.47446,302.64485 308.47368,302.65723 C 308.47239,302.6778 308.47108,302.69832 308.46975,302.71879 C 308.46816,302.74323 308.46654,302.7676 308.46489,302.7919 C 308.46297,302.82008 308.46101,302.84816 308.45901,302.87615 C 308.45674,302.90791 308.45442,302.93955 308.45204,302.97107 C 308.44909,303.01015 308.44605,303.04904 308.44292,303.08774 C 308.43951,303.12989 308.43599,303.17182 308.43235,303.21352 C 308.4281,303.26226 308.42369,303.3107 308.41912,303.35883 C 308.41357,303.4173 308.40778,303.47532 308.40173,303.53289 C 308.39503,303.59662 308.38801,303.6598 308.38065,303.72243 C 308.37303,303.78735 308.36504,303.85167 308.35667,303.9154 C 308.34716,303.98779 308.33715,304.05941 308.32661,304.13026 C 308.31396,304.2153 308.30054,304.29923 308.2863,304.38205 C 308.26885,304.48353 308.25016,304.58334 308.23012,304.68148 C 308.21019,304.77908 308.18893,304.87502 308.16623,304.96931 C 308.14245,305.0681 308.11709,305.16507 308.09003,305.26022 C 307.40497,307.66893 305.62947,308.91004 300.77855,308.91004 m 0,0 C 292.70385,308.91004 283.73702,303.46021 283.73702,303.46021 " id="path848" sodipodi:nodetypes="cssc"/>
    <path style="fill:none;stroke:#000000;stroke-width:1px;stroke-linecap:butt;stroke-linejoin:miter;stroke-opacity:1" d="m 524.33558,523.60156  C 524.33558,523.60156 524.33558,523.60158 524.33558,523.60163 C 524.33558,523.6017 524.33558,523.60183 524.33558,523.60201 C 524.33558,523.60237 524.33558,523.60295 524.33558,523.60374 C 524.33557,523.60479 524.33556,523.60621 524.33554,523.608 C 524.33552,523.61022 524.33549,523.61301 524.33544,523.61636 C 524.33539,523.62 524.33532,523.6243 524.33522,523.62925 C 524.33512,523.63459 524.33498,523.64068 524.3348,523.6475 C 524.3346,523.65536 524.33435,523.66419 524.33403,523.67397 C 524.33362,523.68637 524.33311,523.70028 524.33246,523.71565 C 524.33179,523.73158 524.33097,523.74908 524.32998,523.76809 C 524.32885,523.78968 524.32749,523.81321 524.32586,523.83859 C 524.32412,523.86567 524.32207,523.89485 524.31965,523.92602 C 524.31709,523.95898 524.31412,523.99417 524.31068,524.03145 C 524.3072,524.06915 524.30323,524.10899 524.29871,524.15083 C 524.29366,524.19757 524.28791,524.24681 524.28138,524.29835 C 524.27485,524.3499 524.26753,524.40376 524.25933,524.45973 C 524.25089,524.51729 524.24152,524.57708 524.23111,524.63889 C 524.22076,524.70036 524.20938,524.76383 524.19688,524.82909 C 524.18447,524.89386 524.17095,524.9604 524.15622,525.0285 C 524.14123,525.09779 524.12499,525.1687 524.10739,525.24101 C 523.66186,527.07163 522.34658,529.80127 518.46342,529.96308 m 0,0 C 518.45168,529.96357 518.43994,529.96406 518.4282,529.96455 C 518.41062,529.96528 518.39304,529.966 518.37546,529.96672 C 518.34625,529.96791 518.31704,529.96909 518.28783,529.97026 C 518.24132,529.97212 518.19481,529.97395 518.1483,529.97574 C 518.09063,529.97796 518.03296,529.98013 517.97529,529.98225 C 517.91249,529.98456 517.84969,529.98681 517.78689,529.98899 C 517.71349,529.99154 517.6401,529.994 517.56671,529.99636 C 517.4887,529.99887 517.4107,530.00128 517.3327,530.00358 C 517.2503,530.00601 517.16791,530.00831 517.08552,530.01048 C 516.99896,530.01276 516.91241,530.0149 516.82587,530.01689 C 516.73007,530.01909 516.63428,530.0211 516.5385,530.02292 C 516.43922,530.0248 516.33996,530.02648 516.24072,530.02794 C 516.13311,530.02952 516.02552,530.03084 515.91796,530.03189 C 515.80764,530.03296 515.69735,530.03375 515.58709,530.03424 C 515.47435,530.03474 515.36164,530.03492 515.24896,530.03477 C 515.11973,530.0346 514.99054,530.034 514.8614,530.03294 C 514.72644,530.03183 514.59153,530.03022 514.45668,530.02809 C 514.32123,530.02595 514.18584,530.02328 514.05051,530.02005 C 513.91487,530.01681 513.77929,530.01301 513.64379,530.00862 C 513.49554,530.00381 513.34738,529.9983 513.19932,529.99205 C 509.11698,529.81964 505.10658,529.08352 501.33626,527.02699 m 0,0 C 501.32549,527.02112 501.31468,527.01521 501.30383,527.00927 C 501.28217,526.99741 501.26033,526.98542 501.23832,526.97329 C 501.19995,526.95215 501.16106,526.9306 501.12165,526.90865 C 501.07692,526.88373 501.03152,526.85829 500.98547,526.83234 C 500.92836,526.80016 500.87024,526.76719 500.81113,526.73345 C 500.74676,526.6967 500.68122,526.65904 500.61453,526.62047 C 500.54258,526.57886 500.46929,526.5362 500.3947,526.49252 C 500.30872,526.44217 500.22101,526.39046 500.13163,526.33743 C 500.01832,526.2702 499.90231,526.20084 499.78371,526.12943 C 499.66078,526.05541 499.53506,525.97918 499.40668,525.90083 C 499.26085,525.81183 499.11158,525.72009 498.95905,525.62573 C 498.79631,525.52506 498.62985,525.42141 498.45989,525.31493 C 498.28018,525.20234 498.09655,525.08658 497.90925,524.96783 C 497.7198,524.84772 497.52659,524.72455 497.32988,524.5985 C 497.11721,524.46222 496.90045,524.32258 496.67992,524.1798 C 496.45888,524.03668 496.23405,523.89041 496.00576,523.74121 C 495.77741,523.59197 495.5456,523.43981 495.31065,523.28495 C 495.06901,523.12568 494.82405,522.96356 494.57613,522.79883 C 494.32959,522.63502 494.08012,522.46864 493.82807,522.29993 C 493.5501,522.11387 493.26899,521.92498 492.98522,521.73359 C 486.17462,517.14014 477.82711,511.10566 474.42216,508.18712 m 0,0 C 474.41188,508.17831 474.40148,508.16938 474.39096,508.16032 C 474.37522,508.14676 474.35921,508.13293 474.34293,508.11882 C 474.31588,508.09537 474.28809,508.07116 474.25957,508.0462 C 474.22552,508.0164 474.19043,507.98552 474.15432,507.95358 C 474.11244,507.91654 474.06918,507.87808 474.02456,507.83821 C 473.96126,507.78165 473.89523,507.72226 473.82652,507.6601 C 473.75169,507.59241 473.67369,507.52144 473.59259,507.44726 C 473.4978,507.36056 473.39877,507.26947 473.29563,507.17412 C 473.186,507.07277 473.07172,506.96661 472.95294,506.85579 C 472.82746,506.73871 472.69696,506.61643 472.56161,506.48911 C 472.4194,506.35534 472.27183,506.21601 472.11911,506.07133 C 471.95005,505.91117 471.77467,505.74444 471.59324,505.57142 C 471.40518,505.39208 471.21063,505.20598 471.00988,505.01343 C 470.78185,504.79471 470.54583,504.56766 470.30225,504.33273 C 470.0532,504.09252 469.79626,503.84407 469.5319,503.58785 C 469.26239,503.32664 468.98516,503.05736 468.70072,502.78052 C 468.39997,502.4878 468.09115,502.18662 467.77486,501.87758 C 467.45494,501.565 467.12738,501.24437 466.79278,500.91631 C 466.45516,500.58529 466.11037,500.24671 465.75905,499.9012 C 465.38098,499.52938 464.99534,499.14953 464.60292,498.76245 C 464.18587,498.35107 463.76115,497.93152 463.32971,497.50474 C 462.90068,497.08035 462.46501,496.64881 462.02362,496.21106 C 461.53683,495.72829 461.04308,495.23796 460.54361,494.74132 C 448.5563,482.82208 433.27514,467.27079 431.84895,465.36924 m 0,0 C 431.84455,465.36337 431.84002,465.35737 431.83537,465.35125 C 431.8284,465.34209 431.82115,465.33265 431.81363,465.32293 C 431.80363,465.31002 431.79314,465.29662 431.78216,465.28273 C 431.75482,465.24815 431.72445,465.21058 431.69112,465.17007 C 431.65483,465.12595 431.61503,465.07835 431.57179,465.02734 C 431.52125,464.96772 431.46602,464.90345 431.40622,464.83465 C 431.3245,464.74062 431.23425,464.63813 431.13579,464.52749 C 431.03373,464.41281 430.92285,464.28937 430.8035,464.15753 C 430.68026,464.02139 430.54798,463.87628 430.40706,463.7226 C 430.26205,463.56446 430.10789,463.39724 429.945,463.22136 C 429.76275,463.02458 429.56958,462.81696 429.36608,462.59908 C 429.14263,462.35985 428.90673,462.10826 428.65916,461.84509 C 428.35582,461.52264 428.03495,461.18281 427.69801,460.82702 C 427.36295,460.47322 427.01199,460.10365 426.64656,459.71972 C 426.27377,459.32805 425.88591,458.92143 425.4845,458.50136 C 425.0666,458.06403 424.634,457.61213 424.18841,457.14733 C 413.49429,445.99225 395.31746,427.41208 393.19052,424.75342 " id="path852"/>
    <path style="fill:none;stroke:#000000;stroke-width:1px;stroke-linecap:butt;stroke-linejoin:miter;stroke-opacity:1" d="m 303.97924,306.40138  C 303.97924,306.40138 303.97923,306.40138 303.97921,306.40139 C 303.97917,306.4014 303.9791,306.40141 303.97901,306.40143 C 303.97889,306.40146 303.97872,306.4015 303.9785,306.40155 C 303.97811,306.40163 303.97758,306.40175 303.9769,306.4019 C 303.97613,306.40207 303.97517,306.40228 303.97403,306.40253 C 303.97247,306.40287 303.97056,306.40328 303.96831,306.40376 C 303.96467,306.40454 303.96014,306.4055 303.95475,306.40663 C 303.94916,306.40781 303.94264,306.40917 303.93522,306.4107 C 303.92756,306.41228 303.91894,306.41404 303.90939,306.41597 C 303.8991,306.41805 303.88773,306.42032 303.87532,306.42276 C 303.86097,306.42558 303.84523,306.42863 303.82816,306.43188 C 303.81089,306.43517 303.79226,306.43866 303.77234,306.44233 C 303.75152,306.44616 303.72928,306.45018 303.70569,306.45436 C 303.67884,306.45912 303.65024,306.46408 303.62,306.46918 C 303.58993,306.47425 303.55824,306.47947 303.52503,306.48478 C 303.49024,306.49035 303.45378,306.49602 303.41577,306.50173 C 303.37728,306.50752 303.3372,306.51335 303.29566,306.51916 C 302.2987,306.65868 300.45841,306.78844 299.48097,306.05536 m 0,0 C 299.47682,306.05225 299.4726,306.04907 299.46832,306.04583 C 299.45409,306.03506 299.43914,306.02359 299.42348,306.01143 C 299.40643,305.99818 299.38854,305.98411 299.36983,305.96924 C 299.34965,305.9532 299.32851,305.93622 299.30644,305.91833 C 299.281,305.8977 299.25431,305.87585 299.22641,305.85282 C 299.19105,305.82362 299.15374,305.79251 299.11455,305.75954 C 299.07393,305.72537 299.03129,305.68921 298.9867,305.65112 C 298.93605,305.60785 298.88288,305.5621 298.8273,305.51396 C 298.768,305.46259 298.70596,305.4085 298.6413,305.35181 C 298.57293,305.29186 298.50164,305.229 298.42757,305.16336 C 298.35266,305.09697 298.27491,305.02774 298.19447,304.95581 C 298.10461,304.87545 298.0114,304.79172 297.91506,304.70482 C 297.8187,304.61789 297.7192,304.52779 297.61679,304.43471 C 297.51146,304.33897 297.40305,304.24008 297.29179,304.13826 C 297.18115,304.037 297.06769,303.93284 296.95165,303.82598 C 296.83327,303.71697 296.7122,303.60516 296.58869,303.49077 C 293.37414,300.51346 288.50528,295.78786 286.33218,293.2526 m 0,0 C 286.32595,293.24533 286.31968,293.23802 286.31336,293.23067 C 286.3039,293.21966 286.29434,293.20855 286.28469,293.19734 C 286.26865,293.17872 286.25234,293.15983 286.23576,293.14067 C 286.21596,293.11779 286.19578,293.09453 286.17522,293.07089 C 286.15138,293.04348 286.12703,293.01556 286.10218,292.98714 C 286.06693,292.94682 286.03067,292.90549 285.99343,292.86318 C 285.95287,292.8171 285.91114,292.76986 285.86827,292.72148 C 285.81816,292.66493 285.76649,292.60682 285.71331,292.5472 C 285.6487,292.47478 285.58186,292.40012 285.51286,292.32331 C 285.43647,292.23829 285.35744,292.15063 285.27587,292.06044 C 285.19132,291.96696 285.10404,291.87076 285.01415,291.77197 C 284.92133,291.66996 284.82573,291.56518 284.72747,291.45777 C 284.61192,291.33146 284.49271,291.20151 284.37004,291.06814 C 284.24034,290.92712 284.10678,290.78228 283.96961,290.63388 C 283.83087,290.48377 283.68844,290.33002 283.54258,290.17289 C 283.3954,290.01434 283.24473,289.85234 283.09083,289.68717 C 282.93056,289.51516 282.76679,289.33972 282.59982,289.16115 C 282.42706,288.97639 282.25088,288.78828 282.07162,288.59717 C 281.88725,288.40061 281.69961,288.20087 281.50908,287.99832 C 281.31961,287.79691 281.12727,287.59272 280.93242,287.38612 C 280.72828,287.16967 280.52138,286.95057 280.31214,286.72925 C 280.10026,286.50514 279.88598,286.27875 279.66973,286.05052 C 274.47964,280.57299 268.15326,274.03562 266.609,272.49135 m 0,0 C 266.60173,272.48408 266.59433,272.47668 266.5868,272.46916 C 266.56178,272.44415 266.53533,272.41773 266.50747,272.38991 C 266.47713,272.35962 266.44512,272.32767 266.41147,272.29411 C 266.37214,272.25488 266.33057,272.21344 266.28682,272.16984 C 266.24032,272.1235 266.19135,272.07473 266.13998,272.02358 C 266.08571,271.96955 266.02877,271.91287 265.96923,271.85363 C 265.90667,271.79138 265.84124,271.7263 265.77303,271.65847 C 265.69753,271.58339 265.61862,271.50494 265.53643,271.42325 C 265.45124,271.33857 265.36252,271.25041 265.27041,271.1589 C 265.16578,271.05495 265.05678,270.94668 264.94361,270.83428 C 264.8279,270.71936 264.70782,270.60013 264.5836,270.4768 C 264.44113,270.33535 264.2932,270.18851 264.14014,270.03659 C 263.9526,269.85045 263.75736,269.6567 263.555,269.45592 C 263.35378,269.25626 263.14552,269.04965 262.93082,268.83666 C 262.71179,268.61938 262.48606,268.39547 262.25424,268.16554 C 256.22062,262.18119 246.06364,252.11901 242.73356,248.78893 m 0,0 C 242.72456,248.77993 242.71553,248.77092 242.70648,248.76189 C 242.69293,248.74837 242.67931,248.73482 242.66563,248.72123 C 242.64289,248.69865 242.61997,248.67598 242.59688,248.65321 C 242.56012,248.61696 242.52291,248.58047 242.48527,248.54374 C 242.43859,248.49819 242.39124,248.45227 242.34324,248.406 C 242.29096,248.35561 242.23791,248.30479 242.1841,248.25356 C 242.11637,248.18907 242.04744,248.12392 241.97736,248.05814 C 241.88851,247.97475 241.79781,247.89034 241.70533,247.80495 C 241.60947,247.71644 241.51171,247.62688 241.41214,247.53633 C 241.30418,247.43815 241.19409,247.33879 241.08199,247.23833 C 240.95657,247.12593 240.82864,247.01214 240.69837,246.89705 C 240.56063,246.77537 240.42027,246.65224 240.27749,246.52777 C 240.13307,246.40187 239.98618,246.2746 239.83702,246.14607 C 239.68114,246.01174 239.52278,245.87604 239.36218,245.73909 C 239.20086,245.60152 239.03728,245.46269 238.87168,245.32273 C 238.70569,245.18244 238.53767,245.04101 238.36786,244.89857 C 238.18739,244.74719 238.0049,244.59467 237.82068,244.44117 C 237.63749,244.28852 237.45259,244.1349 237.26626,243.98046 C 237.07104,243.81865 236.87425,243.65593 236.67622,243.49249 C 236.48071,243.33112 236.28399,243.16904 236.08638,243.00642 C 235.8916,242.84614 235.69596,242.68533 235.49975,242.52416 C 230.79073,238.65608 225.75601,234.57885 224.56747,232.52595 m 0,0 C 224.56176,232.51609 224.55601,232.50616 224.55022,232.49615 C 224.53097,232.46289 224.51126,232.42883 224.4911,232.39398 C 224.46914,232.35603 224.44665,232.31714 224.42364,232.27733 C 224.39881,232.23438 224.37337,232.19037 224.34735,232.14531 C 224.31521,232.08966 224.28217,232.03242 224.24827,231.97364 C 224.21265,231.91188 224.17607,231.84841 224.13858,231.78329 C 224.09707,231.7112 224.05444,231.63708 224.01074,231.56101 C 223.96544,231.48215 223.91899,231.40119 223.87144,231.31821 C 223.81743,231.22395 223.762,231.12708 223.70524,231.02772 C 223.64468,230.92171 223.58261,230.81286 223.51912,230.70131 C 223.45199,230.58336 223.38328,230.4624 223.31311,230.33858 C 223.24214,230.21334 223.16967,230.08519 223.09583,229.95429 C 223.01334,229.80806 222.92914,229.6584 222.8434,229.50555 C 222.75764,229.35266 222.67034,229.19658 222.58168,229.03756 C 222.49049,228.874 222.39785,228.70732 222.30396,228.53779 C 222.21059,228.3692 222.11598,228.19779 222.02031,228.02381 C 221.92535,227.85112 221.82935,227.6759 221.73249,227.4984 C 221.63133,227.31303 221.52924,227.12517 221.42641,226.93511 C 218.89261,222.25171 215.91344,216.23124 215.57093,213.14879 m 0,0 C 215.56989,213.13945 215.56885,213.13012 215.5678,213.12081 C 215.56623,213.10687 215.56465,213.09296 215.56307,213.07908 C 215.55991,213.05141 215.55671,213.02387 215.55348,212.99645 C 215.5492,212.96011 215.54485,212.924 215.54044,212.88811 C 215.53498,212.8436 215.52942,212.79943 215.52378,212.75559 C 215.51763,212.70785 215.51138,212.6605 215.50503,212.61354 C 215.49818,212.56288 215.49121,212.51266 215.48413,212.46288 C 215.47597,212.4055 215.46766,212.34871 215.45921,212.29249 C 215.4479,212.21726 215.43635,212.14305 215.42457,212.06982 C 215.40876,211.97151 215.39254,211.87497 215.37597,211.78012 C 215.35921,211.68418 215.34209,211.58996 215.32467,211.49738 C 215.30583,211.39729 215.28664,211.2991 215.26717,211.20271 C 215.24576,211.09674 215.22401,210.99294 215.20201,210.89116 C 215.18013,210.78995 215.15801,210.69073 215.13573,210.59336 C 215.11116,210.48597 215.0864,210.38083 215.06158,210.27774 C 214.46586,207.80347 213.83359,206.5078 214.87889,203.63322 m 0,0 C 214.88166,203.62561 214.88444,203.618 214.88723,203.61038 C 214.8914,203.59898 214.89559,203.58758 214.8998,203.57617 C 214.9054,203.56101 214.91103,203.54584 214.9167,203.53067 C 214.92517,203.508 214.93371,203.48532 214.94233,203.46263 C 214.95661,203.42503 214.9711,203.3874 214.9858,203.34973 C 215.0018,203.30871 215.01804,203.26765 215.03452,203.22655 C 215.05823,203.16742 215.08242,203.1082 215.10707,203.04889 C 215.13588,202.97959 215.16532,202.91016 215.19535,202.8406 C 215.23567,202.74723 215.27706,202.65363 215.31944,202.55979 C 215.3623,202.46487 215.40617,202.3697 215.45096,202.27428 C 215.49616,202.178 215.5423,202.08145 215.58928,201.98463 C 215.63821,201.8838 215.68806,201.78268 215.73872,201.68125 C 215.7895,201.57959 215.8411,201.47762 215.89342,201.37533 C 215.94575,201.27301 215.99879,201.17037 216.05245,201.0674 C 216.10764,200.9615 216.16347,200.85525 216.21984,200.74863 C 216.27589,200.64261 216.33247,200.53623 216.38946,200.42948 C 216.4476,200.32058 216.50618,200.21129 216.56507,200.1016 C 216.62638,199.9874 216.68803,199.87277 216.74989,199.75769 C 218.23458,196.99574 219.83952,193.97481 219.72318,190.48443 m 0,0 C 219.72283,190.47405 219.72249,190.46366 219.72216,190.45326 C 219.72166,190.43769 219.72118,190.4221 219.72072,190.40649 C 219.72011,190.38574 219.71953,190.36496 219.71898,190.34414 C 219.71815,190.31304 219.71739,190.28186 219.7167,190.25061 C 219.71555,190.19883 219.71458,190.14684 219.71379,190.09465 C 219.71293,190.03782 219.71228,189.98075 219.71184,189.92344 C 219.71133,189.85646 219.71111,189.78916 219.71117,189.72155 C 219.71125,189.62916 219.71186,189.53619 219.71298,189.44268 C 219.71414,189.34575 219.71586,189.24824 219.71812,189.15019 C 219.72057,189.04387 219.72366,188.93691 219.72737,188.82935 C 219.73152,188.70901 219.73644,188.58792 219.74212,188.46614 C 219.74812,188.33738 219.75497,188.20786 219.76263,188.07764 C 219.77038,187.94593 219.77897,187.81351 219.78837,187.68046 C 219.79819,187.54141 219.80889,187.40167 219.82044,187.26132 C 219.83204,187.12034 219.8445,186.97875 219.85779,186.83664 C 219.87111,186.6942 219.88526,186.55123 219.90021,186.40783 C 219.91657,186.25094 219.93388,186.09353 219.95211,185.93572 C 220.45467,181.58457 221.65205,176.92521 222.66436,174.39446 m 0,0 C 222.66713,174.38754 222.66989,174.38057 222.67265,174.37355 C 222.67678,174.36305 222.6809,174.35244 222.68501,174.34172 C 222.69594,174.31322 222.70681,174.28396 222.71761,174.25395 C 222.731,174.21673 222.74429,174.17836 222.75747,174.13885 C 222.77182,174.09582 222.78605,174.05145 222.80015,174.00575 C 222.81663,173.95234 222.83293,173.89712 222.84905,173.84014 C 222.86619,173.77957 222.88312,173.717 222.89984,173.65248 C 222.9175,173.58432 222.93493,173.51398 222.95212,173.44152 C 222.97356,173.35112 222.99463,173.25742 223.01531,173.16052 C 223.04306,173.03044 223.07011,172.8946 223.09643,172.75327 C 223.12305,172.61031 223.14892,172.46173 223.174,172.3078 C 223.20021,172.14693 223.22556,171.98021 223.25002,171.80795 C 223.27459,171.63492 223.29826,171.4563 223.32099,171.2724 C 223.34377,171.08807 223.3656,170.89843 223.38645,170.7038 C 223.4073,170.50912 223.42717,170.30945 223.44602,170.1051 C 223.4654,169.89493 223.4837,169.67981 223.50088,169.46008 C 223.51796,169.24158 223.53393,169.01852 223.54875,168.79124 C 223.56346,168.56565 223.57703,168.3359 223.58942,168.10232 C 223.60236,167.85838 223.61402,167.61027 223.62435,167.35835 C 223.87891,161.15091 223.32663,152.63439 221.28028,147.40484 m 0,0 C 221.27405,147.38892 221.26781,147.37298 221.26156,147.35701 C 221.2522,147.33311 221.24281,147.30916 221.23339,147.28515 C 221.21461,147.23728 221.19572,147.18919 221.17672,147.14089 C 221.14525,147.06088 221.11347,146.98029 221.08139,146.89912 C 221.04646,146.81073 221.01117,146.72166 220.97552,146.63193 C 220.93386,146.52705 220.89171,146.42126 220.84908,146.31459 C 220.79729,146.18501 220.74479,146.05412 220.69158,145.92196 C 220.63268,145.77565 220.57291,145.62779 220.51229,145.47842 C 220.44945,145.32359 220.38569,145.16714 220.32101,145.00912 C 220.25088,144.83779 220.17968,144.66462 220.10742,144.48968 C 220.0333,144.31026 219.95806,144.12898 219.88172,143.94592 C 219.80366,143.75875 219.72445,143.56972 219.64409,143.3789 C 219.55534,143.16816 219.46519,142.95525 219.37366,142.74027 C 219.28108,142.52283 219.18709,142.30328 219.0917,142.08174 C 218.9817,141.82626 218.86985,141.56813 218.75617,141.30753 C 218.63925,141.0395 218.5204,140.76885 218.39964,140.49578 C 218.27956,140.22423 218.15759,139.95029 218.03377,139.67413 C 217.91087,139.40003 217.78614,139.12375 217.65961,138.84548 C 217.52747,138.55487 217.39336,138.26208 217.25732,137.96733 C 213.90515,130.70442 209.37969,122.24921 204.15225,115.74394 m 0,0 C 204.13668,115.72456 204.12101,115.70512 204.10524,115.68561 C 204.08163,115.65641 204.0578,115.62706 204.03374,115.59757 C 204.00176,115.55837 203.96939,115.51891 203.93663,115.4792 C 203.89584,115.42976 203.85445,115.37993 203.81246,115.32971 C 203.74561,115.24977 203.67724,115.16885 203.60738,115.08697 C 203.51209,114.97528 203.41403,114.86181 203.31326,114.7466 C 203.19547,114.61194 203.07398,114.47491 202.94889,114.33558 C 202.81593,114.18748 202.6789,114.03679 202.53792,113.8836 C 202.34927,113.6786 202.15355,113.46912 201.95105,113.25538 C 201.67921,112.96845 201.39516,112.67385 201.09961,112.3721 C 200.80068,112.06689 200.48998,111.75437 200.16825,111.4351 C 199.83202,111.10144 199.48374,110.7604 199.12425,110.41261 C 198.76315,110.06326 198.39073,109.70711 198.00785,109.34479 C 197.62408,108.98162 197.2298,108.61225 196.82586,108.23733 C 196.39656,107.83888 195.95636,107.43415 195.50627,107.02392 C 195.0587,106.61599 194.60136,106.20262 194.13526,105.78457 C 193.65977,105.3581 193.17516,104.92676 192.6825,104.49136 C 192.19525,104.06074 191.70012,103.62615 191.19816,103.18836 C 190.70257,102.75613 190.20031,102.32079 189.69239,101.88309 C 189.19176,101.45167 188.68563,101.01796 188.17495,100.58268 C 175.91856,90.13586 161.04183,78.78296 156.74741,76.470588 m 0,0 C 156.73392,76.46332 156.72039,76.45604 156.70682,76.44874 C 156.6865,76.43781 156.66609,76.42684 156.64559,76.41583 C 156.61153,76.39753 156.57722,76.37912 156.54267,76.3606 C 156.50141,76.33849 156.45981,76.31623 156.41786,76.29381 C 156.36922,76.26781 156.32012,76.24161 156.27056,76.2152 C 156.19323,76.174 156.11479,76.1323 156.03527,76.09012 C 155.94233,76.04082 155.84791,75.99086 155.75206,75.94026 C 155.65018,75.88648 155.54668,75.83198 155.44161,75.77678 C 155.32321,75.71458 155.20281,75.65149 155.08049,75.58755 C 154.94508,75.51677 154.80731,75.44495 154.66728,75.37213 C 154.52213,75.29664 154.37454,75.22008 154.22463,75.1425 C 154.06983,75.06239 153.91254,74.98119 153.75289,74.89895 C 153.57297,74.80627 153.39004,74.71228 153.20428,74.61705 C 153.0149,74.51997 152.82257,74.4216 152.62747,74.32204 C 152.42119,74.21677 152.21181,74.11016 151.99954,74.00231 C 151.78484,73.89323 151.56719,73.78288 151.3468,73.67137 C 151.10853,73.55081 150.86706,73.42889 150.62267,73.30574 C 150.36981,73.17832 150.11381,73.04959 149.85498,72.91969 C 149.58878,72.78609 149.31958,72.65125 149.04772,72.51533 C 148.77738,72.38017 148.50441,72.24394 148.22913,72.1068 C 147.93312,71.95933 147.63444,71.81081 147.3335,71.66143 C 147.03688,71.51419 146.73806,71.36611 146.43742,71.21738 C 139.22209,67.64788 130.96074,63.70266 126.98962,61.937716 m 0,0 C 126.97716,61.93218 126.96466,61.92663 126.95212,61.92107 C 126.93335,61.91275 126.91448,61.90441 126.89552,61.89605 C 126.87031,61.88494 126.84494,61.87379 126.8194,61.86261 C 126.77489,61.84312 126.72988,61.82351 126.68437,61.8038 C 126.61981,61.77583 126.55426,61.74765 126.48774,61.71925 C 126.41529,61.68833 126.34169,61.65715 126.26696,61.62573 C 126.17289,61.58618 126.07703,61.54625 125.97943,61.50595 C 125.86945,61.46053 125.75725,61.41464 125.64291,61.36831 C 125.51634,61.31702 125.38715,61.26519 125.25543,61.21284 C 125.11889,61.15858 124.97964,61.10377 124.83778,61.04844 C 124.69129,60.99131 124.54202,60.93363 124.39008,60.87544 C 124.22629,60.81271 124.05941,60.74938 123.88958,60.68551 C 123.68574,60.60885 123.47765,60.53141 123.26557,60.45327 C 123.04393,60.37161 122.81793,60.28919 122.58786,60.2061 C 122.35676,60.12264 122.12156,60.03851 121.88255,59.95381 C 121.61207,59.85796 121.33672,59.76138 121.05692,59.66421 C 113.34237,56.98506 102.2468,53.8598 96.754782,53.299493 m 0,0 C 96.73998,53.29798 96.72518,53.29647 96.71038,53.29496 C 96.68823,53.2927 96.66608,53.29045 96.64394,53.2882 C 96.59978,53.28372 96.55564,53.27926 96.51152,53.27481 C 96.46035,53.26965 96.40921,53.26451 96.35809,53.2594 C 96.28558,53.25215 96.21312,53.24494 96.14071,53.23778 C 96.06185,53.22998 95.98306,53.22224 95.90433,53.21455 C 95.81231,53.20556 95.72038,53.19665 95.62855,53.18782 C 95.517,53.17709 95.40559,53.16648 95.29433,53.15599 C 95.17117,53.14438 95.0482,53.13292 94.92543,53.12161 C 94.79818,53.10988 94.67114,53.09832 94.54434,53.08693 C 94.40686,53.07458 94.26965,53.06243 94.13274,53.05048 C 93.99232,53.03823 93.85222,53.0262 93.71245,53.01439 C 93.5509,53.00074 93.3898,52.98739 93.22919,52.97435 C 93.06674,52.96117 92.90478,52.94831 92.74335,52.93578 C 92.56883,52.92223 92.39493,52.90907 92.2217,52.89631 C 92.04246,52.88311 91.86394,52.87034 91.68618,52.85803 C 91.49798,52.84499 91.31064,52.83246 91.12422,52.82045 C 85.98428,52.48939 81.54253,52.55794 79.065744,53.460208 m 0,0 C 79.05844,53.46287 79.05111,53.46554 79.04376,53.46822 C 79.03275,53.47223 79.02169,53.47626 79.01058,53.48031 C 78.99212,53.48704 78.97351,53.49382 78.95476,53.50066 C 78.93237,53.50882 78.90978,53.51706 78.88699,53.52538 C 78.86057,53.53502 78.83388,53.54477 78.80692,53.55462 C 78.77633,53.5658 78.7454,53.57711 78.71413,53.58855 C 78.67536,53.60274 78.63607,53.61713 78.59628,53.63173 C 78.55294,53.64762 78.50901,53.66375 78.46449,53.68012 C 78.41646,53.69779 78.36775,53.71574 78.31837,53.73396 C 78.25739,53.75646 78.1954,53.77939 78.13243,53.80274 C 78.05386,53.83187 77.97377,53.86166 77.89222,53.8921 C 77.78274,53.93297 77.67063,53.97501 77.55604,54.01822 C 77.44014,54.06193 77.3217,54.10683 77.20088,54.15291 C 77.07461,54.20107 76.94575,54.25053 76.81447,54.30127 C 76.6826,54.35224 76.54829,54.4045 76.41173,54.45805 C 76.27043,54.51345 76.12672,54.57023 75.9808,54.62837 C 75.83072,54.68817 75.6783,54.74941 75.52376,54.81208 C 75.37008,54.8744 75.21431,54.93813 75.05666,55.00326 C 74.89148,55.0715 74.72424,55.14128 74.55519,55.21258 C 74.38401,55.28478 74.21097,55.35855 74.03633,55.43386 C 69.84493,57.24139 64.73262,59.93998 62.28374,63.3218 m 0,0 C 62.27647,63.33183 62.26921,63.34187 62.26195,63.35191 C 62.25108,63.36693 62.24022,63.38196 62.22936,63.39699 C 62.21493,63.41697 62.20051,63.43695 62.1861,63.45693 C 62.16098,63.49176 62.1359,63.5266 62.11085,63.56145 C 62.08242,63.601 62.05403,63.64056 62.02569,63.68013 C 61.99055,63.7292 61.95547,63.77829 61.92046,63.8274 C 61.88234,63.88088 61.8443,63.93439 61.80634,63.98793 C 61.76538,64.0457 61.72452,64.1035 61.68376,64.16134 C 61.63342,64.23277 61.58322,64.30425 61.53317,64.3758 C 61.48058,64.45097 61.42816,64.52621 61.37591,64.60152 C 61.31806,64.68489 61.26042,64.76835 61.20298,64.85191 C 61.14344,64.93852 61.08413,65.02524 61.02504,65.11208 C 60.95182,65.21968 60.87895,65.32746 60.80643,65.43544 C 60.72975,65.54961 60.65347,65.664 60.57759,65.77863 C 60.50084,65.89457 60.4245,66.01076 60.34858,66.12722 C 60.26651,66.25313 60.18493,66.37935 60.10385,66.50591 C 60.02258,66.63277 59.94181,66.75997 59.86155,66.88754 C 59.78127,67.01514 59.70151,67.14311 59.62227,67.27148 C 59.54077,67.40351 59.45983,67.53597 59.37945,67.66888 C 59.29952,67.80105 59.22015,67.93366 59.14135,68.06675 C 59.05879,68.20619 58.97686,68.34616 58.89556,68.48669 C 58.81324,68.62899 58.73157,68.77187 58.65057,68.91536 C 56.70654,72.35902 55.14698,76.1538 54.15225,80.79585 m 0,0 C 54.14758,80.81765 54.14292,80.83952 54.13827,80.86146 C 54.12282,80.93437 54.10749,81.00805 54.09228,81.08249 C 54.07572,81.16355 54.0593,81.24551 54.04303,81.32834 C 54.02401,81.42516 54.00519,81.52318 53.98657,81.62237 C 53.96395,81.74286 53.94163,81.86508 53.91961,81.98897 C 53.89523,82.12612 53.87122,82.26532 53.84758,82.40651 C 53.82308,82.55286 53.79898,82.70134 53.77529,82.85187 C 53.7496,83.01508 53.72439,83.1807 53.69967,83.34863 C 53.67431,83.52087 53.64946,83.69554 53.62513,83.87253 C 53.60026,84.0535 53.57593,84.23689 53.55215,84.4226 C 53.52488,84.63559 53.49833,84.85162 53.47252,85.07052 C 53.4409,85.33873 53.41038,85.61125 53.38099,85.88776 C 53.35177,86.16272 53.32367,86.44162 53.29671,86.72415 C 53.26921,87.01237 53.24289,87.30437 53.21778,87.59981 C 53.19295,87.89201 53.16931,88.18757 53.14688,88.48617 C 53.12473,88.78099 53.10376,89.07877 53.08399,89.37921 C 53.0645,89.67533 53.04618,89.97403 53.02905,90.27501 C 52.61795,97.49857 52.89185,106.03555 54.15225,111.76471 m 0,0 C 54.15606,111.78201 54.15988,111.79936 54.16372,111.81675 C 54.16947,111.84279 54.17527,111.86893 54.18111,111.89517 C 54.18887,111.93005 54.1967,111.96511 54.20461,112.00035 C 54.21839,112.06177 54.23239,112.12373 54.24661,112.18622 C 54.26678,112.27487 54.28739,112.36459 54.30844,112.45535 C 54.33136,112.55419 54.35479,112.65427 54.37873,112.75557 C 54.40886,112.88307 54.43979,113.01249 54.4715,113.14378 C 54.51169,113.31022 54.55314,113.47965 54.5958,113.65196 C 54.64002,113.83057 54.68554,114.01227 54.73232,114.19693 C 54.78546,114.40669 54.84023,114.62027 54.89656,114.83747 C 54.95666,115.06921 55.01854,115.30508 55.08212,115.54484 C 55.14934,115.79835 55.21847,116.05622 55.28941,116.31817 C 55.36116,116.58312 55.43476,116.85225 55.51012,117.12527 C 55.58616,117.40075 55.66399,117.68019 55.74352,117.9633 C 55.8291,118.26797 55.91664,118.57688 56.00602,118.88968 C 56.10381,119.23189 56.2038,119.57874 56.30583,119.92976 C 59.11904,129.60794 63.48618,142.45425 66.08997,148.44291 m 0,0 C 66.09689,148.45883 66.10385,148.47481 66.11086,148.49086 C 66.12135,148.51489 66.13193,148.53907 66.14261,148.5634 C 66.15681,148.59574 66.17117,148.62834 66.1857,148.6612 C 66.20741,148.7103 66.22949,148.75998 66.25194,148.81023 C 66.28914,148.89348 66.32735,148.97831 66.36655,149.06468 C 66.40924,149.15873 66.45311,149.25461 66.49813,149.35228 C 66.55075,149.46643 66.60495,149.58302 66.66069,149.70197 C 66.71993,149.82841 66.78091,149.95752 66.84358,150.08921 C 66.90979,150.22833 66.97788,150.37034 67.04781,150.51513 C 67.12128,150.66726 67.19677,150.82246 67.27422,150.98062 C 67.36472,151.16543 67.45789,151.35427 67.55363,151.54696 C 67.68216,151.80563 67.81532,152.07123 67.95287,152.34331 C 68.092,152.61851 68.23561,152.90033 68.38346,153.18831 C 68.55396,153.52041 68.73008,153.8607 68.91144,154.20846 C 69.09797,154.56613 69.29004,154.9317 69.48723,155.30439 C 69.68332,155.67499 69.88447,156.05263 70.09026,156.43654 C 70.29452,156.8176 70.50335,157.20483 70.71635,157.59748 C 70.93309,157.99703 71.15414,158.40219 71.37907,158.81217 C 71.60114,159.21695 71.82699,159.62643 72.05621,160.03984 C 77.70444,170.22668 85.397,182.80184 88.92734,186.33218 m 0,0 C 88.93772,186.34256 88.94809,186.35294 88.95845,186.36333 C 88.97397,186.37888 88.98947,186.39444 89.00495,186.41001 C 89.03067,186.43587 89.05634,186.46176 89.08196,186.48767 C 89.11255,186.5186 89.14307,186.54956 89.17352,186.58055 C 89.20883,186.61649 89.24405,186.65247 89.27917,186.68849 C 89.31903,186.72937 89.35877,186.7703 89.3984,186.81128 C 89.44754,186.8621 89.4965,186.913 89.54529,186.96397 C 89.59843,187.01948 89.65136,187.07508 89.7041,187.13077 C 89.76574,187.19586 89.82711,187.26108 89.88823,187.32642 C 89.96248,187.40579 90.03635,187.48534 90.10987,187.56507 C 90.19125,187.65333 90.2722,187.74181 90.35274,187.8305 C 90.43623,187.92243 90.51928,188.01459 90.60193,188.10697 C 90.69581,188.2119 90.78918,188.31712 90.88207,188.42261 C 90.99357,188.54923 91.10439,188.67625 91.21461,188.80366 C 91.34966,188.95977 91.48382,189.11646 91.61723,189.27371 C 91.7499,189.43008 91.88183,189.587 92.01318,189.74445 C 92.1508,189.90941 92.28777,190.07495 92.42427,190.24104 C 95.87993,194.44562 99.03372,199.00258 104.67128,203.46021 m 0,0 C 104.68616,203.47197 104.70105,203.48374 104.71595,203.49551 C 104.73825,203.51313 104.76057,203.53076 104.78291,203.5484 C 104.82746,203.58357 104.87209,203.61877 104.91679,203.654 C 104.97604,203.70069 105.03543,203.74743 105.09495,203.79422 C 105.16876,203.85224 105.24277,203.91033 105.31699,203.96849 C 105.39781,204.03183 105.47887,204.09525 105.56017,204.15874 C 105.64788,204.22724 105.73586,204.29583 105.82411,204.3645 C 105.92583,204.44366 106.0279,204.52293 106.13031,204.60229 C 106.26014,204.7029 106.39052,204.80366 106.52142,204.90455 C 106.6571,205.00913 106.79335,205.11385 106.93013,205.21868 C 107.0855,205.33776 107.24156,205.45699 107.39827,205.57632 C 107.56547,205.70364 107.73341,205.83108 107.90204,205.95859 C 108.08034,206.09341 108.25942,206.22832 108.43921,206.36325 C 108.62107,206.49973 108.80366,206.63624 108.98693,206.77272 C 109.19167,206.92518 109.39725,207.0776 109.6036,207.2299 C 109.81,207.38224 110.01717,207.53446 110.22502,207.68648 C 110.4388,207.84284 110.6533,207.99898 110.86843,208.15482 C 111.08236,208.30979 111.29692,208.46446 111.51202,208.61875 C 111.72552,208.77189 111.93956,208.92466 112.15405,209.07696 C 112.3723,209.23194 112.59102,209.38644 112.81011,209.54037 C 118.35656,213.43712 124.14339,216.96899 128.71972,218.68512 m 0,0 C 128.73356,218.69031 128.74739,218.6955 128.76121,218.70069 C 128.78189,218.70847 128.80254,218.71625 128.82317,218.72404 C 128.85745,218.73698 128.89165,218.74993 128.92578,218.76289 C 128.98011,218.78352 129.03426,218.80418 129.08823,218.82487 C 129.15515,218.85053 129.2218,218.87623 129.28819,218.90197 C 129.36049,218.93 129.43248,218.95808 129.50419,218.9862 C 129.588,219.01907 129.67142,219.05199 129.75448,219.08496 C 129.84277,219.12001 129.93065,219.15511 130.01816,219.19026 C 130.11061,219.22739 130.20265,219.26458 130.29432,219.30181 C 130.39064,219.34092 130.48655,219.38008 130.5821,219.41927 C 130.68788,219.46265 130.79322,219.50607 130.8982,219.54952 C 131.00701,219.59455 131.11543,219.63961 131.22353,219.68467 C 131.34074,219.73353 131.45758,219.7824 131.57415,219.83125 C 131.6937,219.88135 131.81296,219.93143 131.93204,219.98146 C 132.0538,220.03261 132.17537,220.08372 132.29686,220.13475 C 132.4362,220.19328 132.57544,220.25171 132.71475,220.30999 C 132.86034,220.3709 133.006,220.43165 133.15194,220.49219 C 133.29853,220.55301 133.44539,220.61362 133.59273,220.67397 C 133.74041,220.73446 133.88856,220.79469 134.03739,220.85462 C 134.20021,220.92018 134.36384,220.98537 134.52854,221.05013 C 139.06947,222.83555 144.42182,224.29079 156.05536,224.04844 m 0,0 C 156.08858,224.04775 156.12179,224.04705 156.155,224.04634 C 156.22129,224.04492 156.28757,224.04346 156.35383,224.04196 C 156.46932,224.03935 156.58477,224.03663 156.70017,224.03379 C 156.83113,224.03057 156.96203,224.0272 157.09287,224.02369 C 157.25511,224.01933 157.41724,224.01475 157.57926,224.00995 C 157.7557,224.00473 157.93201,223.99925 158.10818,223.99352 C 158.29825,223.98734 158.48816,223.98086 158.67789,223.9741 C 158.89659,223.9663 159.11505,223.95813 159.33325,223.94959 C 159.60987,223.93876 159.88607,223.92734 160.16181,223.91535 C 160.44763,223.90293 160.73296,223.8899 161.01775,223.87628 C 161.34124,223.86081 161.66403,223.84459 161.98605,223.82766 C 162.32961,223.8096 162.6723,223.79072 163.01402,223.77108 C 163.37534,223.75031 163.73558,223.72869 164.09464,223.70627 C 164.45781,223.68359 164.81978,223.6601 165.18044,223.63585 C 165.57035,223.60963 165.95873,223.58252 166.34544,223.5546 C 166.73305,223.52661 167.11899,223.49781 167.50312,223.46826 C 167.88735,223.4387 168.26977,223.4084 168.65024,223.37743 C 169.04156,223.34558 169.43082,223.31302 169.81788,223.27983 C 170.20278,223.24682 170.5855,223.21319 170.96589,223.17901 C 171.38541,223.14132 171.80211,223.10297 172.21579,223.06406 C 182.14407,222.13021 190.33418,220.87592 194.11765,220.76125 m 0,0 C 199.82699,220.58824 200.69204,220.41523 207.09343,224.04844 m 0,0 C 207.10623,224.05571 207.11903,224.06298 207.13182,224.07026 C 207.15096,224.08116 207.17009,224.09208 207.1892,224.10301 C 207.22095,224.12118 207.25266,224.1394 207.28432,224.15766 C 207.32212,224.17946 207.35985,224.20133 207.39752,224.22327 C 207.4412,224.24871 207.48479,224.27423 207.52829,224.29984 C 207.59,224.33617 207.65153,224.37267 207.71288,224.40934 C 207.77969,224.44928 207.84629,224.48942 207.91268,224.52975 C 207.99028,224.57689 208.06759,224.6243 208.14461,224.67197 C 208.22648,224.72263 208.30802,224.77359 208.38924,224.82483 C 208.47504,224.87896 208.56048,224.93341 208.64557,224.98816 C 208.73497,225.04568 208.82397,225.10354 208.91258,225.16172 C 209.01067,225.22613 209.10828,225.29093 209.20542,225.35611 C 209.30611,225.42367 209.40629,225.49164 209.50596,225.56 C 209.61917,225.63765 209.73173,225.71579 209.84364,225.7944 C 209.95806,225.87478 210.0718,225.95565 210.18487,226.03698 C 210.30014,226.11989 210.41472,226.20328 210.52861,226.28711 C 210.64902,226.37575 210.76866,226.46488 210.88754,226.55447 C 211.00778,226.64509 211.12724,226.73618 211.24592,226.82769 C 211.36568,226.92003 211.48465,227.01281 211.60284,227.10598 C 211.73003,227.20625 211.85631,227.30697 211.9817,227.4081 C 212.11496,227.51558 212.24722,227.62351 212.37848,227.73184 C 212.50901,227.83957 212.63855,227.94769 212.76712,228.05614 C 212.90892,228.17574 213.04954,228.29574 213.18899,228.41606 C 216.53584,231.30384 219.21228,234.37622 221.45329,236.50519 m 0,0 C 221.46021,236.51176 221.46717,236.51837 221.47418,236.52501 C 221.48467,236.53495 221.49526,236.54496 221.50595,236.55504 C 221.52016,236.56844 221.53454,236.58197 221.5491,236.59563 C 221.58534,236.62964 221.62265,236.66444 221.66101,236.70001 C 221.70278,236.73874 221.74579,236.77838 221.79001,236.81892 C 221.8417,236.8663 221.89505,236.9149 221.95001,236.96469 C 222.02512,237.03273 222.10324,237.10299 222.18425,237.17538 C 222.26822,237.25042 222.3553,237.32776 222.44537,237.40731 C 222.53838,237.48945 222.63457,237.57395 222.7338,237.6607 C 222.83591,237.74997 222.94124,237.84162 223.04964,237.93555 C 223.17092,238.04065 223.29604,238.1486 223.42479,238.25925 C 223.56616,238.38075 223.7119,238.50551 223.86173,238.63333 C 224.04531,238.78994 224.23502,238.95114 224.43035,239.11656 C 224.62459,239.28106 224.82439,239.44974 225.02923,239.62223 C 225.23819,239.7982 225.4524,239.97814 225.67132,240.16166 C 225.89923,240.35272 226.13224,240.54767 226.36973,240.74608 C 232.06951,245.50788 240.35227,252.26 242.73356,255.0173 m 0,0 C 242.74013,255.02491 242.74675,255.03256 242.75341,255.04025 C 242.76338,255.05177 242.77344,255.06338 242.7836,255.07508 C 242.7971,255.09063 242.81077,255.10634 242.82461,255.12221 C 242.84873,255.14987 242.87335,255.17801 242.89846,255.20662 C 242.92696,255.23909 242.9561,255.27217 242.98587,255.30585 C 243.02647,255.35178 243.06824,255.39883 243.11116,255.44697 C 243.18061,255.52488 243.25306,255.60565 243.32839,255.68918 C 243.40648,255.77577 243.48767,255.86532 243.57183,255.95773 C 243.65874,256.05315 243.74882,256.15162 243.84194,256.25301 C 243.94233,256.3623 244.04625,256.47499 244.15353,256.59092 C 244.27753,256.72491 244.40602,256.86323 244.53874,257.00563 C 244.67298,257.14966 244.81155,257.29788 244.95419,257.45003 C 245.10325,257.60904 245.25675,257.77234 245.41438,257.93966 C 245.59383,258.13014 245.77863,258.32582 245.96832,258.52628 C 246.15695,258.72562 246.35042,258.9297 246.54829,259.1381 C 246.7556,259.35644 246.96773,259.57953 247.18417,259.80689 C 247.40335,260.03713 247.62695,260.27175 247.85444,260.51026 C 253.31412,266.23457 261.01338,274.20191 263.58656,277.65198 m 0,0 C 263.58656,277.65198 263.58662,277.65205 263.58674,277.6522 C 263.58712,277.65269 263.58814,277.654 263.58978,277.65611 C 263.59157,277.65841 263.5941,277.66167 263.59736,277.66587 C 263.60118,277.67077 263.60599,277.67696 263.61179,277.68441 C 263.61971,277.69458 263.62947,277.70711 263.64102,277.72192 C 263.65299,277.73728 263.66688,277.7551 263.68265,277.77531 C 263.69974,277.79722 263.71904,277.82194 263.74048,277.84938 C 263.76446,277.88008 263.79112,277.91419 263.82037,277.95159 C 263.8513,277.99113 263.88512,278.03435 263.92173,278.08109 C 263.95876,278.12837 263.99865,278.17926 264.04128,278.23361 C 264.08737,278.29237 264.13667,278.35517 264.18904,278.42182 C 264.24662,278.49509 264.30791,278.57302 264.37273,278.65535 C 264.43719,278.73722 264.50514,278.82345 264.5764,278.91378 C 264.6491,279.00593 264.72525,279.10236 264.80466,279.2028 C 264.88733,279.30736 264.97353,279.41627 265.06305,279.52923 C 267.2115,282.24029 271.2708,287.28371 274.27914,290.54993 m 0,0 C 274.2877,290.55923 274.29626,290.56853 274.30482,290.57783 C 274.31764,290.59175 274.33045,290.60567 274.34326,290.61959 C 274.36455,290.64272 274.38583,290.66586 274.40711,290.689 C 274.43251,290.71663 274.45791,290.74426 274.4833,290.77189 C 274.51274,290.80394 274.54217,290.83599 274.57158,290.86804 C 274.61331,290.91351 274.65501,290.95899 274.69668,291.00447 C 274.74206,291.054 274.78741,291.10353 274.83273,291.15306 C 274.88977,291.21541 274.94676,291.27776 275.00369,291.34011 C 275.06383,291.40597 275.12391,291.47183 275.18392,291.53768 C 275.24698,291.60686 275.30996,291.67603 275.37286,291.74518 C 275.44636,291.82598 275.51976,291.90675 275.59305,291.98748 C 275.69143,292.09585 275.78961,292.20414 275.88757,292.31232 C 275.98666,292.42174 276.08552,292.53105 276.18415,292.64022 C 276.28367,292.75037 276.38294,292.86037 276.48196,292.97019 C 276.58508,293.08456 276.68792,293.19873 276.79046,293.31266 C 276.90318,293.43791 277.01554,293.56287 277.12751,293.68749 C 277.23886,293.81142 277.34982,293.93501 277.46038,294.05821 C 277.57621,294.18729 277.6916,294.31595 277.80651,294.44412 C 277.92287,294.57391 278.03875,294.70321 278.15411,294.83195 C 280.92278,297.92166 283.39443,300.69042 285.16711,302.29427 " id="path850" sodipodi:nodetypes="cssssssssssssssssssssssssssscsc"/>
    <path style="fill:none;stroke:#000000;stroke-width:1px;stroke-linecap:butt;stroke-linejoin:miter;stroke-opacity:1" d="m 344.50047,326.88397  C 344.50047,326.88397 344.50057,326.88406 344.50078,326.88423 C 344.50109,326.88449 344.50163,326.88494 344.5024,326.88558 C 344.5042,326.88707 344.50725,326.8896 344.51153,326.89316 C 344.51639,326.89719 344.52284,326.90255 344.53086,326.90921 C 344.5408,326.91747 344.55315,326.92774 344.56788,326.93999 C 344.58392,326.95333 344.60277,326.96901 344.62439,326.987 C 344.64966,327.00803 344.67871,327.03221 344.71146,327.05948 C 344.75621,327.09674 344.80787,327.13977 344.86623,327.18842 C 344.92673,327.23884 344.99443,327.29529 345.06911,327.3576 C 345.15008,327.42516 345.23925,327.4996 345.33633,327.5807 C 345.4359,327.66388 345.54379,327.75407 345.65969,327.85102 C 345.7782,327.95015 345.90508,328.05635 346.04,328.16936 C 346.18901,328.29417 346.34783,328.42729 346.51601,328.56838 C 346.68612,328.71108 346.86581,328.86193 347.05461,329.02056 C 347.25191,329.18635 347.45916,329.36064 347.67583,329.54302 C 347.90799,329.73843 348.15096,329.94313 348.40409,330.15662 C 348.66443,330.3762 348.93552,330.60507 349.21665,330.84268 C 349.49621,331.07897 349.7857,331.3239 350.08441,331.57694 C 350.3809,331.8281 350.68649,332.08725 351.00048,332.35386 C 351.3368,332.63943 351.68277,332.93355 352.03755,333.23558 C 360.55219,340.48431 374.14011,352.28787 381.20151,359.67023 m 0,0 C 381.22304,359.69274 381.24461,359.71527 381.26621,359.73782 C 381.29855,359.77157 381.33097,359.80536 381.36346,359.83919 C 381.40666,359.88416 381.44999,359.9292 381.49346,359.97431 C 381.5584,360.0417 381.62365,360.10924 381.6892,360.17693 C 381.77607,360.26664 381.86347,360.35661 381.95139,360.44684 C 382.06041,360.55872 382.17022,360.671 382.28081,360.78366 C 382.40124,360.90635 382.52259,361.02949 382.64483,361.15307 C 382.79869,361.30862 382.95397,361.46487 383.11061,361.62178 C 383.28712,361.7986 383.46536,361.97627 383.64525,362.15474 C 383.85546,362.36328 384.06793,362.57292 384.28254,362.78359 C 384.51523,363.01201 384.75044,363.24164 384.98802,363.4724 C 385.23168,363.70907 385.47783,363.94692 385.72631,364.18586 C 385.98037,364.43017 386.23686,364.67562 386.49561,364.92211 C 397.48706,375.39269 412.55588,387.74415 418.3919,394.41389 m 0,0 C 425.24276,402.24344 440.41253,418.3919 447.75274,426.71081 " id="path862"/>
  </g>
</svg>