<svg xmlns:dc="http://purl.org/dc/elements/1.1/" xmlns:cc="http://creativecommons.org/ns#" xmlns:rdf="http://www.w3.org/1999/02/22-rdf-syntax-ns#" xmlns:svg="http://www.w3.org/2000/svg" xmlns="http://www.w3.org/2000/svg" xmlns:sodipodi="http://sodipodi.sourceforge.net/DTD/sodipodi-0.dtd" xmlns:inkscape="http://www.inkscape.org/namespaces/inkscape" version="1.1" id="svg833" width="220.28174" height="271.98315" viewBox="0 0 220.28174 271.98315" sodipodi:docname="appleWithoutBackground.svg" inkscape:version="1.0.2 (e86c870879, 2021-01-15, custom)">
  <metadata id="metadata839">
    <rdf:RDF>
      <cc:Work rdf:about="">
        <dc:format>image/svg+xml</dc:format>
        <dc:type rdf:resource="http://purl.org/dc/dcmitype/StillImage"/>
        <dc:title/>
      </cc:Work>
    </rdf:RDF>
  </metadata>
  <defs id="defs837"/>
  <sodipodi:namedview pagecolor="#ffffff" bordercolor="#666666" borderopacity="1" objecttolerance="10" gridtolerance="10" guidetolerance="10" inkscape:pageopacity="0" inkscape:pageshadow="2" inkscape:window-width="1849" inkscape:window-height="1057" id="namedview835" showgrid="false" inkscape:zoom="0.74069435" inkscape:cx="-166.91494" inkscape:cy="88.863331" inkscape:window-x="63" inkscape:window-y="-8" inkscape:window-maximized="1" inkscape:current-layer="layer2" fit-margin-top="0" fit-margin-left="0" fit-margin-right="0" fit-margin-bottom="0"/>
  <g inkscape:groupmode="layer" id="layer1" inkscape:label="vectorApple" style="display:inline" transform="translate(-188.14544,-11.900563)">
    <path style="fill:none;fill-opacity:1;stroke:#b42d2d;stroke-width:1px;stroke-linecap:butt;stroke-linejoin:miter;stroke-opacity:1" d="m 270.37027,75.596556  C 269.81883,75.67513 267.99178,75.94226 267.99178,75.94226 m 0,0 C 267.99178,75.94226 267.99175,75.94226 267.9917,75.94227 C 267.99159,75.94229 267.99138,75.94232 267.99106,75.94237 C 267.99059,75.94244 267.98988,75.94254 267.98894,75.94268 C 267.98737,75.94291 267.98515,75.94323 267.98229,75.94365 C 267.97916,75.94411 267.97526,75.94468 267.9706,75.94536 C 267.96513,75.94616 267.9586,75.94712 267.95104,75.94823 C 267.94063,75.94976 267.92826,75.95158 267.91396,75.95368 C 267.899,75.95588 267.88192,75.95839 267.86276,75.96121 C 267.84079,75.96445 267.81608,75.96809 267.78869,75.97213 C 267.75914,75.97649 267.72648,75.98131 267.69077,75.98659 C 267.65108,75.99246 267.60762,75.99889 267.56049,76.00587 C 267.50194,76.01454 267.43773,76.02406 267.36804,76.0344 C 267.29752,76.04487 267.22139,76.05618 267.13984,76.06832 C 267.05743,76.08058 266.96948,76.09368 266.87619,76.1076 C 266.77949,76.12203 266.67706,76.13733 266.56911,76.15348 C 266.46043,76.16974 266.34616,76.18686 266.22652,76.20482 C 266.10019,76.22378 265.96787,76.24367 265.82983,76.26445 C 265.69147,76.28528 265.54737,76.30701 265.39779,76.3296 C 265.24121,76.35325 265.07862,76.37785 264.91033,76.40336 C 264.73876,76.42937 264.56127,76.45633 264.37817,76.48419 C 264.19202,76.51252 264.00008,76.54178 263.80268,76.57194 C 263.60637,76.60193 263.40467,76.63281 263.19791,76.66453 C 262.98061,76.69787 262.75773,76.73214 262.52964,76.76729 C 262.30379,76.8021 262.07284,76.83777 261.83717,76.87426 C 261.59992,76.911 261.35788,76.94857 261.11143,76.98692 C 260.868,77.0248 260.62028,77.06345 260.36863,77.10281 C 260.12026,77.14166 259.86807,77.18121 259.6124,77.22141 C 251.34585,78.52132 239.45001,80.50589 235.92727,81.68012 m 0,0 C 235.9217,81.68198 235.91612,81.68384 235.91053,81.68571 C 235.89379,81.69132 235.87697,81.69701 235.86007,81.70277 C 235.84041,81.70947 235.82064,81.71627 235.80076,81.72317 C 235.77529,81.73201 235.74965,81.74101 235.72383,81.75017 C 235.69528,81.76031 235.66651,81.77064 235.63753,81.78117 C 235.60581,81.79269 235.57384,81.80445 235.54162,81.81644 C 235.50667,81.82945 235.47143,81.84273 235.4359,81.85628 C 235.39469,81.87199 235.3531,81.88807 235.31112,81.90451 C 235.26646,81.922 235.22137,81.93989 235.17585,81.95818 C 235.12766,81.97754 235.079,81.99735 235.02987,82.0176 C 234.97199,82.04146 234.91347,82.06593 234.85431,82.091 C 234.78338,82.12106 234.71154,82.15198 234.63881,82.18374 C 234.54503,82.22469 234.44978,82.26704 234.35311,82.31075 C 234.25472,82.35524 234.15486,82.40114 234.05358,82.44841 C 233.94744,82.49795 233.83974,82.54899 233.73056,82.60147 C 233.61342,82.65778 233.49456,82.71576 233.37407,82.77534 C 233.24917,82.8371 233.12252,82.90059 232.9942,82.96573 C 232.86501,83.03131 232.73413,83.09857 232.60166,83.16744 C 232.46511,83.23843 232.32686,83.31112 232.18702,83.38544 C 232.0467,83.46002 231.90478,83.53624 231.76135,83.61402 C 231.61424,83.69379 231.46555,83.7752 231.31539,83.85817 C 231.16185,83.943 231.00677,84.02946 230.85027,84.11746 C 230.69404,84.2053 230.53639,84.29467 230.37744,84.38549 C 230.20571,84.48361 230.03246,84.58341 229.85783,84.68478 C 229.6812,84.78731 229.50317,84.89144 229.32388,84.99706 C 229.1462,85.10173 228.96729,85.20786 228.78729,85.31534 C 228.60269,85.42556 228.41695,85.5372 228.23022,85.65013 C 228.04578,85.76168 227.86038,85.87449 227.67418,85.98844 C 227.49041,86.1009 227.30585,86.21448 227.12065,86.32905 C 221.13267,90.03359 214.47737,94.78091 212.13203,96.69981 m 0,0 C 212.12832,96.70285 212.1246,96.7059 212.12088,96.70895 C 212.1153,96.71353 212.10971,96.71812 212.10411,96.72273 C 212.09294,96.73194 212.08173,96.74122 212.07048,96.75058 C 212.05553,96.76302 212.04051,96.77558 212.02543,96.78827 C 212.00477,96.80565 211.98399,96.82327 211.96309,96.84112 C 211.92908,96.87017 211.89474,96.89984 211.86009,96.93013 C 211.82384,96.96182 211.78725,96.99418 211.75032,97.0272 C 211.71182,97.06163 211.67295,97.09678 211.63372,97.13264 C 211.58906,97.17347 211.54393,97.21522 211.49835,97.25788 C 211.45133,97.30188 211.40383,97.34685 211.35586,97.39277 C 211.30451,97.44192 211.25262,97.49215 211.20021,97.54345 C 211.14649,97.59603 211.09222,97.64973 211.03742,97.70452 C 210.98136,97.76058 210.92474,97.81779 210.86758,97.87612 C 210.8072,97.93774 210.74621,98.00062 210.68464,98.06472 C 210.61591,98.13628 210.54646,98.20937 210.47632,98.28395 C 210.40534,98.35942 210.33365,98.43642 210.26128,98.5149 C 210.18408,98.59862 210.10611,98.68403 210.0274,98.77108 C 209.94613,98.86097 209.86407,98.95261 209.78127,99.04595 C 209.69607,99.14199 209.61008,99.23983 209.52335,99.33941 C 209.43642,99.43922 209.34874,99.54077 209.26036,99.64401 C 209.16785,99.75208 209.07457,99.86199 208.98058,99.97368 C 208.88675,100.08518 208.79221,100.19845 208.69701,100.31343 C 208.60207,100.42809 208.50647,100.54445 208.41027,100.66244 C 208.31246,100.7824 208.21403,100.90404 208.11503,101.0273 C 208.01657,101.14988 207.91754,101.27405 207.818,101.39975 C 207.71149,101.53426 207.60439,101.67052 207.49677,101.80844 C 207.38843,101.94728 207.27956,102.08781 207.17022,102.22994 C 207.06222,102.37033 206.95377,102.51228 206.84493,102.65571 C 203.26435,107.37422 199.26318,113.69174 197.11234,118.63868 m 0,0 C 197.11065,118.64256 197.10896,118.64644 197.10727,118.65033 C 197.10389,118.6581 197.10051,118.66589 197.09713,118.67369 C 197.09207,118.68538 197.087,118.6971 197.08193,118.70885 C 197.07181,118.73231 197.06167,118.75589 197.05152,118.7796 C 197.03972,118.80717 197.0279,118.83491 197.01606,118.86281 C 197.00089,118.89855 196.98569,118.93456 196.97046,118.97083 C 196.95362,119.01095 196.93674,119.05139 196.91983,119.09215 C 196.90132,119.13676 196.88277,119.18176 196.86418,119.22713 C 196.84401,119.27635 196.82379,119.32602 196.80353,119.37612 C 196.78003,119.43422 196.75647,119.49291 196.73285,119.55218 C 196.70772,119.61524 196.68252,119.67895 196.65726,119.7433 C 196.62718,119.81994 196.597,119.8975 196.56673,119.97595 C 196.53507,120.05801 196.50331,120.14104 196.47146,120.22503 C 196.43826,120.3126 196.40496,120.4012 196.37156,120.49081 C 196.33519,120.5884 196.29871,120.68719 196.26212,120.78714 C 196.22429,120.89049 196.18635,120.99508 196.1483,121.10088 C 196.10905,121.21001 196.06969,121.32043 196.03023,121.43209 C 195.98637,121.5562 195.94238,121.68185 195.89827,121.80899 C 195.84992,121.94835 195.80143,122.08949 195.75281,122.23234 C 195.70332,122.37774 195.6537,122.52491 195.60397,122.67378 C 195.54711,122.84398 195.4901,123.0164 195.43296,123.19093 C 195.37373,123.37184 195.31437,123.55501 195.25489,123.74031 C 195.19501,123.92687 195.13501,124.1156 195.07493,124.30636 C 195.01451,124.4982 194.954,124.69209 194.89343,124.88791 C 194.82516,125.1086 194.75682,125.33174 194.68843,125.55713 C 194.62016,125.78213 194.55185,126.00937 194.48354,126.23868 C 194.414,126.47213 194.34446,126.70771 194.27495,126.94523 C 194.20023,127.20057 194.12555,127.45816 194.05096,127.71774 C 193.97704,127.97499 193.90321,128.2342 193.82952,128.49513 C 193.75656,128.7535 193.68373,129.01355 193.61109,129.27506 C 193.53922,129.53379 193.46753,129.79394 193.39607,130.05529 C 193.32299,130.32255 193.25015,130.59107 193.17759,130.8606 C 190.83146,139.57538 188.78249,149.34939 188.67432,152.05327 m 0,0 C 188.50555,156.27229 189.01184,187.15547 194.24341,200.31879 m 0,0 C 199.47499,213.48212 212.80708,240.48381 218.03865,246.05291 m 0,0 C 223.27023,251.62201 239.64001,270.35443 248.41556,274.91097 m 0,0 C 257.19111,279.4675 262.08516,278.6237 264.11029,278.11742 m 0,0 C 266.13542,277.61114 267.44096,275.80543 269.40515,275.75477 m 0,0 C 272.59075,275.67257 273.8984,276.59857 278.45494,279.12998 m 0,0 C 283.01147,281.66139 283.18023,283.68652 287.73677,283.34899 m 0,0 C 292.2933,283.01147 294.99347,284.02404 299.04373,280.48006 m 0,0 C 303.09398,276.93609 310.35069,271.53575 312.71333,271.53575 m 0,0 C 315.07598,271.53575 317.60739,271.19823 320.81384,272.71708 m 0,0 C 324.02029,274.23592 324.69533,277.10485 329.75815,277.94866 m 0,0 C 334.82097,278.79246 346.63421,274.23592 351.86579,270.35443 m 0,0 C 357.09736,266.47294 371.27325,254.15342 374.98598,249.25936 m 0,0 C 378.69872,244.3653 395.40601,221.58263 399.11874,207.91302 m 0,0 C 402.83148,194.24341 408.40058,172.81082 407.89429,164.20403 m 0,0 C 407.38801,155.59724 406.71297,135.00845 402.83148,124.88282 m 0,0 C 398.94998,114.75719 387.3055,99.23121 380.72384,93.49336 m 0,0 C 374.14218,87.7555 356.0848,77.46111 338.70246,75.60474 m 0,0 C 321.32012,73.74837 300.60396,72.49629 286.89297,73.57961 m 0,0 C 284.16177,73.79541 281.59215,73.99445 281.27642,73.98279 " id="path846" sodipodi:nodetypes="ccsssssssssssssssssssssssc"/>
    <path style="fill:none;stroke:#b42d2d;stroke-width:1px;stroke-linecap:butt;stroke-linejoin:miter;stroke-opacity:1" d="m 252.50597,86.27685  C 252.50597,86.27685 264.43914,95.34606 280.19093,94.7494 m 0,0 C 295.94272,94.15274 313.48449,92.95943 319.9284,89.97613 m 0,0 C 326.37232,86.99284 331.38425,82.57756 333.29356,81.38424 " id="path848" sodipodi:nodetypes="cssc"/>
  </g>
  <g inkscape:groupmode="layer" id="layer2" inkscape:label="vectorVetka" style="display:inline" transform="translate(-188.14544,-11.900563)">
    <path style="fill:none;fill-opacity:1;stroke:#5e3a2a;stroke-width:1px;stroke-linecap:butt;stroke-linejoin:miter;stroke-opacity:1" d="m 286.55544,94.463728  C 284.69881,88.08928 282.68565,83.87972 277.12691,75.81782 m 0,0 C 268.4014,63.07588 260.15001,54.14951 259.72251,52.65329 m 0,0 C 259.04746,50.29065 257.46055,47.53275 256.3473,47.92799 m 0,0 C 254.33066,48.64398 246.21494,50.87706 248.40883,54.92731 m 0,0 C 250.60272,58.97756 254.98874,57.22854 254.98874,57.22854 m 0,0 C 254.98874,57.22854 273.72964,74.97187 280.48006,94.71686 " id="path851" sodipodi:nodetypes="ccssscc"/>
  </g>
  <g inkscape:groupmode="layer" id="layer3" inkscape:label="vectorListok" style="display:inline" transform="translate(-188.14544,-11.900563)">
    <path style="fill:none;fill-opacity:1;stroke:#2f7029;stroke-width:1px;stroke-linecap:butt;stroke-linejoin:miter;stroke-opacity:1" d="m 275.92482,74.194511  C 275.50716,74.16468 274.46301,75.11933 275.23866,76.43198 m 0,0 C 276.01432,77.74463 276.61098,78.52029 277.77446,77.89379 m 0,0 C 278.93795,77.2673 287.17467,66.30223 288.3272,66.32311 m 0,0 C 289.60853,66.34632 298.26969,67.95942 307.21957,67.3031 m 0,0 C 316.16945,66.64678 328.46062,64.8568 333.65155,62.17184 m 0,0 C 338.84248,59.48688 351.43198,53.10263 355.60859,49.04535 m 0,0 C 359.7852,44.98807 372.91169,30.31027 374.10501,27.68497 m 0,0 C 375.29833,25.05967 376.99881,21.24106 376.87948,20.40573 m 0,0 C 376.76015,19.57041 374.70167,18.0191 372.43437,17.18377 m 0,0 C 370.16706,16.34845 359.66587,12.17184 351.43198,12.4105 m 0,0 C 343.19809,12.64916 336.39618,13.12649 329.95227,15.27446 m 0,0 C 323.50835,17.42243 312.64917,22.1957 305.13127,29.23627 m 0,0 C 297.61337,36.27684 293.43675,39.97613 290.69212,44.98806 m 0,0 C 287.94749,49.99999 286.39618,57.75656 286.03819,60.62052 m 0,0 C 285.68019,63.48448 286.92294,63.76534 285.25229,65.19732 m 0,0 C 283.58165,66.6293 277.14797,73.80668 275.92482,74.19451 m 0,0 Z " id="path853"/>
    <path style="fill:none;stroke:#2f7029;stroke-width:1px;stroke-linecap:butt;stroke-linejoin:miter;stroke-opacity:1" d="m 288.18616,63.245823  C 288.18616,63.24582 311.69451,47.01671 319.80907,44.27208 m 0,0 C 327.92363,41.52745 366.22912,22.31504 368.49642,21.59905 " id="path881"/>
  </g>
</svg>