<svg xmlns:dc="http://purl.org/dc/elements/1.1/" xmlns:cc="http://creativecommons.org/ns#" xmlns:rdf="http://www.w3.org/1999/02/22-rdf-syntax-ns#" xmlns:svg="http://www.w3.org/2000/svg" xmlns="http://www.w3.org/2000/svg" xmlns:sodipodi="http://sodipodi.sourceforge.net/DTD/sodipodi-0.dtd" xmlns:inkscape="http://www.inkscape.org/namespaces/inkscape" version="1.1" id="svg833" width="220.28174" height="271.98315" viewBox="0 0 220.28174 271.98315" sodipodi:docname="appleWithoutBackground.svg" inkscape:version="1.0.2 (e86c870879, 2021-01-15, custom)">
  <metadata id="metadata839">
    <rdf:RDF>
      <cc:Work rdf:about="">
        <dc:format>image/svg+xml</dc:format>
        <dc:type rdf:resource="http://purl.org/dc/dcmitype/StillImage"/>
        <dc:title/>
      </cc:Work>
    </rdf:RDF>
  </metadata>
  <defs id="defs837"/>
  <sodipodi:namedview pagecolor="#ffffff" bordercolor="#666666" borderopacity="1" objecttolerance="10" gridtolerance="10" guidetolerance="10" inkscape:pageopacity="0" inkscape:pageshadow="2" inkscape:window-width="1849" inkscape:window-height="1057" id="namedview835" showgrid="false" inkscape:zoom="0.74069435" inkscape:cx="-166.91494" inkscape:cy="88.863331" inkscape:window-x="63" inkscape:window-y="-8" inkscape:window-maximized="1" inkscape:current-layer="layer2" fit-margin-top="0" fit-margin-left="0" fit-margin-right="0" fit-margin-bottom="0"/>
  <g inkscape:groupmode="layer" id="layer1" inkscape:label="vectorApple" style="display:inline" transform="translate(-188.14544,-11.900563)">
    <path style="fill:none;fill-opacity:1;stroke:#b42d2d;stroke-width:1px;stroke-linecap:butt;stroke-linejoin:miter;stroke-opacity:1" d="m 270.37027,75.596556  C 269.81883,75.67513 267.99178,75.94226 267.99178,75.94226 m 0,0 C 267.99178,75.94226 241.49637,79.82375 235.92727,81.68012 m 0,0 C 235.9217,81.68198 235.91612,81.68384 235.91053,81.68571 C 235.90216,81.68852 235.89377,81.69135 235.88536,81.69419 C 235.87136,81.69892 235.85731,81.7037 235.8432,81.70853 C 235.81505,81.71817 235.78668,81.72802 235.7581,81.73807 C 235.72682,81.74907 235.69528,81.76031 235.66348,81.77179 C 235.62323,81.78632 235.58257,81.80123 235.5415,81.81651 C 235.4949,81.83386 235.44778,81.85169 235.40015,81.87 C 235.34699,81.89043 235.29319,81.91146 235.23877,81.93307 C 235.18184,81.95568 235.12423,81.97893 235.06596,82.0028 C 235.0052,82.02769 234.94372,82.05326 234.88153,82.0795 C 234.81688,82.10678 234.75147,82.13478 234.68531,82.16349 C 234.6105,82.19596 234.53473,82.22934 234.45804,82.2636 C 234.37279,82.30168 234.2864,82.34085 234.19891,82.38109 C 234.09022,82.43107 233.97982,82.48269 233.86779,82.5359 C 233.75442,82.58974 233.63938,82.6452 233.52274,82.70223 C 233.40487,82.75986 233.28537,82.81909 233.16432,82.87985 C 233.03884,82.94283 232.91169,83.00746 232.78296,83.07368 C 226.13643,86.49257 215.27189,94.13087 212.13203,96.69981 m 0,0 C 212.12832,96.70285 212.1246,96.7059 212.12088,96.70895 C 212.1153,96.71353 212.10971,96.71812 212.10411,96.72273 C 212.0948,96.73041 212.08546,96.73814 212.0761,96.74592 C 212.06489,96.75523 212.05365,96.76461 212.04237,96.77406 C 212.02925,96.78505 212.01608,96.79614 212.00286,96.80733 C 211.9878,96.82007 211.97268,96.83293 211.95749,96.84592 C 211.93858,96.86209 211.91957,96.87845 211.90047,96.895 C 211.87956,96.91312 211.85853,96.93146 211.83739,96.95003 C 211.81063,96.97354 211.78368,96.99741 211.75655,97.02164 C 211.72191,97.05257 211.68697,97.08409 211.65174,97.11619 C 211.61489,97.14977 211.57772,97.18398 211.54024,97.21881 C 211.49334,97.26239 211.44595,97.30695 211.39808,97.35247 C 211.34685,97.40119 211.29507,97.45101 211.24276,97.50191 C 211.18914,97.55408 211.13497,97.60738 211.08026,97.66179 C 211.02428,97.71746 210.96774,97.77429 210.91065,97.83226 C 210.85235,97.89146 210.79348,97.95185 210.73406,98.0134 C 210.66944,98.08033 210.60417,98.14863 210.53827,98.21827 C 210.46735,98.29323 210.3957,98.36974 210.32335,98.44776 C 206.26169,102.82812 200.00898,111.97637 197.11234,118.63868 m 0,0 C 197.10896,118.64644 197.10558,118.65422 197.1022,118.66201 C 197.09714,118.67368 197.09207,118.68538 197.087,118.69711 C 197.07856,118.71664 197.07011,118.73625 197.06166,118.75595 C 197.04817,118.78739 197.03465,118.81904 197.02111,118.8509 C 197.00425,118.89057 196.98736,118.93057 196.97043,118.97089 C 196.9519,119.01502 196.93333,119.05954 196.91472,119.10445 C 196.89453,119.15317 196.87429,119.20234 196.854,119.25196 C 196.82879,119.31361 196.80351,119.37595 196.77816,119.43897 C 196.75132,119.50569 196.7244,119.57316 196.69741,119.64138 C 196.66561,119.72174 196.63371,119.80313 196.60171,119.88553 C 196.55667,120.00152 196.51143,120.11951 196.466,120.23943 C 196.41952,120.36212 196.37285,120.48683 196.326,120.6135 C 196.27485,120.75177 196.22349,120.89237 196.17193,121.03521 C 196.11462,121.19398 196.05707,121.35552 195.9993,121.5197 C 195.94092,121.68562 195.88232,121.85423 195.82352,122.02541 C 195.76257,122.20285 195.70141,122.38305 195.64007,122.56587 C 192.47287,132.00495 188.8197,148.41821 188.67432,152.05327 m 0,0 C 188.67407,152.0596 188.67382,152.06599 188.67357,152.07244 C 188.67315,152.08317 188.67274,152.09407 188.67233,152.10513 C 188.67184,152.11837 188.67136,152.13185 188.67088,152.14556 C 188.67033,152.16151 188.66979,152.17778 188.66925,152.19437 C 188.66841,152.22034 188.66759,152.24709 188.66679,152.27461 C 188.66593,152.30446 188.66509,152.33522 188.66428,152.36687 C 188.663,152.41669 188.66179,152.46873 188.66065,152.52295 C 188.65946,152.57948 188.65834,152.63838 188.6573,152.69962 C 188.65607,152.77237 188.65495,152.84841 188.65395,152.92768 C 188.57141,159.45415 189.28545,187.84389 194.24341,200.31879 m 0,0 C 199.47499,213.48212 212.80708,240.48381 218.03865,246.05291 m 0,0 C 223.27023,251.62201 239.64001,270.35443 248.41556,274.91097 m 0,0 C 257.19111,279.4675 262.08516,278.6237 264.11029,278.11742 m 0,0 C 266.13542,277.61114 267.44096,275.80543 269.40515,275.75477 m 0,0 C 272.59075,275.67257 273.8984,276.59857 278.45494,279.12998 m 0,0 C 283.01147,281.66139 283.18023,283.68652 287.73677,283.34899 m 0,0 C 292.2933,283.01147 294.99347,284.02404 299.04373,280.48006 m 0,0 C 303.09398,276.93609 310.35069,271.53575 312.71333,271.53575 m 0,0 C 315.07598,271.53575 317.60739,271.19823 320.81384,272.71708 m 0,0 C 324.02029,274.23592 324.69533,277.10485 329.75815,277.94866 m 0,0 C 334.82097,278.79246 346.63421,274.23592 351.86579,270.35443 m 0,0 C 357.09736,266.47294 371.27325,254.15342 374.98598,249.25936 m 0,0 C 378.69872,244.3653 395.40601,221.58263 399.11874,207.91302 m 0,0 C 402.83148,194.24341 408.40058,172.81082 407.89429,164.20403 m 0,0 C 407.38801,155.59724 406.71297,135.00845 402.83148,124.88282 m 0,0 C 398.94998,114.75719 387.3055,99.23121 380.72384,93.49336 m 0,0 C 374.14218,87.7555 356.0848,77.46111 338.70246,75.60474 m 0,0 C 321.32012,73.74837 300.60396,72.49629 286.89297,73.57961 m 0,0 C 284.16177,73.79541 281.59215,73.99445 281.27642,73.98279 " id="path846" sodipodi:nodetypes="ccsssssssssssssssssssssssc"/>
    <path style="fill:none;stroke:#b42d2d;stroke-width:1px;stroke-linecap:butt;stroke-linejoin:miter;stroke-opacity:1" d="m 252.50597,86.27685  C 252.50597,86.27685 264.43914,95.34606 280.19093,94.7494 m 0,0 C 295.94272,94.15274 313.48449,92.95943 319.9284,89.97613 m 0,0 C 326.37232,86.99284 331.38425,82.57756 333.29356,81.38424 " id="path848" sodipodi:nodetypes="cssc"/>
  </g>
  <g inkscape:groupmode="layer" id="layer2" inkscape:label="vectorVetka" style="display:inline" transform="translate(-188.14544,-11.900563)">
    <path style="fill:none;fill-opacity:1;stroke:#5e3a2a;stroke-width:1px;stroke-linecap:butt;stroke-linejoin:miter;stroke-opacity:1" d="m 286.55544,94.463728  C 284.69881,88.08928 282.68565,83.87972 277.12691,75.81782 m 0,0 C 268.4014,63.07588 260.15001,54.14951 259.72251,52.65329 m 0,0 C 259.04746,50.29065 257.46055,47.53275 256.3473,47.92799 m 0,0 C 254.33066,48.64398 246.21494,50.87706 248.40883,54.92731 m 0,0 C 250.60272,58.97756 254.98874,57.22854 254.98874,57.22854 m 0,0 C 254.98874,57.22854 273.72964,74.97187 280.48006,94.71686 " id="path851" sodipodi:nodetypes="ccssscc"/>
  </g>
  <g inkscape:groupmode="layer" id="layer3" inkscape:label="vectorListok" style="display:inline" transform="translate(-188.14544,-11.900563)">
    <path style="fill:none;fill-opacity:1;stroke:#2f7029;stroke-width:1px;stroke-linecap:butt;stroke-linejoin:miter;stroke-opacity:1" d="m 275.92482,74.194511  C 275.50716,74.16468 274.46301,75.11933 275.23866,76.43198 m 0,0 C 276.01432,77.74463 276.61098,78.52029 277.77446,77.89379 m 0,0 C 278.93795,77.2673 287.17467,66.30223 288.3272,66.32311 m 0,0 C 289.60853,66.34632 298.26969,67.95942 307.21957,67.3031 m 0,0 C 316.16945,66.64678 328.46062,64.8568 333.65155,62.17184 m 0,0 C 338.84248,59.48688 351.43198,53.10263 355.60859,49.04535 m 0,0 C 359.7852,44.98807 372.91169,30.31027 374.10501,27.68497 m 0,0 C 375.29833,25.05967 376.99881,21.24106 376.87948,20.40573 m 0,0 C 376.76015,19.57041 374.70167,18.0191 372.43437,17.18377 m 0,0 C 370.16706,16.34845 359.66587,12.17184 351.43198,12.4105 m 0,0 C 343.19809,12.64916 336.39618,13.12649 329.95227,15.27446 m 0,0 C 323.50835,17.42243 312.64917,22.1957 305.13127,29.23627 m 0,0 C 297.61337,36.27684 293.43675,39.97613 290.69212,44.98806 m 0,0 C 287.94749,49.99999 286.39618,57.75656 286.03819,60.62052 m 0,0 C 285.68019,63.48448 286.92294,63.76534 285.25229,65.19732 m 0,0 C 283.58165,66.6293 277.14797,73.80668 275.92482,74.19451 m 0,0 Z " id="path853"/>
    <path style="fill:none;stroke:#2f7029;stroke-width:1px;stroke-linecap:butt;stroke-linejoin:miter;stroke-opacity:1" d="m 288.18616,63.245823  C 288.18616,63.24582 311.69451,47.01671 319.80907,44.27208 m 0,0 C 327.92363,41.52745 366.22912,22.31504 368.49642,21.59905 " id="path881"/>
  </g>
</svg>