<!DOCTYPE svg PUBLIC "-//W3C//DTD SVG 1.1//EN" "http://www.w3.org/Graphics/SVG/1.1/DTD/svg11.dtd"><!-- Creator: CorelDRAW 2020 (64-Bit) --><svg xmlns="http://www.w3.org/2000/svg" xmlns:xlink="http://www.w3.org/1999/xlink" xmlns:xodm="http://www.corel.com/coreldraw/odm/2003" xml:space="preserve" width="210mm" height="297mm" version="1.1" style="shape-rendering:geometricPrecision; text-rendering:geometricPrecision; image-rendering:optimizeQuality; fill-rule:evenodd; clip-rule:evenodd" viewBox="-80 -80 200 200">
 <defs>
  <style type="text/css">
   <![CDATA[
    .str0 {stroke:#2B2A29;stroke-width:2;stroke-miterlimit:22.9256}
    .fil0 {fill:none}
   ]]>
  </style>
 </defs>
    <g id="Слой_x0020_1">
  <metadata id="CorelCorpID_0Corel-Layer"/>
        <path class="fil0 str0" d="M -53.125277,-54.766408  C -53.06278,-54.79141 -53.0003,-54.81626 -52.93785,-54.84096 C -52.8132,-54.89026 -52.68865,-54.93896 -52.56419,-54.98706 C -52.34726,-55.0709 -52.13063,-55.15291 -51.91428,-55.23308 C -51.66875,-55.32407 -51.42359,-55.41269 -51.17878,-55.49892 C -50.87521,-55.60585 -50.57218,-55.70911 -50.26966,-55.80866 C -49.94021,-55.91707 -49.61136,-56.02109 -49.28308,-56.12067 C -48.92889,-56.2281 -48.57536,-56.33036 -48.22244,-56.4274 C -47.81564,-56.53925 -47.40965,-56.64416 -47.00439,-56.74204 C -46.49064,-56.86613 -45.97808,-56.97892 -45.46655,-57.08023 C -44.93632,-57.18525 -44.4072,-57.27794 -43.87903,-57.3581 C -43.27908,-57.44915 -42.68035,-57.52403 -42.0826,-57.58246 C -41.44486,-57.6448 -40.80823,-57.68841 -40.17242,-57.71293 C -39.50015,-57.73886 -38.8288,-57.74345 -38.15802,-57.72629 C -37.47955,-57.70893 -36.80166,-57.66932 -36.12399,-57.60702 C -35.39136,-57.53967 -34.65898,-57.4458 -33.92641,-57.32487 C -33.19213,-57.20365 -32.45765,-57.05525 -31.72252,-56.87911 C -30.9872,-56.70292 -30.25122,-56.49898 -29.51413,-56.26674 C -28.75603,-56.02788 -27.99675,-55.75908 -27.23579,-55.45974 C -26.47909,-55.16207 -25.72073,-54.8342 -24.96022,-54.47555 C -24.12149,-54.08001 -23.28014,-53.64702 -22.43552,-53.1758 C -2.16463,-41.86652 19.99074,-8.53437 53.124722,57.733591 "/>
 </g>
</svg>