<svg xmlns:dc="http://purl.org/dc/elements/1.1/" xmlns:cc="http://creativecommons.org/ns#" xmlns:rdf="http://www.w3.org/1999/02/22-rdf-syntax-ns#" xmlns:svg="http://www.w3.org/2000/svg" xmlns="http://www.w3.org/2000/svg" xmlns:sodipodi="http://sodipodi.sourceforge.net/DTD/sodipodi-0.dtd" xmlns:inkscape="http://www.inkscape.org/namespaces/inkscape" version="1.1" id="svg833" width="220.28174" height="271.98315" viewBox="0 0 220.28174 271.98315" sodipodi:docname="appleWithoutBackground.svg" inkscape:version="1.0.2 (e86c870879, 2021-01-15, custom)">
  <metadata id="metadata839">
    <rdf:RDF>
      <cc:Work rdf:about="">
        <dc:format>image/svg+xml</dc:format>
        <dc:type rdf:resource="http://purl.org/dc/dcmitype/StillImage"/>
        <dc:title/>
      </cc:Work>
    </rdf:RDF>
  </metadata>
  <defs id="defs837"/>
  <sodipodi:namedview pagecolor="#ffffff" bordercolor="#666666" borderopacity="1" objecttolerance="10" gridtolerance="10" guidetolerance="10" inkscape:pageopacity="0" inkscape:pageshadow="2" inkscape:window-width="1849" inkscape:window-height="1057" id="namedview835" showgrid="false" inkscape:zoom="0.74069435" inkscape:cx="-166.91494" inkscape:cy="88.863331" inkscape:window-x="63" inkscape:window-y="-8" inkscape:window-maximized="1" inkscape:current-layer="layer2" fit-margin-top="0" fit-margin-left="0" fit-margin-right="0" fit-margin-bottom="0"/>
  <g inkscape:groupmode="layer" id="layer1" inkscape:label="vectorApple" style="display:inline" transform="translate(-188.14544,-11.900563)">
    <path style="fill:none;fill-opacity:1;stroke:#b42d2d;stroke-width:1px;stroke-linecap:butt;stroke-linejoin:miter;stroke-opacity:1" d="m 270.37027,75.596556  C 269.81883,75.675126 267.99178,75.942256 267.99178,75.942256 m 0,0 C 267.99178,75.942256 267.991674,75.942272 267.991462,75.942303 C 267.99104,75.942365 267.990197,75.942489 267.988936,75.942674 C 267.986739,75.942996 267.983273,75.943504 267.978553,75.944197 C 267.973197,75.944983 267.966227,75.946006 267.957667,75.947264 C 267.947052,75.948823 267.933992,75.950743 267.918531,75.953018 C 267.901694,75.955495 267.88201,75.958393 267.859536,75.961704 C 267.835288,75.965277 267.807793,75.969331 267.777123,75.973857 C 267.74177,75.979074 267.702199,75.984919 267.658519,75.991378 C 267.603146,75.999566 267.54117,76.008741 267.472817,76.018875 C 267.401966,76.029379 267.324263,76.040913 267.239959,76.053446 C 267.144199,76.067682 267.039922,76.083206 266.927496,76.099973 C 266.807547,76.117862 266.678322,76.137166 266.540268,76.157829 C 266.394299,76.179676 266.238459,76.203043 266.073276,76.227863 C 265.9062,76.252968 265.729565,76.27956 265.543918,76.307571 C 265.343213,76.337854 265.131975,76.369795 264.910894,76.403309 C 264.689297,76.436901 264.457811,76.472073 264.21713,76.508738 C 263.976387,76.545413 263.726446,76.583582 263.468001,76.623158 C 263.202191,76.663862 262.927386,76.706055 262.644343,76.749643 C 262.362882,76.792987 262.073275,76.83771 261.776266,76.88372 C 261.448708,76.934462 261.112147,76.986769 260.767581,77.040516 C 252.498,78.33044 239.6178,80.44994 235.92727,81.680115 m 0,0 C 235.916132,81.683828 235.904958,81.687574 235.893748,81.691353 C 235.876967,81.69701 235.860106,81.702741 235.843166,81.708545 C 235.815018,81.718189 235.786651,81.728036 235.758067,81.738084 C 235.723938,81.750081 235.6895,81.762365 235.654758,81.774932 C 235.614469,81.789506 235.57377,81.80446 235.532668,81.81979 C 235.474362,81.841537 235.415245,81.86404 235.355335,81.887285 C 235.290093,81.912599 235.223911,81.938793 235.156813,81.965848 C 235.078387,81.99747 234.998709,82.030269 234.917818,82.064215 C 234.831837,82.100297 234.744484,82.137675 234.655806,82.176314 C 234.562124,82.217133 234.466962,82.259359 234.370374,82.30295 C 234.268892,82.348749 234.165837,82.396055 234.06127,82.444819 C 233.945514,82.498801 233.827906,82.55457 233.708531,82.61206 C 233.584792,82.671652 233.459154,82.733093 233.331711,82.79631 C 233.186949,82.868118 233.039858,82.942218 232.890576,83.018502 C 232.737942,83.096499 232.583018,83.176779 232.425952,83.259227 C 232.265826,83.343281 232.103474,83.429589 231.939051,83.518029 C 231.765201,83.611539 231.589037,83.707433 231.410743,83.805566 C 231.230406,83.904824 231.04789,84.006373 230.863387,84.110065 C 230.677217,84.214694 230.489024,84.321504 230.299004,84.430342 C 230.094515,84.547467 229.887911,84.666941 229.679437,84.788574 C 229.457876,84.917842 229.234202,85.049548 229.00871,85.183463 C 228.784478,85.316629 228.558448,85.45198 228.330909,85.58929 C 228.079966,85.740723 227.827188,85.89454 227.572963,86.050438 C 221.471558,89.791992 214.536598,94.732437 212.13203,96.699806 m 0,0 C 212.124605,96.705881 212.117163,96.711989 212.109704,96.718129 C 212.098538,96.727321 212.087334,96.736585 212.076093,96.745921 C 212.061149,96.758332 212.046139,96.77087 212.031064,96.783535 C 211.993526,96.815071 211.955582,96.847392 211.91724,96.880488 C 211.875485,96.916529 211.833258,96.953489 211.79057,96.991352 C 211.740676,97.035607 211.690152,97.081097 211.639015,97.127799 C 211.569131,97.191622 211.498104,97.257708 211.425978,97.325999 C 211.351215,97.396786 211.275272,97.469941 211.198199,97.545399 C 211.118611,97.62332 211.037818,97.703696 210.955874,97.786456 C 210.871554,97.871616 210.786016,97.9593 210.699321,98.049429 C 210.602321,98.15027 210.503872,98.254172 210.404058,98.361025 C 210.294462,98.47835 210.18322,98.599233 210.070444,98.723528 C 209.932264,98.875822 209.791781,99.033238 209.649199,99.195509 C 209.507414,99.356873 209.363553,99.523037 209.217819,99.693738 C 209.069149,99.867878 208.918529,100.046739 208.766173,100.230042 C 208.607558,100.420875 208.447061,100.616523 208.284923,100.81667 C 204.393622,105.620192 199.557401,113.015051 197.11234,118.63868 m 0,0 C 197.10559,118.654206 197.098834,118.669787 197.092071,118.685422 C 197.081948,118.708828 197.071811,118.732356 197.061661,118.756005 C 197.048168,118.787442 197.034651,118.819093 197.021111,118.850956 C 196.997511,118.906494 196.973841,118.962677 196.950102,119.019494 C 196.923162,119.083973 196.896134,119.149269 196.869021,119.215366 C 196.832039,119.305523 196.794899,119.397171 196.757609,119.490273 C 196.697259,119.640945 196.636516,119.795424 196.575412,119.953547 C 196.512074,120.11745 196.448349,120.285269 196.384272,120.456823 C 196.318104,120.633975 196.251562,120.81511 196.184686,121.000029 C 196.112593,121.199372 196.040112,121.403112 195.967293,121.611001 C 195.883127,121.851283 195.798509,122.097107 195.713517,122.348088 C 195.627551,122.601946 195.541203,122.86108 195.454552,123.125092 C 195.363996,123.401004 195.27311,123.682245 195.181986,123.96836 C 195.078249,124.294077 194.974203,124.62611 194.869984,124.96379 C 194.766347,125.299583 194.662539,125.64096 194.558693,125.987261 C 194.449892,126.350086 194.341049,126.718317 194.232317,127.091196 C 194.122212,127.468785 194.012221,127.851141 193.902504,128.237476 C 191.269285,137.509519 188.793498,149.073794 188.67432,152.05327 m 0,0 C 188.673814,152.065927 188.673314,152.078824 188.67282,152.09196 C 188.671178,152.135615 188.669604,152.181907 188.668103,152.230792 C 188.666468,152.284028 188.664919,152.340339 188.663461,152.399669 C 188.661888,152.46368 188.660421,152.531205 188.659066,152.602173 C 188.657504,152.683975 188.656091,152.770351 188.654838,152.861191 C 188.653249,152.97635 188.651916,153.098684 188.65086,153.22797 C 188.649765,153.361982 188.648967,153.503464 188.648488,153.652168 C 188.647944,153.82108 188.647813,153.99931 188.648127,154.186495 C 188.648462,154.386204 188.649304,154.596106 188.650693,154.81576 C 188.652162,155.048007 188.654243,155.291157 188.656983,155.544687 C 188.659754,155.801123 188.6632,156.068179 188.66737,156.345315 C 188.672028,156.654917 188.67759,156.977099 188.684124,157.311108 C 188.69066,157.645203 188.698168,157.991132 188.706717,158.348142 C 188.71551,158.715326 188.725405,159.094232 188.736476,159.48404 C 188.747485,159.871669 188.759657,160.270079 188.773066,160.678463 C 188.786745,161.095073 188.801711,161.522064 188.818042,161.95858 C 189.243084,173.319791 190.592818,191.133418 194.24341,200.31879 m 0,0 C 194.253873,200.345117 194.264369,200.371499 194.274897,200.397936 C 194.290657,200.437512 194.306489,200.477212 194.322393,200.517034 C 194.348821,200.583205 194.375447,200.649714 194.40227,200.716557 C 194.434296,200.796368 194.466603,200.876655 194.499186,200.95741 C 194.536972,201.051059 194.57513,201.145338 194.613655,201.240236 C 194.668305,201.374855 194.723693,201.510719 194.779805,201.647795 C 194.84091,201.79707 194.902873,201.947782 194.965674,202.099889 C 195.039077,202.277674 195.113625,202.457364 195.189287,202.638892 C 195.281199,202.859406 195.374754,203.082631 195.469897,203.308446 C 195.57522,203.558423 195.682489,203.811573 195.791627,204.067732 C 195.904755,204.333255 196.019892,204.60201 196.136953,204.873813 C 196.257834,205.154486 196.380767,205.438409 196.50566,205.72538 C 196.652534,206.062858 196.802117,206.404552 196.954259,206.750132 C 197.115123,207.115526 197.278847,207.485264 197.445253,207.858958 C 197.613566,208.236935 197.784622,208.618959 197.958236,209.004627 C 198.133419,209.393781 198.311207,209.786645 198.491409,210.182806 C 198.679077,210.595379 198.869364,211.011528 199.062055,211.430785 C 199.261426,211.864576 199.463371,212.301694 199.667652,212.741622 C 199.877755,213.194088 200.090329,213.649527 200.305115,214.107375 C 200.518701,214.562665 200.734475,215.020337 200.952182,215.479838 C 201.180277,215.961264 201.410495,216.444697 201.642542,216.929501 C 201.877521,217.420429 202.114376,217.912762 202.352804,218.405839 C 208.075068,230.239696 214.703216,242.50228 218.03865,246.05291 m 0,0 C 218.054345,246.069617 218.07014,246.086443 218.086035,246.103387 C 218.138858,246.159696 218.192783,246.217305 218.247791,246.276187 C 218.307695,246.34031 218.368883,246.405943 218.431331,246.473051 C 218.504322,246.551488 218.579035,246.63194 218.655431,246.714351 C 218.736634,246.801947 218.819739,246.891757 218.904701,246.983713 C 218.994457,247.080858 219.086284,247.180398 219.180129,247.282254 C 219.278728,247.389271 219.379554,247.498845 219.482544,247.610884 C 219.596554,247.734911 219.713216,247.861959 219.832445,247.991904 C 219.956032,248.126599 220.082377,248.264406 220.211385,248.405186 C 220.357924,248.565098 220.507899,248.728846 220.66117,248.896228 C 220.817883,249.067368 220.978042,249.242306 221.141498,249.420825 C 221.328968,249.625571 221.520776,249.835028 221.716696,250.048868 C 221.956749,250.310878 222.202977,250.579468 222.454966,250.854035 C 222.705547,251.127068 222.961825,251.406012 223.223394,251.690274 C 223.490232,251.980262 223.762577,252.275784 224.039997,252.576212 C 231.260421,260.395459 241.918995,271.53775 248.41556,274.91097 m 0,0 C 248.433111,274.920083 248.450647,274.929174 248.468167,274.938244 C 248.494395,274.951822 248.520588,274.965351 248.546746,274.978832 C 248.590212,275.001233 248.633582,275.023501 248.676856,275.045637 C 248.745748,275.080878 248.814398,275.115783 248.882805,275.150356 C 248.96763,275.193227 249.052082,275.235587 249.136163,275.277441 C 249.227727,275.32302 249.31885,275.368 249.409533,275.412387 C 249.523679,275.468258 249.637128,275.52319 249.749883,275.577198 C 249.892825,275.645664 250.034651,275.712644 250.175367,275.778166 C 250.321227,275.846083 250.465894,275.912434 250.609374,275.977251 C 250.764944,276.047529 250.919118,276.116004 251.071904,276.182715 C 251.242849,276.257355 251.412056,276.329788 251.579535,276.40007 C 251.756616,276.474381 251.931765,276.546288 252.104993,276.615857 C 252.280207,276.686223 252.453456,276.754198 252.624753,276.819851 C 252.803771,276.888463 252.980656,276.954539 253.155423,277.018158 C 253.330974,277.082062 253.504387,277.143487 253.675677,277.202514 C 253.847367,277.261678 254.016923,277.318432 254.184361,277.372857 C 254.362309,277.430699 254.537864,277.48591 254.711043,277.538587 C 254.883254,277.59097 255.053115,277.640848 255.220644,277.688315 C 255.396166,277.738047 255.569127,277.785134 255.739547,277.829685 C 255.907805,277.873671 256.073586,277.915185 256.236908,277.954332 C 256.397885,277.992917 256.556473,278.029203 256.712691,278.063291 C 260.461913,278.881415 262.845567,278.433599 264.11029,278.11742 m 0,0 C 264.116365,278.115901 264.122434,278.11437 264.128496,278.112828 C 264.148644,278.107703 264.168721,278.10245 264.188728,278.097071 C 264.210515,278.091214 264.23222,278.085208 264.253844,278.079058 C 264.277174,278.072422 264.30041,278.065618 264.323554,278.058651 C 264.352136,278.050046 264.380578,278.041192 264.408884,278.032098 C 264.438624,278.022543 264.468214,278.012723 264.497658,278.002649 C 264.530253,277.991497 264.56267,277.980034 264.594915,277.968274 C 264.628339,277.956084 264.661578,277.943575 264.69464,277.930763 C 264.732195,277.91621 264.769521,277.901266 264.806629,277.885955 C 264.84622,277.86962 264.885563,277.852867 264.924671,277.835725 C 264.966021,277.8176 265.007109,277.79904 265.047949,277.78008 C 265.089257,277.760902 265.130312,277.741314 265.17113,277.721352 C 265.21673,277.699051 265.262034,277.676283 265.307064,277.653096 C 265.352106,277.629903 265.396874,277.606292 265.44139,277.582311 C 265.487175,277.557647 265.532694,277.532592 265.577971,277.5072 C 265.622995,277.48195 265.667779,277.456366 265.712348,277.430502 C 265.756585,277.40483 265.80061,277.378881 265.844446,277.352707 C 265.890225,277.325373 265.935798,277.297793 265.981191,277.270027 C 267.099721,276.585832 268.109037,275.788199 269.40515,275.75477 m 0,0 C 269.411521,275.754606 269.417885,275.754446 269.424241,275.75429 C 269.433756,275.754056 269.443255,275.753831 269.452737,275.753615 C 269.471644,275.753184 269.490485,275.752789 269.509261,275.752431 C 269.534145,275.751956 269.558915,275.751545 269.583574,275.751197 C 269.614151,275.750766 269.644557,275.750433 269.674796,275.750199 C 269.707726,275.749944 269.740459,275.749806 269.773,275.749786 C 269.808109,275.749764 269.842995,275.749879 269.877666,275.750132 C 269.917631,275.750424 269.95731,275.750899 269.996716,275.751559 C 270.049446,275.752442 270.101687,275.753656 270.153467,275.755205 C 270.222977,275.757284 270.291657,275.759965 270.359576,275.763256 C 270.428274,275.766585 270.496193,275.770539 270.563406,275.775126 C 270.636071,275.780085 270.707911,275.785783 270.779016,275.792232 C 270.857184,275.799321 270.934465,275.807317 271.01098,275.816234 C 271.087067,275.825101 271.162397,275.834879 271.237088,275.845581 C 271.319462,275.857384 271.401059,275.870311 271.482039,275.884382 C 273.425559,276.222076 275.01372,277.218193 278.45494,279.12998 m 0,0 C 278.464053,279.135043 278.473149,279.140104 278.482227,279.145163 C 278.495817,279.152736 278.509368,279.160304 278.52288,279.167868 C 278.540842,279.177923 278.558735,279.18797 278.576559,279.198008 C 278.603189,279.213005 278.629666,279.227984 278.655993,279.242944 C 278.699608,279.267728 278.74281,279.29246 278.785607,279.317138 C 278.832213,279.344012 278.878339,279.370823 278.923996,279.397568 C 278.989676,279.436042 279.054385,279.47438 279.118156,279.512575 C 279.192672,279.557205 279.265906,279.60164 279.33791,279.645869 C 279.43457,279.705243 279.529014,279.764245 279.621366,279.822849 C 279.714776,279.882125 279.806046,279.940993 279.895305,279.999427 C 279.98537,280.058389 280.073387,280.116909 280.159489,280.174958 C 280.249158,280.235412 280.336749,280.295356 280.422412,280.354759 C 280.508275,280.4143 280.5922,280.473297 280.674339,280.531718 C 280.756499,280.590154 280.836871,280.648014 280.915606,280.705265 C 280.996585,280.764148 281.075833,280.822387 281.153513,280.879948 C 281.230759,280.937188 281.306455,280.993757 281.380762,281.049622 C 281.456566,281.106612 281.530924,281.162869 281.604007,281.218356 C 281.680093,281.276123 281.754797,281.333056 281.828313,281.389114 C 283.592697,282.734497 284.672598,283.575971 287.73677,283.34899 m 0,0 C 287.745883,283.348315 287.754989,283.347645 287.764087,283.346981 C 287.777707,283.345987 287.79131,283.345005 287.804897,283.344034 C 287.822959,283.342744 287.840991,283.341475 287.858995,283.340226 C 287.885892,283.33836 287.912725,283.33654 287.939494,283.334765 C 287.983841,283.331824 288.028012,283.329006 288.072011,283.326304 C 288.119926,283.323362 288.167636,283.320558 288.215146,283.317886 C 288.270676,283.314763 288.325932,283.311819 288.380921,283.309042 C 288.456069,283.305248 288.530718,283.301767 288.604883,283.298569 C 288.681759,283.295254 288.758115,283.292244 288.833969,283.289505 C 288.916215,283.286535 288.997871,283.283884 289.07896,283.28151 C 289.169687,283.278854 289.259705,283.276544 289.349045,283.274522 C 289.443507,283.272384 289.537212,283.270567 289.630197,283.269002 C 289.724248,283.267419 289.817562,283.266093 289.910179,283.264953 C 290.006971,283.263761 290.103002,283.262771 290.198316,283.261901 C 290.294057,283.261027 290.389075,283.260274 290.483416,283.259558 C 290.577977,283.25884 290.671857,283.258159 290.765102,283.257431 C 290.867115,283.256635 290.968368,283.255783 291.068921,283.254764 C 293.841315,283.226681 296.081425,283.072079 299.04373,280.48006 m 0,0 C 299.051831,280.472972 299.059944,280.465877 299.06807,280.458774 C 299.080235,280.448141 299.092428,280.437492 299.10465,280.426826 C 299.137143,280.39847 299.169837,280.369998 299.202728,280.341415 C 299.243512,280.305972 299.284599,280.270357 299.32598,280.234577 C 299.371044,280.195613 299.416457,280.156454 299.462209,280.117108 C 299.515685,280.07112 299.569624,280.024877 299.62401,279.978394 C 299.681818,279.928986 299.740131,279.879307 299.79893,279.829374 C 299.861047,279.776623 299.923706,279.723589 299.986885,279.670292 C 300.065711,279.603795 300.145346,279.536888 300.225746,279.469611 C 300.333676,279.379297 300.442984,279.288316 300.553563,279.196763 C 300.665409,279.104161 300.778555,279.010975 300.892891,278.917303 C 301.01238,278.819409 301.133169,278.720985 301.255131,278.622144 C 301.37764,278.52286 301.501332,278.423156 301.62608,278.323145 C 301.751119,278.222901 301.877218,278.122349 302.004249,278.021605 C 302.131313,277.920835 302.259309,277.819873 302.388109,277.718834 C 302.520579,277.614916 302.653899,277.510916 302.787929,277.406961 C 302.92121,277.303587 303.055192,277.200257 303.189738,277.097094 C 303.323285,276.994698 303.457387,276.892467 303.591909,276.790522 C 303.732395,276.684057 303.87334,276.577904 304.01459,276.4722 C 307.495126,273.867548 311.160826,271.53575 312.71333,271.53575 m 0,0 C 312.718055,271.53575 312.722781,271.535749 312.727508,271.535746 C 312.734584,271.535742 312.741661,271.535735 312.74874,271.535725 C 312.762855,271.535705 312.776976,271.535674 312.791104,271.535631 C 312.814509,271.53556 312.837931,271.535459 312.86137,271.535329 C 312.886895,271.535188 312.912441,271.535013 312.938009,271.534807 C 312.967893,271.534566 312.997806,271.534282 313.027749,271.53396 C 313.064123,271.533569 313.100542,271.533122 313.137008,271.532627 C 313.177375,271.532079 313.217799,271.531471 313.258283,271.530815 C 313.300247,271.530134 313.342275,271.529401 313.384369,271.528628 C 313.43001,271.52779 313.47573,271.526904 313.521531,271.525986 C 313.568506,271.525044 313.615567,271.524068 313.662718,271.523074 C 313.710927,271.522058 313.75923,271.521023 313.807631,271.519987 C 313.861087,271.518843 313.914662,271.517697 313.968362,271.516573 C 314.022678,271.515437 314.077121,271.514323 314.131698,271.513256 C 314.194635,271.512025 314.257749,271.510857 314.321049,271.509788 C 314.386153,271.508689 314.451454,271.507695 314.516961,271.506847 C 314.582102,271.506003 314.647447,271.505304 314.713005,271.504789 C 314.778076,271.504277 314.843356,271.503947 314.908855,271.503837 C 314.977258,271.503722 315.045899,271.503847 315.114789,271.504257 C 316.812316,271.514359 318.660916,271.69727 320.81384,272.71708 m 0,0 C 320.820253,272.720118 320.826656,272.723161 320.833049,272.726209 C 320.842619,272.730773 320.852166,272.735349 320.861691,272.739937 C 320.874353,272.746035 320.886975,272.752154 320.899558,272.758294 C 320.915224,272.765939 320.930829,272.773616 320.946375,272.781325 C 320.971124,272.793598 320.995721,272.805952 321.02017,272.818386 C 321.053518,272.835345 321.086591,272.852452 321.119397,272.869703 C 321.157741,272.889866 321.19572,272.910225 321.233348,272.930773 C 321.273344,272.952614 321.312943,272.97467 321.352162,272.996931 C 321.404643,273.02672 321.456444,273.056878 321.507604,273.087385 C 321.576282,273.128339 321.643805,273.169922 321.710269,273.212089 C 321.777495,273.254739 321.843638,273.297985 321.908796,273.341779 C 321.976891,273.387547 322.043911,273.433914 322.109969,273.480825 C 322.176323,273.527946 322.241707,273.575615 322.306235,273.623777 C 322.370914,273.672051 322.434733,273.72082 322.497807,273.770027 C 322.564841,273.822323 322.631034,273.875114 322.696525,273.928333 C 322.76165,273.981254 322.826081,274.034598 322.889954,274.088298 C 322.955114,274.14308 323.019693,274.198233 323.083836,274.253686 C 323.147275,274.30853 323.210288,274.363668 323.273014,274.419031 C 323.334945,274.473692 323.396597,274.528573 323.458104,274.583607 C 323.518728,274.637851 323.579212,274.692245 323.639685,274.746725 C 325.091027,276.05425 326.535904,277.411616 329.75815,277.94866 m 0,0 C 329.768276,277.950348 329.778429,277.952014 329.788609,277.953658 C 329.803848,277.95612 329.819147,277.958533 329.834506,277.960898 C 329.860027,277.964828 329.885714,277.968625 329.911565,277.97229 C 329.942431,277.976666 329.97353,277.980854 330.00486,277.984855 C 330.041192,277.989495 330.077835,277.993883 330.114783,277.998021 C 330.172438,278.004478 330.230838,278.010327 330.289967,278.015576 C 330.359078,278.021711 330.429183,278.027026 330.500257,278.031533 C 330.575803,278.036323 330.652443,278.0402 330.730146,278.043178 C 330.817706,278.046534 330.906615,278.048749 330.996828,278.049844 C 331.096694,278.051056 331.198157,278.050895 331.301156,278.049389 C 331.407921,278.047828 331.516336,278.044822 331.626333,278.040402 C 331.739919,278.035837 331.855192,278.029765 331.972076,278.02222 C 332.103804,278.013717 332.237578,278.003342 332.37329,277.991146 C 332.511646,277.978712 332.652016,277.964385 332.794286,277.948216 C 332.944712,277.931121 333.097262,277.911967 333.2518,277.890817 C 333.40811,277.869424 333.566454,277.845988 333.726691,277.820574 C 333.899925,277.793098 334.075373,277.76331 334.252857,277.73129 C 334.436494,277.69816 334.622311,277.66264 334.810112,277.62482 C 335.003265,277.585922 335.198516,277.544591 335.395652,277.500925 C 335.591686,277.457503 335.789584,277.411771 335.989136,277.363825 C 336.203711,277.312269 336.420199,277.258154 336.638338,277.201598 C 336.853345,277.145854 337.069956,277.087738 337.287921,277.027365 C 342.519074,275.578416 348.530208,272.829213 351.86579,270.35443 m 0,0 C 351.876253,270.346667 351.886752,270.33887 351.897287,270.33104 C 351.913057,270.319318 351.928907,270.307521 351.944836,270.295649 C 351.966011,270.279867 351.987327,270.263952 352.008781,270.247906 C 352.046176,270.219938 352.083993,270.19157 352.122226,270.162808 C 352.176462,270.122008 352.231534,270.080415 352.287424,270.038044 C 352.348288,269.991902 352.410122,269.944838 352.472902,269.896872 C 352.551925,269.836495 352.632447,269.774688 352.71442,269.71149 C 352.806792,269.640275 352.901006,269.567293 352.996995,269.492601 C 353.103255,269.409916 353.211689,269.325135 353.322205,269.238333 C 353.436761,269.148358 353.553554,269.056211 353.672481,268.961977 C 353.795289,268.864668 353.920373,268.765133 354.047619,268.663465 C 354.18479,268.553867 354.324474,268.441791 354.466529,268.327352 C 354.637033,268.189994 354.810953,268.049232 354.988042,267.905267 C 355.173113,267.754813 355.361646,267.600861 355.553361,267.44364 C 355.745935,267.285714 355.941719,267.12449 356.140429,266.9602 C 356.365302,266.774278 356.593922,266.584429 356.825878,266.39099 C 363.221225,261.057614 372.15193,252.99516 374.98598,249.25936 m 0,0 C 374.993405,249.249572 375.000882,249.239712 375.008411,249.229781 C 375.019682,249.214914 375.031069,249.199887 375.042572,249.184701 C 375.065508,249.154421 375.088903,249.123508 375.112751,249.091968 C 375.140406,249.055392 375.168671,249.017973 375.197536,248.979719 C 375.238483,248.925454 375.280639,248.86951 375.323979,248.811912 C 375.371176,248.749188 375.419777,248.684504 375.46975,248.617892 C 375.52816,248.540035 375.588444,248.459544 375.650552,248.376473 C 375.725999,248.27556 375.804138,248.170839 375.884877,248.062405 C 375.974255,247.942368 376.06682,247.81778 376.162448,247.68877 C 376.261572,247.555044 376.363987,247.416566 376.469556,247.273479 C 376.584021,247.118335 376.702193,246.957773 376.823898,246.791974 C 376.948721,246.621928 377.07726,246.446374 377.209325,246.265508 C 377.361968,246.05646 377.519323,245.840316 377.681097,245.61738 C 377.844725,245.391888 378.012875,245.159447 378.185244,244.920371 C 378.371594,244.661903 378.562875,244.39568 378.758706,244.122099 C 378.961325,243.839033 379.168815,243.54809 379.380753,243.249708 C 379.605142,242.933797 379.834516,242.609548 380.068374,242.277482 C 386.516179,233.121948 396.372446,218.024377 399.11874,207.91302 m 0,0 C 399.126165,207.885681 399.133598,207.858311 399.141038,207.83091 C 399.152176,207.78989 399.163331,207.748801 399.174502,207.707644 C 399.193064,207.639254 399.211671,207.570674 399.230322,207.501907 C 399.252592,207.4198 399.274924,207.337426 399.297317,207.25479 C 399.323286,207.158959 399.349337,207.062776 399.375467,206.966246 C 399.405121,206.856699 399.434878,206.746706 399.464733,206.636277 C 399.501754,206.499345 399.538926,206.361743 399.576243,206.223489 C 399.616881,206.072931 399.65769,205.9216 399.698661,205.769521 C 399.742865,205.605441 399.787257,205.44049 399.831826,205.274698 C 399.886869,205.069945 399.942181,204.86391 399.997741,204.65665 C 400.067061,204.398059 400.136767,204.137561 400.206815,203.875267 C 400.300849,203.523158 400.3955,203.167813 400.490664,202.809501 C 400.586919,202.447082 400.683699,202.081628 400.780897,201.713417 C 400.882476,201.32861 400.984512,200.940792 401.086882,200.550281 C 401.189711,200.158019 401.292876,199.763041 401.396254,199.365668 C 401.503216,198.954519 401.610406,198.540807 401.717686,198.124888 C 401.828023,197.697115 401.938456,197.267008 402.048835,196.834955 C 402.158597,196.405317 402.268305,195.973755 402.377813,195.540651 C 402.492546,195.086881 402.607058,194.631418 402.721181,194.174702 C 402.836745,193.712217 402.95191,193.248446 403.0665,192.783846 C 405.816655,181.633437 408.235543,170.005255 407.89429,164.20403 m 0,0 C 407.893277,164.186816 407.892264,164.169554 407.89125,164.152245 C 407.889732,164.126333 407.888213,164.100314 407.886692,164.074189 C 407.88467,164.03946 407.882645,164.004543 407.880617,163.969439 C 407.877082,163.908253 407.873538,163.8465 407.869983,163.784187 C 407.865949,163.713471 407.861901,163.642035 407.857838,163.569889 C 407.8528,163.480428 407.84774,163.389876 407.842654,163.298254 C 407.837115,163.198478 407.831545,163.097432 407.825941,162.995144 C 407.819895,162.884785 407.813809,162.77298 407.807679,162.659763 C 407.800108,162.51994 407.792469,162.377963 407.784754,162.233897 C 407.776648,162.082531 407.768458,161.928858 407.760173,161.772952 C 407.751002,161.600364 407.741715,161.42504 407.732299,161.24708 C 407.722539,161.062614 407.71264,160.875316 407.702587,160.685298 C 407.69013,160.449835 407.677436,160.210195 407.664477,159.96659 C 407.650775,159.709019 407.636777,159.447016 407.622448,159.180832 C 407.607955,158.911597 407.593124,158.638085 407.577919,158.360556 C 407.561481,158.060516 407.544607,157.755781 407.527252,157.446679 C 407.509856,157.136856 407.491977,156.822646 407.47357,156.504381 C 407.455158,156.186034 407.436218,155.863629 407.416705,155.537498 C 407.396636,155.202072 407.375961,154.862704 407.354631,154.519755 C 407.33342,154.178722 407.311561,153.834147 407.289007,153.486386 C 407.265376,153.122031 407.240982,152.754178 407.215769,152.383234 C 407.190237,152.007605 407.163866,151.628806 407.136598,151.247261 C 406.482165,142.09019 405.311118,131.351436 402.83148,124.88282 m 0,0 C 402.819836,124.852443 402.808122,124.822018 402.796338,124.791544 C 402.757176,124.69027 402.717246,124.588464 402.676561,124.48614 C 402.632255,124.374709 402.587054,124.262665 402.540974,124.150027 C 402.487115,124.018374 402.432055,123.885909 402.37582,123.752664 C 402.307507,123.590802 402.237461,123.427789 402.165728,123.26368 C 402.08632,123.082011 402.004845,122.898999 401.921367,122.71472 C 401.834837,122.523704 401.746155,122.331326 401.655392,122.13767 C 401.556981,121.927696 401.456124,121.71622 401.35291,121.503349 C 401.247052,121.285025 401.138716,121.065233 401.027999,120.844089 C 400.914796,120.61798 400.799104,120.390457 400.681027,120.161645 C 400.545603,119.899217 400.407043,119.635093 400.265503,119.369459 C 400.09208,119.043988 399.914185,118.71625 399.732106,118.386588 C 399.551045,118.058769 399.365847,117.729047 399.176798,117.39776 C 398.983941,117.0598 398.787075,116.720211 398.586503,116.379351 C 398.388132,116.042231 398.186136,115.703868 397.980807,115.364608 C 397.778082,115.029651 397.572109,114.69382 397.363168,114.357447 C 397.157227,114.025904 396.948404,113.693836 396.736967,113.361561 C 391.66249,105.386973 385.082815,97.293486 380.72384,93.493355 m 0,0 C 380.710677,93.481879 380.697468,93.470385 380.684213,93.458873 C 380.66437,93.441639 380.644425,93.424365 380.624377,93.407051 C 380.597727,93.384034 380.570896,93.360946 380.543885,93.337788 C 380.496805,93.297423 380.449178,93.256845 380.401008,93.216057 C 380.332675,93.158197 380.26325,93.099916 380.192743,93.041226 C 380.115961,92.977312 380.037897,92.912913 379.958566,92.848046 C 379.85871,92.766396 379.756847,92.684003 379.653006,92.600899 C 379.521365,92.495546 379.386546,92.389051 379.248609,92.281478 C 379.10563,92.169973 378.959301,92.05731 378.80969,91.943561 C 378.639748,91.814354 378.465571,91.683747 378.287259,91.551845 C 378.097016,91.411118 377.902065,91.268917 377.702528,91.125372 C 377.49155,90.973597 377.275444,90.820318 377.054353,90.665688 C 376.830728,90.509286 376.602002,90.351502 376.368323,90.192493 C 376.132532,90.032047 375.891698,89.870354 375.645972,89.707576 C 375.381536,89.532404 375.111435,89.355975 374.835857,89.178491 C 374.534366,88.984318 374.22632,88.788883 373.911966,88.592449 C 365.244787,83.176496 351.782504,77.001634 338.70246,75.604735 m 0,0 C 338.667695,75.601022 338.632917,75.597312 338.598126,75.593604 C 338.546043,75.588053 338.493931,75.582508 338.441789,75.576968 C 338.372475,75.569604 338.303109,75.56225 338.233692,75.554905 C 338.129983,75.543932 338.026159,75.532981 337.922223,75.522052 C 337.750036,75.503947 337.57754,75.485903 337.404746,75.467922 C 337.216573,75.44834 337.028046,75.428833 336.839177,75.409402 C 336.618424,75.386691 336.397204,75.364085 336.175538,75.341587 C 335.939924,75.317673 335.703807,75.293881 335.46721,75.270216 C 335.217262,75.245215 334.966779,75.220355 334.71579,75.195641 C 334.452084,75.169675 334.187819,75.143869 333.923029,75.11823 C 333.613622,75.088271 333.303497,75.058539 332.992708,75.029043 C 332.575499,74.989447 332.157093,74.950276 331.73762,74.911553 C 331.313339,74.872386 330.887966,74.833676 330.461635,74.795446 C 329.969996,74.75136 329.477083,74.707912 328.983101,74.665137 C 328.47504,74.621143 327.965848,74.57786 327.455748,74.535326 C 326.948499,74.49303 326.440352,74.451474 325.931526,74.410695 C 325.42648,74.370219 324.920765,74.330509 324.414596,74.2916 C 323.899541,74.252008 323.384015,74.213246 322.868245,74.175352 C 322.359017,74.137939 321.849551,74.101371 321.340064,74.065686 C 308.785789,73.186363 296.218922,72.842753 286.89297,73.579608 m 0,0 C 284.16177,73.795404 281.59215,73.994444 281.27642,73.982783 " id="path846" sodipodi:nodetypes="ccsssssssssssssssssssssssc"/>
    <path style="fill:none;stroke:#b42d2d;stroke-width:1px;stroke-linecap:butt;stroke-linejoin:miter;stroke-opacity:1" d="m 252.50597,86.27685  C 252.50597,86.27685 252.506018,86.276886 252.506113,86.276958 C 252.506256,86.277066 252.506506,86.277255 252.506862,86.277525 C 252.507454,86.277973 252.50834,86.278643 252.50952,86.279533 C 252.510929,86.280596 252.512756,86.281972 252.514999,86.283658 C 252.5176,86.285613 252.520762,86.287984 252.524481,86.290766 C 252.528702,86.293923 252.533641,86.297608 252.539294,86.301812 C 252.546303,86.307025 252.55441,86.313036 252.563608,86.319829 C 252.573625,86.327226 252.584935,86.33555 252.597529,86.344778 C 252.612249,86.355564 252.628723,86.367586 252.646936,86.380808 C 252.66906,86.39687 252.69375,86.414703 252.720978,86.434245 C 252.75112,86.455878 252.784372,86.479604 252.820698,86.505338 C 252.858352,86.532013 252.899308,86.560845 252.943525,86.591739 C 252.993751,86.626832 253.048185,86.664585 253.106766,86.704859 C 253.177079,86.753199 253.253367,86.805171 253.335525,86.860533 C 253.43619,86.928366 253.545667,87.001289 253.663764,87.078857 C 253.781201,87.155992 253.907162,87.237721 254.041458,87.323606 C 254.182162,87.413589 254.332015,87.508135 254.490799,87.606741 C 258.510539,90.103039 268.254308,95.201549 280.19093,94.749403 m 0,0 C 280.222434,94.74821 280.253945,94.747014 280.285463,94.745816 C 280.332645,94.744022 280.379843,94.742223 280.427056,94.740419 C 280.5212,94.736821 280.615405,94.733202 280.709669,94.729561 C 280.8346,94.724735 280.959634,94.719871 281.084765,94.714968 C 281.239928,94.708889 281.395239,94.70275 281.550687,94.696551 C 281.71997,94.6898 281.889415,94.682977 282.059007,94.67608 C 282.241981,94.668639 282.425125,94.661113 282.60842,94.653499 C 282.819698,94.644723 283.031176,94.635831 283.242824,94.62682 C 283.511133,94.615396 283.779716,94.603781 284.04851,94.59197 C 284.32713,94.579727 284.605977,94.567273 284.884983,94.554601 C 285.201905,94.540207 285.519031,94.525532 285.836262,94.510567 C 286.174718,94.4946 286.513293,94.478303 286.851865,94.461664 C 287.209848,94.444071 287.567827,94.426096 287.925658,94.407726 C 288.28759,94.389145 288.649371,94.37016 289.010851,94.350757 C 289.414677,94.32908 289.818128,94.306881 290.220995,94.284141 C 290.623966,94.261395 291.026353,94.238108 291.427947,94.21426 C 291.840987,94.189732 292.253188,94.164611 292.664324,94.138875 C 293.073163,94.113283 293.480948,94.087084 293.887457,94.060257 C 294.290946,94.033629 294.693178,94.006382 295.093935,93.978496 C 295.501727,93.950121 295.907992,93.921084 296.3125,93.891364 C 306.55293,93.138979 315.667168,91.948929 319.9284,89.976134 m 0,0 C 319.941288,89.970167 319.95417,89.964195 319.967046,89.958217 C 319.986322,89.949268 320.005585,89.940306 320.024835,89.931332 C 320.056822,89.916419 320.088774,89.901472 320.12069,89.88649 C 320.1715,89.862639 320.222219,89.838701 320.272846,89.814679 C 320.335624,89.784891 320.398261,89.754973 320.460755,89.724929 C 320.528811,89.692212 320.596698,89.659345 320.664414,89.626335 C 320.743562,89.587752 320.822476,89.548974 320.901153,89.510009 C 320.984781,89.468592 321.068141,89.426964 321.151229,89.385136 C 321.239006,89.340948 321.326479,89.296536 321.413644,89.251914 C 321.505226,89.205031 321.596468,89.157916 321.687365,89.110584 C 321.787988,89.058187 321.888187,89.005524 321.987956,88.952615 C 322.091372,88.897771 322.194326,88.842663 322.296809,88.787313 C 322.407928,88.727299 322.518494,88.667001 322.628496,88.606447 C 322.741316,88.544342 322.853544,88.481968 322.965168,88.419356 C 323.079298,88.355338 323.192797,88.291072 323.305653,88.22659 C 328.099572,85.487512 331.732965,82.359619 333.29356,81.384248 " id="path848" sodipodi:nodetypes="cssc"/>
  </g>
  <g inkscape:groupmode="layer" id="layer2" inkscape:label="vectorVetka" style="display:inline" transform="translate(-188.14544,-11.900563)">
    <path style="fill:none;fill-opacity:1;stroke:#5e3a2a;stroke-width:1px;stroke-linecap:butt;stroke-linejoin:miter;stroke-opacity:1" d="m 286.55544,94.463728  C 284.69881,88.089275 282.68565,83.879717 277.12691,75.817823 m 0,0 C 268.4014,63.075885 260.15001,54.149514 259.72251,52.653297 m 0,0 C 259.04746,50.290652 257.46055,47.532753 256.3473,47.928001 m 0,0 C 254.33066,48.643991 246.21494,50.877071 248.40883,54.927325 m 0,0 C 250.60272,58.977578 254.98874,57.22855 254.98874,57.22855 m 0,0 C 254.98874,57.22855 273.72964,74.971882 280.48006,94.716869 " id="path851" sodipodi:nodetypes="ccssscc"/>
  </g>
  <g inkscape:groupmode="layer" id="layer3" inkscape:label="vectorListok" style="display:inline" transform="translate(-188.14544,-11.900563)">
    <path style="fill:none;fill-opacity:1;stroke:#2f7029;stroke-width:1px;stroke-linecap:butt;stroke-linejoin:miter;stroke-opacity:1" d="m 275.92482,74.194511  C 275.50716,74.164681 274.46301,75.119332 275.23866,76.431981 m 0,0 C 276.01432,77.74463 276.61098,78.520287 277.77446,77.893795 m 0,0 C 278.93795,77.267303 287.17467,66.302232 288.3272,66.323114 m 0,0 C 289.60853,66.346324 298.26969,67.959427 307.21957,67.303103 m 0,0 C 316.16945,66.646778 328.46062,64.856802 333.65155,62.171838 m 0,0 C 338.84248,59.486874 351.43198,53.102625 355.60859,49.045346 m 0,0 C 359.7852,44.988067 372.91169,30.310263 374.10501,27.684964 m 0,0 C 375.29833,25.059666 376.99881,21.24105 376.87948,20.405728 m 0,0 C 376.76015,19.570406 374.70167,18.019093 372.43437,17.183771 m 0,0 C 370.16706,16.348449 359.66587,12.171838 351.43198,12.410501 m 0,0 C 343.19809,12.649165 336.39618,13.126492 329.95227,15.274463 m 0,0 C 323.50835,17.422434 312.64917,22.195704 305.13127,29.236277 m 0,0 C 297.61337,36.27685 293.43675,39.976134 290.69212,44.988067 m 0,0 C 287.94749,50 286.39618,57.756563 286.03819,60.620525 m 0,0 C 285.68019,63.484487 286.92294,63.76534 285.25229,65.197321 m 0,0 C 283.58165,66.629302 277.14797,73.806683 275.92482,74.194511 m 0,0 Z " id="path853"/>
    <path style="fill:none;stroke:#2f7029;stroke-width:1px;stroke-linecap:butt;stroke-linejoin:miter;stroke-opacity:1" d="m 288.18616,63.245823  C 288.18616,63.245823 311.69451,47.016706 319.80907,44.272076 m 0,0 C 327.92363,41.527446 366.22912,22.315036 368.49642,21.599045 " id="path881"/>
  </g>
</svg>