<svg xmlns:dc="http://purl.org/dc/elements/1.1/" xmlns:cc="http://creativecommons.org/ns#" xmlns:rdf="http://www.w3.org/1999/02/22-rdf-syntax-ns#" xmlns:svg="http://www.w3.org/2000/svg" xmlns="http://www.w3.org/2000/svg" xmlns:sodipodi="http://sodipodi.sourceforge.net/DTD/sodipodi-0.dtd" xmlns:inkscape="http://www.inkscape.org/namespaces/inkscape" width="109.7413mm" height="170.8867mm" viewBox="0 0 109.7413 170.8867" version="1.1" id="svg851" inkscape:version="1.0.2 (e86c870879, 2021-01-15, custom)" sodipodi:docname="рисунок1.svg">
  <defs id="defs845"/>
  <sodipodi:namedview id="base" pagecolor="#ffffff" bordercolor="#666666" borderopacity="1.0" inkscape:pageopacity="0.0" inkscape:pageshadow="2" inkscape:zoom="0.24748737" inkscape:cx="-42.03642" inkscape:cy="704.09834" inkscape:document-units="mm" inkscape:current-layer="layer1" inkscape:document-rotation="0" showgrid="false" fit-margin-top="0" fit-margin-left="0" fit-margin-right="0" fit-margin-bottom="0" inkscape:window-width="1500" inkscape:window-height="1061" inkscape:window-x="322" inkscape:window-y="0" inkscape:window-maximized="0"/>
  <metadata id="metadata848">
    <rdf:RDF>
      <cc:Work rdf:about="">
        <dc:format>image/svg+xml</dc:format>
        <dc:type rdf:resource="http://purl.org/dc/dcmitype/StillImage"/>
        <dc:title/>
      </cc:Work>
    </rdf:RDF>
  </metadata>
  <g inkscape:label="Слой 1" inkscape:groupmode="layer" id="layer1" transform="translate(-39.521642,-7.4027425)">
    <path style="fill:none;stroke:#000000;stroke-width:1.264583px;stroke-linecap:butt;stroke-linejoin:miter;stroke-opacity:1" d="m 40.624969,101.02788  C 40.539443,100.429196 40.460117,99.834789 40.386778,99.244726 C 40.207098,97.799072 40.063354,96.379498 39.952402,94.987009 C 39.825916,93.399572 39.742046,91.847335 39.696134,90.331789 C 39.645783,88.66974 39.641083,87.051819 39.675889,85.479991 C 39.712883,83.809363 39.794506,82.190805 39.91338,80.626678 C 40.050085,78.827933 40.236055,77.101173 40.46007,75.449988 C 40.681845,73.815315 40.940908,72.254714 41.226372,70.771668 C 41.503531,69.331765 41.805577,67.964971 42.122547,66.674474 C 42.471214,65.254928 42.837938,63.927701 43.209457,62.697038 C 45.314729,55.723281 47.573975,51.850287 47.573975,51.850287 m 0,0 C 47.573975,51.850287 47.586483,51.820941 47.611557,51.764673 C 47.69263,51.582741 47.905073,51.119359 48.250838,50.456488 C 48.593145,49.800246 49.06612,48.948484 49.671657,47.980729 C 50.308572,46.962827 51.092143,45.816599 52.024573,44.634585 C 52.898188,43.527129 53.902476,42.38826 55.039248,41.294088 C 56.086702,40.285886 57.24664,39.315633 58.520479,38.442872 C 65.738899,33.497227 76.61481,31.68215 91.406177,43.832203 m 0,0 C 92.004861,44.323979 92.578956,44.825804 93.129211,45.337097 C 93.938085,46.088698 94.695442,46.860758 95.40366,47.651429 C 96.777603,49.185331 97.966604,50.789279 98.988019,52.449785 C 100.268193,54.530952 101.285116,56.700962 102.07296,58.933259 C 102.978981,61.500401 103.582045,64.149917 103.934122,66.841419 C 104.282678,69.506006 104.385242,72.211744 104.292242,74.919443 C 104.186898,77.986528 103.830631,81.05613 103.296729,84.071292 C 102.804777,86.849549 102.162008,89.581585 101.425758,92.222842 C 100.758224,94.617582 100.013844,96.937697 99.235352,99.149978 C 95.14827,110.764455 90.120966,119.406754 90.337099,120.27129 m 0,0 C 90.34779,120.314053 90.330685,120.384184 90.287289,120.480431 C 90.223497,120.621914 90.102893,120.81983 89.930259,121.070199 C 89.651167,121.474961 89.236088,122.016815 88.705226,122.678943 C 88.100044,123.433769 87.344389,124.344903 86.468195,125.38743 C 85.095491,127.020722 83.426929,128.976511 81.577607,131.158991 C 79.746779,133.319646 77.738788,135.702481 75.665315,138.214534 C 73.316636,141.060005 70.883938,144.071272 68.529534,147.113229 C 66.215491,150.103038 63.977081,153.122494 61.96841,156.04332 C 51.422889,171.377655 47.209568,183.993498 71.628232,175.32881 m 0,0 C 72.622475,174.976014 73.603034,174.615948 74.570058,174.249045 C 75.991583,173.709697 77.383862,173.155573 78.747369,172.588045 C 81.83344,171.303541 84.772125,169.950373 87.568936,168.544448 C 90.541547,167.050151 93.353887,165.496256 96.012576,163.901863 C 99.070068,162.068311 101.924356,160.1812 104.585506,158.269577 C 107.220044,156.37707 109.665287,154.460539 111.931003,152.548168 C 114.130807,150.69143 116.161376,148.838614 118.03165,147.015516 C 119.951798,145.143802 121.702987,143.303412 123.294891,141.522261 C 133.073732,130.580902 136.842,121.8749 136.842,121.8749 m 0,0 C 136.842,121.8749 136.848628,121.856726 136.861577,121.820903 C 136.880612,121.768244 136.913304,121.677448 136.958676,121.550187 C 137.046698,121.3033 137.182441,120.919172 137.358764,120.410002 C 137.579756,119.771842 137.864493,118.93726 138.198916,117.930273 C 138.583503,116.772239 139.0338,115.3862 139.528425,113.808684 C 140.018103,112.246943 140.551227,110.497536 141.10705,108.595905 C 141.736645,106.441876 142.395364,104.092534 143.053054,101.59939 C 147.093149,86.284362 151.0944,65.543024 148.06732,51.315749 m 0,0 C 147.906958,50.562049 147.738418,49.814122 147.562334,49.0723 C 146.992997,46.673742 146.344798,44.339008 145.639202,42.079319 C 144.940662,39.842227 144.185868,37.678686 143.395648,35.599584 C 142.372673,32.908092 141.290329,30.358107 140.193803,27.973249 C 134.437039,15.452744 128.28937,7.483547 128.28937,7.4835466 " id="path1414"/>
  </g>
</svg>