<?xml version="1.0" encoding="UTF-8" standalone="no"?>
<svg
   xmlns:dc="http://purl.org/dc/elements/1.1/"
   xmlns:cc="http://creativecommons.org/ns#"
   xmlns:rdf="http://www.w3.org/1999/02/22-rdf-syntax-ns#"
   xmlns:svg="http://www.w3.org/2000/svg"
   xmlns="http://www.w3.org/2000/svg"
   xmlns:sodipodi="http://sodipodi.sourceforge.net/DTD/sodipodi-0.dtd"
   xmlns:inkscape="http://www.inkscape.org/namespaces/inkscape"
   width="80.001427mm"
   height="59.608116mm"
   viewBox="0 0 80.001427 59.608116"
   version="1.1"
   id="svg8"
   inkscape:version="1.0.2 (e86c870879, 2021-01-15, custom)"
   sodipodi:docname="curveWithMorePoints.svg">
  <defs
     id="defs2" />
  <sodipodi:namedview
     id="base"
     pagecolor="#ffffff"
     bordercolor="#666666"
     borderopacity="1.0"
     inkscape:pageopacity="0.0"
     inkscape:pageshadow="2"
     inkscape:zoom="2.8"
     inkscape:cx="181.18346"
     inkscape:cy="144.95281"
     inkscape:document-units="mm"
     inkscape:current-layer="layer1"
     inkscape:document-rotation="0"
     showgrid="false"
     fit-margin-top="0"
     fit-margin-left="0"
     fit-margin-right="0"
     fit-margin-bottom="0"
     inkscape:window-width="1858"
     inkscape:window-height="1057"
     inkscape:window-x="54"
     inkscape:window-y="-8"
     inkscape:window-maximized="1" />
  <metadata
     id="metadata5">
    <rdf:RDF>
      <cc:Work
         rdf:about="">
        <dc:format>image/svg+xml</dc:format>
        <dc:type
           rdf:resource="http://purl.org/dc/dcmitype/StillImage" />
        <dc:title></dc:title>
      </cc:Work>
    </rdf:RDF>
  </metadata>
  <g
     inkscape:label="Слой 1"
     inkscape:groupmode="layer"
     id="layer1"
     transform="translate(-16.672569,-124.04156)">
    <g
       id="g877">
      <path
         style="fill:none;stroke:#1ad128;stroke-width:0.264583px;stroke-linecap:butt;stroke-linejoin:miter;stroke-opacity:1"
         d="m 18.49695,178.22963 c -0.935443,-0.53454 -4.543582,-23.11881 2.939965,-30.20146 7.483547,-7.08264 8.018085,-13.22984 22.717909,-10.95805 14.699824,2.27179 2.271792,-10.55715 17.639789,-12.16076 15.367997,-1.60362 31.805073,-1.46998 32.339613,9.75534 0.534538,11.22531 -20.579755,26.05877 -10.958049,28.99874 9.621702,2.93996 -2.004523,18.57523 -12.160766,16.30344 -10.15624,-2.27179 -31.136899,-10.28988 -23.118813,-13.36348 8.018087,-3.0736 24.054258,10.15624 22.18337,1.06908 -1.870887,-9.08716 -19.37704,-7.34991 -8.819893,-12.2944 10.557145,-4.94448 9.220797,-16.30344 -4.009043,-14.83345 -13.692438,1.52139 -19.377041,15.50162 -19.377041,15.50162"
         id="path833"
         sodipodi:nodetypes="cssssssssssc" />
      <path
         style="fill:none;stroke:#f10e0e;stroke-width:0.264583px;stroke-linecap:butt;stroke-linejoin:miter;stroke-opacity:1"
         d="m 19.571419,179.94816 c -0.935443,-0.53454 -4.543582,-23.11881 2.939965,-30.20146 c 7.483547,-7.08264 8.018085,-13.22984 22.717909,-10.95805 14.699824,2.27179 2.271792,-10.55715 17.639789,-12.16076 c 15.367997,-1.60362 31.805073,-1.46998 32.339613,9.75534 0.534538,11.22531 -20.579755,26.05877 -10.958049,28.99874 9.621702,2.93996 -2.004523,18.57523 -12.160766,16.30344 -10.15624,-2.27179 -31.136899,-10.28988 -23.118813,-13.36348 8.018087,-3.0736 24.054258,10.15624 22.18337,1.06908 -1.870887,-9.08716 -19.37704,-7.34991 -8.819893,-12.2944 10.557145,-4.94448 9.220797,-16.30344 -4.009043,-14.83345 -13.692438,1.52139 -19.377041,15.50162 -19.377041,15.50162"
         id="path833-3"
         sodipodi:nodetypes="cssssssssssc" />
    </g>
  </g>
</svg>
