<?xml version="1.0" encoding="UTF-8" standalone="no"?>
<svg
   xmlns:dc="http://purl.org/dc/elements/1.1/"
   xmlns:cc="http://creativecommons.org/ns#"
   xmlns:rdf="http://www.w3.org/1999/02/22-rdf-syntax-ns#"
   xmlns:svg="http://www.w3.org/2000/svg"
   xmlns="http://www.w3.org/2000/svg"
   xmlns:sodipodi="http://sodipodi.sourceforge.net/DTD/sodipodi-0.dtd"
   xmlns:inkscape="http://www.inkscape.org/namespaces/inkscape"
   width="90.68956mm"
   height="93.197945mm"
   viewBox="0 0 90.68956 93.197945"
   version="1.1"
   id="svg8"
   inkscape:version="1.0.2 (e86c870879, 2021-01-15, custom)"
   sodipodi:docname="twoCurves.svg">
  <defs
     id="defs2" />
  <sodipodi:namedview
     id="base"
     pagecolor="#ffffff"
     bordercolor="#666666"
     borderopacity="1.0"
     inkscape:pageopacity="0.0"
     inkscape:pageshadow="2"
     inkscape:zoom="1.4"
     inkscape:cx="235.26312"
     inkscape:cy="242.51794"
     inkscape:document-units="mm"
     inkscape:current-layer="layer1"
     inkscape:document-rotation="0"
     showgrid="false"
     fit-margin-top="0"
     fit-margin-left="0"
     fit-margin-right="0"
     fit-margin-bottom="0"
     inkscape:window-width="1849"
     inkscape:window-height="1057"
     inkscape:window-x="63"
     inkscape:window-y="-8"
     inkscape:window-maximized="1" />
  <metadata
     id="metadata5">
    <rdf:RDF>
      <cc:Work
         rdf:about="">
        <dc:format>image/svg+xml</dc:format>
        <dc:type
           rdf:resource="http://purl.org/dc/dcmitype/StillImage" />
        <dc:title></dc:title>
      </cc:Work>
    </rdf:RDF>
  </metadata>
  <g
     inkscape:label="Слой 1"
     inkscape:groupmode="layer"
     id="layer1"
     transform="translate(-44.568626,-48.896462)">
    <g
       id="g839">
      <path
         style="fill:none;stroke:#000000;stroke-width:0.264583px;stroke-linecap:butt;stroke-linejoin:miter;stroke-opacity:1"
         d="m 76.706353,74.03366 c 0,0 -13.096205,-2.405428 -9.354433,-14.165287 3.741774,-11.759858 18.441598,-14.967092 22.450641,-4.543581 4.009041,10.423512 2.138157,24.321527 10.958049,19.243405 8.81989,-5.078121 -0.26727,-24.588795 13.63075,-24.588795 13.89801,0 19.51067,7.483546 16.03617,21.381561 C 126.95302,85.258978 114.22864,105.89734 99.013862,116.63466 93.26325,120.69296 81.7658,131.00611 79.111778,109.5805 76.78694,90.812352 57.12296,78.258552 57.12296,78.258552"
         id="path833"
         sodipodi:nodetypes="csssssssc" />
      <path
         style="fill:none;stroke:#000000;stroke-width:0.264583px;stroke-linecap:butt;stroke-linejoin:miter;stroke-opacity:1"
         d="m 47.624999,66.901784 c -6.047618,40.821426 -2.834822,63.877976 10.772323,69.547616 13.607142,5.66965 11.90625,7.9375 36.852677,2.07887 24.946431,-5.85863 20.413241,-7.83157 22.867561,-17.00893 1.09309,-4.08737 -4.15774,-13.60714 4.91369,-14.36309 9.07143,-0.75595 12.09524,30.99405 12.09524,30.99405"
         id="path835"
         sodipodi:nodetypes="cssssc" />
    </g>
  </g>
</svg>
